<?xml version="1.0" encoding="utf-8" standalone="no"?>
<!DOCTYPE svg PUBLIC "-//W3C//DTD SVG 1.1//EN"
  "http://www.w3.org/Graphics/SVG/1.1/DTD/svg11.dtd">
<svg xmlns:xlink="http://www.w3.org/1999/xlink" width="446.4pt" height="446.4pt" viewBox="0 0 446.4 446.4" xmlns="http://www.w3.org/2000/svg" version="1.1">
 <metadata>
  <rdf:RDF xmlns:dc="http://purl.org/dc/elements/1.1/" xmlns:cc="http://creativecommons.org/ns#" xmlns:rdf="http://www.w3.org/1999/02/22-rdf-syntax-ns#">
   <cc:Work>
    <dc:type rdf:resource="http://purl.org/dc/dcmitype/StillImage"/>
    <dc:date>2026-02-13T05:46:04.766846</dc:date>
    <dc:format>image/svg+xml</dc:format>
    <dc:creator>
     <cc:Agent>
      <dc:title>Matplotlib v3.10.8, https://matplotlib.org/</dc:title>
     </cc:Agent>
    </dc:creator>
   </cc:Work>
  </rdf:RDF>
 </metadata>
 <defs>
  <style type="text/css">*{stroke-linejoin: round; stroke-linecap: butt}</style>
 </defs>
 <g id="figure_1">
  <g id="patch_1">
   <path d="M 0 446.4 
L 446.4 446.4 
L 446.4 0 
L 0 0 
z
" style="fill: #fefdf5"/>
  </g>
  <g id="axes_1">
   <g id="patch_2">
    <path d="M 223.2 367.2 
C 261.389246 367.2 298.019501 352.027252 325.023376 325.023376 
C 352.027252 298.019501 367.2 261.389246 367.2 223.2 
C 367.2 185.010754 352.027252 148.380499 325.023376 121.376624 
C 298.019501 94.372748 261.389246 79.2 223.2 79.2 
C 185.010754 79.2 148.380499 94.372748 121.376624 121.376624 
C 94.372748 148.380499 79.2 185.010754 79.2 223.2 
C 79.2 261.389246 94.372748 298.019501 121.376624 325.023376 
C 148.380499 352.027252 185.010754 367.2 223.2 367.2 
L 223.2 367.2 
z
" clip-path="url(#pe060c50938)" style="fill: none; stroke: #e8927c; stroke-width: 2; stroke-linejoin: miter"/>
   </g>
   <g id="line2d_1">
    <path d="M 223.2 223.2 
L 325.023376 121.376624 
" clip-path="url(#pe060c50938)" style="fill: none; stroke: #5d4e37; stroke-width: 1.5; stroke-linecap: square"/>
    <defs>
     <path id="m786c9d7af8" d="M 0 2 
C 0.530406 2 1.03916 1.789267 1.414214 1.414214 
C 1.789267 1.03916 2 0.530406 2 0 
C 2 -0.530406 1.789267 -1.03916 1.414214 -1.414214 
C 1.03916 -1.789267 0.530406 -2 0 -2 
C -0.530406 -2 -1.03916 -1.789267 -1.414214 -1.414214 
C -1.789267 -1.03916 -2 -0.530406 -2 0 
C -2 0.530406 -1.789267 1.03916 -1.414214 1.414214 
C -1.03916 1.789267 -0.530406 2 0 2 
z
" style="stroke: #5d4e37"/>
    </defs>
    <g clip-path="url(#pe060c50938)">
     <use xlink:href="#m786c9d7af8" x="223.2" y="223.2" style="fill: #5d4e37; stroke: #5d4e37"/>
     <use xlink:href="#m786c9d7af8" x="325.023376" y="121.376624" style="fill: #5d4e37; stroke: #5d4e37"/>
    </g>
   </g>
   <g id="text_1">
    <!-- $O$ -->
    <g style="fill: #5d4e37" transform="translate(217.36 244.8) scale(0.16 -0.16)">
     <defs>
      <path id="STIXGeneral-Italic-4f" d="M 4474 2675 
Q 4474 1990 4106 1363 
Q 3738 736 3149 339 
Q 2477 -115 1779 -115 
Q 1146 -115 765 281 
Q 384 678 384 1382 
Q 384 1965 697 2582 
Q 1011 3200 1517 3642 
Q 2234 4262 3034 4262 
Q 3718 4269 4096 3840 
Q 4474 3411 4474 2675 
z
M 3802 3078 
Q 3802 3533 3581 3792 
Q 3360 4051 2976 4051 
Q 2342 4051 1786 3302 
Q 1446 2842 1251 2259 
Q 1056 1677 1056 1178 
Q 1056 653 1270 374 
Q 1485 96 1888 96 
Q 2477 96 2976 704 
Q 3354 1178 3578 1862 
Q 3802 2547 3802 3078 
z
" transform="scale(0.015625)"/>
     </defs>
     <use xlink:href="#STIXGeneral-Italic-4f" transform="translate(0 0.296875)"/>
    </g>
   </g>
   <g id="text_2">
    <!-- $P$ -->
    <g style="fill: #5d4e37" transform="translate(339.423376 106.976624) scale(0.16 -0.16)">
     <defs>
      <path id="STIXGeneral-Italic-50" d="M 934 4179 
L 2477 4179 
Q 3872 4179 3872 3232 
Q 3872 2976 3753 2729 
Q 3635 2483 3437 2317 
Q 2995 1952 2125 1952 
Q 1773 1952 1549 2003 
L 1210 768 
Q 1120 422 1120 365 
Q 1120 250 1216 189 
Q 1312 128 1562 102 
L 1562 0 
L 0 0 
L 0 102 
Q 275 141 361 227 
Q 448 314 538 627 
L 1280 3277 
Q 1389 3667 1389 3808 
Q 1389 3936 1299 3990 
Q 1210 4045 934 4077 
L 934 4179 
z
M 2048 3789 
L 1606 2221 
Q 1792 2189 1939 2189 
Q 2496 2189 2758 2342 
Q 3213 2598 3213 3200 
Q 3213 3987 2381 3987 
Q 2099 3987 2048 3789 
z
" transform="scale(0.015625)"/>
     </defs>
     <use xlink:href="#STIXGeneral-Italic-50" transform="translate(0 0.703125)"/>
    </g>
   </g>
   <g id="text_3">
    <!-- $r$ -->
    <g style="fill: #5d4e37" transform="translate(254.251688 157.888312) scale(0.14 -0.14)">
     <defs>
      <path id="STIXGeneral-Italic-72" d="M 1126 1427 
L 1229 1651 
Q 1446 2131 1830 2534 
Q 2106 2822 2336 2822 
Q 2470 2822 2553 2732 
Q 2637 2643 2637 2496 
Q 2637 2349 2557 2249 
Q 2477 2150 2336 2150 
Q 2214 2150 2112 2317 
Q 2061 2406 2010 2406 
Q 1837 2406 1485 1805 
Q 1267 1434 1136 1104 
Q 1005 774 774 0 
L 288 0 
L 806 1869 
Q 909 2246 909 2394 
Q 909 2560 666 2560 
Q 614 2560 467 2541 
L 467 2650 
L 1459 2822 
L 1478 2810 
L 1126 1427 
z
" transform="scale(0.015625)"/>
     </defs>
     <use xlink:href="#STIXGeneral-Italic-72" transform="translate(0 0.90625)"/>
    </g>
   </g>
   <g id="text_4">
    <!-- $|OP| = r$ (常数) -->
    <g style="fill: #5d4e37" transform="translate(297.6 396) scale(0.16 -0.16)">
     <defs>
      <path id="STIXGeneral-Regular-7c" d="M 851 -90 
L 429 -90 
L 429 4326 
L 851 4326 
L 851 -90 
z
" transform="scale(0.015625)"/>
      <path id="STIXGeneral-Regular-3d" d="M 4077 2048 
L 307 2048 
L 307 2470 
L 4077 2470 
L 4077 2048 
z
M 4077 768 
L 307 768 
L 307 1190 
L 4077 1190 
L 4077 768 
z
" transform="scale(0.015625)"/>
      <path id="LXGWWenKai-Regular-20" transform="scale(0.015625)"/>
      <path id="LXGWWenKai-Regular-28" d="M 2016 -896 
Q 2016 -1018 1914 -1018 
Q 1862 -1018 1715 -883 
Q 1350 -544 1037 102 
Q 640 902 640 1846 
Q 640 2790 998 3644 
Q 1357 4499 1728 4902 
Q 1882 5062 1946 5062 
Q 2067 5062 2067 4954 
Q 2067 4902 2035 4870 
Q 1619 4384 1369 3478 
Q 1120 2573 1120 1865 
Q 1120 1158 1350 384 
Q 1581 -390 1965 -774 
Q 2016 -826 2016 -896 
z
" transform="scale(0.015625)"/>
      <path id="LXGWWenKai-Regular-5e38" d="M 1158 3546 
Q 1056 3085 922 2765 
Q 877 2656 790 2656 
Q 704 2656 605 2726 
Q 506 2797 506 2838 
Q 506 2880 512 2899 
Q 800 3462 902 4186 
Q 922 4326 1037 4326 
Q 1216 4326 1245 4265 
Q 1274 4205 1274 4173 
Q 1274 4141 1267 4115 
L 1229 3885 
L 2957 3994 
L 2970 4909 
Q 2970 5043 2880 5171 
Q 2848 5235 2848 5254 
Q 2848 5299 2909 5299 
Q 2970 5299 3085 5267 
Q 3379 5184 3379 5056 
L 3347 4019 
L 3674 4038 
Q 3686 4051 3699 4070 
Q 3712 4090 3862 4262 
Q 4013 4435 4166 4656 
Q 4320 4877 4336 5027 
Q 4352 5178 4410 5178 
Q 4448 5178 4537 5120 
Q 4627 5062 4704 4979 
Q 4781 4896 4781 4841 
Q 4781 4787 4659 4659 
Q 4358 4326 3949 4058 
L 5587 4160 
L 5638 4160 
Q 5792 4160 5891 4080 
Q 5990 4000 5990 3949 
Q 5990 3898 5948 3862 
Q 5907 3827 5785 3670 
Q 5664 3514 5459 3315 
Q 5254 3117 5107 3017 
Q 4960 2918 4915 2918 
Q 4870 2918 4870 2963 
Q 4870 3008 5068 3267 
Q 5267 3526 5408 3795 
L 1158 3546 
z
M 2534 4250 
Q 2534 4205 2470 4115 
Q 2406 4026 2336 4026 
Q 2266 4026 2202 4102 
Q 1939 4422 1638 4672 
Q 1562 4736 1562 4777 
Q 1562 4819 1619 4892 
Q 1677 4966 1728 4966 
Q 1837 4966 2185 4662 
Q 2534 4358 2534 4250 
z
M 1741 3248 
Q 1741 3283 1830 3283 
Q 1920 3283 2189 3194 
L 4154 3309 
L 4192 3309 
Q 4301 3309 4374 3241 
Q 4448 3174 4448 3132 
Q 4448 3091 4429 3062 
Q 4410 3034 4403 3002 
L 4301 2413 
Q 4454 2234 4454 2186 
Q 4454 2138 4419 2128 
Q 4384 2118 4326 2112 
L 2342 2016 
L 2342 1952 
Q 2342 1843 2259 1843 
Q 2150 1843 2051 1913 
Q 1952 1984 1952 2054 
L 1952 2080 
Q 1958 2118 1958 2150 
L 1958 2214 
Q 1958 2272 1952 2298 
L 1875 2893 
Q 1862 3014 1818 3098 
Q 1741 3213 1741 3248 
z
M 4000 2976 
L 2246 2880 
L 2304 2336 
L 3936 2419 
L 4000 2976 
z
M 2918 -480 
Q 2957 -134 2957 109 
L 2957 1197 
L 1786 1139 
L 1843 83 
L 1843 51 
Q 1843 -96 1747 -96 
Q 1722 -96 1638 -64 
Q 1421 13 1421 147 
L 1421 173 
Q 1440 320 1440 410 
L 1440 550 
Q 1440 595 1434 646 
L 1402 1069 
Q 1395 1293 1350 1421 
Q 1306 1549 1306 1590 
Q 1306 1632 1382 1632 
Q 1459 1632 1805 1478 
L 2957 1536 
L 2957 1568 
Q 2957 1760 2912 1865 
Q 2867 1971 2867 1984 
Q 2867 2022 2928 2022 
Q 2989 2022 3085 1997 
Q 3354 1914 3354 1786 
L 3354 1555 
L 4704 1619 
L 4800 1626 
Q 4941 1626 5030 1539 
Q 5120 1453 5120 1405 
Q 5120 1357 5091 1315 
Q 5062 1274 5056 1229 
L 5005 506 
Q 4998 474 4998 448 
L 4998 294 
Q 4998 115 4912 28 
Q 4826 -58 4730 -58 
Q 4634 -58 4483 12 
Q 4333 83 4176 185 
Q 4019 288 3913 387 
Q 3808 486 3808 524 
Q 3808 563 3846 563 
Q 3885 563 3923 550 
L 4013 531 
Q 4416 410 4608 378 
L 4653 1274 
L 3354 1216 
L 3354 -602 
Q 3354 -742 3238 -742 
Q 3206 -742 3126 -707 
Q 3046 -672 2982 -611 
Q 2918 -550 2918 -480 
z
" transform="scale(0.015625)"/>
      <path id="LXGWWenKai-Regular-6570" d="M 5510 3302 
Q 5267 2163 4851 1350 
Q 5357 512 6214 -205 
Q 6285 -262 6285 -300 
Q 6285 -339 6160 -425 
Q 6035 -512 5961 -512 
Q 5888 -512 5843 -467 
Q 5139 237 4659 998 
Q 4237 326 3674 -154 
Q 3443 -352 3286 -451 
Q 3130 -550 3085 -550 
Q 3040 -550 3040 -499 
Q 3040 -448 3130 -358 
Q 3552 58 3865 461 
Q 4179 864 4448 1370 
Q 4179 1888 3917 2688 
Q 3718 2304 3552 2089 
Q 3386 1875 3328 1875 
Q 3290 1875 3290 1939 
Q 3290 2003 3334 2099 
Q 3898 3341 4096 4403 
Q 4160 4768 4160 4829 
Q 4160 4890 4141 4973 
L 4141 4986 
Q 4141 5043 4205 5043 
Q 4243 5043 4339 5005 
Q 4621 4883 4621 4742 
Q 4621 4678 4496 4246 
Q 4371 3814 4275 3546 
L 5338 3616 
Q 5472 3629 5571 3661 
Q 5670 3693 5728 3693 
Q 5786 3693 5862 3629 
Q 6048 3482 6048 3398 
Q 6048 3341 5920 3328 
L 5510 3302 
z
M 1798 2432 
Q 1830 2624 1830 2790 
L 1830 2925 
Q 1830 2970 1843 3059 
L 1862 3142 
Q 1811 3053 1754 2976 
Q 1280 2490 762 2214 
Q 557 2106 502 2106 
Q 448 2106 448 2144 
Q 448 2202 550 2278 
Q 1114 2707 1645 3309 
L 992 3264 
L 915 3264 
Q 851 3264 758 3302 
Q 666 3341 614 3539 
Q 608 3552 608 3574 
Q 608 3597 633 3597 
Q 659 3597 713 3581 
Q 768 3565 870 3565 
L 1830 3622 
L 1830 4621 
Q 1830 4781 1795 4851 
Q 1760 4922 1760 4957 
Q 1760 4992 1811 4992 
Q 1862 4992 1952 4973 
Q 2202 4922 2202 4794 
L 2195 3642 
L 2931 3693 
Q 3072 3699 3136 3721 
Q 3200 3744 3257 3744 
Q 3315 3744 3408 3651 
Q 3501 3558 3501 3494 
Q 3501 3430 3366 3418 
L 2189 3341 
L 2189 3162 
Q 2234 3245 2307 3245 
Q 2381 3245 2736 3037 
Q 3091 2829 3187 2758 
Q 3283 2688 3283 2624 
Q 3283 2560 3219 2477 
Q 3155 2394 3113 2394 
Q 3072 2394 3002 2445 
Q 2662 2733 2227 2982 
Q 2221 2989 2211 3001 
Q 2202 3014 2189 3021 
L 2182 2368 
Q 2182 2208 2083 2208 
Q 1984 2208 1891 2281 
Q 1798 2355 1798 2432 
z
M 2822 4666 
Q 2835 4749 2880 4749 
Q 2899 4749 2970 4698 
Q 3187 4563 3187 4473 
Q 3187 4384 2931 4160 
Q 2458 3744 2323 3744 
Q 2291 3744 2291 3782 
Q 2291 3821 2467 4022 
Q 2643 4224 2784 4486 
Q 2822 4538 2822 4666 
z
M 1440 4201 
Q 1530 4109 1594 4029 
Q 1658 3949 1658 3910 
Q 1658 3872 1578 3798 
Q 1498 3725 1446 3725 
Q 1395 3725 1325 3821 
Q 1114 4109 909 4314 
Q 864 4371 864 4406 
Q 864 4442 918 4502 
Q 973 4563 1021 4563 
Q 1069 4563 1117 4518 
Q 1165 4474 1257 4384 
Q 1350 4294 1440 4201 
z
M 4160 3232 
L 4134 3162 
Q 4346 2342 4634 1754 
Q 4915 2432 5062 3283 
L 4160 3232 
z
M 2554 1920 
L 2547 2016 
Q 2547 2080 2604 2080 
Q 2662 2080 2739 2035 
Q 2950 1920 2950 1760 
L 2950 1747 
L 3341 1786 
L 3411 1792 
Q 3558 1792 3558 1728 
Q 3558 1645 3360 1606 
Q 3162 1568 2874 1523 
Q 2669 915 2336 499 
Q 2726 275 2905 156 
Q 3085 38 3085 -32 
Q 3085 -102 3033 -208 
Q 2982 -314 2918 -314 
Q 2854 -314 2640 -134 
Q 2426 45 2080 243 
Q 1466 -326 602 -474 
Q 454 -499 448 -499 
Q 352 -499 352 -454 
Q 352 -378 621 -282 
Q 1280 -45 1786 422 
Q 1382 646 1229 685 
Q 1120 710 1120 858 
Q 1120 902 1331 1280 
L 877 1235 
Q 774 1222 710 1222 
Q 461 1222 358 1581 
L 358 1600 
Q 358 1638 390 1638 
Q 422 1638 499 1619 
Q 576 1600 704 1600 
L 774 1600 
Q 947 1606 1129 1616 
Q 1312 1626 1504 1632 
Q 1670 2003 1670 2131 
L 1670 2195 
Q 1670 2272 1705 2272 
Q 1741 2272 1818 2227 
Q 2042 2093 2042 1978 
Q 2042 1920 1920 1658 
Q 2080 1670 2217 1686 
Q 2355 1702 2522 1715 
L 2541 1792 
Q 2554 1856 2554 1920 
z
M 1517 928 
Q 1683 858 2029 666 
Q 2272 973 2445 1453 
L 1754 1338 
Q 1690 1222 1635 1123 
Q 1581 1024 1517 928 
z
" transform="scale(0.015625)"/>
      <path id="LXGWWenKai-Regular-29" d="M 518 -883 
Q 371 -1018 320 -1018 
Q 218 -1018 218 -896 
Q 218 -826 269 -774 
Q 653 -390 883 384 
Q 1114 1158 1114 1865 
Q 1114 2573 864 3478 
Q 614 4384 198 4870 
Q 166 4902 166 4954 
Q 166 5062 288 5062 
Q 358 5062 512 4902 
Q 877 4499 1203 3738 
Q 1594 2790 1594 1849 
Q 1594 909 1238 179 
Q 883 -550 518 -883 
z
" transform="scale(0.015625)"/>
     </defs>
     <use xlink:href="#STIXGeneral-Regular-7c" transform="translate(0 0.203125)"/>
     <use xlink:href="#STIXGeneral-Italic-4f" transform="translate(19.999985 0.203125)"/>
     <use xlink:href="#STIXGeneral-Italic-50" transform="translate(92.199966 0.203125)"/>
     <use xlink:href="#STIXGeneral-Regular-7c" transform="translate(153.299957 0.203125)"/>
     <use xlink:href="#STIXGeneral-Regular-3d" transform="translate(187.739938 0.203125)"/>
     <use xlink:href="#STIXGeneral-Italic-72" transform="translate(270.679919 0.203125)"/>
     <use xlink:href="#LXGWWenKai-Regular-20" transform="translate(309.579913 0.203125)"/>
     <use xlink:href="#LXGWWenKai-Regular-28" transform="translate(344.579898 0.203125)"/>
     <use xlink:href="#LXGWWenKai-Regular-5e38" transform="translate(379.579883 0.203125)"/>
     <use xlink:href="#LXGWWenKai-Regular-6570" transform="translate(479.579868 0.203125)"/>
     <use xlink:href="#LXGWWenKai-Regular-29" transform="translate(579.579852 0.203125)"/>
    </g>
   </g>
  </g>
 </g>
 <defs>
  <clipPath id="pe060c50938">
   <rect x="7.2" y="7.2" width="432" height="432"/>
  </clipPath>
 </defs>
</svg>
