<?xml version="1.0" encoding="utf-8" standalone="no"?>
<!DOCTYPE svg PUBLIC "-//W3C//DTD SVG 1.1//EN"
  "http://www.w3.org/Graphics/SVG/1.1/DTD/svg11.dtd">
<svg xmlns:xlink="http://www.w3.org/1999/xlink" width="590.4pt" height="376.457143pt" viewBox="0 0 590.4 376.457143" xmlns="http://www.w3.org/2000/svg" version="1.1">
 <metadata>
  <rdf:RDF xmlns:dc="http://purl.org/dc/elements/1.1/" xmlns:cc="http://creativecommons.org/ns#" xmlns:rdf="http://www.w3.org/1999/02/22-rdf-syntax-ns#">
   <cc:Work>
    <dc:type rdf:resource="http://purl.org/dc/dcmitype/StillImage"/>
    <dc:date>2026-02-13T07:53:36.681854</dc:date>
    <dc:format>image/svg+xml</dc:format>
    <dc:creator>
     <cc:Agent>
      <dc:title>Matplotlib v3.10.8, https://matplotlib.org/</dc:title>
     </cc:Agent>
    </dc:creator>
   </cc:Work>
  </rdf:RDF>
 </metadata>
 <defs>
  <style type="text/css">*{stroke-linejoin: round; stroke-linecap: butt}</style>
 </defs>
 <g id="figure_1">
  <g id="patch_1">
   <path d="M 0 376.457143 
L 590.4 376.457143 
L 590.4 0 
L 0 0 
z
" style="fill: #fefdf5"/>
  </g>
  <g id="axes_1">
   <g id="patch_2">
    <path d="M 295.2 330.98895 
C 349.756066 330.98895 402.085002 315.946816 440.661966 289.175403 
C 479.238931 262.403991 500.914286 226.089066 500.914286 188.228571 
C 500.914286 150.368076 479.238931 114.053152 440.661966 87.28174 
C 402.085002 60.510327 349.756066 45.468193 295.2 45.468193 
C 240.643934 45.468193 188.314998 60.510327 149.738034 87.28174 
C 111.161069 114.053152 89.485714 150.368076 89.485714 188.228571 
C 89.485714 226.089066 111.161069 262.403991 149.738034 289.175403 
C 188.314998 315.946816 240.643934 330.98895 295.2 330.98895 
L 295.2 330.98895 
z
" clip-path="url(#p2eee716935)" style="fill: none; opacity: 0.8; stroke: #d1d1d1; stroke-linejoin: miter"/>
   </g>
   <g id="line2d_1">
    <path d="M 147.085714 188.228571 
L 398.057143 64.594457 
" clip-path="url(#p2eee716935)" style="fill: none; stroke: #e8927c; stroke-width: 2.5; stroke-linecap: square"/>
   </g>
   <g id="line2d_2">
    <path d="M 443.314286 188.228571 
L 398.057143 64.594457 
" clip-path="url(#p2eee716935)" style="fill: none; stroke: #e8927c; stroke-width: 2.5; stroke-linecap: square"/>
   </g>
   <g id="text_1">
    <!-- $F_1$ -->
    <g style="fill: #5d4e37" transform="translate(139.005714 212.914286) scale(0.16 -0.16)">
     <defs>
      <path id="STIXGeneral-Italic-46" d="M 4128 4179 
L 3923 3194 
L 3789 3206 
Q 3808 3347 3808 3418 
Q 3808 3667 3718 3772 
Q 3629 3878 3373 3923 
Q 3117 3968 2534 3968 
Q 2310 3968 2220 3926 
Q 2131 3885 2099 3763 
L 1690 2310 
Q 2003 2317 2147 2317 
Q 2291 2317 2457 2345 
Q 2624 2374 2678 2396 
Q 2733 2419 2822 2505 
Q 2912 2592 2950 2665 
Q 2989 2739 3072 2912 
L 3187 2880 
L 2701 1376 
L 2592 1408 
Q 2643 1670 2643 1798 
Q 2643 1978 2531 2029 
Q 2419 2080 2163 2080 
Q 1984 2080 1632 2099 
L 1254 736 
Q 1165 416 1165 352 
Q 1165 237 1273 179 
Q 1382 122 1658 102 
L 1658 0 
L 51 0 
L 51 102 
Q 314 122 410 224 
Q 506 326 582 602 
L 1370 3430 
Q 1434 3661 1434 3821 
Q 1434 3955 1347 4003 
Q 1261 4051 947 4077 
L 947 4179 
L 4128 4179 
z
" transform="scale(0.015625)"/>
      <path id="STIXGeneral-Regular-31" d="M 2522 0 
L 755 0 
L 755 96 
Q 1107 115 1235 227 
Q 1363 339 1363 608 
L 1363 3482 
Q 1363 3795 1171 3795 
Q 1082 3795 883 3718 
L 710 3654 
L 710 3744 
L 1856 4326 
L 1914 4307 
L 1914 486 
Q 1914 275 2042 185 
Q 2170 96 2522 96 
L 2522 0 
z
" transform="scale(0.015625)"/>
     </defs>
     <use xlink:href="#STIXGeneral-Italic-46" transform="translate(0 0.703125)"/>
     <use xlink:href="#STIXGeneral-Regular-31" transform="translate(61.099991 -12.525) scale(0.7)"/>
    </g>
   </g>
   <g id="text_2">
    <!-- $F_2$ -->
    <g style="fill: #5d4e37" transform="translate(435.234286 212.914286) scale(0.16 -0.16)">
     <defs>
      <path id="STIXGeneral-Regular-32" d="M 3034 877 
L 2688 0 
L 186 0 
L 186 77 
L 1325 1286 
Q 1773 1754 1965 2144 
Q 2157 2534 2157 2950 
Q 2157 3379 1920 3616 
Q 1683 3853 1267 3853 
Q 922 3853 720 3673 
Q 518 3494 326 3021 
L 192 3053 
Q 301 3648 630 3987 
Q 960 4326 1523 4326 
Q 2054 4326 2380 4006 
Q 2707 3686 2707 3200 
Q 2707 2477 1888 1613 
L 832 486 
L 2330 486 
Q 2541 486 2665 569 
Q 2790 653 2944 915 
L 3034 877 
z
" transform="scale(0.015625)"/>
     </defs>
     <use xlink:href="#STIXGeneral-Italic-46" transform="translate(0 0.703125)"/>
     <use xlink:href="#STIXGeneral-Regular-32" transform="translate(61.099991 -12.525) scale(0.7)"/>
    </g>
   </g>
   <g id="text_3">
    <!-- $M$ -->
    <g style="fill: #5d4e37" transform="translate(406.285714 56.365885) scale(0.16 -0.16)">
     <defs>
      <path id="STIXGeneral-Italic-4d" d="M 5581 4179 
L 5581 4077 
Q 5318 4032 5225 3945 
Q 5133 3859 5062 3603 
L 4275 768 
Q 4186 448 4186 371 
Q 4186 243 4301 176 
Q 4416 109 4704 102 
L 4698 0 
L 2963 0 
L 2963 102 
Q 3277 134 3405 243 
Q 3533 352 3616 653 
L 4422 3590 
L 2016 0 
L 1907 0 
L 1510 3494 
L 755 755 
Q 698 550 698 410 
Q 698 134 1146 102 
L 1146 0 
L -115 0 
L -115 102 
Q 141 134 259 284 
Q 378 435 525 960 
L 1254 3526 
Q 1331 3789 1331 3859 
Q 1331 4051 858 4077 
L 858 4179 
L 2016 4179 
L 2374 1030 
L 4518 4179 
L 5581 4179 
z
" transform="scale(0.015625)"/>
     </defs>
     <use xlink:href="#STIXGeneral-Italic-4d" transform="translate(0 0.703125)"/>
    </g>
   </g>
   <g id="text_4">
    <!-- $|M F_1| + |M F_2| = 2 a \quad (2 a &gt; |F_1 F_2|)$ -->
    <g style="fill: #5d4e37" transform="translate(176.4 336.342857) scale(0.18 -0.18)">
     <defs>
      <path id="STIXGeneral-Regular-7c" d="M 851 -90 
L 429 -90 
L 429 4326 
L 851 4326 
L 851 -90 
z
" transform="scale(0.015625)"/>
      <path id="STIXGeneral-Regular-2b" d="M 4070 1408 
L 2400 1408 
L 2400 -262 
L 1978 -262 
L 1978 1408 
L 307 1408 
L 307 1830 
L 1978 1830 
L 1978 3501 
L 2400 3501 
L 2400 1830 
L 4070 1830 
L 4070 1408 
z
" transform="scale(0.015625)"/>
      <path id="STIXGeneral-Regular-3d" d="M 4077 2048 
L 307 2048 
L 307 2470 
L 4077 2470 
L 4077 2048 
z
M 4077 768 
L 307 768 
L 307 1190 
L 4077 1190 
L 4077 768 
z
" transform="scale(0.015625)"/>
      <path id="STIXGeneral-Italic-61" d="M 2963 710 
L 3046 640 
Q 2688 205 2518 70 
Q 2349 -64 2157 -64 
Q 1901 -64 1901 198 
Q 1901 358 2048 934 
Q 1690 397 1389 163 
Q 1088 -70 749 -70 
Q 467 -70 288 125 
Q 109 320 109 672 
Q 109 1158 387 1664 
Q 666 2170 1094 2496 
Q 1523 2822 1939 2822 
Q 2368 2822 2451 2451 
L 2522 2758 
L 2541 2778 
L 2931 2822 
L 2976 2803 
Q 2970 2778 2938 2669 
Q 2368 595 2368 346 
Q 2368 262 2458 262 
Q 2554 262 2790 525 
L 2963 710 
z
M 2336 2310 
Q 2336 2477 2240 2579 
Q 2144 2682 1978 2682 
Q 1542 2682 1139 2093 
Q 928 1779 787 1395 
Q 646 1011 646 717 
Q 646 243 1030 243 
Q 1408 243 1843 870 
Q 2336 1581 2336 2310 
z
" transform="scale(0.015625)"/>
      <path id="STIXGeneral-Regular-28" d="M 1946 -1030 
L 1869 -1133 
Q 1126 -710 716 32 
Q 307 774 307 1613 
Q 307 3386 1888 4326 
L 1946 4224 
Q 1293 3667 1075 3126 
Q 858 2586 858 1632 
Q 858 685 1082 96 
Q 1306 -493 1946 -1030 
z
" transform="scale(0.015625)"/>
      <path id="STIXGeneral-Regular-3e" d="M 3974 1594 
L 358 -154 
L 358 250 
L 3123 1626 
L 358 3002 
L 358 3418 
L 3974 1658 
L 3974 1594 
z
" transform="scale(0.015625)"/>
      <path id="STIXGeneral-Regular-29" d="M 186 4224 
L 262 4326 
Q 992 3891 1408 3148 
Q 1824 2406 1824 1581 
Q 1824 -166 243 -1133 
L 186 -1030 
Q 845 -486 1059 54 
Q 1274 595 1274 1562 
Q 1274 2534 1059 3120 
Q 845 3706 186 4224 
z
" transform="scale(0.015625)"/>
     </defs>
     <use xlink:href="#STIXGeneral-Regular-7c" transform="translate(0 0.40625)"/>
     <use xlink:href="#STIXGeneral-Italic-4d" transform="translate(19.999985 0.40625)"/>
     <use xlink:href="#STIXGeneral-Italic-46" transform="translate(103.299973 0.40625)"/>
     <use xlink:href="#STIXGeneral-Regular-31" transform="translate(164.399963 -12.821875) scale(0.7)"/>
     <use xlink:href="#STIXGeneral-Regular-7c" transform="translate(203.809328 0.40625)"/>
     <use xlink:href="#STIXGeneral-Regular-2b" transform="translate(238.249309 0.40625)"/>
     <use xlink:href="#STIXGeneral-Regular-7c" transform="translate(321.18929 0.40625)"/>
     <use xlink:href="#STIXGeneral-Italic-4d" transform="translate(341.189275 0.40625)"/>
     <use xlink:href="#STIXGeneral-Italic-46" transform="translate(424.489262 0.40625)"/>
     <use xlink:href="#STIXGeneral-Regular-32" transform="translate(485.589253 -12.821875) scale(0.7)"/>
     <use xlink:href="#STIXGeneral-Regular-7c" transform="translate(524.998618 0.40625)"/>
     <use xlink:href="#STIXGeneral-Regular-3d" transform="translate(559.438599 0.40625)"/>
     <use xlink:href="#STIXGeneral-Regular-32" transform="translate(642.37858 0.40625)"/>
     <use xlink:href="#STIXGeneral-Italic-61" transform="translate(692.378564 0.40625)"/>
     <use xlink:href="#STIXGeneral-Regular-28" transform="translate(814.678537 0.40625)"/>
     <use xlink:href="#STIXGeneral-Regular-32" transform="translate(847.978525 0.40625)"/>
     <use xlink:href="#STIXGeneral-Italic-61" transform="translate(897.97851 0.40625)"/>
     <use xlink:href="#STIXGeneral-Regular-3e" transform="translate(962.518497 0.40625)"/>
     <use xlink:href="#STIXGeneral-Regular-7c" transform="translate(1045.458478 0.40625)"/>
     <use xlink:href="#STIXGeneral-Italic-46" transform="translate(1065.458463 0.40625)"/>
     <use xlink:href="#STIXGeneral-Regular-31" transform="translate(1126.558453 -12.821875) scale(0.7)"/>
     <use xlink:href="#STIXGeneral-Italic-46" transform="translate(1165.967818 0.40625)"/>
     <use xlink:href="#STIXGeneral-Regular-32" transform="translate(1227.067809 -12.821875) scale(0.7)"/>
     <use xlink:href="#STIXGeneral-Regular-7c" transform="translate(1266.477173 0.40625)"/>
     <use xlink:href="#STIXGeneral-Regular-29" transform="translate(1286.477158 0.40625)"/>
    </g>
   </g>
   <g id="line2d_3">
    <defs>
     <path id="m6172002047" d="M 0 2.5 
C 0.663008 2.5 1.29895 2.236584 1.767767 1.767767 
C 2.236584 1.29895 2.5 0.663008 2.5 0 
C 2.5 -0.663008 2.236584 -1.29895 1.767767 -1.767767 
C 1.29895 -2.236584 0.663008 -2.5 0 -2.5 
C -0.663008 -2.5 -1.29895 -2.236584 -1.767767 -1.767767 
C -2.236584 -1.29895 -2.5 -0.663008 -2.5 0 
C -2.5 0.663008 -2.236584 1.29895 -1.767767 1.767767 
C -1.29895 2.236584 -0.663008 2.5 0 2.5 
z
" style="stroke: #5d4e37"/>
    </defs>
    <g clip-path="url(#p2eee716935)">
     <use xlink:href="#m6172002047" x="147.085714" y="188.228571" style="fill: #5d4e37; stroke: #5d4e37"/>
     <use xlink:href="#m6172002047" x="443.314286" y="188.228571" style="fill: #5d4e37; stroke: #5d4e37"/>
    </g>
   </g>
   <g id="line2d_4">
    <defs>
     <path id="me0637bc42c" d="M 0 3 
C 0.795609 3 1.55874 2.683901 2.12132 2.12132 
C 2.683901 1.55874 3 0.795609 3 0 
C 3 -0.795609 2.683901 -1.55874 2.12132 -2.12132 
C 1.55874 -2.683901 0.795609 -3 0 -3 
C -0.795609 -3 -1.55874 -2.683901 -2.12132 -2.12132 
C -2.683901 -1.55874 -3 -0.795609 -3 0 
C -3 0.795609 -2.683901 1.55874 -2.12132 2.12132 
C -1.55874 2.683901 -0.795609 3 0 3 
z
" style="stroke: #5d4e37"/>
    </defs>
    <g clip-path="url(#p2eee716935)">
     <use xlink:href="#me0637bc42c" x="398.057143" y="64.594457" style="fill: #5d4e37; stroke: #5d4e37"/>
    </g>
   </g>
  </g>
 </g>
 <defs>
  <clipPath id="p2eee716935">
   <rect x="7.2" y="7.2" width="576" height="362.057143"/>
  </clipPath>
 </defs>
</svg>
