<?xml version="1.0" encoding="utf-8" standalone="no"?>
<!DOCTYPE svg PUBLIC "-//W3C//DTD SVG 1.1//EN"
  "http://www.w3.org/Graphics/SVG/1.1/DTD/svg11.dtd">
<svg xmlns:xlink="http://www.w3.org/1999/xlink" width="590.4pt" height="376.457143pt" viewBox="0 0 590.4 376.457143" xmlns="http://www.w3.org/2000/svg" version="1.1">
 <metadata>
  <rdf:RDF xmlns:dc="http://purl.org/dc/elements/1.1/" xmlns:cc="http://creativecommons.org/ns#" xmlns:rdf="http://www.w3.org/1999/02/22-rdf-syntax-ns#">
   <cc:Work>
    <dc:type rdf:resource="http://purl.org/dc/dcmitype/StillImage"/>
    <dc:date>2026-02-13T07:53:36.765377</dc:date>
    <dc:format>image/svg+xml</dc:format>
    <dc:creator>
     <cc:Agent>
      <dc:title>Matplotlib v3.10.8, https://matplotlib.org/</dc:title>
     </cc:Agent>
    </dc:creator>
   </cc:Work>
  </rdf:RDF>
 </metadata>
 <defs>
  <style type="text/css">*{stroke-linejoin: round; stroke-linecap: butt}</style>
 </defs>
 <g id="figure_1">
  <g id="patch_1">
   <path d="M 0 376.457143 
L 590.4 376.457143 
L 590.4 0 
L 0 0 
z
" style="fill: #fefdf5"/>
  </g>
  <g id="axes_1">
   <g id="patch_2">
    <path d="M 295.2 330.98895 
C 349.756066 330.98895 402.085002 315.946816 440.661966 289.175403 
C 479.238931 262.403991 500.914286 226.089066 500.914286 188.228571 
C 500.914286 150.368076 479.238931 114.053152 440.661966 87.28174 
C 402.085002 60.510327 349.756066 45.468193 295.2 45.468193 
C 240.643934 45.468193 188.314998 60.510327 149.738034 87.28174 
C 111.161069 114.053152 89.485714 150.368076 89.485714 188.228571 
C 89.485714 226.089066 111.161069 262.403991 149.738034 289.175403 
C 188.314998 315.946816 240.643934 330.98895 295.2 330.98895 
L 295.2 330.98895 
z
" clip-path="url(#p97e8a1c411)" style="fill: none; stroke: #5d4e37; stroke-width: 1.2; stroke-linejoin: miter"/>
   </g>
   <g id="line2d_1">
    <path d="M 147.085714 229.371429 
L 443.314286 229.371429 
" clip-path="url(#p97e8a1c411)" style="fill: none; stroke: #5d4e37; stroke-linecap: square"/>
   </g>
   <g id="line2d_2">
    <path d="M 147.085714 237.6 
L 147.085714 221.142857 
" clip-path="url(#p97e8a1c411)" style="fill: none; stroke: #5d4e37; stroke-linecap: square"/>
   </g>
   <g id="line2d_3">
    <path d="M 443.314286 237.6 
L 443.314286 221.142857 
" clip-path="url(#p97e8a1c411)" style="fill: none; stroke: #5d4e37; stroke-linecap: square"/>
   </g>
   <g id="line2d_4">
    <path d="M 89.485714 303.428571 
L 500.914286 303.428571 
" clip-path="url(#p97e8a1c411)" style="fill: none; stroke: #5d4e37; stroke-linecap: square"/>
   </g>
   <g id="line2d_5">
    <path d="M 89.485714 311.657143 
L 89.485714 295.2 
" clip-path="url(#p97e8a1c411)" style="fill: none; stroke: #5d4e37; stroke-linecap: square"/>
   </g>
   <g id="line2d_6">
    <path d="M 500.914286 311.657143 
L 500.914286 295.2 
" clip-path="url(#p97e8a1c411)" style="fill: none; stroke: #5d4e37; stroke-linecap: square"/>
   </g>
   <g id="patch_3">
    <path d="M 87.999605 95.559372 
Q 116.988186 139.005816 145.480341 181.708243 
" style="fill: none; stroke: #5d4e37; stroke-width: 0.8; stroke-linecap: round"/>
    <path d="M 144.701357 175.495902 
L 145.480341 181.708243 
L 140.043078 178.604025 
" style="fill: none; stroke: #5d4e37; stroke-width: 0.8; stroke-linecap: round"/>
   </g>
   <g id="text_1">
    <!-- 焦点 -->
    <g style="fill: #5d4e37" transform="translate(67.257143 89.485714) scale(0.14 -0.14)">
     <defs>
      <path id="LXGWWenKai-Regular-7126" d="M 3610 4954 
L 3597 5030 
L 3597 5056 
Q 3597 5133 3661 5133 
Q 3725 5133 3821 5082 
Q 4070 4947 4070 4845 
Q 4070 4768 3907 4509 
Q 3744 4250 3635 4115 
L 4768 4192 
Q 4915 4205 4969 4224 
Q 5024 4243 5059 4243 
Q 5094 4243 5171 4198 
Q 5363 4070 5363 3949 
Q 5363 3885 5222 3872 
L 3654 3776 
L 3648 3238 
L 4435 3277 
Q 4582 3290 4630 3312 
Q 4678 3334 4713 3334 
Q 4749 3334 4826 3290 
Q 5024 3155 5024 3053 
Q 5024 2982 4877 2970 
L 3648 2912 
L 3648 2349 
L 4461 2387 
Q 4614 2406 4656 2425 
Q 4698 2445 4739 2445 
Q 4781 2445 4851 2390 
Q 4922 2336 4973 2265 
Q 5024 2195 5024 2157 
Q 5024 2099 4890 2080 
L 3648 2022 
L 3642 1427 
L 5120 1485 
Q 5242 1491 5296 1513 
Q 5350 1536 5404 1536 
Q 5459 1536 5529 1472 
Q 5600 1408 5645 1334 
Q 5690 1261 5690 1229 
Q 5690 1178 5555 1158 
L 1978 1030 
L 1978 832 
Q 1978 723 1882 723 
Q 1766 723 1644 812 
Q 1523 902 1523 953 
Q 1523 1005 1552 1113 
Q 1581 1222 1581 1459 
L 1600 3219 
Q 1184 2720 800 2394 
Q 627 2246 569 2246 
Q 512 2246 512 2307 
Q 512 2368 608 2483 
Q 1645 3731 2150 4813 
Q 2208 4941 2208 5062 
Q 2208 5184 2278 5184 
Q 2317 5184 2419 5133 
Q 2522 5082 2611 5005 
Q 2701 4928 2701 4883 
Q 2701 4838 2547 4579 
Q 2394 4320 2182 4026 
L 3264 4096 
Q 3482 4448 3546 4659 
Q 3610 4870 3610 4902 
L 3610 4954 
z
M 3270 3757 
L 1990 3680 
L 1984 3149 
L 3264 3213 
L 3270 3757 
z
M 3264 2893 
L 1984 2829 
L 1984 2266 
L 3258 2330 
L 3264 2893 
z
M 3258 2003 
L 1984 1946 
L 1978 1363 
L 3251 1414 
L 3258 2003 
z
M 5725 166 
Q 5888 0 5990 -125 
Q 6093 -250 6093 -304 
Q 6093 -358 6006 -460 
Q 5920 -563 5849 -563 
Q 5779 -563 5702 -467 
Q 5261 115 4736 582 
Q 4666 653 4666 710 
Q 4666 768 4742 832 
Q 4819 896 4873 896 
Q 4928 896 5053 790 
Q 5178 685 5370 509 
Q 5562 333 5725 166 
z
M 1018 -173 
Q 890 -346 787 -458 
Q 685 -570 643 -570 
Q 602 -570 496 -477 
Q 390 -384 390 -323 
Q 390 -262 448 -205 
Q 960 307 1158 736 
Q 1229 845 1257 845 
Q 1286 845 1350 826 
Q 1536 768 1536 678 
Q 1536 589 1341 294 
Q 1146 0 1018 -173 
z
M 4182 208 
Q 4326 58 4422 -57 
Q 4518 -173 4518 -205 
Q 4518 -237 4480 -294 
Q 4288 -550 4115 -339 
Q 3693 186 3315 506 
Q 3238 576 3238 627 
Q 3238 678 3312 752 
Q 3386 826 3440 826 
Q 3494 826 3616 733 
Q 3738 640 3888 499 
Q 4038 358 4182 208 
z
M 2774 173 
Q 2880 32 2947 -77 
Q 3014 -186 3014 -230 
Q 3014 -275 2918 -355 
Q 2822 -435 2755 -435 
Q 2688 -435 2618 -320 
Q 2323 173 2054 454 
Q 1990 518 1990 572 
Q 1990 627 2080 698 
Q 2144 762 2195 762 
Q 2246 762 2342 672 
Q 2438 582 2553 448 
Q 2669 314 2774 173 
z
" transform="scale(0.015625)"/>
      <path id="LXGWWenKai-Regular-70b9" d="M 1632 1197 
Q 1658 1376 1658 1449 
Q 1658 1523 1645 1613 
L 1523 2560 
Q 1510 2746 1456 2854 
Q 1402 2963 1402 3001 
Q 1402 3040 1494 3040 
Q 1587 3040 1926 2912 
L 2880 2963 
L 2886 4717 
Q 2886 4845 2838 4931 
Q 2790 5018 2790 5053 
Q 2790 5088 2860 5088 
Q 2931 5088 3034 5069 
Q 3309 5018 3309 4864 
L 3290 4077 
L 4538 4147 
Q 4659 4154 4729 4186 
Q 4800 4218 4854 4218 
Q 4909 4218 4979 4166 
Q 5158 4045 5158 3917 
Q 5158 3827 4992 3814 
L 3283 3725 
L 3270 2989 
L 4499 3053 
L 4576 3053 
Q 4704 3053 4790 2979 
Q 4877 2906 4877 2848 
Q 4877 2790 4857 2761 
Q 4838 2733 4832 2707 
L 4659 1683 
Q 4800 1485 4800 1414 
Q 4800 1344 4745 1337 
Q 4691 1331 4608 1325 
L 2061 1235 
L 2074 1101 
L 2074 1069 
Q 2074 941 1952 941 
Q 1818 941 1725 1024 
Q 1632 1107 1632 1197 
z
M 4416 2701 
L 1926 2573 
L 2022 1587 
L 4269 1677 
L 4416 2701 
z
M 5686 153 
Q 5856 -26 5968 -163 
Q 6080 -301 6080 -349 
Q 6080 -397 6029 -461 
Q 5805 -704 5677 -506 
Q 5235 96 4723 570 
Q 4646 646 4646 691 
Q 4646 736 4716 819 
Q 4787 902 4835 902 
Q 4883 902 5020 790 
Q 5158 678 5337 505 
Q 5517 333 5686 153 
z
M 4157 195 
Q 4288 32 4374 -89 
Q 4461 -211 4461 -246 
Q 4461 -282 4361 -374 
Q 4262 -467 4188 -467 
Q 4115 -467 4045 -352 
Q 3725 173 3347 576 
Q 3277 659 3277 698 
Q 3277 762 3357 826 
Q 3437 890 3481 890 
Q 3526 890 3638 784 
Q 3750 678 3888 518 
Q 4026 358 4157 195 
z
M 838 -499 
Q 736 -614 685 -614 
Q 634 -614 528 -531 
Q 422 -448 422 -371 
Q 422 -294 486 -230 
Q 973 256 1210 755 
Q 1254 858 1331 858 
Q 1408 858 1491 810 
Q 1574 762 1574 698 
Q 1574 634 1497 486 
Q 1421 339 1305 153 
Q 1190 -32 1065 -208 
Q 941 -384 838 -499 
z
M 2813 182 
Q 2912 26 2973 -92 
Q 3034 -211 3034 -249 
Q 3034 -288 2938 -368 
Q 2842 -448 2755 -448 
Q 2669 -448 2611 -326 
Q 2381 205 2131 538 
Q 2067 621 2067 665 
Q 2067 710 2144 771 
Q 2221 832 2272 832 
Q 2323 832 2412 733 
Q 2502 634 2608 486 
Q 2714 339 2813 182 
z
" transform="scale(0.015625)"/>
     </defs>
     <use xlink:href="#LXGWWenKai-Regular-7126"/>
     <use xlink:href="#LXGWWenKai-Regular-70b9" transform="translate(99.999985 0)"/>
    </g>
   </g>
   <g id="patch_4">
    <path d="M 502.400395 95.559372 
Q 473.411814 139.005816 444.919659 181.708243 
" style="fill: none; stroke: #5d4e37; stroke-width: 0.8; stroke-linecap: round"/>
    <path d="M 450.356922 178.604025 
L 444.919659 181.708243 
L 445.698643 175.495902 
" style="fill: none; stroke: #5d4e37; stroke-width: 0.8; stroke-linecap: round"/>
   </g>
   <g id="text_2">
    <!-- 焦点 -->
    <g style="fill: #5d4e37" transform="translate(495.142857 89.485714) scale(0.14 -0.14)">
     <use xlink:href="#LXGWWenKai-Regular-7126"/>
     <use xlink:href="#LXGWWenKai-Regular-70b9" transform="translate(99.999985 0)"/>
    </g>
   </g>
   <g id="text_3">
    <!-- 焦距 $2 c$ -->
    <g style="fill: #5d4e37" transform="translate(270.45 248.519531) scale(0.15 -0.15)">
     <defs>
      <path id="LXGWWenKai-Regular-8ddd" d="M 5331 1882 
Q 5568 1658 5568 1600 
Q 5568 1542 5517 1532 
Q 5466 1523 5395 1517 
L 3507 1434 
L 3507 262 
L 5485 314 
Q 5645 314 5744 346 
Q 5843 378 5888 378 
Q 5933 378 6016 314 
Q 6214 154 6214 45 
Q 6214 -32 6067 -45 
L 3507 -122 
L 3507 -352 
Q 3507 -506 3398 -506 
Q 3347 -506 3264 -474 
Q 3059 -384 3059 -243 
Q 3059 -224 3059 -205 
Q 3059 -186 3078 -109 
Q 3098 -32 3098 205 
L 3130 4154 
Q 3130 4442 3053 4582 
Q 3040 4602 3040 4614 
Q 3040 4653 3123 4653 
Q 3206 4653 3533 4525 
L 5229 4627 
Q 5408 4640 5497 4672 
Q 5587 4704 5638 4704 
Q 5690 4704 5773 4640 
Q 5856 4576 5913 4502 
Q 5971 4429 5971 4390 
Q 5971 4314 5818 4301 
L 3514 4160 
L 3514 3181 
L 5197 3270 
L 5254 3270 
Q 5402 3270 5475 3171 
Q 5549 3072 5549 3030 
Q 5549 2989 5533 2953 
Q 5517 2918 5510 2886 
L 5331 1882 
z
M 870 2707 
Q 774 2784 780 2877 
Q 787 2970 787 2989 
L 787 3110 
Q 787 3149 781 3194 
L 698 4115 
Q 685 4307 621 4409 
Q 557 4512 557 4566 
Q 557 4621 672 4621 
Q 787 4621 1075 4499 
L 2406 4608 
L 2458 4608 
Q 2598 4608 2675 4534 
Q 2752 4461 2752 4413 
Q 2752 4365 2733 4339 
Q 2714 4314 2707 4282 
L 2573 3309 
Q 2726 3136 2726 3081 
Q 2726 3027 2672 3017 
Q 2618 3008 2541 3002 
L 1946 2963 
L 1939 2182 
L 2170 2195 
Q 2298 2208 2362 2230 
Q 2426 2253 2464 2253 
Q 2502 2253 2573 2208 
Q 2765 2093 2765 1984 
Q 2765 1901 2624 1888 
L 1933 1856 
L 1920 570 
Q 2157 640 2371 694 
Q 2586 749 2736 797 
Q 2886 845 2950 845 
Q 3014 845 3014 790 
Q 3014 736 2880 666 
Q 1690 77 851 -128 
Q 570 -192 563 -192 
Q 397 -192 256 32 
Q 186 147 186 173 
Q 186 218 272 218 
Q 358 218 457 234 
Q 557 250 640 262 
L 787 288 
L 736 2054 
Q 723 2195 675 2275 
Q 627 2355 627 2387 
Q 627 2438 697 2438 
Q 768 2438 864 2419 
Q 1120 2355 1120 2234 
L 1146 371 
Q 1325 410 1536 467 
L 1555 2931 
L 1178 2906 
L 1190 2778 
L 1190 2752 
Q 1190 2630 1094 2630 
Q 966 2630 870 2707 
z
M 2291 4262 
L 1075 4166 
L 1152 3232 
L 2202 3309 
L 2291 4262 
z
M 5088 2906 
L 3514 2835 
L 3514 1798 
L 4960 1862 
L 5088 2906 
z
" transform="scale(0.015625)"/>
      <path id="LXGWWenKai-Regular-20" transform="scale(0.015625)"/>
      <path id="STIXGeneral-Regular-32" d="M 3034 877 
L 2688 0 
L 186 0 
L 186 77 
L 1325 1286 
Q 1773 1754 1965 2144 
Q 2157 2534 2157 2950 
Q 2157 3379 1920 3616 
Q 1683 3853 1267 3853 
Q 922 3853 720 3673 
Q 518 3494 326 3021 
L 192 3053 
Q 301 3648 630 3987 
Q 960 4326 1523 4326 
Q 2054 4326 2380 4006 
Q 2707 3686 2707 3200 
Q 2707 2477 1888 1613 
L 832 486 
L 2330 486 
Q 2541 486 2665 569 
Q 2790 653 2944 915 
L 3034 877 
z
" transform="scale(0.015625)"/>
      <path id="STIXGeneral-Italic-63" d="M 2240 685 
L 2342 621 
Q 2048 250 1769 90 
Q 1491 -70 1133 -70 
Q 678 -70 435 179 
Q 192 429 192 915 
Q 192 1344 409 1744 
Q 627 2144 979 2432 
Q 1472 2822 2048 2822 
Q 2342 2822 2531 2675 
Q 2720 2528 2720 2304 
Q 2720 2176 2630 2086 
Q 2541 1997 2413 1997 
Q 2285 1997 2224 2070 
Q 2163 2144 2163 2253 
Q 2163 2310 2211 2403 
Q 2259 2496 2259 2560 
Q 2259 2688 2022 2688 
Q 1619 2688 1325 2381 
Q 742 1766 742 890 
Q 742 544 889 352 
Q 1037 160 1312 160 
Q 1562 160 1766 281 
Q 1971 403 2240 685 
z
" transform="scale(0.015625)"/>
     </defs>
     <use xlink:href="#LXGWWenKai-Regular-7126"/>
     <use xlink:href="#LXGWWenKai-Regular-8ddd" transform="translate(99.999985 0)"/>
     <use xlink:href="#LXGWWenKai-Regular-20" transform="translate(199.999969 0)"/>
     <use xlink:href="#STIXGeneral-Regular-32" transform="translate(234.999954 0)"/>
     <use xlink:href="#STIXGeneral-Italic-63" transform="translate(284.999939 0)"/>
    </g>
   </g>
   <g id="text_4">
    <!-- 长轴 $2 a$ -->
    <g style="fill: #5d4e37" transform="translate(270 322.876674) scale(0.15 -0.15)">
     <defs>
      <path id="LXGWWenKai-Regular-957f" d="M 4691 4813 
Q 4813 4787 4960 4550 
Q 5018 4461 5005 4403 
Q 4986 4288 4522 3965 
Q 4058 3642 3539 3392 
Q 2899 3066 2656 3110 
Q 2592 3117 2598 3162 
Q 2611 3232 2739 3299 
Q 2867 3366 3264 3596 
Q 3661 3827 4102 4150 
Q 4544 4474 4595 4704 
Q 4634 4819 4691 4813 
z
M 5510 2848 
Q 5574 2867 5612 2867 
Q 5651 2867 5728 2822 
Q 5946 2688 5946 2573 
Q 5946 2470 5779 2464 
L 3379 2342 
Q 3674 1837 4096 1402 
Q 4954 506 6022 109 
Q 6170 58 6170 0 
Q 6170 -26 6099 -109 
Q 5939 -326 5798 -326 
L 5779 -326 
Q 5094 -58 4333 576 
Q 3494 1274 2912 2317 
L 2285 2285 
L 2278 250 
Q 2925 544 3322 781 
Q 3437 851 3501 844 
Q 3565 838 3565 794 
Q 3565 672 3219 429 
Q 2669 38 2253 -195 
Q 1837 -429 1680 -499 
Q 1523 -570 1465 -563 
Q 1408 -557 1334 -509 
Q 1261 -461 1171 -345 
Q 1082 -230 1082 -182 
Q 1082 -134 1248 -124 
Q 1414 -115 1818 64 
L 1875 90 
L 1875 2266 
L 742 2208 
Q 634 2202 589 2240 
Q 410 2400 410 2554 
Q 410 2605 461 2605 
Q 499 2605 547 2589 
Q 595 2573 710 2573 
Q 1338 2605 1882 2630 
L 1882 4576 
Q 1882 4762 1773 4915 
Q 1741 4966 1741 4998 
Q 1741 5030 1824 5030 
Q 1907 5030 2061 4979 
Q 2291 4902 2291 4774 
L 2285 2650 
Q 5389 2810 5510 2848 
z
" transform="scale(0.015625)"/>
      <path id="LXGWWenKai-Regular-8f74" d="M 5626 294 
Q 5779 102 5779 35 
Q 5779 -32 5731 -41 
Q 5683 -51 5606 -58 
L 3552 -115 
L 3558 -275 
L 3558 -294 
Q 3558 -442 3462 -442 
Q 3341 -442 3251 -355 
Q 3162 -269 3162 -192 
L 3168 -115 
L 3168 237 
L 3053 2765 
Q 3046 2995 2957 3181 
Q 2944 3200 2944 3219 
Q 2944 3264 3017 3264 
Q 3091 3264 3405 3142 
L 4179 3187 
L 4179 4627 
Q 4179 4774 4124 4857 
Q 4070 4941 4070 4973 
Q 4070 5024 4140 5024 
Q 4211 5024 4345 4982 
Q 4480 4941 4521 4889 
Q 4563 4838 4563 4774 
L 4563 3213 
L 5504 3270 
L 5581 3277 
Q 5728 3277 5818 3110 
Q 5850 3059 5850 3027 
Q 5850 2995 5830 2960 
Q 5811 2925 5805 2886 
L 5626 294 
z
M 5402 2912 
L 4563 2867 
L 4550 1805 
L 5350 1843 
L 5402 2912 
z
M 4179 2842 
L 3418 2803 
L 3475 1754 
L 4186 1786 
L 4179 2842 
z
M 5331 1504 
L 4550 1466 
L 4550 256 
L 5274 275 
L 5331 1504 
z
M 4186 1446 
L 3488 1414 
L 3539 230 
L 4186 243 
L 4186 1446 
z
M 2131 -448 
Q 2131 -595 2048 -595 
L 2022 -595 
L 2016 -589 
Q 1734 -531 1734 -326 
L 1734 -262 
Q 1779 -19 1779 160 
L 1779 922 
Q 1395 736 1081 621 
Q 768 506 678 509 
Q 589 512 454 646 
Q 320 781 320 845 
Q 326 896 432 902 
Q 538 909 723 957 
Q 909 1005 1779 1286 
L 1779 2118 
L 1376 2080 
L 1350 2080 
L 1114 2054 
L 928 2022 
Q 864 2022 781 2064 
Q 698 2106 710 2214 
Q 730 2246 730 2266 
Q 1094 3155 1280 3763 
L 992 3744 
L 845 3738 
Q 685 3738 666 3776 
Q 563 3859 528 3952 
Q 493 4045 493 4077 
Q 493 4109 525 4109 
Q 557 4109 614 4093 
Q 672 4077 800 4077 
L 877 4077 
L 1376 4102 
Q 1549 4781 1565 4861 
Q 1581 4941 1555 5018 
Q 1491 5190 1606 5197 
Q 1690 5197 1811 5136 
Q 1933 5075 1974 5027 
Q 2016 4979 1990 4877 
Q 1920 4666 1792 4128 
L 2419 4166 
Q 2541 4179 2614 4211 
Q 2688 4243 2745 4243 
Q 2803 4243 2880 4192 
Q 3072 4058 3072 3962 
Q 3072 3891 2918 3872 
L 1702 3789 
Q 1581 3366 1376 2803 
L 1210 2432 
Q 1248 2419 1318 2426 
L 1779 2464 
L 1779 3040 
Q 1779 3168 1728 3245 
Q 1677 3322 1677 3347 
Q 1677 3392 1741 3392 
Q 1805 3392 1901 3366 
Q 2163 3302 2163 3155 
L 2157 2496 
L 2432 2522 
Q 2522 2541 2573 2554 
Q 2694 2650 2854 2426 
Q 2899 2374 2899 2310 
Q 2912 2234 2765 2214 
L 2157 2157 
L 2150 1414 
Q 2394 1504 2621 1597 
Q 2848 1690 2934 1686 
Q 3021 1683 3021 1645 
Q 3014 1568 2842 1472 
Q 2470 1267 2144 1101 
L 2131 -448 
z
" transform="scale(0.015625)"/>
      <path id="STIXGeneral-Italic-61" d="M 2963 710 
L 3046 640 
Q 2688 205 2518 70 
Q 2349 -64 2157 -64 
Q 1901 -64 1901 198 
Q 1901 358 2048 934 
Q 1690 397 1389 163 
Q 1088 -70 749 -70 
Q 467 -70 288 125 
Q 109 320 109 672 
Q 109 1158 387 1664 
Q 666 2170 1094 2496 
Q 1523 2822 1939 2822 
Q 2368 2822 2451 2451 
L 2522 2758 
L 2541 2778 
L 2931 2822 
L 2976 2803 
Q 2970 2778 2938 2669 
Q 2368 595 2368 346 
Q 2368 262 2458 262 
Q 2554 262 2790 525 
L 2963 710 
z
M 2336 2310 
Q 2336 2477 2240 2579 
Q 2144 2682 1978 2682 
Q 1542 2682 1139 2093 
Q 928 1779 787 1395 
Q 646 1011 646 717 
Q 646 243 1030 243 
Q 1408 243 1843 870 
Q 2336 1581 2336 2310 
z
" transform="scale(0.015625)"/>
     </defs>
     <use xlink:href="#LXGWWenKai-Regular-957f" transform="translate(0 0.796875)"/>
     <use xlink:href="#LXGWWenKai-Regular-8f74" transform="translate(99.999985 0.796875)"/>
     <use xlink:href="#LXGWWenKai-Regular-20" transform="translate(199.999969 0.796875)"/>
     <use xlink:href="#STIXGeneral-Regular-32" transform="translate(234.999954 0.796875)"/>
     <use xlink:href="#STIXGeneral-Italic-61" transform="translate(284.999939 0.796875)"/>
    </g>
   </g>
   <g id="line2d_7">
    <defs>
     <path id="m983f50f8be" d="M 0 3.5 
C 0.928211 3.5 1.81853 3.131218 2.474874 2.474874 
C 3.131218 1.81853 3.5 0.928211 3.5 0 
C 3.5 -0.928211 3.131218 -1.81853 2.474874 -2.474874 
C 1.81853 -3.131218 0.928211 -3.5 0 -3.5 
C -0.928211 -3.5 -1.81853 -3.131218 -2.474874 -2.474874 
C -3.131218 -1.81853 -3.5 -0.928211 -3.5 0 
C -3.5 0.928211 -3.131218 1.81853 -2.474874 2.474874 
C -1.81853 3.131218 -0.928211 3.5 0 3.5 
z
" style="stroke: #e8927c"/>
    </defs>
    <g clip-path="url(#p97e8a1c411)">
     <use xlink:href="#m983f50f8be" x="147.085714" y="188.228571" style="fill: #e8927c; stroke: #e8927c"/>
     <use xlink:href="#m983f50f8be" x="443.314286" y="188.228571" style="fill: #e8927c; stroke: #e8927c"/>
    </g>
   </g>
  </g>
 </g>
 <defs>
  <clipPath id="p97e8a1c411">
   <rect x="7.2" y="7.2" width="576" height="362.057143"/>
  </clipPath>
 </defs>
</svg>
