<?xml version="1.0" encoding="utf-8" standalone="no"?>
<!DOCTYPE svg PUBLIC "-//W3C//DTD SVG 1.1//EN"
  "http://www.w3.org/Graphics/SVG/1.1/DTD/svg11.dtd">
<svg xmlns:xlink="http://www.w3.org/1999/xlink" width="878.4pt" height="230.4pt" viewBox="0 0 878.4 230.4" xmlns="http://www.w3.org/2000/svg" version="1.1">
 <metadata>
  <rdf:RDF xmlns:dc="http://purl.org/dc/elements/1.1/" xmlns:cc="http://creativecommons.org/ns#" xmlns:rdf="http://www.w3.org/1999/02/22-rdf-syntax-ns#">
   <cc:Work>
    <dc:type rdf:resource="http://purl.org/dc/dcmitype/StillImage"/>
    <dc:date>2026-02-13T05:46:04.640742</dc:date>
    <dc:format>image/svg+xml</dc:format>
    <dc:creator>
     <cc:Agent>
      <dc:title>Matplotlib v3.10.8, https://matplotlib.org/</dc:title>
     </cc:Agent>
    </dc:creator>
   </cc:Work>
  </rdf:RDF>
 </metadata>
 <defs>
  <style type="text/css">*{stroke-linejoin: round; stroke-linecap: butt}</style>
 </defs>
 <g id="figure_1">
  <g id="patch_1">
   <path d="M 0 230.4 
L 878.4 230.4 
L 878.4 0 
L 0 0 
z
" style="fill: #fefdf5"/>
  </g>
  <g id="axes_1">
   <g id="patch_2">
    <path d="M 36 158.4 
L 151.2 158.4 
Q 158.4 158.4 158.4 151.2 
L 158.4 79.2 
Q 158.4 72 151.2 72 
L 36 72 
Q 28.8 72 28.8 79.2 
L 28.8 151.2 
Q 28.8 158.4 36 158.4 
z
" clip-path="url(#p43495a0629)" style="fill: #fefdf5; stroke: #5d4e37; stroke-width: 1.2; stroke-linejoin: miter"/>
   </g>
   <g id="patch_3">
    <path d="M 167.600391 115.2 
Q 180.000771 115.2 191.283118 115.2 
" clip-path="url(#p43495a0629)" style="fill: none; stroke: #5d4e37; stroke-linecap: round"/>
    <path d="M 185.283118 112.2 
L 191.283118 115.2 
L 185.283118 118.2 
" clip-path="url(#p43495a0629)" style="fill: none; stroke: #5d4e37; stroke-linecap: round"/>
   </g>
   <g id="patch_4">
    <path d="M 208.8 158.4 
L 324 158.4 
Q 331.2 158.4 331.2 151.2 
L 331.2 79.2 
Q 331.2 72 324 72 
L 208.8 72 
Q 201.6 72 201.6 79.2 
L 201.6 151.2 
Q 201.6 158.4 208.8 158.4 
z
" clip-path="url(#p43495a0629)" style="fill: #e8927c; stroke: #5d4e37; stroke-width: 1.2; stroke-linejoin: miter"/>
   </g>
   <g id="patch_5">
    <path d="M 340.400391 115.2 
Q 352.800771 115.2 364.083118 115.2 
" clip-path="url(#p43495a0629)" style="fill: none; stroke: #5d4e37; stroke-linecap: round"/>
    <path d="M 358.083118 112.2 
L 364.083118 115.2 
L 358.083118 118.2 
" clip-path="url(#p43495a0629)" style="fill: none; stroke: #5d4e37; stroke-linecap: round"/>
   </g>
   <g id="patch_6">
    <path d="M 381.6 158.4 
L 496.8 158.4 
Q 504 158.4 504 151.2 
L 504 79.2 
Q 504 72 496.8 72 
L 381.6 72 
Q 374.4 72 374.4 79.2 
L 374.4 151.2 
Q 374.4 158.4 381.6 158.4 
z
" clip-path="url(#p43495a0629)" style="fill: #fefdf5; stroke: #5d4e37; stroke-width: 1.2; stroke-linejoin: miter"/>
   </g>
   <g id="patch_7">
    <path d="M 513.200391 115.2 
Q 525.600771 115.2 536.883118 115.2 
" clip-path="url(#p43495a0629)" style="fill: none; stroke: #5d4e37; stroke-linecap: round"/>
    <path d="M 530.883118 112.2 
L 536.883118 115.2 
L 530.883118 118.2 
" clip-path="url(#p43495a0629)" style="fill: none; stroke: #5d4e37; stroke-linecap: round"/>
   </g>
   <g id="patch_8">
    <path d="M 554.4 158.4 
L 669.6 158.4 
Q 676.8 158.4 676.8 151.2 
L 676.8 79.2 
Q 676.8 72 669.6 72 
L 554.4 72 
Q 547.2 72 547.2 79.2 
L 547.2 151.2 
Q 547.2 158.4 554.4 158.4 
z
" clip-path="url(#p43495a0629)" style="fill: #fefdf5; stroke: #5d4e37; stroke-width: 1.2; stroke-linejoin: miter"/>
   </g>
   <g id="patch_9">
    <path d="M 686.000391 115.2 
Q 698.400771 115.2 709.683118 115.2 
" clip-path="url(#p43495a0629)" style="fill: none; stroke: #5d4e37; stroke-linecap: round"/>
    <path d="M 703.683118 112.2 
L 709.683118 115.2 
L 703.683118 118.2 
" clip-path="url(#p43495a0629)" style="fill: none; stroke: #5d4e37; stroke-linecap: round"/>
   </g>
   <g id="patch_10">
    <path d="M 727.2 158.4 
L 842.4 158.4 
Q 849.6 158.4 849.6 151.2 
L 849.6 79.2 
Q 849.6 72 842.4 72 
L 727.2 72 
Q 720 72 720 79.2 
L 720 151.2 
Q 720 158.4 727.2 158.4 
z
" clip-path="url(#p43495a0629)" style="fill: #fefdf5; stroke: #5d4e37; stroke-width: 1.2; stroke-linejoin: miter"/>
   </g>
   <g id="text_1">
    <!-- 现实背景 -->
    <g style="fill: #5d4e37" transform="translate(65.6 119.161563) scale(0.14 -0.14)">
     <defs>
      <path id="LXGWWenKai-Regular-73b0" d="M 1990 -506 
Q 1926 -531 1920 -531 
Q 1914 -531 1914 -486 
Q 1914 -378 2029 -314 
Q 3040 211 3456 864 
Q 3680 1229 3782 1712 
Q 3885 2195 3885 3552 
Q 3885 3629 3817 3705 
Q 3750 3782 3750 3836 
Q 3750 3891 3789 3891 
Q 3898 3891 4054 3849 
Q 4211 3808 4259 3776 
Q 4307 3744 4307 3654 
Q 4288 2688 4237 2144 
Q 4429 2093 4480 2041 
Q 4531 1990 4531 1894 
Q 4531 1798 4512 320 
Q 4512 141 4547 61 
Q 4582 -19 4697 -35 
Q 4813 -51 5213 -51 
Q 5613 -51 5728 -22 
Q 5843 6 5894 166 
Q 5990 493 6038 832 
Q 6086 1171 6163 1171 
Q 6195 1171 6233 1036 
Q 6272 902 6272 553 
Q 6272 205 6253 22 
Q 6234 -160 6147 -259 
Q 6061 -358 5865 -396 
Q 5670 -435 5200 -435 
Q 4730 -435 4522 -387 
Q 4314 -339 4218 -198 
Q 4122 -58 4122 218 
L 4122 243 
L 4134 1517 
Q 4038 1139 3866 819 
Q 3386 -13 1990 -506 
z
M 2861 1709 
Q 2886 1843 2886 2022 
L 2886 2125 
L 2822 4403 
Q 2810 4608 2755 4701 
Q 2701 4794 2701 4829 
Q 2701 4864 2800 4864 
Q 2899 4864 3206 4742 
L 5075 4858 
L 5139 4858 
Q 5248 4858 5344 4781 
Q 5440 4704 5440 4656 
Q 5440 4608 5427 4576 
Q 5414 4544 5408 4512 
L 5318 2035 
L 5312 1702 
L 5306 1651 
Q 5299 1510 5190 1517 
Q 5101 1523 4992 1593 
Q 4883 1664 4890 1741 
Q 4934 2042 4934 2054 
L 4941 2157 
L 4998 4506 
L 3206 4403 
L 3270 2029 
L 3283 1696 
L 3283 1645 
Q 3283 1504 3174 1504 
Q 3085 1504 2973 1568 
Q 2861 1632 2861 1709 
z
M 698 4301 
L 2061 4384 
Q 2221 4403 2281 4425 
Q 2342 4448 2368 4448 
Q 2394 4448 2470 4403 
Q 2682 4282 2682 4166 
Q 2682 4096 2534 4077 
L 1734 4019 
L 1728 2874 
L 1914 2886 
Q 2035 2893 2118 2925 
Q 2202 2957 2243 2957 
Q 2285 2957 2362 2906 
Q 2547 2771 2547 2669 
Q 2547 2592 2394 2579 
L 1722 2534 
L 1715 1280 
Q 2131 1466 2371 1584 
Q 2611 1702 2681 1702 
Q 2752 1702 2752 1651 
Q 2752 1555 2307 1273 
Q 1862 992 1318 717 
Q 774 442 672 442 
Q 474 442 294 704 
Q 288 723 278 739 
Q 269 755 269 768 
Q 269 832 352 832 
Q 435 832 611 867 
Q 787 902 1318 1120 
L 1331 2502 
L 1030 2483 
Q 986 2477 941 2477 
L 870 2477 
Q 749 2477 717 2502 
Q 595 2592 556 2681 
Q 518 2771 518 2797 
Q 518 2842 570 2842 
Q 595 2842 649 2829 
Q 704 2816 826 2816 
L 909 2816 
L 1331 2848 
L 1344 3994 
L 941 3968 
Q 838 3955 755 3955 
Q 672 3955 621 3987 
Q 480 4096 448 4182 
Q 416 4269 416 4282 
Q 416 4326 467 4326 
L 698 4301 
z
" transform="scale(0.015625)"/>
      <path id="LXGWWenKai-Regular-5b9e" d="M 1344 3661 
Q 1190 3213 979 2816 
Q 947 2739 876 2739 
Q 806 2739 694 2812 
Q 582 2886 582 2947 
Q 582 3008 681 3168 
Q 781 3328 928 3680 
Q 1075 4032 1178 4371 
Q 1210 4480 1293 4480 
Q 1350 4480 1449 4445 
Q 1549 4410 1549 4346 
Q 1549 4282 1466 4026 
L 2970 4115 
L 2970 4755 
Q 2970 4877 2902 4973 
Q 2835 5069 2835 5094 
Q 2835 5152 2918 5152 
Q 3002 5152 3117 5126 
Q 3430 5043 3430 4915 
L 3424 4147 
L 5510 4269 
L 5555 4269 
Q 5683 4269 5788 4198 
Q 5894 4128 5894 4057 
Q 5894 3987 5849 3945 
Q 5805 3904 5728 3782 
Q 5651 3661 5372 3299 
Q 5094 2938 4973 2938 
Q 4922 2938 4922 3005 
Q 4922 3072 5056 3302 
Q 5190 3533 5312 3885 
L 1344 3661 
z
M 2460 1670 
Q 2387 1581 2339 1581 
Q 2291 1581 1996 1779 
Q 1702 1978 1248 2195 
Q 1165 2246 1165 2300 
Q 1165 2355 1213 2435 
Q 1261 2515 1318 2515 
Q 1376 2515 1709 2364 
Q 2042 2214 2400 1984 
Q 2534 1907 2534 1833 
Q 2534 1760 2460 1670 
z
M 2953 2454 
Q 2880 2368 2835 2368 
Q 2790 2368 2480 2576 
Q 2170 2784 1747 2982 
Q 1664 3034 1664 3088 
Q 1664 3142 1712 3222 
Q 1760 3302 1817 3302 
Q 1875 3302 2188 3161 
Q 2502 3021 2899 2771 
Q 3027 2694 3027 2617 
Q 3027 2541 2953 2454 
z
M 5549 -355 
Q 5549 -429 5462 -518 
Q 5376 -608 5305 -608 
Q 5235 -608 5165 -538 
Q 4813 -294 4438 -54 
Q 4064 186 3584 390 
Q 3520 429 3520 467 
Q 3520 506 3546 557 
Q 3616 710 3718 710 
Q 3770 710 4058 582 
Q 4672 307 5466 -224 
Q 5549 -282 5549 -355 
z
M 2848 883 
L 934 800 
Q 858 800 739 848 
Q 621 896 538 1139 
Q 525 1178 525 1197 
Q 525 1216 550 1216 
Q 576 1216 646 1190 
Q 717 1165 890 1165 
L 954 1165 
L 3066 1261 
Q 3251 1683 3354 2445 
Q 3373 2618 3373 2886 
L 3373 2989 
Q 3373 3187 3264 3328 
Q 3245 3354 3245 3392 
Q 3245 3462 3318 3462 
Q 3392 3462 3507 3443 
Q 3622 3424 3724 3379 
Q 3827 3334 3827 3200 
Q 3814 2675 3724 2128 
Q 3635 1581 3520 1280 
L 5139 1357 
Q 5286 1370 5356 1398 
Q 5427 1427 5456 1427 
Q 5485 1427 5568 1376 
Q 5805 1229 5805 1101 
Q 5805 1024 5658 1005 
L 3334 902 
Q 2963 282 2150 -141 
Q 1510 -474 838 -621 
Q 608 -672 595 -672 
Q 538 -672 538 -608 
Q 538 -518 691 -461 
Q 1530 -179 2170 256 
Q 2592 550 2848 883 
z
" transform="scale(0.015625)"/>
      <path id="LXGWWenKai-Regular-80cc" d="M 5862 3968 
L 5869 3782 
Q 5869 3315 5773 3123 
Q 5638 2848 4531 2848 
Q 4173 2848 3974 2873 
Q 3776 2899 3654 3024 
Q 3533 3149 3533 3450 
L 3533 3469 
L 3546 4794 
Q 3546 4966 3514 5030 
Q 3482 5094 3482 5107 
Q 3482 5146 3542 5146 
Q 3603 5146 3693 5120 
Q 3930 5050 3930 4941 
L 3910 4070 
Q 4954 4448 5126 4755 
Q 5158 4806 5193 4806 
Q 5229 4806 5274 4742 
Q 5408 4570 5408 4454 
Q 5408 4339 5338 4301 
Q 4570 3949 3904 3763 
L 3898 3558 
L 3898 3526 
Q 3898 3290 4019 3245 
Q 4141 3200 4352 3200 
Q 5274 3200 5434 3347 
Q 5594 3494 5645 3987 
Q 5677 4282 5766 4282 
Q 5856 4282 5862 3968 
z
M 3091 3430 
Q 3123 3443 3148 3443 
Q 3174 3443 3200 3443 
Q 3309 3443 3309 3386 
Q 3309 3309 3136 3251 
Q 2054 2861 1114 2650 
Q 909 2598 841 2598 
Q 774 2598 691 2662 
Q 486 2803 486 2963 
Q 486 3008 589 3008 
Q 870 3008 1206 3056 
Q 1542 3104 2304 3251 
L 2310 3898 
L 1242 3821 
Q 1197 3814 1165 3814 
L 1094 3814 
Q 998 3814 928 3866 
Q 864 3930 819 4035 
Q 774 4141 774 4169 
Q 774 4198 796 4198 
Q 819 4198 886 4179 
Q 954 4160 1094 4160 
L 1152 4160 
L 2310 4237 
L 2317 4659 
Q 2317 4845 2275 4925 
Q 2234 5005 2234 5018 
Q 2234 5062 2291 5062 
Q 2349 5062 2445 5043 
Q 2701 4992 2701 4832 
L 2682 3328 
L 3091 3430 
z
M 4890 -192 
L 4896 -384 
Q 4896 -518 4800 -588 
Q 4704 -659 4643 -659 
Q 4582 -659 4377 -553 
Q 4173 -448 3849 -195 
Q 3526 58 3526 173 
Q 3526 211 3580 211 
Q 3635 211 3852 99 
Q 4070 -13 4499 -154 
L 4493 666 
L 1926 563 
L 1907 -493 
Q 1907 -621 1805 -621 
Q 1670 -621 1574 -531 
Q 1478 -442 1478 -384 
Q 1478 -326 1500 -236 
Q 1523 -147 1523 83 
L 1562 2074 
Q 1562 2304 1510 2406 
Q 1466 2509 1466 2557 
Q 1466 2605 1542 2605 
Q 1619 2605 1952 2438 
L 4538 2573 
L 4595 2573 
Q 4736 2573 4813 2493 
Q 4890 2413 4890 2336 
L 4864 2202 
L 4890 -192 
z
M 4480 2221 
L 1952 2099 
L 1946 1683 
L 4486 1792 
L 4480 2221 
z
M 4486 1453 
L 1939 1344 
L 1933 896 
L 4493 1005 
L 4486 1453 
z
" transform="scale(0.015625)"/>
      <path id="LXGWWenKai-Regular-666f" d="M 1497 4790 
Q 1440 4883 1440 4928 
Q 1440 4973 1542 4973 
Q 1645 4973 1946 4858 
L 4570 5005 
L 4627 5005 
Q 4736 5005 4816 4931 
Q 4896 4858 4896 4819 
Q 4896 4781 4880 4758 
Q 4864 4736 4858 4710 
L 4717 3622 
Q 4851 3450 4851 3395 
Q 4851 3341 4803 3331 
Q 4755 3322 4685 3315 
L 3366 3251 
L 3360 2880 
L 5331 2970 
Q 5549 2989 5603 3008 
Q 5658 3027 5702 3027 
Q 5747 3027 5824 2982 
Q 6016 2867 6016 2768 
Q 6016 2669 5920 2656 
L 877 2432 
L 710 2426 
Q 666 2426 560 2464 
Q 454 2502 384 2701 
Q 365 2739 365 2771 
Q 365 2803 397 2803 
Q 429 2803 486 2784 
Q 544 2765 710 2765 
L 800 2765 
L 2970 2861 
L 2957 3226 
L 2093 3187 
L 2099 3110 
L 2099 3091 
Q 2099 2976 1980 2976 
Q 1862 2976 1760 3040 
Q 1658 3104 1658 3200 
L 1658 3232 
Q 1670 3322 1670 3395 
Q 1670 3469 1658 3558 
L 1568 4550 
Q 1555 4698 1497 4790 
z
M 4442 4691 
L 1965 4550 
L 2003 4166 
L 4403 4301 
L 4442 4691 
z
M 4371 4019 
L 2029 3891 
L 2067 3482 
L 4326 3597 
L 4371 4019 
z
M 4422 2246 
L 4512 2253 
Q 4563 2253 4672 2198 
Q 4781 2144 4781 2042 
Q 4781 2003 4761 1968 
Q 4742 1933 4736 1907 
L 4614 1363 
Q 4762 1190 4762 1142 
Q 4762 1094 4714 1088 
Q 4666 1082 4576 1075 
L 3418 1030 
L 3437 -58 
L 3450 -314 
Q 3450 -461 3357 -557 
Q 3264 -653 3181 -653 
Q 3098 -653 2912 -563 
Q 2726 -474 2422 -240 
Q 2118 -6 2118 58 
Q 2118 96 2179 96 
Q 2240 96 2454 0 
Q 2669 -96 3053 -211 
L 3046 1018 
L 2221 979 
L 2221 941 
Q 2221 800 2112 800 
Q 1984 800 1888 880 
Q 1792 960 1792 1024 
L 1792 1069 
Q 1805 1184 1805 1229 
L 1805 1299 
Q 1805 1318 1798 1344 
L 1741 1760 
Q 1728 1984 1664 2093 
Q 1645 2144 1645 2170 
Q 1645 2227 1750 2227 
Q 1856 2227 2118 2131 
L 4422 2246 
z
M 4307 1920 
L 2131 1818 
L 2189 1274 
L 4224 1357 
L 4307 1920 
z
M 2010 794 
Q 2106 794 2266 576 
Q 2323 493 2323 435 
Q 2323 378 2128 237 
Q 1933 96 1395 -157 
Q 858 -410 672 -410 
Q 602 -410 602 -371 
Q 602 -314 755 -230 
Q 1190 6 1459 205 
Q 1869 499 1926 678 
Q 1971 794 2010 794 
z
M 5638 -102 
Q 5638 -179 5580 -281 
Q 5523 -384 5462 -384 
Q 5402 -384 5082 -141 
Q 4762 102 4128 429 
Q 4038 480 4038 547 
Q 4038 614 4105 700 
Q 4173 787 4227 787 
Q 4282 787 4710 563 
Q 5638 83 5638 -102 
z
" transform="scale(0.015625)"/>
     </defs>
     <use xlink:href="#LXGWWenKai-Regular-73b0"/>
     <use xlink:href="#LXGWWenKai-Regular-5b9e" transform="translate(99.999985 0)"/>
     <use xlink:href="#LXGWWenKai-Regular-80cc" transform="translate(199.999969 0)"/>
     <use xlink:href="#LXGWWenKai-Regular-666f" transform="translate(299.999954 0)"/>
    </g>
   </g>
   <g id="text_2">
    <!-- 概念提炼 -->
    <g style="fill: #ffffff" transform="translate(238.4 119.315781) scale(0.14 -0.14)">
     <defs>
      <path id="LXGWWenKai-Regular-6982" d="M 563 3456 
L 1210 3507 
L 1222 4730 
Q 1222 4864 1180 4934 
Q 1139 5005 1139 5024 
Q 1139 5069 1212 5069 
Q 1286 5069 1404 5030 
Q 1523 4992 1552 4953 
Q 1581 4915 1581 4858 
L 1562 3533 
L 1715 3546 
Q 1856 3565 1913 3584 
Q 1971 3603 1993 3603 
Q 2016 3603 2086 3558 
Q 2278 3450 2278 3334 
Q 2278 3264 2150 3245 
L 1562 3200 
L 1555 2880 
Q 1606 2912 1651 2912 
Q 1734 2912 1987 2560 
Q 2240 2208 2240 2137 
Q 2240 2067 2189 2022 
Q 2074 1939 2013 1939 
Q 1952 1939 1882 2074 
Q 1709 2413 1549 2630 
L 1510 -493 
Q 1510 -627 1408 -627 
Q 1350 -627 1244 -569 
Q 1139 -512 1139 -384 
Q 1139 -346 1158 -253 
Q 1178 -160 1178 0 
L 1178 186 
Q 1197 742 1197 1404 
Q 1197 2067 1216 2355 
L 1216 2458 
Q 1069 1824 710 1190 
Q 563 928 438 774 
Q 314 621 256 621 
Q 218 621 218 678 
Q 218 736 365 1027 
Q 512 1318 726 1904 
Q 941 2490 1126 3162 
L 774 3136 
Q 685 3123 589 3123 
Q 493 3123 429 3190 
Q 365 3258 333 3328 
Q 301 3398 294 3408 
Q 288 3418 288 3443 
Q 288 3488 333 3488 
Q 352 3488 406 3472 
Q 461 3456 563 3456 
z
M 6176 1478 
Q 6298 1478 6298 422 
Q 6298 211 6266 22 
Q 6234 -166 6077 -252 
Q 5920 -339 5549 -339 
L 5402 -333 
Q 5171 -320 5059 -185 
Q 4947 -51 4947 282 
L 4954 1779 
L 4954 1811 
L 4877 1619 
Q 4243 115 3059 -454 
Q 2976 -493 2925 -493 
Q 2874 -493 2874 -461 
Q 2874 -410 2982 -326 
Q 4218 646 4646 1997 
Q 4749 2310 4787 2502 
L 4397 2483 
Q 4314 2477 4256 2461 
Q 4198 2445 4166 2445 
Q 4134 2445 4083 2464 
Q 3930 2515 3930 2650 
Q 3930 2675 3936 2704 
Q 3942 2733 3949 2771 
L 4128 3776 
Q 4147 3872 4147 3945 
Q 4147 4019 4124 4092 
Q 4102 4166 4102 4188 
Q 4102 4211 4131 4211 
Q 4160 4211 4250 4186 
Q 4506 4115 4506 3974 
L 4506 3949 
L 4294 2822 
L 4858 2848 
Q 4979 3546 5011 4397 
L 4346 4358 
L 4237 4358 
Q 3923 4358 3840 4627 
Q 3834 4640 3834 4669 
Q 3834 4698 3872 4698 
Q 3974 4672 4173 4672 
L 4275 4672 
L 5318 4736 
Q 5472 4742 5574 4774 
Q 5677 4806 5712 4806 
Q 5747 4806 5824 4762 
Q 6029 4640 6029 4531 
Q 6029 4467 5888 4454 
L 5382 4422 
Q 5370 3616 5235 2861 
L 5472 2874 
Q 5664 2880 5737 2909 
Q 5811 2938 5846 2938 
Q 5882 2938 5965 2893 
Q 6170 2765 6170 2650 
Q 6170 2573 6035 2560 
L 5165 2522 
Q 5139 2419 5116 2323 
Q 5094 2227 5062 2131 
L 5133 2112 
Q 5318 2054 5318 1958 
L 5306 314 
Q 5306 160 5328 109 
Q 5350 58 5453 45 
L 5574 38 
Q 5792 38 5856 86 
Q 5920 134 5958 281 
Q 5997 429 6074 1178 
Q 6112 1478 6176 1478 
z
M 3443 4698 
L 3558 4704 
Q 3686 4704 3756 4630 
Q 3827 4557 3827 4512 
Q 3827 4467 3798 4422 
Q 3770 4378 3763 4339 
L 3635 2688 
Q 3789 2496 3789 2445 
Q 3789 2394 3747 2387 
Q 3706 2381 3654 2374 
L 2650 2317 
L 2637 832 
Q 2790 928 2950 1046 
Q 3110 1165 3290 1286 
Q 3226 1414 3158 1529 
Q 3091 1645 3049 1721 
Q 3008 1798 2995 1820 
Q 2982 1843 2982 1862 
Q 2982 1882 3036 1949 
Q 3091 2016 3180 2016 
Q 3270 2016 3309 1958 
Q 3917 1024 3917 819 
Q 3917 781 3821 704 
Q 3725 627 3645 627 
Q 3565 627 3520 761 
Q 3475 896 3405 1043 
Q 2784 480 2585 352 
Q 2387 224 2316 201 
Q 2246 179 2195 179 
Q 2144 179 2038 236 
Q 1933 294 1837 467 
Q 1818 499 1818 512 
Q 1818 550 1869 550 
L 1920 550 
Q 2099 550 2278 640 
L 2298 4173 
Q 2298 4493 2208 4685 
Q 2189 4723 2189 4755 
Q 2189 4787 2269 4787 
Q 2349 4787 2669 4640 
L 3443 4698 
z
M 3354 4378 
L 2669 4333 
L 2662 3654 
L 3322 3693 
L 3354 4378 
z
M 3302 3386 
L 2662 3347 
L 2656 2624 
L 3270 2656 
L 3302 3386 
z
" transform="scale(0.015625)"/>
      <path id="LXGWWenKai-Regular-5ff5" d="M 4051 3245 
Q 4051 3162 4006 3069 
Q 3962 2976 3910 2976 
Q 3859 2976 3516 3133 
Q 3174 3290 2643 3443 
Q 2522 3482 2522 3571 
Q 2522 3597 2534 3648 
Q 2579 3782 2656 3782 
Q 2733 3782 3254 3616 
Q 3776 3450 3913 3389 
Q 4051 3328 4051 3245 
z
M 4307 966 
Q 4384 966 4509 736 
Q 4634 506 4858 202 
Q 5082 -102 5082 -179 
Q 5082 -256 4986 -333 
Q 4890 -410 4694 -442 
Q 4499 -474 4090 -474 
Q 3072 -474 2566 -179 
Q 1984 179 1805 1024 
L 1773 1178 
Q 1773 1293 1958 1312 
L 2022 1318 
Q 2118 1318 2157 1184 
Q 2221 928 2317 701 
Q 2413 474 2598 301 
Q 2995 -70 3968 -70 
Q 4518 -70 4518 -13 
L 4461 141 
Q 4250 723 4250 844 
Q 4250 966 4307 966 
z
M 755 -186 
Q 710 -186 646 -154 
Q 474 -64 474 26 
Q 474 70 589 256 
Q 902 730 1114 1376 
Q 1152 1491 1242 1491 
Q 1274 1491 1376 1452 
Q 1478 1414 1478 1344 
Q 1478 1203 1267 717 
Q 877 -186 755 -186 
z
M 3533 1098 
Q 3674 986 3766 890 
Q 3859 794 3859 755 
Q 3859 717 3782 611 
Q 3706 506 3638 506 
Q 3571 506 3488 589 
Q 3149 960 2784 1242 
Q 2688 1312 2688 1357 
Q 2688 1402 2745 1482 
Q 2803 1562 2848 1562 
Q 2893 1562 2998 1494 
Q 3104 1427 3248 1318 
Q 3392 1210 3533 1098 
z
M 5654 1020 
Q 5811 870 5916 752 
Q 6022 634 6022 592 
Q 6022 550 5936 448 
Q 5850 346 5779 346 
Q 5709 346 5638 422 
Q 5197 954 4768 1312 
Q 4685 1389 4685 1430 
Q 4685 1472 4755 1555 
Q 4826 1638 4870 1638 
Q 4915 1638 5040 1545 
Q 5165 1453 5331 1312 
Q 5498 1171 5654 1020 
z
M 2086 2387 
L 1946 2381 
Q 1824 2381 1741 2464 
Q 1658 2547 1629 2630 
Q 1600 2714 1600 2726 
Q 1600 2765 1629 2765 
Q 1658 2765 1712 2749 
Q 1766 2733 1882 2733 
L 1952 2733 
L 4339 2854 
L 4416 2854 
Q 4608 2854 4672 2688 
Q 4698 2637 4698 2605 
Q 4698 2573 4659 2534 
L 4602 2477 
Q 4006 1850 3635 1574 
Q 3488 1466 3427 1466 
Q 3366 1466 3276 1542 
Q 3187 1619 3187 1680 
Q 3187 1741 3354 1856 
Q 3763 2131 4128 2509 
L 2086 2387 
z
M 3046 5338 
Q 3181 5338 3373 5171 
Q 3450 5101 3450 5053 
Q 3450 5005 3315 4806 
Q 4544 3680 6182 2970 
Q 6291 2918 6291 2874 
Q 6291 2867 6240 2797 
Q 6093 2592 5965 2592 
Q 5939 2592 5692 2707 
Q 5446 2822 5043 3059 
Q 4026 3667 3104 4518 
Q 2253 3424 960 2688 
Q 339 2336 205 2336 
Q 141 2336 141 2400 
Q 141 2464 307 2573 
Q 1504 3334 2237 4124 
Q 2970 4915 2970 5242 
Q 2982 5338 3046 5338 
z
" transform="scale(0.015625)"/>
      <path id="LXGWWenKai-Regular-63d0" d="M 1331 1690 
Q 685 1242 614 1242 
Q 461 1242 326 1360 
Q 192 1478 192 1523 
Q 192 1568 269 1574 
Q 454 1600 1338 2093 
L 1344 3251 
L 883 3213 
Q 755 3200 652 3200 
Q 550 3200 512 3238 
Q 397 3354 339 3507 
Q 333 3520 333 3549 
Q 333 3578 365 3578 
Q 467 3552 538 3552 
L 659 3552 
Q 704 3552 755 3558 
L 1344 3597 
L 1350 4621 
Q 1350 4813 1242 4973 
Q 1222 5005 1222 5037 
Q 1222 5069 1267 5069 
Q 1312 5069 1421 5043 
Q 1722 4979 1722 4794 
L 1715 3622 
L 1933 3635 
Q 2022 3642 2112 3680 
Q 2202 3718 2237 3718 
Q 2272 3718 2352 3670 
Q 2432 3622 2499 3552 
Q 2566 3482 2566 3430 
Q 2566 3347 2413 3334 
L 1715 3277 
L 1709 2317 
Q 1914 2451 2195 2682 
Q 2285 2752 2336 2752 
Q 2387 2752 2387 2701 
Q 2387 2547 1709 1971 
L 1696 115 
L 1709 -122 
Q 1709 -294 1600 -396 
Q 1491 -499 1395 -499 
Q 1203 -499 848 -131 
Q 493 237 493 371 
Q 493 403 534 403 
Q 576 403 793 259 
Q 1011 115 1325 0 
L 1331 1690 
z
M 5101 3373 
Q 5229 3200 5229 3142 
Q 5229 3085 5184 3075 
Q 5139 3066 5075 3059 
L 3354 2950 
L 3360 2906 
L 3360 2886 
Q 3360 2771 3258 2771 
Q 3194 2771 3082 2828 
Q 2970 2886 2970 3027 
L 2970 3059 
Q 2976 3098 2976 3149 
L 2976 3328 
L 2899 4320 
Q 2893 4493 2832 4630 
Q 2771 4768 2771 4794 
Q 2771 4838 2867 4838 
Q 2963 4838 3251 4717 
L 4966 4838 
L 5011 4838 
Q 5101 4838 5193 4758 
Q 5286 4678 5286 4624 
Q 5286 4570 5267 4544 
Q 5248 4518 5242 4493 
L 5101 3373 
z
M 4858 4486 
L 3245 4378 
L 3277 4000 
L 4819 4096 
L 4858 4486 
z
M 4787 3776 
L 3296 3686 
L 3328 3277 
L 4742 3360 
L 4787 3776 
z
M 2874 2138 
L 2714 2131 
L 2682 2131 
Q 2605 2131 2560 2163 
Q 2426 2291 2394 2381 
L 2368 2477 
Q 2368 2515 2406 2515 
Q 2445 2515 2518 2492 
Q 2592 2470 2707 2470 
L 2752 2470 
L 5389 2618 
Q 5574 2630 5628 2649 
Q 5683 2669 5718 2669 
Q 5754 2669 5827 2624 
Q 5901 2579 5961 2512 
Q 6022 2445 6022 2394 
Q 6022 2310 5856 2298 
L 4269 2214 
L 4256 1510 
L 4947 1536 
Q 5133 1549 5187 1568 
Q 5242 1587 5280 1587 
Q 5318 1587 5389 1536 
Q 5587 1414 5587 1306 
Q 5587 1222 5408 1210 
L 4256 1165 
L 4243 410 
Q 5107 90 6138 -70 
Q 6272 -90 6272 -141 
Q 6272 -154 6227 -230 
Q 6099 -461 5987 -461 
Q 5875 -461 5414 -333 
Q 3923 64 2950 634 
Q 2752 282 2528 19 
Q 2304 -243 2128 -387 
Q 1952 -531 1894 -531 
Q 1837 -531 1837 -493 
Q 1837 -429 2006 -233 
Q 2176 -38 2365 278 
Q 2554 595 2739 1024 
Q 2925 1453 2925 1683 
L 2925 1728 
L 2912 1805 
L 2912 1830 
Q 2912 1901 2969 1901 
Q 3027 1901 3123 1843 
Q 3386 1702 3386 1606 
Q 3386 1472 3117 934 
Q 3520 717 3878 550 
L 3891 2195 
L 2874 2138 
z
" transform="scale(0.015625)"/>
      <path id="LXGWWenKai-Regular-70bc" d="M 1760 2803 
Q 1754 2400 1702 2003 
Q 2195 1357 2364 1059 
Q 2534 762 2534 691 
Q 2534 621 2480 560 
Q 2426 499 2371 470 
Q 2317 442 2304 442 
Q 2234 442 2131 646 
Q 1914 1107 1613 1542 
Q 1389 627 858 0 
Q 646 -243 483 -364 
Q 320 -486 281 -486 
Q 243 -486 243 -428 
Q 243 -371 339 -243 
Q 851 461 1120 1187 
Q 1389 1914 1395 2797 
L 1414 4621 
Q 1414 4749 1360 4848 
Q 1306 4947 1306 4985 
Q 1306 5024 1347 5024 
Q 1389 5024 1491 5005 
Q 1792 4954 1792 4768 
L 1766 3309 
Q 2208 3808 2253 4109 
Q 2266 4192 2314 4192 
Q 2362 4192 2432 4128 
Q 2611 3987 2611 3888 
Q 2611 3789 2374 3497 
Q 2138 3206 1760 2867 
L 1760 2803 
z
M 902 2298 
L 832 2291 
Q 755 2291 723 2332 
Q 691 2374 678 2586 
Q 653 3174 512 3667 
Q 493 3718 493 3757 
Q 493 3859 685 3898 
Q 704 3898 723 3898 
Q 813 3898 858 3744 
Q 979 3290 1069 2528 
Q 1075 2509 1075 2490 
L 1075 2458 
Q 1075 2323 902 2298 
z
M 4243 2144 
L 4250 2893 
L 3712 2848 
Q 3667 2701 3552 2438 
L 3405 2086 
L 4243 2144 
z
M 5597 1046 
Q 5754 890 5894 736 
Q 6035 582 6121 483 
Q 6208 384 6208 301 
Q 6208 218 6109 131 
Q 6010 45 5962 45 
Q 5914 45 5882 73 
Q 5850 102 5606 432 
Q 5363 762 5037 1062 
Q 4954 1146 4954 1213 
Q 4954 1280 5037 1344 
Q 5120 1408 5158 1408 
Q 5197 1408 5318 1305 
Q 5440 1203 5597 1046 
z
M 2694 51 
Q 2451 -96 2412 -96 
Q 2374 -96 2374 -41 
Q 2374 13 2566 218 
Q 3258 934 3258 1274 
Q 3258 1402 3315 1402 
Q 3373 1402 3462 1338 
Q 3699 1190 3699 1075 
Q 3699 1043 3574 860 
Q 3450 678 3194 438 
Q 2938 198 2694 51 
z
M 2893 1882 
L 3277 2803 
L 3040 2790 
Q 2765 2752 2720 2803 
Q 2675 2854 2588 2966 
Q 2502 3078 2502 3148 
Q 2502 3219 2522 3219 
Q 2714 3174 2874 3174 
L 2912 3181 
L 3443 3219 
Q 3584 3603 3674 3866 
L 3232 3834 
L 3123 3834 
Q 2918 3834 2867 3885 
Q 2714 4019 2714 4192 
Q 2714 4224 2733 4224 
L 3066 4192 
L 3117 4192 
L 3795 4224 
Q 3955 4768 3974 4873 
Q 3994 4979 3990 5062 
Q 3987 5146 3990 5190 
Q 3994 5235 4058 5235 
Q 4122 5235 4224 5178 
Q 4435 5075 4416 4941 
L 4416 4928 
Q 4390 4877 4211 4250 
L 5178 4307 
Q 5235 4314 5308 4317 
Q 5382 4320 5436 4339 
Q 5491 4358 5564 4358 
Q 5638 4358 5756 4265 
Q 5875 4173 5875 4083 
Q 5875 3994 5715 3974 
L 4096 3891 
Q 4006 3622 3872 3258 
L 4365 3302 
L 4429 3302 
Q 4557 3302 4624 3222 
Q 4691 3142 4691 3085 
L 4659 2918 
L 4653 2176 
L 5101 2208 
Q 5165 2214 5238 2217 
Q 5312 2221 5360 2240 
Q 5408 2259 5485 2259 
Q 5562 2259 5677 2163 
Q 5792 2067 5792 1977 
Q 5792 1888 5632 1875 
L 4659 1811 
L 4640 1811 
L 4653 -45 
L 4666 -250 
Q 4666 -429 4486 -499 
Q 4422 -538 4371 -538 
Q 4320 -538 4144 -445 
Q 3968 -352 3795 -230 
Q 3341 77 3341 218 
Q 3341 256 3389 256 
Q 3437 256 3641 157 
Q 3846 58 4262 -38 
L 4243 1786 
L 3475 1722 
L 3334 1702 
Q 3277 1696 3232 1680 
Q 3187 1664 3116 1661 
Q 3046 1658 2960 1712 
Q 2874 1766 2893 1882 
z
" transform="scale(0.015625)"/>
     </defs>
     <use xlink:href="#LXGWWenKai-Regular-6982"/>
     <use xlink:href="#LXGWWenKai-Regular-5ff5" transform="translate(99.999985 0)"/>
     <use xlink:href="#LXGWWenKai-Regular-63d0" transform="translate(199.999969 0)"/>
     <use xlink:href="#LXGWWenKai-Regular-70bc" transform="translate(299.999954 0)"/>
    </g>
   </g>
   <g id="text_3">
    <!-- 建立方程 -->
    <g style="fill: #5d4e37" transform="translate(411.2 119.035781) scale(0.14 -0.14)">
     <defs>
      <path id="LXGWWenKai-Regular-5efa" d="M 2266 3590 
Q 2394 3565 2560 3565 
L 2656 3565 
L 3795 3629 
L 3795 4038 
L 3155 4000 
L 3008 3994 
Q 2829 3994 2675 4250 
Q 2643 4307 2643 4332 
Q 2643 4358 2682 4358 
L 2982 4333 
L 3046 4333 
L 3802 4378 
L 3802 4659 
Q 3802 4915 3718 5024 
Q 3693 5062 3693 5088 
Q 3693 5114 3747 5114 
Q 3802 5114 3898 5094 
Q 4160 5043 4160 4890 
L 4160 4397 
L 5011 4448 
Q 5037 4454 5113 4454 
Q 5190 4454 5280 4377 
Q 5370 4301 5370 4233 
Q 5370 4166 5344 4121 
Q 5318 4077 5312 4026 
L 5274 3718 
L 5421 3725 
Q 5587 3744 5644 3766 
Q 5702 3789 5753 3789 
Q 5805 3789 5872 3731 
Q 5939 3674 5980 3610 
Q 6022 3546 6022 3520 
Q 6022 3443 5882 3430 
L 5235 3392 
L 5184 2970 
Q 5350 2790 5350 2732 
Q 5350 2675 5299 2662 
Q 5248 2650 5158 2643 
L 4160 2586 
L 4160 2182 
L 4832 2221 
Q 4883 2227 4947 2233 
Q 5011 2240 5075 2262 
Q 5139 2285 5184 2285 
Q 5229 2285 5299 2240 
Q 5485 2131 5485 2010 
Q 5485 1926 5350 1914 
L 4160 1843 
L 4160 1408 
L 5267 1453 
Q 5523 1478 5587 1504 
Q 5651 1530 5702 1530 
Q 5754 1530 5837 1478 
Q 6035 1350 6035 1251 
Q 6035 1152 5926 1139 
L 4160 1069 
L 4160 429 
Q 4160 288 4058 288 
Q 4051 288 3971 307 
Q 3891 326 3817 384 
Q 3744 442 3744 563 
L 3744 595 
Q 3744 614 3763 704 
Q 3782 794 3782 1037 
L 3782 1056 
L 2669 1011 
L 2586 1011 
L 2419 1018 
Q 2355 1030 2317 1043 
Q 2208 1107 2150 1229 
Q 2138 1261 2122 1286 
Q 2106 1312 2106 1338 
Q 2106 1382 2163 1382 
Q 2176 1382 2230 1363 
Q 2285 1344 2483 1344 
L 2566 1344 
L 3782 1395 
L 3789 1824 
L 2976 1779 
Q 2694 1779 2586 1965 
Q 2534 2054 2534 2092 
Q 2534 2131 2563 2131 
Q 2592 2131 2643 2118 
Q 2694 2106 2803 2106 
L 3002 2112 
L 3789 2157 
L 3789 2566 
L 3142 2528 
L 2982 2522 
Q 2797 2522 2688 2746 
Q 2656 2822 2656 2829 
Q 2656 2861 2694 2861 
Q 2790 2842 2886 2842 
L 3795 2886 
L 3795 3309 
L 2739 3251 
L 2579 3245 
Q 2451 3245 2396 3293 
Q 2342 3341 2288 3437 
Q 2234 3533 2234 3561 
Q 2234 3590 2266 3590 
z
M 512 730 
Q 371 730 371 966 
Q 371 1062 470 1104 
Q 570 1146 874 1146 
Q 1178 1146 1376 1101 
Q 1587 1568 1734 2176 
L 1203 2131 
Q 1126 2125 1075 2105 
Q 1024 2086 957 2086 
Q 890 2086 810 2163 
Q 730 2240 730 2297 
Q 730 2355 787 2445 
Q 1229 3046 1600 3757 
L 1056 3686 
Q 992 3680 941 3673 
Q 890 3667 803 3667 
Q 717 3667 637 3737 
Q 557 3808 512 3897 
Q 467 3987 467 4016 
Q 467 4045 506 4045 
L 749 4019 
L 819 4019 
Q 858 4019 896 4026 
L 1786 4128 
Q 1805 4134 1824 4134 
Q 1843 4134 1862 4134 
Q 2010 4134 2083 4041 
Q 2157 3949 2157 3901 
Q 2157 3853 2109 3805 
Q 2061 3757 2035 3718 
Q 1581 2899 1254 2477 
L 1869 2541 
L 1920 2547 
Q 2125 2547 2214 2381 
Q 2240 2323 2240 2288 
Q 2240 2253 2057 1744 
Q 1875 1235 1747 979 
Q 1818 954 1888 922 
Q 1958 890 2029 858 
Q 3571 128 6106 -128 
Q 6214 -141 6214 -198 
Q 6214 -224 6157 -307 
Q 6010 -550 5875 -550 
Q 5856 -550 5837 -550 
Q 5818 -550 5798 -544 
Q 4678 -371 3724 -134 
Q 2771 102 1939 518 
Q 1754 614 1581 678 
Q 1318 250 1040 -32 
Q 762 -314 557 -454 
Q 352 -595 304 -595 
Q 256 -595 256 -540 
Q 256 -486 448 -282 
Q 915 230 1210 774 
Q 1107 794 953 794 
Q 800 794 665 762 
Q 531 730 512 730 
z
M 4928 4109 
L 4160 4064 
L 4160 3654 
L 4890 3693 
L 4928 4109 
z
M 4864 3373 
L 4160 3334 
L 4160 2906 
L 4826 2944 
L 4864 3373 
z
" transform="scale(0.015625)"/>
      <path id="LXGWWenKai-Regular-7acb" d="M 1357 3232 
Q 1306 3226 1261 3226 
L 1114 3226 
Q 966 3245 892 3331 
Q 819 3418 800 3504 
Q 781 3590 781 3597 
Q 781 3642 813 3642 
Q 845 3642 912 3622 
Q 979 3603 1146 3603 
L 1229 3603 
L 2944 3693 
L 2931 4691 
Q 2931 4832 2816 5005 
Q 2797 5037 2797 5056 
Q 2797 5107 2883 5107 
Q 2970 5107 3174 5049 
Q 3379 4992 3379 4864 
L 3373 3718 
L 4915 3802 
Q 5075 3814 5145 3840 
Q 5216 3866 5261 3866 
Q 5306 3866 5392 3802 
Q 5478 3738 5542 3661 
Q 5606 3584 5606 3546 
Q 5606 3469 5446 3456 
L 1357 3232 
z
M 4666 2752 
Q 4570 2355 4266 1603 
Q 3962 851 3642 301 
L 5267 365 
Q 5446 378 5539 403 
Q 5632 429 5673 429 
Q 5715 429 5808 371 
Q 5901 314 5977 230 
Q 6054 147 6054 90 
Q 6054 -6 5894 -19 
L 986 -198 
L 774 -205 
Q 486 -205 384 58 
Q 346 166 346 198 
Q 346 230 378 230 
Q 410 230 490 211 
Q 570 192 710 192 
L 3264 288 
Q 3834 1453 4064 2445 
Q 4115 2669 4115 2745 
Q 4115 2822 4086 2899 
Q 4058 2976 4058 3008 
Q 4058 3066 4125 3066 
Q 4192 3066 4320 3027 
Q 4666 2925 4666 2752 
z
M 2803 1050 
Q 2874 851 2874 787 
Q 2874 723 2810 666 
Q 2675 557 2585 557 
Q 2496 557 2467 598 
Q 2438 640 2342 934 
Q 2125 1632 1638 2560 
Q 1594 2650 1594 2710 
Q 1594 2771 1696 2825 
Q 1798 2880 1859 2880 
Q 1920 2880 1990 2765 
Q 2496 1901 2803 1050 
z
" transform="scale(0.015625)"/>
      <path id="LXGWWenKai-Regular-65b9" d="M 506 3648 
Q 666 3616 838 3616 
L 922 3616 
L 2970 3738 
L 2963 4621 
Q 2963 4768 2912 4841 
Q 2861 4915 2861 4947 
Q 2861 4998 2928 4998 
Q 2995 4998 3098 4986 
Q 3386 4947 3386 4838 
L 3379 3763 
L 5299 3878 
Q 5517 3898 5581 3917 
Q 5645 3936 5683 3936 
Q 5722 3936 5811 3891 
Q 6054 3757 6054 3635 
Q 6054 3552 5933 3539 
L 3142 3379 
Q 3085 3040 2944 2547 
L 4525 2637 
L 4570 2637 
Q 4710 2637 4812 2566 
Q 4915 2496 4915 2422 
Q 4915 2349 4892 2301 
Q 4870 2253 4864 2221 
Q 4723 800 4365 -154 
Q 4301 -314 4169 -435 
Q 4038 -557 3939 -557 
Q 3840 -557 3587 -432 
Q 3334 -307 2921 16 
Q 2509 339 2509 442 
Q 2509 474 2573 474 
Q 2637 474 2985 301 
Q 3334 128 3808 -19 
Q 3821 -26 3853 -26 
Q 3885 -26 3891 0 
Q 4134 512 4246 1101 
Q 4358 1690 4410 2253 
L 2816 2170 
Q 2464 1178 1779 448 
Q 1235 -134 742 -384 
Q 550 -480 483 -480 
Q 416 -480 416 -435 
Q 416 -365 538 -282 
Q 1139 160 1683 880 
Q 2227 1600 2458 2394 
Q 2592 2867 2675 3354 
L 1069 3258 
Q 954 3245 851 3245 
Q 749 3245 649 3293 
Q 550 3341 461 3565 
Q 454 3578 454 3603 
Q 454 3648 506 3648 
z
" transform="scale(0.015625)"/>
      <path id="LXGWWenKai-Regular-7a0b" d="M 1466 4064 
Q 723 3834 579 3834 
Q 435 3834 435 3885 
Q 435 3949 633 4022 
Q 832 4096 1261 4297 
Q 1690 4499 2054 4742 
Q 2163 4806 2204 4896 
Q 2246 4986 2294 4986 
Q 2342 4986 2416 4906 
Q 2490 4826 2544 4730 
Q 2598 4634 2598 4605 
Q 2598 4576 2586 4557 
Q 2534 4467 1811 4186 
L 1811 3251 
L 2202 3277 
Q 2368 3296 2422 3315 
Q 2477 3334 2525 3334 
Q 2573 3334 2701 3244 
Q 2829 3155 2829 3075 
Q 2829 2995 2707 2982 
L 1811 2912 
L 1811 2509 
Q 1862 2560 1907 2560 
Q 1997 2560 2330 2227 
Q 2688 1888 2688 1795 
Q 2688 1702 2601 1635 
Q 2515 1568 2464 1568 
Q 2413 1568 2336 1664 
Q 2118 1978 1811 2266 
L 1818 -435 
Q 1818 -589 1702 -589 
Q 1645 -589 1568 -550 
Q 1402 -474 1402 -346 
Q 1402 -307 1421 -204 
Q 1440 -102 1440 128 
L 1440 294 
L 1453 1837 
Q 1453 1971 1472 2163 
L 1472 2234 
Q 1389 1914 1040 1402 
Q 691 890 496 701 
Q 301 512 250 512 
Q 211 512 211 563 
Q 211 614 275 717 
Q 947 1715 1389 2880 
L 838 2835 
Q 710 2822 649 2822 
Q 589 2822 493 2860 
Q 397 2899 314 3110 
Q 307 3130 307 3155 
Q 301 3194 346 3194 
L 614 3168 
L 685 3168 
L 1459 3226 
L 1466 4064 
z
M 3539 2880 
Q 3539 2746 3386 2746 
Q 3309 2746 3213 2803 
Q 3117 2861 3117 2957 
L 3117 2989 
Q 3130 3130 3130 3200 
L 3130 3315 
Q 3130 3354 3123 3379 
L 3034 4256 
Q 3027 4384 2966 4528 
Q 2906 4672 2906 4704 
Q 2906 4736 2979 4736 
Q 3053 4736 3398 4608 
L 5133 4710 
L 5184 4710 
Q 5293 4710 5385 4627 
Q 5478 4544 5478 4493 
Q 5478 4442 5462 4413 
Q 5446 4384 5440 4352 
L 5312 3398 
Q 5472 3213 5472 3142 
Q 5472 3072 5411 3062 
Q 5350 3053 5267 3046 
L 3533 2950 
L 3539 2893 
L 3539 2880 
z
M 5024 4358 
L 3411 4269 
L 3501 3309 
L 4928 3379 
L 5024 4358 
z
M 5581 141 
L 5888 186 
Q 5939 186 6022 134 
Q 6234 6 6234 -115 
Q 6234 -205 6067 -218 
L 2784 -307 
L 2688 -307 
Q 2547 -307 2454 -259 
Q 2362 -211 2304 45 
L 2304 77 
Q 2304 115 2333 115 
Q 2362 115 2435 92 
Q 2509 70 2688 70 
L 4032 102 
L 4038 986 
L 3443 960 
L 3309 954 
Q 3066 954 2982 1165 
Q 2944 1248 2944 1293 
Q 2944 1338 2976 1338 
Q 3008 1338 3072 1322 
Q 3136 1306 3264 1306 
L 3334 1306 
L 4045 1338 
L 4051 2048 
L 3232 2003 
L 3098 1997 
Q 2931 1997 2867 2074 
Q 2733 2234 2733 2355 
Q 2733 2387 2765 2387 
Q 2797 2387 2861 2371 
Q 2925 2355 3053 2355 
L 3123 2355 
L 5126 2458 
Q 5299 2477 5353 2493 
Q 5408 2509 5446 2509 
Q 5485 2509 5568 2458 
Q 5779 2323 5779 2208 
Q 5779 2138 5613 2125 
L 4448 2067 
L 4442 1350 
L 4986 1376 
Q 5158 1395 5212 1411 
Q 5267 1427 5302 1427 
Q 5338 1427 5414 1376 
Q 5632 1242 5632 1139 
Q 5632 1062 5472 1050 
L 4435 1005 
L 4429 115 
L 5581 141 
z
" transform="scale(0.015625)"/>
     </defs>
     <use xlink:href="#LXGWWenKai-Regular-5efa"/>
     <use xlink:href="#LXGWWenKai-Regular-7acb" transform="translate(99.999985 0)"/>
     <use xlink:href="#LXGWWenKai-Regular-65b9" transform="translate(199.999969 0)"/>
     <use xlink:href="#LXGWWenKai-Regular-7a0b" transform="translate(299.999954 0)"/>
    </g>
   </g>
   <g id="text_4">
    <!-- 性质研究 -->
    <g style="fill: #5d4e37" transform="translate(584 119.245781) scale(0.14 -0.14)">
     <defs>
      <path id="LXGWWenKai-Regular-6027" d="M 1274 4742 
Q 1274 4902 1219 4972 
Q 1165 5043 1165 5075 
Q 1165 5126 1248 5126 
Q 1267 5126 1370 5107 
Q 1677 5037 1677 4909 
L 1658 -512 
Q 1658 -640 1568 -640 
L 1472 -614 
Q 1184 -538 1184 -365 
Q 1184 -320 1213 -185 
Q 1242 -51 1242 128 
L 1274 4742 
z
M 6240 0 
Q 6240 -83 6086 -83 
L 2630 -154 
L 2522 -154 
Q 2323 -154 2246 -61 
Q 2170 32 2141 131 
Q 2112 230 2112 252 
Q 2112 275 2134 275 
Q 2157 275 2253 243 
Q 2349 211 2502 211 
L 3962 243 
L 3981 1562 
L 3258 1530 
Q 3149 1530 3056 1581 
Q 2963 1632 2893 1850 
Q 2880 1869 2880 1894 
Q 2880 1920 2902 1920 
Q 2925 1920 2973 1901 
Q 3021 1882 3181 1882 
L 3264 1882 
L 3981 1920 
L 3994 3027 
L 3098 2976 
Q 2848 2458 2534 2086 
Q 2400 1926 2352 1926 
Q 2304 1926 2304 1980 
Q 2304 2035 2355 2138 
Q 2714 2810 2880 3482 
Q 2957 3763 2957 3904 
L 2931 4102 
Q 2931 4160 2988 4160 
Q 3046 4160 3155 4109 
Q 3450 3955 3450 3834 
Q 3450 3814 3443 3802 
L 3264 3347 
L 4000 3386 
L 4013 4608 
Q 4013 4781 3968 4864 
Q 3923 4947 3923 4969 
Q 3923 4992 3993 4992 
Q 4064 4992 4205 4941 
Q 4346 4890 4381 4848 
Q 4416 4806 4416 4717 
L 4397 3411 
L 5126 3450 
Q 5261 3456 5318 3481 
Q 5376 3507 5421 3507 
Q 5466 3507 5549 3452 
Q 5632 3398 5696 3324 
Q 5760 3251 5760 3200 
Q 5760 3130 5619 3110 
L 4397 3046 
L 4384 1939 
L 4890 1965 
Q 5107 1978 5158 2000 
Q 5210 2022 5254 2022 
Q 5299 2022 5376 1971 
Q 5581 1830 5581 1709 
Q 5581 1632 5427 1619 
L 4378 1574 
L 4358 256 
L 5542 282 
Q 5722 282 5795 304 
Q 5869 326 5904 326 
Q 5939 326 6022 272 
Q 6106 218 6173 141 
Q 6240 64 6240 0 
z
M 1811 3789 
Q 1811 3878 2029 3930 
Q 2112 3930 2237 3632 
Q 2362 3334 2438 3088 
Q 2515 2842 2515 2806 
Q 2515 2771 2435 2720 
Q 2355 2669 2256 2669 
Q 2157 2669 2125 2784 
Q 2029 3238 1837 3693 
Q 1830 3725 1820 3747 
Q 1811 3770 1811 3789 
z
M 730 3789 
L 794 3782 
Q 896 3770 928 3734 
Q 960 3699 960 3629 
L 960 3603 
Q 922 2867 730 2067 
Q 698 1952 595 1952 
Q 493 1952 406 2006 
Q 320 2061 320 2105 
Q 320 2150 384 2349 
Q 538 2854 595 3642 
Q 602 3789 730 3789 
z
" transform="scale(0.015625)"/>
      <path id="LXGWWenKai-Regular-8d28" d="M 3398 1734 
Q 3398 1850 3353 1907 
Q 3309 1965 3309 2003 
Q 3309 2086 3446 2086 
Q 3584 2086 3696 2035 
Q 3808 1984 3808 1869 
Q 3770 672 3149 147 
Q 2566 -333 1696 -512 
Q 1530 -544 1510 -544 
Q 1427 -544 1427 -461 
Q 1427 -378 1562 -333 
Q 2144 -141 2589 147 
Q 3034 435 3200 794 
Q 3398 1190 3398 1619 
L 3398 1734 
z
M 3642 4429 
Q 3827 4358 3827 4224 
Q 3789 3962 3744 3686 
L 5120 3776 
Q 5350 3789 5408 3811 
Q 5466 3834 5523 3834 
Q 5581 3834 5654 3773 
Q 5728 3712 5773 3645 
Q 5818 3578 5818 3546 
Q 5818 3488 5670 3475 
L 3686 3360 
Q 3578 2861 3488 2650 
L 4851 2726 
L 4902 2726 
Q 4992 2726 5091 2662 
Q 5190 2598 5190 2540 
Q 5190 2483 5174 2454 
Q 5158 2426 5152 2400 
L 5050 781 
L 5043 666 
Q 5037 518 4928 518 
Q 4864 525 4758 585 
Q 4653 646 4659 755 
Q 4659 794 4672 835 
Q 4685 877 4762 2400 
L 2438 2278 
L 2470 602 
L 2470 486 
Q 2470 339 2362 339 
Q 2298 339 2189 396 
Q 2080 454 2080 563 
L 2099 742 
Q 2099 800 2080 2240 
Q 2080 2432 2032 2521 
Q 1984 2611 1984 2646 
Q 1984 2682 2070 2682 
Q 2157 2682 2451 2586 
L 3149 2624 
Q 3232 3014 3283 3334 
L 1638 3238 
Q 1562 1402 954 397 
Q 755 64 569 -160 
Q 384 -384 323 -384 
Q 262 -384 262 -320 
Q 262 -256 346 -115 
Q 954 896 1133 2003 
Q 1254 2758 1254 3987 
Q 1254 4269 1216 4406 
Q 1178 4544 1178 4563 
L 1178 4595 
Q 1178 4666 1258 4666 
Q 1338 4666 1696 4454 
Q 3142 4627 4397 5018 
Q 4589 5069 4678 5171 
Q 4710 5203 4764 5203 
Q 4819 5203 4902 5136 
Q 4986 5069 5043 4982 
Q 5101 4896 5101 4832 
Q 5101 4768 5011 4736 
Q 4346 4570 4032 4509 
Q 3718 4448 3642 4429 
z
M 5587 -115 
Q 5734 -211 5734 -272 
Q 5734 -333 5680 -451 
Q 5626 -570 5558 -570 
Q 5491 -570 5155 -349 
Q 4819 -128 3942 262 
Q 3878 294 3843 320 
Q 3808 346 3808 416 
Q 3808 486 3865 560 
Q 3923 634 3955 634 
Q 3987 634 4198 544 
Q 4410 454 4765 300 
Q 5120 147 5587 -115 
z
M 1664 4154 
L 1658 3648 
L 1651 3558 
L 3334 3661 
Q 3405 4102 3405 4211 
Q 3405 4320 3373 4384 
Q 2720 4269 1664 4154 
z
" transform="scale(0.015625)"/>
      <path id="LXGWWenKai-Regular-7814" d="M 2534 2618 
L 2835 2586 
L 3418 2618 
Q 3430 2822 3430 3040 
L 3430 3814 
Q 3430 3981 3424 4141 
L 3328 4134 
Q 3200 4122 3069 4122 
Q 2938 4122 2886 4173 
Q 2720 4365 2720 4467 
Q 2720 4506 2755 4506 
Q 2790 4506 2848 4490 
Q 2906 4474 3053 4474 
L 5165 4602 
Q 5338 4614 5421 4640 
Q 5504 4666 5555 4666 
Q 5606 4666 5696 4614 
Q 5786 4563 5856 4492 
Q 5926 4422 5926 4371 
Q 5926 4288 5805 4275 
L 5075 4237 
L 5075 2714 
L 5440 2733 
Q 5555 2746 5667 2774 
Q 5779 2803 5811 2803 
Q 5843 2803 5939 2758 
Q 6202 2637 6202 2496 
Q 6202 2406 6080 2394 
L 5075 2342 
L 5069 -410 
Q 5069 -576 4954 -576 
Q 4864 -576 4742 -499 
Q 4621 -422 4621 -314 
L 4627 -243 
Q 4666 64 4666 262 
L 4672 2317 
L 3795 2272 
Q 3763 1920 3696 1517 
Q 3629 1114 3446 733 
Q 3264 352 3062 102 
Q 2861 -147 2704 -272 
Q 2547 -397 2505 -397 
Q 2464 -397 2464 -349 
Q 2464 -301 2528 -211 
Q 3187 717 3322 1574 
Q 3379 1946 3398 2246 
L 3104 2234 
Q 2931 2214 2860 2214 
Q 2790 2214 2681 2259 
Q 2573 2304 2502 2541 
Q 2496 2554 2496 2586 
Q 2496 2618 2534 2618 
z
M 2310 1024 
Q 2458 845 2458 784 
Q 2458 723 2406 713 
Q 2355 704 2285 698 
L 1370 666 
L 1376 422 
L 1376 403 
Q 1376 262 1261 262 
Q 1133 262 1043 352 
Q 954 442 954 518 
L 992 870 
L 992 928 
L 954 2093 
Q 678 1619 384 1318 
Q 262 1190 218 1190 
Q 186 1190 186 1241 
Q 186 1293 250 1402 
Q 896 2515 1306 3942 
L 877 3917 
Q 762 3904 672 3904 
Q 582 3904 467 4022 
Q 352 4141 352 4211 
Q 352 4282 384 4282 
Q 416 4282 480 4266 
Q 544 4250 678 4250 
L 755 4250 
L 2118 4339 
Q 2272 4358 2320 4374 
Q 2368 4390 2416 4390 
Q 2464 4390 2534 4339 
Q 2720 4224 2720 4115 
Q 2720 4038 2586 4026 
L 1734 3974 
Q 1504 3219 1286 2746 
Q 1299 2746 1312 2733 
L 2093 2778 
L 2182 2778 
Q 2291 2778 2368 2714 
Q 2445 2650 2445 2589 
Q 2445 2528 2429 2496 
Q 2413 2464 2406 2432 
L 2310 1024 
z
M 3834 4166 
L 3840 3501 
Q 3840 3066 3821 2643 
L 4672 2688 
L 4678 4211 
L 3834 4166 
z
M 2010 2438 
L 1312 2406 
L 1357 992 
L 1952 1018 
L 2010 2438 
z
" transform="scale(0.015625)"/>
      <path id="LXGWWenKai-Regular-7a76" d="M 5286 2617 
Q 5286 2534 5200 2435 
Q 5114 2336 5069 2336 
Q 5024 2336 4979 2368 
Q 4237 3002 3610 3373 
Q 3539 3411 3539 3446 
Q 3539 3482 3558 3533 
Q 3603 3693 3706 3693 
Q 3738 3693 3955 3578 
Q 4531 3283 5210 2758 
Q 5286 2701 5286 2617 
z
M 2579 3213 
Q 2163 2810 1782 2576 
Q 1402 2342 1142 2243 
Q 883 2144 819 2144 
Q 755 2144 755 2185 
Q 755 2227 858 2298 
Q 1645 2810 2080 3341 
Q 2189 3469 2189 3597 
Q 2189 3725 2256 3725 
Q 2323 3725 2412 3641 
Q 2502 3558 2569 3459 
Q 2637 3360 2637 3315 
Q 2637 3270 2579 3213 
z
M 5875 1235 
Q 5971 1235 5971 602 
Q 5971 346 5952 160 
Q 5933 -26 5843 -141 
Q 5664 -378 4954 -378 
Q 4518 -378 4272 -275 
Q 4026 -173 4026 173 
Q 4026 243 4038 320 
L 4250 1626 
L 3008 1542 
Q 2701 614 2109 179 
Q 1517 -256 934 -429 
Q 691 -499 598 -499 
Q 506 -499 506 -461 
Q 506 -390 698 -307 
Q 1722 122 2227 858 
Q 2458 1190 2566 1517 
L 1587 1453 
Q 1459 1440 1360 1440 
Q 1261 1440 1184 1507 
Q 1107 1574 1065 1657 
Q 1024 1741 1024 1773 
Q 1024 1805 1069 1805 
L 1312 1786 
L 1434 1786 
Q 1491 1786 1530 1792 
L 2669 1875 
Q 2726 2144 2732 2358 
Q 2739 2573 2729 2640 
Q 2720 2707 2691 2758 
Q 2662 2810 2662 2835 
Q 2662 2893 2752 2893 
Q 2771 2893 2880 2867 
Q 3200 2810 3200 2630 
L 3200 2618 
Q 3181 2246 3104 1901 
L 4346 1990 
L 4422 1997 
Q 4570 1997 4643 1901 
Q 4717 1805 4717 1766 
Q 4717 1728 4694 1689 
Q 4672 1651 4666 1613 
L 4461 384 
Q 4448 294 4448 240 
Q 4448 186 4467 128 
Q 4525 6 4998 6 
Q 5210 6 5334 32 
Q 5459 58 5529 154 
Q 5600 250 5651 464 
Q 5702 678 5773 1050 
Q 5811 1235 5875 1235 
z
M 1421 4698 
Q 1568 4653 1568 4563 
Q 1568 4474 1498 4288 
L 2995 4378 
L 2995 4870 
Q 2995 5030 2934 5104 
Q 2874 5178 2874 5210 
Q 2874 5261 2966 5261 
Q 3059 5261 3193 5213 
Q 3328 5165 3360 5123 
Q 3392 5082 3392 5011 
L 3386 4397 
L 5574 4525 
L 5626 4525 
Q 5734 4525 5827 4457 
Q 5920 4390 5920 4323 
Q 5920 4256 5878 4217 
Q 5837 4179 5750 4041 
Q 5664 3904 5504 3712 
Q 5158 3309 5037 3309 
Q 4992 3309 4992 3369 
Q 4992 3430 5123 3648 
Q 5254 3866 5363 4160 
L 1382 3936 
Q 1018 2970 890 2970 
Q 883 2970 806 3002 
Q 602 3091 602 3194 
Q 602 3238 704 3417 
Q 806 3597 956 3945 
Q 1107 4294 1158 4470 
Q 1210 4646 1238 4681 
Q 1267 4717 1315 4717 
Q 1363 4717 1421 4698 
z
" transform="scale(0.015625)"/>
     </defs>
     <use xlink:href="#LXGWWenKai-Regular-6027"/>
     <use xlink:href="#LXGWWenKai-Regular-8d28" transform="translate(99.999985 0)"/>
     <use xlink:href="#LXGWWenKai-Regular-7814" transform="translate(199.999969 0)"/>
     <use xlink:href="#LXGWWenKai-Regular-7a76" transform="translate(299.999954 0)"/>
    </g>
   </g>
   <g id="text_5">
    <!-- 实际应用 -->
    <g style="fill: #5d4e37" transform="translate(756.8 119.161563) scale(0.14 -0.14)">
     <defs>
      <path id="LXGWWenKai-Regular-9645" d="M 4410 -109 
L 4416 -301 
Q 4416 -403 4349 -508 
Q 4282 -614 4176 -614 
Q 4070 -614 3875 -505 
Q 3680 -397 3433 -185 
Q 3187 26 3187 102 
Q 3187 141 3264 141 
Q 3341 141 3574 29 
Q 3808 -83 4013 -134 
L 4000 1830 
L 3994 2176 
L 3994 2592 
L 2925 2534 
Q 2880 2528 2842 2528 
L 2765 2528 
Q 2605 2528 2541 2579 
Q 2368 2758 2368 2867 
Q 2368 2906 2397 2906 
Q 2426 2906 2499 2883 
Q 2573 2861 2720 2861 
L 2771 2861 
L 5446 3008 
Q 5632 3014 5699 3043 
Q 5766 3072 5814 3072 
Q 5862 3072 5945 3017 
Q 6029 2963 6089 2892 
Q 6150 2822 6150 2784 
Q 6150 2714 6016 2701 
L 4390 2611 
L 4390 1850 
L 4410 -109 
z
M 1933 2035 
Q 1984 2035 1984 2246 
Q 1984 2458 1891 2723 
Q 1798 2989 1581 3245 
Q 1504 3334 1504 3414 
Q 1504 3494 1587 3635 
Q 1677 3776 1978 4448 
L 1197 4390 
L 1139 -410 
Q 1139 -563 1018 -563 
Q 922 -563 813 -473 
Q 704 -384 704 -288 
L 704 -250 
Q 742 83 742 109 
L 806 4365 
Q 806 4557 758 4665 
Q 710 4774 710 4816 
Q 710 4858 787 4858 
Q 864 4858 1190 4730 
L 2150 4800 
L 2195 4800 
Q 2336 4800 2416 4736 
Q 2496 4672 2496 4617 
Q 2496 4563 2461 4531 
Q 2426 4499 2355 4358 
Q 2125 3859 2000 3654 
Q 1875 3450 1875 3430 
Q 1875 3411 1901 3373 
Q 2118 3142 2243 2809 
Q 2368 2477 2368 2192 
Q 2368 1907 2298 1779 
Q 2182 1574 2019 1574 
Q 1856 1574 1526 1894 
Q 1197 2214 1197 2342 
Q 1197 2374 1238 2374 
Q 1280 2374 1437 2278 
Q 1594 2182 1750 2108 
Q 1907 2035 1933 2035 
z
M 3270 4109 
L 3136 4109 
Q 2944 4109 2835 4333 
Q 2790 4422 2790 4454 
Q 2790 4486 2822 4486 
Q 2854 4486 2918 4464 
Q 2982 4442 3149 4442 
L 3200 4442 
L 4890 4550 
Q 5107 4576 5164 4598 
Q 5222 4621 5257 4621 
Q 5293 4621 5376 4570 
Q 5600 4416 5600 4320 
Q 5600 4262 5459 4243 
Q 3309 4109 3270 4109 
z
M 5952 288 
Q 5862 218 5785 243 
Q 5709 269 5670 384 
Q 5293 1107 4768 1856 
Q 4678 1971 4864 2112 
Q 4922 2150 4973 2131 
Q 5024 2112 5302 1737 
Q 5581 1363 6010 634 
Q 6131 422 5952 288 
z
M 3078 1997 
Q 3072 2202 3290 2093 
Q 3379 2042 3478 1946 
Q 3578 1850 3520 1728 
Q 3194 1107 2890 739 
Q 2586 371 2378 201 
Q 2170 32 2115 19 
Q 2061 6 2061 64 
Q 2054 134 2236 377 
Q 2419 621 2752 1149 
Q 3085 1677 3078 1958 
L 3078 1997 
z
" transform="scale(0.015625)"/>
      <path id="LXGWWenKai-Regular-5e94" d="M 582 -346 
Q 429 -512 377 -512 
Q 326 -512 326 -441 
Q 326 -371 378 -282 
Q 826 512 1014 1328 
Q 1203 2144 1203 3411 
Q 1203 3949 1114 4160 
Q 1101 4186 1101 4211 
Q 1101 4230 1177 4230 
Q 1254 4230 1638 4026 
L 3168 4115 
L 3162 4774 
Q 3162 4890 3101 4970 
Q 3040 5050 3040 5088 
Q 3040 5126 3097 5126 
Q 3155 5126 3264 5107 
Q 3578 5056 3578 4902 
L 3565 4141 
L 5030 4224 
Q 5229 4237 5299 4275 
Q 5370 4314 5421 4314 
Q 5466 4314 5610 4198 
Q 5754 4083 5754 3994 
Q 5754 3930 5594 3910 
L 1632 3674 
Q 1632 1824 1267 864 
Q 973 90 582 -346 
z
M 1638 -192 
Q 1440 -192 1382 -115 
Q 1229 64 1229 205 
Q 1229 237 1254 237 
Q 1274 237 1370 205 
Q 1466 173 1619 173 
Q 2765 205 3910 243 
Q 4134 576 4307 864 
Q 4781 1683 4973 2490 
Q 4986 2547 4986 2605 
Q 4986 2688 4960 2778 
Q 4947 2835 4947 2874 
Q 4947 2957 5062 2957 
Q 5171 2957 5318 2867 
Q 5485 2771 5485 2694 
Q 5485 2662 5472 2618 
Q 5190 1350 4358 256 
Q 4870 269 5389 282 
Q 5466 282 5734 326 
Q 5843 326 6016 141 
Q 6086 70 6086 19 
Q 6086 -70 5933 -83 
L 1638 -192 
z
M 2797 742 
Q 2694 742 2650 877 
Q 2387 1555 2003 2176 
Q 1939 2285 1939 2336 
Q 1939 2381 2054 2451 
Q 2112 2496 2170 2496 
Q 2253 2496 2317 2387 
Q 3085 1203 3085 941 
Q 3085 877 2957 800 
Q 2867 742 2797 742 
z
M 3827 1395 
Q 3712 1395 3661 1530 
Q 3398 2387 3091 3008 
Q 3034 3117 3034 3162 
Q 3034 3213 3155 3277 
Q 3213 3309 3258 3309 
Q 3443 3309 3821 2394 
Q 4115 1677 4115 1581 
Q 4115 1517 3962 1434 
Q 3885 1395 3827 1395 
z
" transform="scale(0.015625)"/>
      <path id="LXGWWenKai-Regular-7528" d="M 5370 -109 
L 5376 -294 
Q 5376 -538 5158 -614 
L 5082 -634 
Q 4954 -634 4698 -448 
Q 3974 77 3974 243 
Q 3974 288 4035 288 
Q 4096 288 4365 141 
Q 4634 -6 4960 -109 
L 4960 1626 
L 3418 1562 
L 3418 -141 
Q 3418 -307 3315 -307 
Q 3290 -307 3206 -275 
Q 3123 -243 3049 -172 
Q 2976 -102 2976 6 
L 2976 38 
Q 2976 58 3001 166 
Q 3027 275 3027 454 
L 3027 1549 
L 1549 1485 
Q 1376 627 941 -45 
Q 762 -320 618 -467 
Q 474 -614 416 -614 
Q 378 -614 378 -553 
Q 378 -493 442 -384 
Q 1005 570 1165 1510 
Q 1267 2150 1267 3443 
Q 1267 3622 1267 3801 
Q 1267 3981 1264 4198 
Q 1261 4416 1206 4531 
Q 1152 4646 1152 4675 
Q 1152 4704 1232 4704 
Q 1312 4704 1658 4550 
L 5075 4762 
L 5126 4762 
Q 5216 4762 5299 4701 
Q 5382 4640 5382 4538 
L 5363 4390 
L 5370 -109 
z
M 4954 4384 
L 3411 4288 
L 3411 3315 
L 4954 3392 
L 4954 4384 
z
M 3027 4269 
L 1664 4186 
Q 1670 3949 1670 3706 
L 1670 3226 
L 3027 3296 
L 3027 4269 
z
M 4954 3034 
L 3411 2957 
L 3418 1920 
L 4960 1984 
L 4954 3034 
z
M 3027 2938 
L 1670 2867 
Q 1658 2131 1613 1850 
L 3027 1907 
L 3027 2938 
z
" transform="scale(0.015625)"/>
     </defs>
     <use xlink:href="#LXGWWenKai-Regular-5b9e"/>
     <use xlink:href="#LXGWWenKai-Regular-9645" transform="translate(99.999985 0)"/>
     <use xlink:href="#LXGWWenKai-Regular-5e94" transform="translate(199.999969 0)"/>
     <use xlink:href="#LXGWWenKai-Regular-7528" transform="translate(299.999954 0)"/>
    </g>
   </g>
  </g>
 </g>
 <defs>
  <clipPath id="p43495a0629">
   <rect x="7.2" y="7.2" width="864" height="216"/>
  </clipPath>
 </defs>
</svg>
