<?xml version="1.0" encoding="utf-8" standalone="no"?>
<!DOCTYPE svg PUBLIC "-//W3C//DTD SVG 1.1//EN"
  "http://www.w3.org/Graphics/SVG/1.1/DTD/svg11.dtd">
<svg xmlns:xlink="http://www.w3.org/1999/xlink" width="851.4pt" height="184.698701pt" viewBox="0 0 851.4 184.698701" xmlns="http://www.w3.org/2000/svg" version="1.1">
 <metadata>
  <rdf:RDF xmlns:dc="http://purl.org/dc/elements/1.1/" xmlns:cc="http://creativecommons.org/ns#" xmlns:rdf="http://www.w3.org/1999/02/22-rdf-syntax-ns#">
   <cc:Work>
    <dc:type rdf:resource="http://purl.org/dc/dcmitype/StillImage"/>
    <dc:date>2026-02-13T07:57:58.403615</dc:date>
    <dc:format>image/svg+xml</dc:format>
    <dc:creator>
     <cc:Agent>
      <dc:title>Matplotlib v3.10.8, https://matplotlib.org/</dc:title>
     </cc:Agent>
    </dc:creator>
   </cc:Work>
  </rdf:RDF>
 </metadata>
 <defs>
  <style type="text/css">*{stroke-linejoin: round; stroke-linecap: butt}</style>
 </defs>
 <g id="figure_1">
  <g id="patch_1">
   <path d="M 0 184.698701 
L 851.4 184.698701 
L 851.4 -0 
L 0 -0 
z
" style="fill: #fefdf5"/>
  </g>
  <g id="axes_1">
   <g id="patch_2">
    <path d="M 134.018182 160.647651 
C 158.04145 160.647651 181.084021 154.023984 198.071036 142.235435 
C 215.058052 130.446887 224.602597 114.45594 224.602597 97.784416 
C 224.602597 81.112891 215.058052 65.121944 198.071036 53.333396 
C 181.084021 41.544848 158.04145 34.921181 134.018182 34.921181 
C 109.994914 34.921181 86.952343 41.544848 69.965327 53.333396 
C 52.978312 65.121944 43.433766 81.112891 43.433766 97.784416 
C 43.433766 114.45594 52.978312 130.446887 69.965327 142.235435 
C 86.952343 154.023984 109.994914 160.647651 134.018182 160.647651 
L 134.018182 160.647651 
z
" clip-path="url(#p6fcdae3104)" style="fill: none; opacity: 0.3; stroke-dasharray: 3.7,1.6; stroke-dashoffset: 0; stroke: #e8927c; stroke-linejoin: miter"/>
   </g>
   <g id="line2d_1">
    <defs>
     <path id="mef28f95321" d="M 0 2.5 
C 0.663008 2.5 1.29895 2.236584 1.767767 1.767767 
C 2.236584 1.29895 2.5 0.663008 2.5 0 
C 2.5 -0.663008 2.236584 -1.29895 1.767767 -1.767767 
C 1.29895 -2.236584 0.663008 -2.5 0 -2.5 
C -0.663008 -2.5 -1.29895 -2.236584 -1.767767 -1.767767 
C -2.236584 -1.29895 -2.5 -0.663008 -2.5 0 
C -2.5 0.663008 -2.236584 1.29895 -1.767767 1.767767 
C -1.29895 2.236584 -0.663008 2.5 0 2.5 
z
" style="stroke: #5d4e37"/>
    </defs>
    <g clip-path="url(#p6fcdae3104)">
     <use xlink:href="#mef28f95321" x="68.797403" y="97.784416" style="fill: #5d4e37; stroke: #5d4e37"/>
     <use xlink:href="#mef28f95321" x="199.238961" y="97.784416" style="fill: #5d4e37; stroke: #5d4e37"/>
    </g>
   </g>
   <g id="line2d_2">
    <defs>
     <path id="m6aac63de7c" d="M 0 3.5 
C 0.928211 3.5 1.81853 3.131218 2.474874 2.474874 
C 3.131218 1.81853 3.5 0.928211 3.5 0 
C 3.5 -0.928211 3.131218 -1.81853 2.474874 -2.474874 
C 1.81853 -3.131218 0.928211 -3.5 0 -3.5 
C -0.928211 -3.5 -1.81853 -3.131218 -2.474874 -2.474874 
C -3.131218 -1.81853 -3.5 -0.928211 -3.5 0 
C -3.5 0.928211 -3.131218 1.81853 -2.474874 2.474874 
C -1.81853 3.131218 -0.928211 3.5 0 3.5 
z
" style="stroke: #e8927c"/>
    </defs>
    <g clip-path="url(#p6fcdae3104)">
     <use xlink:href="#m6aac63de7c" x="163.005195" y="38.226684" style="fill: #e8927c; stroke: #e8927c"/>
    </g>
   </g>
   <g id="line2d_3">
    <path d="M 68.797403 97.784416 
L 163.005195 38.226684 
L 199.238961 97.784416 
" clip-path="url(#p6fcdae3104)" style="fill: none; stroke: #e8927c; stroke-width: 2.5; stroke-linecap: square"/>
   </g>
   <g id="text_1">
    <!-- $|M F_1| + |M F_2| &gt; |F_1 F_2|$ -->
    <g style="fill: #5d4e37" transform="translate(45.618182 148.511688) scale(0.2 -0.2)">
     <defs>
      <path id="STIXGeneral-Regular-7c" d="M 851 -90 
L 429 -90 
L 429 4326 
L 851 4326 
L 851 -90 
z
" transform="scale(0.015625)"/>
      <path id="STIXGeneral-Italic-4d" d="M 5581 4179 
L 5581 4077 
Q 5318 4032 5225 3945 
Q 5133 3859 5062 3603 
L 4275 768 
Q 4186 448 4186 371 
Q 4186 243 4301 176 
Q 4416 109 4704 102 
L 4698 0 
L 2963 0 
L 2963 102 
Q 3277 134 3405 243 
Q 3533 352 3616 653 
L 4422 3590 
L 2016 0 
L 1907 0 
L 1510 3494 
L 755 755 
Q 698 550 698 410 
Q 698 134 1146 102 
L 1146 0 
L -115 0 
L -115 102 
Q 141 134 259 284 
Q 378 435 525 960 
L 1254 3526 
Q 1331 3789 1331 3859 
Q 1331 4051 858 4077 
L 858 4179 
L 2016 4179 
L 2374 1030 
L 4518 4179 
L 5581 4179 
z
" transform="scale(0.015625)"/>
      <path id="STIXGeneral-Italic-46" d="M 4128 4179 
L 3923 3194 
L 3789 3206 
Q 3808 3347 3808 3418 
Q 3808 3667 3718 3772 
Q 3629 3878 3373 3923 
Q 3117 3968 2534 3968 
Q 2310 3968 2220 3926 
Q 2131 3885 2099 3763 
L 1690 2310 
Q 2003 2317 2147 2317 
Q 2291 2317 2457 2345 
Q 2624 2374 2678 2396 
Q 2733 2419 2822 2505 
Q 2912 2592 2950 2665 
Q 2989 2739 3072 2912 
L 3187 2880 
L 2701 1376 
L 2592 1408 
Q 2643 1670 2643 1798 
Q 2643 1978 2531 2029 
Q 2419 2080 2163 2080 
Q 1984 2080 1632 2099 
L 1254 736 
Q 1165 416 1165 352 
Q 1165 237 1273 179 
Q 1382 122 1658 102 
L 1658 0 
L 51 0 
L 51 102 
Q 314 122 410 224 
Q 506 326 582 602 
L 1370 3430 
Q 1434 3661 1434 3821 
Q 1434 3955 1347 4003 
Q 1261 4051 947 4077 
L 947 4179 
L 4128 4179 
z
" transform="scale(0.015625)"/>
      <path id="STIXGeneral-Regular-31" d="M 2522 0 
L 755 0 
L 755 96 
Q 1107 115 1235 227 
Q 1363 339 1363 608 
L 1363 3482 
Q 1363 3795 1171 3795 
Q 1082 3795 883 3718 
L 710 3654 
L 710 3744 
L 1856 4326 
L 1914 4307 
L 1914 486 
Q 1914 275 2042 185 
Q 2170 96 2522 96 
L 2522 0 
z
" transform="scale(0.015625)"/>
      <path id="STIXGeneral-Regular-2b" d="M 4070 1408 
L 2400 1408 
L 2400 -262 
L 1978 -262 
L 1978 1408 
L 307 1408 
L 307 1830 
L 1978 1830 
L 1978 3501 
L 2400 3501 
L 2400 1830 
L 4070 1830 
L 4070 1408 
z
" transform="scale(0.015625)"/>
      <path id="STIXGeneral-Regular-32" d="M 3034 877 
L 2688 0 
L 186 0 
L 186 77 
L 1325 1286 
Q 1773 1754 1965 2144 
Q 2157 2534 2157 2950 
Q 2157 3379 1920 3616 
Q 1683 3853 1267 3853 
Q 922 3853 720 3673 
Q 518 3494 326 3021 
L 192 3053 
Q 301 3648 630 3987 
Q 960 4326 1523 4326 
Q 2054 4326 2380 4006 
Q 2707 3686 2707 3200 
Q 2707 2477 1888 1613 
L 832 486 
L 2330 486 
Q 2541 486 2665 569 
Q 2790 653 2944 915 
L 3034 877 
z
" transform="scale(0.015625)"/>
      <path id="STIXGeneral-Regular-3e" d="M 3974 1594 
L 358 -154 
L 358 250 
L 3123 1626 
L 358 3002 
L 358 3418 
L 3974 1658 
L 3974 1594 
z
" transform="scale(0.015625)"/>
     </defs>
     <use xlink:href="#STIXGeneral-Regular-7c" transform="translate(0 0.40625)"/>
     <use xlink:href="#STIXGeneral-Italic-4d" transform="translate(19.999985 0.40625)"/>
     <use xlink:href="#STIXGeneral-Italic-46" transform="translate(103.299973 0.40625)"/>
     <use xlink:href="#STIXGeneral-Regular-31" transform="translate(164.399963 -12.821875) scale(0.7)"/>
     <use xlink:href="#STIXGeneral-Regular-7c" transform="translate(203.809328 0.40625)"/>
     <use xlink:href="#STIXGeneral-Regular-2b" transform="translate(238.249309 0.40625)"/>
     <use xlink:href="#STIXGeneral-Regular-7c" transform="translate(321.18929 0.40625)"/>
     <use xlink:href="#STIXGeneral-Italic-4d" transform="translate(341.189275 0.40625)"/>
     <use xlink:href="#STIXGeneral-Italic-46" transform="translate(424.489262 0.40625)"/>
     <use xlink:href="#STIXGeneral-Regular-32" transform="translate(485.589253 -12.821875) scale(0.7)"/>
     <use xlink:href="#STIXGeneral-Regular-7c" transform="translate(524.998618 0.40625)"/>
     <use xlink:href="#STIXGeneral-Regular-3e" transform="translate(559.438599 0.40625)"/>
     <use xlink:href="#STIXGeneral-Regular-7c" transform="translate(642.37858 0.40625)"/>
     <use xlink:href="#STIXGeneral-Italic-46" transform="translate(662.378564 0.40625)"/>
     <use xlink:href="#STIXGeneral-Regular-31" transform="translate(723.478555 -12.821875) scale(0.7)"/>
     <use xlink:href="#STIXGeneral-Italic-46" transform="translate(762.88792 0.40625)"/>
     <use xlink:href="#STIXGeneral-Regular-32" transform="translate(823.98791 -12.821875) scale(0.7)"/>
     <use xlink:href="#STIXGeneral-Regular-7c" transform="translate(863.397275 0.40625)"/>
    </g>
   </g>
   <g id="text_2">
    <!-- 轨迹：椭圆 -->
    <g style="fill: #e8927c" transform="translate(74.018182 170.251948) scale(0.24 -0.24)">
     <defs>
      <path id="LXGWWenKai-Regular-8f68" d="M 2963 3334 
L 3213 3302 
L 3347 3302 
Q 3386 3302 3418 3309 
L 3923 3366 
Q 3968 3872 3968 4195 
Q 3968 4518 3955 4643 
Q 3942 4768 3907 4851 
Q 3872 4934 3872 4941 
Q 3872 4986 3926 4986 
Q 3981 4986 4096 4960 
Q 4410 4890 4410 4717 
Q 4397 4083 4326 3411 
L 5043 3488 
Q 5062 3494 5082 3494 
L 5114 3494 
Q 5267 3494 5337 3408 
Q 5408 3322 5408 3283 
Q 5408 3245 5395 3203 
Q 5382 3162 5376 3110 
L 5075 403 
Q 5069 371 5069 346 
L 5069 288 
Q 5069 134 5155 96 
Q 5242 58 5430 58 
Q 5619 58 5708 80 
Q 5798 102 5859 217 
Q 5920 333 6048 1101 
Q 6086 1357 6150 1357 
Q 6246 1357 6246 819 
Q 6246 282 6208 64 
Q 6170 -154 6010 -243 
Q 5850 -333 5546 -333 
Q 5242 -333 5056 -294 
Q 4870 -256 4768 -141 
Q 4666 -26 4666 211 
L 4666 333 
L 4960 3130 
L 4288 3053 
Q 4102 1126 3238 90 
Q 2976 -218 2784 -365 
Q 2592 -512 2547 -512 
Q 2522 -512 2522 -454 
Q 2522 -397 2637 -262 
Q 3539 787 3789 2278 
Q 3853 2669 3891 3002 
L 3526 2963 
Q 3469 2957 3414 2950 
Q 3360 2944 3273 2944 
Q 3187 2944 3100 3024 
Q 3014 3104 2966 3190 
Q 2918 3277 2918 3290 
Q 2918 3334 2963 3334 
z
M 576 877 
Q 666 864 790 864 
Q 915 864 1933 1101 
L 1933 1952 
L 1478 1907 
L 1446 1907 
L 1203 1882 
L 1030 1850 
Q 960 1850 880 1891 
Q 800 1933 819 2042 
Q 838 2080 838 2099 
Q 1286 3104 1485 3776 
L 1050 3744 
L 896 3731 
Q 742 3731 678 3788 
Q 614 3846 576 3939 
Q 538 4032 538 4064 
Q 538 4096 566 4096 
Q 595 4096 652 4080 
Q 710 4064 845 4064 
L 928 4064 
L 1581 4115 
Q 1728 4646 1741 4716 
Q 1754 4787 1734 4864 
Q 1670 5030 1811 5037 
Q 1869 5037 1978 4979 
Q 2189 4870 2163 4762 
L 1984 4141 
L 2522 4179 
Q 2637 4186 2713 4218 
Q 2790 4250 2848 4250 
Q 2906 4250 2982 4198 
Q 3181 4077 3181 3974 
Q 3181 3910 3027 3891 
L 1888 3808 
Q 1747 3309 1459 2630 
L 1293 2240 
Q 1312 2240 1427 2246 
L 1933 2285 
L 1933 2848 
Q 1933 2976 1875 3053 
Q 1818 3130 1818 3165 
Q 1818 3200 1878 3200 
Q 1939 3200 2035 3181 
Q 2317 3117 2317 2963 
L 2310 2317 
L 2611 2342 
Q 2701 2362 2745 2381 
Q 2790 2400 2828 2400 
Q 2867 2400 2925 2349 
Q 3066 2246 3066 2166 
Q 3066 2086 3021 2067 
Q 2976 2048 2931 2042 
L 2304 1984 
L 2298 1190 
L 3046 1402 
L 3078 1402 
Q 3155 1402 3155 1341 
Q 3155 1280 3040 1222 
Q 2669 1056 2298 909 
L 2285 -448 
Q 2285 -595 2195 -595 
L 2182 -595 
Q 2176 -589 2160 -585 
Q 2144 -582 2089 -569 
Q 2035 -557 1955 -499 
Q 1875 -442 1875 -368 
Q 1875 -294 1904 -172 
Q 1933 -51 1933 147 
L 1933 768 
Q 1504 614 1174 521 
Q 845 429 781 429 
Q 717 429 653 525 
Q 589 621 557 729 
Q 525 838 525 857 
Q 525 877 550 877 
L 576 877 
z
" transform="scale(0.015625)"/>
      <path id="LXGWWenKai-Regular-8ff9" d="M 2278 4102 
Q 2394 4064 2586 4064 
L 2669 4064 
L 3827 4141 
L 3827 4742 
Q 3827 4954 3712 5114 
Q 3693 5146 3693 5165 
Q 3693 5203 3769 5203 
Q 3846 5203 3990 5152 
Q 4134 5101 4185 5062 
Q 4237 5024 4237 4934 
L 4237 4922 
L 4218 4160 
L 5267 4230 
Q 5478 4243 5545 4268 
Q 5613 4294 5651 4294 
Q 5690 4294 5760 4250 
Q 5958 4122 5958 4013 
Q 5958 3930 5818 3917 
L 4678 3846 
L 4685 934 
L 4691 717 
Q 4691 557 4601 461 
Q 4512 365 4422 365 
Q 4333 365 4185 457 
Q 4038 550 3884 678 
Q 3731 806 3622 918 
Q 3514 1030 3514 1068 
Q 3514 1107 3578 1107 
Q 3642 1107 3859 1008 
Q 4077 909 4294 826 
L 4288 3827 
L 3859 3795 
Q 3846 2816 3712 2336 
Q 3578 1856 3363 1529 
Q 3149 1203 2918 988 
Q 2688 774 2509 665 
Q 2330 557 2285 557 
Q 2240 557 2240 608 
Q 2240 659 2368 787 
Q 3315 1702 3430 3034 
Q 3462 3411 3469 3776 
L 2765 3731 
Q 2720 3725 2675 3725 
L 2605 3725 
Q 2502 3725 2416 3769 
Q 2330 3814 2240 4032 
L 2234 4058 
Q 2234 4102 2278 4102 
z
M 2669 3232 
Q 2669 3309 2726 3309 
Q 2746 3309 2842 3270 
Q 3117 3162 3117 3021 
Q 3117 3002 3030 2787 
Q 2944 2573 2733 2256 
Q 2522 1939 2349 1753 
Q 2176 1568 2118 1568 
Q 2074 1568 2074 1619 
Q 2074 1670 2160 1820 
Q 2246 1971 2368 2227 
Q 2669 2835 2669 3162 
L 2669 3232 
z
M 5786 2086 
Q 5862 1894 5862 1833 
Q 5862 1773 5798 1731 
Q 5734 1690 5670 1677 
L 5606 1658 
Q 5510 1658 5466 1773 
Q 5254 2413 4941 2963 
Q 4902 3034 4902 3094 
Q 4902 3155 4982 3203 
Q 5062 3251 5116 3251 
Q 5171 3251 5242 3142 
Q 5594 2592 5786 2086 
z
M 1939 3804 
Q 1939 3731 1849 3635 
Q 1760 3539 1693 3539 
Q 1626 3539 1491 3718 
Q 1216 4083 768 4486 
Q 678 4563 678 4611 
Q 678 4659 755 4726 
Q 832 4794 889 4794 
Q 947 4794 1139 4650 
Q 1331 4506 1635 4192 
Q 1939 3878 1939 3804 
z
M 378 3072 
Q 506 3046 563 3046 
L 653 3046 
Q 678 3046 704 3053 
L 1696 3155 
L 1766 3162 
Q 1837 3162 1929 3091 
Q 2022 3021 2022 2957 
Q 2022 2893 1984 2854 
L 1907 2778 
Q 1638 2419 1510 2252 
Q 1382 2086 1347 2032 
Q 1312 1978 1312 1958 
Q 1312 1939 1344 1914 
Q 1907 1517 1952 1437 
Q 1997 1357 1997 1289 
Q 1997 1222 1965 1139 
Q 1894 966 1427 576 
Q 1626 563 1933 499 
Q 4570 -26 5978 -26 
L 6010 -26 
Q 6157 -26 6157 -83 
Q 6157 -90 6121 -179 
Q 6086 -269 6009 -358 
Q 5933 -448 5818 -448 
L 5786 -448 
Q 4973 -422 4070 -275 
Q 2592 -26 2128 73 
Q 1664 173 1513 195 
Q 1363 218 1120 218 
Q 877 218 518 102 
Q 454 83 410 83 
Q 243 83 243 358 
Q 243 410 282 448 
Q 365 531 915 576 
Q 1274 890 1549 1229 
Q 1562 1254 1562 1273 
Q 1562 1293 1418 1414 
Q 1274 1536 1075 1651 
Q 909 1760 909 1872 
Q 909 1984 976 2096 
Q 1043 2208 1440 2771 
L 819 2694 
Q 781 2688 755 2688 
L 691 2688 
Q 640 2688 537 2729 
Q 435 2771 339 2989 
Q 326 3027 326 3034 
Q 326 3072 378 3072 
z
" transform="scale(0.015625)"/>
      <path id="LXGWWenKai-Regular-ff1a" d="M 1574 646 
Q 1709 646 1814 515 
Q 1920 384 1920 253 
Q 1920 122 1840 38 
Q 1760 -45 1606 -45 
Q 1453 -45 1350 86 
Q 1248 218 1248 355 
Q 1248 493 1344 569 
Q 1440 646 1574 646 
z
M 1574 3021 
Q 1709 3021 1814 2889 
Q 1920 2758 1920 2627 
Q 1920 2496 1840 2413 
Q 1760 2330 1606 2330 
Q 1453 2330 1350 2461 
Q 1248 2592 1248 2729 
Q 1248 2867 1344 2944 
Q 1440 3021 1574 3021 
z
" transform="scale(0.015625)"/>
      <path id="LXGWWenKai-Regular-692d" d="M 2912 2189 
Q 3002 2112 3094 2054 
Q 3187 1997 3216 1997 
Q 3245 1997 3245 2074 
L 3245 2189 
Q 3245 2330 3177 2586 
Q 3110 2842 2854 3136 
Q 2784 3213 2784 3309 
Q 2784 3405 2864 3552 
Q 2944 3699 3187 4326 
L 2701 4294 
L 2714 -346 
Q 2714 -486 2624 -486 
Q 2496 -486 2409 -400 
Q 2323 -314 2323 -253 
Q 2323 -192 2345 -35 
Q 2368 122 2368 403 
L 2362 3968 
Q 2362 4275 2323 4457 
Q 2285 4640 2285 4681 
Q 2285 4723 2349 4723 
Q 2413 4723 2733 4595 
L 3379 4653 
Q 3437 4653 3533 4601 
Q 3629 4550 3629 4483 
Q 3629 4416 3424 3965 
Q 3219 3514 3174 3430 
Q 3130 3347 3130 3305 
Q 3130 3264 3162 3219 
Q 3450 2899 3584 2336 
Q 3910 2944 4154 3642 
L 3968 3622 
L 3885 3622 
Q 3693 3622 3632 3689 
Q 3571 3757 3539 3846 
Q 3507 3936 3507 3962 
Q 3507 3974 3545 3974 
Q 3584 3974 3657 3948 
Q 3731 3923 3859 3923 
L 3904 3923 
L 4256 3962 
Q 4442 4621 4442 4793 
Q 4442 4966 4422 5027 
Q 4403 5088 4403 5117 
Q 4403 5146 4441 5146 
Q 4480 5146 4582 5107 
Q 4858 5011 4858 4870 
Q 4858 4813 4778 4515 
Q 4698 4218 4621 3994 
L 5459 4070 
Q 5626 4090 5667 4106 
Q 5709 4122 5766 4122 
Q 5824 4122 5939 4029 
Q 6054 3936 6054 3853 
Q 6054 3795 5914 3782 
L 4499 3674 
Q 4384 3360 4218 3046 
Q 4320 3034 4429 2995 
L 5318 3059 
L 5382 3059 
Q 5530 3059 5581 2979 
Q 5632 2899 5632 2848 
L 5613 2739 
L 5626 -6 
L 5638 -262 
Q 5638 -493 5478 -563 
Q 5421 -589 5366 -589 
Q 5312 -589 5181 -493 
Q 5050 -397 4925 -269 
Q 4800 -141 4717 -22 
Q 4634 96 4634 134 
Q 4634 154 4688 154 
Q 4742 154 4896 61 
Q 5050 -32 5280 -141 
L 5280 934 
L 4390 883 
L 4371 -384 
Q 4371 -506 4275 -506 
Q 4205 -506 4102 -442 
Q 4000 -378 4000 -320 
Q 4000 -262 4019 -163 
Q 4038 -64 4038 128 
L 4077 2611 
Q 4077 2656 4077 2701 
Q 4077 2746 4070 2778 
Q 3744 2221 3603 2125 
Q 3603 2112 3603 2099 
Q 3603 1882 3513 1722 
Q 3424 1562 3322 1562 
Q 3162 1562 2947 1850 
Q 2733 2138 2733 2202 
Q 2733 2266 2771 2266 
Q 2822 2266 2912 2189 
z
M 1229 2112 
L 1242 2554 
L 1248 2656 
Q 1069 1837 614 1088 
Q 346 621 250 621 
Q 218 621 218 675 
Q 218 730 256 826 
Q 666 1696 1126 3226 
L 800 3200 
Q 685 3187 640 3187 
Q 410 3187 307 3462 
Q 301 3475 301 3510 
Q 301 3546 336 3546 
Q 371 3546 425 3533 
Q 480 3520 595 3520 
L 672 3520 
L 1235 3565 
L 1248 4704 
Q 1248 4858 1178 4960 
Q 1158 4998 1158 5018 
Q 1158 5069 1260 5069 
Q 1363 5069 1523 4979 
Q 1606 4934 1606 4838 
L 1587 3597 
L 1734 3610 
Q 1875 3629 1923 3645 
Q 1971 3661 2048 3661 
Q 2125 3661 2224 3565 
Q 2323 3469 2323 3418 
Q 2323 3334 2176 3315 
L 1587 3264 
L 1581 2867 
Q 1651 2918 1702 2918 
Q 1798 2918 2028 2524 
Q 2259 2131 2259 2060 
Q 2259 1990 2169 1942 
Q 2080 1894 2025 1894 
Q 1971 1894 1904 2022 
Q 1837 2150 1750 2326 
Q 1664 2502 1574 2630 
L 1536 -480 
Q 1536 -614 1440 -614 
Q 1382 -614 1306 -576 
Q 1158 -506 1158 -365 
Q 1158 -326 1180 -236 
Q 1203 -147 1203 32 
L 1203 166 
Q 1229 730 1229 2112 
z
M 5280 1850 
L 4403 1798 
L 4397 1165 
L 5280 1210 
L 5280 1850 
z
M 5280 2752 
L 4416 2694 
L 4410 2086 
L 5280 2138 
L 5280 2752 
z
" transform="scale(0.015625)"/>
      <path id="LXGWWenKai-Regular-5706" d="M 5562 173 
Q 5766 -51 5766 -121 
Q 5766 -192 5702 -201 
Q 5638 -211 5549 -218 
L 1248 -314 
L 1248 -518 
Q 1248 -685 1139 -685 
Q 998 -685 899 -585 
Q 800 -486 800 -390 
L 800 -358 
Q 800 -333 822 -243 
Q 845 -154 845 102 
L 838 4358 
Q 838 4557 730 4774 
Q 717 4800 717 4819 
Q 717 4864 800 4864 
Q 883 4864 1248 4736 
L 5229 4973 
L 5286 4973 
Q 5517 4973 5581 4819 
Q 5606 4762 5606 4742 
L 5581 4608 
L 5562 173 
z
M 5165 4602 
L 1235 4384 
L 1248 45 
L 5152 154 
L 5165 4602 
z
M 4474 192 
Q 4429 192 4301 282 
Q 3981 518 3373 781 
Q 3290 826 3290 883 
Q 3290 941 3347 1017 
Q 3405 1094 3462 1094 
Q 3520 1094 4000 860 
Q 4480 627 4560 579 
Q 4640 531 4640 473 
Q 4640 416 4595 304 
Q 4550 192 4474 192 
z
M 2048 1434 
L 1958 2432 
Q 1946 2643 1904 2736 
Q 1862 2829 1862 2857 
Q 1862 2886 1936 2886 
Q 2010 2886 2336 2790 
L 4109 2886 
L 4128 2886 
Q 4230 2886 4323 2809 
Q 4416 2733 4416 2691 
Q 4416 2650 4403 2624 
Q 4390 2598 4384 2573 
L 4301 1472 
L 4294 1178 
L 4288 1114 
Q 4275 1018 4192 1030 
Q 4090 1030 3987 1110 
Q 3885 1190 3923 1308 
Q 3962 1427 4019 2592 
L 2304 2502 
L 2381 1421 
L 2400 1126 
L 2400 1062 
Q 2400 966 2297 966 
Q 2195 966 2108 1024 
Q 2022 1082 2022 1165 
L 2048 1434 
z
M 2189 3232 
L 2195 3315 
Q 2195 3373 2182 3450 
L 2138 3904 
Q 2125 4045 2070 4137 
Q 2016 4230 2016 4262 
Q 2016 4294 2077 4294 
Q 2138 4294 2445 4173 
L 3930 4269 
L 3974 4269 
Q 4077 4269 4141 4211 
Q 4205 4154 4205 4112 
Q 4205 4070 4195 4041 
Q 4186 4013 4179 3987 
L 4070 3462 
Q 4218 3309 4218 3267 
Q 4218 3226 4173 3222 
Q 4128 3219 4064 3213 
L 2560 3136 
L 2560 3110 
Q 2560 3021 2451 3021 
Q 2342 3021 2265 3065 
Q 2189 3110 2189 3194 
L 2189 3232 
z
M 3795 3974 
L 2483 3891 
L 2528 3411 
L 3725 3482 
L 3795 3974 
z
M 3059 2010 
Q 3059 2131 3027 2182 
Q 2995 2234 2995 2259 
Q 2995 2330 3116 2330 
Q 3238 2330 3328 2278 
Q 3418 2227 3418 2131 
Q 3398 1549 3273 1248 
Q 3149 947 2985 777 
Q 2822 608 2633 489 
Q 2445 371 2272 300 
Q 2099 230 1894 182 
Q 1690 134 1664 134 
Q 1568 134 1568 217 
Q 1568 301 1677 352 
Q 2707 691 2938 1318 
Q 3046 1606 3052 1718 
Q 3059 1830 3059 1914 
L 3059 2010 
z
" transform="scale(0.015625)"/>
     </defs>
     <use xlink:href="#LXGWWenKai-Regular-8f68"/>
     <use xlink:href="#LXGWWenKai-Regular-8ff9" transform="translate(99.999985 0)"/>
     <use xlink:href="#LXGWWenKai-Regular-ff1a" transform="translate(199.999969 0)"/>
     <use xlink:href="#LXGWWenKai-Regular-692d" transform="translate(299.999954 0)"/>
     <use xlink:href="#LXGWWenKai-Regular-5706" transform="translate(399.999939 0)"/>
    </g>
   </g>
  </g>
  <g id="axes_2">
   <g id="line2d_4">
    <path d="M 360.479221 97.784416 
L 490.920779 97.784416 
" clip-path="url(#pae39436af5)" style="fill: none; stroke: #d1d1d1; stroke-opacity: 0.6; stroke-width: 6; stroke-linecap: round"/>
   </g>
   <g id="line2d_5">
    <g clip-path="url(#pae39436af5)">
     <use xlink:href="#mef28f95321" x="360.479221" y="97.784416" style="fill: #5d4e37; stroke: #5d4e37"/>
     <use xlink:href="#mef28f95321" x="490.920779" y="97.784416" style="fill: #5d4e37; stroke: #5d4e37"/>
    </g>
   </g>
   <g id="line2d_6">
    <g clip-path="url(#pae39436af5)">
     <use xlink:href="#m6aac63de7c" x="443.816883" y="97.784416" style="fill: #e8927c; stroke: #e8927c"/>
    </g>
   </g>
   <g id="text_3">
    <!-- $|M F_1| + |M F_2| = |F_1 F_2|$ -->
    <g style="fill: #5d4e37" transform="translate(337.3 148.511688) scale(0.2 -0.2)">
     <defs>
      <path id="STIXGeneral-Regular-3d" d="M 4077 2048 
L 307 2048 
L 307 2470 
L 4077 2470 
L 4077 2048 
z
M 4077 768 
L 307 768 
L 307 1190 
L 4077 1190 
L 4077 768 
z
" transform="scale(0.015625)"/>
     </defs>
     <use xlink:href="#STIXGeneral-Regular-7c" transform="translate(0 0.40625)"/>
     <use xlink:href="#STIXGeneral-Italic-4d" transform="translate(19.999985 0.40625)"/>
     <use xlink:href="#STIXGeneral-Italic-46" transform="translate(103.299973 0.40625)"/>
     <use xlink:href="#STIXGeneral-Regular-31" transform="translate(164.399963 -12.821875) scale(0.7)"/>
     <use xlink:href="#STIXGeneral-Regular-7c" transform="translate(203.809328 0.40625)"/>
     <use xlink:href="#STIXGeneral-Regular-2b" transform="translate(238.249309 0.40625)"/>
     <use xlink:href="#STIXGeneral-Regular-7c" transform="translate(321.18929 0.40625)"/>
     <use xlink:href="#STIXGeneral-Italic-4d" transform="translate(341.189275 0.40625)"/>
     <use xlink:href="#STIXGeneral-Italic-46" transform="translate(424.489262 0.40625)"/>
     <use xlink:href="#STIXGeneral-Regular-32" transform="translate(485.589253 -12.821875) scale(0.7)"/>
     <use xlink:href="#STIXGeneral-Regular-7c" transform="translate(524.998618 0.40625)"/>
     <use xlink:href="#STIXGeneral-Regular-3d" transform="translate(559.438599 0.40625)"/>
     <use xlink:href="#STIXGeneral-Regular-7c" transform="translate(642.37858 0.40625)"/>
     <use xlink:href="#STIXGeneral-Italic-46" transform="translate(662.378564 0.40625)"/>
     <use xlink:href="#STIXGeneral-Regular-31" transform="translate(723.478555 -12.821875) scale(0.7)"/>
     <use xlink:href="#STIXGeneral-Italic-46" transform="translate(762.88792 0.40625)"/>
     <use xlink:href="#STIXGeneral-Regular-32" transform="translate(823.98791 -12.821875) scale(0.7)"/>
     <use xlink:href="#STIXGeneral-Regular-7c" transform="translate(863.397275 0.40625)"/>
    </g>
   </g>
   <g id="text_4">
    <!-- 轨迹：线段 -->
    <g style="fill: #e8927c" transform="translate(365.7 170.251948) scale(0.24 -0.24)">
     <defs>
      <path id="LXGWWenKai-Regular-7ebf" d="M 1837 1888 
Q 2112 1933 2281 1961 
Q 2451 1990 2544 1984 
Q 2637 1978 2630 1926 
Q 2624 1837 2243 1680 
Q 1862 1523 1430 1414 
Q 998 1306 928 1312 
Q 858 1318 813 1357 
Q 691 1504 659 1609 
Q 627 1715 627 1728 
Q 634 1786 698 1779 
L 794 1773 
Q 922 1760 1043 1766 
Q 1299 2144 1517 2515 
L 1574 2605 
Q 1088 2944 608 3149 
Q 499 3200 486 3251 
Q 474 3302 518 3401 
Q 563 3501 624 3513 
Q 685 3526 806 3482 
Q 832 3469 851 3462 
Q 1395 4250 1510 4544 
Q 1626 4838 1626 4979 
L 1626 5043 
Q 1626 5114 1677 5114 
Q 1709 5114 1798 5062 
Q 2042 4915 2042 4781 
Q 2003 4621 1792 4250 
Q 1600 3904 1171 3290 
L 1325 3206 
Q 1600 3053 1779 2931 
Q 2202 3648 2246 3834 
Q 2259 3891 2265 3987 
Q 2272 4083 2307 4083 
Q 2342 4083 2426 4032 
Q 2662 3891 2669 3750 
Q 2669 3706 2650 3661 
Q 2093 2688 1504 1830 
Q 1664 1862 1837 1888 
z
M 1549 627 
Q 2099 845 2419 989 
Q 2739 1133 2796 1139 
Q 2854 1146 2861 1126 
Q 2874 986 1926 442 
Q 979 -102 813 -115 
Q 768 -122 681 -45 
Q 595 32 534 128 
Q 474 224 467 275 
Q 467 301 531 307 
L 595 314 
Q 698 320 883 378 
L 1549 627 
z
M 5274 4154 
Q 5171 4019 4992 4192 
Q 4640 4550 4461 4688 
Q 4282 4826 4291 4890 
Q 4301 4954 4355 5014 
Q 4410 5075 4451 5062 
Q 4493 5050 4595 4979 
Q 5370 4467 5350 4282 
Q 5338 4237 5274 4154 
z
M 3987 3226 
Q 4122 2598 4141 2483 
L 5254 2682 
Q 5357 2701 5424 2736 
Q 5491 2771 5523 2774 
Q 5555 2778 5632 2733 
Q 5837 2598 5850 2490 
Q 5862 2419 5702 2387 
L 4237 2125 
L 4294 1920 
Q 4307 1888 4320 1856 
Q 4333 1824 4384 1667 
Q 4435 1510 4582 1222 
Q 5101 1638 5165 1724 
Q 5229 1811 5241 1891 
Q 5254 1971 5289 1971 
Q 5325 1971 5395 1914 
Q 5587 1741 5587 1600 
Q 5587 1542 5530 1485 
Q 5139 1146 4768 896 
Q 5165 269 5683 -70 
Q 5702 -77 5718 -86 
Q 5734 -96 5747 -96 
Q 5843 -96 6048 896 
Q 6106 1171 6173 1171 
Q 6240 1171 6240 922 
L 6240 870 
Q 6234 390 6144 -218 
Q 6118 -397 6048 -473 
Q 5978 -550 5805 -550 
Q 5632 -550 5389 -390 
Q 4896 -70 4435 685 
Q 3571 186 2534 -90 
Q 2342 -141 2281 -141 
Q 2221 -141 2221 -96 
Q 2221 -26 2387 38 
Q 3603 563 4256 998 
Q 4205 1107 4150 1222 
Q 4096 1338 3910 1850 
L 3859 2054 
L 3187 1939 
L 3091 1926 
Q 2989 1914 2893 1965 
Q 2797 2016 2701 2202 
Q 2669 2278 2726 2285 
Q 2752 2291 2829 2281 
Q 2906 2272 3085 2291 
L 3757 2406 
Q 3718 2573 3686 2739 
L 3610 3149 
L 3277 3085 
L 3181 3072 
Q 3014 3046 2950 3136 
Q 2906 3181 2848 3267 
Q 2790 3354 2790 3386 
Q 2778 3437 2854 3430 
Q 2963 3418 3078 3437 
L 3162 3443 
L 3552 3520 
L 3501 3878 
Q 3450 4218 3418 4538 
Q 3386 4858 3357 4928 
Q 3328 4998 3277 5056 
Q 3226 5114 3226 5146 
Q 3226 5197 3293 5197 
Q 3360 5197 3469 5190 
Q 3763 5165 3776 4979 
Q 3808 4493 3878 3936 
L 3923 3610 
L 3923 3590 
L 4774 3750 
Q 4832 3763 4921 3798 
Q 5011 3834 5052 3840 
Q 5094 3846 5177 3808 
Q 5261 3770 5325 3712 
Q 5510 3526 5210 3469 
L 3987 3226 
z
" transform="scale(0.015625)"/>
      <path id="LXGWWenKai-Regular-6bb5" d="M 4890 2714 
Q 4525 2771 4525 3136 
L 4525 3149 
L 4544 4320 
L 3680 4256 
L 3680 4128 
Q 3680 3738 3622 3446 
Q 3565 3155 3401 2908 
Q 3238 2662 3078 2537 
Q 2918 2413 2867 2413 
Q 2829 2413 2829 2461 
Q 2829 2509 2880 2579 
Q 3155 2995 3219 3353 
Q 3283 3712 3283 3865 
Q 3283 4019 3276 4240 
Q 3270 4461 3232 4553 
Q 3194 4646 3194 4688 
Q 3194 4730 3264 4730 
Q 3334 4730 3654 4595 
L 4602 4678 
Q 4634 4685 4659 4685 
Q 4685 4685 4710 4685 
Q 4838 4685 4902 4592 
Q 4966 4499 4966 4467 
L 4947 4365 
L 4902 3213 
L 4902 3194 
Q 4902 3130 4953 3107 
Q 5005 3085 5133 3085 
Q 5261 3085 5286 3091 
Q 5312 3098 5376 3107 
Q 5440 3117 5501 3139 
Q 5562 3162 5603 3162 
Q 5645 3162 5734 3104 
Q 5958 2950 5958 2842 
Q 5958 2765 5805 2752 
Q 5318 2656 4890 2714 
z
M 1056 704 
L 915 653 
Q 678 557 608 557 
Q 538 557 461 627 
Q 384 698 329 781 
Q 275 864 275 899 
Q 275 934 384 947 
Q 493 960 1056 1114 
L 1024 3898 
Q 1024 4019 969 4121 
Q 915 4224 915 4243 
Q 915 4301 1001 4301 
Q 1088 4301 1206 4256 
Q 1325 4211 1331 4205 
Q 1843 4422 2182 4691 
Q 2342 4819 2377 4908 
Q 2413 4998 2461 4998 
Q 2509 4998 2579 4931 
Q 2650 4864 2701 4777 
Q 2752 4691 2752 4633 
Q 2752 4576 2682 4525 
Q 2048 4115 1421 3910 
L 1427 3392 
L 2112 3443 
Q 2266 3456 2336 3488 
Q 2406 3520 2451 3520 
Q 2496 3520 2573 3465 
Q 2650 3411 2707 3340 
Q 2765 3270 2765 3226 
Q 2765 3142 2624 3130 
L 1427 3053 
L 1434 2483 
L 2112 2522 
Q 2246 2534 2320 2563 
Q 2394 2592 2442 2592 
Q 2490 2592 2566 2547 
Q 2765 2419 2765 2304 
Q 2765 2221 2624 2208 
L 1440 2131 
L 1446 1229 
Q 2074 1427 2771 1683 
Q 2867 1715 2940 1715 
Q 3014 1715 3014 1657 
Q 3014 1600 2880 1510 
Q 2426 1216 1446 851 
L 1459 -378 
Q 1459 -531 1338 -531 
Q 1235 -531 1123 -464 
Q 1011 -397 1011 -282 
L 1011 -250 
Q 1011 -230 1036 -96 
Q 1062 38 1062 224 
L 1056 704 
z
M 3232 2323 
L 5069 2413 
L 5139 2413 
Q 5267 2413 5340 2345 
Q 5414 2278 5414 2201 
Q 5414 2125 5139 1632 
Q 4864 1139 4422 710 
Q 5158 102 6067 -224 
Q 6195 -269 6195 -313 
Q 6195 -358 6124 -422 
Q 6054 -486 5971 -534 
Q 5888 -582 5859 -582 
Q 5830 -582 5673 -518 
Q 5517 -454 5274 -320 
Q 4666 0 4154 454 
Q 3443 -128 2701 -435 
Q 2400 -563 2301 -563 
Q 2202 -563 2202 -518 
Q 2202 -442 2387 -346 
Q 3206 96 3878 710 
Q 3462 1146 3308 1363 
Q 3155 1581 3155 1629 
Q 3155 1677 3228 1747 
Q 3302 1818 3363 1818 
Q 3424 1818 3494 1728 
Q 3776 1325 4147 960 
Q 4659 1498 4877 2054 
L 3475 1978 
L 3309 1971 
Q 3181 1971 3123 2016 
Q 2944 2182 2944 2323 
Q 2944 2355 2973 2355 
Q 3002 2355 3059 2339 
Q 3117 2323 3232 2323 
z
" transform="scale(0.015625)"/>
     </defs>
     <use xlink:href="#LXGWWenKai-Regular-8f68"/>
     <use xlink:href="#LXGWWenKai-Regular-8ff9" transform="translate(99.999985 0)"/>
     <use xlink:href="#LXGWWenKai-Regular-ff1a" transform="translate(199.999969 0)"/>
     <use xlink:href="#LXGWWenKai-Regular-7ebf" transform="translate(299.999954 0)"/>
     <use xlink:href="#LXGWWenKai-Regular-6bb5" transform="translate(399.999939 0)"/>
    </g>
   </g>
  </g>
  <g id="axes_3">
   <g id="line2d_7">
    <path d="M 652.161039 97.784416 
L 699.264935 97.784416 
" clip-path="url(#p4338df5686)" style="fill: none; stroke-dasharray: 9.25,4; stroke-dashoffset: 0; stroke: #e8927c; stroke-width: 2.5"/>
   </g>
   <g id="line2d_8">
    <path d="M 782.602597 97.784416 
L 735.498701 97.784416 
" clip-path="url(#p4338df5686)" style="fill: none; stroke-dasharray: 9.25,4; stroke-dashoffset: 0; stroke: #e8927c; stroke-width: 2.5"/>
   </g>
   <g id="line2d_9">
    <g clip-path="url(#p4338df5686)">
     <use xlink:href="#mef28f95321" x="652.161039" y="97.784416" style="fill: #5d4e37; stroke: #5d4e37"/>
     <use xlink:href="#mef28f95321" x="782.602597" y="97.784416" style="fill: #5d4e37; stroke: #5d4e37"/>
    </g>
   </g>
   <g id="text_5">
    <!-- 中间有缺口 -->
    <g style="fill: #5d4e37; opacity: 0.6" transform="translate(687.381818 90.537662) scale(0.12 -0.12)">
     <defs>
      <path id="LXGWWenKai-Regular-4e2d" d="M 2906 -467 
Q 2944 -198 2944 -26 
L 2950 1626 
L 1555 1568 
L 1574 1376 
L 1574 1357 
Q 1574 1235 1453 1235 
Q 1376 1235 1254 1292 
Q 1133 1350 1133 1485 
L 1133 1536 
Q 1146 1638 1146 1724 
Q 1146 1811 1133 1901 
L 1018 3296 
Q 1005 3501 931 3619 
Q 858 3738 858 3782 
Q 858 3827 947 3827 
Q 1037 3827 1376 3693 
L 2963 3789 
L 2970 4890 
Q 2970 5024 2922 5117 
Q 2874 5210 2874 5254 
Q 2874 5299 2922 5299 
Q 2970 5299 3078 5280 
Q 3392 5222 3392 5043 
L 3386 3814 
L 5114 3917 
Q 5158 3923 5197 3923 
L 5254 3923 
Q 5478 3923 5542 3750 
Q 5568 3686 5568 3651 
Q 5568 3616 5542 3574 
Q 5517 3533 5510 3488 
L 5331 2106 
Q 5510 1901 5510 1830 
Q 5510 1760 5446 1747 
Q 5382 1734 5293 1728 
L 3373 1645 
L 3360 -570 
Q 3360 -730 3232 -730 
Q 3091 -730 2998 -646 
Q 2906 -563 2906 -467 
z
M 5088 3533 
L 3386 3437 
L 3373 2016 
L 4934 2086 
L 5088 3533 
z
M 2963 3411 
L 1408 3322 
L 1530 1933 
L 2957 1997 
L 2963 3411 
z
" transform="scale(0.015625)"/>
      <path id="LXGWWenKai-Regular-95f4" d="M 2643 1139 
L 3795 1190 
L 3840 1990 
L 2611 1920 
L 2643 1139 
z
M 2598 2253 
L 3859 2323 
L 3904 3053 
L 2566 2976 
L 2598 2253 
z
M 2547 435 
Q 2522 435 2496 444 
Q 2470 454 2394 480 
Q 2266 525 2266 653 
L 2266 1062 
Q 2176 2995 2166 3100 
Q 2157 3206 2125 3280 
Q 2093 3354 2093 3395 
Q 2093 3437 2163 3437 
Q 2234 3437 2573 3341 
L 3987 3437 
Q 4147 3437 4249 3360 
Q 4352 3283 4352 3213 
L 4179 1197 
Q 4352 992 4352 931 
Q 4352 870 4285 857 
Q 4218 845 2656 774 
L 2662 563 
Q 2662 435 2547 435 
z
M 5590 -557 
Q 5478 -653 5408 -653 
Q 5338 -653 5120 -531 
Q 4902 -410 4528 -106 
Q 4154 198 4154 282 
Q 4154 333 4205 333 
Q 4256 333 4371 275 
Q 4787 58 5280 -96 
L 5331 4378 
L 3066 4230 
Q 2976 4211 2877 4211 
Q 2778 4211 2739 4256 
Q 2701 4301 2621 4419 
Q 2541 4538 2541 4598 
Q 2541 4659 2573 4659 
Q 2579 4659 2588 4652 
Q 2598 4646 2716 4630 
Q 2835 4614 2938 4614 
Q 5446 4774 5545 4774 
Q 5645 4774 5712 4694 
Q 5779 4614 5779 4563 
L 5747 4397 
L 5696 -109 
L 5702 -275 
Q 5702 -461 5590 -557 
z
M 2086 4022 
Q 1997 3917 1926 3917 
Q 1856 3917 1805 3987 
Q 1619 4288 1165 4800 
Q 1114 4864 1114 4931 
Q 1114 4998 1194 5056 
Q 1274 5114 1312 5114 
Q 1408 5114 1914 4550 
Q 2176 4262 2176 4154 
Q 2176 4128 2086 4022 
z
M 1165 -486 
Q 1120 -486 1030 -435 
Q 800 -320 800 -166 
Q 800 -128 825 16 
Q 851 160 851 301 
L 851 3430 
Q 851 3584 736 3738 
Q 704 3782 704 3795 
Q 704 3834 803 3834 
Q 902 3834 1049 3782 
Q 1197 3731 1232 3689 
Q 1267 3648 1267 3565 
L 1274 -326 
Q 1274 -486 1165 -486 
z
" transform="scale(0.015625)"/>
      <path id="LXGWWenKai-Regular-6709" d="M 2874 5037 
L 2874 5120 
Q 2874 5139 2867 5209 
Q 2861 5280 2918 5280 
Q 2957 5280 3059 5235 
Q 3354 5101 3354 4947 
Q 3354 4928 3270 4688 
Q 3187 4448 3014 4102 
L 5261 4230 
Q 5376 4243 5462 4268 
Q 5549 4294 5581 4294 
Q 5613 4294 5696 4250 
Q 5920 4128 5920 4006 
Q 5920 3923 5754 3910 
L 2835 3738 
Q 2675 3437 2419 3046 
L 2470 3027 
L 4486 3155 
L 4544 3155 
Q 4621 3155 4726 3094 
Q 4832 3034 4832 2925 
L 4813 2810 
L 4838 -134 
L 4845 -294 
Q 4845 -416 4758 -499 
Q 4672 -582 4601 -582 
Q 4531 -582 4326 -492 
Q 4122 -403 3792 -179 
Q 3462 45 3462 122 
Q 3462 166 3526 166 
Q 3590 166 3827 83 
Q 4064 0 4429 -83 
L 4422 922 
L 2438 826 
L 2426 -435 
Q 2426 -557 2298 -557 
Q 2272 -557 2192 -531 
Q 2112 -506 2045 -448 
Q 1978 -390 1978 -336 
Q 1978 -282 2003 -173 
Q 2029 -64 2029 102 
L 2061 2554 
Q 1606 1997 1043 1497 
Q 480 998 333 998 
Q 282 998 282 1049 
Q 282 1101 403 1222 
Q 1683 2445 2368 3712 
L 1024 3635 
L 902 3629 
Q 749 3629 691 3674 
Q 512 3853 512 3994 
Q 512 4032 541 4032 
Q 570 4032 653 4009 
Q 736 3987 883 3987 
L 915 3987 
L 2541 4077 
Q 2720 4429 2797 4704 
Q 2874 4979 2874 5037 
z
M 4410 2803 
L 2464 2688 
L 2458 2093 
L 4416 2195 
L 4410 2803 
z
M 4416 1862 
L 2451 1766 
L 2445 1152 
L 4422 1248 
L 4416 1862 
z
" transform="scale(0.015625)"/>
      <path id="LXGWWenKai-Regular-7f3a" d="M 3226 1773 
L 3123 1766 
Q 2989 1766 2925 1830 
Q 2861 1894 2809 2009 
Q 2758 2125 2758 2150 
Q 2758 2176 2780 2176 
Q 2803 2176 2870 2153 
Q 2938 2131 3066 2131 
L 3123 2131 
L 3859 2176 
Q 3955 2726 3981 3405 
L 3443 3373 
Q 3398 3366 3354 3366 
L 3283 3366 
Q 3181 3366 3142 3398 
Q 3002 3539 2970 3712 
Q 2963 3725 2963 3731 
Q 2963 3770 2992 3770 
Q 3021 3770 3078 3754 
Q 3136 3738 3258 3738 
L 3328 3738 
L 3987 3776 
L 3987 4038 
Q 3987 4768 3958 4883 
Q 3930 4998 3894 5062 
Q 3859 5126 3859 5152 
Q 3859 5210 3945 5210 
Q 4032 5210 4176 5158 
Q 4320 5107 4355 5049 
Q 4390 4992 4390 4634 
L 4390 4083 
Q 4390 3942 4384 3802 
L 5261 3859 
L 5280 3859 
Q 5338 3859 5437 3795 
Q 5536 3731 5536 3664 
Q 5536 3597 5517 3561 
Q 5498 3526 5485 3494 
L 5370 2266 
L 5645 2278 
Q 5741 2291 5801 2310 
Q 5862 2330 5891 2330 
Q 5920 2330 5990 2291 
Q 6170 2176 6170 2054 
Q 6170 1965 6035 1946 
L 4512 1862 
Q 4922 998 5658 307 
Q 5990 -13 6310 -237 
Q 6381 -288 6381 -323 
Q 6381 -358 6310 -419 
Q 6240 -480 6163 -525 
Q 6086 -570 6064 -570 
Q 6042 -570 5894 -461 
Q 5542 -198 5020 413 
Q 4499 1024 4179 1798 
Q 4013 806 3341 141 
Q 2944 -262 2528 -474 
Q 2381 -544 2339 -544 
Q 2298 -544 2298 -493 
Q 2298 -442 2419 -333 
Q 3584 646 3795 1824 
L 3226 1773 
z
M 1094 4787 
L 1069 4960 
Q 1069 5024 1142 5024 
Q 1216 5024 1306 4986 
Q 1542 4883 1542 4774 
Q 1542 4691 1449 4419 
Q 1357 4147 1203 3821 
L 2234 3891 
Q 2374 3910 2416 3923 
Q 2458 3936 2515 3936 
Q 2573 3936 2672 3843 
Q 2771 3750 2771 3683 
Q 2771 3616 2637 3603 
L 1818 3558 
L 1818 2605 
L 2483 2643 
Q 2534 2650 2585 2656 
Q 2637 2662 2672 2675 
Q 2707 2688 2745 2688 
Q 2784 2688 2848 2643 
Q 3014 2528 3014 2445 
Q 3014 2381 2886 2362 
L 1818 2291 
L 1811 736 
L 2342 838 
L 2349 1664 
Q 2349 1798 2294 1888 
Q 2240 1978 2240 2003 
Q 2240 2054 2355 2054 
Q 2470 2054 2592 1993 
Q 2714 1933 2714 1824 
L 2701 211 
Q 2701 90 2595 90 
Q 2490 90 2394 160 
Q 2298 230 2298 297 
Q 2298 365 2304 397 
Q 2317 429 2336 550 
L 992 218 
Q 928 198 886 176 
Q 845 154 787 154 
Q 730 154 646 230 
Q 563 307 563 397 
L 563 429 
Q 563 448 585 521 
Q 608 595 608 704 
L 621 1581 
Q 621 1709 569 1792 
Q 518 1875 518 1910 
Q 518 1946 620 1946 
Q 723 1946 890 1869 
Q 986 1824 986 1734 
L 986 1709 
L 947 570 
L 1446 666 
L 1453 2272 
L 691 2221 
L 550 2214 
Q 429 2214 352 2284 
Q 275 2355 240 2432 
Q 205 2509 205 2537 
Q 205 2566 240 2566 
Q 275 2566 329 2550 
Q 384 2534 506 2534 
L 576 2534 
L 1453 2586 
L 1459 3533 
L 1062 3514 
Q 838 3078 557 2726 
Q 474 2630 426 2630 
Q 378 2630 378 2684 
Q 378 2739 538 3068 
Q 698 3398 896 3977 
Q 1094 4557 1094 4787 
z
M 5094 3488 
L 4371 3437 
Q 4339 2701 4256 2195 
L 4998 2240 
L 5094 3488 
z
" transform="scale(0.015625)"/>
      <path id="LXGWWenKai-Regular-53e3" d="M 1408 461 
Q 1440 653 1440 730 
L 1440 845 
Q 1440 883 1434 922 
L 1286 3462 
Q 1274 3718 1210 3833 
Q 1146 3949 1146 3994 
Q 1146 4058 1238 4058 
Q 1331 4058 1696 3898 
L 4813 4058 
L 4851 4058 
Q 4986 4058 5082 3971 
Q 5178 3885 5178 3830 
Q 5178 3776 5162 3744 
Q 5146 3712 5139 3680 
L 4928 1114 
Q 5107 890 5107 819 
Q 5107 749 5049 739 
Q 4992 730 4902 723 
L 1875 634 
L 1894 358 
L 1894 326 
Q 1894 166 1798 166 
L 1702 198 
Q 1408 294 1408 461 
z
M 4685 3674 
L 1709 3520 
L 1856 1024 
L 4506 1094 
L 4685 3674 
z
" transform="scale(0.015625)"/>
     </defs>
     <use xlink:href="#LXGWWenKai-Regular-4e2d"/>
     <use xlink:href="#LXGWWenKai-Regular-95f4" transform="translate(99.999985 0)"/>
     <use xlink:href="#LXGWWenKai-Regular-6709" transform="translate(199.999969 0)"/>
     <use xlink:href="#LXGWWenKai-Regular-7f3a" transform="translate(299.999954 0)"/>
     <use xlink:href="#LXGWWenKai-Regular-53e3" transform="translate(399.999939 0)"/>
    </g>
   </g>
   <g id="text_6">
    <!-- $\times$ -->
    <g style="fill: #e8927c; opacity: 0.6" transform="translate(704.581818 112.107792) scale(0.4 -0.4)">
     <defs>
      <path id="STIXGeneral-Regular-d7" d="M 3821 141 
L 3526 -160 
L 2048 1312 
L 570 -160 
L 275 134 
L 1747 1613 
L 275 3091 
L 576 3386 
L 2048 1914 
L 3526 3386 
L 3821 3098 
L 2349 1613 
L 3821 141 
z
" transform="scale(0.015625)"/>
     </defs>
     <use xlink:href="#STIXGeneral-Regular-d7" transform="translate(0 0.09375)"/>
    </g>
   </g>
   <g id="text_7">
    <!-- $|M F_1| + |M F_2| &lt; |F_1 F_2|$ -->
    <g style="fill: #5d4e37" transform="translate(628.981818 148.511688) scale(0.2 -0.2)">
     <defs>
      <path id="STIXGeneral-Regular-3c" d="M 3974 -154 
L 358 1594 
L 358 1658 
L 3974 3418 
L 3974 3002 
L 1210 1626 
L 3974 250 
L 3974 -154 
z
" transform="scale(0.015625)"/>
     </defs>
     <use xlink:href="#STIXGeneral-Regular-7c" transform="translate(0 0.40625)"/>
     <use xlink:href="#STIXGeneral-Italic-4d" transform="translate(19.999985 0.40625)"/>
     <use xlink:href="#STIXGeneral-Italic-46" transform="translate(103.299973 0.40625)"/>
     <use xlink:href="#STIXGeneral-Regular-31" transform="translate(164.399963 -12.821875) scale(0.7)"/>
     <use xlink:href="#STIXGeneral-Regular-7c" transform="translate(203.809328 0.40625)"/>
     <use xlink:href="#STIXGeneral-Regular-2b" transform="translate(238.249309 0.40625)"/>
     <use xlink:href="#STIXGeneral-Regular-7c" transform="translate(321.18929 0.40625)"/>
     <use xlink:href="#STIXGeneral-Italic-4d" transform="translate(341.189275 0.40625)"/>
     <use xlink:href="#STIXGeneral-Italic-46" transform="translate(424.489262 0.40625)"/>
     <use xlink:href="#STIXGeneral-Regular-32" transform="translate(485.589253 -12.821875) scale(0.7)"/>
     <use xlink:href="#STIXGeneral-Regular-7c" transform="translate(524.998618 0.40625)"/>
     <use xlink:href="#STIXGeneral-Regular-3c" transform="translate(559.438599 0.40625)"/>
     <use xlink:href="#STIXGeneral-Regular-7c" transform="translate(642.37858 0.40625)"/>
     <use xlink:href="#STIXGeneral-Italic-46" transform="translate(662.378564 0.40625)"/>
     <use xlink:href="#STIXGeneral-Regular-31" transform="translate(723.478555 -12.821875) scale(0.7)"/>
     <use xlink:href="#STIXGeneral-Italic-46" transform="translate(762.88792 0.40625)"/>
     <use xlink:href="#STIXGeneral-Regular-32" transform="translate(823.98791 -12.821875) scale(0.7)"/>
     <use xlink:href="#STIXGeneral-Regular-7c" transform="translate(863.397275 0.40625)"/>
    </g>
   </g>
   <g id="text_8">
    <!-- 轨迹：不存在 -->
    <g style="fill: #e8927c" transform="translate(645.381818 170.251948) scale(0.24 -0.24)">
     <defs>
      <path id="LXGWWenKai-Regular-4e0d" d="M 672 4454 
Q 864 4416 992 4416 
L 1050 4416 
L 5082 4634 
Q 5242 4646 5309 4668 
Q 5376 4691 5414 4691 
Q 5453 4691 5542 4634 
Q 5760 4499 5760 4378 
Q 5760 4301 5600 4282 
L 3942 4192 
Q 3661 3667 3302 3162 
L 3309 -422 
Q 3309 -589 3174 -589 
Q 3130 -589 3043 -553 
Q 2957 -518 2886 -444 
Q 2816 -371 2816 -300 
Q 2816 -230 2841 -115 
Q 2867 0 2867 173 
L 2867 2611 
Q 2170 1818 1312 1248 
Q 947 1005 694 877 
Q 442 749 374 749 
Q 307 749 307 794 
Q 307 858 429 941 
Q 1952 2016 2854 3283 
Q 2829 3373 2774 3440 
Q 2720 3507 2720 3526 
Q 2720 3571 2813 3571 
Q 2906 3571 3027 3533 
Q 3168 3744 3405 4166 
L 1184 4045 
Q 1146 4038 1114 4038 
L 1011 4038 
Q 941 4038 825 4089 
Q 710 4141 640 4378 
Q 634 4390 634 4410 
Q 634 4454 672 4454 
z
M 5753 1049 
Q 5702 992 5632 992 
Q 5562 992 5491 1056 
Q 4550 1843 3731 2336 
Q 3635 2394 3635 2454 
Q 3635 2515 3696 2611 
Q 3757 2707 3821 2707 
Q 3885 2707 4160 2541 
Q 4896 2099 5754 1446 
Q 5856 1370 5856 1312 
Q 5856 1254 5830 1180 
Q 5805 1107 5753 1049 
z
" transform="scale(0.015625)"/>
      <path id="LXGWWenKai-Regular-5b58" d="M 3142 5142 
Q 3245 5094 3328 5024 
Q 3411 4954 3411 4890 
Q 3411 4826 3110 4224 
L 4992 4333 
Q 5120 4339 5203 4368 
Q 5286 4397 5350 4397 
Q 5414 4397 5491 4339 
Q 5670 4192 5670 4102 
Q 5670 4026 5517 4013 
L 2912 3866 
Q 2490 3078 1933 2419 
L 1926 -461 
Q 1926 -595 1818 -595 
L 1728 -576 
Q 1472 -499 1472 -358 
Q 1472 -326 1494 -227 
Q 1517 -128 1517 90 
L 1536 2010 
Q 954 1453 474 1146 
Q 333 1056 278 1056 
Q 224 1056 224 1117 
Q 224 1178 461 1382 
Q 1037 1894 1542 2509 
Q 1542 2662 1488 2752 
Q 1434 2842 1434 2880 
Q 1434 2918 1507 2918 
Q 1581 2918 1805 2835 
Q 2112 3245 2426 3840 
L 1242 3770 
L 1082 3763 
Q 941 3763 870 3849 
Q 800 3936 774 4019 
L 749 4102 
Q 749 4141 781 4141 
Q 813 4141 867 4125 
Q 922 4109 1030 4109 
L 2630 4198 
Q 2931 4736 2931 4986 
L 2918 5094 
L 2918 5114 
Q 2918 5190 2979 5190 
Q 3040 5190 3142 5142 
z
M 2566 1293 
L 2419 1286 
Q 2278 1286 2227 1338 
Q 2048 1517 2048 1632 
Q 2048 1670 2080 1670 
Q 2112 1670 2179 1648 
Q 2246 1626 2394 1626 
L 2438 1626 
L 3910 1696 
Q 3821 1990 3753 2115 
Q 3686 2240 3686 2294 
Q 3686 2349 3772 2393 
Q 3859 2438 3898 2438 
Q 3974 2438 4045 2310 
Q 4390 2611 4659 2989 
L 3226 2880 
Q 3181 2874 3136 2874 
L 3059 2874 
Q 2925 2874 2893 2906 
Q 2707 3091 2707 3213 
Q 2707 3258 2758 3258 
Q 2784 3258 2841 3242 
Q 2899 3226 3040 3226 
L 3110 3226 
L 4870 3347 
L 4934 3347 
Q 5018 3347 5110 3286 
Q 5203 3226 5203 3155 
Q 5203 3085 5161 3046 
Q 5120 3008 5088 2970 
Q 4755 2496 4198 2010 
Q 4256 1862 4294 1715 
L 5459 1766 
Q 5638 1786 5702 1808 
Q 5766 1830 5817 1830 
Q 5869 1830 6006 1724 
Q 6144 1619 6144 1530 
Q 6144 1466 5978 1453 
L 4371 1376 
Q 4435 992 4435 598 
Q 4435 205 4412 -57 
Q 4390 -320 4316 -486 
Q 4243 -653 4083 -653 
Q 3853 -653 3270 -205 
Q 2938 45 2938 141 
Q 2938 179 2998 179 
Q 3059 179 3308 64 
Q 3558 -51 3747 -105 
Q 3936 -160 3961 -160 
Q 3987 -160 4019 70 
Q 4051 301 4051 646 
Q 4051 992 3987 1363 
L 2566 1293 
z
" transform="scale(0.015625)"/>
      <path id="LXGWWenKai-Regular-5728" d="M 2874 5030 
Q 2874 5107 2867 5171 
Q 2861 5235 2912 5235 
Q 2938 5235 3040 5197 
Q 3334 5088 3334 4954 
Q 3334 4934 3232 4649 
Q 3130 4365 2944 3987 
L 4979 4115 
Q 5197 4134 5261 4153 
Q 5325 4173 5363 4173 
Q 5402 4173 5491 4122 
Q 5734 3994 5734 3872 
Q 5734 3789 5613 3776 
L 2752 3603 
Q 2394 2925 1914 2298 
L 1894 -416 
Q 1894 -582 1786 -582 
Q 1709 -582 1587 -515 
Q 1466 -448 1466 -333 
Q 1504 -26 1504 218 
L 1523 1837 
Q 1261 1542 947 1286 
Q 378 819 218 819 
Q 179 819 179 864 
Q 179 909 403 1101 
Q 627 1293 937 1635 
Q 1248 1978 1530 2362 
L 1536 2605 
Q 1536 2701 1485 2800 
Q 1434 2899 1434 2937 
Q 1434 2976 1485 2976 
Q 1536 2976 1587 2970 
L 1696 2944 
Q 1830 2931 1888 2874 
Q 2150 3290 2304 3578 
L 1376 3520 
Q 1261 3507 1158 3507 
Q 1056 3507 957 3555 
Q 858 3603 768 3827 
Q 762 3840 762 3866 
Q 762 3910 813 3910 
Q 973 3878 1146 3878 
L 1229 3878 
L 2496 3955 
Q 2874 4806 2874 5030 
z
M 5376 384 
Q 5446 390 5491 393 
Q 5536 397 5722 429 
Q 5830 429 6003 243 
Q 6074 173 6074 122 
Q 6074 32 5920 19 
L 2464 -115 
L 2355 -115 
Q 2157 -115 2099 -38 
Q 1946 141 1946 282 
Q 1946 314 1968 314 
Q 1990 314 2073 282 
Q 2157 250 2304 250 
L 2336 250 
L 3597 307 
L 3610 1728 
L 2835 1683 
L 2714 1677 
Q 2541 1677 2486 1737 
Q 2432 1798 2374 1904 
Q 2317 2010 2317 2054 
Q 2317 2099 2339 2099 
Q 2362 2099 2445 2067 
Q 2528 2035 2675 2035 
L 2707 2035 
L 3610 2099 
L 3616 3104 
Q 3616 3290 3539 3418 
Q 3526 3437 3526 3465 
Q 3526 3494 3596 3494 
Q 3667 3494 3808 3440 
Q 3949 3386 3984 3344 
Q 4019 3302 4019 3213 
L 4013 2131 
L 4730 2182 
Q 4800 2189 4877 2192 
Q 4954 2195 5002 2211 
Q 5050 2227 5088 2227 
Q 5126 2227 5206 2176 
Q 5286 2125 5353 2051 
Q 5421 1978 5421 1926 
Q 5421 1843 5274 1830 
L 4006 1754 
L 3994 320 
L 5376 384 
z
" transform="scale(0.015625)"/>
     </defs>
     <use xlink:href="#LXGWWenKai-Regular-8f68"/>
     <use xlink:href="#LXGWWenKai-Regular-8ff9" transform="translate(99.999985 0)"/>
     <use xlink:href="#LXGWWenKai-Regular-ff1a" transform="translate(199.999969 0)"/>
     <use xlink:href="#LXGWWenKai-Regular-4e0d" transform="translate(299.999954 0)"/>
     <use xlink:href="#LXGWWenKai-Regular-5b58" transform="translate(399.999939 0)"/>
     <use xlink:href="#LXGWWenKai-Regular-5728" transform="translate(499.999924 0)"/>
    </g>
   </g>
  </g>
 </g>
 <defs>
  <clipPath id="p6fcdae3104">
   <rect x="7.2" y="7.2" width="253.636364" height="170.298701"/>
  </clipPath>
  <clipPath id="pae39436af5">
   <rect x="298.881818" y="7.2" width="253.636364" height="170.298701"/>
  </clipPath>
  <clipPath id="p4338df5686">
   <rect x="590.563636" y="7.2" width="253.636364" height="170.298701"/>
  </clipPath>
 </defs>
</svg>
