<?xml version="1.0" encoding="utf-8" standalone="no"?>
<!DOCTYPE svg PUBLIC "-//W3C//DTD SVG 1.1//EN"
  "http://www.w3.org/Graphics/SVG/1.1/DTD/svg11.dtd">
<svg xmlns:xlink="http://www.w3.org/1999/xlink" width="1044pt" height="233.279228pt" viewBox="0 0 1044 233.279228" xmlns="http://www.w3.org/2000/svg" version="1.1">
 <metadata>
  <rdf:RDF xmlns:dc="http://purl.org/dc/elements/1.1/" xmlns:cc="http://creativecommons.org/ns#" xmlns:rdf="http://www.w3.org/1999/02/22-rdf-syntax-ns#">
   <cc:Work>
    <dc:type rdf:resource="http://purl.org/dc/dcmitype/StillImage"/>
    <dc:date>2026-02-13T11:16:08.957915</dc:date>
    <dc:format>image/svg+xml</dc:format>
    <dc:creator>
     <cc:Agent>
      <dc:title>Matplotlib v3.10.8, https://matplotlib.org/</dc:title>
     </cc:Agent>
    </dc:creator>
   </cc:Work>
  </rdf:RDF>
 </metadata>
 <defs>
  <style type="text/css">*{stroke-linejoin: round; stroke-linecap: butt}</style>
 </defs>
 <g id="figure_1">
  <g id="patch_1">
   <path d="M 0 233.279228 
L 1044 233.279228 
L 1044 0 
L 0 0 
z
" style="fill: #fefdf5"/>
  </g>
  <g id="axes_1">
   <g id="patch_2">
    <path d="M 165.6 219.61876 
C 195.926754 219.61876 225.015486 210.638005 246.45974 194.654402 
C 267.903994 178.670799 279.952941 156.989338 279.952941 134.38511 
C 279.952941 111.780882 267.903994 90.099421 246.45974 74.115818 
C 225.015486 58.132215 195.926754 49.15146 165.6 49.15146 
C 135.273246 49.15146 106.184514 58.132215 84.74026 74.115818 
C 63.296006 90.099421 51.247059 111.780882 51.247059 134.38511 
C 51.247059 156.989338 63.296006 178.670799 84.74026 194.654402 
C 106.184514 210.638005 135.273246 219.61876 165.6 219.61876 
L 165.6 219.61876 
z
" clip-path="url(#pfcf3a3cde0)" style="fill: none; opacity: 0.15; stroke-dasharray: 3.7,1.6; stroke-dashoffset: 0; stroke: #e8927c; stroke-linejoin: miter"/>
   </g>
   <g id="line2d_1">
    <defs>
     <path id="m1ae49b012e" d="M 0 3.5 
C 0.928211 3.5 1.81853 3.131218 2.474874 2.474874 
C 3.131218 1.81853 3.5 0.928211 3.5 0 
C 3.5 -0.928211 3.131218 -1.81853 2.474874 -2.474874 
C 1.81853 -3.131218 0.928211 -3.5 0 -3.5 
C -0.928211 -3.5 -1.81853 -3.131218 -2.474874 -2.474874 
C -3.131218 -1.81853 -3.5 -0.928211 -3.5 0 
C -3.5 0.928211 -3.131218 1.81853 -2.474874 2.474874 
C -1.81853 3.131218 -0.928211 3.5 0 3.5 
z
" style="stroke: #5d4e37"/>
    </defs>
    <g clip-path="url(#pfcf3a3cde0)">
     <use xlink:href="#m1ae49b012e" x="89.364706" y="134.38511" style="fill: #5d4e37; stroke: #5d4e37"/>
     <use xlink:href="#m1ae49b012e" x="241.835294" y="134.38511" style="fill: #5d4e37; stroke: #5d4e37"/>
     <use xlink:href="#m1ae49b012e" x="203.717647" y="54.026054" style="fill: #5d4e37; stroke: #5d4e37"/>
    </g>
   </g>
   <g id="line2d_2">
    <path d="M 89.364706 134.38511 
L 203.717647 54.026054 
L 241.835294 134.38511 
" clip-path="url(#pfcf3a3cde0)" style="fill: none; stroke: #e8927c; stroke-width: 4; stroke-linecap: square"/>
   </g>
   <g id="text_1">
    <!-- $F_1$ -->
    <g transform="translate(78.254706 153.443934) scale(0.22 -0.22)">
     <defs>
      <path id="STIXGeneral-Italic-46" d="M 4128 4179 
L 3923 3194 
L 3789 3206 
Q 3808 3347 3808 3418 
Q 3808 3667 3718 3772 
Q 3629 3878 3373 3923 
Q 3117 3968 2534 3968 
Q 2310 3968 2220 3926 
Q 2131 3885 2099 3763 
L 1690 2310 
Q 2003 2317 2147 2317 
Q 2291 2317 2457 2345 
Q 2624 2374 2678 2396 
Q 2733 2419 2822 2505 
Q 2912 2592 2950 2665 
Q 2989 2739 3072 2912 
L 3187 2880 
L 2701 1376 
L 2592 1408 
Q 2643 1670 2643 1798 
Q 2643 1978 2531 2029 
Q 2419 2080 2163 2080 
Q 1984 2080 1632 2099 
L 1254 736 
Q 1165 416 1165 352 
Q 1165 237 1273 179 
Q 1382 122 1658 102 
L 1658 0 
L 51 0 
L 51 102 
Q 314 122 410 224 
Q 506 326 582 602 
L 1370 3430 
Q 1434 3661 1434 3821 
Q 1434 3955 1347 4003 
Q 1261 4051 947 4077 
L 947 4179 
L 4128 4179 
z
" transform="scale(0.015625)"/>
      <path id="STIXGeneral-Regular-31" d="M 2522 0 
L 755 0 
L 755 96 
Q 1107 115 1235 227 
Q 1363 339 1363 608 
L 1363 3482 
Q 1363 3795 1171 3795 
Q 1082 3795 883 3718 
L 710 3654 
L 710 3744 
L 1856 4326 
L 1914 4307 
L 1914 486 
Q 1914 275 2042 185 
Q 2170 96 2522 96 
L 2522 0 
z
" transform="scale(0.015625)"/>
     </defs>
     <use xlink:href="#STIXGeneral-Italic-46" transform="translate(0 0.703125)"/>
     <use xlink:href="#STIXGeneral-Regular-31" transform="translate(61.099991 -12.525) scale(0.7)"/>
    </g>
   </g>
   <g id="text_2">
    <!-- $F_2$ -->
    <g transform="translate(230.725294 153.443934) scale(0.22 -0.22)">
     <defs>
      <path id="STIXGeneral-Regular-32" d="M 3034 877 
L 2688 0 
L 186 0 
L 186 77 
L 1325 1286 
Q 1773 1754 1965 2144 
Q 2157 2534 2157 2950 
Q 2157 3379 1920 3616 
Q 1683 3853 1267 3853 
Q 922 3853 720 3673 
Q 518 3494 326 3021 
L 192 3053 
Q 301 3648 630 3987 
Q 960 4326 1523 4326 
Q 2054 4326 2380 4006 
Q 2707 3686 2707 3200 
Q 2707 2477 1888 1613 
L 832 486 
L 2330 486 
Q 2541 486 2665 569 
Q 2790 653 2944 915 
L 3034 877 
z
" transform="scale(0.015625)"/>
     </defs>
     <use xlink:href="#STIXGeneral-Italic-46" transform="translate(0 0.703125)"/>
     <use xlink:href="#STIXGeneral-Regular-32" transform="translate(61.099991 -12.525) scale(0.7)"/>
    </g>
   </g>
   <g id="text_3">
    <!-- $M$ -->
    <g style="fill: #e8927c" transform="translate(203.717647 44.496643) scale(0.24 -0.24)">
     <defs>
      <path id="STIXGeneral-Italic-4d" d="M 5581 4179 
L 5581 4077 
Q 5318 4032 5225 3945 
Q 5133 3859 5062 3603 
L 4275 768 
Q 4186 448 4186 371 
Q 4186 243 4301 176 
Q 4416 109 4704 102 
L 4698 0 
L 2963 0 
L 2963 102 
Q 3277 134 3405 243 
Q 3533 352 3616 653 
L 4422 3590 
L 2016 0 
L 1907 0 
L 1510 3494 
L 755 755 
Q 698 550 698 410 
Q 698 134 1146 102 
L 1146 0 
L -115 0 
L -115 102 
Q 141 134 259 284 
Q 378 435 525 960 
L 1254 3526 
Q 1331 3789 1331 3859 
Q 1331 4051 858 4077 
L 858 4179 
L 2016 4179 
L 2374 1030 
L 4518 4179 
L 5581 4179 
z
" transform="scale(0.015625)"/>
     </defs>
     <use xlink:href="#STIXGeneral-Italic-4d" transform="translate(0 0.703125)"/>
    </g>
   </g>
   <g id="text_4">
    <!-- 绳子够长：拉得起 -->
    <g style="fill: #5d4e37" transform="translate(53.6 24.796875) scale(0.28 -0.28)">
     <defs>
      <path id="LXGWWenKai-Regular-7ef3" d="M 1741 1766 
Q 2035 1818 2182 1846 
Q 2330 1875 2413 1868 
Q 2496 1862 2490 1811 
Q 2483 1722 2092 1558 
Q 1702 1395 1321 1286 
Q 941 1178 880 1184 
Q 819 1190 781 1229 
Q 672 1376 643 1481 
Q 614 1587 614 1600 
Q 621 1658 678 1651 
L 762 1645 
Q 890 1632 1011 1638 
Q 1222 1997 1414 2342 
L 1510 2515 
Q 1050 2867 595 3085 
Q 499 3136 486 3187 
Q 474 3238 512 3337 
Q 550 3437 608 3449 
Q 666 3462 774 3418 
Q 800 3405 819 3398 
Q 1318 4186 1421 4480 
Q 1530 4774 1530 4915 
L 1530 4979 
Q 1530 5050 1581 5050 
Q 1606 5050 1690 4998 
Q 1914 4851 1914 4717 
Q 1875 4557 1690 4186 
Q 1510 3840 1114 3226 
L 1254 3142 
Q 1523 2976 1702 2848 
Q 2048 3482 2086 3661 
Q 2093 3718 2099 3814 
Q 2106 3910 2138 3910 
Q 2170 3910 2246 3859 
Q 2464 3718 2470 3578 
Q 2470 3533 2451 3488 
Q 1958 2547 1434 1709 
Q 1574 1741 1741 1766 
z
M 1408 563 
Q 1888 781 2169 925 
Q 2451 1069 2502 1075 
Q 2554 1082 2554 1062 
Q 2566 922 1740 378 
Q 915 -166 768 -179 
Q 730 -186 656 -109 
Q 582 -32 528 64 
Q 474 160 467 211 
Q 467 237 525 243 
L 582 250 
Q 666 256 832 314 
L 1408 563 
z
M 3962 1926 
L 3962 2438 
L 3066 2394 
L 3098 1882 
L 3962 1926 
z
M 3955 1069 
L 3962 1638 
L 3117 1606 
L 3155 1030 
L 3955 1069 
z
M 5293 1997 
L 5350 2509 
L 4307 2458 
L 4307 1946 
L 5293 1997 
z
M 5197 1120 
L 5261 1696 
L 4307 1658 
L 4301 1082 
L 5197 1120 
z
M 4838 4461 
L 3341 4358 
L 3443 3571 
L 4710 3648 
L 4838 4461 
z
M 2816 4761 
Q 2816 4800 2909 4800 
Q 3002 4800 3315 4691 
L 4909 4806 
L 4986 4806 
Q 5094 4806 5193 4723 
Q 5293 4640 5293 4579 
Q 5293 4518 5270 4489 
Q 5248 4461 5242 4429 
L 5075 3674 
Q 5261 3469 5261 3421 
Q 5261 3373 5213 3360 
Q 5165 3347 5088 3341 
L 4314 3296 
L 4307 2752 
L 5414 2810 
L 5459 2810 
Q 5568 2810 5664 2742 
Q 5760 2675 5760 2608 
Q 5760 2541 5737 2499 
Q 5715 2458 5709 2426 
L 5530 1139 
Q 5702 986 5702 902 
Q 5702 838 5542 826 
L 4301 774 
L 4301 365 
Q 4301 237 4339 166 
Q 4448 -32 5638 90 
Q 5722 96 5786 147 
Q 5920 269 6022 877 
Q 6080 1190 6166 1190 
Q 6253 1190 6253 816 
Q 6253 442 6217 208 
Q 6182 -26 6067 -122 
Q 5862 -301 4973 -301 
Q 4614 -301 4384 -262 
Q 4154 -224 4051 -93 
Q 3949 38 3949 307 
L 3955 762 
L 3174 730 
L 3187 589 
L 3187 570 
Q 3187 474 3098 474 
Q 3053 474 2960 512 
Q 2867 550 2841 611 
Q 2816 672 2816 819 
Q 2816 966 2797 1178 
L 2733 2266 
Q 2720 2509 2656 2621 
Q 2592 2733 2592 2765 
Q 2592 2797 2681 2797 
Q 2771 2797 3059 2682 
L 3968 2733 
L 3968 3277 
L 3469 3251 
L 3482 3136 
L 3482 3104 
Q 3482 2982 3386 2982 
Q 3347 2982 3267 3014 
Q 3187 3046 3123 3107 
Q 3059 3168 3059 3245 
L 3059 3277 
Q 3072 3341 3072 3427 
Q 3072 3514 3059 3603 
L 2957 4326 
Q 2944 4506 2880 4614 
Q 2816 4723 2816 4761 
z
" transform="scale(0.015625)"/>
      <path id="LXGWWenKai-Regular-5b50" d="M 6214 2394 
Q 6214 2304 6067 2291 
L 6054 2291 
L 3507 2150 
Q 3610 1408 3610 653 
L 3603 371 
Q 3590 -250 3456 -506 
Q 3386 -653 3264 -653 
Q 2963 -653 2182 -51 
Q 1741 301 1741 422 
Q 1741 461 1805 461 
Q 1869 461 2240 256 
Q 2611 51 3078 -122 
L 3091 -122 
Q 3130 -122 3130 -83 
Q 3194 326 3194 966 
Q 3194 1606 3110 2131 
L 736 2003 
Q 691 1997 646 1997 
L 570 1997 
Q 435 1997 403 2029 
Q 218 2214 218 2362 
Q 218 2406 269 2406 
Q 294 2406 352 2390 
Q 410 2374 550 2374 
L 621 2374 
L 3046 2509 
Q 2950 2918 2864 3065 
Q 2778 3213 2778 3264 
Q 2778 3360 2982 3418 
L 3046 3430 
Q 3123 3430 3187 3315 
Q 3923 3885 4275 4352 
L 1907 4179 
Q 1779 4166 1689 4166 
Q 1600 4166 1536 4224 
Q 1357 4397 1357 4538 
Q 1357 4576 1392 4576 
Q 1427 4576 1484 4560 
Q 1542 4544 1664 4544 
L 4531 4749 
L 4614 4755 
Q 4704 4755 4819 4668 
Q 4934 4582 4934 4508 
Q 4934 4435 4880 4396 
Q 4826 4358 4794 4326 
Q 4122 3571 3334 2970 
Q 3392 2771 3443 2534 
L 5421 2643 
Q 5606 2656 5699 2685 
Q 5792 2714 5853 2714 
Q 5914 2714 6003 2656 
Q 6093 2598 6153 2521 
Q 6214 2445 6214 2394 
z
" transform="scale(0.015625)"/>
      <path id="LXGWWenKai-Regular-591f" d="M 4822 2838 
Q 4909 2778 4969 2704 
Q 5030 2630 5030 2592 
Q 5030 2554 4813 2227 
L 5645 2291 
L 5664 2291 
Q 5811 2291 5904 2179 
Q 5997 2067 5997 2012 
Q 5997 1958 5955 1910 
Q 5914 1862 5894 1824 
Q 5165 608 4250 -13 
Q 3770 -333 3149 -570 
Q 3091 -589 3027 -589 
Q 2963 -589 2963 -547 
Q 2963 -506 3078 -442 
Q 3955 96 4518 659 
Q 4314 947 4179 1078 
Q 4045 1210 4045 1248 
Q 4045 1286 4105 1366 
Q 4166 1446 4230 1446 
Q 4294 1446 4378 1370 
Q 4499 1242 4698 992 
L 4768 915 
Q 5062 1242 5485 1920 
L 4525 1869 
Q 3974 1293 3456 998 
Q 3258 890 3194 890 
Q 3130 890 3130 925 
Q 3130 960 3213 1030 
Q 3437 1203 3744 1523 
Q 4589 2406 4589 2765 
L 4589 2810 
Q 4589 2899 4678 2899 
Q 4736 2899 4822 2838 
z
M 4320 4134 
Q 3885 3635 3443 3418 
Q 3283 3341 3235 3341 
Q 3187 3341 3187 3366 
Q 3187 3405 3264 3475 
Q 3341 3546 3549 3750 
Q 3757 3955 4064 4358 
Q 4371 4762 4371 5018 
L 4371 5050 
Q 4371 5146 4454 5146 
Q 4563 5146 4730 4960 
Q 4794 4890 4794 4851 
Q 4794 4813 4726 4704 
Q 4659 4595 4602 4499 
L 5395 4582 
L 5414 4582 
Q 5568 4582 5657 4470 
Q 5747 4358 5747 4304 
Q 5747 4250 5708 4202 
Q 5670 4154 5645 4115 
Q 5210 3379 4634 2912 
Q 4058 2445 3270 2144 
Q 3200 2118 3139 2118 
Q 3078 2118 3078 2150 
Q 3078 2195 3194 2272 
Q 3821 2650 4262 3027 
Q 4058 3328 3952 3424 
Q 3846 3520 3846 3558 
Q 3878 3648 3916 3696 
Q 3955 3744 4022 3744 
Q 4090 3744 4256 3571 
Q 4422 3398 4518 3258 
Q 4922 3648 5235 4211 
L 4320 4134 
z
M 1843 2458 
L 1133 2413 
L 1203 1530 
L 1760 1562 
L 1843 2458 
z
M 691 2694 
Q 672 2746 672 2790 
Q 672 2835 787 2835 
Q 902 2835 1133 2714 
L 1939 2765 
L 1984 2765 
Q 2157 2765 2227 2624 
Q 2246 2586 2246 2538 
Q 2246 2490 2208 2432 
L 2099 1581 
Q 2240 1440 2240 1360 
Q 2240 1280 2099 1267 
L 1222 1222 
L 1242 1011 
L 1242 992 
Q 1242 890 1146 890 
Q 1139 890 1068 909 
Q 998 928 934 979 
Q 870 1030 870 1114 
L 877 1190 
L 877 1421 
Q 877 1472 870 1530 
L 800 2278 
Q 787 2483 691 2694 
z
M 3053 3795 
L 3040 3654 
Q 3027 1818 2822 429 
Q 2790 -13 2656 -262 
Q 2579 -410 2432 -410 
Q 2285 -410 2035 -230 
Q 1786 -51 1658 67 
Q 1530 186 1446 285 
Q 1363 384 1363 429 
Q 1363 474 1430 474 
Q 1498 474 1722 342 
Q 1946 211 2310 90 
Q 2362 90 2445 614 
Q 2656 1869 2656 3558 
L 2656 3642 
L 1101 3539 
Q 800 3014 493 2694 
Q 358 2554 297 2554 
Q 237 2554 237 2595 
Q 237 2637 314 2778 
Q 666 3347 947 4073 
Q 1229 4800 1229 4992 
L 1229 5056 
L 1222 5101 
Q 1222 5171 1299 5171 
Q 1376 5171 1581 4992 
Q 1664 4915 1664 4864 
Q 1664 4730 1293 3910 
L 2784 4006 
L 2816 4006 
Q 2880 4006 2966 3945 
Q 3053 3885 3053 3795 
z
" transform="scale(0.015625)"/>
      <path id="LXGWWenKai-Regular-957f" d="M 4691 4813 
Q 4813 4787 4960 4550 
Q 5018 4461 5005 4403 
Q 4986 4288 4522 3965 
Q 4058 3642 3539 3392 
Q 2899 3066 2656 3110 
Q 2592 3117 2598 3162 
Q 2611 3232 2739 3299 
Q 2867 3366 3264 3596 
Q 3661 3827 4102 4150 
Q 4544 4474 4595 4704 
Q 4634 4819 4691 4813 
z
M 5510 2848 
Q 5574 2867 5612 2867 
Q 5651 2867 5728 2822 
Q 5946 2688 5946 2573 
Q 5946 2470 5779 2464 
L 3379 2342 
Q 3674 1837 4096 1402 
Q 4954 506 6022 109 
Q 6170 58 6170 0 
Q 6170 -26 6099 -109 
Q 5939 -326 5798 -326 
L 5779 -326 
Q 5094 -58 4333 576 
Q 3494 1274 2912 2317 
L 2285 2285 
L 2278 250 
Q 2925 544 3322 781 
Q 3437 851 3501 844 
Q 3565 838 3565 794 
Q 3565 672 3219 429 
Q 2669 38 2253 -195 
Q 1837 -429 1680 -499 
Q 1523 -570 1465 -563 
Q 1408 -557 1334 -509 
Q 1261 -461 1171 -345 
Q 1082 -230 1082 -182 
Q 1082 -134 1248 -124 
Q 1414 -115 1818 64 
L 1875 90 
L 1875 2266 
L 742 2208 
Q 634 2202 589 2240 
Q 410 2400 410 2554 
Q 410 2605 461 2605 
Q 499 2605 547 2589 
Q 595 2573 710 2573 
Q 1338 2605 1882 2630 
L 1882 4576 
Q 1882 4762 1773 4915 
Q 1741 4966 1741 4998 
Q 1741 5030 1824 5030 
Q 1907 5030 2061 4979 
Q 2291 4902 2291 4774 
L 2285 2650 
Q 5389 2810 5510 2848 
z
" transform="scale(0.015625)"/>
      <path id="LXGWWenKai-Regular-ff1a" d="M 1574 646 
Q 1709 646 1814 515 
Q 1920 384 1920 253 
Q 1920 122 1840 38 
Q 1760 -45 1606 -45 
Q 1453 -45 1350 86 
Q 1248 218 1248 355 
Q 1248 493 1344 569 
Q 1440 646 1574 646 
z
M 1574 3021 
Q 1709 3021 1814 2889 
Q 1920 2758 1920 2627 
Q 1920 2496 1840 2413 
Q 1760 2330 1606 2330 
Q 1453 2330 1350 2461 
Q 1248 2592 1248 2729 
Q 1248 2867 1344 2944 
Q 1440 3021 1574 3021 
z
" transform="scale(0.015625)"/>
      <path id="LXGWWenKai-Regular-62c9" d="M 1824 128 
L 1837 -134 
Q 1837 -301 1725 -400 
Q 1613 -499 1529 -499 
Q 1446 -499 1276 -387 
Q 1107 -275 838 6 
Q 570 288 570 349 
Q 570 410 621 410 
Q 691 410 896 275 
Q 1101 141 1440 6 
L 1446 1690 
L 1114 1523 
Q 704 1312 621 1312 
Q 538 1312 448 1392 
Q 358 1472 297 1555 
Q 237 1638 237 1651 
Q 237 1690 314 1696 
Q 563 1715 1453 2074 
L 1459 3258 
L 941 3213 
Q 864 3206 800 3200 
Q 736 3194 665 3194 
Q 595 3194 518 3270 
Q 442 3347 410 3433 
Q 378 3520 378 3545 
Q 378 3571 422 3571 
L 442 3571 
Q 538 3552 602 3552 
L 717 3552 
Q 762 3552 813 3558 
L 1459 3603 
L 1466 4672 
Q 1466 4858 1357 5018 
Q 1338 5056 1338 5075 
Q 1338 5114 1395 5114 
Q 1453 5114 1562 5082 
Q 1856 5005 1856 4845 
L 1850 3635 
L 2035 3648 
Q 2125 3654 2214 3692 
Q 2304 3731 2342 3731 
Q 2381 3731 2464 3680 
Q 2682 3546 2682 3430 
Q 2682 3354 2522 3341 
L 1843 3290 
L 1837 2240 
Q 2022 2323 2211 2406 
Q 2400 2490 2586 2586 
Q 2662 2618 2713 2618 
Q 2765 2618 2765 2573 
Q 2765 2528 2681 2454 
Q 2598 2381 1837 1914 
L 1824 128 
z
M 3309 3155 
Q 3258 3149 3213 3149 
L 3123 3149 
Q 2995 3149 2963 3177 
Q 2931 3206 2838 3299 
Q 2746 3392 2746 3469 
Q 2746 3546 2778 3546 
Q 2810 3546 2880 3530 
Q 2950 3514 3091 3514 
L 3174 3514 
L 4019 3558 
L 4000 4595 
Q 4000 4736 3885 4909 
Q 3866 4941 3866 4960 
Q 3866 5011 3968 5011 
Q 4070 5011 4214 4963 
Q 4358 4915 4390 4873 
Q 4422 4832 4422 4768 
L 4416 3584 
L 5222 3629 
Q 5370 3642 5456 3670 
Q 5542 3699 5564 3699 
Q 5587 3699 5677 3648 
Q 5926 3507 5926 3386 
Q 5926 3315 5779 3296 
L 3309 3155 
z
M 5318 2784 
Q 5114 1562 4640 288 
L 5555 320 
Q 5754 339 5805 355 
Q 5856 371 5904 371 
Q 5952 371 6035 310 
Q 6118 250 6185 173 
Q 6253 96 6253 51 
Q 6253 -32 6099 -45 
L 2938 -147 
Q 2810 -160 2730 -160 
Q 2650 -160 2611 -128 
Q 2464 -6 2419 109 
L 2381 224 
Q 2381 262 2419 262 
Q 2458 262 2538 243 
Q 2618 224 2752 224 
L 2803 224 
L 4301 275 
Q 4653 1382 4819 2694 
Q 4819 2816 4784 2905 
Q 4749 2995 4749 3008 
Q 4749 3059 4806 3059 
Q 4864 3059 4986 3034 
Q 5318 2950 5318 2784 
z
M 3910 1315 
Q 4000 819 4000 732 
Q 4000 646 3913 588 
Q 3827 531 3737 531 
Q 3648 531 3619 579 
Q 3590 627 3513 1187 
Q 3437 1747 3213 2592 
Q 3194 2662 3194 2720 
Q 3194 2778 3280 2822 
Q 3366 2867 3430 2867 
Q 3526 2867 3565 2733 
Q 3821 1811 3910 1315 
z
" transform="scale(0.015625)"/>
      <path id="LXGWWenKai-Regular-5f97" d="M 2336 4717 
Q 1843 3987 1216 3430 
Q 947 3200 758 3075 
Q 570 2950 515 2950 
Q 461 2950 461 3004 
Q 461 3059 589 3181 
Q 1350 3904 1741 4621 
Q 1901 4909 1901 5024 
Q 1901 5139 1971 5139 
Q 2003 5139 2099 5082 
Q 2368 4922 2368 4794 
Q 2368 4762 2336 4717 
z
M 2893 2989 
Q 2912 3123 2912 3162 
L 2912 3328 
Q 2912 3373 2906 3418 
L 2797 4390 
Q 2784 4563 2720 4672 
Q 2656 4781 2656 4819 
Q 2656 4858 2736 4858 
Q 2816 4858 3168 4723 
L 5216 4851 
L 5254 4851 
Q 5370 4851 5459 4771 
Q 5549 4691 5549 4633 
Q 5549 4576 5529 4544 
Q 5510 4512 5504 4480 
L 5344 3373 
Q 5523 3187 5523 3129 
Q 5523 3072 5472 3059 
Q 5421 3046 5350 3040 
L 3315 2931 
L 3322 2867 
L 3322 2842 
Q 3322 2726 3238 2726 
Q 3117 2726 3005 2819 
Q 2893 2912 2893 2989 
z
M 5088 4499 
L 3187 4384 
L 3219 4019 
L 5043 4128 
L 5088 4499 
z
M 5011 3802 
L 3251 3699 
L 3283 3270 
L 4960 3360 
L 5011 3802 
z
M 1299 1824 
Q 909 1389 595 1142 
Q 282 896 224 896 
Q 166 896 166 928 
Q 166 986 282 1120 
Q 1184 2061 1747 3213 
Q 1830 3366 1830 3488 
Q 1830 3610 1897 3610 
Q 1965 3610 2054 3546 
Q 2144 3482 2214 3405 
Q 2285 3328 2285 3270 
Q 2285 3213 2051 2857 
Q 1818 2502 1670 2304 
L 1702 -435 
Q 1702 -557 1581 -557 
Q 1485 -557 1369 -483 
Q 1254 -410 1254 -294 
Q 1254 -256 1273 -160 
Q 1293 -64 1293 154 
L 1299 1824 
z
M 2406 2515 
L 2726 2477 
L 2784 2477 
L 5242 2611 
Q 5402 2624 5491 2656 
Q 5581 2688 5629 2688 
Q 5677 2688 5747 2624 
Q 5926 2483 5926 2381 
Q 5926 2330 5792 2310 
L 4986 2266 
L 4992 1773 
L 5472 1792 
Q 5670 1811 5750 1833 
Q 5830 1856 5865 1856 
Q 5901 1856 5977 1792 
Q 6054 1728 6115 1648 
Q 6176 1568 6176 1529 
Q 6176 1491 6134 1481 
Q 6093 1472 6029 1466 
L 4992 1421 
L 5005 -192 
L 5011 -365 
Q 5011 -486 4931 -569 
Q 4851 -653 4761 -653 
Q 4672 -653 4537 -601 
Q 4403 -550 4240 -470 
Q 4077 -390 3920 -300 
Q 3763 -211 3664 -134 
Q 3565 -58 3565 -13 
Q 3565 32 3629 32 
Q 3693 32 3952 -54 
Q 4211 -141 4614 -198 
L 4608 1402 
L 2688 1318 
L 2509 1312 
Q 2400 1312 2301 1357 
Q 2202 1402 2112 1613 
Q 2099 1632 2099 1667 
Q 2099 1702 2131 1702 
Q 2163 1702 2217 1686 
Q 2272 1670 2381 1670 
L 4602 1754 
L 4602 2246 
L 2957 2150 
Q 2842 2138 2752 2138 
L 2720 2138 
Q 2515 2163 2441 2307 
Q 2368 2451 2368 2483 
Q 2368 2515 2406 2515 
z
M 3917 473 
Q 3917 397 3830 317 
Q 3744 237 3683 237 
Q 3622 237 3539 346 
Q 3296 672 3008 934 
Q 2944 998 2944 1027 
Q 2944 1056 2998 1139 
Q 3053 1222 3120 1222 
Q 3187 1222 3238 1174 
Q 3290 1126 3398 1033 
Q 3507 941 3712 745 
Q 3917 550 3917 473 
z
" transform="scale(0.015625)"/>
      <path id="LXGWWenKai-Regular-8d77" d="M 1402 1965 
Q 1331 1619 1190 1210 
Q 1459 1005 1779 838 
L 1811 2637 
L 941 2586 
Q 813 2573 752 2573 
Q 691 2573 627 2586 
Q 461 2618 378 2867 
Q 371 2880 371 2915 
Q 371 2950 410 2950 
Q 422 2950 496 2924 
Q 570 2899 710 2899 
L 768 2899 
L 1773 2957 
L 1773 3629 
L 1318 3597 
Q 1203 3584 1097 3584 
Q 992 3584 915 3654 
Q 838 3725 803 3805 
Q 768 3885 768 3904 
Q 768 3949 813 3949 
Q 832 3949 905 3926 
Q 979 3904 1114 3904 
L 1158 3904 
L 1779 3949 
L 1779 4736 
Q 1779 4870 1731 4947 
Q 1683 5024 1683 5056 
Q 1683 5107 1760 5107 
Q 1837 5107 1961 5068 
Q 2086 5030 2128 4992 
Q 2170 4954 2170 4896 
L 2163 3981 
L 2490 4006 
Q 2611 4013 2684 4041 
Q 2758 4070 2793 4070 
Q 2829 4070 2906 4019 
Q 3098 3898 3098 3795 
Q 3098 3738 2963 3718 
L 2163 3661 
L 2157 2982 
L 2784 3021 
Q 2906 3034 2973 3059 
Q 3040 3085 3062 3085 
Q 3085 3085 3162 3046 
Q 3366 2925 3366 2810 
Q 3366 2739 3232 2720 
L 2195 2656 
L 2182 1971 
L 2496 1984 
Q 2675 2003 2729 2022 
Q 2784 2042 2797 2042 
Q 2810 2042 2880 2003 
Q 3091 1894 3091 1760 
Q 3091 1690 2957 1670 
L 2182 1632 
L 2163 653 
Q 3718 6 6093 -32 
Q 6240 -32 6240 -90 
L 6208 -179 
Q 6093 -442 5933 -442 
L 5888 -442 
Q 3936 -320 2816 26 
Q 1798 326 1056 870 
Q 768 205 397 -243 
Q 250 -410 205 -410 
Q 173 -410 173 -355 
Q 173 -301 282 -83 
Q 550 435 742 1078 
Q 934 1722 934 1939 
L 896 2150 
Q 896 2208 960 2208 
Q 1107 2208 1306 2086 
Q 1402 2035 1402 1965 
z
M 3341 4301 
Q 3533 4269 3661 4269 
L 4992 4365 
L 5062 4371 
Q 5075 4371 5146 4352 
Q 5363 4282 5363 4134 
Q 5363 4090 5344 4051 
Q 5325 4013 5318 3974 
L 5203 3014 
Q 5395 2829 5395 2752 
Q 5395 2675 5216 2662 
L 3981 2598 
L 3962 1434 
L 3962 1402 
Q 3962 1286 4006 1216 
Q 4102 1082 4665 1082 
Q 5229 1082 5366 1194 
Q 5504 1306 5606 1971 
Q 5645 2202 5715 2202 
Q 5818 2202 5818 1619 
L 5811 1357 
Q 5805 1062 5670 915 
Q 5536 768 5264 723 
Q 4992 678 4665 678 
Q 4339 678 4105 710 
Q 3872 742 3715 870 
Q 3558 998 3558 1280 
L 3558 1312 
L 3597 2624 
L 3597 2669 
Q 3597 2874 3542 2960 
Q 3488 3046 3488 3081 
Q 3488 3117 3581 3117 
Q 3674 3117 4006 2950 
L 4826 2995 
L 4896 4000 
L 3866 3930 
L 3693 3923 
Q 3418 3923 3315 4211 
Q 3302 4250 3302 4262 
Q 3302 4301 3341 4301 
z
" transform="scale(0.015625)"/>
     </defs>
     <use xlink:href="#LXGWWenKai-Regular-7ef3"/>
     <use xlink:href="#LXGWWenKai-Regular-5b50" transform="translate(99.999985 0)"/>
     <use xlink:href="#LXGWWenKai-Regular-591f" transform="translate(199.999969 0)"/>
     <use xlink:href="#LXGWWenKai-Regular-957f" transform="translate(299.999954 0)"/>
     <use xlink:href="#LXGWWenKai-Regular-ff1a" transform="translate(399.999939 0)"/>
     <use xlink:href="#LXGWWenKai-Regular-62c9" transform="translate(499.999924 0)"/>
     <use xlink:href="#LXGWWenKai-Regular-5f97" transform="translate(599.999908 0)"/>
     <use xlink:href="#LXGWWenKai-Regular-8d77" transform="translate(699.999893 0)"/>
    </g>
   </g>
   <g id="text_5">
    <!-- $|MF_1| + |MF_2| &gt; |F_1F_2|$ -->
    <g style="fill: #5d4e37" transform="translate(59.52 191.561581) scale(0.24 -0.24)">
     <defs>
      <path id="STIXGeneral-Regular-7c" d="M 851 -90 
L 429 -90 
L 429 4326 
L 851 4326 
L 851 -90 
z
" transform="scale(0.015625)"/>
      <path id="STIXGeneral-Regular-2b" d="M 4070 1408 
L 2400 1408 
L 2400 -262 
L 1978 -262 
L 1978 1408 
L 307 1408 
L 307 1830 
L 1978 1830 
L 1978 3501 
L 2400 3501 
L 2400 1830 
L 4070 1830 
L 4070 1408 
z
" transform="scale(0.015625)"/>
      <path id="STIXGeneral-Regular-3e" d="M 3974 1594 
L 358 -154 
L 358 250 
L 3123 1626 
L 358 3002 
L 358 3418 
L 3974 1658 
L 3974 1594 
z
" transform="scale(0.015625)"/>
     </defs>
     <use xlink:href="#STIXGeneral-Regular-7c" transform="translate(0 0.40625)"/>
     <use xlink:href="#STIXGeneral-Italic-4d" transform="translate(19.999985 0.40625)"/>
     <use xlink:href="#STIXGeneral-Italic-46" transform="translate(103.299973 0.40625)"/>
     <use xlink:href="#STIXGeneral-Regular-31" transform="translate(164.399963 -12.821875) scale(0.7)"/>
     <use xlink:href="#STIXGeneral-Regular-7c" transform="translate(203.809328 0.40625)"/>
     <use xlink:href="#STIXGeneral-Regular-2b" transform="translate(238.249309 0.40625)"/>
     <use xlink:href="#STIXGeneral-Regular-7c" transform="translate(321.18929 0.40625)"/>
     <use xlink:href="#STIXGeneral-Italic-4d" transform="translate(341.189275 0.40625)"/>
     <use xlink:href="#STIXGeneral-Italic-46" transform="translate(424.489262 0.40625)"/>
     <use xlink:href="#STIXGeneral-Regular-32" transform="translate(485.589253 -12.821875) scale(0.7)"/>
     <use xlink:href="#STIXGeneral-Regular-7c" transform="translate(524.998618 0.40625)"/>
     <use xlink:href="#STIXGeneral-Regular-3e" transform="translate(559.438599 0.40625)"/>
     <use xlink:href="#STIXGeneral-Regular-7c" transform="translate(642.37858 0.40625)"/>
     <use xlink:href="#STIXGeneral-Italic-46" transform="translate(662.378564 0.40625)"/>
     <use xlink:href="#STIXGeneral-Regular-31" transform="translate(723.478555 -12.821875) scale(0.7)"/>
     <use xlink:href="#STIXGeneral-Italic-46" transform="translate(762.88792 0.40625)"/>
     <use xlink:href="#STIXGeneral-Regular-32" transform="translate(823.98791 -12.821875) scale(0.7)"/>
     <use xlink:href="#STIXGeneral-Regular-7c" transform="translate(863.397275 0.40625)"/>
    </g>
   </g>
   <g id="text_6">
    <!-- 轨迹：椭圆 -->
    <g style="fill: #5d4e37" transform="translate(100.6 220.149816) scale(0.26 -0.26)">
     <defs>
      <path id="LXGWWenKai-Regular-8f68" d="M 2963 3334 
L 3213 3302 
L 3347 3302 
Q 3386 3302 3418 3309 
L 3923 3366 
Q 3968 3872 3968 4195 
Q 3968 4518 3955 4643 
Q 3942 4768 3907 4851 
Q 3872 4934 3872 4941 
Q 3872 4986 3926 4986 
Q 3981 4986 4096 4960 
Q 4410 4890 4410 4717 
Q 4397 4083 4326 3411 
L 5043 3488 
Q 5062 3494 5082 3494 
L 5114 3494 
Q 5267 3494 5337 3408 
Q 5408 3322 5408 3283 
Q 5408 3245 5395 3203 
Q 5382 3162 5376 3110 
L 5075 403 
Q 5069 371 5069 346 
L 5069 288 
Q 5069 134 5155 96 
Q 5242 58 5430 58 
Q 5619 58 5708 80 
Q 5798 102 5859 217 
Q 5920 333 6048 1101 
Q 6086 1357 6150 1357 
Q 6246 1357 6246 819 
Q 6246 282 6208 64 
Q 6170 -154 6010 -243 
Q 5850 -333 5546 -333 
Q 5242 -333 5056 -294 
Q 4870 -256 4768 -141 
Q 4666 -26 4666 211 
L 4666 333 
L 4960 3130 
L 4288 3053 
Q 4102 1126 3238 90 
Q 2976 -218 2784 -365 
Q 2592 -512 2547 -512 
Q 2522 -512 2522 -454 
Q 2522 -397 2637 -262 
Q 3539 787 3789 2278 
Q 3853 2669 3891 3002 
L 3526 2963 
Q 3469 2957 3414 2950 
Q 3360 2944 3273 2944 
Q 3187 2944 3100 3024 
Q 3014 3104 2966 3190 
Q 2918 3277 2918 3290 
Q 2918 3334 2963 3334 
z
M 576 877 
Q 666 864 790 864 
Q 915 864 1933 1101 
L 1933 1952 
L 1478 1907 
L 1446 1907 
L 1203 1882 
L 1030 1850 
Q 960 1850 880 1891 
Q 800 1933 819 2042 
Q 838 2080 838 2099 
Q 1286 3104 1485 3776 
L 1050 3744 
L 896 3731 
Q 742 3731 678 3788 
Q 614 3846 576 3939 
Q 538 4032 538 4064 
Q 538 4096 566 4096 
Q 595 4096 652 4080 
Q 710 4064 845 4064 
L 928 4064 
L 1581 4115 
Q 1728 4646 1741 4716 
Q 1754 4787 1734 4864 
Q 1670 5030 1811 5037 
Q 1869 5037 1978 4979 
Q 2189 4870 2163 4762 
L 1984 4141 
L 2522 4179 
Q 2637 4186 2713 4218 
Q 2790 4250 2848 4250 
Q 2906 4250 2982 4198 
Q 3181 4077 3181 3974 
Q 3181 3910 3027 3891 
L 1888 3808 
Q 1747 3309 1459 2630 
L 1293 2240 
Q 1312 2240 1427 2246 
L 1933 2285 
L 1933 2848 
Q 1933 2976 1875 3053 
Q 1818 3130 1818 3165 
Q 1818 3200 1878 3200 
Q 1939 3200 2035 3181 
Q 2317 3117 2317 2963 
L 2310 2317 
L 2611 2342 
Q 2701 2362 2745 2381 
Q 2790 2400 2828 2400 
Q 2867 2400 2925 2349 
Q 3066 2246 3066 2166 
Q 3066 2086 3021 2067 
Q 2976 2048 2931 2042 
L 2304 1984 
L 2298 1190 
L 3046 1402 
L 3078 1402 
Q 3155 1402 3155 1341 
Q 3155 1280 3040 1222 
Q 2669 1056 2298 909 
L 2285 -448 
Q 2285 -595 2195 -595 
L 2182 -595 
Q 2176 -589 2160 -585 
Q 2144 -582 2089 -569 
Q 2035 -557 1955 -499 
Q 1875 -442 1875 -368 
Q 1875 -294 1904 -172 
Q 1933 -51 1933 147 
L 1933 768 
Q 1504 614 1174 521 
Q 845 429 781 429 
Q 717 429 653 525 
Q 589 621 557 729 
Q 525 838 525 857 
Q 525 877 550 877 
L 576 877 
z
" transform="scale(0.015625)"/>
      <path id="LXGWWenKai-Regular-8ff9" d="M 2278 4102 
Q 2394 4064 2586 4064 
L 2669 4064 
L 3827 4141 
L 3827 4742 
Q 3827 4954 3712 5114 
Q 3693 5146 3693 5165 
Q 3693 5203 3769 5203 
Q 3846 5203 3990 5152 
Q 4134 5101 4185 5062 
Q 4237 5024 4237 4934 
L 4237 4922 
L 4218 4160 
L 5267 4230 
Q 5478 4243 5545 4268 
Q 5613 4294 5651 4294 
Q 5690 4294 5760 4250 
Q 5958 4122 5958 4013 
Q 5958 3930 5818 3917 
L 4678 3846 
L 4685 934 
L 4691 717 
Q 4691 557 4601 461 
Q 4512 365 4422 365 
Q 4333 365 4185 457 
Q 4038 550 3884 678 
Q 3731 806 3622 918 
Q 3514 1030 3514 1068 
Q 3514 1107 3578 1107 
Q 3642 1107 3859 1008 
Q 4077 909 4294 826 
L 4288 3827 
L 3859 3795 
Q 3846 2816 3712 2336 
Q 3578 1856 3363 1529 
Q 3149 1203 2918 988 
Q 2688 774 2509 665 
Q 2330 557 2285 557 
Q 2240 557 2240 608 
Q 2240 659 2368 787 
Q 3315 1702 3430 3034 
Q 3462 3411 3469 3776 
L 2765 3731 
Q 2720 3725 2675 3725 
L 2605 3725 
Q 2502 3725 2416 3769 
Q 2330 3814 2240 4032 
L 2234 4058 
Q 2234 4102 2278 4102 
z
M 2669 3232 
Q 2669 3309 2726 3309 
Q 2746 3309 2842 3270 
Q 3117 3162 3117 3021 
Q 3117 3002 3030 2787 
Q 2944 2573 2733 2256 
Q 2522 1939 2349 1753 
Q 2176 1568 2118 1568 
Q 2074 1568 2074 1619 
Q 2074 1670 2160 1820 
Q 2246 1971 2368 2227 
Q 2669 2835 2669 3162 
L 2669 3232 
z
M 5786 2086 
Q 5862 1894 5862 1833 
Q 5862 1773 5798 1731 
Q 5734 1690 5670 1677 
L 5606 1658 
Q 5510 1658 5466 1773 
Q 5254 2413 4941 2963 
Q 4902 3034 4902 3094 
Q 4902 3155 4982 3203 
Q 5062 3251 5116 3251 
Q 5171 3251 5242 3142 
Q 5594 2592 5786 2086 
z
M 1939 3804 
Q 1939 3731 1849 3635 
Q 1760 3539 1693 3539 
Q 1626 3539 1491 3718 
Q 1216 4083 768 4486 
Q 678 4563 678 4611 
Q 678 4659 755 4726 
Q 832 4794 889 4794 
Q 947 4794 1139 4650 
Q 1331 4506 1635 4192 
Q 1939 3878 1939 3804 
z
M 378 3072 
Q 506 3046 563 3046 
L 653 3046 
Q 678 3046 704 3053 
L 1696 3155 
L 1766 3162 
Q 1837 3162 1929 3091 
Q 2022 3021 2022 2957 
Q 2022 2893 1984 2854 
L 1907 2778 
Q 1638 2419 1510 2252 
Q 1382 2086 1347 2032 
Q 1312 1978 1312 1958 
Q 1312 1939 1344 1914 
Q 1907 1517 1952 1437 
Q 1997 1357 1997 1289 
Q 1997 1222 1965 1139 
Q 1894 966 1427 576 
Q 1626 563 1933 499 
Q 4570 -26 5978 -26 
L 6010 -26 
Q 6157 -26 6157 -83 
Q 6157 -90 6121 -179 
Q 6086 -269 6009 -358 
Q 5933 -448 5818 -448 
L 5786 -448 
Q 4973 -422 4070 -275 
Q 2592 -26 2128 73 
Q 1664 173 1513 195 
Q 1363 218 1120 218 
Q 877 218 518 102 
Q 454 83 410 83 
Q 243 83 243 358 
Q 243 410 282 448 
Q 365 531 915 576 
Q 1274 890 1549 1229 
Q 1562 1254 1562 1273 
Q 1562 1293 1418 1414 
Q 1274 1536 1075 1651 
Q 909 1760 909 1872 
Q 909 1984 976 2096 
Q 1043 2208 1440 2771 
L 819 2694 
Q 781 2688 755 2688 
L 691 2688 
Q 640 2688 537 2729 
Q 435 2771 339 2989 
Q 326 3027 326 3034 
Q 326 3072 378 3072 
z
" transform="scale(0.015625)"/>
      <path id="LXGWWenKai-Regular-692d" d="M 2912 2189 
Q 3002 2112 3094 2054 
Q 3187 1997 3216 1997 
Q 3245 1997 3245 2074 
L 3245 2189 
Q 3245 2330 3177 2586 
Q 3110 2842 2854 3136 
Q 2784 3213 2784 3309 
Q 2784 3405 2864 3552 
Q 2944 3699 3187 4326 
L 2701 4294 
L 2714 -346 
Q 2714 -486 2624 -486 
Q 2496 -486 2409 -400 
Q 2323 -314 2323 -253 
Q 2323 -192 2345 -35 
Q 2368 122 2368 403 
L 2362 3968 
Q 2362 4275 2323 4457 
Q 2285 4640 2285 4681 
Q 2285 4723 2349 4723 
Q 2413 4723 2733 4595 
L 3379 4653 
Q 3437 4653 3533 4601 
Q 3629 4550 3629 4483 
Q 3629 4416 3424 3965 
Q 3219 3514 3174 3430 
Q 3130 3347 3130 3305 
Q 3130 3264 3162 3219 
Q 3450 2899 3584 2336 
Q 3910 2944 4154 3642 
L 3968 3622 
L 3885 3622 
Q 3693 3622 3632 3689 
Q 3571 3757 3539 3846 
Q 3507 3936 3507 3962 
Q 3507 3974 3545 3974 
Q 3584 3974 3657 3948 
Q 3731 3923 3859 3923 
L 3904 3923 
L 4256 3962 
Q 4442 4621 4442 4793 
Q 4442 4966 4422 5027 
Q 4403 5088 4403 5117 
Q 4403 5146 4441 5146 
Q 4480 5146 4582 5107 
Q 4858 5011 4858 4870 
Q 4858 4813 4778 4515 
Q 4698 4218 4621 3994 
L 5459 4070 
Q 5626 4090 5667 4106 
Q 5709 4122 5766 4122 
Q 5824 4122 5939 4029 
Q 6054 3936 6054 3853 
Q 6054 3795 5914 3782 
L 4499 3674 
Q 4384 3360 4218 3046 
Q 4320 3034 4429 2995 
L 5318 3059 
L 5382 3059 
Q 5530 3059 5581 2979 
Q 5632 2899 5632 2848 
L 5613 2739 
L 5626 -6 
L 5638 -262 
Q 5638 -493 5478 -563 
Q 5421 -589 5366 -589 
Q 5312 -589 5181 -493 
Q 5050 -397 4925 -269 
Q 4800 -141 4717 -22 
Q 4634 96 4634 134 
Q 4634 154 4688 154 
Q 4742 154 4896 61 
Q 5050 -32 5280 -141 
L 5280 934 
L 4390 883 
L 4371 -384 
Q 4371 -506 4275 -506 
Q 4205 -506 4102 -442 
Q 4000 -378 4000 -320 
Q 4000 -262 4019 -163 
Q 4038 -64 4038 128 
L 4077 2611 
Q 4077 2656 4077 2701 
Q 4077 2746 4070 2778 
Q 3744 2221 3603 2125 
Q 3603 2112 3603 2099 
Q 3603 1882 3513 1722 
Q 3424 1562 3322 1562 
Q 3162 1562 2947 1850 
Q 2733 2138 2733 2202 
Q 2733 2266 2771 2266 
Q 2822 2266 2912 2189 
z
M 1229 2112 
L 1242 2554 
L 1248 2656 
Q 1069 1837 614 1088 
Q 346 621 250 621 
Q 218 621 218 675 
Q 218 730 256 826 
Q 666 1696 1126 3226 
L 800 3200 
Q 685 3187 640 3187 
Q 410 3187 307 3462 
Q 301 3475 301 3510 
Q 301 3546 336 3546 
Q 371 3546 425 3533 
Q 480 3520 595 3520 
L 672 3520 
L 1235 3565 
L 1248 4704 
Q 1248 4858 1178 4960 
Q 1158 4998 1158 5018 
Q 1158 5069 1260 5069 
Q 1363 5069 1523 4979 
Q 1606 4934 1606 4838 
L 1587 3597 
L 1734 3610 
Q 1875 3629 1923 3645 
Q 1971 3661 2048 3661 
Q 2125 3661 2224 3565 
Q 2323 3469 2323 3418 
Q 2323 3334 2176 3315 
L 1587 3264 
L 1581 2867 
Q 1651 2918 1702 2918 
Q 1798 2918 2028 2524 
Q 2259 2131 2259 2060 
Q 2259 1990 2169 1942 
Q 2080 1894 2025 1894 
Q 1971 1894 1904 2022 
Q 1837 2150 1750 2326 
Q 1664 2502 1574 2630 
L 1536 -480 
Q 1536 -614 1440 -614 
Q 1382 -614 1306 -576 
Q 1158 -506 1158 -365 
Q 1158 -326 1180 -236 
Q 1203 -147 1203 32 
L 1203 166 
Q 1229 730 1229 2112 
z
M 5280 1850 
L 4403 1798 
L 4397 1165 
L 5280 1210 
L 5280 1850 
z
M 5280 2752 
L 4416 2694 
L 4410 2086 
L 5280 2138 
L 5280 2752 
z
" transform="scale(0.015625)"/>
      <path id="LXGWWenKai-Regular-5706" d="M 5562 173 
Q 5766 -51 5766 -121 
Q 5766 -192 5702 -201 
Q 5638 -211 5549 -218 
L 1248 -314 
L 1248 -518 
Q 1248 -685 1139 -685 
Q 998 -685 899 -585 
Q 800 -486 800 -390 
L 800 -358 
Q 800 -333 822 -243 
Q 845 -154 845 102 
L 838 4358 
Q 838 4557 730 4774 
Q 717 4800 717 4819 
Q 717 4864 800 4864 
Q 883 4864 1248 4736 
L 5229 4973 
L 5286 4973 
Q 5517 4973 5581 4819 
Q 5606 4762 5606 4742 
L 5581 4608 
L 5562 173 
z
M 5165 4602 
L 1235 4384 
L 1248 45 
L 5152 154 
L 5165 4602 
z
M 4474 192 
Q 4429 192 4301 282 
Q 3981 518 3373 781 
Q 3290 826 3290 883 
Q 3290 941 3347 1017 
Q 3405 1094 3462 1094 
Q 3520 1094 4000 860 
Q 4480 627 4560 579 
Q 4640 531 4640 473 
Q 4640 416 4595 304 
Q 4550 192 4474 192 
z
M 2048 1434 
L 1958 2432 
Q 1946 2643 1904 2736 
Q 1862 2829 1862 2857 
Q 1862 2886 1936 2886 
Q 2010 2886 2336 2790 
L 4109 2886 
L 4128 2886 
Q 4230 2886 4323 2809 
Q 4416 2733 4416 2691 
Q 4416 2650 4403 2624 
Q 4390 2598 4384 2573 
L 4301 1472 
L 4294 1178 
L 4288 1114 
Q 4275 1018 4192 1030 
Q 4090 1030 3987 1110 
Q 3885 1190 3923 1308 
Q 3962 1427 4019 2592 
L 2304 2502 
L 2381 1421 
L 2400 1126 
L 2400 1062 
Q 2400 966 2297 966 
Q 2195 966 2108 1024 
Q 2022 1082 2022 1165 
L 2048 1434 
z
M 2189 3232 
L 2195 3315 
Q 2195 3373 2182 3450 
L 2138 3904 
Q 2125 4045 2070 4137 
Q 2016 4230 2016 4262 
Q 2016 4294 2077 4294 
Q 2138 4294 2445 4173 
L 3930 4269 
L 3974 4269 
Q 4077 4269 4141 4211 
Q 4205 4154 4205 4112 
Q 4205 4070 4195 4041 
Q 4186 4013 4179 3987 
L 4070 3462 
Q 4218 3309 4218 3267 
Q 4218 3226 4173 3222 
Q 4128 3219 4064 3213 
L 2560 3136 
L 2560 3110 
Q 2560 3021 2451 3021 
Q 2342 3021 2265 3065 
Q 2189 3110 2189 3194 
L 2189 3232 
z
M 3795 3974 
L 2483 3891 
L 2528 3411 
L 3725 3482 
L 3795 3974 
z
M 3059 2010 
Q 3059 2131 3027 2182 
Q 2995 2234 2995 2259 
Q 2995 2330 3116 2330 
Q 3238 2330 3328 2278 
Q 3418 2227 3418 2131 
Q 3398 1549 3273 1248 
Q 3149 947 2985 777 
Q 2822 608 2633 489 
Q 2445 371 2272 300 
Q 2099 230 1894 182 
Q 1690 134 1664 134 
Q 1568 134 1568 217 
Q 1568 301 1677 352 
Q 2707 691 2938 1318 
Q 3046 1606 3052 1718 
Q 3059 1830 3059 1914 
L 3059 2010 
z
" transform="scale(0.015625)"/>
     </defs>
     <use xlink:href="#LXGWWenKai-Regular-8f68"/>
     <use xlink:href="#LXGWWenKai-Regular-8ff9" transform="translate(99.999985 0)"/>
     <use xlink:href="#LXGWWenKai-Regular-ff1a" transform="translate(199.999969 0)"/>
     <use xlink:href="#LXGWWenKai-Regular-692d" transform="translate(299.999954 0)"/>
     <use xlink:href="#LXGWWenKai-Regular-5706" transform="translate(399.999939 0)"/>
    </g>
   </g>
  </g>
  <g id="axes_2">
   <g id="patch_3">
    <path d="M 522 79.206536 
Q 522 101.032263 522 121.180939 
" clip-path="url(#p04efec5812)" style="fill: none; stroke: #e8927c; stroke-width: 1.5; stroke-linecap: round"/>
    <path d="M 525 115.180939 
L 522 121.180939 
L 519 115.180939 
" clip-path="url(#p04efec5812)" style="fill: none; stroke: #e8927c; stroke-width: 1.5; stroke-linecap: round"/>
   </g>
   <g id="line2d_3">
    <path d="M 445.764706 134.38511 
L 598.235294 134.38511 
" clip-path="url(#p04efec5812)" style="fill: none; stroke: #e8927c; stroke-opacity: 0.9; stroke-width: 6; stroke-linecap: round"/>
   </g>
   <g id="line2d_4">
    <g clip-path="url(#p04efec5812)">
     <use xlink:href="#m1ae49b012e" x="445.764706" y="134.38511" style="fill: #5d4e37; stroke: #5d4e37"/>
     <use xlink:href="#m1ae49b012e" x="598.235294" y="134.38511" style="fill: #5d4e37; stroke: #5d4e37"/>
     <use xlink:href="#m1ae49b012e" x="545.823529" y="134.38511" style="fill: #5d4e37; stroke: #5d4e37"/>
    </g>
   </g>
   <g id="text_7">
    <!-- $F_1$ -->
    <g transform="translate(434.654706 153.443934) scale(0.22 -0.22)">
     <use xlink:href="#STIXGeneral-Italic-46" transform="translate(0 0.703125)"/>
     <use xlink:href="#STIXGeneral-Regular-31" transform="translate(61.099991 -12.525) scale(0.7)"/>
    </g>
   </g>
   <g id="text_8">
    <!-- $F_2$ -->
    <g transform="translate(587.125294 153.443934) scale(0.22 -0.22)">
     <use xlink:href="#STIXGeneral-Italic-46" transform="translate(0 0.703125)"/>
     <use xlink:href="#STIXGeneral-Regular-32" transform="translate(61.099991 -12.525) scale(0.7)"/>
    </g>
   </g>
   <g id="text_9">
    <!-- $M$ -->
    <g style="fill: #e8927c" transform="translate(545.823529 120.090993) scale(0.24 -0.24)">
     <use xlink:href="#STIXGeneral-Italic-4d" transform="translate(0 0.703125)"/>
    </g>
   </g>
   <g id="text_10">
    <!-- 绳子拉直：拉不走 -->
    <g style="fill: #5d4e37" transform="translate(410 24.796875) scale(0.28 -0.28)">
     <defs>
      <path id="LXGWWenKai-Regular-76f4" d="M 2131 70 
L 4198 141 
L 4211 710 
L 2125 621 
L 2131 70 
z
M 2125 947 
L 4218 1037 
L 4224 1562 
L 2118 1446 
L 2125 947 
z
M 2118 1773 
L 4230 1882 
L 4243 2394 
L 2106 2285 
L 2118 1773 
z
M 2099 2592 
L 4250 2694 
L 4256 3213 
L 2093 3091 
L 2099 2592 
z
M 704 -326 
Q 595 -326 492 -262 
Q 390 -198 320 13 
Q 314 26 314 45 
Q 314 70 339 70 
Q 365 70 384 64 
Q 512 26 666 26 
L 723 26 
L 1741 58 
L 1709 3059 
Q 1709 3277 1626 3405 
Q 1574 3494 1574 3520 
Q 1574 3558 1632 3558 
Q 1734 3558 2125 3405 
L 2893 3450 
L 2938 3974 
L 1427 3885 
Q 1363 3878 1254 3878 
L 1190 3878 
Q 1120 3878 1062 3923 
Q 992 3994 944 4074 
Q 896 4154 896 4205 
Q 896 4237 928 4237 
L 954 4230 
Q 1050 4205 1203 4205 
L 1306 4205 
L 2963 4301 
L 3008 4794 
L 3008 4813 
Q 3008 4941 2938 5069 
Q 2912 5120 2912 5146 
Q 2912 5203 3002 5203 
Q 3187 5171 3315 5107 
Q 3443 5043 3443 4947 
L 3443 4941 
L 3373 4326 
L 4742 4410 
Q 4896 4422 4986 4454 
Q 5024 4474 5069 4474 
Q 5146 4474 5226 4422 
Q 5306 4371 5360 4300 
Q 5414 4230 5414 4192 
Q 5414 4128 5254 4115 
L 3341 4000 
L 3277 3475 
L 4384 3546 
L 4461 3552 
Q 4557 3552 4637 3462 
Q 4717 3373 4717 3322 
Q 4717 3302 4697 3260 
Q 4678 3219 4678 3194 
L 4576 154 
L 5274 179 
Q 5491 192 5619 230 
Q 5709 256 5734 256 
Q 5805 256 5945 144 
Q 6086 32 6086 -51 
Q 6086 -128 5914 -141 
L 858 -320 
L 704 -326 
z
" transform="scale(0.015625)"/>
      <path id="LXGWWenKai-Regular-4e0d" d="M 672 4454 
Q 864 4416 992 4416 
L 1050 4416 
L 5082 4634 
Q 5242 4646 5309 4668 
Q 5376 4691 5414 4691 
Q 5453 4691 5542 4634 
Q 5760 4499 5760 4378 
Q 5760 4301 5600 4282 
L 3942 4192 
Q 3661 3667 3302 3162 
L 3309 -422 
Q 3309 -589 3174 -589 
Q 3130 -589 3043 -553 
Q 2957 -518 2886 -444 
Q 2816 -371 2816 -300 
Q 2816 -230 2841 -115 
Q 2867 0 2867 173 
L 2867 2611 
Q 2170 1818 1312 1248 
Q 947 1005 694 877 
Q 442 749 374 749 
Q 307 749 307 794 
Q 307 858 429 941 
Q 1952 2016 2854 3283 
Q 2829 3373 2774 3440 
Q 2720 3507 2720 3526 
Q 2720 3571 2813 3571 
Q 2906 3571 3027 3533 
Q 3168 3744 3405 4166 
L 1184 4045 
Q 1146 4038 1114 4038 
L 1011 4038 
Q 941 4038 825 4089 
Q 710 4141 640 4378 
Q 634 4390 634 4410 
Q 634 4454 672 4454 
z
M 5753 1049 
Q 5702 992 5632 992 
Q 5562 992 5491 1056 
Q 4550 1843 3731 2336 
Q 3635 2394 3635 2454 
Q 3635 2515 3696 2611 
Q 3757 2707 3821 2707 
Q 3885 2707 4160 2541 
Q 4896 2099 5754 1446 
Q 5856 1370 5856 1312 
Q 5856 1254 5830 1180 
Q 5805 1107 5753 1049 
z
" transform="scale(0.015625)"/>
      <path id="LXGWWenKai-Regular-8d70" d="M 1587 3994 
L 1875 3962 
L 1926 3962 
L 2989 4032 
L 2989 4819 
Q 2989 4973 2947 5049 
Q 2906 5126 2906 5158 
Q 2906 5210 2986 5210 
Q 3066 5210 3190 5158 
Q 3315 5107 3356 5072 
Q 3398 5037 3398 4960 
L 3392 4058 
L 4243 4109 
Q 4422 4128 4473 4147 
Q 4525 4166 4566 4166 
Q 4608 4166 4685 4115 
Q 4890 3987 4890 3872 
Q 4890 3802 4736 3789 
L 3386 3706 
L 3379 2867 
L 5139 2950 
Q 5312 2970 5376 2989 
Q 5440 3008 5488 3008 
Q 5536 3008 5619 2957 
Q 5818 2829 5818 2707 
Q 5818 2637 5658 2618 
L 3386 2509 
L 3379 1683 
L 4429 1722 
Q 4614 1741 4659 1760 
Q 4704 1779 4733 1779 
Q 4762 1779 4838 1728 
Q 5043 1600 5043 1491 
Q 5043 1402 4883 1389 
L 3379 1318 
L 3373 454 
Q 4627 58 6131 -64 
Q 6266 -70 6266 -134 
Q 6266 -166 6234 -250 
Q 6150 -474 5971 -474 
L 5901 -467 
Q 4474 -320 3027 192 
Q 2317 448 1728 768 
Q 1222 13 467 -474 
Q 358 -538 316 -538 
Q 275 -538 275 -496 
Q 275 -454 384 -333 
Q 973 288 1395 953 
Q 1818 1619 1818 1965 
L 1811 2016 
L 1811 2042 
Q 1811 2131 1875 2131 
Q 1894 2131 1990 2086 
Q 2272 1965 2272 1818 
Q 2272 1786 2198 1600 
Q 2125 1414 1926 1069 
Q 2413 806 2982 595 
L 2995 2490 
L 1216 2406 
L 1056 2400 
Q 992 2400 886 2438 
Q 781 2477 691 2694 
Q 678 2733 678 2761 
Q 678 2790 716 2790 
Q 755 2790 828 2771 
Q 902 2752 1018 2752 
L 1075 2752 
L 2989 2848 
L 2989 3686 
L 2054 3629 
L 1907 3622 
Q 1766 3622 1728 3661 
L 1645 3738 
Q 1542 3878 1542 3936 
Q 1542 3994 1587 3994 
z
" transform="scale(0.015625)"/>
     </defs>
     <use xlink:href="#LXGWWenKai-Regular-7ef3"/>
     <use xlink:href="#LXGWWenKai-Regular-5b50" transform="translate(99.999985 0)"/>
     <use xlink:href="#LXGWWenKai-Regular-62c9" transform="translate(199.999969 0)"/>
     <use xlink:href="#LXGWWenKai-Regular-76f4" transform="translate(299.999954 0)"/>
     <use xlink:href="#LXGWWenKai-Regular-ff1a" transform="translate(399.999939 0)"/>
     <use xlink:href="#LXGWWenKai-Regular-62c9" transform="translate(499.999924 0)"/>
     <use xlink:href="#LXGWWenKai-Regular-4e0d" transform="translate(599.999908 0)"/>
     <use xlink:href="#LXGWWenKai-Regular-8d70" transform="translate(699.999893 0)"/>
    </g>
   </g>
   <g id="text_11">
    <!-- $|MF_1| + |MF_2| = |F_1F_2|$ -->
    <g style="fill: #5d4e37" transform="translate(415.92 191.561581) scale(0.24 -0.24)">
     <defs>
      <path id="STIXGeneral-Regular-3d" d="M 4077 2048 
L 307 2048 
L 307 2470 
L 4077 2470 
L 4077 2048 
z
M 4077 768 
L 307 768 
L 307 1190 
L 4077 1190 
L 4077 768 
z
" transform="scale(0.015625)"/>
     </defs>
     <use xlink:href="#STIXGeneral-Regular-7c" transform="translate(0 0.40625)"/>
     <use xlink:href="#STIXGeneral-Italic-4d" transform="translate(19.999985 0.40625)"/>
     <use xlink:href="#STIXGeneral-Italic-46" transform="translate(103.299973 0.40625)"/>
     <use xlink:href="#STIXGeneral-Regular-31" transform="translate(164.399963 -12.821875) scale(0.7)"/>
     <use xlink:href="#STIXGeneral-Regular-7c" transform="translate(203.809328 0.40625)"/>
     <use xlink:href="#STIXGeneral-Regular-2b" transform="translate(238.249309 0.40625)"/>
     <use xlink:href="#STIXGeneral-Regular-7c" transform="translate(321.18929 0.40625)"/>
     <use xlink:href="#STIXGeneral-Italic-4d" transform="translate(341.189275 0.40625)"/>
     <use xlink:href="#STIXGeneral-Italic-46" transform="translate(424.489262 0.40625)"/>
     <use xlink:href="#STIXGeneral-Regular-32" transform="translate(485.589253 -12.821875) scale(0.7)"/>
     <use xlink:href="#STIXGeneral-Regular-7c" transform="translate(524.998618 0.40625)"/>
     <use xlink:href="#STIXGeneral-Regular-3d" transform="translate(559.438599 0.40625)"/>
     <use xlink:href="#STIXGeneral-Regular-7c" transform="translate(642.37858 0.40625)"/>
     <use xlink:href="#STIXGeneral-Italic-46" transform="translate(662.378564 0.40625)"/>
     <use xlink:href="#STIXGeneral-Regular-31" transform="translate(723.478555 -12.821875) scale(0.7)"/>
     <use xlink:href="#STIXGeneral-Italic-46" transform="translate(762.88792 0.40625)"/>
     <use xlink:href="#STIXGeneral-Regular-32" transform="translate(823.98791 -12.821875) scale(0.7)"/>
     <use xlink:href="#STIXGeneral-Regular-7c" transform="translate(863.397275 0.40625)"/>
    </g>
   </g>
   <g id="text_12">
    <!-- 轨迹：线段 -->
    <g style="fill: #e8927c" transform="translate(457 220.149816) scale(0.26 -0.26)">
     <defs>
      <path id="LXGWWenKai-Regular-7ebf" d="M 1837 1888 
Q 2112 1933 2281 1961 
Q 2451 1990 2544 1984 
Q 2637 1978 2630 1926 
Q 2624 1837 2243 1680 
Q 1862 1523 1430 1414 
Q 998 1306 928 1312 
Q 858 1318 813 1357 
Q 691 1504 659 1609 
Q 627 1715 627 1728 
Q 634 1786 698 1779 
L 794 1773 
Q 922 1760 1043 1766 
Q 1299 2144 1517 2515 
L 1574 2605 
Q 1088 2944 608 3149 
Q 499 3200 486 3251 
Q 474 3302 518 3401 
Q 563 3501 624 3513 
Q 685 3526 806 3482 
Q 832 3469 851 3462 
Q 1395 4250 1510 4544 
Q 1626 4838 1626 4979 
L 1626 5043 
Q 1626 5114 1677 5114 
Q 1709 5114 1798 5062 
Q 2042 4915 2042 4781 
Q 2003 4621 1792 4250 
Q 1600 3904 1171 3290 
L 1325 3206 
Q 1600 3053 1779 2931 
Q 2202 3648 2246 3834 
Q 2259 3891 2265 3987 
Q 2272 4083 2307 4083 
Q 2342 4083 2426 4032 
Q 2662 3891 2669 3750 
Q 2669 3706 2650 3661 
Q 2093 2688 1504 1830 
Q 1664 1862 1837 1888 
z
M 1549 627 
Q 2099 845 2419 989 
Q 2739 1133 2796 1139 
Q 2854 1146 2861 1126 
Q 2874 986 1926 442 
Q 979 -102 813 -115 
Q 768 -122 681 -45 
Q 595 32 534 128 
Q 474 224 467 275 
Q 467 301 531 307 
L 595 314 
Q 698 320 883 378 
L 1549 627 
z
M 5274 4154 
Q 5171 4019 4992 4192 
Q 4640 4550 4461 4688 
Q 4282 4826 4291 4890 
Q 4301 4954 4355 5014 
Q 4410 5075 4451 5062 
Q 4493 5050 4595 4979 
Q 5370 4467 5350 4282 
Q 5338 4237 5274 4154 
z
M 3987 3226 
Q 4122 2598 4141 2483 
L 5254 2682 
Q 5357 2701 5424 2736 
Q 5491 2771 5523 2774 
Q 5555 2778 5632 2733 
Q 5837 2598 5850 2490 
Q 5862 2419 5702 2387 
L 4237 2125 
L 4294 1920 
Q 4307 1888 4320 1856 
Q 4333 1824 4384 1667 
Q 4435 1510 4582 1222 
Q 5101 1638 5165 1724 
Q 5229 1811 5241 1891 
Q 5254 1971 5289 1971 
Q 5325 1971 5395 1914 
Q 5587 1741 5587 1600 
Q 5587 1542 5530 1485 
Q 5139 1146 4768 896 
Q 5165 269 5683 -70 
Q 5702 -77 5718 -86 
Q 5734 -96 5747 -96 
Q 5843 -96 6048 896 
Q 6106 1171 6173 1171 
Q 6240 1171 6240 922 
L 6240 870 
Q 6234 390 6144 -218 
Q 6118 -397 6048 -473 
Q 5978 -550 5805 -550 
Q 5632 -550 5389 -390 
Q 4896 -70 4435 685 
Q 3571 186 2534 -90 
Q 2342 -141 2281 -141 
Q 2221 -141 2221 -96 
Q 2221 -26 2387 38 
Q 3603 563 4256 998 
Q 4205 1107 4150 1222 
Q 4096 1338 3910 1850 
L 3859 2054 
L 3187 1939 
L 3091 1926 
Q 2989 1914 2893 1965 
Q 2797 2016 2701 2202 
Q 2669 2278 2726 2285 
Q 2752 2291 2829 2281 
Q 2906 2272 3085 2291 
L 3757 2406 
Q 3718 2573 3686 2739 
L 3610 3149 
L 3277 3085 
L 3181 3072 
Q 3014 3046 2950 3136 
Q 2906 3181 2848 3267 
Q 2790 3354 2790 3386 
Q 2778 3437 2854 3430 
Q 2963 3418 3078 3437 
L 3162 3443 
L 3552 3520 
L 3501 3878 
Q 3450 4218 3418 4538 
Q 3386 4858 3357 4928 
Q 3328 4998 3277 5056 
Q 3226 5114 3226 5146 
Q 3226 5197 3293 5197 
Q 3360 5197 3469 5190 
Q 3763 5165 3776 4979 
Q 3808 4493 3878 3936 
L 3923 3610 
L 3923 3590 
L 4774 3750 
Q 4832 3763 4921 3798 
Q 5011 3834 5052 3840 
Q 5094 3846 5177 3808 
Q 5261 3770 5325 3712 
Q 5510 3526 5210 3469 
L 3987 3226 
z
" transform="scale(0.015625)"/>
      <path id="LXGWWenKai-Regular-6bb5" d="M 4890 2714 
Q 4525 2771 4525 3136 
L 4525 3149 
L 4544 4320 
L 3680 4256 
L 3680 4128 
Q 3680 3738 3622 3446 
Q 3565 3155 3401 2908 
Q 3238 2662 3078 2537 
Q 2918 2413 2867 2413 
Q 2829 2413 2829 2461 
Q 2829 2509 2880 2579 
Q 3155 2995 3219 3353 
Q 3283 3712 3283 3865 
Q 3283 4019 3276 4240 
Q 3270 4461 3232 4553 
Q 3194 4646 3194 4688 
Q 3194 4730 3264 4730 
Q 3334 4730 3654 4595 
L 4602 4678 
Q 4634 4685 4659 4685 
Q 4685 4685 4710 4685 
Q 4838 4685 4902 4592 
Q 4966 4499 4966 4467 
L 4947 4365 
L 4902 3213 
L 4902 3194 
Q 4902 3130 4953 3107 
Q 5005 3085 5133 3085 
Q 5261 3085 5286 3091 
Q 5312 3098 5376 3107 
Q 5440 3117 5501 3139 
Q 5562 3162 5603 3162 
Q 5645 3162 5734 3104 
Q 5958 2950 5958 2842 
Q 5958 2765 5805 2752 
Q 5318 2656 4890 2714 
z
M 1056 704 
L 915 653 
Q 678 557 608 557 
Q 538 557 461 627 
Q 384 698 329 781 
Q 275 864 275 899 
Q 275 934 384 947 
Q 493 960 1056 1114 
L 1024 3898 
Q 1024 4019 969 4121 
Q 915 4224 915 4243 
Q 915 4301 1001 4301 
Q 1088 4301 1206 4256 
Q 1325 4211 1331 4205 
Q 1843 4422 2182 4691 
Q 2342 4819 2377 4908 
Q 2413 4998 2461 4998 
Q 2509 4998 2579 4931 
Q 2650 4864 2701 4777 
Q 2752 4691 2752 4633 
Q 2752 4576 2682 4525 
Q 2048 4115 1421 3910 
L 1427 3392 
L 2112 3443 
Q 2266 3456 2336 3488 
Q 2406 3520 2451 3520 
Q 2496 3520 2573 3465 
Q 2650 3411 2707 3340 
Q 2765 3270 2765 3226 
Q 2765 3142 2624 3130 
L 1427 3053 
L 1434 2483 
L 2112 2522 
Q 2246 2534 2320 2563 
Q 2394 2592 2442 2592 
Q 2490 2592 2566 2547 
Q 2765 2419 2765 2304 
Q 2765 2221 2624 2208 
L 1440 2131 
L 1446 1229 
Q 2074 1427 2771 1683 
Q 2867 1715 2940 1715 
Q 3014 1715 3014 1657 
Q 3014 1600 2880 1510 
Q 2426 1216 1446 851 
L 1459 -378 
Q 1459 -531 1338 -531 
Q 1235 -531 1123 -464 
Q 1011 -397 1011 -282 
L 1011 -250 
Q 1011 -230 1036 -96 
Q 1062 38 1062 224 
L 1056 704 
z
M 3232 2323 
L 5069 2413 
L 5139 2413 
Q 5267 2413 5340 2345 
Q 5414 2278 5414 2201 
Q 5414 2125 5139 1632 
Q 4864 1139 4422 710 
Q 5158 102 6067 -224 
Q 6195 -269 6195 -313 
Q 6195 -358 6124 -422 
Q 6054 -486 5971 -534 
Q 5888 -582 5859 -582 
Q 5830 -582 5673 -518 
Q 5517 -454 5274 -320 
Q 4666 0 4154 454 
Q 3443 -128 2701 -435 
Q 2400 -563 2301 -563 
Q 2202 -563 2202 -518 
Q 2202 -442 2387 -346 
Q 3206 96 3878 710 
Q 3462 1146 3308 1363 
Q 3155 1581 3155 1629 
Q 3155 1677 3228 1747 
Q 3302 1818 3363 1818 
Q 3424 1818 3494 1728 
Q 3776 1325 4147 960 
Q 4659 1498 4877 2054 
L 3475 1978 
L 3309 1971 
Q 3181 1971 3123 2016 
Q 2944 2182 2944 2323 
Q 2944 2355 2973 2355 
Q 3002 2355 3059 2339 
Q 3117 2323 3232 2323 
z
" transform="scale(0.015625)"/>
     </defs>
     <use xlink:href="#LXGWWenKai-Regular-8f68"/>
     <use xlink:href="#LXGWWenKai-Regular-8ff9" transform="translate(99.999985 0)"/>
     <use xlink:href="#LXGWWenKai-Regular-ff1a" transform="translate(199.999969 0)"/>
     <use xlink:href="#LXGWWenKai-Regular-7ebf" transform="translate(299.999954 0)"/>
     <use xlink:href="#LXGWWenKai-Regular-6bb5" transform="translate(399.999939 0)"/>
    </g>
   </g>
  </g>
  <g id="axes_3">
   <g id="line2d_5">
    <path d="M 802.164706 134.38511 
L 859.341176 134.38511 
" clip-path="url(#p6112a030a0)" style="fill: none; stroke-dasharray: 14.8,6.4; stroke-dashoffset: 0; stroke: #e8927c; stroke-width: 4"/>
   </g>
   <g id="line2d_6">
    <path d="M 954.635294 134.38511 
L 897.458824 134.38511 
" clip-path="url(#p6112a030a0)" style="fill: none; stroke-dasharray: 14.8,6.4; stroke-dashoffset: 0; stroke: #e8927c; stroke-width: 4"/>
   </g>
   <g id="line2d_7">
    <g clip-path="url(#p6112a030a0)">
     <use xlink:href="#m1ae49b012e" x="802.164706" y="134.38511" style="fill: #5d4e37; stroke: #5d4e37"/>
     <use xlink:href="#m1ae49b012e" x="954.635294" y="134.38511" style="fill: #5d4e37; stroke: #5d4e37"/>
    </g>
   </g>
   <g id="text_13">
    <!-- $F_1$ -->
    <g transform="translate(791.054706 153.443934) scale(0.22 -0.22)">
     <use xlink:href="#STIXGeneral-Italic-46" transform="translate(0 0.703125)"/>
     <use xlink:href="#STIXGeneral-Regular-31" transform="translate(61.099991 -12.525) scale(0.7)"/>
    </g>
   </g>
   <g id="text_14">
    <!-- $F_2$ -->
    <g transform="translate(943.525294 153.443934) scale(0.22 -0.22)">
     <use xlink:href="#STIXGeneral-Italic-46" transform="translate(0 0.703125)"/>
     <use xlink:href="#STIXGeneral-Regular-32" transform="translate(61.099991 -12.525) scale(0.7)"/>
    </g>
   </g>
   <g id="text_15">
    <!-- 绳子太短：够不着 -->
    <g style="fill: #5d4e37" transform="translate(766.4 24.796875) scale(0.28 -0.28)">
     <defs>
      <path id="LXGWWenKai-Regular-592a" d="M 659 3174 
Q 787 3142 966 3142 
L 1050 3142 
L 2778 3245 
Q 2931 3949 2963 4672 
L 2963 4698 
Q 2963 4826 2912 4928 
Q 2861 5030 2861 5068 
Q 2861 5107 2937 5107 
Q 3014 5107 3174 5043 
Q 3334 4979 3382 4918 
Q 3430 4858 3430 4762 
L 3430 4736 
Q 3392 3968 3238 3270 
L 5216 3386 
Q 5370 3398 5421 3420 
Q 5472 3443 5523 3443 
Q 5574 3443 5667 3376 
Q 5760 3309 5827 3225 
Q 5894 3142 5894 3098 
Q 5894 3021 5709 3002 
L 3488 2880 
Q 4141 1606 5133 730 
Q 5626 301 6144 32 
Q 6259 -26 6259 -80 
Q 6259 -134 6112 -243 
Q 5965 -352 5856 -352 
Q 5830 -352 5632 -230 
Q 5126 83 4480 768 
Q 3661 1632 3123 2797 
Q 2778 1664 2218 989 
Q 1658 314 986 -102 
Q 704 -282 502 -368 
Q 301 -454 237 -454 
Q 173 -454 173 -416 
Q 173 -333 346 -224 
Q 947 160 1510 768 
Q 2342 1645 2675 2835 
L 1190 2758 
L 992 2752 
Q 896 2752 800 2800 
Q 704 2848 627 3098 
Q 621 3110 621 3142 
Q 621 3174 659 3174 
z
M 3446 640 
Q 3571 512 3651 409 
Q 3731 307 3731 252 
Q 3731 198 3638 105 
Q 3546 13 3478 13 
Q 3411 13 3347 96 
Q 2880 698 2611 934 
Q 2528 1011 2528 1072 
Q 2528 1133 2608 1197 
Q 2688 1261 2739 1261 
Q 2790 1261 2835 1222 
Q 2880 1184 2973 1094 
Q 3066 1005 3194 886 
Q 3322 768 3446 640 
z
" transform="scale(0.015625)"/>
      <path id="LXGWWenKai-Regular-77ed" d="M 2394 2496 
L 2554 2528 
Q 2669 2528 2816 2355 
Q 2880 2291 2880 2253 
Q 2880 2182 2733 2170 
L 1779 2112 
L 1741 1856 
Q 2752 819 2752 646 
Q 2752 576 2662 493 
Q 2573 410 2512 410 
Q 2451 410 2374 525 
Q 2048 1030 1658 1466 
L 1619 1350 
Q 1382 640 890 128 
Q 691 -83 544 -185 
Q 397 -288 349 -288 
Q 301 -288 301 -237 
Q 301 -186 378 -90 
Q 947 576 1190 1190 
Q 1344 1581 1402 2086 
L 717 2048 
L 525 2042 
Q 416 2042 349 2112 
Q 282 2182 256 2262 
Q 230 2342 230 2368 
Q 230 2394 269 2394 
L 294 2394 
Q 403 2374 493 2374 
L 1440 2432 
Q 1478 2854 1478 3379 
L 1088 3360 
Q 870 2950 697 2720 
Q 525 2490 474 2490 
Q 442 2490 442 2534 
Q 442 2579 570 2870 
Q 698 3162 835 3594 
Q 973 4026 1037 4314 
Q 1101 4602 1101 4669 
Q 1101 4736 1081 4797 
Q 1062 4858 1062 4877 
Q 1062 4934 1129 4934 
Q 1197 4934 1293 4902 
Q 1555 4832 1555 4691 
Q 1555 4608 1449 4278 
Q 1344 3949 1242 3699 
L 2061 3744 
Q 2234 3763 2278 3776 
Q 2323 3789 2368 3789 
Q 2413 3789 2483 3737 
Q 2554 3686 2602 3622 
Q 2650 3558 2650 3520 
Q 2650 3456 2515 3443 
L 1850 3405 
Q 1837 2880 1811 2458 
L 2278 2483 
Q 2336 2490 2394 2496 
z
M 3098 4096 
Q 3046 4090 2995 4090 
L 2918 4090 
Q 2797 4090 2765 4115 
Q 2560 4333 2560 4442 
Q 2560 4467 2589 4467 
Q 2618 4467 2678 4451 
Q 2739 4435 2880 4435 
L 2976 4435 
L 5197 4563 
Q 5331 4576 5408 4601 
Q 5485 4627 5510 4627 
Q 5536 4627 5613 4576 
Q 5830 4429 5830 4333 
Q 5830 4256 5677 4243 
L 3098 4096 
z
M 5363 2253 
Q 5549 2067 5549 2003 
Q 5549 1939 5488 1932 
Q 5427 1926 5344 1920 
L 3514 1862 
L 3520 1786 
L 3520 1760 
Q 3520 1651 3437 1651 
Q 3379 1651 3283 1690 
Q 3091 1766 3091 1907 
L 3091 1939 
Q 3110 2170 3110 2202 
L 3110 2266 
Q 3110 2285 3104 2310 
L 3027 3098 
Q 3008 3270 2953 3376 
Q 2899 3482 2899 3507 
Q 2899 3558 2985 3558 
Q 3072 3558 3398 3437 
L 5197 3520 
L 5235 3520 
Q 5434 3520 5510 3347 
Q 5536 3290 5536 3267 
Q 5536 3245 5520 3219 
Q 5504 3194 5498 3162 
L 5363 2253 
z
M 5069 3155 
L 3424 3091 
L 3488 2227 
L 4973 2266 
L 5069 3155 
z
M 2310 288 
L 2330 282 
Q 2490 211 2675 211 
L 2714 211 
L 4294 262 
Q 4666 813 4800 1155 
Q 4934 1498 4934 1606 
L 4934 1638 
Q 4934 1728 4985 1728 
Q 5037 1728 5120 1677 
Q 5350 1542 5350 1402 
Q 5350 1325 5072 889 
Q 4794 454 4621 269 
L 5632 301 
Q 5773 301 5830 323 
Q 5888 346 5929 346 
Q 5971 346 6048 282 
Q 6240 134 6240 67 
Q 6240 0 6195 -22 
Q 6150 -45 6086 -51 
L 2848 -160 
L 2707 -160 
Q 2547 -160 2505 -134 
Q 2464 -109 2381 13 
Q 2285 192 2285 240 
Q 2285 288 2310 288 
z
M 3878 950 
Q 3955 813 4003 710 
Q 4051 608 4051 563 
Q 4051 518 3994 474 
Q 3866 384 3789 384 
Q 3712 384 3648 538 
Q 3469 966 3347 1142 
Q 3226 1318 3226 1379 
Q 3226 1440 3306 1485 
Q 3386 1530 3443 1530 
Q 3501 1530 3565 1446 
Q 3629 1363 3715 1225 
Q 3802 1088 3878 950 
z
" transform="scale(0.015625)"/>
      <path id="LXGWWenKai-Regular-7740" d="M 5280 2989 
Q 5376 2995 5453 3017 
Q 5530 3040 5568 3040 
Q 5606 3040 5677 2995 
Q 5862 2867 5862 2771 
Q 5862 2701 5728 2688 
L 2650 2547 
Q 2541 2336 2413 2131 
L 4563 2246 
L 4627 2246 
Q 4755 2246 4828 2179 
Q 4902 2112 4902 2061 
Q 4902 2010 4889 1978 
Q 4877 1946 4870 1920 
L 4742 96 
Q 4890 -77 4890 -134 
Q 4890 -192 4845 -201 
Q 4800 -211 4730 -218 
L 2426 -294 
L 2432 -486 
L 2432 -499 
Q 2432 -627 2307 -627 
Q 2182 -627 2096 -544 
Q 2010 -461 2010 -365 
Q 2042 -173 2042 -90 
L 2042 -51 
L 1984 1510 
Q 1581 1018 1018 608 
Q 730 397 531 297 
Q 333 198 288 198 
Q 243 198 243 249 
Q 243 301 371 410 
Q 1504 1286 2061 2272 
Q 2131 2400 2202 2528 
L 1005 2470 
L 838 2464 
Q 717 2464 646 2537 
Q 576 2611 550 2684 
Q 525 2758 525 2765 
Q 525 2810 553 2810 
Q 582 2810 636 2794 
Q 691 2778 826 2778 
L 896 2778 
L 2362 2848 
Q 2413 2957 2458 3066 
L 2541 3270 
L 1907 3238 
L 1715 3232 
L 1658 3232 
Q 1523 3264 1414 3482 
Q 1402 3501 1402 3536 
Q 1402 3571 1434 3571 
Q 1466 3571 1514 3555 
Q 1562 3539 1690 3539 
L 2656 3590 
Q 2720 3782 2765 3942 
L 1568 3878 
L 1408 3872 
Q 1197 3872 1101 4077 
Q 1056 4173 1056 4179 
Q 1056 4218 1101 4218 
Q 1261 4186 1382 4186 
L 1459 4186 
L 3251 4288 
Q 4032 4947 4032 5203 
Q 4032 5293 4099 5293 
Q 4166 5293 4250 5235 
Q 4461 5075 4461 4988 
Q 4461 4902 4070 4582 
Q 3898 4442 3706 4314 
L 4723 4371 
Q 4896 4390 4934 4406 
Q 4973 4422 5011 4422 
Q 5050 4422 5171 4339 
Q 5293 4256 5293 4160 
Q 5293 4096 5165 4077 
L 3219 3968 
Q 3168 3802 3110 3616 
L 4333 3680 
Q 4403 3686 4489 3708 
Q 4576 3731 4617 3731 
Q 4659 3731 4780 3641 
Q 4902 3552 4902 3488 
Q 4902 3424 4864 3408 
Q 4826 3392 4774 3386 
L 2989 3296 
L 2893 3072 
Q 2854 2970 2810 2867 
L 5280 2989 
z
M 2509 4416 
Q 2195 4685 1875 4870 
Q 1792 4915 1792 4969 
Q 1792 5024 1849 5101 
Q 1907 5178 1948 5178 
Q 1990 5178 2182 5078 
Q 2374 4979 2630 4800 
Q 2886 4621 2886 4550 
Q 2886 4499 2816 4409 
Q 2746 4320 2685 4320 
Q 2624 4320 2509 4416 
z
M 4448 1926 
L 2342 1818 
L 2355 1440 
L 4429 1536 
L 4448 1926 
z
M 4416 1248 
L 2368 1158 
L 2381 762 
L 4397 858 
L 4416 1248 
z
M 4384 563 
L 2394 474 
L 2413 26 
L 4358 90 
L 4384 563 
z
" transform="scale(0.015625)"/>
     </defs>
     <use xlink:href="#LXGWWenKai-Regular-7ef3"/>
     <use xlink:href="#LXGWWenKai-Regular-5b50" transform="translate(99.999985 0)"/>
     <use xlink:href="#LXGWWenKai-Regular-592a" transform="translate(199.999969 0)"/>
     <use xlink:href="#LXGWWenKai-Regular-77ed" transform="translate(299.999954 0)"/>
     <use xlink:href="#LXGWWenKai-Regular-ff1a" transform="translate(399.999939 0)"/>
     <use xlink:href="#LXGWWenKai-Regular-591f" transform="translate(499.999924 0)"/>
     <use xlink:href="#LXGWWenKai-Regular-4e0d" transform="translate(599.999908 0)"/>
     <use xlink:href="#LXGWWenKai-Regular-7740" transform="translate(699.999893 0)"/>
    </g>
   </g>
   <g id="text_16">
    <!-- $|MF_1| + |MF_2| &lt; |F_1F_2|$ -->
    <g style="fill: #5d4e37" transform="translate(772.32 191.561581) scale(0.24 -0.24)">
     <defs>
      <path id="STIXGeneral-Regular-3c" d="M 3974 -154 
L 358 1594 
L 358 1658 
L 3974 3418 
L 3974 3002 
L 1210 1626 
L 3974 250 
L 3974 -154 
z
" transform="scale(0.015625)"/>
     </defs>
     <use xlink:href="#STIXGeneral-Regular-7c" transform="translate(0 0.40625)"/>
     <use xlink:href="#STIXGeneral-Italic-4d" transform="translate(19.999985 0.40625)"/>
     <use xlink:href="#STIXGeneral-Italic-46" transform="translate(103.299973 0.40625)"/>
     <use xlink:href="#STIXGeneral-Regular-31" transform="translate(164.399963 -12.821875) scale(0.7)"/>
     <use xlink:href="#STIXGeneral-Regular-7c" transform="translate(203.809328 0.40625)"/>
     <use xlink:href="#STIXGeneral-Regular-2b" transform="translate(238.249309 0.40625)"/>
     <use xlink:href="#STIXGeneral-Regular-7c" transform="translate(321.18929 0.40625)"/>
     <use xlink:href="#STIXGeneral-Italic-4d" transform="translate(341.189275 0.40625)"/>
     <use xlink:href="#STIXGeneral-Italic-46" transform="translate(424.489262 0.40625)"/>
     <use xlink:href="#STIXGeneral-Regular-32" transform="translate(485.589253 -12.821875) scale(0.7)"/>
     <use xlink:href="#STIXGeneral-Regular-7c" transform="translate(524.998618 0.40625)"/>
     <use xlink:href="#STIXGeneral-Regular-3c" transform="translate(559.438599 0.40625)"/>
     <use xlink:href="#STIXGeneral-Regular-7c" transform="translate(642.37858 0.40625)"/>
     <use xlink:href="#STIXGeneral-Italic-46" transform="translate(662.378564 0.40625)"/>
     <use xlink:href="#STIXGeneral-Regular-31" transform="translate(723.478555 -12.821875) scale(0.7)"/>
     <use xlink:href="#STIXGeneral-Italic-46" transform="translate(762.88792 0.40625)"/>
     <use xlink:href="#STIXGeneral-Regular-32" transform="translate(823.98791 -12.821875) scale(0.7)"/>
     <use xlink:href="#STIXGeneral-Regular-7c" transform="translate(863.397275 0.40625)"/>
    </g>
   </g>
   <g id="text_17">
    <!-- 轨迹：不存在 -->
    <g style="fill: #e8927c" transform="translate(800.4 220.149816) scale(0.26 -0.26)">
     <defs>
      <path id="LXGWWenKai-Regular-5b58" d="M 3142 5142 
Q 3245 5094 3328 5024 
Q 3411 4954 3411 4890 
Q 3411 4826 3110 4224 
L 4992 4333 
Q 5120 4339 5203 4368 
Q 5286 4397 5350 4397 
Q 5414 4397 5491 4339 
Q 5670 4192 5670 4102 
Q 5670 4026 5517 4013 
L 2912 3866 
Q 2490 3078 1933 2419 
L 1926 -461 
Q 1926 -595 1818 -595 
L 1728 -576 
Q 1472 -499 1472 -358 
Q 1472 -326 1494 -227 
Q 1517 -128 1517 90 
L 1536 2010 
Q 954 1453 474 1146 
Q 333 1056 278 1056 
Q 224 1056 224 1117 
Q 224 1178 461 1382 
Q 1037 1894 1542 2509 
Q 1542 2662 1488 2752 
Q 1434 2842 1434 2880 
Q 1434 2918 1507 2918 
Q 1581 2918 1805 2835 
Q 2112 3245 2426 3840 
L 1242 3770 
L 1082 3763 
Q 941 3763 870 3849 
Q 800 3936 774 4019 
L 749 4102 
Q 749 4141 781 4141 
Q 813 4141 867 4125 
Q 922 4109 1030 4109 
L 2630 4198 
Q 2931 4736 2931 4986 
L 2918 5094 
L 2918 5114 
Q 2918 5190 2979 5190 
Q 3040 5190 3142 5142 
z
M 2566 1293 
L 2419 1286 
Q 2278 1286 2227 1338 
Q 2048 1517 2048 1632 
Q 2048 1670 2080 1670 
Q 2112 1670 2179 1648 
Q 2246 1626 2394 1626 
L 2438 1626 
L 3910 1696 
Q 3821 1990 3753 2115 
Q 3686 2240 3686 2294 
Q 3686 2349 3772 2393 
Q 3859 2438 3898 2438 
Q 3974 2438 4045 2310 
Q 4390 2611 4659 2989 
L 3226 2880 
Q 3181 2874 3136 2874 
L 3059 2874 
Q 2925 2874 2893 2906 
Q 2707 3091 2707 3213 
Q 2707 3258 2758 3258 
Q 2784 3258 2841 3242 
Q 2899 3226 3040 3226 
L 3110 3226 
L 4870 3347 
L 4934 3347 
Q 5018 3347 5110 3286 
Q 5203 3226 5203 3155 
Q 5203 3085 5161 3046 
Q 5120 3008 5088 2970 
Q 4755 2496 4198 2010 
Q 4256 1862 4294 1715 
L 5459 1766 
Q 5638 1786 5702 1808 
Q 5766 1830 5817 1830 
Q 5869 1830 6006 1724 
Q 6144 1619 6144 1530 
Q 6144 1466 5978 1453 
L 4371 1376 
Q 4435 992 4435 598 
Q 4435 205 4412 -57 
Q 4390 -320 4316 -486 
Q 4243 -653 4083 -653 
Q 3853 -653 3270 -205 
Q 2938 45 2938 141 
Q 2938 179 2998 179 
Q 3059 179 3308 64 
Q 3558 -51 3747 -105 
Q 3936 -160 3961 -160 
Q 3987 -160 4019 70 
Q 4051 301 4051 646 
Q 4051 992 3987 1363 
L 2566 1293 
z
" transform="scale(0.015625)"/>
      <path id="LXGWWenKai-Regular-5728" d="M 2874 5030 
Q 2874 5107 2867 5171 
Q 2861 5235 2912 5235 
Q 2938 5235 3040 5197 
Q 3334 5088 3334 4954 
Q 3334 4934 3232 4649 
Q 3130 4365 2944 3987 
L 4979 4115 
Q 5197 4134 5261 4153 
Q 5325 4173 5363 4173 
Q 5402 4173 5491 4122 
Q 5734 3994 5734 3872 
Q 5734 3789 5613 3776 
L 2752 3603 
Q 2394 2925 1914 2298 
L 1894 -416 
Q 1894 -582 1786 -582 
Q 1709 -582 1587 -515 
Q 1466 -448 1466 -333 
Q 1504 -26 1504 218 
L 1523 1837 
Q 1261 1542 947 1286 
Q 378 819 218 819 
Q 179 819 179 864 
Q 179 909 403 1101 
Q 627 1293 937 1635 
Q 1248 1978 1530 2362 
L 1536 2605 
Q 1536 2701 1485 2800 
Q 1434 2899 1434 2937 
Q 1434 2976 1485 2976 
Q 1536 2976 1587 2970 
L 1696 2944 
Q 1830 2931 1888 2874 
Q 2150 3290 2304 3578 
L 1376 3520 
Q 1261 3507 1158 3507 
Q 1056 3507 957 3555 
Q 858 3603 768 3827 
Q 762 3840 762 3866 
Q 762 3910 813 3910 
Q 973 3878 1146 3878 
L 1229 3878 
L 2496 3955 
Q 2874 4806 2874 5030 
z
M 5376 384 
Q 5446 390 5491 393 
Q 5536 397 5722 429 
Q 5830 429 6003 243 
Q 6074 173 6074 122 
Q 6074 32 5920 19 
L 2464 -115 
L 2355 -115 
Q 2157 -115 2099 -38 
Q 1946 141 1946 282 
Q 1946 314 1968 314 
Q 1990 314 2073 282 
Q 2157 250 2304 250 
L 2336 250 
L 3597 307 
L 3610 1728 
L 2835 1683 
L 2714 1677 
Q 2541 1677 2486 1737 
Q 2432 1798 2374 1904 
Q 2317 2010 2317 2054 
Q 2317 2099 2339 2099 
Q 2362 2099 2445 2067 
Q 2528 2035 2675 2035 
L 2707 2035 
L 3610 2099 
L 3616 3104 
Q 3616 3290 3539 3418 
Q 3526 3437 3526 3465 
Q 3526 3494 3596 3494 
Q 3667 3494 3808 3440 
Q 3949 3386 3984 3344 
Q 4019 3302 4019 3213 
L 4013 2131 
L 4730 2182 
Q 4800 2189 4877 2192 
Q 4954 2195 5002 2211 
Q 5050 2227 5088 2227 
Q 5126 2227 5206 2176 
Q 5286 2125 5353 2051 
Q 5421 1978 5421 1926 
Q 5421 1843 5274 1830 
L 4006 1754 
L 3994 320 
L 5376 384 
z
" transform="scale(0.015625)"/>
     </defs>
     <use xlink:href="#LXGWWenKai-Regular-8f68"/>
     <use xlink:href="#LXGWWenKai-Regular-8ff9" transform="translate(99.999985 0)"/>
     <use xlink:href="#LXGWWenKai-Regular-ff1a" transform="translate(199.999969 0)"/>
     <use xlink:href="#LXGWWenKai-Regular-4e0d" transform="translate(299.999954 0)"/>
     <use xlink:href="#LXGWWenKai-Regular-5b58" transform="translate(399.999939 0)"/>
     <use xlink:href="#LXGWWenKai-Regular-5728" transform="translate(499.999924 0)"/>
    </g>
   </g>
  </g>
 </g>
 <defs>
  <clipPath id="pfcf3a3cde0">
   <rect x="3.6" y="15.267463" width="324" height="214.411765"/>
  </clipPath>
  <clipPath id="p04efec5812">
   <rect x="360" y="15.267463" width="324" height="214.411765"/>
  </clipPath>
  <clipPath id="p6112a030a0">
   <rect x="716.4" y="15.267463" width="324" height="214.411765"/>
  </clipPath>
 </defs>
</svg>
