<?xml version="1.0" encoding="utf-8" standalone="no"?>
<!DOCTYPE svg PUBLIC "-//W3C//DTD SVG 1.1//EN"
  "http://www.w3.org/Graphics/SVG/1.1/DTD/svg11.dtd">
<svg xmlns:xlink="http://www.w3.org/1999/xlink" width="1008pt" height="576pt" viewBox="0 0 1008 576" xmlns="http://www.w3.org/2000/svg" version="1.1">
 <metadata>
  <rdf:RDF xmlns:dc="http://purl.org/dc/elements/1.1/" xmlns:cc="http://creativecommons.org/ns#" xmlns:rdf="http://www.w3.org/1999/02/22-rdf-syntax-ns#">
   <cc:Work>
    <dc:type rdf:resource="http://purl.org/dc/dcmitype/StillImage"/>
    <dc:date>2026-02-12T14:35:08.766848</dc:date>
    <dc:format>image/svg+xml</dc:format>
    <dc:creator>
     <cc:Agent>
      <dc:title>Matplotlib v3.10.8, https://matplotlib.org/</dc:title>
     </cc:Agent>
    </dc:creator>
   </cc:Work>
  </rdf:RDF>
 </metadata>
 <defs>
  <style type="text/css">*{stroke-linejoin: round; stroke-linecap: butt}</style>
 </defs>
 <g id="figure_1">
  <g id="patch_1">
   <path d="M 0 576 
L 1008 576 
L 1008 0 
L 0 0 
z
" style="fill: #fefdf5"/>
  </g>
  <g id="axes_1">
   <g id="line2d_1">
    <path d="M 114.567805 429.611707 
L 256.179512 99.18439 
L 397.79122 429.611707 
" clip-path="url(#pbcdd0a3e82)" style="fill: none; stroke: #636363; stroke-width: 1.5; stroke-linecap: square"/>
   </g>
   <g id="line2d_2">
    <path d="M 397.79122 429.611707 
L 397.719924 428.413561 
L 397.506109 427.216622 
L 397.149991 426.022094 
L 396.651927 424.831181 
L 396.012419 423.645081 
L 395.232111 422.464989 
L 394.31179 421.292094 
L 393.25238 420.127575 
L 392.05495 418.972606 
L 390.720705 417.82835 
L 389.250989 416.695959 
L 387.64728 415.576573 
L 385.911195 414.471319 
L 384.044481 413.38131 
L 382.049018 412.307643 
L 379.926814 411.251401 
L 377.680008 410.213645 
L 375.310861 409.195422 
L 372.821759 408.197757 
L 370.215208 407.221653 
L 367.493833 406.268094 
L 364.660374 405.33804 
L 361.717683 404.432428 
L 358.668725 403.552169 
L 355.516569 402.69815 
L 352.264388 401.871231 
L 348.915459 401.072244 
L 345.473152 400.301994 
L 341.940934 399.561256 
L 338.322362 398.850776 
L 334.621078 398.17127 
L 330.840811 397.523422 
L 326.985366 396.907884 
L 323.058625 396.325276 
L 319.064543 395.776185 
L 315.007141 395.261163 
L 310.890505 394.78073 
L 306.718779 394.335368 
L 302.496165 393.925526 
L 298.226913 393.551618 
L 293.915324 393.214018 
L 289.565738 392.913069 
L 285.182534 392.649071 
L 280.770127 392.422292 
L 276.332959 392.232959 
L 271.875499 392.081264 
L 267.402234 391.967359 
L 262.917669 391.891358 
L 258.426318 391.853339 
L 253.932706 391.853339 
L 249.441356 391.891358 
L 244.95679 391.967359 
L 240.483525 392.081264 
L 236.026065 392.232959 
L 231.588897 392.422292 
L 227.17649 392.649071 
L 222.793287 392.913069 
L 218.4437 393.214018 
L 214.132111 393.551618 
L 209.86286 393.925526 
L 205.640245 394.335368 
L 201.468519 394.78073 
L 197.351883 395.261163 
L 193.294481 395.776185 
L 189.300399 396.325276 
L 185.373659 396.907884 
L 181.518214 397.523422 
L 177.737946 398.17127 
L 174.036663 398.850776 
L 170.41809 399.561256 
L 166.885872 400.301994 
L 163.443566 401.072244 
L 160.094636 401.871231 
L 156.842456 402.69815 
L 153.690299 403.552169 
L 150.641341 404.432428 
L 147.698651 405.33804 
L 144.865191 406.268094 
L 142.143816 407.221653 
L 139.537265 408.197757 
L 137.048163 409.195422 
L 134.679016 410.213645 
L 132.43221 411.251401 
L 130.310007 412.307643 
L 128.314544 413.38131 
L 126.447829 414.471319 
L 124.711744 415.576573 
L 123.108036 416.695959 
L 121.638319 417.82835 
L 120.304074 418.972606 
L 119.106644 420.127575 
L 118.047235 421.292094 
L 117.126913 422.464989 
L 116.346605 423.645081 
L 115.707098 424.831181 
L 115.209034 426.022094 
L 114.852915 427.216622 
L 114.6391 428.413561 
L 114.567805 429.611707 
" clip-path="url(#pbcdd0a3e82)" style="fill: none; stroke-dasharray: 3.7,1.6; stroke-dashoffset: 0; stroke: #636363; stroke-opacity: 0.5"/>
   </g>
   <g id="line2d_3">
    <path d="M 114.567805 429.611707 
L 114.6391 430.809853 
L 114.852915 432.006793 
L 115.209034 433.20132 
L 115.707098 434.392234 
L 116.346605 435.578333 
L 117.126913 436.758425 
L 118.047235 437.931321 
L 119.106644 439.095839 
L 120.304074 440.250808 
L 121.638319 441.395064 
L 123.108036 442.527456 
L 124.711744 443.646842 
L 126.447829 444.752096 
L 128.314544 445.842105 
L 130.310007 446.915771 
L 132.43221 447.972014 
L 134.679016 449.009769 
L 137.048163 450.027992 
L 139.537265 451.025658 
L 142.143816 452.001762 
L 144.865191 452.95532 
L 147.698651 453.885374 
L 150.641341 454.790986 
L 153.690299 455.671245 
L 156.842456 456.525264 
L 160.094636 457.352184 
L 163.443566 458.151171 
L 166.885872 458.921421 
L 170.41809 459.662159 
L 174.036663 460.372638 
L 177.737946 461.052144 
L 181.518214 461.699992 
L 185.373659 462.31553 
L 189.300399 462.898138 
L 193.294481 463.447229 
L 197.351883 463.962251 
L 201.468519 464.442685 
L 205.640245 464.888047 
L 209.86286 465.297888 
L 214.132111 465.671797 
L 218.4437 466.009396 
L 222.793287 466.310346 
L 227.17649 466.574343 
L 231.588897 466.801123 
L 236.026065 466.990455 
L 240.483525 467.14215 
L 244.95679 467.256056 
L 249.441356 467.332056 
L 253.932706 467.370076 
L 258.426318 467.370076 
L 262.917669 467.332056 
L 267.402234 467.256056 
L 271.875499 467.14215 
L 276.332959 466.990455 
L 280.770127 466.801123 
L 285.182534 466.574343 
L 289.565738 466.310346 
L 293.915324 466.009396 
L 298.226913 465.671797 
L 302.496165 465.297888 
L 306.718779 464.888047 
L 310.890505 464.442685 
L 315.007141 463.962251 
L 319.064543 463.447229 
L 323.058625 462.898138 
L 326.985366 462.31553 
L 330.840811 461.699992 
L 334.621078 461.052144 
L 338.322362 460.372638 
L 341.940934 459.662159 
L 345.473152 458.921421 
L 348.915459 458.151171 
L 352.264388 457.352184 
L 355.516569 456.525264 
L 358.668725 455.671245 
L 361.717683 454.790986 
L 364.660374 453.885374 
L 367.493833 452.95532 
L 370.215208 452.001762 
L 372.821759 451.025658 
L 375.310861 450.027992 
L 377.680008 449.009769 
L 379.926814 447.972014 
L 382.049018 446.915771 
L 384.044481 445.842105 
L 385.911195 444.752096 
L 387.64728 443.646842 
L 389.250989 442.527456 
L 390.720705 441.395064 
L 392.05495 440.250808 
L 393.25238 439.095839 
L 394.31179 437.931321 
L 395.232111 436.758425 
L 396.012419 435.578333 
L 396.651927 434.392234 
L 397.149991 433.20132 
L 397.506109 432.006793 
L 397.719924 430.809853 
L 397.79122 429.611707 
" clip-path="url(#pbcdd0a3e82)" style="fill: none; stroke: #636363; stroke-width: 1.5; stroke-linecap: square"/>
   </g>
   <g id="line2d_4">
    <path d="M 256.179512 429.611707 
L 256.179512 70.862049 
" clip-path="url(#pbcdd0a3e82)" style="fill: none; stroke-dasharray: 6.4,1.6,1,1.6; stroke-dashoffset: 0; stroke: #636363; stroke-opacity: 0.6"/>
   </g>
   <g id="patch_2">
    <path d="M 67.363902 221.914537 
L 369.468878 221.914537 
L 444.995122 297.44078 
L 142.890146 297.44078 
z
" clip-path="url(#pbcdd0a3e82)" style="fill: #b3cde3; opacity: 0.3; stroke: #111111; stroke-linejoin: miter"/>
   </g>
   <g id="text_1">
    <!-- 轴 -->
    <g transform="translate(244.179512 61.421268) scale(0.24 -0.24)">
     <defs>
      <path id="LXGWWenKai-Regular-8f74" d="M 5626 294 
Q 5779 102 5779 35 
Q 5779 -32 5731 -41 
Q 5683 -51 5606 -58 
L 3552 -115 
L 3558 -275 
L 3558 -294 
Q 3558 -442 3462 -442 
Q 3341 -442 3251 -355 
Q 3162 -269 3162 -192 
L 3168 -115 
L 3168 237 
L 3053 2765 
Q 3046 2995 2957 3181 
Q 2944 3200 2944 3219 
Q 2944 3264 3017 3264 
Q 3091 3264 3405 3142 
L 4179 3187 
L 4179 4627 
Q 4179 4774 4124 4857 
Q 4070 4941 4070 4973 
Q 4070 5024 4140 5024 
Q 4211 5024 4345 4982 
Q 4480 4941 4521 4889 
Q 4563 4838 4563 4774 
L 4563 3213 
L 5504 3270 
L 5581 3277 
Q 5728 3277 5818 3110 
Q 5850 3059 5850 3027 
Q 5850 2995 5830 2960 
Q 5811 2925 5805 2886 
L 5626 294 
z
M 5402 2912 
L 4563 2867 
L 4550 1805 
L 5350 1843 
L 5402 2912 
z
M 4179 2842 
L 3418 2803 
L 3475 1754 
L 4186 1786 
L 4179 2842 
z
M 5331 1504 
L 4550 1466 
L 4550 256 
L 5274 275 
L 5331 1504 
z
M 4186 1446 
L 3488 1414 
L 3539 230 
L 4186 243 
L 4186 1446 
z
M 2131 -448 
Q 2131 -595 2048 -595 
L 2022 -595 
L 2016 -589 
Q 1734 -531 1734 -326 
L 1734 -262 
Q 1779 -19 1779 160 
L 1779 922 
Q 1395 736 1081 621 
Q 768 506 678 509 
Q 589 512 454 646 
Q 320 781 320 845 
Q 326 896 432 902 
Q 538 909 723 957 
Q 909 1005 1779 1286 
L 1779 2118 
L 1376 2080 
L 1350 2080 
L 1114 2054 
L 928 2022 
Q 864 2022 781 2064 
Q 698 2106 710 2214 
Q 730 2246 730 2266 
Q 1094 3155 1280 3763 
L 992 3744 
L 845 3738 
Q 685 3738 666 3776 
Q 563 3859 528 3952 
Q 493 4045 493 4077 
Q 493 4109 525 4109 
Q 557 4109 614 4093 
Q 672 4077 800 4077 
L 877 4077 
L 1376 4102 
Q 1549 4781 1565 4861 
Q 1581 4941 1555 5018 
Q 1491 5190 1606 5197 
Q 1690 5197 1811 5136 
Q 1933 5075 1974 5027 
Q 2016 4979 1990 4877 
Q 1920 4666 1792 4128 
L 2419 4166 
Q 2541 4179 2614 4211 
Q 2688 4243 2745 4243 
Q 2803 4243 2880 4192 
Q 3072 4058 3072 3962 
Q 3072 3891 2918 3872 
L 1702 3789 
Q 1581 3366 1376 2803 
L 1210 2432 
Q 1248 2419 1318 2426 
L 1779 2464 
L 1779 3040 
Q 1779 3168 1728 3245 
Q 1677 3322 1677 3347 
Q 1677 3392 1741 3392 
Q 1805 3392 1901 3366 
Q 2163 3302 2163 3155 
L 2157 2496 
L 2432 2522 
Q 2522 2541 2573 2554 
Q 2694 2650 2854 2426 
Q 2899 2374 2899 2310 
Q 2912 2234 2765 2214 
L 2157 2157 
L 2150 1414 
Q 2394 1504 2621 1597 
Q 2848 1690 2934 1686 
Q 3021 1683 3021 1645 
Q 3014 1568 2842 1472 
Q 2470 1267 2144 1101 
L 2131 -448 
z
" transform="scale(0.015625)"/>
     </defs>
     <use xlink:href="#LXGWWenKai-Regular-8f74"/>
    </g>
   </g>
   <g id="text_2">
    <!-- 平面 -->
    <g transform="translate(454.435902 266.191409) scale(0.24 -0.24)">
     <defs>
      <path id="LXGWWenKai-Regular-5e73" d="M 755 1613 
L 550 1606 
Q 435 1606 403 1638 
Q 218 1837 218 1965 
Q 218 2010 269 2010 
Q 294 2010 345 1990 
Q 397 1971 550 1971 
L 621 1971 
L 2938 2067 
L 2950 4416 
L 1555 4339 
Q 1504 4333 1446 4333 
L 1331 4333 
Q 1286 4333 1241 4345 
Q 1197 4358 1113 4476 
Q 1030 4595 1030 4659 
Q 1030 4723 1075 4723 
Q 1101 4723 1155 4707 
Q 1210 4691 1350 4691 
L 1427 4691 
L 4634 4877 
Q 4813 4890 4873 4912 
Q 4934 4934 4995 4934 
Q 5056 4934 5136 4880 
Q 5216 4826 5270 4755 
Q 5325 4685 5325 4640 
Q 5325 4557 5165 4544 
L 3366 4442 
L 3360 2086 
L 5446 2176 
Q 5619 2189 5683 2211 
Q 5747 2234 5817 2234 
Q 5888 2234 5968 2173 
Q 6048 2112 6096 2041 
Q 6144 1971 6144 1933 
Q 6144 1856 5984 1837 
L 3354 1722 
L 3347 -582 
Q 3347 -742 3216 -742 
Q 3085 -742 2982 -665 
Q 2880 -589 2880 -474 
Q 2880 -435 2902 -316 
Q 2925 -198 2925 13 
L 2931 1709 
L 755 1613 
z
M 4538 4090 
Q 4538 4186 4621 4186 
Q 4762 4186 4947 4019 
Q 5024 3955 5024 3907 
Q 5024 3859 4880 3606 
Q 4736 3354 4387 2909 
Q 4038 2464 3808 2349 
Q 3750 2310 3718 2310 
Q 3686 2310 3686 2348 
Q 3686 2387 3824 2585 
Q 3962 2784 4134 3085 
Q 4538 3770 4538 4032 
L 4538 4090 
z
M 2246 3129 
Q 2374 2944 2457 2806 
Q 2541 2669 2541 2627 
Q 2541 2586 2435 2496 
Q 2330 2406 2253 2406 
Q 2176 2406 2118 2515 
Q 1850 3059 1408 3603 
Q 1331 3712 1331 3760 
Q 1331 3808 1420 3865 
Q 1510 3923 1561 3923 
Q 1613 3923 1728 3801 
Q 1843 3680 1980 3497 
Q 2118 3315 2246 3129 
z
" transform="scale(0.015625)"/>
      <path id="LXGWWenKai-Regular-9762" d="M 582 4410 
L 858 4371 
L 5107 4634 
Q 5261 4646 5325 4672 
Q 5389 4698 5433 4698 
Q 5478 4698 5555 4646 
Q 5754 4512 5754 4403 
Q 5754 4333 5600 4320 
L 3021 4160 
Q 3219 4038 3219 3964 
Q 3219 3891 2982 3616 
Q 2746 3341 2579 3187 
L 5184 3328 
L 5222 3328 
Q 5389 3328 5472 3225 
Q 5555 3123 5555 3081 
Q 5555 3040 5539 3008 
Q 5523 2976 5517 2938 
L 5293 416 
Q 5485 211 5485 144 
Q 5485 77 5427 67 
Q 5370 58 5299 51 
L 1510 -58 
L 1523 -326 
L 1523 -346 
Q 1523 -454 1434 -454 
Q 1421 -454 1337 -428 
Q 1254 -403 1177 -342 
Q 1101 -282 1101 -186 
L 1101 -134 
Q 1114 -70 1114 -13 
L 1114 205 
Q 1114 262 1107 314 
L 960 2694 
Q 947 2938 845 3104 
Q 800 3194 800 3232 
Q 800 3270 896 3270 
Q 992 3270 1357 3117 
L 2138 3162 
Q 2765 3898 2765 4147 
L 1107 4045 
Q 979 4032 896 4032 
Q 717 4032 614 4230 
Q 550 4358 550 4384 
Q 550 4410 582 4410 
z
M 5082 2982 
L 4032 2931 
L 3974 352 
L 4896 378 
L 5082 2982 
z
M 3661 2912 
L 2675 2861 
L 2682 2253 
L 3648 2298 
L 3661 2912 
z
M 2310 2842 
L 1344 2790 
L 1491 275 
L 2368 301 
L 2310 2842 
z
M 3642 1990 
L 2688 1946 
L 2701 1331 
L 3629 1376 
L 3642 1990 
z
M 3622 1082 
L 2707 1043 
L 2720 314 
L 3603 339 
L 3622 1082 
z
" transform="scale(0.015625)"/>
     </defs>
     <use xlink:href="#LXGWWenKai-Regular-5e73"/>
     <use xlink:href="#LXGWWenKai-Regular-9762" transform="translate(99.999985 0)"/>
    </g>
   </g>
   <g id="patch_3">
    <path d="M 256.179512 278.55922 
C 274.420932 278.55922 291.917686 276.569739 304.816317 273.028938 
C 317.714949 269.488138 324.962341 264.685107 324.962341 259.677659 
C 324.962341 254.67021 317.714949 249.86718 304.816317 246.326379 
C 291.917686 242.785578 274.420932 240.796098 256.179512 240.796098 
C 237.938093 240.796098 220.441339 242.785578 207.542707 246.326379 
C 194.644076 249.86718 187.396683 254.67021 187.396683 259.677659 
C 187.396683 264.685107 194.644076 269.488138 207.542707 273.028938 
C 220.441339 276.569739 237.938093 278.55922 256.179512 278.55922 
z
" clip-path="url(#pbcdd0a3e82)" style="fill: #b3cde3; opacity: 0.8; stroke: #111111; stroke-width: 2; stroke-linejoin: miter"/>
   </g>
   <g id="text_3">
    <!-- 截面：圆 -->
    <g transform="translate(208.179512 287.215939) scale(0.24 -0.24)">
     <defs>
      <path id="LXGWWenKai-Regular-622a" d="M 960 4307 
Q 1114 4269 1222 4269 
L 1267 4269 
L 2042 4320 
L 2042 4762 
Q 2042 4877 2000 4960 
Q 1958 5043 1958 5075 
Q 1958 5107 2003 5107 
Q 2048 5107 2144 5075 
Q 2406 4986 2406 4864 
L 2400 4339 
L 2874 4371 
Q 3021 4390 3062 4406 
Q 3104 4422 3142 4422 
Q 3181 4422 3251 4378 
Q 3437 4269 3437 4179 
Q 3437 4102 3290 4090 
L 2400 4032 
L 2394 3546 
L 3667 3616 
Q 3565 4307 3549 4640 
Q 3533 4973 3465 5069 
Q 3398 5165 3398 5190 
Q 3398 5242 3459 5242 
Q 3520 5242 3622 5222 
Q 3904 5158 3917 5011 
Q 3949 4384 4058 3642 
L 5242 3712 
Q 5402 3731 5466 3750 
Q 5530 3770 5571 3770 
Q 5613 3770 5683 3718 
Q 5869 3590 5869 3501 
Q 5869 3424 5715 3411 
L 4115 3315 
Q 4314 2163 4659 1395 
Q 4954 1939 5059 2320 
Q 5165 2701 5165 2746 
L 5165 2816 
Q 5165 2829 5152 2893 
Q 5152 2957 5216 2957 
Q 5242 2957 5338 2918 
Q 5600 2797 5600 2656 
Q 5600 2554 5347 1958 
Q 5094 1363 4851 998 
Q 5158 448 5530 115 
Q 5664 -6 5690 -6 
Q 5734 -6 5811 256 
Q 5888 518 5942 857 
Q 5997 1197 6064 1197 
Q 6131 1197 6150 877 
L 6157 730 
Q 6157 352 6099 29 
Q 6042 -294 5965 -396 
Q 5888 -499 5773 -499 
Q 5523 -499 5241 -224 
Q 4960 51 4602 672 
Q 4115 6 3622 -320 
Q 3424 -454 3363 -454 
Q 3302 -454 3302 -410 
Q 3302 -346 3437 -211 
Q 3994 333 4410 1005 
Q 3974 1862 3718 3296 
L 858 3123 
L 717 3117 
Q 595 3117 550 3162 
Q 435 3264 390 3418 
Q 384 3430 384 3456 
Q 384 3482 409 3482 
Q 435 3482 489 3462 
Q 544 3443 691 3443 
L 742 3443 
L 2035 3520 
L 2035 4013 
L 1389 3968 
L 1235 3962 
Q 1050 3962 973 4173 
Q 934 4269 934 4288 
Q 934 4307 960 4307 
z
M 5210 4237 
Q 5261 4192 5261 4115 
Q 5261 4038 5174 3952 
Q 5088 3866 5043 3866 
Q 4998 3866 4899 3987 
Q 4800 4109 4598 4294 
Q 4397 4480 4291 4563 
Q 4186 4646 4186 4694 
Q 4186 4742 4262 4819 
Q 4339 4896 4378 4896 
Q 4467 4896 4922 4493 
L 5210 4237 
z
M 2208 2502 
Q 2406 2880 2406 2953 
Q 2406 3027 2400 3097 
Q 2394 3168 2451 3168 
Q 2490 3168 2579 3123 
Q 2816 3014 2816 2912 
Q 2816 2880 2729 2739 
Q 2643 2598 2579 2528 
L 3187 2566 
Q 3347 2579 3401 2601 
Q 3456 2624 3485 2624 
Q 3514 2624 3632 2534 
Q 3750 2445 3750 2387 
Q 3750 2330 3715 2314 
Q 3680 2298 3629 2291 
L 2586 2227 
L 2579 1862 
L 2995 1888 
Q 3117 1901 3165 1917 
Q 3213 1933 3248 1933 
Q 3283 1933 3401 1856 
Q 3520 1779 3520 1702 
Q 3520 1626 3424 1606 
L 3411 1606 
L 2573 1562 
L 2566 1158 
L 3008 1178 
Q 3085 1184 3155 1206 
Q 3226 1229 3261 1229 
Q 3296 1229 3414 1152 
Q 3533 1075 3533 998 
Q 3533 922 3437 902 
L 3424 902 
L 2566 864 
L 2560 390 
L 3213 416 
Q 3379 429 3427 448 
Q 3475 467 3510 467 
Q 3546 467 3610 422 
Q 3776 307 3776 211 
Q 3776 141 3654 128 
L 1395 32 
L 1395 -333 
Q 1395 -486 1286 -486 
Q 1152 -486 1069 -419 
Q 986 -352 986 -262 
L 986 -230 
Q 986 -211 1008 -99 
Q 1030 13 1030 250 
L 1056 1754 
Q 781 1440 557 1257 
Q 333 1075 291 1075 
Q 250 1075 250 1123 
Q 250 1171 317 1254 
Q 384 1338 595 1610 
Q 806 1882 1091 2326 
Q 1376 2771 1376 2957 
L 1376 3034 
Q 1376 3123 1440 3123 
Q 1504 3123 1587 3068 
Q 1670 3014 1737 2944 
Q 1805 2874 1805 2816 
Q 1805 2758 1594 2458 
L 2208 2502 
z
M 2227 2208 
L 1408 2157 
L 1408 1786 
L 2221 1837 
L 2227 2208 
z
M 2221 1536 
L 1402 1491 
L 1402 1094 
L 2214 1139 
L 2221 1536 
z
M 2208 851 
L 1402 806 
L 1402 346 
L 2202 378 
L 2208 851 
z
" transform="scale(0.015625)"/>
      <path id="LXGWWenKai-Regular-ff1a" d="M 1574 646 
Q 1709 646 1814 515 
Q 1920 384 1920 253 
Q 1920 122 1840 38 
Q 1760 -45 1606 -45 
Q 1453 -45 1350 86 
Q 1248 218 1248 355 
Q 1248 493 1344 569 
Q 1440 646 1574 646 
z
M 1574 3021 
Q 1709 3021 1814 2889 
Q 1920 2758 1920 2627 
Q 1920 2496 1840 2413 
Q 1760 2330 1606 2330 
Q 1453 2330 1350 2461 
Q 1248 2592 1248 2729 
Q 1248 2867 1344 2944 
Q 1440 3021 1574 3021 
z
" transform="scale(0.015625)"/>
      <path id="LXGWWenKai-Regular-5706" d="M 5562 173 
Q 5766 -51 5766 -121 
Q 5766 -192 5702 -201 
Q 5638 -211 5549 -218 
L 1248 -314 
L 1248 -518 
Q 1248 -685 1139 -685 
Q 998 -685 899 -585 
Q 800 -486 800 -390 
L 800 -358 
Q 800 -333 822 -243 
Q 845 -154 845 102 
L 838 4358 
Q 838 4557 730 4774 
Q 717 4800 717 4819 
Q 717 4864 800 4864 
Q 883 4864 1248 4736 
L 5229 4973 
L 5286 4973 
Q 5517 4973 5581 4819 
Q 5606 4762 5606 4742 
L 5581 4608 
L 5562 173 
z
M 5165 4602 
L 1235 4384 
L 1248 45 
L 5152 154 
L 5165 4602 
z
M 4474 192 
Q 4429 192 4301 282 
Q 3981 518 3373 781 
Q 3290 826 3290 883 
Q 3290 941 3347 1017 
Q 3405 1094 3462 1094 
Q 3520 1094 4000 860 
Q 4480 627 4560 579 
Q 4640 531 4640 473 
Q 4640 416 4595 304 
Q 4550 192 4474 192 
z
M 2048 1434 
L 1958 2432 
Q 1946 2643 1904 2736 
Q 1862 2829 1862 2857 
Q 1862 2886 1936 2886 
Q 2010 2886 2336 2790 
L 4109 2886 
L 4128 2886 
Q 4230 2886 4323 2809 
Q 4416 2733 4416 2691 
Q 4416 2650 4403 2624 
Q 4390 2598 4384 2573 
L 4301 1472 
L 4294 1178 
L 4288 1114 
Q 4275 1018 4192 1030 
Q 4090 1030 3987 1110 
Q 3885 1190 3923 1308 
Q 3962 1427 4019 2592 
L 2304 2502 
L 2381 1421 
L 2400 1126 
L 2400 1062 
Q 2400 966 2297 966 
Q 2195 966 2108 1024 
Q 2022 1082 2022 1165 
L 2048 1434 
z
M 2189 3232 
L 2195 3315 
Q 2195 3373 2182 3450 
L 2138 3904 
Q 2125 4045 2070 4137 
Q 2016 4230 2016 4262 
Q 2016 4294 2077 4294 
Q 2138 4294 2445 4173 
L 3930 4269 
L 3974 4269 
Q 4077 4269 4141 4211 
Q 4205 4154 4205 4112 
Q 4205 4070 4195 4041 
Q 4186 4013 4179 3987 
L 4070 3462 
Q 4218 3309 4218 3267 
Q 4218 3226 4173 3222 
Q 4128 3219 4064 3213 
L 2560 3136 
L 2560 3110 
Q 2560 3021 2451 3021 
Q 2342 3021 2265 3065 
Q 2189 3110 2189 3194 
L 2189 3232 
z
M 3795 3974 
L 2483 3891 
L 2528 3411 
L 3725 3482 
L 3795 3974 
z
M 3059 2010 
Q 3059 2131 3027 2182 
Q 2995 2234 2995 2259 
Q 2995 2330 3116 2330 
Q 3238 2330 3328 2278 
Q 3418 2227 3418 2131 
Q 3398 1549 3273 1248 
Q 3149 947 2985 777 
Q 2822 608 2633 489 
Q 2445 371 2272 300 
Q 2099 230 1894 182 
Q 1690 134 1664 134 
Q 1568 134 1568 217 
Q 1568 301 1677 352 
Q 2707 691 2938 1318 
Q 3046 1606 3052 1718 
Q 3059 1830 3059 1914 
L 3059 2010 
z
" transform="scale(0.015625)"/>
     </defs>
     <use xlink:href="#LXGWWenKai-Regular-622a"/>
     <use xlink:href="#LXGWWenKai-Regular-9762" transform="translate(99.999985 0)"/>
     <use xlink:href="#LXGWWenKai-Regular-ff1a" transform="translate(199.999969 0)"/>
     <use xlink:href="#LXGWWenKai-Regular-5706" transform="translate(299.999954 0)"/>
    </g>
   </g>
  </g>
  <g id="axes_2">
   <g id="patch_4">
    <path d="M 751.820488 476.81561 
C 801.894973 476.81561 849.925278 456.920806 885.333286 421.512798 
C 920.741294 386.10479 940.636098 338.074485 940.636098 288 
C 940.636098 237.925515 920.741294 189.89521 885.333286 154.487202 
C 849.925278 119.079194 801.894973 99.18439 751.820488 99.18439 
C 701.746003 99.18439 653.715698 119.079194 618.30769 154.487202 
C 582.899682 189.89521 563.004878 237.925515 563.004878 288 
C 563.004878 338.074485 582.899682 386.10479 618.30769 421.512798 
C 653.715698 456.920806 701.746003 476.81561 751.820488 476.81561 
L 751.820488 476.81561 
z
" clip-path="url(#p621d734f20)" style="fill: none; opacity: 0.3; stroke-dasharray: 3.7,1.6; stroke-dashoffset: 0; stroke: #636363; stroke-linejoin: miter"/>
   </g>
   <g id="patch_5">
    <path d="M 751.820488 420.170927 
C 786.872627 420.170927 820.493841 406.244564 845.279446 381.458959 
C 870.065052 356.673353 883.991415 323.05214 883.991415 288 
C 883.991415 252.94786 870.065052 219.326647 845.279446 194.541041 
C 820.493841 169.755436 786.872627 155.829073 751.820488 155.829073 
C 716.768348 155.829073 683.147135 169.755436 658.361529 194.541041 
C 633.575924 219.326647 619.649561 252.94786 619.649561 288 
C 619.649561 323.05214 633.575924 356.673353 658.361529 381.458959 
C 683.147135 406.244564 716.768348 420.170927 751.820488 420.170927 
z
" clip-path="url(#p621d734f20)" style="fill: #b3cde3; opacity: 0.8; stroke: #111111; stroke-width: 2.5; stroke-linejoin: miter"/>
   </g>
   <g id="text_4">
    <!-- 俯视图 (截面形状) -->
    <g transform="translate(655.220488 80.302829) scale(0.24 -0.24)">
     <defs>
      <path id="LXGWWenKai-Regular-4fef" d="M 2240 4339 
Q 2240 4384 2320 4384 
Q 2400 4384 2746 4230 
L 3917 4294 
L 3904 4915 
Q 3904 4992 3849 5053 
Q 3795 5114 3795 5139 
Q 3795 5165 3900 5165 
Q 4006 5165 4147 5120 
Q 4288 5075 4288 4998 
L 4282 4314 
L 5318 4378 
Q 5414 4390 5491 4412 
Q 5568 4435 5603 4435 
Q 5638 4435 5708 4380 
Q 5779 4326 5830 4256 
Q 5882 4186 5882 4147 
Q 5882 4090 5766 4077 
L 2739 3904 
Q 2739 1920 2480 1005 
Q 2221 90 1933 -320 
Q 1811 -486 1772 -486 
Q 1734 -486 1734 -432 
Q 1734 -378 1773 -282 
Q 2112 595 2230 1558 
Q 2349 2522 2349 3546 
L 2349 3699 
Q 2349 4038 2259 4262 
Q 2240 4314 2240 4339 
z
M 1331 3814 
Q 1523 4224 1628 4518 
Q 1734 4813 1734 4886 
Q 1734 4960 1715 5056 
Q 1715 5120 1782 5120 
Q 1850 5120 1946 5082 
Q 2202 4973 2202 4858 
Q 2202 4806 1981 4284 
Q 1760 3763 1581 3456 
L 1587 -429 
Q 1587 -550 1472 -550 
Q 1395 -550 1280 -489 
Q 1165 -429 1165 -301 
Q 1165 -282 1165 -262 
Q 1165 -243 1184 -134 
Q 1203 -26 1203 128 
L 1229 2886 
Q 851 2330 480 1971 
Q 320 1818 265 1818 
Q 211 1818 211 1875 
Q 211 1933 412 2208 
Q 614 2483 876 2944 
Q 1139 3405 1331 3814 
z
M 5402 -90 
L 5408 -288 
Q 5408 -429 5315 -521 
Q 5222 -614 5146 -614 
Q 4973 -614 4570 -346 
Q 4141 -77 4141 38 
Q 4141 77 4198 77 
Q 4256 77 4509 -19 
Q 4762 -115 5030 -166 
L 5024 2374 
L 4301 2330 
Q 4173 2317 4061 2317 
Q 3949 2317 3910 2374 
L 3853 2451 
Q 3770 2598 3770 2640 
Q 3770 2682 3805 2682 
Q 3840 2682 3904 2662 
Q 3968 2643 4096 2643 
L 4154 2643 
L 5018 2688 
L 5018 3315 
Q 5018 3546 4957 3632 
Q 4896 3718 4896 3750 
Q 4896 3782 4950 3782 
Q 5005 3782 5107 3750 
Q 5382 3654 5382 3520 
L 5389 2707 
L 5574 2720 
Q 5632 2726 5693 2732 
Q 5754 2739 5798 2761 
Q 5843 2784 5884 2784 
Q 5926 2784 5997 2733 
Q 6189 2592 6189 2490 
Q 6189 2445 6054 2432 
L 5389 2394 
L 5402 -90 
z
M 3616 3546 
L 3616 3610 
Q 3616 3622 3609 3692 
Q 3603 3763 3667 3763 
Q 3731 3763 3827 3712 
Q 4070 3584 4070 3456 
Q 4070 3405 3878 3027 
Q 3686 2650 3558 2419 
L 3565 -365 
Q 3565 -544 3462 -544 
Q 3398 -544 3283 -480 
Q 3168 -416 3168 -307 
Q 3168 -262 3190 -160 
Q 3213 -58 3213 224 
L 3226 1882 
Q 2989 1549 2841 1405 
Q 2694 1261 2649 1261 
Q 2605 1261 2605 1315 
Q 2605 1370 2733 1562 
Q 3053 2048 3334 2717 
Q 3616 3386 3616 3546 
z
M 4173 2035 
Q 4294 2035 4659 1357 
Q 4813 1075 4813 1020 
Q 4813 966 4752 921 
Q 4691 877 4630 854 
Q 4570 832 4563 832 
Q 4512 832 4480 896 
Q 4256 1414 4006 1805 
Q 3974 1856 3974 1891 
Q 3974 1926 4051 1980 
Q 4128 2035 4173 2035 
z
" transform="scale(0.015625)"/>
      <path id="LXGWWenKai-Regular-89c6" d="M 2374 -506 
Q 2310 -531 2288 -531 
Q 2266 -531 2266 -457 
Q 2266 -384 2374 -320 
Q 3277 205 3648 851 
Q 3853 1222 3945 1708 
Q 4038 2195 4038 3552 
Q 4038 3635 3977 3712 
Q 3917 3789 3917 3827 
Q 3917 3891 3997 3891 
Q 4077 3891 4224 3849 
Q 4371 3808 4416 3773 
Q 4461 3738 4461 3654 
Q 4442 2675 4397 2131 
Q 4563 2086 4611 2038 
Q 4659 1990 4659 1894 
Q 4659 1798 4640 320 
Q 4640 141 4675 61 
Q 4710 -19 4825 -35 
Q 4941 -51 5277 -51 
Q 5613 -51 5728 -22 
Q 5843 6 5894 166 
Q 5990 493 6038 832 
Q 6086 1171 6163 1171 
Q 6195 1171 6233 1036 
Q 6272 902 6272 553 
Q 6272 205 6253 22 
Q 6234 -160 6147 -259 
Q 6061 -358 5865 -396 
Q 5670 -435 5264 -435 
Q 4858 -435 4650 -387 
Q 4442 -339 4346 -198 
Q 4250 -58 4250 218 
L 4250 243 
L 4262 1344 
Q 4186 1069 4064 832 
Q 3629 -6 2374 -506 
z
M 3514 2451 
L 3526 2029 
L 3533 1696 
L 3533 1638 
Q 3533 1504 3430 1504 
Q 3354 1504 3232 1571 
Q 3110 1638 3110 1728 
L 3110 1760 
Q 3130 1907 3130 2035 
L 3130 2138 
L 3078 4352 
Q 3078 4518 3020 4624 
Q 2963 4730 2963 4771 
Q 2963 4813 3043 4813 
Q 3123 4813 3462 4691 
L 5152 4800 
L 5222 4800 
Q 5318 4800 5420 4729 
Q 5523 4659 5523 4604 
Q 5523 4550 5510 4515 
Q 5498 4480 5491 4448 
L 5421 1664 
Q 5414 1530 5312 1536 
Q 5235 1536 5116 1606 
Q 4998 1677 4998 1766 
L 4998 1798 
Q 5024 1946 5024 2074 
L 5030 2176 
L 5069 4448 
L 3462 4352 
L 3514 2451 
z
M 1414 -333 
L 1453 -38 
Q 1466 96 1466 237 
L 1491 1907 
Q 986 1370 512 1082 
Q 320 966 262 966 
Q 205 966 205 1005 
Q 205 1069 339 1184 
Q 832 1581 1286 2169 
Q 1741 2758 2054 3398 
L 1037 3290 
Q 966 3283 912 3276 
Q 858 3270 774 3270 
Q 691 3270 611 3356 
Q 531 3443 489 3532 
Q 448 3622 448 3629 
Q 448 3667 499 3667 
L 531 3667 
Q 627 3648 710 3648 
L 838 3648 
Q 870 3648 902 3654 
L 2221 3789 
Q 2259 3795 2291 3795 
L 2349 3795 
Q 2477 3795 2544 3718 
Q 2611 3642 2611 3594 
Q 2611 3546 2585 3514 
Q 2560 3482 2547 3462 
Q 2240 2848 1856 2349 
Q 2304 2067 2752 1696 
Q 2816 1651 2816 1571 
Q 2816 1491 2736 1401 
Q 2656 1312 2605 1312 
Q 2554 1312 2410 1475 
Q 2266 1638 1856 1958 
L 1856 -422 
Q 1856 -602 1741 -602 
Q 1722 -602 1645 -570 
Q 1414 -480 1414 -333 
z
M 1878 4538 
Q 1997 4410 2073 4310 
Q 2150 4211 2150 4179 
Q 2150 4147 2067 4041 
Q 1984 3936 1907 3936 
Q 1830 3936 1760 4026 
Q 1459 4454 1114 4781 
Q 1056 4832 1056 4883 
Q 1056 4934 1133 5001 
Q 1210 5069 1254 5069 
Q 1299 5069 1401 4989 
Q 1504 4909 1632 4787 
Q 1760 4666 1878 4538 
z
" transform="scale(0.015625)"/>
      <path id="LXGWWenKai-Regular-56fe" d="M 5498 250 
Q 5715 19 5715 -54 
Q 5715 -128 5651 -134 
Q 5587 -141 5498 -147 
L 1325 -243 
L 1325 -454 
Q 1325 -621 1222 -621 
Q 1082 -621 989 -534 
Q 896 -448 896 -377 
Q 896 -307 918 -195 
Q 941 -83 941 166 
L 934 4365 
Q 934 4595 851 4749 
Q 838 4781 825 4809 
Q 813 4838 813 4858 
Q 813 4902 896 4902 
Q 979 4902 1344 4774 
L 5171 4947 
L 5229 4947 
Q 5376 4947 5472 4864 
Q 5568 4781 5568 4726 
Q 5568 4672 5545 4643 
Q 5523 4614 5523 4582 
L 5498 250 
z
M 5139 4614 
L 1306 4435 
L 1325 109 
L 5120 218 
L 5139 4614 
z
M 3885 1478 
Q 3885 1414 3833 1331 
Q 3782 1248 3718 1248 
Q 3654 1248 3430 1379 
Q 3206 1510 2739 1696 
Q 2643 1728 2643 1792 
Q 2643 1856 2688 1917 
Q 2733 1978 2784 1978 
Q 2835 1978 2992 1930 
Q 3149 1882 3449 1747 
Q 3750 1613 3763 1606 
Q 3885 1542 3885 1478 
z
M 3622 442 
Q 3040 800 2483 1030 
Q 2387 1075 2387 1142 
Q 2387 1210 2432 1277 
Q 2477 1344 2534 1344 
Q 2592 1344 3037 1145 
Q 3482 947 3930 710 
Q 4051 640 4051 553 
Q 4051 467 3977 390 
Q 3904 314 3869 314 
Q 3834 314 3622 442 
z
M 2982 3795 
L 3846 3853 
L 3891 3853 
Q 4109 3853 4173 3731 
Q 4198 3680 4198 3635 
Q 4198 3590 4156 3555 
Q 4115 3520 4102 3501 
Q 3891 3091 3475 2656 
Q 4051 2227 4941 1888 
Q 5024 1856 5024 1801 
Q 5024 1747 4909 1660 
Q 4794 1574 4704 1574 
Q 4614 1574 4121 1849 
Q 3629 2125 3238 2432 
Q 2509 1811 1734 1510 
Q 1555 1446 1488 1446 
Q 1421 1446 1421 1504 
Q 1421 1574 1568 1651 
Q 2470 2150 2989 2650 
Q 2752 2854 2496 3149 
Q 2246 2880 2028 2717 
Q 1811 2554 1747 2554 
Q 1696 2554 1696 2621 
Q 1696 2688 1776 2761 
Q 1856 2835 2067 3081 
Q 2278 3328 2490 3648 
Q 2765 4090 2771 4314 
Q 2771 4378 2819 4378 
Q 2867 4378 2944 4346 
Q 3162 4256 3162 4134 
Q 3162 4032 2982 3795 
z
M 2771 3488 
L 2688 3373 
Q 2880 3142 3206 2867 
Q 3539 3226 3706 3539 
L 2771 3488 
z
" transform="scale(0.015625)"/>
      <path id="LXGWWenKai-Regular-20" transform="scale(0.015625)"/>
      <path id="LXGWWenKai-Regular-28" d="M 2016 -896 
Q 2016 -1018 1914 -1018 
Q 1862 -1018 1715 -883 
Q 1350 -544 1037 102 
Q 640 902 640 1846 
Q 640 2790 998 3644 
Q 1357 4499 1728 4902 
Q 1882 5062 1946 5062 
Q 2067 5062 2067 4954 
Q 2067 4902 2035 4870 
Q 1619 4384 1369 3478 
Q 1120 2573 1120 1865 
Q 1120 1158 1350 384 
Q 1581 -390 1965 -774 
Q 2016 -826 2016 -896 
z
" transform="scale(0.015625)"/>
      <path id="LXGWWenKai-Regular-5f62" d="M 5574 4602 
Q 5005 3872 4326 3450 
Q 4045 3277 3853 3197 
Q 3661 3117 3600 3117 
Q 3539 3117 3539 3162 
Q 3539 3219 3661 3302 
Q 4237 3712 4717 4221 
Q 5197 4730 5197 4915 
Q 5203 5030 5267 5030 
Q 5312 5030 5395 4972 
Q 5478 4915 5548 4835 
Q 5619 4755 5619 4707 
Q 5619 4659 5574 4602 
z
M 2829 -390 
Q 2829 -538 2710 -538 
Q 2592 -538 2496 -461 
Q 2400 -384 2400 -301 
L 2400 -250 
Q 2426 6 2426 320 
L 2426 2381 
L 1683 2342 
Q 1600 986 1088 192 
Q 851 -166 576 -435 
Q 493 -518 438 -518 
Q 384 -518 384 -464 
Q 384 -410 505 -246 
Q 627 -83 806 269 
Q 1203 1075 1286 2323 
L 717 2291 
L 640 2291 
Q 538 2291 438 2368 
Q 339 2445 294 2624 
L 294 2650 
Q 294 2688 326 2688 
Q 358 2688 428 2665 
Q 499 2643 621 2643 
L 672 2643 
L 1306 2675 
Q 1325 3174 1325 4122 
L 1037 4109 
L 979 4109 
Q 826 4109 736 4211 
Q 646 4314 614 4429 
L 614 4454 
Q 614 4493 646 4493 
Q 678 4493 752 4470 
Q 826 4448 941 4448 
L 992 4448 
L 2995 4550 
Q 3110 4563 3177 4585 
Q 3245 4608 3289 4608 
Q 3334 4608 3405 4557 
Q 3578 4435 3578 4326 
Q 3578 4250 3418 4237 
L 2810 4205 
L 2816 2752 
L 3200 2771 
Q 3315 2784 3385 2803 
Q 3456 2822 3504 2822 
Q 3552 2822 3622 2761 
Q 3693 2701 3737 2630 
Q 3782 2560 3782 2534 
Q 3782 2458 3622 2445 
L 2816 2400 
L 2829 -390 
z
M 1734 3661 
Q 1734 3142 1709 2694 
L 2426 2733 
L 2426 4186 
L 1728 4147 
L 1734 3661 
z
M 5709 3226 
Q 5107 2342 4314 1869 
Q 3994 1670 3779 1584 
Q 3565 1498 3513 1498 
Q 3462 1498 3462 1552 
Q 3462 1606 3584 1690 
Q 4282 2170 4806 2736 
Q 5331 3302 5344 3558 
Q 5357 3674 5417 3674 
Q 5478 3674 5558 3610 
Q 5638 3546 5696 3466 
Q 5754 3386 5754 3338 
Q 5754 3290 5709 3226 
z
M 5542 2182 
Q 5542 2266 5606 2266 
Q 5709 2266 5843 2131 
Q 5978 1997 5978 1936 
Q 5978 1875 5939 1818 
Q 5318 768 4448 109 
Q 3808 -378 3264 -570 
Q 3066 -640 3011 -640 
Q 2957 -640 2957 -582 
Q 2957 -525 3098 -442 
Q 3891 32 4451 617 
Q 5011 1203 5466 1882 
Q 5542 2003 5542 2138 
L 5542 2182 
z
" transform="scale(0.015625)"/>
      <path id="LXGWWenKai-Regular-72b6" d="M 4294 4653 
Q 4294 3642 4205 2886 
L 5293 2938 
Q 5427 2950 5507 2988 
Q 5587 3027 5635 3027 
Q 5683 3027 5763 2963 
Q 5843 2899 5900 2819 
Q 5958 2739 5958 2701 
Q 5958 2624 5805 2611 
L 4403 2534 
Q 5056 762 6266 -122 
Q 6330 -166 6330 -198 
Q 6330 -230 6272 -294 
Q 6125 -461 6010 -461 
Q 5965 -461 5926 -422 
Q 4678 621 4122 2291 
L 4045 1920 
Q 3859 1107 3366 448 
Q 2970 -90 2586 -346 
Q 2432 -448 2381 -448 
Q 2330 -448 2330 -397 
Q 2330 -346 2445 -224 
Q 3507 858 3770 2502 
L 3053 2464 
L 2906 2458 
Q 2739 2458 2675 2509 
Q 2490 2688 2490 2829 
Q 2490 2861 2509 2861 
Q 2547 2861 2630 2838 
Q 2714 2816 2816 2816 
L 3814 2867 
Q 3878 3443 3878 4403 
L 3878 4710 
Q 3878 4870 3820 4963 
Q 3763 5056 3763 5088 
Q 3763 5120 3840 5120 
Q 3917 5120 4067 5059 
Q 4218 4998 4256 4960 
Q 4294 4922 4294 4851 
L 4294 4653 
z
M 1837 1760 
Q 1402 1267 954 883 
Q 813 755 745 755 
Q 678 755 585 796 
Q 493 838 384 940 
Q 275 1043 275 1084 
Q 275 1126 320 1133 
Q 794 1203 1837 2074 
L 1875 4563 
Q 1875 4794 1814 4880 
Q 1754 4966 1754 4995 
Q 1754 5024 1830 5024 
Q 1907 5024 2054 4976 
Q 2202 4928 2240 4883 
Q 2278 4838 2278 4749 
L 2208 -416 
Q 2208 -595 2099 -595 
Q 2048 -595 1965 -556 
Q 1882 -518 1821 -451 
Q 1760 -384 1760 -326 
Q 1760 -269 1779 -176 
Q 1798 -83 1811 230 
L 1837 1760 
z
M 5254 3776 
Q 5338 3642 5392 3542 
Q 5446 3443 5446 3401 
Q 5446 3360 5356 3270 
Q 5267 3181 5180 3181 
Q 5094 3181 5056 3270 
Q 4838 3731 4563 4070 
Q 4531 4115 4531 4166 
Q 4531 4218 4630 4282 
Q 4730 4346 4774 4346 
Q 4819 4346 4902 4259 
Q 4986 4173 5078 4041 
Q 5171 3910 5254 3776 
z
M 1449 3001 
Q 1587 2675 1587 2627 
Q 1587 2579 1523 2531 
Q 1459 2483 1392 2457 
Q 1325 2432 1312 2432 
Q 1235 2432 1197 2534 
Q 941 3213 653 3686 
Q 627 3718 627 3766 
Q 627 3814 704 3872 
Q 781 3930 857 3930 
Q 934 3930 979 3853 
Q 1312 3328 1449 3001 
z
" transform="scale(0.015625)"/>
      <path id="LXGWWenKai-Regular-29" d="M 518 -883 
Q 371 -1018 320 -1018 
Q 218 -1018 218 -896 
Q 218 -826 269 -774 
Q 653 -390 883 384 
Q 1114 1158 1114 1865 
Q 1114 2573 864 3478 
Q 614 4384 198 4870 
Q 166 4902 166 4954 
Q 166 5062 288 5062 
Q 358 5062 512 4902 
Q 877 4499 1203 3738 
Q 1594 2790 1594 1849 
Q 1594 909 1238 179 
Q 883 -550 518 -883 
z
" transform="scale(0.015625)"/>
     </defs>
     <use xlink:href="#LXGWWenKai-Regular-4fef"/>
     <use xlink:href="#LXGWWenKai-Regular-89c6" transform="translate(99.999985 0)"/>
     <use xlink:href="#LXGWWenKai-Regular-56fe" transform="translate(199.999969 0)"/>
     <use xlink:href="#LXGWWenKai-Regular-20" transform="translate(299.999954 0)"/>
     <use xlink:href="#LXGWWenKai-Regular-28" transform="translate(334.999939 0)"/>
     <use xlink:href="#LXGWWenKai-Regular-622a" transform="translate(369.999924 0)"/>
     <use xlink:href="#LXGWWenKai-Regular-9762" transform="translate(469.999908 0)"/>
     <use xlink:href="#LXGWWenKai-Regular-5f62" transform="translate(569.999893 0)"/>
     <use xlink:href="#LXGWWenKai-Regular-72b6" transform="translate(669.999878 0)"/>
     <use xlink:href="#LXGWWenKai-Regular-29" transform="translate(769.999863 0)"/>
    </g>
   </g>
   <g id="text_5">
    <!-- 正圆 -->
    <g style="fill: #111111" transform="translate(723.820488 295.56) scale(0.28 -0.28)">
     <defs>
      <path id="LXGWWenKai-Regular-6b63" d="M 1024 4333 
L 1318 4294 
L 4698 4493 
Q 4896 4506 4976 4531 
Q 5056 4557 5110 4557 
Q 5165 4557 5257 4496 
Q 5350 4435 5420 4355 
Q 5491 4275 5491 4224 
Q 5491 4147 5325 4134 
L 3533 4032 
L 3539 2400 
L 4397 2451 
Q 4634 2470 4707 2496 
Q 4781 2522 4848 2522 
Q 4915 2522 5008 2454 
Q 5101 2387 5165 2307 
Q 5229 2227 5229 2189 
Q 5229 2106 5069 2093 
L 3546 2003 
L 3552 243 
L 5376 294 
Q 5523 294 5628 326 
Q 5734 358 5792 358 
Q 5850 358 5939 288 
Q 6029 218 6096 134 
Q 6163 51 6163 13 
Q 6163 -70 6003 -83 
L 723 -237 
Q 467 -237 371 -38 
Q 314 58 294 154 
Q 294 192 326 192 
Q 358 192 438 173 
Q 518 154 659 154 
L 800 160 
L 1632 186 
L 1574 2675 
Q 1574 2861 1478 3002 
Q 1453 3046 1453 3072 
Q 1453 3117 1517 3117 
Q 1581 3117 1696 3085 
Q 2010 2995 2010 2861 
L 2048 198 
L 3110 230 
L 3085 4006 
L 1619 3923 
Q 1568 3917 1523 3917 
L 1427 3917 
Q 1242 3917 1149 4009 
Q 1056 4102 1024 4195 
Q 992 4288 992 4294 
Q 992 4333 1024 4333 
z
" transform="scale(0.015625)"/>
     </defs>
     <use xlink:href="#LXGWWenKai-Regular-6b63"/>
     <use xlink:href="#LXGWWenKai-Regular-5706" transform="translate(99.999985 0)"/>
    </g>
   </g>
   <g id="text_6">
    <!-- 平面 $\perp$ 轴 -->
    <g transform="translate(695.540488 457.934049) scale(0.24 -0.24)">
     <defs>
      <path id="STIXGeneral-Regular-27c2" d="M 4102 0 
L 333 0 
L 333 422 
L 2010 422 
L 2010 4237 
L 2432 4237 
L 2432 422 
L 4102 422 
L 4102 0 
z
" transform="scale(0.015625)"/>
     </defs>
     <use xlink:href="#LXGWWenKai-Regular-5e73" transform="translate(0 0.796875)"/>
     <use xlink:href="#LXGWWenKai-Regular-9762" transform="translate(99.999985 0.796875)"/>
     <use xlink:href="#LXGWWenKai-Regular-20" transform="translate(199.999969 0.796875)"/>
     <use xlink:href="#STIXGeneral-Regular-27c2" transform="translate(249.439951 0.796875)"/>
     <use xlink:href="#LXGWWenKai-Regular-20" transform="translate(333.179935 0.796875)"/>
     <use xlink:href="#LXGWWenKai-Regular-8f74" transform="translate(368.179919 0.796875)"/>
    </g>
   </g>
  </g>
 </g>
 <defs>
  <clipPath id="pbcdd0a3e82">
   <rect x="20.16" y="51.980488" width="472.039024" height="472.039024"/>
  </clipPath>
  <clipPath id="p621d734f20">
   <rect x="515.800976" y="51.980488" width="472.039024" height="472.039024"/>
  </clipPath>
 </defs>
</svg>
