<?xml version="1.0" encoding="utf-8" standalone="no"?>
<!DOCTYPE svg PUBLIC "-//W3C//DTD SVG 1.1//EN"
  "http://www.w3.org/Graphics/SVG/1.1/DTD/svg11.dtd">
<svg xmlns:xlink="http://www.w3.org/1999/xlink" width="576pt" height="432pt" viewBox="0 0 576 432" xmlns="http://www.w3.org/2000/svg" version="1.1">
 <metadata>
  <rdf:RDF xmlns:dc="http://purl.org/dc/elements/1.1/" xmlns:cc="http://creativecommons.org/ns#" xmlns:rdf="http://www.w3.org/1999/02/22-rdf-syntax-ns#">
   <cc:Work>
    <dc:type rdf:resource="http://purl.org/dc/dcmitype/StillImage"/>
    <dc:date>2026-02-12T10:57:54.785994</dc:date>
    <dc:format>image/svg+xml</dc:format>
    <dc:creator>
     <cc:Agent>
      <dc:title>Matplotlib v3.10.8, https://matplotlib.org/</dc:title>
     </cc:Agent>
    </dc:creator>
   </cc:Work>
  </rdf:RDF>
 </metadata>
 <defs>
  <style type="text/css">*{stroke-linejoin: round; stroke-linecap: butt}</style>
 </defs>
 <g id="figure_1">
  <g id="patch_1">
   <path d="M 0 432 
L 576 432 
L 576 0 
L 0 0 
z
" style="fill: #fefdf5"/>
  </g>
  <g id="axes_1">
   <g id="patch_2">
    <path d="M 72 388.8 
L 504 388.8 
L 504 43.2 
L 72 43.2 
z
" style="fill: #fefdf5"/>
   </g>
   <g id="patch_3">
    <path d="M 288 362.88 
C 322.370322 362.88 355.337551 361.05927 379.641039 357.818805 
C 403.944526 354.57834 417.6 350.18271 417.6 345.6 
C 417.6 341.01729 403.944526 336.62166 379.641039 333.381195 
C 355.337551 330.14073 322.370322 328.32 288 328.32 
C 253.629678 328.32 220.662449 330.14073 196.358961 333.381195 
C 172.055474 336.62166 158.4 341.01729 158.4 345.6 
C 158.4 350.18271 172.055474 354.57834 196.358961 357.818805 
C 220.662449 361.05927 253.629678 362.88 288 362.88 
L 288 362.88 
z
" clip-path="url(#p137286f625)" style="fill: none; opacity: 0.5; stroke-dasharray: 3.7,1.6; stroke-dashoffset: 0; stroke: #636363; stroke-linejoin: miter"/>
   </g>
   <g id="matplotlib.axis_1"/>
   <g id="matplotlib.axis_2"/>
   <g id="line2d_1">
    <path d="M 288 86.4 
L 158.4 345.6 
" clip-path="url(#p137286f625)" style="fill: none; stroke: #636363; stroke-width: 1.2; stroke-linecap: square"/>
   </g>
   <g id="line2d_2">
    <path d="M 288 86.4 
L 417.6 345.6 
" clip-path="url(#p137286f625)" style="fill: none; stroke: #636363; stroke-width: 1.2; stroke-linecap: square"/>
   </g>
   <g id="line2d_3">
    <path d="M 288 362.88 
L 288 60.48 
" clip-path="url(#p137286f625)" style="fill: none; stroke-dasharray: 5.12,1.28,0.8,1.28; stroke-dashoffset: 0; stroke: #636363; stroke-opacity: 0.7; stroke-width: 0.8"/>
   </g>
   <g id="line2d_4">
    <path d="M 175.68 207.36 
L 400.32 207.36 
" clip-path="url(#p137286f625)" style="fill: none; stroke: #252525; stroke-width: 1.5; stroke-linecap: square"/>
   </g>
   <g id="line2d_5">
    <path d="M 288 194.4 
L 300.96 194.4 
L 300.96 207.36 
" clip-path="url(#p137286f625)" style="fill: none; stroke: #111111; stroke-width: 0.8; stroke-linecap: square"/>
   </g>
   <g id="text_1">
    <!-- 轴 -->
    <g style="fill: #111111" transform="translate(296.64 77.76) scale(0.12 -0.12)">
     <defs>
      <path id="LXGWWenKai-Regular-8f74" d="M 5626 294 
Q 5779 102 5779 35 
Q 5779 -32 5731 -41 
Q 5683 -51 5606 -58 
L 3552 -115 
L 3558 -275 
L 3558 -294 
Q 3558 -442 3462 -442 
Q 3341 -442 3251 -355 
Q 3162 -269 3162 -192 
L 3168 -115 
L 3168 237 
L 3053 2765 
Q 3046 2995 2957 3181 
Q 2944 3200 2944 3219 
Q 2944 3264 3017 3264 
Q 3091 3264 3405 3142 
L 4179 3187 
L 4179 4627 
Q 4179 4774 4124 4857 
Q 4070 4941 4070 4973 
Q 4070 5024 4140 5024 
Q 4211 5024 4345 4982 
Q 4480 4941 4521 4889 
Q 4563 4838 4563 4774 
L 4563 3213 
L 5504 3270 
L 5581 3277 
Q 5728 3277 5818 3110 
Q 5850 3059 5850 3027 
Q 5850 2995 5830 2960 
Q 5811 2925 5805 2886 
L 5626 294 
z
M 5402 2912 
L 4563 2867 
L 4550 1805 
L 5350 1843 
L 5402 2912 
z
M 4179 2842 
L 3418 2803 
L 3475 1754 
L 4186 1786 
L 4179 2842 
z
M 5331 1504 
L 4550 1466 
L 4550 256 
L 5274 275 
L 5331 1504 
z
M 4186 1446 
L 3488 1414 
L 3539 230 
L 4186 243 
L 4186 1446 
z
M 2131 -448 
Q 2131 -595 2048 -595 
L 2022 -595 
L 2016 -589 
Q 1734 -531 1734 -326 
L 1734 -262 
Q 1779 -19 1779 160 
L 1779 922 
Q 1395 736 1081 621 
Q 768 506 678 509 
Q 589 512 454 646 
Q 320 781 320 845 
Q 326 896 432 902 
Q 538 909 723 957 
Q 909 1005 1779 1286 
L 1779 2118 
L 1376 2080 
L 1350 2080 
L 1114 2054 
L 928 2022 
Q 864 2022 781 2064 
Q 698 2106 710 2214 
Q 730 2246 730 2266 
Q 1094 3155 1280 3763 
L 992 3744 
L 845 3738 
Q 685 3738 666 3776 
Q 563 3859 528 3952 
Q 493 4045 493 4077 
Q 493 4109 525 4109 
Q 557 4109 614 4093 
Q 672 4077 800 4077 
L 877 4077 
L 1376 4102 
Q 1549 4781 1565 4861 
Q 1581 4941 1555 5018 
Q 1491 5190 1606 5197 
Q 1690 5197 1811 5136 
Q 1933 5075 1974 5027 
Q 2016 4979 1990 4877 
Q 1920 4666 1792 4128 
L 2419 4166 
Q 2541 4179 2614 4211 
Q 2688 4243 2745 4243 
Q 2803 4243 2880 4192 
Q 3072 4058 3072 3962 
Q 3072 3891 2918 3872 
L 1702 3789 
Q 1581 3366 1376 2803 
L 1210 2432 
Q 1248 2419 1318 2426 
L 1779 2464 
L 1779 3040 
Q 1779 3168 1728 3245 
Q 1677 3322 1677 3347 
Q 1677 3392 1741 3392 
Q 1805 3392 1901 3366 
Q 2163 3302 2163 3155 
L 2157 2496 
L 2432 2522 
Q 2522 2541 2573 2554 
Q 2694 2650 2854 2426 
Q 2899 2374 2899 2310 
Q 2912 2234 2765 2214 
L 2157 2157 
L 2150 1414 
Q 2394 1504 2621 1597 
Q 2848 1690 2934 1686 
Q 3021 1683 3021 1645 
Q 3014 1568 2842 1472 
Q 2470 1267 2144 1101 
L 2131 -448 
z
" transform="scale(0.015625)"/>
     </defs>
     <use xlink:href="#LXGWWenKai-Regular-8f74"/>
    </g>
   </g>
   <g id="patch_4">
    <path d="M 288 220.32 
C 304.039483 220.32 319.424191 218.954453 330.765818 216.524104 
C 342.107446 214.093755 348.48 210.797032 348.48 207.36 
C 348.48 203.922968 342.107446 200.626245 330.765818 198.195896 
C 319.424191 195.765547 304.039483 194.4 288 194.4 
C 271.960517 194.4 256.575809 195.765547 245.234182 198.195896 
C 233.892554 200.626245 227.52 203.922968 227.52 207.36 
C 227.52 210.797032 233.892554 214.093755 245.234182 216.524104 
C 256.575809 218.954453 271.960517 220.32 288 220.32 
z
" clip-path="url(#p137286f625)" style="fill: #b3cde3; opacity: 0.8; stroke: #111111; stroke-width: 1.2; stroke-linejoin: miter"/>
   </g>
   <g id="text_2">
    <!-- 平面 $\perp$ 轴 -->
    <g style="fill: #111111" transform="translate(408.96 211.233594) scale(0.13 -0.13)">
     <defs>
      <path id="LXGWWenKai-Regular-5e73" d="M 755 1613 
L 550 1606 
Q 435 1606 403 1638 
Q 218 1837 218 1965 
Q 218 2010 269 2010 
Q 294 2010 345 1990 
Q 397 1971 550 1971 
L 621 1971 
L 2938 2067 
L 2950 4416 
L 1555 4339 
Q 1504 4333 1446 4333 
L 1331 4333 
Q 1286 4333 1241 4345 
Q 1197 4358 1113 4476 
Q 1030 4595 1030 4659 
Q 1030 4723 1075 4723 
Q 1101 4723 1155 4707 
Q 1210 4691 1350 4691 
L 1427 4691 
L 4634 4877 
Q 4813 4890 4873 4912 
Q 4934 4934 4995 4934 
Q 5056 4934 5136 4880 
Q 5216 4826 5270 4755 
Q 5325 4685 5325 4640 
Q 5325 4557 5165 4544 
L 3366 4442 
L 3360 2086 
L 5446 2176 
Q 5619 2189 5683 2211 
Q 5747 2234 5817 2234 
Q 5888 2234 5968 2173 
Q 6048 2112 6096 2041 
Q 6144 1971 6144 1933 
Q 6144 1856 5984 1837 
L 3354 1722 
L 3347 -582 
Q 3347 -742 3216 -742 
Q 3085 -742 2982 -665 
Q 2880 -589 2880 -474 
Q 2880 -435 2902 -316 
Q 2925 -198 2925 13 
L 2931 1709 
L 755 1613 
z
M 4538 4090 
Q 4538 4186 4621 4186 
Q 4762 4186 4947 4019 
Q 5024 3955 5024 3907 
Q 5024 3859 4880 3606 
Q 4736 3354 4387 2909 
Q 4038 2464 3808 2349 
Q 3750 2310 3718 2310 
Q 3686 2310 3686 2348 
Q 3686 2387 3824 2585 
Q 3962 2784 4134 3085 
Q 4538 3770 4538 4032 
L 4538 4090 
z
M 2246 3129 
Q 2374 2944 2457 2806 
Q 2541 2669 2541 2627 
Q 2541 2586 2435 2496 
Q 2330 2406 2253 2406 
Q 2176 2406 2118 2515 
Q 1850 3059 1408 3603 
Q 1331 3712 1331 3760 
Q 1331 3808 1420 3865 
Q 1510 3923 1561 3923 
Q 1613 3923 1728 3801 
Q 1843 3680 1980 3497 
Q 2118 3315 2246 3129 
z
" transform="scale(0.015625)"/>
      <path id="LXGWWenKai-Regular-9762" d="M 582 4410 
L 858 4371 
L 5107 4634 
Q 5261 4646 5325 4672 
Q 5389 4698 5433 4698 
Q 5478 4698 5555 4646 
Q 5754 4512 5754 4403 
Q 5754 4333 5600 4320 
L 3021 4160 
Q 3219 4038 3219 3964 
Q 3219 3891 2982 3616 
Q 2746 3341 2579 3187 
L 5184 3328 
L 5222 3328 
Q 5389 3328 5472 3225 
Q 5555 3123 5555 3081 
Q 5555 3040 5539 3008 
Q 5523 2976 5517 2938 
L 5293 416 
Q 5485 211 5485 144 
Q 5485 77 5427 67 
Q 5370 58 5299 51 
L 1510 -58 
L 1523 -326 
L 1523 -346 
Q 1523 -454 1434 -454 
Q 1421 -454 1337 -428 
Q 1254 -403 1177 -342 
Q 1101 -282 1101 -186 
L 1101 -134 
Q 1114 -70 1114 -13 
L 1114 205 
Q 1114 262 1107 314 
L 960 2694 
Q 947 2938 845 3104 
Q 800 3194 800 3232 
Q 800 3270 896 3270 
Q 992 3270 1357 3117 
L 2138 3162 
Q 2765 3898 2765 4147 
L 1107 4045 
Q 979 4032 896 4032 
Q 717 4032 614 4230 
Q 550 4358 550 4384 
Q 550 4410 582 4410 
z
M 5082 2982 
L 4032 2931 
L 3974 352 
L 4896 378 
L 5082 2982 
z
M 3661 2912 
L 2675 2861 
L 2682 2253 
L 3648 2298 
L 3661 2912 
z
M 2310 2842 
L 1344 2790 
L 1491 275 
L 2368 301 
L 2310 2842 
z
M 3642 1990 
L 2688 1946 
L 2701 1331 
L 3629 1376 
L 3642 1990 
z
M 3622 1082 
L 2707 1043 
L 2720 314 
L 3603 339 
L 3622 1082 
z
" transform="scale(0.015625)"/>
      <path id="LXGWWenKai-Regular-20" transform="scale(0.015625)"/>
      <path id="STIXGeneral-Regular-27c2" d="M 4102 0 
L 333 0 
L 333 422 
L 2010 422 
L 2010 4237 
L 2432 4237 
L 2432 422 
L 4102 422 
L 4102 0 
z
" transform="scale(0.015625)"/>
     </defs>
     <use xlink:href="#LXGWWenKai-Regular-5e73" transform="translate(0 0.796875)"/>
     <use xlink:href="#LXGWWenKai-Regular-9762" transform="translate(99.999985 0.796875)"/>
     <use xlink:href="#LXGWWenKai-Regular-20" transform="translate(199.999969 0.796875)"/>
     <use xlink:href="#STIXGeneral-Regular-27c2" transform="translate(249.439951 0.796875)"/>
     <use xlink:href="#LXGWWenKai-Regular-20" transform="translate(333.179935 0.796875)"/>
     <use xlink:href="#LXGWWenKai-Regular-8f74" transform="translate(368.179919 0.796875)"/>
    </g>
   </g>
   <g id="text_3">
    <!-- 截面：圆 -->
    <g style="fill: #111111" transform="translate(260 250.56) scale(0.14 -0.14)">
     <defs>
      <path id="LXGWWenKai-Regular-622a" d="M 960 4307 
Q 1114 4269 1222 4269 
L 1267 4269 
L 2042 4320 
L 2042 4762 
Q 2042 4877 2000 4960 
Q 1958 5043 1958 5075 
Q 1958 5107 2003 5107 
Q 2048 5107 2144 5075 
Q 2406 4986 2406 4864 
L 2400 4339 
L 2874 4371 
Q 3021 4390 3062 4406 
Q 3104 4422 3142 4422 
Q 3181 4422 3251 4378 
Q 3437 4269 3437 4179 
Q 3437 4102 3290 4090 
L 2400 4032 
L 2394 3546 
L 3667 3616 
Q 3565 4307 3549 4640 
Q 3533 4973 3465 5069 
Q 3398 5165 3398 5190 
Q 3398 5242 3459 5242 
Q 3520 5242 3622 5222 
Q 3904 5158 3917 5011 
Q 3949 4384 4058 3642 
L 5242 3712 
Q 5402 3731 5466 3750 
Q 5530 3770 5571 3770 
Q 5613 3770 5683 3718 
Q 5869 3590 5869 3501 
Q 5869 3424 5715 3411 
L 4115 3315 
Q 4314 2163 4659 1395 
Q 4954 1939 5059 2320 
Q 5165 2701 5165 2746 
L 5165 2816 
Q 5165 2829 5152 2893 
Q 5152 2957 5216 2957 
Q 5242 2957 5338 2918 
Q 5600 2797 5600 2656 
Q 5600 2554 5347 1958 
Q 5094 1363 4851 998 
Q 5158 448 5530 115 
Q 5664 -6 5690 -6 
Q 5734 -6 5811 256 
Q 5888 518 5942 857 
Q 5997 1197 6064 1197 
Q 6131 1197 6150 877 
L 6157 730 
Q 6157 352 6099 29 
Q 6042 -294 5965 -396 
Q 5888 -499 5773 -499 
Q 5523 -499 5241 -224 
Q 4960 51 4602 672 
Q 4115 6 3622 -320 
Q 3424 -454 3363 -454 
Q 3302 -454 3302 -410 
Q 3302 -346 3437 -211 
Q 3994 333 4410 1005 
Q 3974 1862 3718 3296 
L 858 3123 
L 717 3117 
Q 595 3117 550 3162 
Q 435 3264 390 3418 
Q 384 3430 384 3456 
Q 384 3482 409 3482 
Q 435 3482 489 3462 
Q 544 3443 691 3443 
L 742 3443 
L 2035 3520 
L 2035 4013 
L 1389 3968 
L 1235 3962 
Q 1050 3962 973 4173 
Q 934 4269 934 4288 
Q 934 4307 960 4307 
z
M 5210 4237 
Q 5261 4192 5261 4115 
Q 5261 4038 5174 3952 
Q 5088 3866 5043 3866 
Q 4998 3866 4899 3987 
Q 4800 4109 4598 4294 
Q 4397 4480 4291 4563 
Q 4186 4646 4186 4694 
Q 4186 4742 4262 4819 
Q 4339 4896 4378 4896 
Q 4467 4896 4922 4493 
L 5210 4237 
z
M 2208 2502 
Q 2406 2880 2406 2953 
Q 2406 3027 2400 3097 
Q 2394 3168 2451 3168 
Q 2490 3168 2579 3123 
Q 2816 3014 2816 2912 
Q 2816 2880 2729 2739 
Q 2643 2598 2579 2528 
L 3187 2566 
Q 3347 2579 3401 2601 
Q 3456 2624 3485 2624 
Q 3514 2624 3632 2534 
Q 3750 2445 3750 2387 
Q 3750 2330 3715 2314 
Q 3680 2298 3629 2291 
L 2586 2227 
L 2579 1862 
L 2995 1888 
Q 3117 1901 3165 1917 
Q 3213 1933 3248 1933 
Q 3283 1933 3401 1856 
Q 3520 1779 3520 1702 
Q 3520 1626 3424 1606 
L 3411 1606 
L 2573 1562 
L 2566 1158 
L 3008 1178 
Q 3085 1184 3155 1206 
Q 3226 1229 3261 1229 
Q 3296 1229 3414 1152 
Q 3533 1075 3533 998 
Q 3533 922 3437 902 
L 3424 902 
L 2566 864 
L 2560 390 
L 3213 416 
Q 3379 429 3427 448 
Q 3475 467 3510 467 
Q 3546 467 3610 422 
Q 3776 307 3776 211 
Q 3776 141 3654 128 
L 1395 32 
L 1395 -333 
Q 1395 -486 1286 -486 
Q 1152 -486 1069 -419 
Q 986 -352 986 -262 
L 986 -230 
Q 986 -211 1008 -99 
Q 1030 13 1030 250 
L 1056 1754 
Q 781 1440 557 1257 
Q 333 1075 291 1075 
Q 250 1075 250 1123 
Q 250 1171 317 1254 
Q 384 1338 595 1610 
Q 806 1882 1091 2326 
Q 1376 2771 1376 2957 
L 1376 3034 
Q 1376 3123 1440 3123 
Q 1504 3123 1587 3068 
Q 1670 3014 1737 2944 
Q 1805 2874 1805 2816 
Q 1805 2758 1594 2458 
L 2208 2502 
z
M 2227 2208 
L 1408 2157 
L 1408 1786 
L 2221 1837 
L 2227 2208 
z
M 2221 1536 
L 1402 1491 
L 1402 1094 
L 2214 1139 
L 2221 1536 
z
M 2208 851 
L 1402 806 
L 1402 346 
L 2202 378 
L 2208 851 
z
" transform="scale(0.015625)"/>
      <path id="LXGWWenKai-Regular-ff1a" d="M 1574 646 
Q 1709 646 1814 515 
Q 1920 384 1920 253 
Q 1920 122 1840 38 
Q 1760 -45 1606 -45 
Q 1453 -45 1350 86 
Q 1248 218 1248 355 
Q 1248 493 1344 569 
Q 1440 646 1574 646 
z
M 1574 3021 
Q 1709 3021 1814 2889 
Q 1920 2758 1920 2627 
Q 1920 2496 1840 2413 
Q 1760 2330 1606 2330 
Q 1453 2330 1350 2461 
Q 1248 2592 1248 2729 
Q 1248 2867 1344 2944 
Q 1440 3021 1574 3021 
z
" transform="scale(0.015625)"/>
      <path id="LXGWWenKai-Regular-5706" d="M 5562 173 
Q 5766 -51 5766 -121 
Q 5766 -192 5702 -201 
Q 5638 -211 5549 -218 
L 1248 -314 
L 1248 -518 
Q 1248 -685 1139 -685 
Q 998 -685 899 -585 
Q 800 -486 800 -390 
L 800 -358 
Q 800 -333 822 -243 
Q 845 -154 845 102 
L 838 4358 
Q 838 4557 730 4774 
Q 717 4800 717 4819 
Q 717 4864 800 4864 
Q 883 4864 1248 4736 
L 5229 4973 
L 5286 4973 
Q 5517 4973 5581 4819 
Q 5606 4762 5606 4742 
L 5581 4608 
L 5562 173 
z
M 5165 4602 
L 1235 4384 
L 1248 45 
L 5152 154 
L 5165 4602 
z
M 4474 192 
Q 4429 192 4301 282 
Q 3981 518 3373 781 
Q 3290 826 3290 883 
Q 3290 941 3347 1017 
Q 3405 1094 3462 1094 
Q 3520 1094 4000 860 
Q 4480 627 4560 579 
Q 4640 531 4640 473 
Q 4640 416 4595 304 
Q 4550 192 4474 192 
z
M 2048 1434 
L 1958 2432 
Q 1946 2643 1904 2736 
Q 1862 2829 1862 2857 
Q 1862 2886 1936 2886 
Q 2010 2886 2336 2790 
L 4109 2886 
L 4128 2886 
Q 4230 2886 4323 2809 
Q 4416 2733 4416 2691 
Q 4416 2650 4403 2624 
Q 4390 2598 4384 2573 
L 4301 1472 
L 4294 1178 
L 4288 1114 
Q 4275 1018 4192 1030 
Q 4090 1030 3987 1110 
Q 3885 1190 3923 1308 
Q 3962 1427 4019 2592 
L 2304 2502 
L 2381 1421 
L 2400 1126 
L 2400 1062 
Q 2400 966 2297 966 
Q 2195 966 2108 1024 
Q 2022 1082 2022 1165 
L 2048 1434 
z
M 2189 3232 
L 2195 3315 
Q 2195 3373 2182 3450 
L 2138 3904 
Q 2125 4045 2070 4137 
Q 2016 4230 2016 4262 
Q 2016 4294 2077 4294 
Q 2138 4294 2445 4173 
L 3930 4269 
L 3974 4269 
Q 4077 4269 4141 4211 
Q 4205 4154 4205 4112 
Q 4205 4070 4195 4041 
Q 4186 4013 4179 3987 
L 4070 3462 
Q 4218 3309 4218 3267 
Q 4218 3226 4173 3222 
Q 4128 3219 4064 3213 
L 2560 3136 
L 2560 3110 
Q 2560 3021 2451 3021 
Q 2342 3021 2265 3065 
Q 2189 3110 2189 3194 
L 2189 3232 
z
M 3795 3974 
L 2483 3891 
L 2528 3411 
L 3725 3482 
L 3795 3974 
z
M 3059 2010 
Q 3059 2131 3027 2182 
Q 2995 2234 2995 2259 
Q 2995 2330 3116 2330 
Q 3238 2330 3328 2278 
Q 3418 2227 3418 2131 
Q 3398 1549 3273 1248 
Q 3149 947 2985 777 
Q 2822 608 2633 489 
Q 2445 371 2272 300 
Q 2099 230 1894 182 
Q 1690 134 1664 134 
Q 1568 134 1568 217 
Q 1568 301 1677 352 
Q 2707 691 2938 1318 
Q 3046 1606 3052 1718 
Q 3059 1830 3059 1914 
L 3059 2010 
z
" transform="scale(0.015625)"/>
     </defs>
     <use xlink:href="#LXGWWenKai-Regular-622a"/>
     <use xlink:href="#LXGWWenKai-Regular-9762" transform="translate(99.999985 0)"/>
     <use xlink:href="#LXGWWenKai-Regular-ff1a" transform="translate(199.999969 0)"/>
     <use xlink:href="#LXGWWenKai-Regular-5706" transform="translate(299.999954 0)"/>
    </g>
   </g>
  </g>
 </g>
 <defs>
  <clipPath id="p137286f625">
   <rect x="72" y="43.2" width="432" height="345.6"/>
  </clipPath>
 </defs>
</svg>
