<?xml version="1.0" encoding="utf-8" standalone="no"?>
<!DOCTYPE svg PUBLIC "-//W3C//DTD SVG 1.1//EN"
  "http://www.w3.org/Graphics/SVG/1.1/DTD/svg11.dtd">
<svg xmlns:xlink="http://www.w3.org/1999/xlink" width="1152pt" height="720pt" viewBox="0 0 1152 720" xmlns="http://www.w3.org/2000/svg" version="1.1">
 <metadata>
  <rdf:RDF xmlns:dc="http://purl.org/dc/elements/1.1/" xmlns:cc="http://creativecommons.org/ns#" xmlns:rdf="http://www.w3.org/1999/02/22-rdf-syntax-ns#">
   <cc:Work>
    <dc:type rdf:resource="http://purl.org/dc/dcmitype/StillImage"/>
    <dc:date>2026-02-12T14:28:12.509986</dc:date>
    <dc:format>image/svg+xml</dc:format>
    <dc:creator>
     <cc:Agent>
      <dc:title>Matplotlib v3.10.8, https://matplotlib.org/</dc:title>
     </cc:Agent>
    </dc:creator>
   </cc:Work>
  </rdf:RDF>
 </metadata>
 <defs>
  <style type="text/css">*{stroke-linejoin: round; stroke-linecap: butt}</style>
 </defs>
 <g id="figure_1">
  <g id="patch_1">
   <path d="M 0 720 
L 1152 720 
L 1152 0 
L 0 0 
z
" style="fill: #fefdf5"/>
  </g>
  <g id="axes_1">
   <g id="patch_2">
    <path d="M 74.807328 108.55914 
L 159.237044 254.795699 
L 243.666761 108.55914 
L 74.807328 108.55914 
z
" clip-path="url(#pab302daaef)" style="fill: none; stroke: #636363; stroke-linejoin: miter"/>
   </g>
   <g id="line2d_1">
    <path d="M 71.495109 181.677419 
L 246.97898 181.677419 
" clip-path="url(#pab302daaef)" style="fill: none; stroke: #111111; stroke-width: 2.5; stroke-linecap: square"/>
   </g>
  </g>
  <g id="axes_2">
   <g id="patch_3">
    <path d="M 159.237044 447.096774 
C 177.561723 447.096774 195.138337 439.816302 208.095842 426.858798 
C 221.053347 413.901293 228.333819 396.324679 228.333819 378 
C 228.333819 359.675321 221.053347 342.098707 208.095842 329.141202 
C 195.138337 316.183698 177.561723 308.903226 159.237044 308.903226 
C 140.912366 308.903226 123.335751 316.183698 110.378247 329.141202 
C 97.420742 342.098707 90.14027 359.675321 90.14027 378 
C 90.14027 396.324679 97.420742 413.901293 110.378247 426.858798 
C 123.335751 439.816302 140.912366 447.096774 159.237044 447.096774 
z
" clip-path="url(#p433ca383a0)" style="fill: #b3cde3; stroke: #111111; stroke-width: 2; stroke-linejoin: miter"/>
   </g>
   <g id="text_1">
    <!-- 圆 -->
    <g transform="translate(146.237044 456.967742) scale(0.26 -0.26)">
     <defs>
      <path id="LXGWWenKai-Regular-5706" d="M 5562 173 
Q 5766 -51 5766 -121 
Q 5766 -192 5702 -201 
Q 5638 -211 5549 -218 
L 1248 -314 
L 1248 -518 
Q 1248 -685 1139 -685 
Q 998 -685 899 -585 
Q 800 -486 800 -390 
L 800 -358 
Q 800 -333 822 -243 
Q 845 -154 845 102 
L 838 4358 
Q 838 4557 730 4774 
Q 717 4800 717 4819 
Q 717 4864 800 4864 
Q 883 4864 1248 4736 
L 5229 4973 
L 5286 4973 
Q 5517 4973 5581 4819 
Q 5606 4762 5606 4742 
L 5581 4608 
L 5562 173 
z
M 5165 4602 
L 1235 4384 
L 1248 45 
L 5152 154 
L 5165 4602 
z
M 4474 192 
Q 4429 192 4301 282 
Q 3981 518 3373 781 
Q 3290 826 3290 883 
Q 3290 941 3347 1017 
Q 3405 1094 3462 1094 
Q 3520 1094 4000 860 
Q 4480 627 4560 579 
Q 4640 531 4640 473 
Q 4640 416 4595 304 
Q 4550 192 4474 192 
z
M 2048 1434 
L 1958 2432 
Q 1946 2643 1904 2736 
Q 1862 2829 1862 2857 
Q 1862 2886 1936 2886 
Q 2010 2886 2336 2790 
L 4109 2886 
L 4128 2886 
Q 4230 2886 4323 2809 
Q 4416 2733 4416 2691 
Q 4416 2650 4403 2624 
Q 4390 2598 4384 2573 
L 4301 1472 
L 4294 1178 
L 4288 1114 
Q 4275 1018 4192 1030 
Q 4090 1030 3987 1110 
Q 3885 1190 3923 1308 
Q 3962 1427 4019 2592 
L 2304 2502 
L 2381 1421 
L 2400 1126 
L 2400 1062 
Q 2400 966 2297 966 
Q 2195 966 2108 1024 
Q 2022 1082 2022 1165 
L 2048 1434 
z
M 2189 3232 
L 2195 3315 
Q 2195 3373 2182 3450 
L 2138 3904 
Q 2125 4045 2070 4137 
Q 2016 4230 2016 4262 
Q 2016 4294 2077 4294 
Q 2138 4294 2445 4173 
L 3930 4269 
L 3974 4269 
Q 4077 4269 4141 4211 
Q 4205 4154 4205 4112 
Q 4205 4070 4195 4041 
Q 4186 4013 4179 3987 
L 4070 3462 
Q 4218 3309 4218 3267 
Q 4218 3226 4173 3222 
Q 4128 3219 4064 3213 
L 2560 3136 
L 2560 3110 
Q 2560 3021 2451 3021 
Q 2342 3021 2265 3065 
Q 2189 3110 2189 3194 
L 2189 3232 
z
M 3795 3974 
L 2483 3891 
L 2528 3411 
L 3725 3482 
L 3795 3974 
z
M 3059 2010 
Q 3059 2131 3027 2182 
Q 2995 2234 2995 2259 
Q 2995 2330 3116 2330 
Q 3238 2330 3328 2278 
Q 3418 2227 3418 2131 
Q 3398 1549 3273 1248 
Q 3149 947 2985 777 
Q 2822 608 2633 489 
Q 2445 371 2272 300 
Q 2099 230 1894 182 
Q 1690 134 1664 134 
Q 1568 134 1568 217 
Q 1568 301 1677 352 
Q 2707 691 2938 1318 
Q 3046 1606 3052 1718 
Q 3059 1830 3059 1914 
L 3059 2010 
z
" transform="scale(0.015625)"/>
     </defs>
     <use xlink:href="#LXGWWenKai-Regular-5706"/>
    </g>
   </g>
  </g>
  <g id="axes_3">
   <g id="text_2">
    <!-- $\alpha = 90^\circ$ -->
    <g style="fill: #111111" transform="translate(119.717044 592.245323) scale(0.26 -0.26)">
     <defs>
      <path id="STIXGeneral-Italic-3b1" d="M 3514 2739 
L 2605 1069 
L 2605 954 
Q 2605 704 2662 512 
Q 2720 320 2822 320 
Q 2970 320 3149 794 
L 3251 749 
Q 3014 -58 2605 -58 
Q 2291 -58 2272 614 
Q 1709 -70 1030 -70 
Q 589 -70 381 198 
Q 173 467 173 902 
Q 173 1293 329 1673 
Q 486 2054 755 2330 
Q 973 2547 1270 2684 
Q 1568 2822 1862 2822 
Q 2246 2822 2457 2595 
Q 2669 2368 2669 2061 
L 2963 2739 
L 3514 2739 
z
M 2298 1741 
Q 2298 2688 1805 2688 
Q 1472 2688 1085 2099 
Q 698 1510 698 800 
Q 698 493 806 278 
Q 915 64 1139 64 
Q 1606 64 2195 1286 
Q 2202 1325 2230 1411 
Q 2259 1498 2278 1581 
Q 2298 1664 2298 1741 
z
" transform="scale(0.015625)"/>
      <path id="STIXGeneral-Regular-3d" d="M 4077 2048 
L 307 2048 
L 307 2470 
L 4077 2470 
L 4077 2048 
z
M 4077 768 
L 307 768 
L 307 1190 
L 4077 1190 
L 4077 768 
z
" transform="scale(0.015625)"/>
      <path id="STIXGeneral-Regular-39" d="M 378 -141 
L 358 -13 
Q 1094 115 1603 608 
Q 2112 1101 2304 1882 
Q 1933 1517 1344 1517 
Q 826 1517 509 1875 
Q 192 2234 192 2816 
Q 192 3462 573 3894 
Q 954 4326 1523 4326 
Q 2131 4326 2528 3840 
Q 2938 3328 2938 2522 
Q 2938 1958 2742 1462 
Q 2547 966 2170 621 
Q 1773 262 1395 105 
Q 1018 -51 378 -141 
z
M 2317 2272 
L 2317 2522 
Q 2317 4147 1472 4147 
Q 1171 4147 1005 3930 
Q 909 3802 845 3546 
Q 781 3290 781 3034 
Q 781 2464 995 2128 
Q 1210 1792 1568 1792 
Q 1824 1792 2070 1917 
Q 2317 2042 2317 2272 
z
" transform="scale(0.015625)"/>
      <path id="STIXGeneral-Regular-30" d="M 3046 2112 
Q 3046 1683 2963 1302 
Q 2880 922 2717 602 
Q 2554 282 2266 96 
Q 1978 -90 1600 -90 
Q 1210 -90 915 108 
Q 621 307 461 640 
Q 301 973 227 1350 
Q 154 1728 154 2150 
Q 154 2746 301 3222 
Q 448 3699 790 4012 
Q 1133 4326 1626 4326 
Q 2253 4326 2649 3712 
Q 3046 3098 3046 2112 
z
M 2432 2080 
Q 2432 3091 2217 3625 
Q 2003 4160 1587 4160 
Q 1190 4160 979 3622 
Q 768 3085 768 2106 
Q 768 1120 979 598 
Q 1190 77 1600 77 
Q 2003 77 2217 598 
Q 2432 1120 2432 2080 
z
" transform="scale(0.015625)"/>
      <path id="STIXGeneral-Regular-2218" d="M 1734 2224 
Q 1984 1971 1984 1612 
Q 1984 1254 1731 1001 
Q 1478 749 1120 749 
Q 755 749 505 1001 
Q 256 1254 256 1626 
Q 256 1984 509 2230 
Q 762 2477 1133 2477 
Q 1485 2477 1734 2224 
z
M 1434 1299 
Q 1562 1427 1562 1612 
Q 1562 1798 1434 1926 
Q 1306 2054 1133 2054 
Q 934 2054 806 1929 
Q 678 1805 678 1626 
Q 678 1427 803 1299 
Q 928 1171 1120 1171 
Q 1306 1171 1434 1299 
z
" transform="scale(0.015625)"/>
     </defs>
     <use xlink:href="#STIXGeneral-Italic-3b1" transform="translate(0 0.40625)"/>
     <use xlink:href="#STIXGeneral-Regular-3d" transform="translate(69.639993 0.40625)"/>
     <use xlink:href="#STIXGeneral-Regular-39" transform="translate(152.579974 0.40625)"/>
     <use xlink:href="#STIXGeneral-Regular-30" transform="translate(202.579959 0.40625)"/>
     <use xlink:href="#STIXGeneral-Regular-2218" transform="translate(264.231223 35.68125) scale(0.7)"/>
    </g>
   </g>
  </g>
  <g id="axes_4">
   <g id="patch_4">
    <path d="M 338.369337 262.107527 
L 535.788692 262.107527 
L 535.788692 72 
L 338.369337 72 
z
" style="fill: #fbb4ae; opacity: 0.15"/>
   </g>
   <g id="patch_5">
    <path d="M 352.649298 108.55914 
L 437.079015 254.795699 
L 521.508732 108.55914 
L 352.649298 108.55914 
z
" clip-path="url(#pd69c641f7c)" style="fill: none; stroke: #636363; stroke-linejoin: miter"/>
   </g>
   <g id="line2d_2">
    <path d="M 361.09227 137.806452 
L 513.06576 225.548387 
" clip-path="url(#pd69c641f7c)" style="fill: none; stroke: #111111; stroke-width: 2.5; stroke-linecap: square"/>
   </g>
   <g id="text_3">
    <!-- ★ 重点 -->
    <g style="fill: #d6604d" transform="translate(396.879015 86.623656) scale(0.24 -0.24)">
     <defs>
      <path id="LXGWWenKai-Regular-2605" d="M 3200 800 
L 1331 -595 
L 2010 1690 
L 77 3072 
L 2464 3072 
L 3200 5338 
L 3936 3072 
L 6323 3072 
L 4390 1690 
L 5075 -595 
L 3200 800 
z
" transform="scale(0.015625)"/>
      <path id="LXGWWenKai-Regular-20" transform="scale(0.015625)"/>
      <path id="LXGWWenKai-Regular-91cd" d="M 1542 1331 
Q 1562 1504 1562 1555 
L 1562 1632 
Q 1562 1658 1555 1683 
L 1446 2733 
Q 1434 2906 1379 3027 
Q 1325 3149 1325 3181 
Q 1325 3213 1408 3213 
Q 1491 3213 1818 3104 
L 2970 3168 
L 2970 3610 
L 1126 3514 
L 928 3501 
Q 800 3501 742 3558 
Q 563 3738 563 3795 
Q 563 3853 608 3853 
L 634 3853 
Q 787 3834 902 3834 
L 979 3834 
L 2976 3942 
L 2976 4320 
Q 2605 4275 2230 4259 
Q 1856 4243 1472 4218 
L 1408 4218 
Q 1197 4218 1197 4294 
Q 1197 4384 1446 4422 
Q 3264 4659 4301 4966 
Q 4467 5018 4534 5085 
Q 4602 5152 4643 5152 
Q 4685 5152 4765 5072 
Q 4845 4992 4902 4899 
Q 4960 4806 4960 4762 
Q 4960 4691 4870 4672 
Q 4077 4486 3366 4378 
L 3366 3962 
L 5190 4064 
Q 5222 4070 5491 4122 
Q 5517 4122 5594 4077 
Q 5811 3949 5811 3840 
Q 5811 3776 5670 3763 
L 3360 3635 
L 3360 3187 
L 4678 3258 
L 4723 3258 
Q 4890 3258 4954 3158 
Q 5018 3059 5018 3024 
Q 5018 2989 5002 2953 
Q 4986 2918 4979 2886 
L 4826 1722 
Q 4973 1549 4973 1491 
Q 4973 1434 4925 1430 
Q 4877 1427 4806 1421 
L 3347 1363 
L 3347 902 
L 4557 947 
Q 4698 973 4762 989 
Q 4826 1005 4854 1005 
Q 4883 1005 4966 960 
Q 5171 832 5171 717 
Q 5171 646 4992 634 
L 3347 570 
L 3341 13 
L 5382 64 
Q 5542 64 5644 93 
Q 5747 122 5792 122 
Q 5837 122 5907 58 
Q 5978 -6 6032 -86 
Q 6086 -166 6086 -205 
Q 6086 -269 5958 -282 
L 883 -403 
L 749 -410 
Q 550 -410 499 -346 
Q 352 -141 352 -70 
Q 352 0 397 0 
Q 621 -45 794 -45 
L 2957 6 
L 2957 557 
L 1670 506 
L 1530 506 
Q 1402 506 1350 557 
Q 1178 730 1178 845 
Q 1178 890 1222 890 
Q 1248 890 1321 867 
Q 1395 845 1549 845 
L 1606 845 
L 2963 890 
L 2963 1350 
L 1965 1312 
L 1971 1235 
L 1971 1216 
Q 1971 1107 1875 1107 
Q 1818 1107 1718 1152 
Q 1619 1197 1580 1232 
Q 1542 1267 1542 1331 
z
M 4563 2938 
L 3360 2880 
L 3354 2445 
L 4525 2502 
L 4563 2938 
z
M 2970 2861 
L 1824 2803 
L 1862 2374 
L 2970 2426 
L 2970 2861 
z
M 4499 2195 
L 3354 2144 
L 3354 1670 
L 4461 1715 
L 4499 2195 
z
M 2963 2125 
L 1894 2080 
L 1933 1613 
L 2963 1658 
L 2963 2125 
z
" transform="scale(0.015625)"/>
      <path id="LXGWWenKai-Regular-70b9" d="M 1632 1197 
Q 1658 1376 1658 1449 
Q 1658 1523 1645 1613 
L 1523 2560 
Q 1510 2746 1456 2854 
Q 1402 2963 1402 3001 
Q 1402 3040 1494 3040 
Q 1587 3040 1926 2912 
L 2880 2963 
L 2886 4717 
Q 2886 4845 2838 4931 
Q 2790 5018 2790 5053 
Q 2790 5088 2860 5088 
Q 2931 5088 3034 5069 
Q 3309 5018 3309 4864 
L 3290 4077 
L 4538 4147 
Q 4659 4154 4729 4186 
Q 4800 4218 4854 4218 
Q 4909 4218 4979 4166 
Q 5158 4045 5158 3917 
Q 5158 3827 4992 3814 
L 3283 3725 
L 3270 2989 
L 4499 3053 
L 4576 3053 
Q 4704 3053 4790 2979 
Q 4877 2906 4877 2848 
Q 4877 2790 4857 2761 
Q 4838 2733 4832 2707 
L 4659 1683 
Q 4800 1485 4800 1414 
Q 4800 1344 4745 1337 
Q 4691 1331 4608 1325 
L 2061 1235 
L 2074 1101 
L 2074 1069 
Q 2074 941 1952 941 
Q 1818 941 1725 1024 
Q 1632 1107 1632 1197 
z
M 4416 2701 
L 1926 2573 
L 2022 1587 
L 4269 1677 
L 4416 2701 
z
M 5686 153 
Q 5856 -26 5968 -163 
Q 6080 -301 6080 -349 
Q 6080 -397 6029 -461 
Q 5805 -704 5677 -506 
Q 5235 96 4723 570 
Q 4646 646 4646 691 
Q 4646 736 4716 819 
Q 4787 902 4835 902 
Q 4883 902 5020 790 
Q 5158 678 5337 505 
Q 5517 333 5686 153 
z
M 4157 195 
Q 4288 32 4374 -89 
Q 4461 -211 4461 -246 
Q 4461 -282 4361 -374 
Q 4262 -467 4188 -467 
Q 4115 -467 4045 -352 
Q 3725 173 3347 576 
Q 3277 659 3277 698 
Q 3277 762 3357 826 
Q 3437 890 3481 890 
Q 3526 890 3638 784 
Q 3750 678 3888 518 
Q 4026 358 4157 195 
z
M 838 -499 
Q 736 -614 685 -614 
Q 634 -614 528 -531 
Q 422 -448 422 -371 
Q 422 -294 486 -230 
Q 973 256 1210 755 
Q 1254 858 1331 858 
Q 1408 858 1491 810 
Q 1574 762 1574 698 
Q 1574 634 1497 486 
Q 1421 339 1305 153 
Q 1190 -32 1065 -208 
Q 941 -384 838 -499 
z
M 2813 182 
Q 2912 26 2973 -92 
Q 3034 -211 3034 -249 
Q 3034 -288 2938 -368 
Q 2842 -448 2755 -448 
Q 2669 -448 2611 -326 
Q 2381 205 2131 538 
Q 2067 621 2067 665 
Q 2067 710 2144 771 
Q 2221 832 2272 832 
Q 2323 832 2412 733 
Q 2502 634 2608 486 
Q 2714 339 2813 182 
z
" transform="scale(0.015625)"/>
     </defs>
     <use xlink:href="#LXGWWenKai-Regular-2605"/>
     <use xlink:href="#LXGWWenKai-Regular-20" transform="translate(99.999985 0)"/>
     <use xlink:href="#LXGWWenKai-Regular-91cd" transform="translate(134.999969 0)"/>
     <use xlink:href="#LXGWWenKai-Regular-70b9" transform="translate(234.999954 0)"/>
    </g>
   </g>
  </g>
  <g id="axes_5">
   <g id="patch_6">
    <path d="M 437.079015 417.483871 
C 458.021505 417.483871 478.109064 413.323601 492.917641 405.919313 
C 507.726217 398.515025 516.046757 388.471245 516.046757 378 
C 516.046757 367.528755 507.726217 357.484975 492.917641 350.080687 
C 478.109064 342.676399 458.021505 338.516129 437.079015 338.516129 
C 416.136525 338.516129 396.048966 342.676399 381.240389 350.080687 
C 366.431812 357.484975 358.111273 367.528755 358.111273 378 
C 358.111273 388.471245 366.431812 398.515025 381.240389 405.919313 
C 396.048966 413.323601 416.136525 417.483871 437.079015 417.483871 
z
" clip-path="url(#pd87a464044)" style="fill: #fbb4ae; stroke: #111111; stroke-width: 2; stroke-linejoin: miter"/>
   </g>
   <g id="text_4">
    <!-- 椭圆 -->
    <g transform="translate(411.079015 456.967742) scale(0.26 -0.26)">
     <defs>
      <path id="LXGWWenKai-Regular-692d" d="M 2912 2189 
Q 3002 2112 3094 2054 
Q 3187 1997 3216 1997 
Q 3245 1997 3245 2074 
L 3245 2189 
Q 3245 2330 3177 2586 
Q 3110 2842 2854 3136 
Q 2784 3213 2784 3309 
Q 2784 3405 2864 3552 
Q 2944 3699 3187 4326 
L 2701 4294 
L 2714 -346 
Q 2714 -486 2624 -486 
Q 2496 -486 2409 -400 
Q 2323 -314 2323 -253 
Q 2323 -192 2345 -35 
Q 2368 122 2368 403 
L 2362 3968 
Q 2362 4275 2323 4457 
Q 2285 4640 2285 4681 
Q 2285 4723 2349 4723 
Q 2413 4723 2733 4595 
L 3379 4653 
Q 3437 4653 3533 4601 
Q 3629 4550 3629 4483 
Q 3629 4416 3424 3965 
Q 3219 3514 3174 3430 
Q 3130 3347 3130 3305 
Q 3130 3264 3162 3219 
Q 3450 2899 3584 2336 
Q 3910 2944 4154 3642 
L 3968 3622 
L 3885 3622 
Q 3693 3622 3632 3689 
Q 3571 3757 3539 3846 
Q 3507 3936 3507 3962 
Q 3507 3974 3545 3974 
Q 3584 3974 3657 3948 
Q 3731 3923 3859 3923 
L 3904 3923 
L 4256 3962 
Q 4442 4621 4442 4793 
Q 4442 4966 4422 5027 
Q 4403 5088 4403 5117 
Q 4403 5146 4441 5146 
Q 4480 5146 4582 5107 
Q 4858 5011 4858 4870 
Q 4858 4813 4778 4515 
Q 4698 4218 4621 3994 
L 5459 4070 
Q 5626 4090 5667 4106 
Q 5709 4122 5766 4122 
Q 5824 4122 5939 4029 
Q 6054 3936 6054 3853 
Q 6054 3795 5914 3782 
L 4499 3674 
Q 4384 3360 4218 3046 
Q 4320 3034 4429 2995 
L 5318 3059 
L 5382 3059 
Q 5530 3059 5581 2979 
Q 5632 2899 5632 2848 
L 5613 2739 
L 5626 -6 
L 5638 -262 
Q 5638 -493 5478 -563 
Q 5421 -589 5366 -589 
Q 5312 -589 5181 -493 
Q 5050 -397 4925 -269 
Q 4800 -141 4717 -22 
Q 4634 96 4634 134 
Q 4634 154 4688 154 
Q 4742 154 4896 61 
Q 5050 -32 5280 -141 
L 5280 934 
L 4390 883 
L 4371 -384 
Q 4371 -506 4275 -506 
Q 4205 -506 4102 -442 
Q 4000 -378 4000 -320 
Q 4000 -262 4019 -163 
Q 4038 -64 4038 128 
L 4077 2611 
Q 4077 2656 4077 2701 
Q 4077 2746 4070 2778 
Q 3744 2221 3603 2125 
Q 3603 2112 3603 2099 
Q 3603 1882 3513 1722 
Q 3424 1562 3322 1562 
Q 3162 1562 2947 1850 
Q 2733 2138 2733 2202 
Q 2733 2266 2771 2266 
Q 2822 2266 2912 2189 
z
M 1229 2112 
L 1242 2554 
L 1248 2656 
Q 1069 1837 614 1088 
Q 346 621 250 621 
Q 218 621 218 675 
Q 218 730 256 826 
Q 666 1696 1126 3226 
L 800 3200 
Q 685 3187 640 3187 
Q 410 3187 307 3462 
Q 301 3475 301 3510 
Q 301 3546 336 3546 
Q 371 3546 425 3533 
Q 480 3520 595 3520 
L 672 3520 
L 1235 3565 
L 1248 4704 
Q 1248 4858 1178 4960 
Q 1158 4998 1158 5018 
Q 1158 5069 1260 5069 
Q 1363 5069 1523 4979 
Q 1606 4934 1606 4838 
L 1587 3597 
L 1734 3610 
Q 1875 3629 1923 3645 
Q 1971 3661 2048 3661 
Q 2125 3661 2224 3565 
Q 2323 3469 2323 3418 
Q 2323 3334 2176 3315 
L 1587 3264 
L 1581 2867 
Q 1651 2918 1702 2918 
Q 1798 2918 2028 2524 
Q 2259 2131 2259 2060 
Q 2259 1990 2169 1942 
Q 2080 1894 2025 1894 
Q 1971 1894 1904 2022 
Q 1837 2150 1750 2326 
Q 1664 2502 1574 2630 
L 1536 -480 
Q 1536 -614 1440 -614 
Q 1382 -614 1306 -576 
Q 1158 -506 1158 -365 
Q 1158 -326 1180 -236 
Q 1203 -147 1203 32 
L 1203 166 
Q 1229 730 1229 2112 
z
M 5280 1850 
L 4403 1798 
L 4397 1165 
L 5280 1210 
L 5280 1850 
z
M 5280 2752 
L 4416 2694 
L 4410 2086 
L 5280 2138 
L 5280 2752 
z
" transform="scale(0.015625)"/>
     </defs>
     <use xlink:href="#LXGWWenKai-Regular-692d"/>
     <use xlink:href="#LXGWWenKai-Regular-5706" transform="translate(99.999985 0)"/>
    </g>
   </g>
  </g>
  <g id="axes_6">
   <g id="text_5">
    <!-- $\theta &lt; \alpha &lt; 90^\circ$ -->
    <g style="fill: #d6604d" transform="translate(378.709015 592.245323) scale(0.26 -0.26)">
     <defs>
      <path id="STIXGeneral-Italic-3b8" d="M 3162 3270 
Q 3162 2534 2925 1862 
Q 2688 1190 2304 678 
Q 1741 -70 992 -70 
Q 608 -70 390 224 
Q 173 518 173 1030 
Q 173 1997 592 2813 
Q 1011 3629 1594 4070 
Q 1952 4339 2374 4339 
Q 2733 4339 2947 4076 
Q 3162 3814 3162 3270 
z
M 941 2221 
L 2432 2221 
Q 2624 2874 2624 3533 
Q 2624 4205 2285 4205 
Q 2029 4205 1728 3814 
Q 1427 3424 1232 2992 
Q 1037 2560 941 2221 
z
M 2387 2016 
L 896 2016 
Q 710 1530 710 960 
Q 710 64 1069 64 
Q 1286 64 1510 275 
Q 1734 486 1904 806 
Q 2074 1126 2198 1440 
Q 2323 1754 2387 2016 
z
" transform="scale(0.015625)"/>
      <path id="STIXGeneral-Regular-3c" d="M 3974 -154 
L 358 1594 
L 358 1658 
L 3974 3418 
L 3974 3002 
L 1210 1626 
L 3974 250 
L 3974 -154 
z
" transform="scale(0.015625)"/>
     </defs>
     <use xlink:href="#STIXGeneral-Italic-3b8" transform="translate(0 0.203125)"/>
     <use xlink:href="#STIXGeneral-Regular-3c" transform="translate(62.439981 0.203125)"/>
     <use xlink:href="#STIXGeneral-Italic-3b1" transform="translate(145.379962 0.203125)"/>
     <use xlink:href="#STIXGeneral-Regular-3c" transform="translate(215.019955 0.203125)"/>
     <use xlink:href="#STIXGeneral-Regular-39" transform="translate(297.959937 0.203125)"/>
     <use xlink:href="#STIXGeneral-Regular-30" transform="translate(347.959921 0.203125)"/>
     <use xlink:href="#STIXGeneral-Regular-2218" transform="translate(409.611185 35.478125) scale(0.7)"/>
    </g>
   </g>
  </g>
  <g id="axes_7">
   <g id="patch_7">
    <path d="M 630.491268 108.55914 
L 714.920985 254.795699 
L 799.350702 108.55914 
L 630.491268 108.55914 
z
" clip-path="url(#p63ca2c072f)" style="fill: none; stroke: #636363; stroke-linejoin: miter"/>
   </g>
   <g id="line2d_3">
    <path d="M 671.050017 105.690674 
L 758.791953 257.664164 
" clip-path="url(#p63ca2c072f)" style="fill: none; stroke: #111111; stroke-width: 2.5; stroke-linecap: square"/>
   </g>
  </g>
  <g id="axes_8">
   <g id="FillBetweenPolyCollection_1">
    <defs>
     <path id="m9623448afb" d="M 645.824211 -440.709677 
L 645.824211 -370.230968 
L 648.644488 -364.816037 
L 651.464764 -359.626728 
L 654.285041 -354.663041 
L 657.105317 -349.924977 
L 659.925594 -345.412535 
L 662.74587 -341.125714 
L 665.566147 -337.064516 
L 668.386423 -333.22894 
L 671.2067 -329.618986 
L 674.026976 -326.234654 
L 676.847253 -323.075945 
L 679.667529 -320.142857 
L 682.487805 -317.435392 
L 685.308082 -314.953548 
L 688.128358 -312.697327 
L 690.948635 -310.666728 
L 693.768911 -308.861751 
L 696.589188 -307.282396 
L 699.409464 -305.928664 
L 702.229741 -304.800553 
L 705.050017 -303.898065 
L 707.870294 -303.221198 
L 710.69057 -302.769954 
L 713.510847 -302.544332 
L 716.331123 -302.544332 
L 719.1514 -302.769954 
L 721.971676 -303.221198 
L 724.791953 -303.898065 
L 727.612229 -304.800553 
L 730.432506 -305.928664 
L 733.252782 -307.282396 
L 736.073059 -308.861751 
L 738.893335 -310.666728 
L 741.713612 -312.697327 
L 744.533888 -314.953548 
L 747.354165 -317.435392 
L 750.174441 -320.142857 
L 752.994718 -323.075945 
L 755.814994 -326.234654 
L 758.635271 -329.618986 
L 761.455547 -333.22894 
L 764.275824 -337.064516 
L 767.0961 -341.125714 
L 769.916377 -345.412535 
L 772.736653 -349.924977 
L 775.55693 -354.663041 
L 778.377206 -359.626728 
L 781.197483 -364.816037 
L 784.017759 -370.230968 
L 784.017759 -440.709677 
L 784.017759 -440.709677 
L 781.197483 -440.709677 
L 778.377206 -440.709677 
L 775.55693 -440.709677 
L 772.736653 -440.709677 
L 769.916377 -440.709677 
L 767.0961 -440.709677 
L 764.275824 -440.709677 
L 761.455547 -440.709677 
L 758.635271 -440.709677 
L 755.814994 -440.709677 
L 752.994718 -440.709677 
L 750.174441 -440.709677 
L 747.354165 -440.709677 
L 744.533888 -440.709677 
L 741.713612 -440.709677 
L 738.893335 -440.709677 
L 736.073059 -440.709677 
L 733.252782 -440.709677 
L 730.432506 -440.709677 
L 727.612229 -440.709677 
L 724.791953 -440.709677 
L 721.971676 -440.709677 
L 719.1514 -440.709677 
L 716.331123 -440.709677 
L 713.510847 -440.709677 
L 710.69057 -440.709677 
L 707.870294 -440.709677 
L 705.050017 -440.709677 
L 702.229741 -440.709677 
L 699.409464 -440.709677 
L 696.589188 -440.709677 
L 693.768911 -440.709677 
L 690.948635 -440.709677 
L 688.128358 -440.709677 
L 685.308082 -440.709677 
L 682.487805 -440.709677 
L 679.667529 -440.709677 
L 676.847253 -440.709677 
L 674.026976 -440.709677 
L 671.2067 -440.709677 
L 668.386423 -440.709677 
L 665.566147 -440.709677 
L 662.74587 -440.709677 
L 659.925594 -440.709677 
L 657.105317 -440.709677 
L 654.285041 -440.709677 
L 651.464764 -440.709677 
L 648.644488 -440.709677 
L 645.824211 -440.709677 
z
" style="stroke: #111111; stroke-width: 2"/>
    </defs>
    <g clip-path="url(#p938a78f925)">
     <use xlink:href="#m9623448afb" x="0" y="720" style="fill: #ccebc5; stroke: #111111; stroke-width: 2"/>
    </g>
   </g>
   <g id="text_6">
    <!-- 抛物线 -->
    <g transform="translate(675.920985 456.967742) scale(0.26 -0.26)">
     <defs>
      <path id="LXGWWenKai-Regular-629b" d="M 5056 3290 
Q 5030 3130 5004 2966 
Q 4979 2803 4912 2473 
Q 4845 2144 4681 1760 
Q 4518 1376 4345 1110 
Q 4173 845 4038 710 
Q 3904 576 3869 576 
Q 3834 576 3834 624 
Q 3834 672 4019 1018 
Q 4538 1958 4698 3258 
L 4557 3245 
Q 4467 3232 4355 3232 
Q 4243 3232 4166 3299 
Q 4090 3366 4058 3440 
Q 4026 3514 4019 3523 
Q 4013 3533 4013 3558 
Q 4013 3603 4058 3603 
Q 4083 3603 4160 3584 
Q 4237 3565 4352 3565 
L 4384 3565 
L 4730 3597 
Q 4794 3974 4794 4358 
Q 4794 4742 4778 4816 
Q 4762 4890 4739 4947 
Q 4717 5005 4717 5024 
Q 4717 5075 4819 5075 
Q 4922 5075 5046 5001 
Q 5171 4928 5171 4826 
Q 5158 4211 5094 3629 
L 5568 3674 
L 5619 3674 
Q 5728 3674 5808 3600 
Q 5888 3526 5888 3475 
Q 5888 3424 5872 3395 
Q 5856 3366 5850 3334 
Q 5805 2490 5753 1875 
Q 5702 1261 5593 931 
Q 5485 602 5261 602 
Q 5075 602 4819 918 
Q 4563 1235 4563 1331 
Q 4563 1363 4611 1363 
Q 4659 1363 4816 1264 
Q 4973 1165 5069 1104 
Q 5165 1043 5190 1043 
Q 5376 1043 5478 3334 
L 5056 3290 
z
M 365 3565 
Q 525 3533 576 3533 
L 659 3533 
Q 691 3533 736 3539 
L 1222 3571 
L 1229 4602 
Q 1229 4787 1126 4960 
Q 1107 4992 1107 5011 
Q 1107 5050 1171 5050 
Q 1235 5050 1344 5018 
Q 1613 4947 1613 4781 
L 1606 3603 
L 1722 3610 
Q 1837 3622 1904 3654 
Q 1971 3686 1996 3686 
Q 2022 3686 2099 3648 
Q 2330 3526 2330 3405 
Q 2330 3328 2182 3309 
L 1600 3264 
L 1594 2150 
Q 1843 2310 2138 2515 
Q 2227 2573 2272 2573 
Q 2317 2573 2317 2528 
Q 2317 2483 2233 2377 
Q 2150 2272 1594 1824 
L 1581 186 
L 1594 -51 
Q 1594 -314 1382 -397 
Q 1306 -422 1280 -422 
Q 1062 -422 717 -38 
Q 582 122 492 259 
Q 403 397 403 435 
Q 403 474 435 474 
Q 480 474 665 346 
Q 851 218 1203 70 
L 1210 1523 
Q 781 1197 710 1165 
Q 640 1133 566 1133 
Q 493 1133 403 1193 
Q 314 1254 259 1321 
Q 205 1389 205 1417 
Q 205 1446 336 1462 
Q 467 1478 1216 1920 
L 1222 3232 
L 877 3206 
Q 736 3194 643 3194 
Q 550 3194 486 3258 
Q 422 3322 387 3395 
Q 352 3469 342 3488 
Q 333 3507 333 3536 
Q 333 3565 365 3565 
z
M 2086 3200 
L 2298 3168 
L 2406 3168 
Q 2445 3168 2470 3174 
L 2765 3213 
Q 2816 3738 2816 4480 
Q 2816 4634 2774 4723 
Q 2733 4813 2733 4838 
Q 2733 4896 2848 4896 
Q 2963 4896 3123 4813 
Q 3213 4762 3213 4678 
Q 3200 3757 3149 3258 
L 3635 3315 
Q 3654 3322 3674 3322 
L 3706 3322 
Q 3795 3322 3872 3254 
Q 3949 3187 3949 3126 
Q 3949 3066 3936 3027 
Q 3923 2989 3917 2938 
L 3667 525 
Q 3661 493 3661 461 
L 3661 403 
Q 3661 294 3712 218 
Q 3808 83 4441 83 
Q 5075 83 5645 160 
Q 5747 173 5795 240 
Q 5843 307 5907 547 
Q 5971 787 6006 1078 
Q 6042 1370 6093 1370 
Q 6189 1370 6189 787 
Q 6189 525 6169 310 
Q 6150 96 6051 -38 
Q 5952 -173 5696 -211 
Q 5171 -288 4630 -288 
Q 4090 -288 3805 -240 
Q 3520 -192 3408 -51 
Q 3296 90 3296 365 
L 3296 435 
Q 3296 474 3302 512 
L 3539 2970 
L 3117 2918 
Q 2995 1690 2560 640 
Q 2304 13 1805 -461 
Q 1722 -538 1670 -538 
Q 1632 -538 1632 -493 
Q 1632 -448 1690 -352 
Q 2534 934 2733 2867 
L 2566 2842 
Q 2515 2835 2470 2828 
Q 2426 2822 2352 2822 
Q 2278 2822 2204 2902 
Q 2131 2982 2096 3068 
Q 2061 3155 2061 3162 
Q 2061 3200 2086 3200 
z
" transform="scale(0.015625)"/>
      <path id="LXGWWenKai-Regular-7269" d="M 3546 4890 
L 3533 4973 
Q 3533 5056 3597 5056 
Q 3661 5056 3757 5005 
Q 4013 4870 4013 4749 
Q 4013 4730 4013 4710 
Q 4013 4691 3920 4432 
Q 3827 4173 3565 3661 
L 5523 3795 
L 5574 3795 
Q 5664 3795 5747 3734 
Q 5830 3674 5830 3603 
L 5805 3443 
Q 5792 2400 5709 1549 
Q 5626 698 5574 384 
Q 5523 70 5488 -90 
Q 5453 -250 5376 -326 
Q 5299 -403 5238 -441 
Q 5178 -480 5107 -480 
Q 5037 -480 4877 -390 
Q 4499 -186 4096 205 
Q 3981 320 3981 371 
Q 3981 422 4045 422 
Q 4109 422 4358 284 
Q 4608 147 5018 0 
L 5043 -6 
Q 5114 -6 5197 563 
Q 5414 1990 5414 3437 
L 5094 3418 
Q 4819 2144 4326 1293 
Q 3834 442 3091 -102 
Q 3085 -109 3014 -153 
Q 2944 -198 2902 -198 
Q 2861 -198 2861 -147 
Q 2861 -96 2976 26 
Q 4301 1434 4666 3392 
L 4269 3360 
Q 3846 2080 3232 1408 
Q 2989 1146 2829 1037 
L 2675 934 
Q 2598 883 2553 883 
Q 2509 883 2509 934 
Q 2509 986 2618 1101 
Q 3418 1997 3827 3334 
L 3360 3302 
Q 3034 2758 2643 2381 
Q 2477 2221 2419 2221 
Q 2362 2221 2362 2253 
Q 2362 2323 2531 2553 
Q 2701 2784 2905 3168 
Q 3110 3552 3328 4096 
Q 3546 4640 3546 4858 
L 3546 4890 
z
M 2355 3546 
L 2502 3584 
Q 2650 3584 2784 3418 
Q 2835 3360 2835 3322 
Q 2835 3232 2694 3219 
L 1978 3174 
L 1958 1882 
Q 2387 2054 2595 2150 
Q 2803 2246 2860 2246 
Q 2918 2246 2918 2214 
Q 2918 2106 2176 1690 
Q 2022 1600 1958 1568 
L 1933 -416 
Q 1933 -563 1805 -563 
Q 1722 -563 1616 -486 
Q 1510 -410 1510 -314 
L 1510 -282 
Q 1510 -262 1529 -144 
Q 1549 -26 1562 563 
L 1568 1370 
Q 800 992 640 992 
Q 576 992 512 1024 
Q 333 1094 243 1267 
Q 237 1293 227 1312 
Q 218 1331 218 1338 
Q 218 1376 275 1376 
L 333 1376 
Q 557 1376 867 1478 
Q 1178 1581 1574 1728 
L 1587 3149 
L 1094 3123 
Q 902 2637 704 2355 
Q 506 2074 435 2074 
Q 397 2074 397 2138 
Q 397 2202 512 2477 
Q 627 2752 736 3142 
Q 845 3533 896 3808 
Q 947 4083 947 4147 
L 922 4314 
Q 922 4371 973 4371 
Q 1024 4371 1126 4326 
Q 1389 4218 1389 4090 
L 1389 4070 
Q 1312 3763 1216 3469 
L 1587 3494 
L 1600 4602 
Q 1600 4819 1561 4902 
Q 1523 4986 1523 5005 
Q 1523 5050 1574 5050 
Q 1626 5050 1773 5008 
Q 1920 4966 1958 4921 
Q 1997 4877 1997 4787 
L 1984 3520 
L 2246 3533 
Q 2298 3539 2355 3546 
z
" transform="scale(0.015625)"/>
      <path id="LXGWWenKai-Regular-7ebf" d="M 1837 1888 
Q 2112 1933 2281 1961 
Q 2451 1990 2544 1984 
Q 2637 1978 2630 1926 
Q 2624 1837 2243 1680 
Q 1862 1523 1430 1414 
Q 998 1306 928 1312 
Q 858 1318 813 1357 
Q 691 1504 659 1609 
Q 627 1715 627 1728 
Q 634 1786 698 1779 
L 794 1773 
Q 922 1760 1043 1766 
Q 1299 2144 1517 2515 
L 1574 2605 
Q 1088 2944 608 3149 
Q 499 3200 486 3251 
Q 474 3302 518 3401 
Q 563 3501 624 3513 
Q 685 3526 806 3482 
Q 832 3469 851 3462 
Q 1395 4250 1510 4544 
Q 1626 4838 1626 4979 
L 1626 5043 
Q 1626 5114 1677 5114 
Q 1709 5114 1798 5062 
Q 2042 4915 2042 4781 
Q 2003 4621 1792 4250 
Q 1600 3904 1171 3290 
L 1325 3206 
Q 1600 3053 1779 2931 
Q 2202 3648 2246 3834 
Q 2259 3891 2265 3987 
Q 2272 4083 2307 4083 
Q 2342 4083 2426 4032 
Q 2662 3891 2669 3750 
Q 2669 3706 2650 3661 
Q 2093 2688 1504 1830 
Q 1664 1862 1837 1888 
z
M 1549 627 
Q 2099 845 2419 989 
Q 2739 1133 2796 1139 
Q 2854 1146 2861 1126 
Q 2874 986 1926 442 
Q 979 -102 813 -115 
Q 768 -122 681 -45 
Q 595 32 534 128 
Q 474 224 467 275 
Q 467 301 531 307 
L 595 314 
Q 698 320 883 378 
L 1549 627 
z
M 5274 4154 
Q 5171 4019 4992 4192 
Q 4640 4550 4461 4688 
Q 4282 4826 4291 4890 
Q 4301 4954 4355 5014 
Q 4410 5075 4451 5062 
Q 4493 5050 4595 4979 
Q 5370 4467 5350 4282 
Q 5338 4237 5274 4154 
z
M 3987 3226 
Q 4122 2598 4141 2483 
L 5254 2682 
Q 5357 2701 5424 2736 
Q 5491 2771 5523 2774 
Q 5555 2778 5632 2733 
Q 5837 2598 5850 2490 
Q 5862 2419 5702 2387 
L 4237 2125 
L 4294 1920 
Q 4307 1888 4320 1856 
Q 4333 1824 4384 1667 
Q 4435 1510 4582 1222 
Q 5101 1638 5165 1724 
Q 5229 1811 5241 1891 
Q 5254 1971 5289 1971 
Q 5325 1971 5395 1914 
Q 5587 1741 5587 1600 
Q 5587 1542 5530 1485 
Q 5139 1146 4768 896 
Q 5165 269 5683 -70 
Q 5702 -77 5718 -86 
Q 5734 -96 5747 -96 
Q 5843 -96 6048 896 
Q 6106 1171 6173 1171 
Q 6240 1171 6240 922 
L 6240 870 
Q 6234 390 6144 -218 
Q 6118 -397 6048 -473 
Q 5978 -550 5805 -550 
Q 5632 -550 5389 -390 
Q 4896 -70 4435 685 
Q 3571 186 2534 -90 
Q 2342 -141 2281 -141 
Q 2221 -141 2221 -96 
Q 2221 -26 2387 38 
Q 3603 563 4256 998 
Q 4205 1107 4150 1222 
Q 4096 1338 3910 1850 
L 3859 2054 
L 3187 1939 
L 3091 1926 
Q 2989 1914 2893 1965 
Q 2797 2016 2701 2202 
Q 2669 2278 2726 2285 
Q 2752 2291 2829 2281 
Q 2906 2272 3085 2291 
L 3757 2406 
Q 3718 2573 3686 2739 
L 3610 3149 
L 3277 3085 
L 3181 3072 
Q 3014 3046 2950 3136 
Q 2906 3181 2848 3267 
Q 2790 3354 2790 3386 
Q 2778 3437 2854 3430 
Q 2963 3418 3078 3437 
L 3162 3443 
L 3552 3520 
L 3501 3878 
Q 3450 4218 3418 4538 
Q 3386 4858 3357 4928 
Q 3328 4998 3277 5056 
Q 3226 5114 3226 5146 
Q 3226 5197 3293 5197 
Q 3360 5197 3469 5190 
Q 3763 5165 3776 4979 
Q 3808 4493 3878 3936 
L 3923 3610 
L 3923 3590 
L 4774 3750 
Q 4832 3763 4921 3798 
Q 5011 3834 5052 3840 
Q 5094 3846 5177 3808 
Q 5261 3770 5325 3712 
Q 5510 3526 5210 3469 
L 3987 3226 
z
" transform="scale(0.015625)"/>
     </defs>
     <use xlink:href="#LXGWWenKai-Regular-629b"/>
     <use xlink:href="#LXGWWenKai-Regular-7269" transform="translate(99.999985 0)"/>
     <use xlink:href="#LXGWWenKai-Regular-7ebf" transform="translate(199.999969 0)"/>
    </g>
   </g>
  </g>
  <g id="axes_9">
   <g id="text_7">
    <!-- $\alpha = \theta$ -->
    <g style="fill: #111111" transform="translate(688.790985 592.245323) scale(0.26 -0.26)">
     <use xlink:href="#STIXGeneral-Italic-3b1" transform="translate(0 0.203125)"/>
     <use xlink:href="#STIXGeneral-Regular-3d" transform="translate(69.639993 0.203125)"/>
     <use xlink:href="#STIXGeneral-Italic-3b8" transform="translate(152.579974 0.203125)"/>
    </g>
   </g>
  </g>
  <g id="axes_10">
   <g id="patch_8">
    <path d="M 908.333239 108.55914 
L 992.762956 254.795699 
L 1077.192672 108.55914 
L 908.333239 108.55914 
z
" clip-path="url(#pa8a2f19236)" style="fill: none; stroke: #636363; stroke-linejoin: miter"/>
   </g>
   <g id="line2d_4">
    <path d="M 970.053672 96.925218 
L 1015.47224 266.429621 
" clip-path="url(#pa8a2f19236)" style="fill: none; stroke: #111111; stroke-width: 2.5; stroke-linecap: square"/>
   </g>
  </g>
  <g id="axes_11">
   <g id="FillBetweenPolyCollection_2">
    <defs>
     <path id="m205719f2f5" d="M 913.795214 -440.709677 
L 913.795214 -353.501172 
L 917.018387 -350.701864 
L 920.24156 -347.932629 
L 923.464733 -345.196507 
L 926.687906 -342.496918 
L 929.911079 -339.837716 
L 933.134253 -337.223243 
L 936.357426 -334.658398 
L 939.580599 -332.148704 
L 942.803772 -329.700392 
L 946.026945 -327.320474 
L 949.250118 -325.01683 
L 952.473291 -322.798278 
L 955.696465 -320.674646 
L 958.919638 -318.656805 
L 962.142811 -316.756679 
L 965.365984 -314.987182 
L 968.589157 -313.362096 
L 971.81233 -311.895831 
L 975.035503 -310.603075 
L 978.258677 -309.498312 
L 981.48185 -308.595219 
L 984.705023 -307.905974 
L 987.928196 -307.440534 
L 991.151369 -307.205975 
L 994.374542 -307.205975 
L 997.597715 -307.440534 
L 1000.820889 -307.905974 
L 1004.044062 -308.595219 
L 1007.267235 -309.498312 
L 1010.490408 -310.603075 
L 1013.713581 -311.895831 
L 1016.936754 -313.362096 
L 1020.159927 -314.987182 
L 1023.3831 -316.756679 
L 1026.606274 -318.656805 
L 1029.829447 -320.674646 
L 1033.05262 -322.798278 
L 1036.275793 -325.01683 
L 1039.498966 -327.320474 
L 1042.722139 -329.700392 
L 1045.945312 -332.148704 
L 1049.168486 -334.658398 
L 1052.391659 -337.223243 
L 1055.614832 -339.837716 
L 1058.838005 -342.496918 
L 1062.061178 -345.196507 
L 1065.284351 -347.932629 
L 1068.507524 -350.701864 
L 1071.730698 -353.501172 
L 1071.730698 -440.709677 
L 1071.730698 -440.709677 
L 1068.507524 -440.709677 
L 1065.284351 -440.709677 
L 1062.061178 -440.709677 
L 1058.838005 -440.709677 
L 1055.614832 -440.709677 
L 1052.391659 -440.709677 
L 1049.168486 -440.709677 
L 1045.945312 -440.709677 
L 1042.722139 -440.709677 
L 1039.498966 -440.709677 
L 1036.275793 -440.709677 
L 1033.05262 -440.709677 
L 1029.829447 -440.709677 
L 1026.606274 -440.709677 
L 1023.3831 -440.709677 
L 1020.159927 -440.709677 
L 1016.936754 -440.709677 
L 1013.713581 -440.709677 
L 1010.490408 -440.709677 
L 1007.267235 -440.709677 
L 1004.044062 -440.709677 
L 1000.820889 -440.709677 
L 997.597715 -440.709677 
L 994.374542 -440.709677 
L 991.151369 -440.709677 
L 987.928196 -440.709677 
L 984.705023 -440.709677 
L 981.48185 -440.709677 
L 978.258677 -440.709677 
L 975.035503 -440.709677 
L 971.81233 -440.709677 
L 968.589157 -440.709677 
L 965.365984 -440.709677 
L 962.142811 -440.709677 
L 958.919638 -440.709677 
L 955.696465 -440.709677 
L 952.473291 -440.709677 
L 949.250118 -440.709677 
L 946.026945 -440.709677 
L 942.803772 -440.709677 
L 939.580599 -440.709677 
L 936.357426 -440.709677 
L 933.134253 -440.709677 
L 929.911079 -440.709677 
L 926.687906 -440.709677 
L 923.464733 -440.709677 
L 920.24156 -440.709677 
L 917.018387 -440.709677 
L 913.795214 -440.709677 
z
" style="stroke: #111111; stroke-width: 2"/>
    </defs>
    <g clip-path="url(#p235cc87091)">
     <use xlink:href="#m205719f2f5" x="0" y="720" style="fill: #decbe4; stroke: #111111; stroke-width: 2"/>
    </g>
   </g>
   <g id="text_8">
    <!-- 双曲线 -->
    <g transform="translate(953.762956 456.967742) scale(0.26 -0.26)">
     <defs>
      <path id="LXGWWenKai-Regular-53cc" d="M 5184 4570 
L 5267 4576 
Q 5434 4576 5510 4416 
Q 5536 4365 5536 4333 
Q 5536 4301 5507 4262 
Q 5478 4224 5472 4198 
Q 5146 2931 4518 1811 
Q 5216 646 6221 -173 
Q 6285 -224 6285 -259 
Q 6285 -294 6182 -403 
Q 6080 -512 5955 -512 
Q 5830 -512 5305 83 
Q 4781 678 4294 1446 
Q 3757 646 3104 64 
Q 2822 -192 2624 -329 
Q 2426 -467 2368 -467 
Q 2310 -467 2310 -406 
Q 2310 -346 2432 -224 
Q 3411 698 4070 1824 
Q 3552 2739 3296 3507 
Q 3238 3680 3238 3731 
Q 3238 3782 3331 3824 
Q 3424 3866 3475 3866 
Q 3571 3866 3610 3744 
Q 3891 2950 4288 2227 
Q 4749 3110 5005 4205 
L 3450 4090 
Q 3322 4077 3222 4077 
Q 3123 4077 3046 4166 
Q 2970 4256 2931 4352 
L 2899 4442 
Q 2899 4480 2950 4480 
L 2982 4480 
L 3245 4454 
L 3302 4454 
L 5184 4570 
z
M 627 4301 
L 890 4275 
L 947 4275 
L 2470 4365 
L 2541 4365 
Q 2630 4365 2723 4301 
Q 2816 4237 2816 4173 
Q 2816 4109 2790 4070 
Q 2765 4032 2701 3725 
Q 2534 2925 2176 2118 
Q 2598 1594 3040 966 
Q 3117 870 3117 809 
Q 3117 749 3062 694 
Q 3008 640 2944 608 
Q 2880 576 2835 576 
Q 2790 576 2733 672 
Q 2426 1158 1990 1741 
Q 1491 838 870 205 
Q 621 -51 457 -176 
Q 294 -301 256 -301 
Q 218 -301 218 -240 
Q 218 -179 294 -102 
Q 1158 851 1734 2061 
Q 1286 2688 915 3110 
Q 851 3194 851 3251 
Q 851 3309 940 3373 
Q 1030 3437 1075 3437 
Q 1158 3437 1894 2451 
Q 2182 3174 2298 4000 
L 1094 3910 
Q 1037 3904 992 3904 
L 909 3904 
Q 781 3904 720 3965 
Q 659 4026 601 4128 
Q 544 4230 544 4265 
Q 544 4301 595 4301 
L 627 4301 
z
" transform="scale(0.015625)"/>
      <path id="LXGWWenKai-Regular-66f2" d="M 5350 397 
Q 5549 173 5549 102 
Q 5549 32 5485 22 
Q 5421 13 5331 6 
L 1427 -96 
L 1440 -307 
L 1440 -326 
Q 1440 -474 1325 -474 
Q 1197 -474 1101 -387 
Q 1005 -301 1005 -186 
Q 1005 -166 1005 -147 
Q 1005 -128 1011 -109 
Q 1030 64 1030 237 
L 1030 314 
L 915 2925 
Q 896 3162 841 3267 
Q 787 3373 787 3408 
Q 787 3443 864 3443 
Q 941 3443 1293 3309 
L 2285 3360 
L 2259 4448 
Q 2259 4582 2182 4675 
Q 2106 4768 2106 4806 
Q 2106 4845 2195 4845 
Q 2285 4845 2432 4800 
Q 2579 4755 2614 4713 
Q 2650 4672 2650 4589 
L 2675 3386 
L 3680 3437 
L 3706 4589 
Q 3706 4749 3603 4877 
Q 3565 4928 3565 4957 
Q 3565 4986 3657 4986 
Q 3750 4986 3891 4934 
Q 4032 4883 4067 4838 
Q 4102 4794 4102 4710 
L 4064 3456 
L 5242 3520 
L 5306 3520 
Q 5408 3520 5504 3440 
Q 5600 3360 5600 3296 
Q 5600 3232 5584 3206 
Q 5568 3181 5562 3149 
L 5350 397 
z
M 5165 3136 
L 4058 3085 
L 4026 1984 
L 5088 2035 
L 5165 3136 
z
M 3667 3066 
L 2682 3014 
L 2701 1926 
L 3648 1965 
L 3667 3066 
z
M 2291 2995 
L 1293 2950 
L 1344 1862 
L 2317 1907 
L 2291 2995 
z
M 5062 1670 
L 4019 1626 
L 3981 352 
L 4966 384 
L 5062 1670 
z
M 3635 1613 
L 2707 1574 
L 2726 314 
L 3610 339 
L 3635 1613 
z
M 2330 1555 
L 1357 1517 
L 1414 269 
L 2355 301 
L 2330 1555 
z
" transform="scale(0.015625)"/>
     </defs>
     <use xlink:href="#LXGWWenKai-Regular-53cc"/>
     <use xlink:href="#LXGWWenKai-Regular-66f2" transform="translate(99.999985 0)"/>
     <use xlink:href="#LXGWWenKai-Regular-7ebf" transform="translate(199.999969 0)"/>
    </g>
   </g>
  </g>
  <g id="axes_12">
   <g id="text_9">
    <!-- $\alpha &lt; \theta$ -->
    <g style="fill: #111111" transform="translate(966.632956 592.245323) scale(0.26 -0.26)">
     <use xlink:href="#STIXGeneral-Italic-3b1" transform="translate(0 0.203125)"/>
     <use xlink:href="#STIXGeneral-Regular-3c" transform="translate(69.639993 0.203125)"/>
     <use xlink:href="#STIXGeneral-Italic-3b8" transform="translate(152.579974 0.203125)"/>
    </g>
   </g>
  </g>
 </g>
 <defs>
  <clipPath id="pab302daaef">
   <rect x="56.871453" y="72" width="204.731183" height="197.419355"/>
  </clipPath>
  <clipPath id="p433ca383a0">
   <rect x="60.527367" y="279.290323" width="197.419355" height="197.419355"/>
  </clipPath>
  <clipPath id="pd69c641f7c">
   <rect x="334.713423" y="72" width="204.731183" height="197.419355"/>
  </clipPath>
  <clipPath id="pd87a464044">
   <rect x="338.369337" y="279.290323" width="197.419355" height="197.419355"/>
  </clipPath>
  <clipPath id="p63ca2c072f">
   <rect x="612.555394" y="72" width="204.731183" height="197.419355"/>
  </clipPath>
  <clipPath id="p938a78f925">
   <rect x="616.211308" y="279.290323" width="197.419355" height="197.419355"/>
  </clipPath>
  <clipPath id="pa8a2f19236">
   <rect x="890.397364" y="72" width="204.731183" height="197.419355"/>
  </clipPath>
  <clipPath id="p235cc87091">
   <rect x="894.053278" y="279.290323" width="197.419355" height="197.419355"/>
  </clipPath>
 </defs>
</svg>
