<?xml version="1.0" encoding="utf-8" standalone="no"?>
<!DOCTYPE svg PUBLIC "-//W3C//DTD SVG 1.1//EN"
  "http://www.w3.org/Graphics/SVG/1.1/DTD/svg11.dtd">
<svg xmlns:xlink="http://www.w3.org/1999/xlink" width="1008pt" height="648pt" viewBox="0 0 1008 648" xmlns="http://www.w3.org/2000/svg" version="1.1">
 <metadata>
  <rdf:RDF xmlns:dc="http://purl.org/dc/elements/1.1/" xmlns:cc="http://creativecommons.org/ns#" xmlns:rdf="http://www.w3.org/1999/02/22-rdf-syntax-ns#">
   <cc:Work>
    <dc:type rdf:resource="http://purl.org/dc/dcmitype/StillImage"/>
    <dc:date>2026-02-12T10:36:57.766955</dc:date>
    <dc:format>image/svg+xml</dc:format>
    <dc:creator>
     <cc:Agent>
      <dc:title>Matplotlib v3.10.8, https://matplotlib.org/</dc:title>
     </cc:Agent>
    </dc:creator>
   </cc:Work>
  </rdf:RDF>
 </metadata>
 <defs>
  <style type="text/css">*{stroke-linejoin: round; stroke-linecap: butt}</style>
 </defs>
 <g id="figure_1">
  <g id="patch_1">
   <path d="M 0 648 
L 1008 648 
L 1008 0 
L 0 0 
z
" style="fill: #fefdf5"/>
  </g>
  <g id="axes_1">
   <g id="patch_2">
    <path d="M 147.666501 127.279012 
L 220.120482 252.772988 
L 292.574463 127.279012 
L 147.666501 127.279012 
z
" clip-path="url(#p532eb052af)" style="fill: none; stroke: #636363; stroke-linejoin: miter"/>
   </g>
   <g id="line2d_1">
    <path d="M 220.120482 252.772988 
L 220.120482 127.279012 
" clip-path="url(#p532eb052af)" style="fill: none; stroke-dasharray: 2.96,1.28; stroke-dashoffset: 0; stroke: #636363; stroke-opacity: 0.5; stroke-width: 0.8"/>
   </g>
   <g id="line2d_2">
    <path d="M 132.274699 190.026 
L 307.966265 190.026 
" clip-path="url(#p532eb052af)" style="fill: none; stroke: #252525; stroke-width: 2; stroke-linecap: square"/>
   </g>
   <g id="text_1">
    <!-- 圆切法 -->
    <g style="fill: #636363" transform="translate(203.620482 265.322386) scale(0.11 -0.11)">
     <defs>
      <path id="LXGWWenKai-Regular-5706" d="M 5562 173 
Q 5766 -51 5766 -121 
Q 5766 -192 5702 -201 
Q 5638 -211 5549 -218 
L 1248 -314 
L 1248 -518 
Q 1248 -685 1139 -685 
Q 998 -685 899 -585 
Q 800 -486 800 -390 
L 800 -358 
Q 800 -333 822 -243 
Q 845 -154 845 102 
L 838 4358 
Q 838 4557 730 4774 
Q 717 4800 717 4819 
Q 717 4864 800 4864 
Q 883 4864 1248 4736 
L 5229 4973 
L 5286 4973 
Q 5517 4973 5581 4819 
Q 5606 4762 5606 4742 
L 5581 4608 
L 5562 173 
z
M 5165 4602 
L 1235 4384 
L 1248 45 
L 5152 154 
L 5165 4602 
z
M 4474 192 
Q 4429 192 4301 282 
Q 3981 518 3373 781 
Q 3290 826 3290 883 
Q 3290 941 3347 1017 
Q 3405 1094 3462 1094 
Q 3520 1094 4000 860 
Q 4480 627 4560 579 
Q 4640 531 4640 473 
Q 4640 416 4595 304 
Q 4550 192 4474 192 
z
M 2048 1434 
L 1958 2432 
Q 1946 2643 1904 2736 
Q 1862 2829 1862 2857 
Q 1862 2886 1936 2886 
Q 2010 2886 2336 2790 
L 4109 2886 
L 4128 2886 
Q 4230 2886 4323 2809 
Q 4416 2733 4416 2691 
Q 4416 2650 4403 2624 
Q 4390 2598 4384 2573 
L 4301 1472 
L 4294 1178 
L 4288 1114 
Q 4275 1018 4192 1030 
Q 4090 1030 3987 1110 
Q 3885 1190 3923 1308 
Q 3962 1427 4019 2592 
L 2304 2502 
L 2381 1421 
L 2400 1126 
L 2400 1062 
Q 2400 966 2297 966 
Q 2195 966 2108 1024 
Q 2022 1082 2022 1165 
L 2048 1434 
z
M 2189 3232 
L 2195 3315 
Q 2195 3373 2182 3450 
L 2138 3904 
Q 2125 4045 2070 4137 
Q 2016 4230 2016 4262 
Q 2016 4294 2077 4294 
Q 2138 4294 2445 4173 
L 3930 4269 
L 3974 4269 
Q 4077 4269 4141 4211 
Q 4205 4154 4205 4112 
Q 4205 4070 4195 4041 
Q 4186 4013 4179 3987 
L 4070 3462 
Q 4218 3309 4218 3267 
Q 4218 3226 4173 3222 
Q 4128 3219 4064 3213 
L 2560 3136 
L 2560 3110 
Q 2560 3021 2451 3021 
Q 2342 3021 2265 3065 
Q 2189 3110 2189 3194 
L 2189 3232 
z
M 3795 3974 
L 2483 3891 
L 2528 3411 
L 3725 3482 
L 3795 3974 
z
M 3059 2010 
Q 3059 2131 3027 2182 
Q 2995 2234 2995 2259 
Q 2995 2330 3116 2330 
Q 3238 2330 3328 2278 
Q 3418 2227 3418 2131 
Q 3398 1549 3273 1248 
Q 3149 947 2985 777 
Q 2822 608 2633 489 
Q 2445 371 2272 300 
Q 2099 230 1894 182 
Q 1690 134 1664 134 
Q 1568 134 1568 217 
Q 1568 301 1677 352 
Q 2707 691 2938 1318 
Q 3046 1606 3052 1718 
Q 3059 1830 3059 1914 
L 3059 2010 
z
" transform="scale(0.015625)"/>
      <path id="LXGWWenKai-Regular-5207" d="M 4723 38 
Q 4851 -13 4876 -13 
Q 4902 -13 4902 32 
Q 5267 1261 5312 3878 
L 4346 3821 
Q 4186 1139 2733 -102 
Q 2221 -544 2099 -544 
Q 2048 -544 2048 -486 
Q 2048 -429 2170 -307 
Q 3168 646 3597 1984 
Q 3846 2746 3898 3789 
L 3117 3738 
Q 3014 3725 2940 3725 
Q 2867 3725 2764 3773 
Q 2662 3821 2579 4045 
Q 2566 4083 2566 4096 
Q 2566 4141 2618 4141 
Q 2643 4141 2700 4125 
Q 2758 4109 2880 4109 
L 5389 4262 
L 5459 4262 
Q 5606 4262 5673 4176 
Q 5741 4090 5741 4026 
L 5715 3866 
Q 5702 2387 5584 1360 
Q 5466 333 5338 -166 
Q 5299 -307 5184 -422 
Q 5069 -538 4960 -538 
Q 4851 -538 4624 -410 
Q 4397 -282 4070 25 
Q 3744 333 3744 429 
Q 3744 480 3808 480 
Q 3872 480 4035 384 
Q 4198 288 4396 189 
Q 4595 90 4723 38 
z
M 915 179 
Q 781 269 697 377 
Q 614 486 614 534 
Q 614 582 717 595 
Q 902 595 1146 723 
L 1197 749 
L 1203 2605 
L 851 2554 
Q 768 2547 707 2537 
Q 646 2528 563 2528 
Q 480 2528 403 2595 
Q 326 2662 288 2745 
Q 250 2829 250 2864 
Q 250 2899 301 2899 
L 333 2899 
Q 525 2880 557 2880 
L 608 2880 
Q 627 2880 646 2886 
L 1203 2963 
L 1203 4294 
Q 1203 4461 1094 4621 
Q 1062 4672 1062 4704 
Q 1062 4736 1100 4736 
Q 1139 4736 1216 4726 
Q 1293 4717 1382 4685 
Q 1613 4614 1613 4486 
L 1606 3021 
L 2355 3130 
Q 2541 3168 2608 3193 
Q 2675 3219 2723 3219 
Q 2771 3219 2854 3174 
Q 3066 3078 3066 2970 
Q 3066 2925 3030 2889 
Q 2995 2854 2944 2848 
L 1606 2662 
L 1600 941 
Q 2182 1229 2630 1530 
Q 2758 1600 2812 1600 
Q 2867 1600 2867 1542 
Q 2867 1485 2726 1331 
Q 2605 1216 2253 947 
Q 1094 70 915 179 
z
" transform="scale(0.015625)"/>
      <path id="LXGWWenKai-Regular-6cd5" d="M 2758 3712 
L 3789 3770 
L 3789 4672 
Q 3789 4813 3715 4899 
Q 3642 4986 3642 5027 
Q 3642 5069 3741 5069 
Q 3840 5069 3987 5017 
Q 4134 4966 4169 4924 
Q 4205 4883 4205 4800 
L 4205 3795 
L 4922 3840 
Q 5114 3859 5168 3884 
Q 5222 3910 5251 3910 
Q 5280 3910 5363 3853 
Q 5600 3699 5600 3590 
Q 5600 3520 5446 3507 
L 4198 3430 
L 4198 2419 
L 5491 2490 
Q 5690 2509 5741 2531 
Q 5792 2554 5817 2554 
Q 5843 2554 5926 2502 
Q 6170 2362 6170 2234 
Q 6170 2157 6016 2144 
L 4122 2042 
Q 3610 1050 3085 198 
Q 4000 320 5024 544 
Q 4723 934 4403 1299 
Q 4352 1363 4352 1401 
Q 4352 1440 4429 1523 
Q 4506 1606 4570 1606 
Q 4634 1606 4835 1404 
Q 5037 1203 5449 681 
Q 5862 160 5968 9 
Q 6074 -141 6074 -201 
Q 6074 -262 5987 -348 
Q 5901 -435 5808 -435 
Q 5715 -435 5632 -307 
Q 5421 26 5242 256 
Q 4058 -32 3331 -157 
Q 2605 -282 2448 -282 
Q 2291 -282 2211 -192 
Q 2131 -102 2096 -6 
Q 2061 90 2061 102 
Q 2061 141 2112 141 
L 2144 141 
Q 2259 122 2336 122 
L 2445 122 
Q 2483 122 2522 128 
L 2598 134 
Q 3104 947 3603 2016 
L 2605 1965 
Q 2541 1958 2496 1958 
L 2413 1958 
Q 2304 1958 2253 1997 
Q 2042 2176 2042 2317 
Q 2042 2349 2086 2349 
L 2355 2317 
L 3789 2394 
L 3789 3405 
L 3014 3360 
Q 2950 3354 2906 3354 
L 2822 3354 
Q 2579 3354 2464 3648 
Q 2445 3686 2445 3715 
Q 2445 3744 2490 3744 
L 2758 3712 
z
M 2054 4026 
Q 2131 3962 2131 3878 
Q 2131 3795 2028 3718 
Q 1926 3642 1888 3642 
Q 1850 3642 1728 3776 
Q 1382 4160 998 4467 
Q 922 4538 922 4589 
Q 922 4640 982 4713 
Q 1043 4787 1101 4787 
Q 1248 4787 2054 4026 
z
M 1526 2400 
Q 1478 2349 1433 2349 
Q 1389 2349 1117 2592 
Q 845 2835 461 3098 
Q 371 3149 371 3206 
Q 371 3264 425 3350 
Q 480 3437 531 3437 
Q 582 3437 713 3353 
Q 845 3270 1008 3152 
Q 1171 3034 1318 2922 
Q 1466 2810 1555 2739 
Q 1645 2669 1645 2624 
Q 1645 2579 1609 2515 
Q 1574 2451 1526 2400 
z
M 774 -186 
Q 621 -166 512 -80 
Q 403 6 403 32 
Q 403 58 499 118 
Q 595 179 698 314 
Q 1414 1274 1773 1901 
Q 1882 2086 1952 2086 
Q 1997 2086 1997 1997 
Q 1997 1818 1721 1258 
Q 1446 698 1216 326 
Q 986 -45 934 -115 
Q 883 -186 794 -186 
L 774 -186 
z
" transform="scale(0.015625)"/>
     </defs>
     <use xlink:href="#LXGWWenKai-Regular-5706"/>
     <use xlink:href="#LXGWWenKai-Regular-5207" transform="translate(99.999985 0)"/>
     <use xlink:href="#LXGWWenKai-Regular-6cd5" transform="translate(199.999969 0)"/>
    </g>
   </g>
  </g>
  <g id="axes_2">
   <g id="patch_3">
    <path d="M 220.120482 436.3875 
C 231.698984 436.3875 242.80482 431.787312 250.992057 423.600075 
C 259.179294 415.412838 263.779482 404.307002 263.779482 392.7285 
C 263.779482 381.149998 259.179294 370.044162 250.992057 361.856925 
C 242.80482 353.669688 231.698984 349.0695 220.120482 349.0695 
C 208.54198 349.0695 197.436144 353.669688 189.248907 361.856925 
C 181.06167 370.044162 176.461482 381.149998 176.461482 392.7285 
C 176.461482 404.307002 181.06167 415.412838 189.248907 423.600075 
C 197.436144 431.787312 208.54198 436.3875 220.120482 436.3875 
z
" clip-path="url(#pee2a79c1ee)" style="fill: #b3cde3; opacity: 0.8; stroke: #111111; stroke-width: 1.2; stroke-linejoin: miter"/>
   </g>
   <g id="text_2">
    <!-- 圆截面 -->
    <g transform="translate(202.120482 442.6245) scale(0.12 -0.12)">
     <defs>
      <path id="LXGWWenKai-Regular-622a" d="M 960 4307 
Q 1114 4269 1222 4269 
L 1267 4269 
L 2042 4320 
L 2042 4762 
Q 2042 4877 2000 4960 
Q 1958 5043 1958 5075 
Q 1958 5107 2003 5107 
Q 2048 5107 2144 5075 
Q 2406 4986 2406 4864 
L 2400 4339 
L 2874 4371 
Q 3021 4390 3062 4406 
Q 3104 4422 3142 4422 
Q 3181 4422 3251 4378 
Q 3437 4269 3437 4179 
Q 3437 4102 3290 4090 
L 2400 4032 
L 2394 3546 
L 3667 3616 
Q 3565 4307 3549 4640 
Q 3533 4973 3465 5069 
Q 3398 5165 3398 5190 
Q 3398 5242 3459 5242 
Q 3520 5242 3622 5222 
Q 3904 5158 3917 5011 
Q 3949 4384 4058 3642 
L 5242 3712 
Q 5402 3731 5466 3750 
Q 5530 3770 5571 3770 
Q 5613 3770 5683 3718 
Q 5869 3590 5869 3501 
Q 5869 3424 5715 3411 
L 4115 3315 
Q 4314 2163 4659 1395 
Q 4954 1939 5059 2320 
Q 5165 2701 5165 2746 
L 5165 2816 
Q 5165 2829 5152 2893 
Q 5152 2957 5216 2957 
Q 5242 2957 5338 2918 
Q 5600 2797 5600 2656 
Q 5600 2554 5347 1958 
Q 5094 1363 4851 998 
Q 5158 448 5530 115 
Q 5664 -6 5690 -6 
Q 5734 -6 5811 256 
Q 5888 518 5942 857 
Q 5997 1197 6064 1197 
Q 6131 1197 6150 877 
L 6157 730 
Q 6157 352 6099 29 
Q 6042 -294 5965 -396 
Q 5888 -499 5773 -499 
Q 5523 -499 5241 -224 
Q 4960 51 4602 672 
Q 4115 6 3622 -320 
Q 3424 -454 3363 -454 
Q 3302 -454 3302 -410 
Q 3302 -346 3437 -211 
Q 3994 333 4410 1005 
Q 3974 1862 3718 3296 
L 858 3123 
L 717 3117 
Q 595 3117 550 3162 
Q 435 3264 390 3418 
Q 384 3430 384 3456 
Q 384 3482 409 3482 
Q 435 3482 489 3462 
Q 544 3443 691 3443 
L 742 3443 
L 2035 3520 
L 2035 4013 
L 1389 3968 
L 1235 3962 
Q 1050 3962 973 4173 
Q 934 4269 934 4288 
Q 934 4307 960 4307 
z
M 5210 4237 
Q 5261 4192 5261 4115 
Q 5261 4038 5174 3952 
Q 5088 3866 5043 3866 
Q 4998 3866 4899 3987 
Q 4800 4109 4598 4294 
Q 4397 4480 4291 4563 
Q 4186 4646 4186 4694 
Q 4186 4742 4262 4819 
Q 4339 4896 4378 4896 
Q 4467 4896 4922 4493 
L 5210 4237 
z
M 2208 2502 
Q 2406 2880 2406 2953 
Q 2406 3027 2400 3097 
Q 2394 3168 2451 3168 
Q 2490 3168 2579 3123 
Q 2816 3014 2816 2912 
Q 2816 2880 2729 2739 
Q 2643 2598 2579 2528 
L 3187 2566 
Q 3347 2579 3401 2601 
Q 3456 2624 3485 2624 
Q 3514 2624 3632 2534 
Q 3750 2445 3750 2387 
Q 3750 2330 3715 2314 
Q 3680 2298 3629 2291 
L 2586 2227 
L 2579 1862 
L 2995 1888 
Q 3117 1901 3165 1917 
Q 3213 1933 3248 1933 
Q 3283 1933 3401 1856 
Q 3520 1779 3520 1702 
Q 3520 1626 3424 1606 
L 3411 1606 
L 2573 1562 
L 2566 1158 
L 3008 1178 
Q 3085 1184 3155 1206 
Q 3226 1229 3261 1229 
Q 3296 1229 3414 1152 
Q 3533 1075 3533 998 
Q 3533 922 3437 902 
L 3424 902 
L 2566 864 
L 2560 390 
L 3213 416 
Q 3379 429 3427 448 
Q 3475 467 3510 467 
Q 3546 467 3610 422 
Q 3776 307 3776 211 
Q 3776 141 3654 128 
L 1395 32 
L 1395 -333 
Q 1395 -486 1286 -486 
Q 1152 -486 1069 -419 
Q 986 -352 986 -262 
L 986 -230 
Q 986 -211 1008 -99 
Q 1030 13 1030 250 
L 1056 1754 
Q 781 1440 557 1257 
Q 333 1075 291 1075 
Q 250 1075 250 1123 
Q 250 1171 317 1254 
Q 384 1338 595 1610 
Q 806 1882 1091 2326 
Q 1376 2771 1376 2957 
L 1376 3034 
Q 1376 3123 1440 3123 
Q 1504 3123 1587 3068 
Q 1670 3014 1737 2944 
Q 1805 2874 1805 2816 
Q 1805 2758 1594 2458 
L 2208 2502 
z
M 2227 2208 
L 1408 2157 
L 1408 1786 
L 2221 1837 
L 2227 2208 
z
M 2221 1536 
L 1402 1491 
L 1402 1094 
L 2214 1139 
L 2221 1536 
z
M 2208 851 
L 1402 806 
L 1402 346 
L 2202 378 
L 2208 851 
z
" transform="scale(0.015625)"/>
      <path id="LXGWWenKai-Regular-9762" d="M 582 4410 
L 858 4371 
L 5107 4634 
Q 5261 4646 5325 4672 
Q 5389 4698 5433 4698 
Q 5478 4698 5555 4646 
Q 5754 4512 5754 4403 
Q 5754 4333 5600 4320 
L 3021 4160 
Q 3219 4038 3219 3964 
Q 3219 3891 2982 3616 
Q 2746 3341 2579 3187 
L 5184 3328 
L 5222 3328 
Q 5389 3328 5472 3225 
Q 5555 3123 5555 3081 
Q 5555 3040 5539 3008 
Q 5523 2976 5517 2938 
L 5293 416 
Q 5485 211 5485 144 
Q 5485 77 5427 67 
Q 5370 58 5299 51 
L 1510 -58 
L 1523 -326 
L 1523 -346 
Q 1523 -454 1434 -454 
Q 1421 -454 1337 -428 
Q 1254 -403 1177 -342 
Q 1101 -282 1101 -186 
L 1101 -134 
Q 1114 -70 1114 -13 
L 1114 205 
Q 1114 262 1107 314 
L 960 2694 
Q 947 2938 845 3104 
Q 800 3194 800 3232 
Q 800 3270 896 3270 
Q 992 3270 1357 3117 
L 2138 3162 
Q 2765 3898 2765 4147 
L 1107 4045 
Q 979 4032 896 4032 
Q 717 4032 614 4230 
Q 550 4358 550 4384 
Q 550 4410 582 4410 
z
M 5082 2982 
L 4032 2931 
L 3974 352 
L 4896 378 
L 5082 2982 
z
M 3661 2912 
L 2675 2861 
L 2682 2253 
L 3648 2298 
L 3661 2912 
z
M 2310 2842 
L 1344 2790 
L 1491 275 
L 2368 301 
L 2310 2842 
z
M 3642 1990 
L 2688 1946 
L 2701 1331 
L 3629 1376 
L 3642 1990 
z
M 3622 1082 
L 2707 1043 
L 2720 314 
L 3603 339 
L 3622 1082 
z
" transform="scale(0.015625)"/>
     </defs>
     <use xlink:href="#LXGWWenKai-Regular-5706"/>
     <use xlink:href="#LXGWWenKai-Regular-622a" transform="translate(99.999985 0)"/>
     <use xlink:href="#LXGWWenKai-Regular-9762" transform="translate(199.999969 0)"/>
    </g>
   </g>
  </g>
  <g id="axes_3">
   <g id="text_3">
    <!-- $\alpha = 90^\circ$ -->
    <g style="fill: #111111" transform="translate(197.320482 533.955) scale(0.15 -0.15)">
     <defs>
      <path id="STIXGeneral-Italic-3b1" d="M 3514 2739 
L 2605 1069 
L 2605 954 
Q 2605 704 2662 512 
Q 2720 320 2822 320 
Q 2970 320 3149 794 
L 3251 749 
Q 3014 -58 2605 -58 
Q 2291 -58 2272 614 
Q 1709 -70 1030 -70 
Q 589 -70 381 198 
Q 173 467 173 902 
Q 173 1293 329 1673 
Q 486 2054 755 2330 
Q 973 2547 1270 2684 
Q 1568 2822 1862 2822 
Q 2246 2822 2457 2595 
Q 2669 2368 2669 2061 
L 2963 2739 
L 3514 2739 
z
M 2298 1741 
Q 2298 2688 1805 2688 
Q 1472 2688 1085 2099 
Q 698 1510 698 800 
Q 698 493 806 278 
Q 915 64 1139 64 
Q 1606 64 2195 1286 
Q 2202 1325 2230 1411 
Q 2259 1498 2278 1581 
Q 2298 1664 2298 1741 
z
" transform="scale(0.015625)"/>
      <path id="STIXGeneral-Regular-3d" d="M 4077 2048 
L 307 2048 
L 307 2470 
L 4077 2470 
L 4077 2048 
z
M 4077 768 
L 307 768 
L 307 1190 
L 4077 1190 
L 4077 768 
z
" transform="scale(0.015625)"/>
      <path id="STIXGeneral-Regular-39" d="M 378 -141 
L 358 -13 
Q 1094 115 1603 608 
Q 2112 1101 2304 1882 
Q 1933 1517 1344 1517 
Q 826 1517 509 1875 
Q 192 2234 192 2816 
Q 192 3462 573 3894 
Q 954 4326 1523 4326 
Q 2131 4326 2528 3840 
Q 2938 3328 2938 2522 
Q 2938 1958 2742 1462 
Q 2547 966 2170 621 
Q 1773 262 1395 105 
Q 1018 -51 378 -141 
z
M 2317 2272 
L 2317 2522 
Q 2317 4147 1472 4147 
Q 1171 4147 1005 3930 
Q 909 3802 845 3546 
Q 781 3290 781 3034 
Q 781 2464 995 2128 
Q 1210 1792 1568 1792 
Q 1824 1792 2070 1917 
Q 2317 2042 2317 2272 
z
" transform="scale(0.015625)"/>
      <path id="STIXGeneral-Regular-30" d="M 3046 2112 
Q 3046 1683 2963 1302 
Q 2880 922 2717 602 
Q 2554 282 2266 96 
Q 1978 -90 1600 -90 
Q 1210 -90 915 108 
Q 621 307 461 640 
Q 301 973 227 1350 
Q 154 1728 154 2150 
Q 154 2746 301 3222 
Q 448 3699 790 4012 
Q 1133 4326 1626 4326 
Q 2253 4326 2649 3712 
Q 3046 3098 3046 2112 
z
M 2432 2080 
Q 2432 3091 2217 3625 
Q 2003 4160 1587 4160 
Q 1190 4160 979 3622 
Q 768 3085 768 2106 
Q 768 1120 979 598 
Q 1190 77 1600 77 
Q 2003 77 2217 598 
Q 2432 1120 2432 2080 
z
" transform="scale(0.015625)"/>
      <path id="STIXGeneral-Regular-2218" d="M 1734 2224 
Q 1984 1971 1984 1612 
Q 1984 1254 1731 1001 
Q 1478 749 1120 749 
Q 755 749 505 1001 
Q 256 1254 256 1626 
Q 256 1984 509 2230 
Q 762 2477 1133 2477 
Q 1485 2477 1734 2224 
z
M 1434 1299 
Q 1562 1427 1562 1612 
Q 1562 1798 1434 1926 
Q 1306 2054 1133 2054 
Q 934 2054 806 1929 
Q 678 1805 678 1626 
Q 678 1427 803 1299 
Q 928 1171 1120 1171 
Q 1306 1171 1434 1299 
z
" transform="scale(0.015625)"/>
     </defs>
     <use xlink:href="#STIXGeneral-Italic-3b1" transform="translate(0 0.40625)"/>
     <use xlink:href="#STIXGeneral-Regular-3d" transform="translate(69.639993 0.40625)"/>
     <use xlink:href="#STIXGeneral-Regular-39" transform="translate(152.579974 0.40625)"/>
     <use xlink:href="#STIXGeneral-Regular-30" transform="translate(202.579959 0.40625)"/>
     <use xlink:href="#STIXGeneral-Regular-2218" transform="translate(264.231223 35.68125) scale(0.7)"/>
    </g>
   </g>
  </g>
  <g id="axes_4">
   <g id="patch_4">
    <path d="M 329.927711 277.871783 
L 505.619277 277.871783 
L 505.619277 102.180217 
L 329.927711 102.180217 
z
" style="fill: #fbb4ae; opacity: 0.1"/>
   </g>
   <g id="patch_5">
    <path d="M 345.319513 127.279012 
L 417.773494 252.772988 
L 490.227475 127.279012 
L 345.319513 127.279012 
z
" clip-path="url(#p14d025c4d3)" style="fill: none; stroke: #636363; stroke-linejoin: miter"/>
   </g>
   <g id="line2d_3">
    <path d="M 417.773494 252.772988 
L 417.773494 127.279012 
" clip-path="url(#p14d025c4d3)" style="fill: none; stroke-dasharray: 2.96,1.28; stroke-dashoffset: 0; stroke: #636363; stroke-opacity: 0.5; stroke-width: 0.8"/>
   </g>
   <g id="line2d_4">
    <path d="M 341.696814 146.103108 
L 493.850174 233.948892 
" clip-path="url(#p14d025c4d3)" style="fill: none; stroke: #252525; stroke-width: 2; stroke-linecap: square"/>
   </g>
   <g id="text_4">
    <!-- ★ 本章主角 -->
    <g style="fill: #d6604d" transform="translate(385.673494 108.454916) scale(0.12 -0.12)">
     <defs>
      <path id="LXGWWenKai-Regular-2605" d="M 3200 800 
L 1331 -595 
L 2010 1690 
L 77 3072 
L 2464 3072 
L 3200 5338 
L 3936 3072 
L 6323 3072 
L 4390 1690 
L 5075 -595 
L 3200 800 
z
" transform="scale(0.015625)"/>
      <path id="LXGWWenKai-Regular-20" transform="scale(0.015625)"/>
      <path id="LXGWWenKai-Regular-672c" d="M 1997 1030 
L 2106 1037 
L 2970 1069 
L 2970 3021 
Q 2547 2291 2096 1782 
Q 1645 1274 1248 957 
Q 851 640 579 496 
Q 307 352 249 352 
Q 192 352 192 400 
Q 192 448 294 531 
Q 1171 1178 1971 2202 
Q 2394 2739 2758 3386 
L 1389 3309 
Q 1331 3302 1280 3302 
L 1197 3302 
Q 1126 3302 1004 3340 
Q 883 3379 800 3597 
Q 787 3635 787 3648 
Q 787 3693 838 3693 
Q 864 3693 921 3677 
Q 979 3661 1139 3661 
L 1235 3661 
L 2970 3757 
L 2970 4877 
Q 2970 5037 2912 5120 
Q 2854 5203 2854 5229 
Q 2854 5274 2931 5274 
L 2995 5261 
Q 3194 5242 3283 5178 
Q 3373 5114 3373 5037 
L 3373 3782 
L 4954 3872 
Q 5158 3891 5216 3913 
Q 5274 3936 5315 3936 
Q 5357 3936 5446 3872 
Q 5536 3808 5603 3734 
Q 5670 3661 5670 3622 
Q 5670 3552 5510 3539 
L 3539 3430 
Q 4134 2643 4790 1971 
Q 5446 1299 6253 883 
Q 6342 832 6342 806 
Q 6342 781 6217 675 
Q 6093 570 6016 570 
Q 5939 570 5856 621 
Q 5094 1120 4489 1721 
Q 3885 2323 3373 3123 
L 3373 1088 
L 4064 1114 
Q 4224 1126 4307 1155 
Q 4390 1184 4444 1184 
Q 4499 1184 4579 1129 
Q 4659 1075 4707 1004 
Q 4755 934 4755 896 
Q 4755 794 4589 781 
L 3373 730 
L 3373 -467 
Q 3373 -640 3245 -640 
Q 3117 -640 2970 -506 
Q 2918 -454 2918 -403 
Q 2918 -352 2944 -237 
Q 2970 -122 2970 64 
L 2970 710 
L 2195 678 
L 2080 678 
Q 1907 678 1850 736 
Q 1741 845 1702 1005 
Q 1696 1018 1696 1043 
Q 1696 1069 1718 1069 
Q 1741 1069 1811 1049 
Q 1882 1030 1997 1030 
z
" transform="scale(0.015625)"/>
      <path id="LXGWWenKai-Regular-7ae0" d="M 5331 3674 
Q 5344 3674 5600 3725 
Q 5702 3725 5808 3619 
Q 5914 3514 5914 3469 
Q 5914 3392 5779 3379 
L 979 3123 
L 819 3117 
Q 614 3117 525 3315 
Q 486 3411 486 3440 
Q 486 3469 525 3469 
Q 653 3443 800 3443 
L 851 3443 
L 2445 3526 
Q 2259 3782 2169 3875 
Q 2080 3968 2057 3993 
Q 2035 4019 2035 4057 
Q 2035 4096 2125 4160 
L 1587 4128 
L 1478 4128 
Q 1338 4128 1299 4160 
Q 1146 4314 1146 4422 
Q 1146 4454 1184 4454 
Q 1338 4429 1395 4429 
L 2976 4518 
L 2963 4915 
Q 2957 5069 2918 5117 
Q 2880 5165 2880 5206 
Q 2880 5248 2934 5248 
Q 2989 5248 3034 5235 
L 3149 5216 
Q 3283 5190 3324 5148 
Q 3366 5107 3366 5037 
L 3354 4538 
L 4634 4614 
Q 4774 4634 4822 4650 
Q 4870 4666 4902 4666 
Q 4934 4666 5011 4634 
Q 5216 4538 5216 4422 
Q 5216 4339 5075 4333 
L 4006 4269 
Q 4237 4154 4237 4048 
Q 4237 3942 3859 3603 
L 5331 3674 
z
M 2336 4173 
Q 2515 4032 2643 3888 
Q 2771 3744 2771 3686 
Q 2771 3629 2656 3539 
L 3462 3578 
Q 3821 4013 3821 4218 
Q 3821 4250 3827 4256 
L 2336 4173 
z
M 2925 -422 
Q 2957 -198 2957 -58 
L 2963 493 
L 941 410 
L 710 403 
Q 627 403 524 444 
Q 422 486 352 704 
Q 346 717 346 752 
Q 346 787 384 787 
Q 397 787 480 761 
Q 563 736 710 736 
L 774 736 
L 2963 826 
L 2970 1235 
L 2144 1190 
L 2144 1146 
Q 2144 1024 2042 1024 
Q 1958 1024 1833 1085 
Q 1709 1146 1709 1248 
L 1709 1267 
Q 1722 1370 1722 1450 
Q 1722 1530 1709 1619 
L 1632 2496 
Q 1619 2669 1571 2765 
Q 1523 2861 1523 2880 
Q 1523 2925 1609 2925 
Q 1696 2925 2022 2822 
L 4493 2963 
L 4531 2963 
Q 4653 2963 4745 2896 
Q 4838 2829 4838 2765 
Q 4838 2701 4819 2665 
Q 4800 2630 4794 2605 
L 4634 1613 
Q 4800 1453 4800 1382 
Q 4800 1312 4627 1299 
L 3373 1248 
L 3373 845 
L 5421 915 
Q 5626 928 5690 950 
Q 5754 973 5779 973 
Q 5805 973 5875 928 
Q 6080 806 6080 698 
Q 6080 614 5939 602 
L 3373 512 
L 3379 -544 
Q 3379 -659 3277 -659 
Q 3149 -659 2995 -557 
Q 2925 -506 2925 -422 
z
M 4384 2643 
L 2022 2522 
L 2054 2176 
L 4346 2291 
L 4384 2643 
z
M 4307 1990 
L 2080 1875 
L 2112 1504 
L 4262 1600 
L 4307 1990 
z
" transform="scale(0.015625)"/>
      <path id="LXGWWenKai-Regular-4e3b" d="M 4026 4345 
Q 4026 4262 3958 4160 
Q 3891 4058 3833 4058 
Q 3776 4058 3712 4102 
Q 3014 4570 2285 4870 
Q 2176 4922 2176 4998 
Q 2176 5075 2224 5148 
Q 2272 5222 2330 5222 
Q 2509 5222 3277 4826 
Q 3686 4627 3898 4499 
Q 4026 4429 4026 4345 
z
M 1491 3334 
L 1293 3328 
Q 1171 3328 1120 3360 
Q 979 3456 947 3571 
Q 915 3686 915 3693 
Q 915 3738 947 3738 
Q 979 3738 1046 3718 
Q 1114 3699 1280 3699 
L 1363 3699 
L 4717 3891 
Q 4864 3904 4941 3929 
Q 5018 3955 5059 3955 
Q 5101 3955 5184 3898 
Q 5408 3750 5408 3635 
Q 5408 3552 5248 3539 
L 3398 3437 
L 3398 2093 
L 4506 2144 
Q 4678 2163 4726 2182 
Q 4774 2202 4812 2202 
Q 4851 2202 4931 2147 
Q 5011 2093 5075 2019 
Q 5139 1946 5139 1894 
Q 5139 1818 4998 1805 
L 3392 1734 
L 3392 237 
L 5338 307 
Q 5498 320 5571 345 
Q 5645 371 5677 371 
Q 5709 371 5798 307 
Q 6054 147 6054 19 
Q 6054 -70 5901 -83 
L 960 -262 
L 742 -269 
Q 506 -269 410 -64 
Q 346 77 346 134 
Q 346 192 390 192 
Q 416 192 512 169 
Q 608 147 742 147 
L 794 147 
L 2950 224 
L 2950 1715 
L 1837 1664 
L 1677 1658 
Q 1542 1658 1475 1715 
Q 1408 1773 1360 1878 
Q 1312 1984 1312 2019 
Q 1312 2054 1344 2054 
Q 1376 2054 1456 2035 
Q 1536 2016 1651 2016 
L 1702 2016 
L 2957 2074 
L 2957 3411 
L 1491 3334 
z
" transform="scale(0.015625)"/>
      <path id="LXGWWenKai-Regular-89d2" d="M 2413 4224 
Q 2086 3872 1696 3565 
L 1786 3526 
L 3194 3603 
Q 3693 4032 3942 4326 
L 2413 4224 
z
M 1766 1523 
L 1760 1434 
L 3078 1472 
L 3078 2266 
L 1798 2214 
Q 1779 1715 1766 1523 
z
M 4845 2330 
L 3469 2278 
L 3469 1485 
L 4851 1536 
L 4845 2330 
z
M 1792 3187 
L 1798 2560 
L 3078 2611 
L 3078 3258 
L 1792 3187 
z
M 4845 3347 
L 3462 3277 
L 3462 2624 
L 4845 2675 
L 4845 3347 
z
M 3475 1146 
L 3475 -275 
Q 3475 -442 3373 -442 
Q 3347 -442 3264 -410 
Q 3181 -378 3107 -307 
Q 3034 -237 3034 -128 
L 3034 -96 
Q 3034 -77 3059 32 
Q 3085 141 3085 320 
L 3085 1126 
L 1696 1082 
Q 1523 397 1056 -141 
Q 864 -365 710 -480 
Q 557 -595 502 -595 
Q 448 -595 448 -544 
Q 448 -493 538 -384 
Q 1114 301 1280 1011 
Q 1402 1523 1402 2515 
L 1395 3155 
Q 1395 3251 1382 3328 
Q 902 2982 832 2982 
Q 762 2982 762 3034 
Q 762 3098 832 3149 
Q 1837 4019 2509 5018 
Q 2573 5126 2573 5286 
L 2573 5325 
Q 2573 5408 2627 5408 
Q 2682 5408 2787 5344 
Q 2893 5280 2979 5200 
Q 3066 5120 3066 5062 
Q 3066 5005 2694 4557 
L 4090 4653 
L 4173 4659 
Q 4339 4659 4432 4569 
Q 4525 4480 4525 4422 
Q 4525 4307 3731 3629 
L 4973 3699 
L 5024 3699 
Q 5101 3699 5190 3638 
Q 5280 3578 5280 3488 
L 5261 3354 
L 5267 -134 
L 5274 -314 
Q 5274 -397 5194 -515 
Q 5114 -634 5014 -634 
Q 4915 -634 4700 -528 
Q 4486 -422 4115 -131 
Q 3744 160 3744 282 
Q 3744 333 3805 333 
Q 3866 333 4032 243 
Q 4544 -51 4851 -134 
L 4851 1190 
L 3475 1146 
z
" transform="scale(0.015625)"/>
     </defs>
     <use xlink:href="#LXGWWenKai-Regular-2605"/>
     <use xlink:href="#LXGWWenKai-Regular-20" transform="translate(99.999985 0)"/>
     <use xlink:href="#LXGWWenKai-Regular-672c" transform="translate(134.999969 0)"/>
     <use xlink:href="#LXGWWenKai-Regular-7ae0" transform="translate(234.999954 0)"/>
     <use xlink:href="#LXGWWenKai-Regular-4e3b" transform="translate(334.999939 0)"/>
     <use xlink:href="#LXGWWenKai-Regular-89d2" transform="translate(434.999924 0)"/>
    </g>
   </g>
   <g id="text_5">
    <!-- 椭圆切法 -->
    <g style="fill: #636363" transform="translate(395.773494 265.322386) scale(0.11 -0.11)">
     <defs>
      <path id="LXGWWenKai-Regular-692d" d="M 2912 2189 
Q 3002 2112 3094 2054 
Q 3187 1997 3216 1997 
Q 3245 1997 3245 2074 
L 3245 2189 
Q 3245 2330 3177 2586 
Q 3110 2842 2854 3136 
Q 2784 3213 2784 3309 
Q 2784 3405 2864 3552 
Q 2944 3699 3187 4326 
L 2701 4294 
L 2714 -346 
Q 2714 -486 2624 -486 
Q 2496 -486 2409 -400 
Q 2323 -314 2323 -253 
Q 2323 -192 2345 -35 
Q 2368 122 2368 403 
L 2362 3968 
Q 2362 4275 2323 4457 
Q 2285 4640 2285 4681 
Q 2285 4723 2349 4723 
Q 2413 4723 2733 4595 
L 3379 4653 
Q 3437 4653 3533 4601 
Q 3629 4550 3629 4483 
Q 3629 4416 3424 3965 
Q 3219 3514 3174 3430 
Q 3130 3347 3130 3305 
Q 3130 3264 3162 3219 
Q 3450 2899 3584 2336 
Q 3910 2944 4154 3642 
L 3968 3622 
L 3885 3622 
Q 3693 3622 3632 3689 
Q 3571 3757 3539 3846 
Q 3507 3936 3507 3962 
Q 3507 3974 3545 3974 
Q 3584 3974 3657 3948 
Q 3731 3923 3859 3923 
L 3904 3923 
L 4256 3962 
Q 4442 4621 4442 4793 
Q 4442 4966 4422 5027 
Q 4403 5088 4403 5117 
Q 4403 5146 4441 5146 
Q 4480 5146 4582 5107 
Q 4858 5011 4858 4870 
Q 4858 4813 4778 4515 
Q 4698 4218 4621 3994 
L 5459 4070 
Q 5626 4090 5667 4106 
Q 5709 4122 5766 4122 
Q 5824 4122 5939 4029 
Q 6054 3936 6054 3853 
Q 6054 3795 5914 3782 
L 4499 3674 
Q 4384 3360 4218 3046 
Q 4320 3034 4429 2995 
L 5318 3059 
L 5382 3059 
Q 5530 3059 5581 2979 
Q 5632 2899 5632 2848 
L 5613 2739 
L 5626 -6 
L 5638 -262 
Q 5638 -493 5478 -563 
Q 5421 -589 5366 -589 
Q 5312 -589 5181 -493 
Q 5050 -397 4925 -269 
Q 4800 -141 4717 -22 
Q 4634 96 4634 134 
Q 4634 154 4688 154 
Q 4742 154 4896 61 
Q 5050 -32 5280 -141 
L 5280 934 
L 4390 883 
L 4371 -384 
Q 4371 -506 4275 -506 
Q 4205 -506 4102 -442 
Q 4000 -378 4000 -320 
Q 4000 -262 4019 -163 
Q 4038 -64 4038 128 
L 4077 2611 
Q 4077 2656 4077 2701 
Q 4077 2746 4070 2778 
Q 3744 2221 3603 2125 
Q 3603 2112 3603 2099 
Q 3603 1882 3513 1722 
Q 3424 1562 3322 1562 
Q 3162 1562 2947 1850 
Q 2733 2138 2733 2202 
Q 2733 2266 2771 2266 
Q 2822 2266 2912 2189 
z
M 1229 2112 
L 1242 2554 
L 1248 2656 
Q 1069 1837 614 1088 
Q 346 621 250 621 
Q 218 621 218 675 
Q 218 730 256 826 
Q 666 1696 1126 3226 
L 800 3200 
Q 685 3187 640 3187 
Q 410 3187 307 3462 
Q 301 3475 301 3510 
Q 301 3546 336 3546 
Q 371 3546 425 3533 
Q 480 3520 595 3520 
L 672 3520 
L 1235 3565 
L 1248 4704 
Q 1248 4858 1178 4960 
Q 1158 4998 1158 5018 
Q 1158 5069 1260 5069 
Q 1363 5069 1523 4979 
Q 1606 4934 1606 4838 
L 1587 3597 
L 1734 3610 
Q 1875 3629 1923 3645 
Q 1971 3661 2048 3661 
Q 2125 3661 2224 3565 
Q 2323 3469 2323 3418 
Q 2323 3334 2176 3315 
L 1587 3264 
L 1581 2867 
Q 1651 2918 1702 2918 
Q 1798 2918 2028 2524 
Q 2259 2131 2259 2060 
Q 2259 1990 2169 1942 
Q 2080 1894 2025 1894 
Q 1971 1894 1904 2022 
Q 1837 2150 1750 2326 
Q 1664 2502 1574 2630 
L 1536 -480 
Q 1536 -614 1440 -614 
Q 1382 -614 1306 -576 
Q 1158 -506 1158 -365 
Q 1158 -326 1180 -236 
Q 1203 -147 1203 32 
L 1203 166 
Q 1229 730 1229 2112 
z
M 5280 1850 
L 4403 1798 
L 4397 1165 
L 5280 1210 
L 5280 1850 
z
M 5280 2752 
L 4416 2694 
L 4410 2086 
L 5280 2138 
L 5280 2752 
z
" transform="scale(0.015625)"/>
     </defs>
     <use xlink:href="#LXGWWenKai-Regular-692d"/>
     <use xlink:href="#LXGWWenKai-Regular-5706" transform="translate(99.999985 0)"/>
     <use xlink:href="#LXGWWenKai-Regular-5207" transform="translate(199.999969 0)"/>
     <use xlink:href="#LXGWWenKai-Regular-6cd5" transform="translate(299.999954 0)"/>
    </g>
   </g>
  </g>
  <g id="axes_5">
   <g id="patch_6">
    <path d="M 417.773494 420.795 
C 431.006068 420.795 443.698451 417.837737 453.055294 412.574512 
C 462.412137 407.311288 467.669494 400.171823 467.669494 392.7285 
C 467.669494 385.285177 462.412137 378.145712 453.055294 372.882488 
C 443.698451 367.619263 431.006068 364.662 417.773494 364.662 
C 404.54092 364.662 391.848537 367.619263 382.491694 372.882488 
C 373.134851 378.145712 367.877494 385.285177 367.877494 392.7285 
C 367.877494 400.171823 373.134851 407.311288 382.491694 412.574512 
C 391.848537 417.837737 404.54092 420.795 417.773494 420.795 
z
" clip-path="url(#pcb2dc2744e)" style="fill: #fbb4ae; opacity: 0.9; stroke: #111111; stroke-width: 1.5; stroke-linejoin: miter"/>
   </g>
   <g id="text_6">
    <!-- 椭圆截面 -->
    <g transform="translate(393.773494 442.6245) scale(0.12 -0.12)">
     <use xlink:href="#LXGWWenKai-Regular-692d"/>
     <use xlink:href="#LXGWWenKai-Regular-5706" transform="translate(99.999985 0)"/>
     <use xlink:href="#LXGWWenKai-Regular-622a" transform="translate(199.999969 0)"/>
     <use xlink:href="#LXGWWenKai-Regular-9762" transform="translate(299.999954 0)"/>
    </g>
   </g>
  </g>
  <g id="axes_6">
   <g id="text_7">
    <!-- $\theta &lt; \alpha &lt; 90^\circ$ -->
    <g style="fill: #d6604d" transform="translate(384.098494 533.955) scale(0.15 -0.15)">
     <defs>
      <path id="STIXGeneral-Italic-3b8" d="M 3162 3270 
Q 3162 2534 2925 1862 
Q 2688 1190 2304 678 
Q 1741 -70 992 -70 
Q 608 -70 390 224 
Q 173 518 173 1030 
Q 173 1997 592 2813 
Q 1011 3629 1594 4070 
Q 1952 4339 2374 4339 
Q 2733 4339 2947 4076 
Q 3162 3814 3162 3270 
z
M 941 2221 
L 2432 2221 
Q 2624 2874 2624 3533 
Q 2624 4205 2285 4205 
Q 2029 4205 1728 3814 
Q 1427 3424 1232 2992 
Q 1037 2560 941 2221 
z
M 2387 2016 
L 896 2016 
Q 710 1530 710 960 
Q 710 64 1069 64 
Q 1286 64 1510 275 
Q 1734 486 1904 806 
Q 2074 1126 2198 1440 
Q 2323 1754 2387 2016 
z
" transform="scale(0.015625)"/>
      <path id="STIXGeneral-Regular-3c" d="M 3974 -154 
L 358 1594 
L 358 1658 
L 3974 3418 
L 3974 3002 
L 1210 1626 
L 3974 250 
L 3974 -154 
z
" transform="scale(0.015625)"/>
     </defs>
     <use xlink:href="#STIXGeneral-Italic-3b8" transform="translate(0 0.203125)"/>
     <use xlink:href="#STIXGeneral-Regular-3c" transform="translate(62.439981 0.203125)"/>
     <use xlink:href="#STIXGeneral-Italic-3b1" transform="translate(145.379962 0.203125)"/>
     <use xlink:href="#STIXGeneral-Regular-3c" transform="translate(215.019955 0.203125)"/>
     <use xlink:href="#STIXGeneral-Regular-39" transform="translate(297.959937 0.203125)"/>
     <use xlink:href="#STIXGeneral-Regular-30" transform="translate(347.959921 0.203125)"/>
     <use xlink:href="#STIXGeneral-Regular-2218" transform="translate(409.611185 35.478125) scale(0.7)"/>
    </g>
   </g>
   <g id="text_8">
    <!-- 即：平面比母线平缓 -->
    <g style="fill: #d6604d; opacity: 0.8" transform="translate(372.773494 570.284031) scale(0.1 -0.1)">
     <defs>
      <path id="LXGWWenKai-Regular-5373" d="M 806 4755 
Q 806 4794 873 4794 
Q 941 4794 1280 4608 
L 2752 4723 
Q 2784 4730 2816 4730 
L 2867 4730 
Q 2989 4730 3072 4656 
Q 3155 4582 3155 4528 
Q 3155 4474 3123 4429 
Q 3091 4384 3085 4333 
L 2899 2611 
Q 3078 2406 3078 2352 
Q 3078 2298 3030 2291 
Q 2982 2285 2912 2278 
L 1286 2214 
L 1293 685 
Q 1741 870 2362 1203 
Q 2208 1440 2089 1593 
Q 1971 1747 1971 1792 
Q 1971 1837 2048 1907 
Q 2125 1978 2185 1978 
Q 2246 1978 2310 1894 
Q 2586 1555 2950 1014 
Q 3315 474 3315 400 
Q 3315 326 3216 246 
Q 3117 166 3040 166 
Q 2963 166 2918 256 
Q 2733 621 2528 941 
Q 1696 422 1209 230 
Q 723 38 672 38 
Q 621 38 541 92 
Q 461 147 397 230 
Q 333 314 333 384 
Q 333 410 422 419 
Q 512 429 614 457 
Q 717 486 813 512 
L 909 544 
L 896 4134 
Q 896 4467 813 4717 
Q 806 4736 806 4755 
z
M 4365 1715 
Q 4826 1427 5114 1357 
Q 5158 1357 5165 1414 
Q 5306 2509 5350 4224 
L 4038 4141 
L 4045 -493 
Q 4045 -659 3923 -659 
Q 3782 -659 3683 -550 
Q 3584 -442 3584 -397 
L 3584 -333 
Q 3584 -314 3606 -195 
Q 3629 -77 3629 96 
L 3629 4102 
Q 3629 4326 3574 4457 
Q 3520 4589 3520 4630 
Q 3520 4672 3597 4672 
Q 3674 4672 4051 4506 
L 5504 4608 
Q 5638 4608 5712 4509 
Q 5786 4410 5786 4358 
L 5760 4218 
Q 5741 2899 5632 1754 
Q 5613 1562 5593 1328 
Q 5574 1094 5472 966 
Q 5370 838 5286 838 
Q 5203 838 4992 950 
Q 4781 1062 4457 1328 
Q 4134 1594 4134 1741 
Q 4134 1786 4188 1786 
Q 4243 1786 4365 1715 
z
M 2694 4378 
L 1274 4288 
L 1280 3610 
L 2637 3686 
L 2694 4378 
z
M 2611 3360 
L 1280 3283 
L 1280 2541 
L 2547 2592 
L 2611 3360 
z
" transform="scale(0.015625)"/>
      <path id="LXGWWenKai-Regular-ff1a" d="M 1574 646 
Q 1709 646 1814 515 
Q 1920 384 1920 253 
Q 1920 122 1840 38 
Q 1760 -45 1606 -45 
Q 1453 -45 1350 86 
Q 1248 218 1248 355 
Q 1248 493 1344 569 
Q 1440 646 1574 646 
z
M 1574 3021 
Q 1709 3021 1814 2889 
Q 1920 2758 1920 2627 
Q 1920 2496 1840 2413 
Q 1760 2330 1606 2330 
Q 1453 2330 1350 2461 
Q 1248 2592 1248 2729 
Q 1248 2867 1344 2944 
Q 1440 3021 1574 3021 
z
" transform="scale(0.015625)"/>
      <path id="LXGWWenKai-Regular-5e73" d="M 755 1613 
L 550 1606 
Q 435 1606 403 1638 
Q 218 1837 218 1965 
Q 218 2010 269 2010 
Q 294 2010 345 1990 
Q 397 1971 550 1971 
L 621 1971 
L 2938 2067 
L 2950 4416 
L 1555 4339 
Q 1504 4333 1446 4333 
L 1331 4333 
Q 1286 4333 1241 4345 
Q 1197 4358 1113 4476 
Q 1030 4595 1030 4659 
Q 1030 4723 1075 4723 
Q 1101 4723 1155 4707 
Q 1210 4691 1350 4691 
L 1427 4691 
L 4634 4877 
Q 4813 4890 4873 4912 
Q 4934 4934 4995 4934 
Q 5056 4934 5136 4880 
Q 5216 4826 5270 4755 
Q 5325 4685 5325 4640 
Q 5325 4557 5165 4544 
L 3366 4442 
L 3360 2086 
L 5446 2176 
Q 5619 2189 5683 2211 
Q 5747 2234 5817 2234 
Q 5888 2234 5968 2173 
Q 6048 2112 6096 2041 
Q 6144 1971 6144 1933 
Q 6144 1856 5984 1837 
L 3354 1722 
L 3347 -582 
Q 3347 -742 3216 -742 
Q 3085 -742 2982 -665 
Q 2880 -589 2880 -474 
Q 2880 -435 2902 -316 
Q 2925 -198 2925 13 
L 2931 1709 
L 755 1613 
z
M 4538 4090 
Q 4538 4186 4621 4186 
Q 4762 4186 4947 4019 
Q 5024 3955 5024 3907 
Q 5024 3859 4880 3606 
Q 4736 3354 4387 2909 
Q 4038 2464 3808 2349 
Q 3750 2310 3718 2310 
Q 3686 2310 3686 2348 
Q 3686 2387 3824 2585 
Q 3962 2784 4134 3085 
Q 4538 3770 4538 4032 
L 4538 4090 
z
M 2246 3129 
Q 2374 2944 2457 2806 
Q 2541 2669 2541 2627 
Q 2541 2586 2435 2496 
Q 2330 2406 2253 2406 
Q 2176 2406 2118 2515 
Q 1850 3059 1408 3603 
Q 1331 3712 1331 3760 
Q 1331 3808 1420 3865 
Q 1510 3923 1561 3923 
Q 1613 3923 1728 3801 
Q 1843 3680 1980 3497 
Q 2118 3315 2246 3129 
z
" transform="scale(0.015625)"/>
      <path id="LXGWWenKai-Regular-6bd4" d="M 3494 4570 
Q 3494 4742 3379 4902 
Q 3347 4954 3347 4992 
Q 3347 5030 3404 5030 
Q 3462 5030 3584 5005 
Q 3910 4922 3910 4768 
L 3898 2560 
Q 4589 2944 5030 3354 
Q 5139 3450 5197 3661 
Q 5216 3744 5274 3744 
Q 5312 3744 5389 3674 
Q 5613 3482 5613 3309 
Q 5613 3238 5568 3213 
Q 5178 2938 4784 2666 
Q 4390 2394 3898 2170 
L 3885 435 
Q 3885 301 3926 224 
Q 3968 147 4134 118 
Q 4301 90 4704 90 
Q 5107 90 5305 122 
Q 5504 154 5561 189 
Q 5619 224 5692 374 
Q 5766 525 5875 1229 
Q 5926 1530 6003 1530 
Q 6061 1530 6080 1392 
Q 6099 1254 6099 854 
Q 6099 454 6073 224 
Q 6048 -6 5923 -121 
Q 5798 -237 5510 -275 
Q 5222 -314 4752 -314 
Q 4282 -314 4010 -278 
Q 3738 -243 3606 -92 
Q 3475 58 3475 403 
L 3494 4570 
z
M 1306 4333 
Q 1306 4512 1197 4659 
Q 1165 4710 1165 4742 
Q 1165 4774 1248 4774 
Q 1331 4774 1485 4723 
Q 1715 4653 1715 4525 
L 1709 2829 
L 2406 2861 
Q 2598 2880 2668 2905 
Q 2739 2931 2800 2931 
Q 2861 2931 2937 2867 
Q 3014 2803 3068 2726 
Q 3123 2650 3123 2611 
Q 3123 2528 2950 2515 
L 1709 2451 
L 1702 429 
Q 2470 794 2925 1075 
Q 3046 1152 3116 1152 
Q 3187 1152 3187 1107 
Q 3187 992 2816 730 
Q 2221 301 1769 38 
Q 1318 -224 1152 -304 
Q 986 -384 922 -384 
Q 858 -384 778 -342 
Q 698 -301 602 -195 
Q 506 -90 506 -45 
Q 506 0 685 22 
Q 864 45 1299 250 
L 1306 4333 
z
" transform="scale(0.015625)"/>
      <path id="LXGWWenKai-Regular-6bcd" d="M 5562 3072 
L 5843 3136 
Q 5978 3136 6157 2982 
Q 6234 2912 6234 2854 
Q 6234 2746 6125 2733 
L 4941 2675 
Q 4890 1773 4787 1037 
L 4890 1037 
Q 5178 1050 5248 1078 
Q 5318 1107 5372 1107 
Q 5427 1107 5517 1069 
Q 5741 973 5741 819 
Q 5741 768 5702 733 
Q 5664 698 5613 698 
L 4736 678 
Q 4576 -691 4141 -691 
Q 3891 -691 3238 -256 
Q 2867 -6 2867 96 
Q 2867 141 2940 141 
Q 3014 141 3088 112 
Q 3162 83 3296 38 
Q 3430 -6 3715 -99 
Q 4000 -192 4041 -192 
Q 4083 -192 4109 -154 
Q 4192 -13 4307 672 
L 1709 614 
Q 1613 608 1545 592 
Q 1478 576 1398 576 
Q 1318 576 1241 656 
Q 1165 736 1165 787 
Q 1165 838 1203 947 
Q 1242 1056 1478 2502 
L 806 2470 
Q 762 2464 717 2464 
L 634 2464 
Q 307 2464 205 2778 
Q 198 2790 198 2822 
Q 198 2854 230 2854 
Q 262 2854 336 2835 
Q 410 2816 640 2816 
L 717 2816 
L 1530 2861 
Q 1645 3674 1702 4282 
L 1709 4378 
Q 1709 4550 1677 4656 
Q 1645 4762 1645 4800 
Q 1645 4877 1747 4877 
Q 1850 4877 2163 4691 
L 4710 4870 
L 4742 4870 
Q 4877 4870 4969 4803 
Q 5062 4736 5062 4665 
Q 5062 4595 5036 4544 
Q 5011 4493 5011 4461 
Q 4998 3738 4960 3034 
L 5338 3053 
Q 5446 3059 5562 3072 
z
M 2112 4358 
Q 2061 3731 1939 2880 
L 4550 3014 
Q 4576 3571 4595 4525 
L 2112 4358 
z
M 3558 3270 
Q 3098 3642 2726 3878 
Q 2656 3917 2656 3987 
Q 2656 4058 2733 4128 
Q 2810 4198 2845 4198 
Q 2880 4198 3049 4105 
Q 3219 4013 3577 3760 
Q 3936 3507 3936 3418 
Q 3936 3347 3865 3257 
Q 3795 3168 3737 3168 
Q 3680 3168 3558 3270 
z
M 1888 2522 
Q 1760 1613 1632 960 
L 4371 1024 
Q 4480 1850 4531 2656 
L 1888 2522 
z
M 3750 1520 
Q 3750 1459 3680 1366 
Q 3610 1274 3549 1274 
Q 3488 1274 3424 1325 
Q 2938 1728 2483 2003 
Q 2419 2048 2419 2102 
Q 2419 2157 2483 2246 
Q 2547 2336 2588 2336 
Q 2630 2336 2931 2157 
Q 3232 1978 3654 1658 
Q 3750 1581 3750 1520 
z
" transform="scale(0.015625)"/>
      <path id="LXGWWenKai-Regular-7ebf" d="M 1837 1888 
Q 2112 1933 2281 1961 
Q 2451 1990 2544 1984 
Q 2637 1978 2630 1926 
Q 2624 1837 2243 1680 
Q 1862 1523 1430 1414 
Q 998 1306 928 1312 
Q 858 1318 813 1357 
Q 691 1504 659 1609 
Q 627 1715 627 1728 
Q 634 1786 698 1779 
L 794 1773 
Q 922 1760 1043 1766 
Q 1299 2144 1517 2515 
L 1574 2605 
Q 1088 2944 608 3149 
Q 499 3200 486 3251 
Q 474 3302 518 3401 
Q 563 3501 624 3513 
Q 685 3526 806 3482 
Q 832 3469 851 3462 
Q 1395 4250 1510 4544 
Q 1626 4838 1626 4979 
L 1626 5043 
Q 1626 5114 1677 5114 
Q 1709 5114 1798 5062 
Q 2042 4915 2042 4781 
Q 2003 4621 1792 4250 
Q 1600 3904 1171 3290 
L 1325 3206 
Q 1600 3053 1779 2931 
Q 2202 3648 2246 3834 
Q 2259 3891 2265 3987 
Q 2272 4083 2307 4083 
Q 2342 4083 2426 4032 
Q 2662 3891 2669 3750 
Q 2669 3706 2650 3661 
Q 2093 2688 1504 1830 
Q 1664 1862 1837 1888 
z
M 1549 627 
Q 2099 845 2419 989 
Q 2739 1133 2796 1139 
Q 2854 1146 2861 1126 
Q 2874 986 1926 442 
Q 979 -102 813 -115 
Q 768 -122 681 -45 
Q 595 32 534 128 
Q 474 224 467 275 
Q 467 301 531 307 
L 595 314 
Q 698 320 883 378 
L 1549 627 
z
M 5274 4154 
Q 5171 4019 4992 4192 
Q 4640 4550 4461 4688 
Q 4282 4826 4291 4890 
Q 4301 4954 4355 5014 
Q 4410 5075 4451 5062 
Q 4493 5050 4595 4979 
Q 5370 4467 5350 4282 
Q 5338 4237 5274 4154 
z
M 3987 3226 
Q 4122 2598 4141 2483 
L 5254 2682 
Q 5357 2701 5424 2736 
Q 5491 2771 5523 2774 
Q 5555 2778 5632 2733 
Q 5837 2598 5850 2490 
Q 5862 2419 5702 2387 
L 4237 2125 
L 4294 1920 
Q 4307 1888 4320 1856 
Q 4333 1824 4384 1667 
Q 4435 1510 4582 1222 
Q 5101 1638 5165 1724 
Q 5229 1811 5241 1891 
Q 5254 1971 5289 1971 
Q 5325 1971 5395 1914 
Q 5587 1741 5587 1600 
Q 5587 1542 5530 1485 
Q 5139 1146 4768 896 
Q 5165 269 5683 -70 
Q 5702 -77 5718 -86 
Q 5734 -96 5747 -96 
Q 5843 -96 6048 896 
Q 6106 1171 6173 1171 
Q 6240 1171 6240 922 
L 6240 870 
Q 6234 390 6144 -218 
Q 6118 -397 6048 -473 
Q 5978 -550 5805 -550 
Q 5632 -550 5389 -390 
Q 4896 -70 4435 685 
Q 3571 186 2534 -90 
Q 2342 -141 2281 -141 
Q 2221 -141 2221 -96 
Q 2221 -26 2387 38 
Q 3603 563 4256 998 
Q 4205 1107 4150 1222 
Q 4096 1338 3910 1850 
L 3859 2054 
L 3187 1939 
L 3091 1926 
Q 2989 1914 2893 1965 
Q 2797 2016 2701 2202 
Q 2669 2278 2726 2285 
Q 2752 2291 2829 2281 
Q 2906 2272 3085 2291 
L 3757 2406 
Q 3718 2573 3686 2739 
L 3610 3149 
L 3277 3085 
L 3181 3072 
Q 3014 3046 2950 3136 
Q 2906 3181 2848 3267 
Q 2790 3354 2790 3386 
Q 2778 3437 2854 3430 
Q 2963 3418 3078 3437 
L 3162 3443 
L 3552 3520 
L 3501 3878 
Q 3450 4218 3418 4538 
Q 3386 4858 3357 4928 
Q 3328 4998 3277 5056 
Q 3226 5114 3226 5146 
Q 3226 5197 3293 5197 
Q 3360 5197 3469 5190 
Q 3763 5165 3776 4979 
Q 3808 4493 3878 3936 
L 3923 3610 
L 3923 3590 
L 4774 3750 
Q 4832 3763 4921 3798 
Q 5011 3834 5052 3840 
Q 5094 3846 5177 3808 
Q 5261 3770 5325 3712 
Q 5510 3526 5210 3469 
L 3987 3226 
z
" transform="scale(0.015625)"/>
      <path id="LXGWWenKai-Regular-7f13" d="M 3462 3328 
Q 3366 3251 3309 3251 
Q 3245 3251 3174 3366 
Q 3085 3520 2995 3654 
Q 2906 3789 2797 3910 
Q 2746 3974 2746 4013 
Q 2746 4064 2816 4118 
Q 2886 4173 2931 4173 
Q 2976 4173 3075 4083 
Q 3174 3994 3283 3869 
Q 3392 3744 3469 3625 
Q 3546 3507 3546 3450 
Q 3546 3386 3462 3328 
z
M 3750 4058 
Q 3712 4109 3712 4147 
Q 3712 4205 3766 4233 
Q 3821 4262 3875 4275 
Q 3930 4288 3936 4288 
Q 3994 4288 4074 4166 
Q 4154 4045 4227 3894 
Q 4301 3744 4333 3661 
Q 4371 3597 4371 3546 
Q 4371 3488 4316 3449 
Q 4262 3411 4201 3395 
Q 4141 3379 4122 3379 
Q 4058 3379 4006 3514 
Q 3955 3661 3884 3798 
Q 3814 3936 3750 4058 
z
M 3686 2182 
Q 3661 2080 3622 1981 
Q 3584 1882 3552 1792 
L 5050 1875 
Q 5069 1875 5088 1878 
Q 5107 1882 5126 1882 
Q 5210 1882 5270 1827 
Q 5331 1773 5366 1715 
Q 5402 1658 5402 1638 
Q 5402 1581 5363 1542 
Q 5325 1504 5306 1472 
Q 5165 1216 4998 985 
Q 4832 755 4614 531 
Q 4928 320 5270 153 
Q 5613 -13 6029 -147 
Q 6176 -192 6176 -243 
Q 6176 -256 6128 -329 
Q 6080 -403 6013 -473 
Q 5946 -544 5875 -544 
Q 5850 -544 5798 -525 
Q 5370 -358 5021 -163 
Q 4672 32 4333 282 
Q 4006 58 3689 -96 
Q 3373 -250 3113 -339 
Q 2854 -429 2688 -470 
Q 2522 -512 2496 -512 
Q 2406 -512 2406 -467 
Q 2406 -397 2598 -320 
Q 3021 -154 3379 48 
Q 3738 250 4064 499 
Q 4038 525 3939 614 
Q 3840 704 3725 819 
Q 3610 934 3526 1036 
Q 3443 1139 3443 1184 
Q 3443 1242 3516 1299 
Q 3590 1357 3642 1357 
Q 3674 1357 3699 1341 
Q 3725 1325 3750 1299 
Q 3891 1146 4035 1008 
Q 4179 870 4333 749 
Q 4672 1101 4877 1523 
L 3405 1453 
Q 3264 1133 3065 848 
Q 2867 563 2668 345 
Q 2470 128 2316 3 
Q 2163 -122 2106 -122 
Q 2061 -122 2061 -77 
Q 2061 -6 2170 102 
Q 2560 525 2832 1033 
Q 3104 1542 3302 2163 
L 2854 2138 
L 2765 2138 
Q 2669 2138 2582 2176 
Q 2496 2214 2432 2406 
Q 2426 2419 2426 2445 
Q 2426 2477 2470 2477 
Q 2477 2477 2486 2473 
Q 2496 2470 2509 2470 
Q 2643 2451 2739 2451 
L 2816 2451 
L 3392 2483 
Q 3424 2586 3446 2691 
Q 3469 2797 3494 2899 
L 3174 2880 
L 3085 2880 
Q 2995 2880 2908 2921 
Q 2822 2963 2752 3149 
Q 2746 3162 2746 3181 
Q 2746 3200 2778 3200 
Q 2790 3200 2803 3197 
Q 2816 3194 2829 3194 
Q 2867 3187 2918 3180 
Q 2970 3174 3034 3174 
Q 3066 3174 3094 3174 
Q 3123 3174 3149 3181 
L 4365 3264 
Q 4550 3507 4700 3750 
Q 4851 3994 4960 4230 
Q 4973 4256 4979 4301 
Q 4986 4346 4986 4410 
L 4986 4454 
Q 4986 4538 5037 4538 
Q 5050 4538 5146 4499 
Q 5242 4461 5331 4393 
Q 5421 4326 5421 4243 
Q 5421 4205 5350 4096 
Q 5280 3987 5168 3843 
Q 5056 3699 4928 3552 
Q 4800 3405 4685 3290 
L 5005 3309 
Q 5082 3315 5139 3321 
Q 5197 3328 5261 3347 
Q 5286 3360 5305 3360 
Q 5325 3360 5344 3360 
Q 5434 3360 5520 3257 
Q 5606 3155 5606 3104 
Q 5606 3027 5440 3014 
L 3904 2925 
L 3789 2502 
L 5408 2586 
Q 5491 2592 5555 2598 
Q 5619 2605 5683 2624 
Q 5709 2630 5731 2633 
Q 5754 2637 5773 2637 
Q 5843 2637 5900 2579 
Q 5958 2522 5993 2461 
Q 6029 2400 6029 2381 
Q 6029 2304 5830 2291 
L 3686 2182 
z
M 5491 4787 
Q 5491 4742 5456 4729 
Q 5421 4717 5382 4704 
Q 4870 4550 4387 4451 
Q 3904 4352 3517 4294 
Q 3130 4237 2906 4211 
L 2675 4186 
Q 2528 4186 2528 4237 
Q 2528 4314 2765 4371 
Q 3411 4518 3840 4633 
Q 4269 4749 4521 4835 
Q 4774 4922 4899 4979 
Q 5024 5037 5069 5072 
Q 5114 5107 5126 5126 
Q 5158 5178 5190 5178 
Q 5235 5178 5305 5104 
Q 5376 5030 5433 4937 
Q 5491 4845 5491 4787 
z
M 1715 1933 
Q 2022 1984 2176 2016 
Q 2330 2048 2416 2038 
Q 2502 2029 2496 1978 
Q 2490 1888 2083 1718 
Q 1677 1549 1280 1437 
Q 883 1325 819 1331 
Q 755 1338 717 1376 
Q 602 1530 573 1638 
Q 544 1747 544 1766 
Q 550 1818 608 1811 
L 698 1805 
Q 813 1792 922 1798 
Q 1126 2112 1344 2470 
L 1376 2522 
Q 922 2874 467 3091 
Q 371 3142 358 3196 
Q 346 3251 387 3350 
Q 429 3450 486 3466 
Q 544 3482 653 3430 
Q 678 3424 698 3411 
Q 1254 4224 1370 4531 
Q 1491 4832 1491 4973 
L 1491 5043 
Q 1491 5114 1542 5114 
Q 1574 5114 1670 5062 
Q 1920 4909 1920 4768 
Q 1882 4608 1664 4224 
Q 1466 3866 1018 3226 
L 1139 3155 
Q 1408 2982 1581 2854 
Q 2042 3635 2093 3834 
Q 2106 3891 2112 3987 
Q 2118 4083 2153 4083 
Q 2189 4083 2278 4038 
Q 2522 3885 2522 3744 
Q 2528 3699 2502 3648 
Q 1933 2656 1395 1875 
Q 1542 1907 1715 1933 
z
M 1363 698 
Q 1882 915 2186 1065 
Q 2490 1216 2547 1222 
Q 2605 1229 2605 1210 
Q 2618 1062 1722 502 
Q 826 -58 666 -70 
Q 627 -77 544 3 
Q 461 83 403 179 
Q 346 275 339 326 
Q 339 358 397 358 
L 461 371 
Q 557 378 736 435 
L 1363 698 
z
" transform="scale(0.015625)"/>
     </defs>
     <use xlink:href="#LXGWWenKai-Regular-5373"/>
     <use xlink:href="#LXGWWenKai-Regular-ff1a" transform="translate(99.999985 0)"/>
     <use xlink:href="#LXGWWenKai-Regular-5e73" transform="translate(199.999969 0)"/>
     <use xlink:href="#LXGWWenKai-Regular-9762" transform="translate(299.999954 0)"/>
     <use xlink:href="#LXGWWenKai-Regular-6bd4" transform="translate(399.999939 0)"/>
     <use xlink:href="#LXGWWenKai-Regular-6bcd" transform="translate(499.999924 0)"/>
     <use xlink:href="#LXGWWenKai-Regular-7ebf" transform="translate(599.999908 0)"/>
     <use xlink:href="#LXGWWenKai-Regular-5e73" transform="translate(699.999893 0)"/>
     <use xlink:href="#LXGWWenKai-Regular-7f13" transform="translate(799.999878 0)"/>
    </g>
   </g>
  </g>
  <g id="axes_7">
   <g id="patch_7">
    <path d="M 542.972525 127.279012 
L 615.426506 252.772988 
L 687.880487 127.279012 
L 542.972525 127.279012 
z
" clip-path="url(#pd4596c31bd)" style="fill: none; stroke: #636363; stroke-linejoin: miter"/>
   </g>
   <g id="line2d_5">
    <path d="M 615.426506 252.772988 
L 615.426506 127.279012 
" clip-path="url(#pd4596c31bd)" style="fill: none; stroke-dasharray: 2.96,1.28; stroke-dashoffset: 0; stroke: #636363; stroke-opacity: 0.5; stroke-width: 0.8"/>
   </g>
   <g id="line2d_6">
    <path d="M 571.503614 113.94932 
L 659.349398 266.10268 
" clip-path="url(#pd4596c31bd)" style="fill: none; stroke: #252525; stroke-width: 2; stroke-linecap: square"/>
   </g>
   <g id="text_9">
    <!-- 抛物线切法 -->
    <g style="fill: #636363" transform="translate(587.926506 265.322386) scale(0.11 -0.11)">
     <defs>
      <path id="LXGWWenKai-Regular-629b" d="M 5056 3290 
Q 5030 3130 5004 2966 
Q 4979 2803 4912 2473 
Q 4845 2144 4681 1760 
Q 4518 1376 4345 1110 
Q 4173 845 4038 710 
Q 3904 576 3869 576 
Q 3834 576 3834 624 
Q 3834 672 4019 1018 
Q 4538 1958 4698 3258 
L 4557 3245 
Q 4467 3232 4355 3232 
Q 4243 3232 4166 3299 
Q 4090 3366 4058 3440 
Q 4026 3514 4019 3523 
Q 4013 3533 4013 3558 
Q 4013 3603 4058 3603 
Q 4083 3603 4160 3584 
Q 4237 3565 4352 3565 
L 4384 3565 
L 4730 3597 
Q 4794 3974 4794 4358 
Q 4794 4742 4778 4816 
Q 4762 4890 4739 4947 
Q 4717 5005 4717 5024 
Q 4717 5075 4819 5075 
Q 4922 5075 5046 5001 
Q 5171 4928 5171 4826 
Q 5158 4211 5094 3629 
L 5568 3674 
L 5619 3674 
Q 5728 3674 5808 3600 
Q 5888 3526 5888 3475 
Q 5888 3424 5872 3395 
Q 5856 3366 5850 3334 
Q 5805 2490 5753 1875 
Q 5702 1261 5593 931 
Q 5485 602 5261 602 
Q 5075 602 4819 918 
Q 4563 1235 4563 1331 
Q 4563 1363 4611 1363 
Q 4659 1363 4816 1264 
Q 4973 1165 5069 1104 
Q 5165 1043 5190 1043 
Q 5376 1043 5478 3334 
L 5056 3290 
z
M 365 3565 
Q 525 3533 576 3533 
L 659 3533 
Q 691 3533 736 3539 
L 1222 3571 
L 1229 4602 
Q 1229 4787 1126 4960 
Q 1107 4992 1107 5011 
Q 1107 5050 1171 5050 
Q 1235 5050 1344 5018 
Q 1613 4947 1613 4781 
L 1606 3603 
L 1722 3610 
Q 1837 3622 1904 3654 
Q 1971 3686 1996 3686 
Q 2022 3686 2099 3648 
Q 2330 3526 2330 3405 
Q 2330 3328 2182 3309 
L 1600 3264 
L 1594 2150 
Q 1843 2310 2138 2515 
Q 2227 2573 2272 2573 
Q 2317 2573 2317 2528 
Q 2317 2483 2233 2377 
Q 2150 2272 1594 1824 
L 1581 186 
L 1594 -51 
Q 1594 -314 1382 -397 
Q 1306 -422 1280 -422 
Q 1062 -422 717 -38 
Q 582 122 492 259 
Q 403 397 403 435 
Q 403 474 435 474 
Q 480 474 665 346 
Q 851 218 1203 70 
L 1210 1523 
Q 781 1197 710 1165 
Q 640 1133 566 1133 
Q 493 1133 403 1193 
Q 314 1254 259 1321 
Q 205 1389 205 1417 
Q 205 1446 336 1462 
Q 467 1478 1216 1920 
L 1222 3232 
L 877 3206 
Q 736 3194 643 3194 
Q 550 3194 486 3258 
Q 422 3322 387 3395 
Q 352 3469 342 3488 
Q 333 3507 333 3536 
Q 333 3565 365 3565 
z
M 2086 3200 
L 2298 3168 
L 2406 3168 
Q 2445 3168 2470 3174 
L 2765 3213 
Q 2816 3738 2816 4480 
Q 2816 4634 2774 4723 
Q 2733 4813 2733 4838 
Q 2733 4896 2848 4896 
Q 2963 4896 3123 4813 
Q 3213 4762 3213 4678 
Q 3200 3757 3149 3258 
L 3635 3315 
Q 3654 3322 3674 3322 
L 3706 3322 
Q 3795 3322 3872 3254 
Q 3949 3187 3949 3126 
Q 3949 3066 3936 3027 
Q 3923 2989 3917 2938 
L 3667 525 
Q 3661 493 3661 461 
L 3661 403 
Q 3661 294 3712 218 
Q 3808 83 4441 83 
Q 5075 83 5645 160 
Q 5747 173 5795 240 
Q 5843 307 5907 547 
Q 5971 787 6006 1078 
Q 6042 1370 6093 1370 
Q 6189 1370 6189 787 
Q 6189 525 6169 310 
Q 6150 96 6051 -38 
Q 5952 -173 5696 -211 
Q 5171 -288 4630 -288 
Q 4090 -288 3805 -240 
Q 3520 -192 3408 -51 
Q 3296 90 3296 365 
L 3296 435 
Q 3296 474 3302 512 
L 3539 2970 
L 3117 2918 
Q 2995 1690 2560 640 
Q 2304 13 1805 -461 
Q 1722 -538 1670 -538 
Q 1632 -538 1632 -493 
Q 1632 -448 1690 -352 
Q 2534 934 2733 2867 
L 2566 2842 
Q 2515 2835 2470 2828 
Q 2426 2822 2352 2822 
Q 2278 2822 2204 2902 
Q 2131 2982 2096 3068 
Q 2061 3155 2061 3162 
Q 2061 3200 2086 3200 
z
" transform="scale(0.015625)"/>
      <path id="LXGWWenKai-Regular-7269" d="M 3546 4890 
L 3533 4973 
Q 3533 5056 3597 5056 
Q 3661 5056 3757 5005 
Q 4013 4870 4013 4749 
Q 4013 4730 4013 4710 
Q 4013 4691 3920 4432 
Q 3827 4173 3565 3661 
L 5523 3795 
L 5574 3795 
Q 5664 3795 5747 3734 
Q 5830 3674 5830 3603 
L 5805 3443 
Q 5792 2400 5709 1549 
Q 5626 698 5574 384 
Q 5523 70 5488 -90 
Q 5453 -250 5376 -326 
Q 5299 -403 5238 -441 
Q 5178 -480 5107 -480 
Q 5037 -480 4877 -390 
Q 4499 -186 4096 205 
Q 3981 320 3981 371 
Q 3981 422 4045 422 
Q 4109 422 4358 284 
Q 4608 147 5018 0 
L 5043 -6 
Q 5114 -6 5197 563 
Q 5414 1990 5414 3437 
L 5094 3418 
Q 4819 2144 4326 1293 
Q 3834 442 3091 -102 
Q 3085 -109 3014 -153 
Q 2944 -198 2902 -198 
Q 2861 -198 2861 -147 
Q 2861 -96 2976 26 
Q 4301 1434 4666 3392 
L 4269 3360 
Q 3846 2080 3232 1408 
Q 2989 1146 2829 1037 
L 2675 934 
Q 2598 883 2553 883 
Q 2509 883 2509 934 
Q 2509 986 2618 1101 
Q 3418 1997 3827 3334 
L 3360 3302 
Q 3034 2758 2643 2381 
Q 2477 2221 2419 2221 
Q 2362 2221 2362 2253 
Q 2362 2323 2531 2553 
Q 2701 2784 2905 3168 
Q 3110 3552 3328 4096 
Q 3546 4640 3546 4858 
L 3546 4890 
z
M 2355 3546 
L 2502 3584 
Q 2650 3584 2784 3418 
Q 2835 3360 2835 3322 
Q 2835 3232 2694 3219 
L 1978 3174 
L 1958 1882 
Q 2387 2054 2595 2150 
Q 2803 2246 2860 2246 
Q 2918 2246 2918 2214 
Q 2918 2106 2176 1690 
Q 2022 1600 1958 1568 
L 1933 -416 
Q 1933 -563 1805 -563 
Q 1722 -563 1616 -486 
Q 1510 -410 1510 -314 
L 1510 -282 
Q 1510 -262 1529 -144 
Q 1549 -26 1562 563 
L 1568 1370 
Q 800 992 640 992 
Q 576 992 512 1024 
Q 333 1094 243 1267 
Q 237 1293 227 1312 
Q 218 1331 218 1338 
Q 218 1376 275 1376 
L 333 1376 
Q 557 1376 867 1478 
Q 1178 1581 1574 1728 
L 1587 3149 
L 1094 3123 
Q 902 2637 704 2355 
Q 506 2074 435 2074 
Q 397 2074 397 2138 
Q 397 2202 512 2477 
Q 627 2752 736 3142 
Q 845 3533 896 3808 
Q 947 4083 947 4147 
L 922 4314 
Q 922 4371 973 4371 
Q 1024 4371 1126 4326 
Q 1389 4218 1389 4090 
L 1389 4070 
Q 1312 3763 1216 3469 
L 1587 3494 
L 1600 4602 
Q 1600 4819 1561 4902 
Q 1523 4986 1523 5005 
Q 1523 5050 1574 5050 
Q 1626 5050 1773 5008 
Q 1920 4966 1958 4921 
Q 1997 4877 1997 4787 
L 1984 3520 
L 2246 3533 
Q 2298 3539 2355 3546 
z
" transform="scale(0.015625)"/>
     </defs>
     <use xlink:href="#LXGWWenKai-Regular-629b"/>
     <use xlink:href="#LXGWWenKai-Regular-7269" transform="translate(99.999985 0)"/>
     <use xlink:href="#LXGWWenKai-Regular-7ebf" transform="translate(199.999969 0)"/>
     <use xlink:href="#LXGWWenKai-Regular-5207" transform="translate(299.999954 0)"/>
     <use xlink:href="#LXGWWenKai-Regular-6cd5" transform="translate(399.999939 0)"/>
    </g>
   </g>
  </g>
  <g id="axes_8">
   <g id="FillBetweenPolyCollection_1">
    <defs>
     <path id="mde0856ffee" d="M 565.530506 -317.6415 
L 565.530506 -290.1987 
L 566.538506 -287.803936 
L 567.546506 -285.458045 
L 568.554506 -283.161027 
L 569.562506 -280.912882 
L 570.570506 -278.713609 
L 571.578506 -276.563209 
L 572.586506 -274.461682 
L 573.594506 -272.409027 
L 574.602506 -270.405245 
L 575.610506 -268.450336 
L 576.618506 -266.5443 
L 577.626506 -264.687136 
L 578.634506 -262.878845 
L 579.642506 -261.119427 
L 580.650506 -259.408882 
L 581.658506 -257.747209 
L 582.666506 -256.134409 
L 583.674506 -254.570482 
L 584.682506 -253.055427 
L 585.690506 -251.589245 
L 586.698506 -250.171936 
L 587.706506 -248.8035 
L 588.714506 -247.483936 
L 589.722506 -246.213245 
L 590.730506 -244.991427 
L 591.738506 -243.818482 
L 592.746506 -242.694409 
L 593.754506 -241.619209 
L 594.762506 -240.592882 
L 595.770506 -239.615427 
L 596.778506 -238.686845 
L 597.786506 -237.807136 
L 598.794506 -236.9763 
L 599.802506 -236.194336 
L 600.810506 -235.461245 
L 601.818506 -234.777027 
L 602.826506 -234.141682 
L 603.834506 -233.555209 
L 604.842506 -233.017609 
L 605.850506 -232.528882 
L 606.858506 -232.089027 
L 607.866506 -231.698045 
L 608.874506 -231.355936 
L 609.882506 -231.0627 
L 610.890506 -230.818336 
L 611.898506 -230.622845 
L 612.906506 -230.476227 
L 613.914506 -230.378482 
L 614.922506 -230.329609 
L 615.930506 -230.329609 
L 616.938506 -230.378482 
L 617.946506 -230.476227 
L 618.954506 -230.622845 
L 619.962506 -230.818336 
L 620.970506 -231.0627 
L 621.978506 -231.355936 
L 622.986506 -231.698045 
L 623.994506 -232.089027 
L 625.002506 -232.528882 
L 626.010506 -233.017609 
L 627.018506 -233.555209 
L 628.026506 -234.141682 
L 629.034506 -234.777027 
L 630.042506 -235.461245 
L 631.050506 -236.194336 
L 632.058506 -236.9763 
L 633.066506 -237.807136 
L 634.074506 -238.686845 
L 635.082506 -239.615427 
L 636.090506 -240.592882 
L 637.098506 -241.619209 
L 638.106506 -242.694409 
L 639.114506 -243.818482 
L 640.122506 -244.991427 
L 641.130506 -246.213245 
L 642.138506 -247.483936 
L 643.146506 -248.8035 
L 644.154506 -250.171936 
L 645.162506 -251.589245 
L 646.170506 -253.055427 
L 647.178506 -254.570482 
L 648.186506 -256.134409 
L 649.194506 -257.747209 
L 650.202506 -259.408882 
L 651.210506 -261.119427 
L 652.218506 -262.878845 
L 653.226506 -264.687136 
L 654.234506 -266.5443 
L 655.242506 -268.450336 
L 656.250506 -270.405245 
L 657.258506 -272.409027 
L 658.266506 -274.461682 
L 659.274506 -276.563209 
L 660.282506 -278.713609 
L 661.290506 -280.912882 
L 662.298506 -283.161027 
L 663.306506 -285.458045 
L 664.314506 -287.803936 
L 665.322506 -290.1987 
L 665.322506 -317.6415 
L 665.322506 -317.6415 
L 664.314506 -317.6415 
L 663.306506 -317.6415 
L 662.298506 -317.6415 
L 661.290506 -317.6415 
L 660.282506 -317.6415 
L 659.274506 -317.6415 
L 658.266506 -317.6415 
L 657.258506 -317.6415 
L 656.250506 -317.6415 
L 655.242506 -317.6415 
L 654.234506 -317.6415 
L 653.226506 -317.6415 
L 652.218506 -317.6415 
L 651.210506 -317.6415 
L 650.202506 -317.6415 
L 649.194506 -317.6415 
L 648.186506 -317.6415 
L 647.178506 -317.6415 
L 646.170506 -317.6415 
L 645.162506 -317.6415 
L 644.154506 -317.6415 
L 643.146506 -317.6415 
L 642.138506 -317.6415 
L 641.130506 -317.6415 
L 640.122506 -317.6415 
L 639.114506 -317.6415 
L 638.106506 -317.6415 
L 637.098506 -317.6415 
L 636.090506 -317.6415 
L 635.082506 -317.6415 
L 634.074506 -317.6415 
L 633.066506 -317.6415 
L 632.058506 -317.6415 
L 631.050506 -317.6415 
L 630.042506 -317.6415 
L 629.034506 -317.6415 
L 628.026506 -317.6415 
L 627.018506 -317.6415 
L 626.010506 -317.6415 
L 625.002506 -317.6415 
L 623.994506 -317.6415 
L 622.986506 -317.6415 
L 621.978506 -317.6415 
L 620.970506 -317.6415 
L 619.962506 -317.6415 
L 618.954506 -317.6415 
L 617.946506 -317.6415 
L 616.938506 -317.6415 
L 615.930506 -317.6415 
L 614.922506 -317.6415 
L 613.914506 -317.6415 
L 612.906506 -317.6415 
L 611.898506 -317.6415 
L 610.890506 -317.6415 
L 609.882506 -317.6415 
L 608.874506 -317.6415 
L 607.866506 -317.6415 
L 606.858506 -317.6415 
L 605.850506 -317.6415 
L 604.842506 -317.6415 
L 603.834506 -317.6415 
L 602.826506 -317.6415 
L 601.818506 -317.6415 
L 600.810506 -317.6415 
L 599.802506 -317.6415 
L 598.794506 -317.6415 
L 597.786506 -317.6415 
L 596.778506 -317.6415 
L 595.770506 -317.6415 
L 594.762506 -317.6415 
L 593.754506 -317.6415 
L 592.746506 -317.6415 
L 591.738506 -317.6415 
L 590.730506 -317.6415 
L 589.722506 -317.6415 
L 588.714506 -317.6415 
L 587.706506 -317.6415 
L 586.698506 -317.6415 
L 585.690506 -317.6415 
L 584.682506 -317.6415 
L 583.674506 -317.6415 
L 582.666506 -317.6415 
L 581.658506 -317.6415 
L 580.650506 -317.6415 
L 579.642506 -317.6415 
L 578.634506 -317.6415 
L 577.626506 -317.6415 
L 576.618506 -317.6415 
L 575.610506 -317.6415 
L 574.602506 -317.6415 
L 573.594506 -317.6415 
L 572.586506 -317.6415 
L 571.578506 -317.6415 
L 570.570506 -317.6415 
L 569.562506 -317.6415 
L 568.554506 -317.6415 
L 567.546506 -317.6415 
L 566.538506 -317.6415 
L 565.530506 -317.6415 
z
" style="stroke: #ccebc5; stroke-opacity: 0.8"/>
    </defs>
    <g clip-path="url(#p89d6ccf629)">
     <use xlink:href="#mde0856ffee" x="0" y="648" style="fill: #ccebc5; fill-opacity: 0.8; stroke: #ccebc5; stroke-opacity: 0.8"/>
    </g>
   </g>
   <g id="line2d_7">
    <path d="M 565.530506 357.8013 
L 566.538506 360.196064 
L 567.546506 362.541955 
L 568.554506 364.838973 
L 569.562506 367.087118 
L 570.570506 369.286391 
L 571.578506 371.436791 
L 572.586506 373.538318 
L 573.594506 375.590973 
L 574.602506 377.594755 
L 575.610506 379.549664 
L 576.618506 381.4557 
L 577.626506 383.312864 
L 578.634506 385.121155 
L 579.642506 386.880573 
L 580.650506 388.591118 
L 581.658506 390.252791 
L 582.666506 391.865591 
L 583.674506 393.429518 
L 584.682506 394.944573 
L 585.690506 396.410755 
L 586.698506 397.828064 
L 587.706506 399.1965 
L 588.714506 400.516064 
L 589.722506 401.786755 
L 590.730506 403.008573 
L 591.738506 404.181518 
L 592.746506 405.305591 
L 593.754506 406.380791 
L 594.762506 407.407118 
L 595.770506 408.384573 
L 596.778506 409.313155 
L 597.786506 410.192864 
L 598.794506 411.0237 
L 599.802506 411.805664 
L 600.810506 412.538755 
L 601.818506 413.222973 
L 602.826506 413.858318 
L 603.834506 414.444791 
L 604.842506 414.982391 
L 605.850506 415.471118 
L 606.858506 415.910973 
L 607.866506 416.301955 
L 608.874506 416.644064 
L 609.882506 416.9373 
L 610.890506 417.181664 
L 611.898506 417.377155 
L 612.906506 417.523773 
L 613.914506 417.621518 
L 614.922506 417.670391 
L 615.930506 417.670391 
L 616.938506 417.621518 
L 617.946506 417.523773 
L 618.954506 417.377155 
L 619.962506 417.181664 
L 620.970506 416.9373 
L 621.978506 416.644064 
L 622.986506 416.301955 
L 623.994506 415.910973 
L 625.002506 415.471118 
L 626.010506 414.982391 
L 627.018506 414.444791 
L 628.026506 413.858318 
L 629.034506 413.222973 
L 630.042506 412.538755 
L 631.050506 411.805664 
L 632.058506 411.0237 
L 633.066506 410.192864 
L 634.074506 409.313155 
L 635.082506 408.384573 
L 636.090506 407.407118 
L 637.098506 406.380791 
L 638.106506 405.305591 
L 639.114506 404.181518 
L 640.122506 403.008573 
L 641.130506 401.786755 
L 642.138506 400.516064 
L 643.146506 399.1965 
L 644.154506 397.828064 
L 645.162506 396.410755 
L 646.170506 394.944573 
L 647.178506 393.429518 
L 648.186506 391.865591 
L 649.194506 390.252791 
L 650.202506 388.591118 
L 651.210506 386.880573 
L 652.218506 385.121155 
L 653.226506 383.312864 
L 654.234506 381.4557 
L 655.242506 379.549664 
L 656.250506 377.594755 
L 657.258506 375.590973 
L 658.266506 373.538318 
L 659.274506 371.436791 
L 660.282506 369.286391 
L 661.290506 367.087118 
L 662.298506 364.838973 
L 663.306506 362.541955 
L 664.314506 360.196064 
L 665.322506 357.8013 
" clip-path="url(#p89d6ccf629)" style="fill: none; stroke: #111111; stroke-width: 1.2; stroke-linecap: square"/>
   </g>
   <g id="text_10">
    <!-- 抛物线截面 -->
    <g transform="translate(585.426506 442.6245) scale(0.12 -0.12)">
     <use xlink:href="#LXGWWenKai-Regular-629b"/>
     <use xlink:href="#LXGWWenKai-Regular-7269" transform="translate(99.999985 0)"/>
     <use xlink:href="#LXGWWenKai-Regular-7ebf" transform="translate(199.999969 0)"/>
     <use xlink:href="#LXGWWenKai-Regular-622a" transform="translate(299.999954 0)"/>
     <use xlink:href="#LXGWWenKai-Regular-9762" transform="translate(399.999939 0)"/>
    </g>
   </g>
  </g>
  <g id="axes_9">
   <g id="text_11">
    <!-- $\alpha = \theta$ -->
    <g style="fill: #111111" transform="translate(600.351506 533.955) scale(0.15 -0.15)">
     <use xlink:href="#STIXGeneral-Italic-3b1" transform="translate(0 0.203125)"/>
     <use xlink:href="#STIXGeneral-Regular-3d" transform="translate(69.639993 0.203125)"/>
     <use xlink:href="#STIXGeneral-Italic-3b8" transform="translate(152.579974 0.203125)"/>
    </g>
   </g>
  </g>
  <g id="axes_10">
   <g id="patch_8">
    <path d="M 740.625537 127.279012 
L 813.079518 252.772988 
L 885.533499 127.279012 
L 740.625537 127.279012 
z
" clip-path="url(#p02ab273cd3)" style="fill: none; stroke: #636363; stroke-linejoin: miter"/>
   </g>
   <g id="line2d_8">
    <path d="M 813.079518 252.772988 
L 813.079518 127.279012 
" clip-path="url(#p02ab273cd3)" style="fill: none; stroke-dasharray: 2.96,1.28; stroke-dashoffset: 0; stroke: #636363; stroke-opacity: 0.5; stroke-width: 0.8"/>
   </g>
   <g id="line2d_9">
    <path d="M 790.343356 105.173489 
L 835.81568 274.878511 
" clip-path="url(#p02ab273cd3)" style="fill: none; stroke: #252525; stroke-width: 2; stroke-linecap: square"/>
   </g>
   <g id="text_12">
    <!-- 双曲线切法 -->
    <g style="fill: #636363" transform="translate(785.579518 265.322386) scale(0.11 -0.11)">
     <defs>
      <path id="LXGWWenKai-Regular-53cc" d="M 5184 4570 
L 5267 4576 
Q 5434 4576 5510 4416 
Q 5536 4365 5536 4333 
Q 5536 4301 5507 4262 
Q 5478 4224 5472 4198 
Q 5146 2931 4518 1811 
Q 5216 646 6221 -173 
Q 6285 -224 6285 -259 
Q 6285 -294 6182 -403 
Q 6080 -512 5955 -512 
Q 5830 -512 5305 83 
Q 4781 678 4294 1446 
Q 3757 646 3104 64 
Q 2822 -192 2624 -329 
Q 2426 -467 2368 -467 
Q 2310 -467 2310 -406 
Q 2310 -346 2432 -224 
Q 3411 698 4070 1824 
Q 3552 2739 3296 3507 
Q 3238 3680 3238 3731 
Q 3238 3782 3331 3824 
Q 3424 3866 3475 3866 
Q 3571 3866 3610 3744 
Q 3891 2950 4288 2227 
Q 4749 3110 5005 4205 
L 3450 4090 
Q 3322 4077 3222 4077 
Q 3123 4077 3046 4166 
Q 2970 4256 2931 4352 
L 2899 4442 
Q 2899 4480 2950 4480 
L 2982 4480 
L 3245 4454 
L 3302 4454 
L 5184 4570 
z
M 627 4301 
L 890 4275 
L 947 4275 
L 2470 4365 
L 2541 4365 
Q 2630 4365 2723 4301 
Q 2816 4237 2816 4173 
Q 2816 4109 2790 4070 
Q 2765 4032 2701 3725 
Q 2534 2925 2176 2118 
Q 2598 1594 3040 966 
Q 3117 870 3117 809 
Q 3117 749 3062 694 
Q 3008 640 2944 608 
Q 2880 576 2835 576 
Q 2790 576 2733 672 
Q 2426 1158 1990 1741 
Q 1491 838 870 205 
Q 621 -51 457 -176 
Q 294 -301 256 -301 
Q 218 -301 218 -240 
Q 218 -179 294 -102 
Q 1158 851 1734 2061 
Q 1286 2688 915 3110 
Q 851 3194 851 3251 
Q 851 3309 940 3373 
Q 1030 3437 1075 3437 
Q 1158 3437 1894 2451 
Q 2182 3174 2298 4000 
L 1094 3910 
Q 1037 3904 992 3904 
L 909 3904 
Q 781 3904 720 3965 
Q 659 4026 601 4128 
Q 544 4230 544 4265 
Q 544 4301 595 4301 
L 627 4301 
z
" transform="scale(0.015625)"/>
      <path id="LXGWWenKai-Regular-66f2" d="M 5350 397 
Q 5549 173 5549 102 
Q 5549 32 5485 22 
Q 5421 13 5331 6 
L 1427 -96 
L 1440 -307 
L 1440 -326 
Q 1440 -474 1325 -474 
Q 1197 -474 1101 -387 
Q 1005 -301 1005 -186 
Q 1005 -166 1005 -147 
Q 1005 -128 1011 -109 
Q 1030 64 1030 237 
L 1030 314 
L 915 2925 
Q 896 3162 841 3267 
Q 787 3373 787 3408 
Q 787 3443 864 3443 
Q 941 3443 1293 3309 
L 2285 3360 
L 2259 4448 
Q 2259 4582 2182 4675 
Q 2106 4768 2106 4806 
Q 2106 4845 2195 4845 
Q 2285 4845 2432 4800 
Q 2579 4755 2614 4713 
Q 2650 4672 2650 4589 
L 2675 3386 
L 3680 3437 
L 3706 4589 
Q 3706 4749 3603 4877 
Q 3565 4928 3565 4957 
Q 3565 4986 3657 4986 
Q 3750 4986 3891 4934 
Q 4032 4883 4067 4838 
Q 4102 4794 4102 4710 
L 4064 3456 
L 5242 3520 
L 5306 3520 
Q 5408 3520 5504 3440 
Q 5600 3360 5600 3296 
Q 5600 3232 5584 3206 
Q 5568 3181 5562 3149 
L 5350 397 
z
M 5165 3136 
L 4058 3085 
L 4026 1984 
L 5088 2035 
L 5165 3136 
z
M 3667 3066 
L 2682 3014 
L 2701 1926 
L 3648 1965 
L 3667 3066 
z
M 2291 2995 
L 1293 2950 
L 1344 1862 
L 2317 1907 
L 2291 2995 
z
M 5062 1670 
L 4019 1626 
L 3981 352 
L 4966 384 
L 5062 1670 
z
M 3635 1613 
L 2707 1574 
L 2726 314 
L 3610 339 
L 3635 1613 
z
M 2330 1555 
L 1357 1517 
L 1414 269 
L 2355 301 
L 2330 1555 
z
" transform="scale(0.015625)"/>
     </defs>
     <use xlink:href="#LXGWWenKai-Regular-53cc"/>
     <use xlink:href="#LXGWWenKai-Regular-66f2" transform="translate(99.999985 0)"/>
     <use xlink:href="#LXGWWenKai-Regular-7ebf" transform="translate(199.999969 0)"/>
     <use xlink:href="#LXGWWenKai-Regular-5207" transform="translate(299.999954 0)"/>
     <use xlink:href="#LXGWWenKai-Regular-6cd5" transform="translate(399.999939 0)"/>
    </g>
   </g>
  </g>
  <g id="axes_11">
   <g id="FillBetweenPolyCollection_2">
    <defs>
     <path id="m614f1d74dd" d="M 750.709518 -317.6415 
L 750.709518 -268.632 
L 751.969518 -267.745591 
L 753.229518 -266.868459 
L 754.489518 -266.00089 
L 755.749518 -265.143176 
L 757.009518 -264.295621 
L 758.269518 -263.458536 
L 759.529518 -262.632241 
L 760.789518 -261.817063 
L 762.049518 -261.013341 
L 763.309518 -260.221421 
L 764.569518 -259.441657 
L 765.829518 -258.674413 
L 767.089518 -257.920061 
L 768.349518 -257.178981 
L 769.609518 -256.451561 
L 770.869518 -255.738196 
L 772.129518 -255.039291 
L 773.389518 -254.355255 
L 774.649518 -253.686505 
L 775.909518 -253.033463 
L 777.169518 -252.396556 
L 778.429518 -251.776217 
L 779.689518 -251.172881 
L 780.949518 -250.586988 
L 782.209518 -250.018978 
L 783.469518 -249.469292 
L 784.729518 -248.938371 
L 785.989518 -248.426654 
L 787.249518 -247.93458 
L 788.509518 -247.462579 
L 789.769518 -247.011079 
L 791.029518 -246.5805 
L 792.289518 -246.171253 
L 793.549518 -245.783738 
L 794.809518 -245.418344 
L 796.069518 -245.075447 
L 797.329518 -244.755405 
L 798.589518 -244.458563 
L 799.849518 -244.185243 
L 801.109518 -243.93575 
L 802.369518 -243.710365 
L 803.629518 -243.509347 
L 804.889518 -243.332929 
L 806.149518 -243.181319 
L 807.409518 -243.054697 
L 808.669518 -242.953215 
L 809.929518 -242.876995 
L 811.189518 -242.82613 
L 812.449518 -242.800682 
L 813.709518 -242.800682 
L 814.969518 -242.82613 
L 816.229518 -242.876995 
L 817.489518 -242.953215 
L 818.749518 -243.054697 
L 820.009518 -243.181319 
L 821.269518 -243.332929 
L 822.529518 -243.509347 
L 823.789518 -243.710365 
L 825.049518 -243.93575 
L 826.309518 -244.185243 
L 827.569518 -244.458563 
L 828.829518 -244.755405 
L 830.089518 -245.075447 
L 831.349518 -245.418344 
L 832.609518 -245.783738 
L 833.869518 -246.171253 
L 835.129518 -246.5805 
L 836.389518 -247.011079 
L 837.649518 -247.462579 
L 838.909518 -247.93458 
L 840.169518 -248.426654 
L 841.429518 -248.938371 
L 842.689518 -249.469292 
L 843.949518 -250.018978 
L 845.209518 -250.586988 
L 846.469518 -251.172881 
L 847.729518 -251.776217 
L 848.989518 -252.396556 
L 850.249518 -253.033463 
L 851.509518 -253.686505 
L 852.769518 -254.355255 
L 854.029518 -255.039291 
L 855.289518 -255.738196 
L 856.549518 -256.451561 
L 857.809518 -257.178981 
L 859.069518 -257.920061 
L 860.329518 -258.674413 
L 861.589518 -259.441657 
L 862.849518 -260.221421 
L 864.109518 -261.013341 
L 865.369518 -261.817063 
L 866.629518 -262.632241 
L 867.889518 -263.458536 
L 869.149518 -264.295621 
L 870.409518 -265.143176 
L 871.669518 -266.00089 
L 872.929518 -266.868459 
L 874.189518 -267.745591 
L 875.449518 -268.632 
L 875.449518 -317.6415 
L 875.449518 -317.6415 
L 874.189518 -317.6415 
L 872.929518 -317.6415 
L 871.669518 -317.6415 
L 870.409518 -317.6415 
L 869.149518 -317.6415 
L 867.889518 -317.6415 
L 866.629518 -317.6415 
L 865.369518 -317.6415 
L 864.109518 -317.6415 
L 862.849518 -317.6415 
L 861.589518 -317.6415 
L 860.329518 -317.6415 
L 859.069518 -317.6415 
L 857.809518 -317.6415 
L 856.549518 -317.6415 
L 855.289518 -317.6415 
L 854.029518 -317.6415 
L 852.769518 -317.6415 
L 851.509518 -317.6415 
L 850.249518 -317.6415 
L 848.989518 -317.6415 
L 847.729518 -317.6415 
L 846.469518 -317.6415 
L 845.209518 -317.6415 
L 843.949518 -317.6415 
L 842.689518 -317.6415 
L 841.429518 -317.6415 
L 840.169518 -317.6415 
L 838.909518 -317.6415 
L 837.649518 -317.6415 
L 836.389518 -317.6415 
L 835.129518 -317.6415 
L 833.869518 -317.6415 
L 832.609518 -317.6415 
L 831.349518 -317.6415 
L 830.089518 -317.6415 
L 828.829518 -317.6415 
L 827.569518 -317.6415 
L 826.309518 -317.6415 
L 825.049518 -317.6415 
L 823.789518 -317.6415 
L 822.529518 -317.6415 
L 821.269518 -317.6415 
L 820.009518 -317.6415 
L 818.749518 -317.6415 
L 817.489518 -317.6415 
L 816.229518 -317.6415 
L 814.969518 -317.6415 
L 813.709518 -317.6415 
L 812.449518 -317.6415 
L 811.189518 -317.6415 
L 809.929518 -317.6415 
L 808.669518 -317.6415 
L 807.409518 -317.6415 
L 806.149518 -317.6415 
L 804.889518 -317.6415 
L 803.629518 -317.6415 
L 802.369518 -317.6415 
L 801.109518 -317.6415 
L 799.849518 -317.6415 
L 798.589518 -317.6415 
L 797.329518 -317.6415 
L 796.069518 -317.6415 
L 794.809518 -317.6415 
L 793.549518 -317.6415 
L 792.289518 -317.6415 
L 791.029518 -317.6415 
L 789.769518 -317.6415 
L 788.509518 -317.6415 
L 787.249518 -317.6415 
L 785.989518 -317.6415 
L 784.729518 -317.6415 
L 783.469518 -317.6415 
L 782.209518 -317.6415 
L 780.949518 -317.6415 
L 779.689518 -317.6415 
L 778.429518 -317.6415 
L 777.169518 -317.6415 
L 775.909518 -317.6415 
L 774.649518 -317.6415 
L 773.389518 -317.6415 
L 772.129518 -317.6415 
L 770.869518 -317.6415 
L 769.609518 -317.6415 
L 768.349518 -317.6415 
L 767.089518 -317.6415 
L 765.829518 -317.6415 
L 764.569518 -317.6415 
L 763.309518 -317.6415 
L 762.049518 -317.6415 
L 760.789518 -317.6415 
L 759.529518 -317.6415 
L 758.269518 -317.6415 
L 757.009518 -317.6415 
L 755.749518 -317.6415 
L 754.489518 -317.6415 
L 753.229518 -317.6415 
L 751.969518 -317.6415 
L 750.709518 -317.6415 
z
" style="stroke: #decbe4; stroke-opacity: 0.8"/>
    </defs>
    <g clip-path="url(#p9f4fcfe47e)">
     <use xlink:href="#m614f1d74dd" x="0" y="648" style="fill: #decbe4; fill-opacity: 0.8; stroke: #decbe4; stroke-opacity: 0.8"/>
    </g>
   </g>
   <g id="line2d_10">
    <path d="M 750.709518 379.368 
L 751.969518 380.254409 
L 753.229518 381.131541 
L 754.489518 381.99911 
L 755.749518 382.856824 
L 757.009518 383.704379 
L 758.269518 384.541464 
L 759.529518 385.367759 
L 760.789518 386.182937 
L 762.049518 386.986659 
L 763.309518 387.778579 
L 764.569518 388.558343 
L 765.829518 389.325587 
L 767.089518 390.079939 
L 768.349518 390.821019 
L 769.609518 391.548439 
L 770.869518 392.261804 
L 772.129518 392.960709 
L 773.389518 393.644745 
L 774.649518 394.313495 
L 775.909518 394.966537 
L 777.169518 395.603444 
L 778.429518 396.223783 
L 779.689518 396.827119 
L 780.949518 397.413012 
L 782.209518 397.981022 
L 783.469518 398.530708 
L 784.729518 399.061629 
L 785.989518 399.573346 
L 787.249518 400.06542 
L 788.509518 400.537421 
L 789.769518 400.988921 
L 791.029518 401.4195 
L 792.289518 401.828747 
L 793.549518 402.216262 
L 794.809518 402.581656 
L 796.069518 402.924553 
L 797.329518 403.244595 
L 798.589518 403.541437 
L 799.849518 403.814757 
L 801.109518 404.06425 
L 802.369518 404.289635 
L 803.629518 404.490653 
L 804.889518 404.667071 
L 806.149518 404.818681 
L 807.409518 404.945303 
L 808.669518 405.046785 
L 809.929518 405.123005 
L 811.189518 405.17387 
L 812.449518 405.199318 
L 813.709518 405.199318 
L 814.969518 405.17387 
L 816.229518 405.123005 
L 817.489518 405.046785 
L 818.749518 404.945303 
L 820.009518 404.818681 
L 821.269518 404.667071 
L 822.529518 404.490653 
L 823.789518 404.289635 
L 825.049518 404.06425 
L 826.309518 403.814757 
L 827.569518 403.541437 
L 828.829518 403.244595 
L 830.089518 402.924553 
L 831.349518 402.581656 
L 832.609518 402.216262 
L 833.869518 401.828747 
L 835.129518 401.4195 
L 836.389518 400.988921 
L 837.649518 400.537421 
L 838.909518 400.06542 
L 840.169518 399.573346 
L 841.429518 399.061629 
L 842.689518 398.530708 
L 843.949518 397.981022 
L 845.209518 397.413012 
L 846.469518 396.827119 
L 847.729518 396.223783 
L 848.989518 395.603444 
L 850.249518 394.966537 
L 851.509518 394.313495 
L 852.769518 393.644745 
L 854.029518 392.960709 
L 855.289518 392.261804 
L 856.549518 391.548439 
L 857.809518 390.821019 
L 859.069518 390.079939 
L 860.329518 389.325587 
L 861.589518 388.558343 
L 862.849518 387.778579 
L 864.109518 386.986659 
L 865.369518 386.182937 
L 866.629518 385.367759 
L 867.889518 384.541464 
L 869.149518 383.704379 
L 870.409518 382.856824 
L 871.669518 381.99911 
L 872.929518 381.131541 
L 874.189518 380.254409 
L 875.449518 379.368 
" clip-path="url(#p9f4fcfe47e)" style="fill: none; stroke: #111111; stroke-width: 1.2; stroke-linecap: square"/>
   </g>
   <g id="text_13">
    <!-- 双曲线截面 -->
    <g transform="translate(783.079518 442.6245) scale(0.12 -0.12)">
     <use xlink:href="#LXGWWenKai-Regular-53cc"/>
     <use xlink:href="#LXGWWenKai-Regular-66f2" transform="translate(99.999985 0)"/>
     <use xlink:href="#LXGWWenKai-Regular-7ebf" transform="translate(199.999969 0)"/>
     <use xlink:href="#LXGWWenKai-Regular-622a" transform="translate(299.999954 0)"/>
     <use xlink:href="#LXGWWenKai-Regular-9762" transform="translate(399.999939 0)"/>
    </g>
   </g>
  </g>
  <g id="axes_12">
   <g id="text_14">
    <!-- $\alpha &lt; \theta$ -->
    <g style="fill: #111111" transform="translate(798.004518 533.955) scale(0.15 -0.15)">
     <use xlink:href="#STIXGeneral-Italic-3b1" transform="translate(0 0.203125)"/>
     <use xlink:href="#STIXGeneral-Regular-3c" transform="translate(69.639993 0.203125)"/>
     <use xlink:href="#STIXGeneral-Italic-3b8" transform="translate(152.579974 0.203125)"/>
    </g>
   </g>
  </g>
 </g>
 <defs>
  <clipPath id="p532eb052af">
   <rect x="126" y="95.905518" width="188.240964" height="188.240964"/>
  </clipPath>
  <clipPath id="pee2a79c1ee">
   <rect x="145.276482" y="317.8845" width="149.688" height="149.688"/>
  </clipPath>
  <clipPath id="p14d025c4d3">
   <rect x="323.653012" y="95.905518" width="188.240964" height="188.240964"/>
  </clipPath>
  <clipPath id="pcb2dc2744e">
   <rect x="342.929494" y="317.8845" width="149.688" height="149.688"/>
  </clipPath>
  <clipPath id="pd4596c31bd">
   <rect x="521.306024" y="95.905518" width="188.240964" height="188.240964"/>
  </clipPath>
  <clipPath id="p89d6ccf629">
   <rect x="540.582506" y="317.8845" width="149.688" height="149.688"/>
  </clipPath>
  <clipPath id="p02ab273cd3">
   <rect x="718.959036" y="95.905518" width="188.240964" height="188.240964"/>
  </clipPath>
  <clipPath id="p9f4fcfe47e">
   <rect x="738.235518" y="317.8845" width="149.688" height="149.688"/>
  </clipPath>
 </defs>
</svg>
