<?xml version="1.0" encoding="utf-8" standalone="no"?>
<!DOCTYPE svg PUBLIC "-//W3C//DTD SVG 1.1//EN"
  "http://www.w3.org/Graphics/SVG/1.1/DTD/svg11.dtd">
<svg xmlns:xlink="http://www.w3.org/1999/xlink" width="1080pt" height="432pt" viewBox="0 0 1080 432" xmlns="http://www.w3.org/2000/svg" version="1.1">
 <metadata>
  <rdf:RDF xmlns:dc="http://purl.org/dc/elements/1.1/" xmlns:cc="http://creativecommons.org/ns#" xmlns:rdf="http://www.w3.org/1999/02/22-rdf-syntax-ns#">
   <cc:Work>
    <dc:type rdf:resource="http://purl.org/dc/dcmitype/StillImage"/>
    <dc:date>2026-02-12T10:51:24.548661</dc:date>
    <dc:format>image/svg+xml</dc:format>
    <dc:creator>
     <cc:Agent>
      <dc:title>Matplotlib v3.10.8, https://matplotlib.org/</dc:title>
     </cc:Agent>
    </dc:creator>
   </cc:Work>
  </rdf:RDF>
 </metadata>
 <defs>
  <style type="text/css">*{stroke-linejoin: round; stroke-linecap: butt}</style>
 </defs>
 <g id="figure_1">
  <g id="patch_1">
   <path d="M 0 432 
L 1080 432 
L 1080 0 
L 0 0 
z
" style="fill: #fefdf5"/>
  </g>
  <g id="axes_1">
   <g id="patch_2">
    <path d="M 144 254.16 
C 153.547312 254.16 162.704875 250.366813 169.455844 243.615844 
C 176.206813 236.864875 180 227.707312 180 218.16 
C 180 208.612688 176.206813 199.455125 169.455844 192.704156 
C 162.704875 185.953187 153.547312 182.16 144 182.16 
C 134.452688 182.16 125.295125 185.953187 118.544156 192.704156 
C 111.793187 199.455125 108 208.612688 108 218.16 
C 108 227.707312 111.793187 236.864875 118.544156 243.615844 
C 125.295125 250.366813 134.452688 254.16 144 254.16 
L 144 254.16 
z
" clip-path="url(#pefa228960a)" style="fill: none; stroke: #111111; stroke-width: 1.2; stroke-linejoin: miter"/>
   </g>
   <g id="patch_3">
    <path d="M 244.8 246.96 
C 252.437849 246.96 259.7639 243.92545 265.164675 238.524675 
C 270.56545 233.1239 273.6 225.797849 273.6 218.16 
C 273.6 210.522151 270.56545 203.1961 265.164675 197.795325 
C 259.7639 192.39455 252.437849 189.36 244.8 189.36 
C 237.162151 189.36 229.8361 192.39455 224.435325 197.795325 
C 219.03455 203.1961 216 210.522151 216 218.16 
C 216 225.797849 219.03455 233.1239 224.435325 238.524675 
C 229.8361 243.92545 237.162151 246.96 244.8 246.96 
L 244.8 246.96 
z
" clip-path="url(#pefa228960a)" style="fill: none; stroke: #111111; stroke-width: 1.2; stroke-linejoin: miter"/>
   </g>
   <g id="text_1">
    <!-- ① 外离 -->
    <g style="fill: #111111" transform="translate(120.55 153.36) scale(0.14 -0.14)">
     <defs>
      <path id="LXGWWenKai-Regular-2460" d="M 3104 602 
L 3117 1056 
L 3117 3654 
Q 2861 3514 2547 3430 
L 2515 3430 
Q 2438 3430 2358 3472 
Q 2278 3514 2278 3552 
Q 2278 3590 2336 3616 
Q 2874 3821 3142 4115 
Q 3213 4192 3273 4192 
Q 3334 4192 3430 4131 
Q 3526 4070 3526 3994 
L 3494 3622 
L 3494 1088 
Q 3494 717 3507 512 
Q 3507 454 3408 454 
Q 3309 454 3206 496 
Q 3104 538 3104 602 
z
M 5744 1280 
Q 5958 1779 5958 2348 
Q 5958 2918 5744 3417 
Q 5530 3917 5149 4297 
Q 4768 4678 4269 4892 
Q 3770 5107 3200 5107 
Q 2630 5107 2131 4892 
Q 1632 4678 1251 4297 
Q 870 3917 656 3417 
Q 442 2918 442 2348 
Q 442 1779 656 1280 
Q 870 781 1251 403 
Q 1632 26 2131 -188 
Q 2630 -403 3200 -403 
Q 3770 -403 4269 -188 
Q 4768 26 5149 403 
Q 5530 781 5744 1280 
z
M 6032 3539 
Q 6272 2982 6272 2348 
Q 6272 1715 6032 1158 
Q 5792 602 5369 179 
Q 4947 -243 4390 -480 
Q 3834 -717 3200 -717 
Q 2566 -717 2009 -480 
Q 1453 -243 1030 179 
Q 608 602 368 1158 
Q 128 1715 128 2348 
Q 128 2982 368 3539 
Q 608 4096 1030 4518 
Q 1453 4941 2009 5181 
Q 2566 5421 3200 5421 
Q 3834 5421 4390 5181 
Q 4947 4941 5369 4518 
Q 5792 4096 6032 3539 
z
" transform="scale(0.015625)"/>
      <path id="LXGWWenKai-Regular-20" transform="scale(0.015625)"/>
      <path id="LXGWWenKai-Regular-5916" d="M 3898 4838 
Q 3898 4998 3802 5146 
Q 3782 5178 3782 5200 
Q 3782 5222 3859 5222 
Q 3936 5222 4054 5184 
Q 4173 5146 4243 5098 
Q 4314 5050 4314 4973 
L 4314 3181 
Q 4371 3245 4412 3245 
Q 4454 3245 4880 2985 
Q 5306 2726 6029 2144 
Q 6125 2067 6125 2016 
Q 6125 1965 6093 1894 
Q 5997 1696 5888 1696 
Q 5850 1696 5786 1747 
Q 5005 2438 4314 2880 
L 4320 -531 
Q 4320 -646 4195 -646 
Q 4070 -646 3958 -563 
Q 3846 -480 3846 -429 
Q 3846 -378 3875 -256 
Q 3904 -134 3904 96 
L 3898 4838 
z
M 1600 2765 
Q 1728 2765 2304 2093 
Q 2669 2790 2925 3584 
L 1805 3520 
Q 1536 3002 1257 2621 
Q 979 2240 771 2032 
Q 563 1824 512 1824 
Q 461 1824 461 1888 
Q 461 1952 694 2275 
Q 928 2598 1181 3091 
Q 1434 3584 1654 4160 
Q 1875 4736 1875 4979 
L 1869 5062 
Q 1869 5133 1920 5133 
Q 1971 5133 2070 5081 
Q 2170 5030 2250 4953 
Q 2330 4877 2330 4826 
Q 2330 4646 1984 3885 
L 3085 3955 
L 3130 3955 
Q 3258 3955 3350 3872 
Q 3443 3789 3443 3721 
Q 3443 3654 3404 3600 
Q 3366 3546 3354 3514 
Q 2784 1786 1798 691 
Q 1280 115 550 -384 
Q 422 -474 364 -474 
Q 307 -474 307 -416 
Q 307 -358 442 -243 
Q 1498 698 2112 1754 
Q 1837 2118 1434 2477 
Q 1395 2515 1395 2560 
Q 1395 2605 1465 2685 
Q 1536 2765 1600 2765 
z
" transform="scale(0.015625)"/>
      <path id="LXGWWenKai-Regular-79bb" d="M 1158 4102 
L 1024 4096 
Q 909 4096 816 4157 
Q 723 4218 691 4320 
L 666 4422 
Q 666 4461 710 4461 
Q 730 4461 800 4441 
Q 870 4422 979 4422 
L 1030 4422 
L 2995 4538 
L 2989 4877 
Q 2989 5030 2906 5158 
Q 2886 5197 2886 5222 
Q 2886 5274 2963 5274 
Q 3040 5274 3190 5222 
Q 3341 5171 3376 5132 
Q 3411 5094 3411 5024 
L 3405 4557 
L 5152 4659 
Q 5274 4672 5347 4697 
Q 5421 4723 5469 4723 
Q 5517 4723 5638 4624 
Q 5760 4525 5760 4464 
Q 5760 4403 5718 4387 
Q 5677 4371 5613 4365 
L 1158 4102 
z
M 2144 3782 
Q 2144 3802 2153 3824 
Q 2163 3846 2185 3900 
Q 2208 3955 2285 3955 
Q 2362 3955 3270 3642 
Q 3571 3846 3654 3968 
Q 3738 4090 3760 4144 
Q 3782 4198 3833 4198 
Q 3885 4198 3955 4147 
Q 4141 4006 4141 3910 
Q 4141 3885 4109 3853 
Q 3936 3712 3648 3501 
L 4262 3270 
Q 4384 3226 4384 3152 
Q 4384 3078 4333 2988 
Q 4282 2899 4237 2899 
Q 4192 2899 3993 3004 
Q 3795 3110 3315 3302 
Q 2803 3014 2438 2896 
Q 2074 2778 2006 2778 
Q 1939 2778 1939 2822 
Q 1939 2886 2138 2982 
Q 2515 3149 2970 3430 
Q 2726 3533 2246 3674 
Q 2144 3706 2144 3782 
z
M 1645 685 
Q 1798 659 1888 659 
Q 1978 659 2032 665 
Q 2086 672 2182 678 
Q 2381 1082 2573 1568 
L 1325 1510 
L 1325 -448 
Q 1325 -602 1222 -602 
Q 1158 -602 1020 -531 
Q 883 -461 883 -352 
Q 883 -314 908 -218 
Q 934 -122 934 102 
L 941 1504 
Q 941 1702 883 1824 
Q 826 1946 826 1987 
Q 826 2029 902 2029 
Q 979 2029 1363 1856 
L 2701 1920 
Q 2784 2150 2861 2381 
L 1818 2317 
Q 1734 2310 1676 2300 
Q 1619 2291 1561 2291 
Q 1504 2291 1405 2355 
Q 1306 2419 1306 2476 
Q 1306 2534 1322 2585 
Q 1338 2637 1350 2848 
L 1376 3469 
L 1376 3501 
Q 1376 3629 1334 3712 
Q 1293 3795 1293 3821 
Q 1293 3872 1401 3872 
Q 1510 3872 1677 3789 
Q 1779 3738 1779 3635 
L 1741 2662 
L 4710 2816 
L 4742 3680 
L 4742 3718 
Q 4742 3853 4710 3926 
Q 4678 4000 4678 4026 
Q 4678 4077 4742 4077 
Q 4755 4077 4851 4058 
Q 5152 3987 5152 3840 
L 5152 3827 
L 5075 2310 
Q 5062 2202 4979 2202 
Q 4845 2202 4752 2272 
Q 4659 2342 4659 2387 
L 4659 2451 
Q 4659 2470 4666 2490 
L 3258 2406 
Q 3149 2067 3098 1939 
L 5274 2042 
L 5350 2048 
Q 5440 2048 5520 1984 
Q 5600 1920 5600 1830 
L 5574 1651 
L 5536 -128 
L 5549 -288 
Q 5549 -397 5481 -461 
Q 5414 -525 5344 -547 
Q 5274 -570 5222 -570 
Q 5171 -570 4985 -490 
Q 4800 -410 4602 -288 
Q 4128 0 4128 154 
Q 4128 198 4182 198 
Q 4237 198 4381 121 
Q 4525 45 4739 -9 
Q 4954 -64 5133 -109 
L 5178 1683 
L 2963 1581 
Q 2797 1133 2579 723 
Q 3110 794 3814 954 
Q 3738 1043 3645 1123 
Q 3552 1203 3552 1254 
Q 3552 1306 3635 1370 
Q 3718 1434 3772 1434 
Q 3827 1434 3945 1331 
Q 4064 1229 4381 912 
Q 4698 595 4698 531 
Q 4698 467 4611 377 
Q 4525 288 4464 288 
Q 4403 288 4333 371 
Q 4192 550 4032 730 
Q 3034 448 2534 352 
Q 2035 256 1984 256 
Q 1696 256 1581 602 
Q 1574 614 1574 634 
Q 1574 685 1645 685 
z
" transform="scale(0.015625)"/>
     </defs>
     <use xlink:href="#LXGWWenKai-Regular-2460"/>
     <use xlink:href="#LXGWWenKai-Regular-20" transform="translate(99.999985 0)"/>
     <use xlink:href="#LXGWWenKai-Regular-5916" transform="translate(134.999969 0)"/>
     <use xlink:href="#LXGWWenKai-Regular-79bb" transform="translate(234.999954 0)"/>
    </g>
   </g>
   <g id="text_2">
    <!-- $d &gt; r_1 + r_2$ -->
    <g style="fill: #636363" transform="translate(119.88 282.96) scale(0.12 -0.12)">
     <defs>
      <path id="STIXGeneral-Italic-64" d="M 3334 4371 
L 3373 4333 
L 3123 3360 
L 2739 1958 
Q 2323 429 2323 384 
Q 2323 256 2438 256 
Q 2522 256 2614 336 
Q 2707 416 2963 710 
L 3040 646 
Q 2547 -83 2099 -83 
Q 1978 -83 1907 -6 
Q 1837 70 1837 205 
Q 1837 397 1920 774 
Q 1645 307 1379 118 
Q 1114 -70 781 -70 
Q 461 -70 278 125 
Q 96 320 96 678 
Q 96 1440 713 2131 
Q 1331 2822 1965 2822 
Q 2163 2822 2256 2732 
Q 2349 2643 2381 2451 
L 2387 2451 
L 2675 3494 
Q 2765 3808 2765 3949 
Q 2765 4051 2694 4076 
Q 2624 4102 2355 4115 
L 2355 4224 
Q 2848 4269 3334 4371 
z
M 2278 2310 
Q 2278 2477 2185 2576 
Q 2093 2675 1978 2675 
Q 1677 2675 1395 2381 
Q 1075 2042 864 1571 
Q 653 1101 653 704 
Q 653 486 752 361 
Q 851 237 1024 237 
Q 1312 237 1606 550 
Q 1901 864 2089 1350 
Q 2278 1837 2278 2310 
z
" transform="scale(0.015625)"/>
      <path id="STIXGeneral-Regular-3e" d="M 3974 1594 
L 358 -154 
L 358 250 
L 3123 1626 
L 358 3002 
L 358 3418 
L 3974 1658 
L 3974 1594 
z
" transform="scale(0.015625)"/>
      <path id="STIXGeneral-Italic-72" d="M 1126 1427 
L 1229 1651 
Q 1446 2131 1830 2534 
Q 2106 2822 2336 2822 
Q 2470 2822 2553 2732 
Q 2637 2643 2637 2496 
Q 2637 2349 2557 2249 
Q 2477 2150 2336 2150 
Q 2214 2150 2112 2317 
Q 2061 2406 2010 2406 
Q 1837 2406 1485 1805 
Q 1267 1434 1136 1104 
Q 1005 774 774 0 
L 288 0 
L 806 1869 
Q 909 2246 909 2394 
Q 909 2560 666 2560 
Q 614 2560 467 2541 
L 467 2650 
L 1459 2822 
L 1478 2810 
L 1126 1427 
z
" transform="scale(0.015625)"/>
      <path id="STIXGeneral-Regular-31" d="M 2522 0 
L 755 0 
L 755 96 
Q 1107 115 1235 227 
Q 1363 339 1363 608 
L 1363 3482 
Q 1363 3795 1171 3795 
Q 1082 3795 883 3718 
L 710 3654 
L 710 3744 
L 1856 4326 
L 1914 4307 
L 1914 486 
Q 1914 275 2042 185 
Q 2170 96 2522 96 
L 2522 0 
z
" transform="scale(0.015625)"/>
      <path id="STIXGeneral-Regular-2b" d="M 4070 1408 
L 2400 1408 
L 2400 -262 
L 1978 -262 
L 1978 1408 
L 307 1408 
L 307 1830 
L 1978 1830 
L 1978 3501 
L 2400 3501 
L 2400 1830 
L 4070 1830 
L 4070 1408 
z
" transform="scale(0.015625)"/>
      <path id="STIXGeneral-Regular-32" d="M 3034 877 
L 2688 0 
L 186 0 
L 186 77 
L 1325 1286 
Q 1773 1754 1965 2144 
Q 2157 2534 2157 2950 
Q 2157 3379 1920 3616 
Q 1683 3853 1267 3853 
Q 922 3853 720 3673 
Q 518 3494 326 3021 
L 192 3053 
Q 301 3648 630 3987 
Q 960 4326 1523 4326 
Q 2054 4326 2380 4006 
Q 2707 3686 2707 3200 
Q 2707 2477 1888 1613 
L 832 486 
L 2330 486 
Q 2541 486 2665 569 
Q 2790 653 2944 915 
L 3034 877 
z
" transform="scale(0.015625)"/>
     </defs>
     <use xlink:href="#STIXGeneral-Italic-64" transform="translate(0 0.703125)"/>
     <use xlink:href="#STIXGeneral-Regular-3e" transform="translate(64.439981 0.703125)"/>
     <use xlink:href="#STIXGeneral-Italic-72" transform="translate(147.379962 0.703125)"/>
     <use xlink:href="#STIXGeneral-Regular-31" transform="translate(186.279956 -12.525) scale(0.7)"/>
     <use xlink:href="#STIXGeneral-Regular-2b" transform="translate(240.129317 0.703125)"/>
     <use xlink:href="#STIXGeneral-Italic-72" transform="translate(323.069298 0.703125)"/>
     <use xlink:href="#STIXGeneral-Regular-32" transform="translate(361.969292 -12.525) scale(0.7)"/>
    </g>
   </g>
  </g>
  <g id="axes_2">
   <g id="patch_4">
    <path d="M 342 254.16 
C 351.547312 254.16 360.704875 250.366813 367.455844 243.615844 
C 374.206813 236.864875 378 227.707312 378 218.16 
C 378 208.612688 374.206813 199.455125 367.455844 192.704156 
C 360.704875 185.953187 351.547312 182.16 342 182.16 
C 332.452688 182.16 323.295125 185.953187 316.544156 192.704156 
C 309.793187 199.455125 306 208.612688 306 218.16 
C 306 227.707312 309.793187 236.864875 316.544156 243.615844 
C 323.295125 250.366813 332.452688 254.16 342 254.16 
L 342 254.16 
z
" clip-path="url(#p63f76db20f)" style="fill: none; stroke: #111111; stroke-width: 1.2; stroke-linejoin: miter"/>
   </g>
   <g id="patch_5">
    <path d="M 406.8 246.96 
C 414.437849 246.96 421.7639 243.92545 427.164675 238.524675 
C 432.56545 233.1239 435.6 225.797849 435.6 218.16 
C 435.6 210.522151 432.56545 203.1961 427.164675 197.795325 
C 421.7639 192.39455 414.437849 189.36 406.8 189.36 
C 399.162151 189.36 391.8361 192.39455 386.435325 197.795325 
C 381.03455 203.1961 378 210.522151 378 218.16 
C 378 225.797849 381.03455 233.1239 386.435325 238.524675 
C 391.8361 243.92545 399.162151 246.96 406.8 246.96 
L 406.8 246.96 
z
" clip-path="url(#p63f76db20f)" style="fill: none; stroke: #111111; stroke-width: 1.2; stroke-linejoin: miter"/>
   </g>
   <g id="text_3">
    <!-- ② 外切 -->
    <g style="fill: #111111" transform="translate(318.55 153.36) scale(0.14 -0.14)">
     <defs>
      <path id="LXGWWenKai-Regular-2461" d="M 2822 557 
Q 2483 557 2042 499 
L 2016 499 
Q 1926 499 1862 579 
Q 1798 659 1798 726 
Q 1798 794 1824 832 
Q 1850 870 1878 902 
Q 1907 934 1971 1040 
Q 2035 1146 2368 1504 
Q 2701 1862 3190 2240 
Q 3680 2618 3885 2858 
Q 4090 3098 4090 3344 
Q 4090 3590 3898 3737 
Q 3706 3885 3357 3885 
Q 3008 3885 2755 3744 
Q 2502 3603 2413 3379 
Q 2355 3245 2243 3245 
Q 2131 3245 2080 3341 
Q 2029 3437 2029 3469 
Q 2029 3501 2093 3616 
Q 2157 3731 2304 3872 
Q 2675 4218 3392 4218 
Q 3930 4218 4202 3978 
Q 4474 3738 4474 3379 
Q 4474 3021 4221 2707 
Q 3968 2394 3539 2074 
Q 3110 1754 2777 1453 
Q 2445 1152 2259 851 
Q 2464 877 3206 877 
L 4045 870 
L 4384 877 
Q 4448 877 4502 784 
Q 4557 691 4557 601 
Q 4557 512 4480 512 
Q 4429 512 4217 534 
Q 4006 557 3584 557 
L 2822 557 
z
M 5744 1280 
Q 5958 1779 5958 2348 
Q 5958 2918 5744 3417 
Q 5530 3917 5149 4297 
Q 4768 4678 4269 4892 
Q 3770 5107 3200 5107 
Q 2630 5107 2131 4892 
Q 1632 4678 1251 4297 
Q 870 3917 656 3417 
Q 442 2918 442 2348 
Q 442 1779 656 1280 
Q 870 781 1251 403 
Q 1632 26 2131 -188 
Q 2630 -403 3200 -403 
Q 3770 -403 4269 -188 
Q 4768 26 5149 403 
Q 5530 781 5744 1280 
z
M 6032 3539 
Q 6272 2982 6272 2348 
Q 6272 1715 6032 1158 
Q 5792 602 5369 179 
Q 4947 -243 4390 -480 
Q 3834 -717 3200 -717 
Q 2566 -717 2009 -480 
Q 1453 -243 1030 179 
Q 608 602 368 1158 
Q 128 1715 128 2348 
Q 128 2982 368 3539 
Q 608 4096 1030 4518 
Q 1453 4941 2009 5181 
Q 2566 5421 3200 5421 
Q 3834 5421 4390 5181 
Q 4947 4941 5369 4518 
Q 5792 4096 6032 3539 
z
" transform="scale(0.015625)"/>
      <path id="LXGWWenKai-Regular-5207" d="M 4723 38 
Q 4851 -13 4876 -13 
Q 4902 -13 4902 32 
Q 5267 1261 5312 3878 
L 4346 3821 
Q 4186 1139 2733 -102 
Q 2221 -544 2099 -544 
Q 2048 -544 2048 -486 
Q 2048 -429 2170 -307 
Q 3168 646 3597 1984 
Q 3846 2746 3898 3789 
L 3117 3738 
Q 3014 3725 2940 3725 
Q 2867 3725 2764 3773 
Q 2662 3821 2579 4045 
Q 2566 4083 2566 4096 
Q 2566 4141 2618 4141 
Q 2643 4141 2700 4125 
Q 2758 4109 2880 4109 
L 5389 4262 
L 5459 4262 
Q 5606 4262 5673 4176 
Q 5741 4090 5741 4026 
L 5715 3866 
Q 5702 2387 5584 1360 
Q 5466 333 5338 -166 
Q 5299 -307 5184 -422 
Q 5069 -538 4960 -538 
Q 4851 -538 4624 -410 
Q 4397 -282 4070 25 
Q 3744 333 3744 429 
Q 3744 480 3808 480 
Q 3872 480 4035 384 
Q 4198 288 4396 189 
Q 4595 90 4723 38 
z
M 915 179 
Q 781 269 697 377 
Q 614 486 614 534 
Q 614 582 717 595 
Q 902 595 1146 723 
L 1197 749 
L 1203 2605 
L 851 2554 
Q 768 2547 707 2537 
Q 646 2528 563 2528 
Q 480 2528 403 2595 
Q 326 2662 288 2745 
Q 250 2829 250 2864 
Q 250 2899 301 2899 
L 333 2899 
Q 525 2880 557 2880 
L 608 2880 
Q 627 2880 646 2886 
L 1203 2963 
L 1203 4294 
Q 1203 4461 1094 4621 
Q 1062 4672 1062 4704 
Q 1062 4736 1100 4736 
Q 1139 4736 1216 4726 
Q 1293 4717 1382 4685 
Q 1613 4614 1613 4486 
L 1606 3021 
L 2355 3130 
Q 2541 3168 2608 3193 
Q 2675 3219 2723 3219 
Q 2771 3219 2854 3174 
Q 3066 3078 3066 2970 
Q 3066 2925 3030 2889 
Q 2995 2854 2944 2848 
L 1606 2662 
L 1600 941 
Q 2182 1229 2630 1530 
Q 2758 1600 2812 1600 
Q 2867 1600 2867 1542 
Q 2867 1485 2726 1331 
Q 2605 1216 2253 947 
Q 1094 70 915 179 
z
" transform="scale(0.015625)"/>
     </defs>
     <use xlink:href="#LXGWWenKai-Regular-2461"/>
     <use xlink:href="#LXGWWenKai-Regular-20" transform="translate(99.999985 0)"/>
     <use xlink:href="#LXGWWenKai-Regular-5916" transform="translate(134.999969 0)"/>
     <use xlink:href="#LXGWWenKai-Regular-5207" transform="translate(234.999954 0)"/>
    </g>
   </g>
   <g id="text_4">
    <!-- $d = r_1 + r_2$ -->
    <g style="fill: #636363" transform="translate(317.88 282.96) scale(0.12 -0.12)">
     <defs>
      <path id="STIXGeneral-Regular-3d" d="M 4077 2048 
L 307 2048 
L 307 2470 
L 4077 2470 
L 4077 2048 
z
M 4077 768 
L 307 768 
L 307 1190 
L 4077 1190 
L 4077 768 
z
" transform="scale(0.015625)"/>
     </defs>
     <use xlink:href="#STIXGeneral-Italic-64" transform="translate(0 0.703125)"/>
     <use xlink:href="#STIXGeneral-Regular-3d" transform="translate(64.439981 0.703125)"/>
     <use xlink:href="#STIXGeneral-Italic-72" transform="translate(147.379962 0.703125)"/>
     <use xlink:href="#STIXGeneral-Regular-31" transform="translate(186.279956 -12.525) scale(0.7)"/>
     <use xlink:href="#STIXGeneral-Regular-2b" transform="translate(240.129317 0.703125)"/>
     <use xlink:href="#STIXGeneral-Italic-72" transform="translate(323.069298 0.703125)"/>
     <use xlink:href="#STIXGeneral-Regular-32" transform="translate(361.969292 -12.525) scale(0.7)"/>
    </g>
   </g>
  </g>
  <g id="axes_3">
   <g id="patch_6">
    <path d="M 453.6 304.56 
L 626.4 304.56 
L 626.4 131.76 
L 453.6 131.76 
z
" clip-path="url(#p323d9fdb8b)" style="fill: #ccebc5; opacity: 0.3"/>
   </g>
   <g id="patch_7">
    <path d="M 540 254.16 
C 549.547312 254.16 558.704875 250.366813 565.455844 243.615844 
C 572.206813 236.864875 576 227.707312 576 218.16 
C 576 208.612688 572.206813 199.455125 565.455844 192.704156 
C 558.704875 185.953187 549.547312 182.16 540 182.16 
C 530.452688 182.16 521.295125 185.953187 514.544156 192.704156 
C 507.793187 199.455125 504 208.612688 504 218.16 
C 504 227.707312 507.793187 236.864875 514.544156 243.615844 
C 521.295125 250.366813 530.452688 254.16 540 254.16 
L 540 254.16 
z
" clip-path="url(#p323d9fdb8b)" style="fill: none; stroke: #111111; stroke-width: 1.2; stroke-linejoin: miter"/>
   </g>
   <g id="patch_8">
    <path d="M 583.2 246.96 
C 590.837849 246.96 598.1639 243.92545 603.564675 238.524675 
C 608.96545 233.1239 612 225.797849 612 218.16 
C 612 210.522151 608.96545 203.1961 603.564675 197.795325 
C 598.1639 192.39455 590.837849 189.36 583.2 189.36 
C 575.562151 189.36 568.2361 192.39455 562.835325 197.795325 
C 557.43455 203.1961 554.4 210.522151 554.4 218.16 
C 554.4 225.797849 557.43455 233.1239 562.835325 238.524675 
C 568.2361 243.92545 575.562151 246.96 583.2 246.96 
L 583.2 246.96 
z
" clip-path="url(#p323d9fdb8b)" style="fill: none; stroke-dasharray: 4.44,1.92; stroke-dashoffset: 0; stroke: #111111; stroke-width: 1.2; stroke-linejoin: miter"/>
   </g>
   <g id="text_5">
    <!-- ③ 相交 -->
    <g style="fill: #111111" transform="translate(516.55 153.36) scale(0.14 -0.14)">
     <defs>
      <path id="LXGWWenKai-Regular-2462" d="M 4048 2032 
Q 3923 2189 3724 2275 
Q 3526 2362 3235 2362 
Q 2944 2362 2784 2317 
L 2758 2317 
Q 2682 2317 2630 2397 
Q 2579 2477 2579 2553 
Q 2579 2630 2643 2637 
Q 3034 2662 3344 2774 
Q 3654 2886 3833 3052 
Q 4013 3219 4013 3392 
Q 4013 3923 3200 3923 
Q 2669 3923 2266 3494 
Q 2195 3424 2147 3424 
Q 2099 3424 2038 3504 
Q 1978 3584 1978 3651 
Q 1978 3718 2035 3763 
Q 2477 4230 3155 4230 
Q 3834 4230 4102 4003 
Q 4371 3776 4371 3456 
Q 4371 2784 3584 2566 
Q 3827 2566 4044 2454 
Q 4262 2342 4400 2140 
Q 4538 1939 4538 1664 
Q 4538 1043 4118 742 
Q 3699 442 3008 442 
Q 2317 442 1830 902 
Q 1792 941 1792 1021 
Q 1792 1101 1846 1193 
Q 1901 1286 1949 1286 
Q 1997 1286 2022 1254 
Q 2419 768 2969 768 
Q 3520 768 3846 1001 
Q 4173 1235 4173 1664 
Q 4173 1875 4048 2032 
z
M 5744 1280 
Q 5958 1779 5958 2348 
Q 5958 2918 5744 3417 
Q 5530 3917 5149 4297 
Q 4768 4678 4269 4892 
Q 3770 5107 3200 5107 
Q 2630 5107 2131 4892 
Q 1632 4678 1251 4297 
Q 870 3917 656 3417 
Q 442 2918 442 2348 
Q 442 1779 656 1280 
Q 870 781 1251 403 
Q 1632 26 2131 -188 
Q 2630 -403 3200 -403 
Q 3770 -403 4269 -188 
Q 4768 26 5149 403 
Q 5530 781 5744 1280 
z
M 6032 3539 
Q 6272 2982 6272 2348 
Q 6272 1715 6032 1158 
Q 5792 602 5369 179 
Q 4947 -243 4390 -480 
Q 3834 -717 3200 -717 
Q 2566 -717 2009 -480 
Q 1453 -243 1030 179 
Q 608 602 368 1158 
Q 128 1715 128 2348 
Q 128 2982 368 3539 
Q 608 4096 1030 4518 
Q 1453 4941 2009 5181 
Q 2566 5421 3200 5421 
Q 3834 5421 4390 5181 
Q 4947 4941 5369 4518 
Q 5792 4096 6032 3539 
z
" transform="scale(0.015625)"/>
      <path id="LXGWWenKai-Regular-76f8" d="M 819 3347 
L 1722 3424 
L 1734 4621 
Q 1734 4794 1676 4874 
Q 1619 4954 1619 4986 
Q 1619 5037 1702 5037 
L 1766 5030 
Q 2131 4960 2131 4781 
L 2112 3462 
L 2483 3494 
Q 2605 3507 2669 3529 
Q 2733 3552 2771 3552 
Q 2810 3552 2886 3494 
Q 3091 3354 3091 3258 
Q 3091 3187 2944 3174 
L 2112 3104 
L 2106 2566 
Q 2189 2630 2240 2630 
Q 2291 2630 2438 2518 
Q 2586 2406 2822 2150 
Q 3059 1894 3059 1830 
Q 3059 1766 2979 1686 
Q 2899 1606 2832 1606 
Q 2765 1606 2675 1728 
Q 2438 2042 2099 2355 
L 2067 -474 
Q 2067 -640 1958 -640 
Q 1818 -640 1718 -547 
Q 1619 -454 1619 -390 
Q 1619 -326 1651 -192 
Q 1683 -58 1683 166 
L 1690 346 
Q 1690 1830 1728 2368 
L 1728 2458 
Q 1523 1843 973 1197 
Q 749 934 566 780 
Q 384 627 339 627 
Q 294 627 294 675 
Q 294 723 371 826 
Q 1101 1754 1632 3059 
L 1024 3008 
Q 934 2995 858 2995 
Q 698 2995 598 3126 
Q 499 3258 499 3325 
Q 499 3392 531 3392 
Q 614 3379 684 3363 
Q 755 3347 819 3347 
z
M 5696 4013 
L 5651 3846 
L 5562 410 
Q 5734 237 5734 160 
Q 5734 83 5683 57 
Q 5632 32 5562 26 
L 3680 -38 
L 3686 -339 
Q 3686 -474 3584 -474 
L 3494 -448 
Q 3245 -390 3245 -224 
Q 3245 -186 3264 -93 
Q 3283 0 3283 275 
L 3219 3757 
Q 3219 3968 3177 4073 
Q 3136 4179 3136 4218 
Q 3136 4282 3235 4282 
Q 3334 4282 3629 4141 
L 5306 4250 
L 5414 4256 
Q 5606 4256 5670 4090 
Q 5696 4032 5696 4013 
z
M 5235 3891 
L 3616 3789 
L 3629 2944 
L 5216 3034 
L 5235 3891 
z
M 5210 2682 
L 3635 2598 
L 3654 1677 
L 5190 1760 
L 5210 2682 
z
M 5184 1402 
L 3661 1331 
L 3674 333 
L 5165 384 
L 5184 1402 
z
" transform="scale(0.015625)"/>
      <path id="LXGWWenKai-Regular-4ea4" d="M 762 4013 
Q 922 3981 1094 3981 
L 1178 3981 
L 2970 4090 
L 2963 4749 
Q 2963 4896 2912 4969 
Q 2861 5043 2861 5075 
Q 2861 5126 2928 5126 
Q 2995 5126 3098 5114 
Q 3386 5075 3386 4966 
L 3379 4115 
L 4979 4218 
Q 5197 4237 5261 4256 
Q 5325 4275 5363 4275 
Q 5402 4275 5491 4224 
Q 5734 4096 5734 3974 
Q 5734 3891 5613 3878 
L 1325 3622 
Q 1210 3610 1107 3610 
Q 1005 3610 905 3658 
Q 806 3706 717 3930 
Q 710 3942 710 3968 
Q 710 4013 762 4013 
z
M 5382 2458 
Q 5382 2330 5235 2202 
Q 5178 2157 5123 2157 
Q 5069 2157 4890 2330 
Q 4326 2886 3821 3232 
Q 3725 3302 3725 3340 
Q 3725 3379 3750 3437 
Q 3821 3590 3923 3590 
Q 4026 3590 4864 2944 
Q 5088 2771 5235 2643 
Q 5382 2515 5382 2458 
z
M 2400 3494 
Q 2483 3430 2553 3344 
Q 2624 3258 2624 3200 
Q 2624 3104 2240 2778 
Q 1882 2451 1456 2172 
Q 1030 1894 877 1894 
Q 832 1894 832 1939 
Q 832 1984 966 2099 
Q 2112 3021 2202 3462 
Q 2221 3558 2269 3558 
Q 2317 3558 2400 3494 
z
M 3206 1446 
Q 3898 2234 3898 2528 
Q 3898 2656 3968 2656 
Q 4013 2656 4102 2592 
Q 4346 2419 4346 2285 
Q 4346 2266 4333 2240 
Q 3994 1696 3520 1171 
Q 4557 314 6035 -154 
Q 6163 -192 6163 -243 
Q 6163 -275 6106 -352 
Q 5958 -563 5818 -563 
Q 5773 -563 5520 -464 
Q 5267 -365 4890 -179 
Q 3955 288 3245 890 
Q 2170 -147 582 -531 
Q 518 -550 451 -550 
Q 384 -550 384 -506 
Q 384 -448 525 -384 
Q 1773 147 2458 723 
Q 2746 966 2944 1165 
L 2810 1299 
Q 2016 2093 2016 2234 
Q 2016 2291 2093 2374 
Q 2170 2458 2243 2458 
Q 2317 2458 2387 2368 
Q 2694 1939 3206 1446 
z
" transform="scale(0.015625)"/>
     </defs>
     <use xlink:href="#LXGWWenKai-Regular-2462"/>
     <use xlink:href="#LXGWWenKai-Regular-20" transform="translate(99.999985 0)"/>
     <use xlink:href="#LXGWWenKai-Regular-76f8" transform="translate(134.999969 0)"/>
     <use xlink:href="#LXGWWenKai-Regular-4ea4" transform="translate(234.999954 0)"/>
    </g>
   </g>
   <g id="text_6">
    <!-- $|r_1 - r_2| &lt; d &lt; r_1 + r_2$ -->
    <g style="fill: #d6604d" transform="translate(492.42 282.96) scale(0.12 -0.12)">
     <defs>
      <path id="STIXGeneral-Regular-7c" d="M 851 -90 
L 429 -90 
L 429 4326 
L 851 4326 
L 851 -90 
z
" transform="scale(0.015625)"/>
      <path id="STIXGeneral-Regular-2212" d="M 3974 1408 
L 410 1408 
L 410 1830 
L 3974 1830 
L 3974 1408 
z
" transform="scale(0.015625)"/>
      <path id="STIXGeneral-Regular-3c" d="M 3974 -154 
L 358 1594 
L 358 1658 
L 3974 3418 
L 3974 3002 
L 1210 1626 
L 3974 250 
L 3974 -154 
z
" transform="scale(0.015625)"/>
     </defs>
     <use xlink:href="#STIXGeneral-Regular-7c" transform="translate(0 0.703125)"/>
     <use xlink:href="#STIXGeneral-Italic-72" transform="translate(19.999985 0.703125)"/>
     <use xlink:href="#STIXGeneral-Regular-31" transform="translate(58.899979 -12.525) scale(0.7)"/>
     <use xlink:href="#STIXGeneral-Regular-2212" transform="translate(112.749339 0.703125)"/>
     <use xlink:href="#STIXGeneral-Italic-72" transform="translate(195.68932 0.703125)"/>
     <use xlink:href="#STIXGeneral-Regular-32" transform="translate(234.589314 -12.525) scale(0.7)"/>
     <use xlink:href="#STIXGeneral-Regular-7c" transform="translate(273.998679 0.703125)"/>
     <use xlink:href="#STIXGeneral-Regular-3c" transform="translate(308.43866 0.703125)"/>
     <use xlink:href="#STIXGeneral-Italic-64" transform="translate(391.378641 0.703125)"/>
     <use xlink:href="#STIXGeneral-Regular-3c" transform="translate(455.818622 0.703125)"/>
     <use xlink:href="#STIXGeneral-Italic-72" transform="translate(538.758603 0.703125)"/>
     <use xlink:href="#STIXGeneral-Regular-31" transform="translate(577.658597 -12.525) scale(0.7)"/>
     <use xlink:href="#STIXGeneral-Regular-2b" transform="translate(631.507957 0.703125)"/>
     <use xlink:href="#STIXGeneral-Italic-72" transform="translate(714.447939 0.703125)"/>
     <use xlink:href="#STIXGeneral-Regular-32" transform="translate(753.347932 -12.525) scale(0.7)"/>
    </g>
   </g>
  </g>
  <g id="axes_4">
   <g id="patch_9">
    <path d="M 738 254.16 
C 747.547312 254.16 756.704875 250.366813 763.455844 243.615844 
C 770.206813 236.864875 774 227.707312 774 218.16 
C 774 208.612688 770.206813 199.455125 763.455844 192.704156 
C 756.704875 185.953187 747.547312 182.16 738 182.16 
C 728.452688 182.16 719.295125 185.953187 712.544156 192.704156 
C 705.793187 199.455125 702 208.612688 702 218.16 
C 702 227.707312 705.793187 236.864875 712.544156 243.615844 
C 719.295125 250.366813 728.452688 254.16 738 254.16 
L 738 254.16 
z
" clip-path="url(#p22a0e0a45b)" style="fill: none; stroke: #111111; stroke-width: 1.2; stroke-linejoin: miter"/>
   </g>
   <g id="patch_10">
    <path d="M 745.2 246.96 
C 752.837849 246.96 760.1639 243.92545 765.564675 238.524675 
C 770.96545 233.1239 774 225.797849 774 218.16 
C 774 210.522151 770.96545 203.1961 765.564675 197.795325 
C 760.1639 192.39455 752.837849 189.36 745.2 189.36 
C 737.562151 189.36 730.2361 192.39455 724.835325 197.795325 
C 719.43455 203.1961 716.4 210.522151 716.4 218.16 
C 716.4 225.797849 719.43455 233.1239 724.835325 238.524675 
C 730.2361 243.92545 737.562151 246.96 745.2 246.96 
L 745.2 246.96 
z
" clip-path="url(#p22a0e0a45b)" style="fill: none; stroke: #111111; stroke-width: 1.2; stroke-linejoin: miter"/>
   </g>
   <g id="text_7">
    <!-- ④ 内切 -->
    <g style="fill: #111111" transform="translate(714.55 153.36) scale(0.14 -0.14)">
     <defs>
      <path id="LXGWWenKai-Regular-2463" d="M 2067 1299 
L 1837 1261 
Q 1754 1261 1677 1334 
Q 1600 1408 1600 1481 
Q 1600 1555 1638 1613 
L 1818 1856 
Q 2701 3040 2973 3494 
Q 3245 3949 3334 4198 
Q 3354 4237 3405 4237 
Q 3456 4237 3552 4141 
Q 3648 4045 3648 3981 
Q 3648 3917 3635 3904 
Q 3437 3610 3101 3110 
Q 2765 2611 2035 1613 
L 3494 1670 
L 3494 2714 
L 3475 3270 
Q 3475 3322 3571 3322 
Q 3667 3322 3763 3283 
Q 3859 3245 3859 3174 
L 3853 2714 
L 3853 1690 
L 4019 1696 
L 4403 1722 
Q 4474 1722 4522 1626 
Q 4570 1530 4570 1450 
Q 4570 1370 4512 1370 
L 4026 1382 
L 3853 1376 
L 3853 1082 
L 3872 544 
Q 3872 486 3776 486 
Q 3680 486 3581 528 
Q 3482 570 3482 634 
L 3494 1094 
L 3494 1357 
L 2067 1299 
z
M 5744 1280 
Q 5958 1779 5958 2348 
Q 5958 2918 5744 3417 
Q 5530 3917 5149 4297 
Q 4768 4678 4269 4892 
Q 3770 5107 3200 5107 
Q 2630 5107 2131 4892 
Q 1632 4678 1251 4297 
Q 870 3917 656 3417 
Q 442 2918 442 2348 
Q 442 1779 656 1280 
Q 870 781 1251 403 
Q 1632 26 2131 -188 
Q 2630 -403 3200 -403 
Q 3770 -403 4269 -188 
Q 4768 26 5149 403 
Q 5530 781 5744 1280 
z
M 6032 3539 
Q 6272 2982 6272 2348 
Q 6272 1715 6032 1158 
Q 5792 602 5369 179 
Q 4947 -243 4390 -480 
Q 3834 -717 3200 -717 
Q 2566 -717 2009 -480 
Q 1453 -243 1030 179 
Q 608 602 368 1158 
Q 128 1715 128 2348 
Q 128 2982 368 3539 
Q 608 4096 1030 4518 
Q 1453 4941 2009 5181 
Q 2566 5421 3200 5421 
Q 3834 5421 4390 5181 
Q 4947 4941 5369 4518 
Q 5792 4096 6032 3539 
z
" transform="scale(0.015625)"/>
      <path id="LXGWWenKai-Regular-5185" d="M 5434 -32 
L 5453 -262 
Q 5453 -474 5280 -544 
Q 5216 -570 5158 -570 
Q 5101 -570 4835 -458 
Q 4570 -346 4134 -54 
Q 3699 237 3699 378 
Q 3699 422 3776 422 
Q 3853 422 4038 333 
Q 4499 96 5024 -45 
L 5056 3616 
L 3341 3526 
Q 3302 3270 3226 2976 
Q 4038 2259 4794 1363 
Q 4870 1280 4870 1222 
Q 4870 1165 4793 1062 
Q 4717 960 4643 960 
Q 4570 960 4541 982 
Q 4512 1005 4486 1030 
Q 3866 1862 3110 2592 
Q 2829 1798 2227 1242 
Q 1984 1018 1801 909 
Q 1619 800 1564 800 
Q 1510 800 1510 854 
Q 1510 909 1613 1011 
Q 2534 1901 2771 2790 
Q 2874 3181 2918 3507 
L 1370 3424 
L 1357 -403 
Q 1357 -595 1235 -595 
Q 1222 -595 1139 -563 
Q 890 -474 890 -301 
Q 890 -250 915 -131 
Q 941 -13 941 173 
L 960 3405 
Q 960 3597 909 3728 
Q 858 3859 858 3907 
Q 858 3955 931 3955 
Q 1005 3955 1389 3782 
L 2957 3866 
Q 2989 4154 3002 4646 
L 3002 4691 
Q 3002 4909 2963 5011 
Q 2925 5114 2925 5146 
Q 2925 5178 2982 5178 
Q 3040 5178 3177 5136 
Q 3315 5094 3376 5056 
Q 3437 5018 3437 4909 
Q 3424 4211 3386 3891 
L 5146 3987 
L 5222 3987 
Q 5331 3987 5420 3913 
Q 5510 3840 5510 3757 
L 5472 3629 
L 5434 -32 
z
" transform="scale(0.015625)"/>
     </defs>
     <use xlink:href="#LXGWWenKai-Regular-2463"/>
     <use xlink:href="#LXGWWenKai-Regular-20" transform="translate(99.999985 0)"/>
     <use xlink:href="#LXGWWenKai-Regular-5185" transform="translate(134.999969 0)"/>
     <use xlink:href="#LXGWWenKai-Regular-5207" transform="translate(234.999954 0)"/>
    </g>
   </g>
   <g id="text_8">
    <!-- $d = |r_1 - r_2|$ -->
    <g style="fill: #636363" transform="translate(711.48 282.96) scale(0.12 -0.12)">
     <use xlink:href="#STIXGeneral-Italic-64" transform="translate(0 0.703125)"/>
     <use xlink:href="#STIXGeneral-Regular-3d" transform="translate(64.439981 0.703125)"/>
     <use xlink:href="#STIXGeneral-Regular-7c" transform="translate(147.379962 0.703125)"/>
     <use xlink:href="#STIXGeneral-Italic-72" transform="translate(167.379947 0.703125)"/>
     <use xlink:href="#STIXGeneral-Regular-31" transform="translate(206.279941 -12.525) scale(0.7)"/>
     <use xlink:href="#STIXGeneral-Regular-2212" transform="translate(260.129301 0.703125)"/>
     <use xlink:href="#STIXGeneral-Italic-72" transform="translate(343.069283 0.703125)"/>
     <use xlink:href="#STIXGeneral-Regular-32" transform="translate(381.969276 -12.525) scale(0.7)"/>
     <use xlink:href="#STIXGeneral-Regular-7c" transform="translate(421.378641 0.703125)"/>
    </g>
   </g>
  </g>
  <g id="axes_5">
   <g id="patch_11">
    <path d="M 936 261.36 
C 947.456774 261.36 958.44585 256.808175 966.547013 248.707013 
C 974.648175 240.60585 979.2 229.616774 979.2 218.16 
C 979.2 206.703226 974.648175 195.71415 966.547013 187.612987 
C 958.44585 179.511825 947.456774 174.96 936 174.96 
C 924.543226 174.96 913.55415 179.511825 905.452987 187.612987 
C 897.351825 195.71415 892.8 206.703226 892.8 218.16 
C 892.8 229.616774 897.351825 240.60585 905.452987 248.707013 
C 913.55415 256.808175 924.543226 261.36 936 261.36 
L 936 261.36 
z
" clip-path="url(#p3ac453fef4)" style="fill: none; stroke: #111111; stroke-width: 1.2; stroke-linejoin: miter"/>
   </g>
   <g id="patch_12">
    <path d="M 946.8 236.16 
C 951.573656 236.16 956.152438 234.263406 959.527922 230.887922 
C 962.903406 227.512438 964.8 222.933656 964.8 218.16 
C 964.8 213.386344 962.903406 208.807562 959.527922 205.432078 
C 956.152438 202.056594 951.573656 200.16 946.8 200.16 
C 942.026344 200.16 937.447562 202.056594 934.072078 205.432078 
C 930.696594 208.807562 928.8 213.386344 928.8 218.16 
C 928.8 222.933656 930.696594 227.512438 934.072078 230.887922 
C 937.447562 234.263406 942.026344 236.16 946.8 236.16 
L 946.8 236.16 
z
" clip-path="url(#p3ac453fef4)" style="fill: none; stroke: #111111; stroke-width: 1.2; stroke-linejoin: miter"/>
   </g>
   <g id="text_9">
    <!-- ⑤ 内含 -->
    <g style="fill: #111111" transform="translate(912.55 153.36) scale(0.14 -0.14)">
     <defs>
      <path id="LXGWWenKai-Regular-2464" d="M 3136 787 
Q 3469 787 3709 915 
Q 3949 1043 4083 1254 
Q 4218 1466 4218 1718 
Q 4218 1971 4083 2153 
Q 3949 2336 3741 2435 
Q 3533 2534 3309 2534 
L 3283 2534 
Q 2970 2534 2730 2444 
Q 2490 2355 2400 2278 
Q 2246 2125 2192 2125 
Q 2138 2125 2070 2201 
Q 2003 2278 2003 2345 
Q 2003 2413 2012 2448 
Q 2022 2483 2041 2531 
Q 2061 2579 2067 2605 
L 2298 3846 
Q 2304 3878 2304 3904 
L 2304 4070 
Q 2304 4134 2400 4134 
Q 2496 4134 2598 4083 
L 3878 4166 
Q 3955 4173 4054 4182 
Q 4154 4192 4224 4198 
L 4230 4198 
Q 4288 4198 4339 4108 
Q 4390 4019 4390 3939 
Q 4390 3859 4326 3859 
Q 4090 3859 3917 3840 
L 2605 3750 
L 2406 2598 
Q 2554 2707 2810 2777 
Q 3066 2848 3322 2848 
L 3354 2848 
Q 3686 2842 3964 2707 
Q 4243 2573 4409 2323 
Q 4576 2074 4576 1715 
Q 4576 1357 4410 1069 
Q 4058 454 3123 454 
Q 2355 454 1888 973 
Q 1856 1018 1856 1098 
Q 1856 1178 1910 1277 
Q 1965 1376 2022 1376 
Q 2054 1376 2080 1338 
Q 2246 1101 2489 947 
Q 2733 794 3123 787 
L 3136 787 
z
M 5744 1280 
Q 5958 1779 5958 2348 
Q 5958 2918 5744 3417 
Q 5530 3917 5149 4297 
Q 4768 4678 4269 4892 
Q 3770 5107 3200 5107 
Q 2630 5107 2131 4892 
Q 1632 4678 1251 4297 
Q 870 3917 656 3417 
Q 442 2918 442 2348 
Q 442 1779 656 1280 
Q 870 781 1251 403 
Q 1632 26 2131 -188 
Q 2630 -403 3200 -403 
Q 3770 -403 4269 -188 
Q 4768 26 5149 403 
Q 5530 781 5744 1280 
z
M 6032 3539 
Q 6272 2982 6272 2348 
Q 6272 1715 6032 1158 
Q 5792 602 5369 179 
Q 4947 -243 4390 -480 
Q 3834 -717 3200 -717 
Q 2566 -717 2009 -480 
Q 1453 -243 1030 179 
Q 608 602 368 1158 
Q 128 1715 128 2348 
Q 128 2982 368 3539 
Q 608 4096 1030 4518 
Q 1453 4941 2009 5181 
Q 2566 5421 3200 5421 
Q 3834 5421 4390 5181 
Q 4947 4941 5369 4518 
Q 5792 4096 6032 3539 
z
" transform="scale(0.015625)"/>
      <path id="LXGWWenKai-Regular-542b" d="M 2662 3296 
Q 2592 3322 2563 3357 
Q 2534 3392 2572 3507 
Q 2611 3622 2656 3648 
Q 2701 3674 2758 3661 
L 2797 3661 
Q 3366 3546 3866 3328 
Q 4006 3277 3968 3155 
Q 3891 2886 3770 2906 
Q 3738 2912 3510 3024 
Q 3283 3136 2662 3296 
z
M 4461 1011 
L 2061 909 
L 2138 -26 
L 4314 58 
L 4461 1011 
z
M 4710 64 
Q 4858 -115 4858 -192 
Q 4858 -269 4800 -281 
Q 4742 -294 4659 -301 
L 2163 -384 
L 2176 -538 
L 2176 -557 
Q 2176 -691 2067 -691 
Q 1958 -691 1852 -617 
Q 1747 -544 1747 -422 
L 1747 -397 
Q 1760 -282 1760 -211 
L 1760 -102 
Q 1760 -64 1754 -26 
L 1664 896 
Q 1651 1088 1549 1293 
Q 1536 1318 1536 1338 
Q 1536 1382 1622 1382 
Q 1709 1382 2061 1248 
L 4550 1363 
L 4627 1363 
Q 4755 1363 4841 1289 
Q 4928 1216 4928 1158 
Q 4928 1101 4909 1072 
Q 4890 1043 4883 1018 
L 4710 64 
z
M 2054 2285 
L 1914 2278 
Q 1792 2278 1754 2317 
Q 1626 2445 1597 2534 
Q 1568 2624 1568 2637 
Q 1568 2675 1597 2675 
Q 1626 2675 1680 2659 
Q 1734 2643 1850 2643 
L 1920 2643 
L 4416 2765 
L 4493 2765 
Q 4640 2765 4707 2678 
Q 4774 2592 4774 2534 
Q 4774 2477 4736 2441 
Q 4698 2406 4678 2387 
Q 4058 1798 3514 1536 
Q 3315 1440 3254 1440 
Q 3194 1440 3117 1533 
Q 3040 1626 3040 1677 
Q 3040 1728 3162 1786 
Q 3750 2061 4192 2406 
L 2054 2285 
z
M 3098 5254 
Q 3238 5254 3369 5139 
Q 3501 5024 3501 4979 
Q 3501 4934 3354 4723 
Q 4019 4083 4700 3587 
Q 5382 3091 6182 2720 
Q 6285 2675 6285 2627 
Q 6285 2579 6221 2509 
Q 6074 2342 5958 2342 
Q 5920 2342 5673 2476 
Q 5427 2611 5030 2880 
Q 4058 3533 3142 4429 
Q 2733 3891 2201 3411 
Q 1670 2931 1030 2540 
Q 390 2150 237 2150 
Q 179 2150 179 2189 
Q 179 2266 358 2381 
Q 2086 3520 2950 4909 
Q 3027 5018 3027 5165 
Q 3040 5254 3098 5254 
z
" transform="scale(0.015625)"/>
     </defs>
     <use xlink:href="#LXGWWenKai-Regular-2464"/>
     <use xlink:href="#LXGWWenKai-Regular-20" transform="translate(99.999985 0)"/>
     <use xlink:href="#LXGWWenKai-Regular-5185" transform="translate(134.999969 0)"/>
     <use xlink:href="#LXGWWenKai-Regular-542b" transform="translate(234.999954 0)"/>
    </g>
   </g>
   <g id="text_10">
    <!-- $d &lt; |r_1 - r_2|$ -->
    <g style="fill: #636363" transform="translate(909.48 282.96) scale(0.12 -0.12)">
     <use xlink:href="#STIXGeneral-Italic-64" transform="translate(0 0.703125)"/>
     <use xlink:href="#STIXGeneral-Regular-3c" transform="translate(64.439981 0.703125)"/>
     <use xlink:href="#STIXGeneral-Regular-7c" transform="translate(147.379962 0.703125)"/>
     <use xlink:href="#STIXGeneral-Italic-72" transform="translate(167.379947 0.703125)"/>
     <use xlink:href="#STIXGeneral-Regular-31" transform="translate(206.279941 -12.525) scale(0.7)"/>
     <use xlink:href="#STIXGeneral-Regular-2212" transform="translate(260.129301 0.703125)"/>
     <use xlink:href="#STIXGeneral-Italic-72" transform="translate(343.069283 0.703125)"/>
     <use xlink:href="#STIXGeneral-Regular-32" transform="translate(381.969276 -12.525) scale(0.7)"/>
     <use xlink:href="#STIXGeneral-Regular-7c" transform="translate(421.378641 0.703125)"/>
    </g>
   </g>
  </g>
 </g>
 <defs>
  <clipPath id="pefa228960a">
   <rect x="54" y="128.16" width="180" height="180"/>
  </clipPath>
  <clipPath id="p63f76db20f">
   <rect x="252" y="128.16" width="180" height="180"/>
  </clipPath>
  <clipPath id="p323d9fdb8b">
   <rect x="450" y="128.16" width="180" height="180"/>
  </clipPath>
  <clipPath id="p22a0e0a45b">
   <rect x="648" y="128.16" width="180" height="180"/>
  </clipPath>
  <clipPath id="p3ac453fef4">
   <rect x="846" y="128.16" width="180" height="180"/>
  </clipPath>
 </defs>
</svg>
