<?xml version="1.0" encoding="utf-8" standalone="no"?>
<!DOCTYPE svg PUBLIC "-//W3C//DTD SVG 1.1//EN"
  "http://www.w3.org/Graphics/SVG/1.1/DTD/svg11.dtd">
<svg xmlns:xlink="http://www.w3.org/1999/xlink" width="720pt" height="504pt" viewBox="0 0 720 504" xmlns="http://www.w3.org/2000/svg" version="1.1">
 <metadata>
  <rdf:RDF xmlns:dc="http://purl.org/dc/elements/1.1/" xmlns:cc="http://creativecommons.org/ns#" xmlns:rdf="http://www.w3.org/1999/02/22-rdf-syntax-ns#">
   <cc:Work>
    <dc:type rdf:resource="http://purl.org/dc/dcmitype/StillImage"/>
    <dc:date>2026-02-12T13:38:08.168884</dc:date>
    <dc:format>image/svg+xml</dc:format>
    <dc:creator>
     <cc:Agent>
      <dc:title>Matplotlib v3.10.8, https://matplotlib.org/</dc:title>
     </cc:Agent>
    </dc:creator>
   </cc:Work>
  </rdf:RDF>
 </metadata>
 <defs>
  <style type="text/css">*{stroke-linejoin: round; stroke-linecap: butt}</style>
 </defs>
 <g id="figure_1">
  <g id="patch_1">
   <path d="M 0 504 
L 720 504 
L 720 0 
L 0 0 
z
" style="fill: #fefdf5"/>
  </g>
  <g id="axes_1">
   <g id="line2d_1">
    <path d="M 360 87.4944 
L 360 106.848 
L 187.2 106.848 
L 187.2 121.3632 
" clip-path="url(#p4e81770e2f)" style="fill: none; stroke: #636363; stroke-width: 1.2; stroke-linecap: square"/>
   </g>
   <g id="line2d_2">
    <path d="M 360 87.4944 
L 360 106.848 
L 532.8 106.848 
L 532.8 121.3632 
" clip-path="url(#p4e81770e2f)" style="fill: none; stroke: #636363; stroke-width: 1.2; stroke-linecap: square"/>
   </g>
   <g id="line2d_3">
    <path d="M 187.2 174.5856 
L 187.2 189.1008 
" clip-path="url(#p4e81770e2f)" style="fill: none; stroke-dasharray: 1,1.65; stroke-dashoffset: 0; stroke: #636363"/>
   </g>
   <g id="line2d_4">
    <path d="M 532.8 174.5856 
L 532.8 189.1008 
" clip-path="url(#p4e81770e2f)" style="fill: none; stroke-dasharray: 1,1.65; stroke-dashoffset: 0; stroke: #636363"/>
   </g>
   <g id="text_1">
    <g id="patch_2">
     <path d="M 240 83.928375 
L 480 83.928375 
Q 494.4 83.928375 494.4 69.528375 
L 494.4 47.399625 
Q 494.4 32.999625 480 32.999625 
L 240 32.999625 
Q 225.6 32.999625 225.6 47.399625 
L 225.6 69.528375 
Q 225.6 83.928375 240 83.928375 
z
" style="fill: #fefdf5; stroke: #111111; stroke-linejoin: miter"/>
    </g>
    <!-- 用坐标法研究几何图形 -->
    <g style="fill: #111111" transform="translate(240 65.399625) scale(0.24 -0.24)">
     <defs>
      <path id="LXGWWenKai-Regular-7528" d="M 5370 -109 
L 5376 -294 
Q 5376 -538 5158 -614 
L 5082 -634 
Q 4954 -634 4698 -448 
Q 3974 77 3974 243 
Q 3974 288 4035 288 
Q 4096 288 4365 141 
Q 4634 -6 4960 -109 
L 4960 1626 
L 3418 1562 
L 3418 -141 
Q 3418 -307 3315 -307 
Q 3290 -307 3206 -275 
Q 3123 -243 3049 -172 
Q 2976 -102 2976 6 
L 2976 38 
Q 2976 58 3001 166 
Q 3027 275 3027 454 
L 3027 1549 
L 1549 1485 
Q 1376 627 941 -45 
Q 762 -320 618 -467 
Q 474 -614 416 -614 
Q 378 -614 378 -553 
Q 378 -493 442 -384 
Q 1005 570 1165 1510 
Q 1267 2150 1267 3443 
Q 1267 3622 1267 3801 
Q 1267 3981 1264 4198 
Q 1261 4416 1206 4531 
Q 1152 4646 1152 4675 
Q 1152 4704 1232 4704 
Q 1312 4704 1658 4550 
L 5075 4762 
L 5126 4762 
Q 5216 4762 5299 4701 
Q 5382 4640 5382 4538 
L 5363 4390 
L 5370 -109 
z
M 4954 4384 
L 3411 4288 
L 3411 3315 
L 4954 3392 
L 4954 4384 
z
M 3027 4269 
L 1664 4186 
Q 1670 3949 1670 3706 
L 1670 3226 
L 3027 3296 
L 3027 4269 
z
M 4954 3034 
L 3411 2957 
L 3418 1920 
L 4960 1984 
L 4954 3034 
z
M 3027 2938 
L 1670 2867 
Q 1658 2131 1613 1850 
L 3027 1907 
L 3027 2938 
z
" transform="scale(0.015625)"/>
      <path id="LXGWWenKai-Regular-5750" d="M 1363 1587 
Q 1491 1562 1632 1562 
L 1715 1562 
L 2925 1619 
L 2931 4646 
Q 2931 4832 2835 4973 
Q 2803 5024 2803 5056 
Q 2803 5088 2860 5088 
Q 2918 5088 3034 5056 
Q 3360 4979 3360 4832 
L 3341 1638 
L 4326 1683 
Q 4467 1690 4540 1718 
Q 4614 1747 4659 1747 
Q 4704 1747 4787 1696 
Q 4870 1645 4934 1571 
Q 4998 1498 4998 1446 
Q 4998 1350 4851 1338 
L 3341 1267 
L 3334 205 
L 5331 262 
Q 5510 275 5603 300 
Q 5696 326 5744 326 
Q 5792 326 5885 259 
Q 5978 192 6048 112 
Q 6118 32 6118 -13 
Q 6118 -77 5958 -96 
L 736 -250 
Q 557 -250 464 -157 
Q 371 -64 339 26 
L 307 122 
Q 307 160 339 160 
Q 371 160 451 141 
Q 531 122 672 122 
L 2918 192 
L 2925 1254 
L 1837 1203 
L 1690 1197 
Q 1555 1197 1494 1251 
Q 1434 1306 1379 1402 
Q 1325 1498 1325 1542 
Q 1325 1587 1363 1587 
z
M 3686 2010 
Q 3597 1939 3549 1939 
Q 3501 1939 3501 1971 
Q 3501 2016 3664 2227 
Q 3827 2438 3993 2761 
Q 4160 3085 4297 3488 
Q 4435 3891 4435 4048 
Q 4435 4205 4409 4265 
Q 4384 4326 4384 4361 
Q 4384 4397 4429 4397 
Q 4474 4397 4582 4365 
Q 4902 4256 4902 4122 
Q 4902 4064 4812 3776 
Q 4723 3488 4653 3309 
Q 5216 2893 5574 2515 
Q 5651 2438 5651 2368 
Q 5651 2298 5555 2208 
Q 5459 2118 5408 2118 
Q 5357 2118 5174 2355 
Q 4992 2592 4512 2995 
Q 4192 2381 3686 2010 
z
M 1702 2906 
Q 1523 2586 1299 2333 
Q 1075 2080 883 1936 
Q 691 1792 633 1792 
Q 576 1792 576 1824 
Q 576 1869 659 1971 
Q 1338 2784 1562 3571 
Q 1651 3866 1651 3965 
Q 1651 4064 1625 4125 
Q 1600 4186 1600 4221 
Q 1600 4256 1645 4256 
Q 1690 4256 1798 4224 
Q 2118 4115 2118 3981 
Q 2118 3910 2025 3641 
Q 1933 3373 1856 3206 
Q 2374 2810 2669 2483 
Q 2746 2406 2746 2336 
Q 2746 2266 2650 2176 
Q 2554 2086 2502 2086 
Q 2451 2086 2368 2189 
Q 2080 2566 1702 2906 
z
" transform="scale(0.015625)"/>
      <path id="LXGWWenKai-Regular-6807" d="M 3226 1997 
Q 3219 2112 3276 2125 
Q 3334 2138 3424 2086 
Q 3661 1965 3674 1805 
Q 3674 1766 3654 1728 
Q 3334 1107 3040 739 
Q 2746 371 2544 201 
Q 2342 32 2291 19 
Q 2240 6 2240 64 
Q 2240 134 2342 282 
Q 2643 704 2934 1184 
Q 3226 1664 3226 1958 
L 3226 1997 
z
M 5779 250 
Q 5709 269 5664 384 
Q 5293 1107 4762 1856 
Q 4672 1965 4864 2112 
Q 4915 2150 4992 2121 
Q 5069 2093 5433 1545 
Q 5798 998 6010 634 
Q 6125 422 5952 288 
Q 5862 218 5779 250 
z
M 1792 -454 
Q 1792 -608 1670 -608 
Q 1664 -608 1587 -589 
Q 1376 -518 1376 -352 
Q 1376 -320 1405 -205 
Q 1434 -90 1434 115 
L 1440 294 
Q 1440 474 1443 755 
Q 1446 1037 1449 1341 
Q 1453 1645 1462 1910 
Q 1472 2176 1472 2310 
L 1478 2400 
Q 1293 1754 691 998 
Q 378 602 282 602 
Q 243 602 243 669 
Q 243 736 314 832 
Q 915 1683 1376 3040 
L 902 3002 
Q 800 2989 717 2989 
Q 634 2989 582 3021 
Q 454 3130 397 3277 
Q 390 3290 390 3315 
Q 390 3360 442 3360 
L 474 3360 
Q 589 3341 691 3341 
L 768 3341 
L 1472 3392 
L 1485 4678 
Q 1485 4794 1430 4877 
Q 1376 4960 1376 4992 
Q 1376 5043 1449 5043 
Q 1523 5043 1657 4995 
Q 1792 4947 1824 4905 
Q 1856 4864 1856 4794 
L 1837 3424 
L 2106 3443 
Q 2266 3462 2307 3478 
Q 2349 3494 2390 3494 
Q 2432 3494 2560 3404 
Q 2688 3315 2688 3232 
Q 2688 3149 2554 3136 
L 1837 3078 
L 1830 2522 
Q 1882 2566 1936 2566 
Q 1990 2566 2112 2445 
Q 2406 2144 2586 1862 
Q 2637 1805 2637 1734 
Q 2637 1664 2534 1606 
Q 2432 1549 2374 1549 
Q 2317 1549 2246 1658 
Q 2042 2010 1824 2253 
L 1792 -454 
z
M 4486 -109 
L 4493 -301 
Q 4493 -403 4425 -508 
Q 4358 -614 4252 -614 
Q 4147 -614 4035 -550 
Q 3923 -486 3792 -396 
Q 3661 -307 3545 -204 
Q 3430 -102 3353 -19 
Q 3277 64 3277 102 
Q 3277 141 3353 141 
Q 3430 141 3651 35 
Q 3872 -70 4090 -134 
L 4077 1830 
L 4070 2176 
L 4070 2509 
L 2931 2458 
L 2829 2458 
Q 2624 2458 2573 2509 
Q 2419 2662 2419 2768 
Q 2419 2874 2477 2874 
Q 2509 2874 2522 2861 
Q 2682 2829 2778 2829 
L 2822 2829 
L 5440 2944 
Q 5498 2950 5562 2953 
Q 5626 2957 5677 2973 
Q 5728 2989 5808 2989 
Q 5888 2989 6003 2886 
Q 6118 2784 6118 2701 
Q 6118 2598 5946 2586 
L 4467 2522 
L 4467 1850 
L 4486 -109 
z
M 3059 4333 
L 3238 4314 
Q 3315 4301 3373 4301 
L 3411 4301 
L 4858 4384 
Q 5030 4403 5078 4416 
Q 5126 4429 5161 4429 
Q 5197 4429 5274 4390 
Q 5478 4282 5478 4154 
Q 5478 4058 5331 4045 
L 3526 3949 
L 3341 3942 
Q 3258 3942 3174 3980 
Q 3091 4019 3008 4224 
Q 3002 4250 3002 4275 
Q 3002 4333 3059 4333 
z
" transform="scale(0.015625)"/>
      <path id="LXGWWenKai-Regular-6cd5" d="M 2758 3712 
L 3789 3770 
L 3789 4672 
Q 3789 4813 3715 4899 
Q 3642 4986 3642 5027 
Q 3642 5069 3741 5069 
Q 3840 5069 3987 5017 
Q 4134 4966 4169 4924 
Q 4205 4883 4205 4800 
L 4205 3795 
L 4922 3840 
Q 5114 3859 5168 3884 
Q 5222 3910 5251 3910 
Q 5280 3910 5363 3853 
Q 5600 3699 5600 3590 
Q 5600 3520 5446 3507 
L 4198 3430 
L 4198 2419 
L 5491 2490 
Q 5690 2509 5741 2531 
Q 5792 2554 5817 2554 
Q 5843 2554 5926 2502 
Q 6170 2362 6170 2234 
Q 6170 2157 6016 2144 
L 4122 2042 
Q 3610 1050 3085 198 
Q 4000 320 5024 544 
Q 4723 934 4403 1299 
Q 4352 1363 4352 1401 
Q 4352 1440 4429 1523 
Q 4506 1606 4570 1606 
Q 4634 1606 4835 1404 
Q 5037 1203 5449 681 
Q 5862 160 5968 9 
Q 6074 -141 6074 -201 
Q 6074 -262 5987 -348 
Q 5901 -435 5808 -435 
Q 5715 -435 5632 -307 
Q 5421 26 5242 256 
Q 4058 -32 3331 -157 
Q 2605 -282 2448 -282 
Q 2291 -282 2211 -192 
Q 2131 -102 2096 -6 
Q 2061 90 2061 102 
Q 2061 141 2112 141 
L 2144 141 
Q 2259 122 2336 122 
L 2445 122 
Q 2483 122 2522 128 
L 2598 134 
Q 3104 947 3603 2016 
L 2605 1965 
Q 2541 1958 2496 1958 
L 2413 1958 
Q 2304 1958 2253 1997 
Q 2042 2176 2042 2317 
Q 2042 2349 2086 2349 
L 2355 2317 
L 3789 2394 
L 3789 3405 
L 3014 3360 
Q 2950 3354 2906 3354 
L 2822 3354 
Q 2579 3354 2464 3648 
Q 2445 3686 2445 3715 
Q 2445 3744 2490 3744 
L 2758 3712 
z
M 2054 4026 
Q 2131 3962 2131 3878 
Q 2131 3795 2028 3718 
Q 1926 3642 1888 3642 
Q 1850 3642 1728 3776 
Q 1382 4160 998 4467 
Q 922 4538 922 4589 
Q 922 4640 982 4713 
Q 1043 4787 1101 4787 
Q 1248 4787 2054 4026 
z
M 1526 2400 
Q 1478 2349 1433 2349 
Q 1389 2349 1117 2592 
Q 845 2835 461 3098 
Q 371 3149 371 3206 
Q 371 3264 425 3350 
Q 480 3437 531 3437 
Q 582 3437 713 3353 
Q 845 3270 1008 3152 
Q 1171 3034 1318 2922 
Q 1466 2810 1555 2739 
Q 1645 2669 1645 2624 
Q 1645 2579 1609 2515 
Q 1574 2451 1526 2400 
z
M 774 -186 
Q 621 -166 512 -80 
Q 403 6 403 32 
Q 403 58 499 118 
Q 595 179 698 314 
Q 1414 1274 1773 1901 
Q 1882 2086 1952 2086 
Q 1997 2086 1997 1997 
Q 1997 1818 1721 1258 
Q 1446 698 1216 326 
Q 986 -45 934 -115 
Q 883 -186 794 -186 
L 774 -186 
z
" transform="scale(0.015625)"/>
      <path id="LXGWWenKai-Regular-7814" d="M 2534 2618 
L 2835 2586 
L 3418 2618 
Q 3430 2822 3430 3040 
L 3430 3814 
Q 3430 3981 3424 4141 
L 3328 4134 
Q 3200 4122 3069 4122 
Q 2938 4122 2886 4173 
Q 2720 4365 2720 4467 
Q 2720 4506 2755 4506 
Q 2790 4506 2848 4490 
Q 2906 4474 3053 4474 
L 5165 4602 
Q 5338 4614 5421 4640 
Q 5504 4666 5555 4666 
Q 5606 4666 5696 4614 
Q 5786 4563 5856 4492 
Q 5926 4422 5926 4371 
Q 5926 4288 5805 4275 
L 5075 4237 
L 5075 2714 
L 5440 2733 
Q 5555 2746 5667 2774 
Q 5779 2803 5811 2803 
Q 5843 2803 5939 2758 
Q 6202 2637 6202 2496 
Q 6202 2406 6080 2394 
L 5075 2342 
L 5069 -410 
Q 5069 -576 4954 -576 
Q 4864 -576 4742 -499 
Q 4621 -422 4621 -314 
L 4627 -243 
Q 4666 64 4666 262 
L 4672 2317 
L 3795 2272 
Q 3763 1920 3696 1517 
Q 3629 1114 3446 733 
Q 3264 352 3062 102 
Q 2861 -147 2704 -272 
Q 2547 -397 2505 -397 
Q 2464 -397 2464 -349 
Q 2464 -301 2528 -211 
Q 3187 717 3322 1574 
Q 3379 1946 3398 2246 
L 3104 2234 
Q 2931 2214 2860 2214 
Q 2790 2214 2681 2259 
Q 2573 2304 2502 2541 
Q 2496 2554 2496 2586 
Q 2496 2618 2534 2618 
z
M 2310 1024 
Q 2458 845 2458 784 
Q 2458 723 2406 713 
Q 2355 704 2285 698 
L 1370 666 
L 1376 422 
L 1376 403 
Q 1376 262 1261 262 
Q 1133 262 1043 352 
Q 954 442 954 518 
L 992 870 
L 992 928 
L 954 2093 
Q 678 1619 384 1318 
Q 262 1190 218 1190 
Q 186 1190 186 1241 
Q 186 1293 250 1402 
Q 896 2515 1306 3942 
L 877 3917 
Q 762 3904 672 3904 
Q 582 3904 467 4022 
Q 352 4141 352 4211 
Q 352 4282 384 4282 
Q 416 4282 480 4266 
Q 544 4250 678 4250 
L 755 4250 
L 2118 4339 
Q 2272 4358 2320 4374 
Q 2368 4390 2416 4390 
Q 2464 4390 2534 4339 
Q 2720 4224 2720 4115 
Q 2720 4038 2586 4026 
L 1734 3974 
Q 1504 3219 1286 2746 
Q 1299 2746 1312 2733 
L 2093 2778 
L 2182 2778 
Q 2291 2778 2368 2714 
Q 2445 2650 2445 2589 
Q 2445 2528 2429 2496 
Q 2413 2464 2406 2432 
L 2310 1024 
z
M 3834 4166 
L 3840 3501 
Q 3840 3066 3821 2643 
L 4672 2688 
L 4678 4211 
L 3834 4166 
z
M 2010 2438 
L 1312 2406 
L 1357 992 
L 1952 1018 
L 2010 2438 
z
" transform="scale(0.015625)"/>
      <path id="LXGWWenKai-Regular-7a76" d="M 5286 2617 
Q 5286 2534 5200 2435 
Q 5114 2336 5069 2336 
Q 5024 2336 4979 2368 
Q 4237 3002 3610 3373 
Q 3539 3411 3539 3446 
Q 3539 3482 3558 3533 
Q 3603 3693 3706 3693 
Q 3738 3693 3955 3578 
Q 4531 3283 5210 2758 
Q 5286 2701 5286 2617 
z
M 2579 3213 
Q 2163 2810 1782 2576 
Q 1402 2342 1142 2243 
Q 883 2144 819 2144 
Q 755 2144 755 2185 
Q 755 2227 858 2298 
Q 1645 2810 2080 3341 
Q 2189 3469 2189 3597 
Q 2189 3725 2256 3725 
Q 2323 3725 2412 3641 
Q 2502 3558 2569 3459 
Q 2637 3360 2637 3315 
Q 2637 3270 2579 3213 
z
M 5875 1235 
Q 5971 1235 5971 602 
Q 5971 346 5952 160 
Q 5933 -26 5843 -141 
Q 5664 -378 4954 -378 
Q 4518 -378 4272 -275 
Q 4026 -173 4026 173 
Q 4026 243 4038 320 
L 4250 1626 
L 3008 1542 
Q 2701 614 2109 179 
Q 1517 -256 934 -429 
Q 691 -499 598 -499 
Q 506 -499 506 -461 
Q 506 -390 698 -307 
Q 1722 122 2227 858 
Q 2458 1190 2566 1517 
L 1587 1453 
Q 1459 1440 1360 1440 
Q 1261 1440 1184 1507 
Q 1107 1574 1065 1657 
Q 1024 1741 1024 1773 
Q 1024 1805 1069 1805 
L 1312 1786 
L 1434 1786 
Q 1491 1786 1530 1792 
L 2669 1875 
Q 2726 2144 2732 2358 
Q 2739 2573 2729 2640 
Q 2720 2707 2691 2758 
Q 2662 2810 2662 2835 
Q 2662 2893 2752 2893 
Q 2771 2893 2880 2867 
Q 3200 2810 3200 2630 
L 3200 2618 
Q 3181 2246 3104 1901 
L 4346 1990 
L 4422 1997 
Q 4570 1997 4643 1901 
Q 4717 1805 4717 1766 
Q 4717 1728 4694 1689 
Q 4672 1651 4666 1613 
L 4461 384 
Q 4448 294 4448 240 
Q 4448 186 4467 128 
Q 4525 6 4998 6 
Q 5210 6 5334 32 
Q 5459 58 5529 154 
Q 5600 250 5651 464 
Q 5702 678 5773 1050 
Q 5811 1235 5875 1235 
z
M 1421 4698 
Q 1568 4653 1568 4563 
Q 1568 4474 1498 4288 
L 2995 4378 
L 2995 4870 
Q 2995 5030 2934 5104 
Q 2874 5178 2874 5210 
Q 2874 5261 2966 5261 
Q 3059 5261 3193 5213 
Q 3328 5165 3360 5123 
Q 3392 5082 3392 5011 
L 3386 4397 
L 5574 4525 
L 5626 4525 
Q 5734 4525 5827 4457 
Q 5920 4390 5920 4323 
Q 5920 4256 5878 4217 
Q 5837 4179 5750 4041 
Q 5664 3904 5504 3712 
Q 5158 3309 5037 3309 
Q 4992 3309 4992 3369 
Q 4992 3430 5123 3648 
Q 5254 3866 5363 4160 
L 1382 3936 
Q 1018 2970 890 2970 
Q 883 2970 806 3002 
Q 602 3091 602 3194 
Q 602 3238 704 3417 
Q 806 3597 956 3945 
Q 1107 4294 1158 4470 
Q 1210 4646 1238 4681 
Q 1267 4717 1315 4717 
Q 1363 4717 1421 4698 
z
" transform="scale(0.015625)"/>
      <path id="LXGWWenKai-Regular-51e0" d="M 6106 1734 
Q 6214 1734 6214 1062 
Q 6214 390 6147 233 
Q 6080 77 5946 -13 
Q 5664 -192 4813 -192 
Q 4352 -192 4169 -125 
Q 3987 -58 3897 73 
Q 3808 205 3808 442 
L 3840 4422 
L 2118 4333 
L 2118 3955 
Q 2118 2790 1993 1888 
Q 1869 986 1357 371 
Q 966 -109 544 -333 
Q 384 -422 336 -422 
Q 288 -422 288 -374 
Q 288 -326 416 -205 
Q 800 154 1046 525 
Q 1293 896 1434 1357 
Q 1683 2214 1683 3987 
L 1683 4339 
Q 1683 4582 1587 4723 
Q 1568 4762 1568 4794 
Q 1568 4826 1657 4826 
Q 1747 4826 2125 4698 
L 3930 4819 
L 4006 4826 
Q 4096 4826 4195 4755 
Q 4294 4685 4294 4582 
L 4269 4442 
L 4230 550 
Q 4230 333 4374 285 
Q 4518 237 4803 237 
Q 5088 237 5536 314 
Q 5728 346 5779 506 
Q 5933 1082 5977 1408 
Q 6022 1734 6106 1734 
z
" transform="scale(0.015625)"/>
      <path id="LXGWWenKai-Regular-4f55" d="M 1792 4653 
Q 1824 4749 1824 4822 
Q 1824 4896 1805 4973 
Q 1805 5037 1875 5037 
Q 1946 5037 2048 4992 
Q 2298 4877 2298 4768 
Q 2298 4742 2214 4544 
Q 1990 3987 1632 3418 
L 1632 -410 
Q 1632 -538 1517 -538 
Q 1382 -538 1286 -454 
Q 1190 -371 1190 -297 
Q 1190 -224 1209 -137 
Q 1229 -51 1229 160 
L 1254 2886 
Q 851 2336 448 1997 
Q 294 1862 243 1862 
Q 205 1862 205 1916 
Q 205 1971 288 2080 
Q 1350 3462 1792 4653 
z
M 5299 -19 
L 5318 -262 
Q 5318 -410 5206 -509 
Q 5094 -608 5027 -608 
Q 4960 -608 4762 -512 
Q 4269 -288 3821 77 
Q 3667 211 3667 269 
Q 3667 301 3734 301 
Q 3802 301 4019 201 
Q 4237 102 4883 -70 
L 4877 3917 
L 2752 3814 
L 2515 3802 
Q 2387 3802 2300 3878 
Q 2214 3955 2176 4048 
Q 2138 4141 2138 4173 
Q 2138 4205 2166 4205 
Q 2195 4205 2265 4189 
Q 2336 4173 2483 4173 
L 2573 4173 
L 5549 4314 
Q 5683 4320 5750 4345 
Q 5818 4371 5866 4371 
Q 5914 4371 5997 4314 
Q 6208 4179 6208 4070 
Q 6208 3994 6048 3974 
L 5293 3936 
L 5299 -19 
z
M 2464 1357 
Q 2483 1491 2483 1523 
L 2483 1677 
Q 2483 1722 2477 1766 
L 2400 2611 
Q 2381 2790 2323 2876 
Q 2266 2963 2266 2995 
Q 2266 3027 2362 3027 
Q 2458 3027 2746 2912 
L 3917 2976 
L 3968 2976 
Q 4090 2976 4163 2905 
Q 4237 2835 4237 2784 
Q 4237 2733 4221 2707 
Q 4205 2682 4198 2656 
L 4090 1805 
Q 4269 1606 4269 1545 
Q 4269 1485 4211 1475 
Q 4154 1466 4083 1459 
L 2880 1414 
L 2886 1293 
L 2886 1267 
Q 2886 1139 2796 1139 
Q 2707 1139 2585 1200 
Q 2464 1261 2464 1357 
z
M 3770 2624 
L 2803 2573 
L 2854 1754 
L 3712 1786 
L 3770 2624 
z
" transform="scale(0.015625)"/>
      <path id="LXGWWenKai-Regular-56fe" d="M 5498 250 
Q 5715 19 5715 -54 
Q 5715 -128 5651 -134 
Q 5587 -141 5498 -147 
L 1325 -243 
L 1325 -454 
Q 1325 -621 1222 -621 
Q 1082 -621 989 -534 
Q 896 -448 896 -377 
Q 896 -307 918 -195 
Q 941 -83 941 166 
L 934 4365 
Q 934 4595 851 4749 
Q 838 4781 825 4809 
Q 813 4838 813 4858 
Q 813 4902 896 4902 
Q 979 4902 1344 4774 
L 5171 4947 
L 5229 4947 
Q 5376 4947 5472 4864 
Q 5568 4781 5568 4726 
Q 5568 4672 5545 4643 
Q 5523 4614 5523 4582 
L 5498 250 
z
M 5139 4614 
L 1306 4435 
L 1325 109 
L 5120 218 
L 5139 4614 
z
M 3885 1478 
Q 3885 1414 3833 1331 
Q 3782 1248 3718 1248 
Q 3654 1248 3430 1379 
Q 3206 1510 2739 1696 
Q 2643 1728 2643 1792 
Q 2643 1856 2688 1917 
Q 2733 1978 2784 1978 
Q 2835 1978 2992 1930 
Q 3149 1882 3449 1747 
Q 3750 1613 3763 1606 
Q 3885 1542 3885 1478 
z
M 3622 442 
Q 3040 800 2483 1030 
Q 2387 1075 2387 1142 
Q 2387 1210 2432 1277 
Q 2477 1344 2534 1344 
Q 2592 1344 3037 1145 
Q 3482 947 3930 710 
Q 4051 640 4051 553 
Q 4051 467 3977 390 
Q 3904 314 3869 314 
Q 3834 314 3622 442 
z
M 2982 3795 
L 3846 3853 
L 3891 3853 
Q 4109 3853 4173 3731 
Q 4198 3680 4198 3635 
Q 4198 3590 4156 3555 
Q 4115 3520 4102 3501 
Q 3891 3091 3475 2656 
Q 4051 2227 4941 1888 
Q 5024 1856 5024 1801 
Q 5024 1747 4909 1660 
Q 4794 1574 4704 1574 
Q 4614 1574 4121 1849 
Q 3629 2125 3238 2432 
Q 2509 1811 1734 1510 
Q 1555 1446 1488 1446 
Q 1421 1446 1421 1504 
Q 1421 1574 1568 1651 
Q 2470 2150 2989 2650 
Q 2752 2854 2496 3149 
Q 2246 2880 2028 2717 
Q 1811 2554 1747 2554 
Q 1696 2554 1696 2621 
Q 1696 2688 1776 2761 
Q 1856 2835 2067 3081 
Q 2278 3328 2490 3648 
Q 2765 4090 2771 4314 
Q 2771 4378 2819 4378 
Q 2867 4378 2944 4346 
Q 3162 4256 3162 4134 
Q 3162 4032 2982 3795 
z
M 2771 3488 
L 2688 3373 
Q 2880 3142 3206 2867 
Q 3539 3226 3706 3539 
L 2771 3488 
z
" transform="scale(0.015625)"/>
      <path id="LXGWWenKai-Regular-5f62" d="M 5574 4602 
Q 5005 3872 4326 3450 
Q 4045 3277 3853 3197 
Q 3661 3117 3600 3117 
Q 3539 3117 3539 3162 
Q 3539 3219 3661 3302 
Q 4237 3712 4717 4221 
Q 5197 4730 5197 4915 
Q 5203 5030 5267 5030 
Q 5312 5030 5395 4972 
Q 5478 4915 5548 4835 
Q 5619 4755 5619 4707 
Q 5619 4659 5574 4602 
z
M 2829 -390 
Q 2829 -538 2710 -538 
Q 2592 -538 2496 -461 
Q 2400 -384 2400 -301 
L 2400 -250 
Q 2426 6 2426 320 
L 2426 2381 
L 1683 2342 
Q 1600 986 1088 192 
Q 851 -166 576 -435 
Q 493 -518 438 -518 
Q 384 -518 384 -464 
Q 384 -410 505 -246 
Q 627 -83 806 269 
Q 1203 1075 1286 2323 
L 717 2291 
L 640 2291 
Q 538 2291 438 2368 
Q 339 2445 294 2624 
L 294 2650 
Q 294 2688 326 2688 
Q 358 2688 428 2665 
Q 499 2643 621 2643 
L 672 2643 
L 1306 2675 
Q 1325 3174 1325 4122 
L 1037 4109 
L 979 4109 
Q 826 4109 736 4211 
Q 646 4314 614 4429 
L 614 4454 
Q 614 4493 646 4493 
Q 678 4493 752 4470 
Q 826 4448 941 4448 
L 992 4448 
L 2995 4550 
Q 3110 4563 3177 4585 
Q 3245 4608 3289 4608 
Q 3334 4608 3405 4557 
Q 3578 4435 3578 4326 
Q 3578 4250 3418 4237 
L 2810 4205 
L 2816 2752 
L 3200 2771 
Q 3315 2784 3385 2803 
Q 3456 2822 3504 2822 
Q 3552 2822 3622 2761 
Q 3693 2701 3737 2630 
Q 3782 2560 3782 2534 
Q 3782 2458 3622 2445 
L 2816 2400 
L 2829 -390 
z
M 1734 3661 
Q 1734 3142 1709 2694 
L 2426 2733 
L 2426 4186 
L 1728 4147 
L 1734 3661 
z
M 5709 3226 
Q 5107 2342 4314 1869 
Q 3994 1670 3779 1584 
Q 3565 1498 3513 1498 
Q 3462 1498 3462 1552 
Q 3462 1606 3584 1690 
Q 4282 2170 4806 2736 
Q 5331 3302 5344 3558 
Q 5357 3674 5417 3674 
Q 5478 3674 5558 3610 
Q 5638 3546 5696 3466 
Q 5754 3386 5754 3338 
Q 5754 3290 5709 3226 
z
M 5542 2182 
Q 5542 2266 5606 2266 
Q 5709 2266 5843 2131 
Q 5978 1997 5978 1936 
Q 5978 1875 5939 1818 
Q 5318 768 4448 109 
Q 3808 -378 3264 -570 
Q 3066 -640 3011 -640 
Q 2957 -640 2957 -582 
Q 2957 -525 3098 -442 
Q 3891 32 4451 617 
Q 5011 1203 5466 1882 
Q 5542 2003 5542 2138 
L 5542 2182 
z
" transform="scale(0.015625)"/>
     </defs>
     <use xlink:href="#LXGWWenKai-Regular-7528"/>
     <use xlink:href="#LXGWWenKai-Regular-5750" transform="translate(99.999985 0)"/>
     <use xlink:href="#LXGWWenKai-Regular-6807" transform="translate(199.999969 0)"/>
     <use xlink:href="#LXGWWenKai-Regular-6cd5" transform="translate(299.999954 0)"/>
     <use xlink:href="#LXGWWenKai-Regular-7814" transform="translate(399.999939 0)"/>
     <use xlink:href="#LXGWWenKai-Regular-7a76" transform="translate(499.999924 0)"/>
     <use xlink:href="#LXGWWenKai-Regular-51e0" transform="translate(599.999908 0)"/>
     <use xlink:href="#LXGWWenKai-Regular-4f55" transform="translate(699.999893 0)"/>
     <use xlink:href="#LXGWWenKai-Regular-56fe" transform="translate(799.999878 0)"/>
     <use xlink:href="#LXGWWenKai-Regular-5f62" transform="translate(899.999863 0)"/>
    </g>
   </g>
   <g id="text_2">
    <g id="patch_3">
     <path d="M 106.2 164.7252 
L 268.2 164.7252 
Q 279 164.7252 279 153.9252 
L 279 137.1852 
Q 279 126.3852 268.2 126.3852 
L 106.2 126.3852 
Q 95.4 126.3852 95.4 137.1852 
L 95.4 153.9252 
Q 95.4 164.7252 106.2 164.7252 
z
" style="fill: #fefdf5; stroke: #111111; stroke-linejoin: miter"/>
    </g>
    <!-- 直线与圆的位置关系 -->
    <g style="fill: #111111" transform="translate(106.2 150.828637) scale(0.18 -0.18)">
     <defs>
      <path id="LXGWWenKai-Regular-76f4" d="M 2131 70 
L 4198 141 
L 4211 710 
L 2125 621 
L 2131 70 
z
M 2125 947 
L 4218 1037 
L 4224 1562 
L 2118 1446 
L 2125 947 
z
M 2118 1773 
L 4230 1882 
L 4243 2394 
L 2106 2285 
L 2118 1773 
z
M 2099 2592 
L 4250 2694 
L 4256 3213 
L 2093 3091 
L 2099 2592 
z
M 704 -326 
Q 595 -326 492 -262 
Q 390 -198 320 13 
Q 314 26 314 45 
Q 314 70 339 70 
Q 365 70 384 64 
Q 512 26 666 26 
L 723 26 
L 1741 58 
L 1709 3059 
Q 1709 3277 1626 3405 
Q 1574 3494 1574 3520 
Q 1574 3558 1632 3558 
Q 1734 3558 2125 3405 
L 2893 3450 
L 2938 3974 
L 1427 3885 
Q 1363 3878 1254 3878 
L 1190 3878 
Q 1120 3878 1062 3923 
Q 992 3994 944 4074 
Q 896 4154 896 4205 
Q 896 4237 928 4237 
L 954 4230 
Q 1050 4205 1203 4205 
L 1306 4205 
L 2963 4301 
L 3008 4794 
L 3008 4813 
Q 3008 4941 2938 5069 
Q 2912 5120 2912 5146 
Q 2912 5203 3002 5203 
Q 3187 5171 3315 5107 
Q 3443 5043 3443 4947 
L 3443 4941 
L 3373 4326 
L 4742 4410 
Q 4896 4422 4986 4454 
Q 5024 4474 5069 4474 
Q 5146 4474 5226 4422 
Q 5306 4371 5360 4300 
Q 5414 4230 5414 4192 
Q 5414 4128 5254 4115 
L 3341 4000 
L 3277 3475 
L 4384 3546 
L 4461 3552 
Q 4557 3552 4637 3462 
Q 4717 3373 4717 3322 
Q 4717 3302 4697 3260 
Q 4678 3219 4678 3194 
L 4576 154 
L 5274 179 
Q 5491 192 5619 230 
Q 5709 256 5734 256 
Q 5805 256 5945 144 
Q 6086 32 6086 -51 
Q 6086 -128 5914 -141 
L 858 -320 
L 704 -326 
z
" transform="scale(0.015625)"/>
      <path id="LXGWWenKai-Regular-7ebf" d="M 1837 1888 
Q 2112 1933 2281 1961 
Q 2451 1990 2544 1984 
Q 2637 1978 2630 1926 
Q 2624 1837 2243 1680 
Q 1862 1523 1430 1414 
Q 998 1306 928 1312 
Q 858 1318 813 1357 
Q 691 1504 659 1609 
Q 627 1715 627 1728 
Q 634 1786 698 1779 
L 794 1773 
Q 922 1760 1043 1766 
Q 1299 2144 1517 2515 
L 1574 2605 
Q 1088 2944 608 3149 
Q 499 3200 486 3251 
Q 474 3302 518 3401 
Q 563 3501 624 3513 
Q 685 3526 806 3482 
Q 832 3469 851 3462 
Q 1395 4250 1510 4544 
Q 1626 4838 1626 4979 
L 1626 5043 
Q 1626 5114 1677 5114 
Q 1709 5114 1798 5062 
Q 2042 4915 2042 4781 
Q 2003 4621 1792 4250 
Q 1600 3904 1171 3290 
L 1325 3206 
Q 1600 3053 1779 2931 
Q 2202 3648 2246 3834 
Q 2259 3891 2265 3987 
Q 2272 4083 2307 4083 
Q 2342 4083 2426 4032 
Q 2662 3891 2669 3750 
Q 2669 3706 2650 3661 
Q 2093 2688 1504 1830 
Q 1664 1862 1837 1888 
z
M 1549 627 
Q 2099 845 2419 989 
Q 2739 1133 2796 1139 
Q 2854 1146 2861 1126 
Q 2874 986 1926 442 
Q 979 -102 813 -115 
Q 768 -122 681 -45 
Q 595 32 534 128 
Q 474 224 467 275 
Q 467 301 531 307 
L 595 314 
Q 698 320 883 378 
L 1549 627 
z
M 5274 4154 
Q 5171 4019 4992 4192 
Q 4640 4550 4461 4688 
Q 4282 4826 4291 4890 
Q 4301 4954 4355 5014 
Q 4410 5075 4451 5062 
Q 4493 5050 4595 4979 
Q 5370 4467 5350 4282 
Q 5338 4237 5274 4154 
z
M 3987 3226 
Q 4122 2598 4141 2483 
L 5254 2682 
Q 5357 2701 5424 2736 
Q 5491 2771 5523 2774 
Q 5555 2778 5632 2733 
Q 5837 2598 5850 2490 
Q 5862 2419 5702 2387 
L 4237 2125 
L 4294 1920 
Q 4307 1888 4320 1856 
Q 4333 1824 4384 1667 
Q 4435 1510 4582 1222 
Q 5101 1638 5165 1724 
Q 5229 1811 5241 1891 
Q 5254 1971 5289 1971 
Q 5325 1971 5395 1914 
Q 5587 1741 5587 1600 
Q 5587 1542 5530 1485 
Q 5139 1146 4768 896 
Q 5165 269 5683 -70 
Q 5702 -77 5718 -86 
Q 5734 -96 5747 -96 
Q 5843 -96 6048 896 
Q 6106 1171 6173 1171 
Q 6240 1171 6240 922 
L 6240 870 
Q 6234 390 6144 -218 
Q 6118 -397 6048 -473 
Q 5978 -550 5805 -550 
Q 5632 -550 5389 -390 
Q 4896 -70 4435 685 
Q 3571 186 2534 -90 
Q 2342 -141 2281 -141 
Q 2221 -141 2221 -96 
Q 2221 -26 2387 38 
Q 3603 563 4256 998 
Q 4205 1107 4150 1222 
Q 4096 1338 3910 1850 
L 3859 2054 
L 3187 1939 
L 3091 1926 
Q 2989 1914 2893 1965 
Q 2797 2016 2701 2202 
Q 2669 2278 2726 2285 
Q 2752 2291 2829 2281 
Q 2906 2272 3085 2291 
L 3757 2406 
Q 3718 2573 3686 2739 
L 3610 3149 
L 3277 3085 
L 3181 3072 
Q 3014 3046 2950 3136 
Q 2906 3181 2848 3267 
Q 2790 3354 2790 3386 
Q 2778 3437 2854 3430 
Q 2963 3418 3078 3437 
L 3162 3443 
L 3552 3520 
L 3501 3878 
Q 3450 4218 3418 4538 
Q 3386 4858 3357 4928 
Q 3328 4998 3277 5056 
Q 3226 5114 3226 5146 
Q 3226 5197 3293 5197 
Q 3360 5197 3469 5190 
Q 3763 5165 3776 4979 
Q 3808 4493 3878 3936 
L 3923 3610 
L 3923 3590 
L 4774 3750 
Q 4832 3763 4921 3798 
Q 5011 3834 5052 3840 
Q 5094 3846 5177 3808 
Q 5261 3770 5325 3712 
Q 5510 3526 5210 3469 
L 3987 3226 
z
" transform="scale(0.015625)"/>
      <path id="LXGWWenKai-Regular-4e0e" d="M 4800 1638 
Q 4883 2170 4909 2522 
L 2042 2381 
Q 1971 2374 1920 2358 
Q 1869 2342 1798 2342 
Q 1728 2342 1629 2387 
Q 1530 2432 1530 2547 
Q 1530 2586 1654 3101 
Q 1779 3616 1884 4173 
Q 1990 4730 1990 4832 
Q 1990 4934 1968 5014 
Q 1946 5094 1946 5126 
Q 1946 5178 2006 5178 
Q 2067 5178 2189 5126 
Q 2445 5024 2445 4896 
L 2342 4378 
Q 2298 4122 2246 3872 
L 4198 3974 
Q 4602 4006 4678 4038 
Q 4755 4070 4816 4070 
Q 4877 4070 4966 4019 
Q 5056 3968 5123 3894 
Q 5190 3821 5190 3763 
Q 5190 3686 5056 3674 
L 2170 3520 
L 1978 2739 
L 4998 2886 
L 5050 2886 
Q 5152 2886 5267 2819 
Q 5382 2752 5382 2672 
Q 5382 2592 5366 2547 
Q 5350 2502 5331 2326 
Q 5312 2150 5235 1658 
L 5171 1306 
Q 5037 627 4902 195 
Q 4768 -237 4678 -393 
Q 4589 -550 4505 -604 
Q 4422 -659 4352 -659 
Q 4282 -659 4006 -534 
Q 3731 -410 3302 -112 
Q 2874 186 2874 307 
Q 2874 358 2947 358 
Q 3021 358 3305 217 
Q 3590 77 4211 -128 
L 4237 -134 
Q 4282 -134 4307 -96 
Q 4538 352 4736 1286 
L 4800 1638 
z
M 941 1146 
Q 787 1133 678 1133 
Q 570 1133 483 1213 
Q 397 1293 352 1379 
Q 307 1466 307 1498 
Q 307 1530 358 1530 
L 390 1530 
Q 538 1485 742 1485 
L 832 1485 
L 3354 1600 
Q 3526 1606 3692 1644 
Q 3859 1683 3907 1683 
Q 3955 1683 4038 1632 
Q 4250 1504 4250 1376 
Q 4250 1299 4147 1286 
L 941 1146 
z
" transform="scale(0.015625)"/>
      <path id="LXGWWenKai-Regular-5706" d="M 5562 173 
Q 5766 -51 5766 -121 
Q 5766 -192 5702 -201 
Q 5638 -211 5549 -218 
L 1248 -314 
L 1248 -518 
Q 1248 -685 1139 -685 
Q 998 -685 899 -585 
Q 800 -486 800 -390 
L 800 -358 
Q 800 -333 822 -243 
Q 845 -154 845 102 
L 838 4358 
Q 838 4557 730 4774 
Q 717 4800 717 4819 
Q 717 4864 800 4864 
Q 883 4864 1248 4736 
L 5229 4973 
L 5286 4973 
Q 5517 4973 5581 4819 
Q 5606 4762 5606 4742 
L 5581 4608 
L 5562 173 
z
M 5165 4602 
L 1235 4384 
L 1248 45 
L 5152 154 
L 5165 4602 
z
M 4474 192 
Q 4429 192 4301 282 
Q 3981 518 3373 781 
Q 3290 826 3290 883 
Q 3290 941 3347 1017 
Q 3405 1094 3462 1094 
Q 3520 1094 4000 860 
Q 4480 627 4560 579 
Q 4640 531 4640 473 
Q 4640 416 4595 304 
Q 4550 192 4474 192 
z
M 2048 1434 
L 1958 2432 
Q 1946 2643 1904 2736 
Q 1862 2829 1862 2857 
Q 1862 2886 1936 2886 
Q 2010 2886 2336 2790 
L 4109 2886 
L 4128 2886 
Q 4230 2886 4323 2809 
Q 4416 2733 4416 2691 
Q 4416 2650 4403 2624 
Q 4390 2598 4384 2573 
L 4301 1472 
L 4294 1178 
L 4288 1114 
Q 4275 1018 4192 1030 
Q 4090 1030 3987 1110 
Q 3885 1190 3923 1308 
Q 3962 1427 4019 2592 
L 2304 2502 
L 2381 1421 
L 2400 1126 
L 2400 1062 
Q 2400 966 2297 966 
Q 2195 966 2108 1024 
Q 2022 1082 2022 1165 
L 2048 1434 
z
M 2189 3232 
L 2195 3315 
Q 2195 3373 2182 3450 
L 2138 3904 
Q 2125 4045 2070 4137 
Q 2016 4230 2016 4262 
Q 2016 4294 2077 4294 
Q 2138 4294 2445 4173 
L 3930 4269 
L 3974 4269 
Q 4077 4269 4141 4211 
Q 4205 4154 4205 4112 
Q 4205 4070 4195 4041 
Q 4186 4013 4179 3987 
L 4070 3462 
Q 4218 3309 4218 3267 
Q 4218 3226 4173 3222 
Q 4128 3219 4064 3213 
L 2560 3136 
L 2560 3110 
Q 2560 3021 2451 3021 
Q 2342 3021 2265 3065 
Q 2189 3110 2189 3194 
L 2189 3232 
z
M 3795 3974 
L 2483 3891 
L 2528 3411 
L 3725 3482 
L 3795 3974 
z
M 3059 2010 
Q 3059 2131 3027 2182 
Q 2995 2234 2995 2259 
Q 2995 2330 3116 2330 
Q 3238 2330 3328 2278 
Q 3418 2227 3418 2131 
Q 3398 1549 3273 1248 
Q 3149 947 2985 777 
Q 2822 608 2633 489 
Q 2445 371 2272 300 
Q 2099 230 1894 182 
Q 1690 134 1664 134 
Q 1568 134 1568 217 
Q 1568 301 1677 352 
Q 2707 691 2938 1318 
Q 3046 1606 3052 1718 
Q 3059 1830 3059 1914 
L 3059 2010 
z
" transform="scale(0.015625)"/>
      <path id="LXGWWenKai-Regular-7684" d="M 3846 4890 
L 3834 4992 
Q 3834 5069 3898 5069 
Q 3917 5069 4019 5024 
Q 4307 4896 4307 4762 
Q 4307 4589 3898 3738 
L 5504 3834 
L 5530 3834 
Q 5613 3834 5696 3773 
Q 5779 3712 5779 3616 
L 5760 3469 
Q 5709 1747 5530 301 
Q 5427 -544 5082 -544 
Q 4934 -544 4841 -483 
Q 4749 -422 4605 -313 
Q 4461 -205 4301 -70 
Q 4141 64 4025 179 
Q 3910 294 3910 345 
Q 3910 397 3984 397 
Q 4058 397 4282 262 
Q 4506 128 4947 -45 
L 4960 -45 
Q 4998 -45 5018 6 
Q 5299 1107 5338 3469 
L 3731 3366 
Q 3450 2880 3232 2595 
Q 3014 2310 2944 2310 
Q 2912 2310 2912 2371 
Q 2912 2432 3104 2787 
Q 3296 3142 3571 3875 
Q 3846 4608 3846 4845 
L 3846 4890 
z
M 1715 4749 
Q 1715 4768 1702 4845 
Q 1702 4922 1779 4922 
Q 1920 4922 2035 4832 
Q 2150 4742 2150 4665 
Q 2150 4589 1920 4160 
Q 1715 3802 1581 3603 
L 2483 3654 
L 2560 3654 
Q 2746 3654 2803 3507 
Q 2822 3462 2822 3456 
L 2790 3328 
L 2688 480 
Q 2842 282 2842 214 
Q 2842 147 2790 134 
Q 2739 122 2656 115 
L 1229 64 
L 1235 -147 
L 1235 -166 
Q 1235 -307 1126 -307 
Q 979 -307 892 -233 
Q 806 -160 806 -77 
L 851 243 
L 794 3232 
Q 794 3418 717 3539 
Q 672 3629 672 3664 
Q 672 3699 768 3699 
Q 864 3699 1165 3584 
L 1222 3584 
Q 1715 4512 1715 4749 
z
M 2400 3302 
L 1171 3238 
L 1190 2061 
L 2368 2118 
L 2400 3302 
z
M 4755 1446 
Q 4755 1318 4589 1229 
Q 4525 1190 4483 1190 
Q 4442 1190 4358 1299 
Q 4160 1619 3913 1913 
Q 3667 2208 3564 2307 
Q 3462 2406 3462 2464 
Q 3462 2522 3532 2589 
Q 3603 2656 3657 2656 
Q 3712 2656 3869 2505 
Q 4026 2355 4390 1939 
Q 4755 1523 4755 1446 
z
M 2355 1773 
L 1197 1722 
L 1222 422 
L 2317 461 
L 2355 1773 
z
" transform="scale(0.015625)"/>
      <path id="LXGWWenKai-Regular-4f4d" d="M 1472 3814 
Q 1683 4218 1795 4506 
Q 1907 4794 1907 4864 
L 1907 4954 
Q 1907 4979 1888 5056 
Q 1888 5107 1955 5107 
Q 2022 5107 2128 5056 
Q 2234 5005 2314 4934 
Q 2394 4864 2394 4806 
Q 2394 4749 2173 4275 
Q 1952 3802 1670 3360 
L 1670 -493 
Q 1670 -621 1536 -621 
Q 1402 -621 1309 -521 
Q 1216 -422 1216 -364 
Q 1216 -307 1235 -220 
Q 1254 -134 1254 77 
L 1280 2810 
Q 1056 2522 806 2266 
Q 352 1779 237 1779 
Q 186 1779 186 1843 
Q 186 1907 269 1997 
Q 992 2893 1472 3814 
z
M 2643 3181 
L 2451 3174 
Q 2330 3174 2291 3206 
Q 2080 3392 2080 3546 
Q 2080 3584 2112 3584 
Q 2144 3584 2214 3568 
Q 2285 3552 2426 3552 
L 2509 3552 
L 3699 3616 
L 3680 4627 
Q 3680 4768 3565 4941 
Q 3546 4973 3546 4992 
Q 3546 5043 3648 5043 
Q 3750 5043 3894 4995 
Q 4038 4947 4076 4905 
Q 4115 4864 4115 4800 
L 4109 3635 
L 5133 3686 
Q 5280 3699 5366 3728 
Q 5453 3757 5475 3757 
Q 5498 3757 5587 3706 
Q 5837 3565 5837 3443 
Q 5837 3366 5690 3347 
L 2643 3181 
z
M 2336 -173 
L 2240 -173 
Q 2086 -173 2029 -128 
Q 1901 -19 1859 93 
Q 1818 205 1818 230 
Q 1818 256 1856 256 
Q 1894 256 1990 230 
Q 2086 205 2240 205 
L 3955 256 
Q 4346 1331 4531 2470 
Q 4570 2682 4570 2742 
Q 4570 2803 4531 2883 
Q 4493 2963 4493 2989 
Q 4493 3046 4582 3046 
L 4659 3034 
Q 4845 3014 4957 2947 
Q 5069 2880 5069 2822 
Q 5069 2765 4989 2416 
Q 4909 2067 4723 1436 
Q 4538 806 4314 262 
L 5517 301 
Q 5658 301 5750 329 
Q 5843 358 5875 358 
Q 5907 358 5990 307 
Q 6227 179 6227 45 
Q 6227 -58 6061 -70 
L 2336 -173 
z
M 3674 960 
Q 3712 781 3712 713 
Q 3712 646 3638 601 
Q 3565 557 3494 550 
L 3418 538 
Q 3302 538 3270 710 
Q 3072 1798 2778 2611 
Q 2752 2669 2752 2736 
Q 2752 2803 2857 2851 
Q 2963 2899 3008 2899 
Q 3091 2899 3149 2752 
Q 3526 1728 3674 960 
z
" transform="scale(0.015625)"/>
      <path id="LXGWWenKai-Regular-7f6e" d="M 4742 4141 
L 4838 4678 
L 3930 4621 
L 3898 4090 
L 4742 4141 
z
M 2848 4026 
L 3546 4070 
L 3571 4595 
L 2797 4550 
L 2848 4026 
z
M 4269 813 
L 4275 1190 
L 2144 1075 
L 2144 704 
L 4269 813 
z
M 4256 102 
L 4262 506 
L 2144 410 
L 2144 26 
L 4256 102 
z
M 2138 1357 
L 4282 1472 
L 4288 1811 
L 2131 1683 
L 2138 1357 
z
M 2125 1965 
L 4288 2093 
L 4294 2394 
L 2118 2278 
L 2125 1965 
z
M 1670 3955 
L 2496 4006 
L 2445 4525 
L 1613 4474 
L 1670 3955 
z
M 314 0 
Q 314 26 339 26 
Q 365 26 384 19 
Q 512 -19 666 -19 
L 723 -19 
L 1786 19 
L 1747 2195 
Q 1747 2374 1683 2502 
Q 1626 2605 1626 2650 
Q 1626 2707 1696 2707 
Q 1811 2707 2118 2573 
L 2822 2611 
L 2886 3008 
L 1434 2918 
L 1293 2912 
Q 1165 2912 1081 3005 
Q 998 3098 966 3226 
Q 966 3264 1005 3264 
L 1050 3251 
Q 1146 3219 1267 3219 
L 1318 3219 
L 2944 3315 
L 2957 3386 
Q 2963 3405 2963 3437 
Q 2963 3488 2940 3539 
Q 2918 3590 2893 3642 
Q 2874 3680 2874 3699 
Q 2874 3750 2950 3750 
Q 3078 3750 3206 3680 
Q 3334 3610 3334 3552 
L 3334 3526 
L 3302 3341 
L 4954 3437 
Q 5082 3450 5171 3482 
Q 5210 3494 5229 3494 
Q 5325 3494 5424 3398 
Q 5523 3302 5523 3238 
Q 5523 3168 5402 3155 
L 3238 3027 
L 3168 2630 
L 4346 2701 
Q 4544 2701 4624 2630 
Q 4704 2560 4704 2490 
Q 4704 2464 4691 2435 
Q 4678 2406 4678 2381 
L 4614 115 
L 5274 134 
Q 5491 147 5619 186 
Q 5709 211 5734 211 
Q 5805 211 5945 102 
Q 6086 -6 6086 -90 
Q 6086 -166 5914 -179 
L 858 -358 
L 704 -365 
Q 589 -365 489 -304 
Q 390 -243 320 -32 
Q 314 -19 314 0 
z
M 1709 3590 
L 1709 3558 
Q 1709 3443 1587 3443 
Q 1453 3443 1379 3516 
Q 1306 3590 1306 3667 
L 1306 3693 
L 1312 3808 
Q 1312 3859 1299 3974 
L 1242 4435 
Q 1222 4602 1133 4717 
Q 1082 4794 1082 4819 
Q 1082 4864 1165 4864 
Q 1280 4864 1587 4774 
L 4966 4979 
L 5018 4979 
Q 5101 4979 5193 4915 
Q 5286 4851 5286 4781 
Q 5286 4749 5264 4717 
Q 5242 4685 5235 4666 
L 5107 4154 
Q 5229 3994 5229 3936 
Q 5229 3898 5187 3885 
Q 5146 3872 5056 3866 
L 1696 3686 
L 1709 3590 
z
" transform="scale(0.015625)"/>
      <path id="LXGWWenKai-Regular-5173" d="M 2854 3865 
Q 2829 3782 2720 3731 
Q 2611 3680 2556 3696 
Q 2502 3712 2374 3981 
Q 2246 4250 1862 4723 
Q 1760 4826 1926 4947 
Q 2029 5018 2083 5002 
Q 2138 4986 2301 4800 
Q 2464 4614 2672 4281 
Q 2880 3949 2854 3865 
z
M 1120 1818 
Q 1005 1818 902 1850 
Q 762 1933 685 2125 
Q 672 2163 672 2176 
Q 672 2234 736 2234 
Q 762 2234 838 2214 
Q 915 2195 1069 2195 
L 1133 2195 
L 2829 2278 
Q 2918 2662 2938 3258 
L 1587 3181 
L 1459 3174 
Q 1286 3174 1229 3232 
Q 1056 3398 1056 3565 
Q 1056 3610 1088 3610 
Q 1126 3610 1206 3584 
Q 1286 3558 1414 3558 
L 1446 3558 
L 3309 3667 
Q 3322 3699 3392 3782 
Q 4045 4730 4026 5030 
Q 4013 5267 4275 5120 
Q 4378 5056 4458 4982 
Q 4538 4909 4544 4864 
Q 4550 4819 4493 4717 
Q 4096 4070 3686 3757 
Q 3565 3686 3546 3680 
L 4634 3744 
Q 4794 3757 4845 3776 
Q 4896 3795 4925 3795 
Q 4954 3795 5024 3731 
Q 5235 3578 5235 3469 
Q 5235 3386 5075 3366 
L 3386 3277 
Q 3360 2701 3270 2298 
L 4954 2374 
Q 5146 2394 5210 2416 
Q 5274 2438 5315 2438 
Q 5357 2438 5446 2381 
Q 5670 2234 5670 2112 
Q 5670 2029 5504 2010 
L 3398 1914 
Q 4122 864 5005 339 
Q 5478 58 6067 -134 
Q 6202 -173 6202 -221 
Q 6202 -269 6138 -346 
Q 5965 -544 5837 -544 
L 5651 -474 
Q 5158 -282 4662 73 
Q 4166 429 3792 809 
Q 3418 1190 3110 1677 
Q 3008 1408 2957 1299 
Q 2528 429 1734 -51 
Q 1139 -416 614 -525 
Q 422 -563 364 -563 
Q 307 -563 307 -506 
Q 307 -435 538 -326 
Q 2330 480 2726 1882 
L 1120 1818 
z
" transform="scale(0.015625)"/>
      <path id="LXGWWenKai-Regular-7cfb" d="M 3034 1504 
Q 1408 1357 1254 1357 
Q 1101 1357 1001 1421 
Q 902 1485 819 1741 
Q 813 1754 813 1786 
Q 813 1818 858 1818 
Q 870 1818 883 1818 
Q 896 1818 1017 1789 
Q 1139 1760 1299 1760 
L 1344 1760 
L 1734 1779 
Q 2490 2330 2758 2547 
Q 2419 2739 2144 2915 
Q 1869 3091 1626 3174 
Q 1459 3238 1459 3334 
Q 1459 3405 1532 3494 
Q 1606 3584 1660 3584 
Q 1715 3584 1785 3552 
Q 1856 3520 1920 3485 
Q 1984 3450 2042 3424 
Q 2573 3834 2867 4243 
Q 2899 4288 2918 4346 
Q 2342 4275 1331 4192 
L 1293 4192 
Q 1120 4192 1120 4278 
Q 1120 4365 1306 4397 
Q 3994 4800 4410 5062 
Q 4480 5107 4512 5145 
Q 4544 5184 4585 5184 
Q 4627 5184 4752 5046 
Q 4877 4909 4877 4800 
Q 4877 4691 4800 4672 
Q 3974 4486 3181 4378 
Q 3334 4262 3334 4198 
Q 3334 4134 3251 4032 
Q 3149 3923 2758 3584 
Q 2547 3411 2336 3251 
Q 2490 3162 3053 2797 
Q 3962 3584 4096 3821 
Q 4128 3885 4147 3936 
Q 4166 3987 4195 3987 
Q 4224 3987 4314 3930 
Q 4557 3750 4557 3642 
Q 4557 3597 4506 3558 
Q 3366 2528 2304 1811 
Q 3398 1875 4595 2003 
Q 4416 2182 4281 2291 
Q 4147 2400 4147 2454 
Q 4147 2509 4220 2595 
Q 4294 2682 4345 2682 
Q 4397 2682 4544 2573 
Q 4883 2304 5270 1907 
Q 5658 1510 5658 1430 
Q 5658 1350 5571 1257 
Q 5485 1165 5427 1165 
Q 5370 1165 5200 1373 
Q 5030 1581 4915 1702 
Q 4307 1626 3424 1542 
L 3430 -58 
L 3437 -269 
Q 3437 -371 3347 -480 
Q 3258 -589 3155 -589 
Q 3053 -589 2845 -496 
Q 2637 -403 2320 -169 
Q 2003 64 2003 134 
Q 2003 179 2064 179 
Q 2125 179 2329 96 
Q 2534 13 3040 -115 
L 3034 1504 
z
M 2285 838 
Q 1888 371 1347 16 
Q 806 -339 723 -345 
Q 640 -352 640 -320 
Q 634 -250 730 -173 
Q 1082 122 1344 403 
Q 1811 896 1843 1152 
Q 1856 1248 1917 1251 
Q 1978 1254 2074 1190 
Q 2170 1126 2250 1046 
Q 2330 966 2333 931 
Q 2336 896 2285 838 
z
M 5632 6 
Q 5619 -115 5516 -217 
Q 5414 -320 5356 -313 
Q 5299 -307 5229 -218 
Q 4806 339 4147 954 
Q 4064 1030 4070 1065 
Q 4077 1101 4109 1155 
Q 4141 1210 4195 1254 
Q 4250 1299 4307 1292 
Q 4365 1286 4707 985 
Q 5050 685 5568 115 
Q 5638 45 5632 6 
z
" transform="scale(0.015625)"/>
     </defs>
     <use xlink:href="#LXGWWenKai-Regular-76f4"/>
     <use xlink:href="#LXGWWenKai-Regular-7ebf" transform="translate(99.999985 0)"/>
     <use xlink:href="#LXGWWenKai-Regular-4e0e" transform="translate(199.999969 0)"/>
     <use xlink:href="#LXGWWenKai-Regular-5706" transform="translate(299.999954 0)"/>
     <use xlink:href="#LXGWWenKai-Regular-7684" transform="translate(399.999939 0)"/>
     <use xlink:href="#LXGWWenKai-Regular-4f4d" transform="translate(499.999924 0)"/>
     <use xlink:href="#LXGWWenKai-Regular-7f6e" transform="translate(599.999908 0)"/>
     <use xlink:href="#LXGWWenKai-Regular-5173" transform="translate(699.999893 0)"/>
     <use xlink:href="#LXGWWenKai-Regular-7cfb" transform="translate(799.999878 0)"/>
    </g>
   </g>
   <g id="text_3">
    <g id="patch_4">
     <path d="M 460.8 164.7252 
L 604.8 164.7252 
Q 615.6 164.7252 615.6 153.9252 
L 615.6 137.1852 
Q 615.6 126.3852 604.8 126.3852 
L 460.8 126.3852 
Q 450 126.3852 450 137.1852 
L 450 153.9252 
Q 450 164.7252 460.8 164.7252 
z
" style="fill: #fefdf5; stroke: #111111; stroke-linejoin: miter"/>
    </g>
    <!-- 圆与圆的位置关系 -->
    <g style="fill: #111111" transform="translate(460.8 150.828637) scale(0.18 -0.18)">
     <use xlink:href="#LXGWWenKai-Regular-5706"/>
     <use xlink:href="#LXGWWenKai-Regular-4e0e" transform="translate(99.999985 0)"/>
     <use xlink:href="#LXGWWenKai-Regular-5706" transform="translate(199.999969 0)"/>
     <use xlink:href="#LXGWWenKai-Regular-7684" transform="translate(299.999954 0)"/>
     <use xlink:href="#LXGWWenKai-Regular-4f4d" transform="translate(399.999939 0)"/>
     <use xlink:href="#LXGWWenKai-Regular-7f6e" transform="translate(499.999924 0)"/>
     <use xlink:href="#LXGWWenKai-Regular-5173" transform="translate(599.999908 0)"/>
     <use xlink:href="#LXGWWenKai-Regular-7cfb" transform="translate(699.999893 0)"/>
    </g>
   </g>
   <g id="text_4">
    <!-- 相交: $\Delta &gt; 0$ -->
    <g transform="translate(148 203.616) scale(0.16 -0.16)">
     <defs>
      <path id="LXGWWenKai-Regular-76f8" d="M 819 3347 
L 1722 3424 
L 1734 4621 
Q 1734 4794 1676 4874 
Q 1619 4954 1619 4986 
Q 1619 5037 1702 5037 
L 1766 5030 
Q 2131 4960 2131 4781 
L 2112 3462 
L 2483 3494 
Q 2605 3507 2669 3529 
Q 2733 3552 2771 3552 
Q 2810 3552 2886 3494 
Q 3091 3354 3091 3258 
Q 3091 3187 2944 3174 
L 2112 3104 
L 2106 2566 
Q 2189 2630 2240 2630 
Q 2291 2630 2438 2518 
Q 2586 2406 2822 2150 
Q 3059 1894 3059 1830 
Q 3059 1766 2979 1686 
Q 2899 1606 2832 1606 
Q 2765 1606 2675 1728 
Q 2438 2042 2099 2355 
L 2067 -474 
Q 2067 -640 1958 -640 
Q 1818 -640 1718 -547 
Q 1619 -454 1619 -390 
Q 1619 -326 1651 -192 
Q 1683 -58 1683 166 
L 1690 346 
Q 1690 1830 1728 2368 
L 1728 2458 
Q 1523 1843 973 1197 
Q 749 934 566 780 
Q 384 627 339 627 
Q 294 627 294 675 
Q 294 723 371 826 
Q 1101 1754 1632 3059 
L 1024 3008 
Q 934 2995 858 2995 
Q 698 2995 598 3126 
Q 499 3258 499 3325 
Q 499 3392 531 3392 
Q 614 3379 684 3363 
Q 755 3347 819 3347 
z
M 5696 4013 
L 5651 3846 
L 5562 410 
Q 5734 237 5734 160 
Q 5734 83 5683 57 
Q 5632 32 5562 26 
L 3680 -38 
L 3686 -339 
Q 3686 -474 3584 -474 
L 3494 -448 
Q 3245 -390 3245 -224 
Q 3245 -186 3264 -93 
Q 3283 0 3283 275 
L 3219 3757 
Q 3219 3968 3177 4073 
Q 3136 4179 3136 4218 
Q 3136 4282 3235 4282 
Q 3334 4282 3629 4141 
L 5306 4250 
L 5414 4256 
Q 5606 4256 5670 4090 
Q 5696 4032 5696 4013 
z
M 5235 3891 
L 3616 3789 
L 3629 2944 
L 5216 3034 
L 5235 3891 
z
M 5210 2682 
L 3635 2598 
L 3654 1677 
L 5190 1760 
L 5210 2682 
z
M 5184 1402 
L 3661 1331 
L 3674 333 
L 5165 384 
L 5184 1402 
z
" transform="scale(0.015625)"/>
      <path id="LXGWWenKai-Regular-4ea4" d="M 762 4013 
Q 922 3981 1094 3981 
L 1178 3981 
L 2970 4090 
L 2963 4749 
Q 2963 4896 2912 4969 
Q 2861 5043 2861 5075 
Q 2861 5126 2928 5126 
Q 2995 5126 3098 5114 
Q 3386 5075 3386 4966 
L 3379 4115 
L 4979 4218 
Q 5197 4237 5261 4256 
Q 5325 4275 5363 4275 
Q 5402 4275 5491 4224 
Q 5734 4096 5734 3974 
Q 5734 3891 5613 3878 
L 1325 3622 
Q 1210 3610 1107 3610 
Q 1005 3610 905 3658 
Q 806 3706 717 3930 
Q 710 3942 710 3968 
Q 710 4013 762 4013 
z
M 5382 2458 
Q 5382 2330 5235 2202 
Q 5178 2157 5123 2157 
Q 5069 2157 4890 2330 
Q 4326 2886 3821 3232 
Q 3725 3302 3725 3340 
Q 3725 3379 3750 3437 
Q 3821 3590 3923 3590 
Q 4026 3590 4864 2944 
Q 5088 2771 5235 2643 
Q 5382 2515 5382 2458 
z
M 2400 3494 
Q 2483 3430 2553 3344 
Q 2624 3258 2624 3200 
Q 2624 3104 2240 2778 
Q 1882 2451 1456 2172 
Q 1030 1894 877 1894 
Q 832 1894 832 1939 
Q 832 1984 966 2099 
Q 2112 3021 2202 3462 
Q 2221 3558 2269 3558 
Q 2317 3558 2400 3494 
z
M 3206 1446 
Q 3898 2234 3898 2528 
Q 3898 2656 3968 2656 
Q 4013 2656 4102 2592 
Q 4346 2419 4346 2285 
Q 4346 2266 4333 2240 
Q 3994 1696 3520 1171 
Q 4557 314 6035 -154 
Q 6163 -192 6163 -243 
Q 6163 -275 6106 -352 
Q 5958 -563 5818 -563 
Q 5773 -563 5520 -464 
Q 5267 -365 4890 -179 
Q 3955 288 3245 890 
Q 2170 -147 582 -531 
Q 518 -550 451 -550 
Q 384 -550 384 -506 
Q 384 -448 525 -384 
Q 1773 147 2458 723 
Q 2746 966 2944 1165 
L 2810 1299 
Q 2016 2093 2016 2234 
Q 2016 2291 2093 2374 
Q 2170 2458 2243 2458 
Q 2317 2458 2387 2368 
Q 2694 1939 3206 1446 
z
" transform="scale(0.015625)"/>
      <path id="LXGWWenKai-Regular-3a" d="M 1126 646 
Q 1261 646 1366 515 
Q 1472 384 1472 253 
Q 1472 122 1392 38 
Q 1312 -45 1158 -45 
Q 1005 -45 902 86 
Q 800 218 800 355 
Q 800 493 896 569 
Q 992 646 1126 646 
z
M 1126 3021 
Q 1261 3021 1366 2889 
Q 1472 2758 1472 2627 
Q 1472 2496 1392 2413 
Q 1312 2330 1158 2330 
Q 1005 2330 902 2461 
Q 800 2592 800 2729 
Q 800 2867 896 2944 
Q 992 3021 1126 3021 
z
" transform="scale(0.015625)"/>
      <path id="LXGWWenKai-Regular-20" transform="scale(0.015625)"/>
      <path id="STIXGeneral-Regular-394" d="M 4320 0 
L 307 0 
L 2221 4314 
L 2349 4314 
L 4320 0 
z
M 3354 589 
L 2118 3405 
L 870 589 
L 3354 589 
z
" transform="scale(0.015625)"/>
      <path id="STIXGeneral-Regular-3e" d="M 3974 1594 
L 358 -154 
L 358 250 
L 3123 1626 
L 358 3002 
L 358 3418 
L 3974 1658 
L 3974 1594 
z
" transform="scale(0.015625)"/>
      <path id="STIXGeneral-Regular-30" d="M 3046 2112 
Q 3046 1683 2963 1302 
Q 2880 922 2717 602 
Q 2554 282 2266 96 
Q 1978 -90 1600 -90 
Q 1210 -90 915 108 
Q 621 307 461 640 
Q 301 973 227 1350 
Q 154 1728 154 2150 
Q 154 2746 301 3222 
Q 448 3699 790 4012 
Q 1133 4326 1626 4326 
Q 2253 4326 2649 3712 
Q 3046 3098 3046 2112 
z
M 2432 2080 
Q 2432 3091 2217 3625 
Q 2003 4160 1587 4160 
Q 1190 4160 979 3622 
Q 768 3085 768 2106 
Q 768 1120 979 598 
Q 1190 77 1600 77 
Q 2003 77 2217 598 
Q 2432 1120 2432 2080 
z
" transform="scale(0.015625)"/>
     </defs>
     <use xlink:href="#LXGWWenKai-Regular-76f8" transform="translate(0 0.90625)"/>
     <use xlink:href="#LXGWWenKai-Regular-4ea4" transform="translate(99.999985 0.90625)"/>
     <use xlink:href="#LXGWWenKai-Regular-3a" transform="translate(199.999969 0.90625)"/>
     <use xlink:href="#LXGWWenKai-Regular-20" transform="translate(234.999954 0.90625)"/>
     <use xlink:href="#STIXGeneral-Regular-394" transform="translate(269.999939 0.90625)"/>
     <use xlink:href="#STIXGeneral-Regular-3e" transform="translate(356.639917 0.90625)"/>
     <use xlink:href="#STIXGeneral-Regular-30" transform="translate(439.579898 0.90625)"/>
    </g>
   </g>
   <g id="text_5">
    <!-- 相切: $\Delta = 0$ -->
    <g transform="translate(148 247.1616) scale(0.16 -0.16)">
     <defs>
      <path id="LXGWWenKai-Regular-5207" d="M 4723 38 
Q 4851 -13 4876 -13 
Q 4902 -13 4902 32 
Q 5267 1261 5312 3878 
L 4346 3821 
Q 4186 1139 2733 -102 
Q 2221 -544 2099 -544 
Q 2048 -544 2048 -486 
Q 2048 -429 2170 -307 
Q 3168 646 3597 1984 
Q 3846 2746 3898 3789 
L 3117 3738 
Q 3014 3725 2940 3725 
Q 2867 3725 2764 3773 
Q 2662 3821 2579 4045 
Q 2566 4083 2566 4096 
Q 2566 4141 2618 4141 
Q 2643 4141 2700 4125 
Q 2758 4109 2880 4109 
L 5389 4262 
L 5459 4262 
Q 5606 4262 5673 4176 
Q 5741 4090 5741 4026 
L 5715 3866 
Q 5702 2387 5584 1360 
Q 5466 333 5338 -166 
Q 5299 -307 5184 -422 
Q 5069 -538 4960 -538 
Q 4851 -538 4624 -410 
Q 4397 -282 4070 25 
Q 3744 333 3744 429 
Q 3744 480 3808 480 
Q 3872 480 4035 384 
Q 4198 288 4396 189 
Q 4595 90 4723 38 
z
M 915 179 
Q 781 269 697 377 
Q 614 486 614 534 
Q 614 582 717 595 
Q 902 595 1146 723 
L 1197 749 
L 1203 2605 
L 851 2554 
Q 768 2547 707 2537 
Q 646 2528 563 2528 
Q 480 2528 403 2595 
Q 326 2662 288 2745 
Q 250 2829 250 2864 
Q 250 2899 301 2899 
L 333 2899 
Q 525 2880 557 2880 
L 608 2880 
Q 627 2880 646 2886 
L 1203 2963 
L 1203 4294 
Q 1203 4461 1094 4621 
Q 1062 4672 1062 4704 
Q 1062 4736 1100 4736 
Q 1139 4736 1216 4726 
Q 1293 4717 1382 4685 
Q 1613 4614 1613 4486 
L 1606 3021 
L 2355 3130 
Q 2541 3168 2608 3193 
Q 2675 3219 2723 3219 
Q 2771 3219 2854 3174 
Q 3066 3078 3066 2970 
Q 3066 2925 3030 2889 
Q 2995 2854 2944 2848 
L 1606 2662 
L 1600 941 
Q 2182 1229 2630 1530 
Q 2758 1600 2812 1600 
Q 2867 1600 2867 1542 
Q 2867 1485 2726 1331 
Q 2605 1216 2253 947 
Q 1094 70 915 179 
z
" transform="scale(0.015625)"/>
      <path id="STIXGeneral-Regular-3d" d="M 4077 2048 
L 307 2048 
L 307 2470 
L 4077 2470 
L 4077 2048 
z
M 4077 768 
L 307 768 
L 307 1190 
L 4077 1190 
L 4077 768 
z
" transform="scale(0.015625)"/>
     </defs>
     <use xlink:href="#LXGWWenKai-Regular-76f8" transform="translate(0 0.296875)"/>
     <use xlink:href="#LXGWWenKai-Regular-5207" transform="translate(99.999985 0.296875)"/>
     <use xlink:href="#LXGWWenKai-Regular-3a" transform="translate(199.999969 0.296875)"/>
     <use xlink:href="#LXGWWenKai-Regular-20" transform="translate(234.999954 0.296875)"/>
     <use xlink:href="#STIXGeneral-Regular-394" transform="translate(269.999939 0.296875)"/>
     <use xlink:href="#STIXGeneral-Regular-3d" transform="translate(356.639917 0.296875)"/>
     <use xlink:href="#STIXGeneral-Regular-30" transform="translate(439.579898 0.296875)"/>
    </g>
   </g>
   <g id="text_6">
    <!-- 相离: $\Delta &lt; 0$ -->
    <g transform="translate(148 290.7072) scale(0.16 -0.16)">
     <defs>
      <path id="LXGWWenKai-Regular-79bb" d="M 1158 4102 
L 1024 4096 
Q 909 4096 816 4157 
Q 723 4218 691 4320 
L 666 4422 
Q 666 4461 710 4461 
Q 730 4461 800 4441 
Q 870 4422 979 4422 
L 1030 4422 
L 2995 4538 
L 2989 4877 
Q 2989 5030 2906 5158 
Q 2886 5197 2886 5222 
Q 2886 5274 2963 5274 
Q 3040 5274 3190 5222 
Q 3341 5171 3376 5132 
Q 3411 5094 3411 5024 
L 3405 4557 
L 5152 4659 
Q 5274 4672 5347 4697 
Q 5421 4723 5469 4723 
Q 5517 4723 5638 4624 
Q 5760 4525 5760 4464 
Q 5760 4403 5718 4387 
Q 5677 4371 5613 4365 
L 1158 4102 
z
M 2144 3782 
Q 2144 3802 2153 3824 
Q 2163 3846 2185 3900 
Q 2208 3955 2285 3955 
Q 2362 3955 3270 3642 
Q 3571 3846 3654 3968 
Q 3738 4090 3760 4144 
Q 3782 4198 3833 4198 
Q 3885 4198 3955 4147 
Q 4141 4006 4141 3910 
Q 4141 3885 4109 3853 
Q 3936 3712 3648 3501 
L 4262 3270 
Q 4384 3226 4384 3152 
Q 4384 3078 4333 2988 
Q 4282 2899 4237 2899 
Q 4192 2899 3993 3004 
Q 3795 3110 3315 3302 
Q 2803 3014 2438 2896 
Q 2074 2778 2006 2778 
Q 1939 2778 1939 2822 
Q 1939 2886 2138 2982 
Q 2515 3149 2970 3430 
Q 2726 3533 2246 3674 
Q 2144 3706 2144 3782 
z
M 1645 685 
Q 1798 659 1888 659 
Q 1978 659 2032 665 
Q 2086 672 2182 678 
Q 2381 1082 2573 1568 
L 1325 1510 
L 1325 -448 
Q 1325 -602 1222 -602 
Q 1158 -602 1020 -531 
Q 883 -461 883 -352 
Q 883 -314 908 -218 
Q 934 -122 934 102 
L 941 1504 
Q 941 1702 883 1824 
Q 826 1946 826 1987 
Q 826 2029 902 2029 
Q 979 2029 1363 1856 
L 2701 1920 
Q 2784 2150 2861 2381 
L 1818 2317 
Q 1734 2310 1676 2300 
Q 1619 2291 1561 2291 
Q 1504 2291 1405 2355 
Q 1306 2419 1306 2476 
Q 1306 2534 1322 2585 
Q 1338 2637 1350 2848 
L 1376 3469 
L 1376 3501 
Q 1376 3629 1334 3712 
Q 1293 3795 1293 3821 
Q 1293 3872 1401 3872 
Q 1510 3872 1677 3789 
Q 1779 3738 1779 3635 
L 1741 2662 
L 4710 2816 
L 4742 3680 
L 4742 3718 
Q 4742 3853 4710 3926 
Q 4678 4000 4678 4026 
Q 4678 4077 4742 4077 
Q 4755 4077 4851 4058 
Q 5152 3987 5152 3840 
L 5152 3827 
L 5075 2310 
Q 5062 2202 4979 2202 
Q 4845 2202 4752 2272 
Q 4659 2342 4659 2387 
L 4659 2451 
Q 4659 2470 4666 2490 
L 3258 2406 
Q 3149 2067 3098 1939 
L 5274 2042 
L 5350 2048 
Q 5440 2048 5520 1984 
Q 5600 1920 5600 1830 
L 5574 1651 
L 5536 -128 
L 5549 -288 
Q 5549 -397 5481 -461 
Q 5414 -525 5344 -547 
Q 5274 -570 5222 -570 
Q 5171 -570 4985 -490 
Q 4800 -410 4602 -288 
Q 4128 0 4128 154 
Q 4128 198 4182 198 
Q 4237 198 4381 121 
Q 4525 45 4739 -9 
Q 4954 -64 5133 -109 
L 5178 1683 
L 2963 1581 
Q 2797 1133 2579 723 
Q 3110 794 3814 954 
Q 3738 1043 3645 1123 
Q 3552 1203 3552 1254 
Q 3552 1306 3635 1370 
Q 3718 1434 3772 1434 
Q 3827 1434 3945 1331 
Q 4064 1229 4381 912 
Q 4698 595 4698 531 
Q 4698 467 4611 377 
Q 4525 288 4464 288 
Q 4403 288 4333 371 
Q 4192 550 4032 730 
Q 3034 448 2534 352 
Q 2035 256 1984 256 
Q 1696 256 1581 602 
Q 1574 614 1574 634 
Q 1574 685 1645 685 
z
" transform="scale(0.015625)"/>
      <path id="STIXGeneral-Regular-3c" d="M 3974 -154 
L 358 1594 
L 358 1658 
L 3974 3418 
L 3974 3002 
L 1210 1626 
L 3974 250 
L 3974 -154 
z
" transform="scale(0.015625)"/>
     </defs>
     <use xlink:href="#LXGWWenKai-Regular-76f8" transform="translate(0 0.59375)"/>
     <use xlink:href="#LXGWWenKai-Regular-79bb" transform="translate(99.999985 0.59375)"/>
     <use xlink:href="#LXGWWenKai-Regular-3a" transform="translate(199.999969 0.59375)"/>
     <use xlink:href="#LXGWWenKai-Regular-20" transform="translate(234.999954 0.59375)"/>
     <use xlink:href="#STIXGeneral-Regular-394" transform="translate(269.999939 0.59375)"/>
     <use xlink:href="#STIXGeneral-Regular-3c" transform="translate(356.639917 0.59375)"/>
     <use xlink:href="#STIXGeneral-Regular-30" transform="translate(439.579898 0.59375)"/>
    </g>
   </g>
   <g id="text_7">
    <!-- 外离: $d &gt; r_1 + r_2$ -->
    <g style="fill: #111111" transform="translate(479.04 203.616) scale(0.16 -0.16)">
     <defs>
      <path id="LXGWWenKai-Regular-5916" d="M 3898 4838 
Q 3898 4998 3802 5146 
Q 3782 5178 3782 5200 
Q 3782 5222 3859 5222 
Q 3936 5222 4054 5184 
Q 4173 5146 4243 5098 
Q 4314 5050 4314 4973 
L 4314 3181 
Q 4371 3245 4412 3245 
Q 4454 3245 4880 2985 
Q 5306 2726 6029 2144 
Q 6125 2067 6125 2016 
Q 6125 1965 6093 1894 
Q 5997 1696 5888 1696 
Q 5850 1696 5786 1747 
Q 5005 2438 4314 2880 
L 4320 -531 
Q 4320 -646 4195 -646 
Q 4070 -646 3958 -563 
Q 3846 -480 3846 -429 
Q 3846 -378 3875 -256 
Q 3904 -134 3904 96 
L 3898 4838 
z
M 1600 2765 
Q 1728 2765 2304 2093 
Q 2669 2790 2925 3584 
L 1805 3520 
Q 1536 3002 1257 2621 
Q 979 2240 771 2032 
Q 563 1824 512 1824 
Q 461 1824 461 1888 
Q 461 1952 694 2275 
Q 928 2598 1181 3091 
Q 1434 3584 1654 4160 
Q 1875 4736 1875 4979 
L 1869 5062 
Q 1869 5133 1920 5133 
Q 1971 5133 2070 5081 
Q 2170 5030 2250 4953 
Q 2330 4877 2330 4826 
Q 2330 4646 1984 3885 
L 3085 3955 
L 3130 3955 
Q 3258 3955 3350 3872 
Q 3443 3789 3443 3721 
Q 3443 3654 3404 3600 
Q 3366 3546 3354 3514 
Q 2784 1786 1798 691 
Q 1280 115 550 -384 
Q 422 -474 364 -474 
Q 307 -474 307 -416 
Q 307 -358 442 -243 
Q 1498 698 2112 1754 
Q 1837 2118 1434 2477 
Q 1395 2515 1395 2560 
Q 1395 2605 1465 2685 
Q 1536 2765 1600 2765 
z
" transform="scale(0.015625)"/>
      <path id="STIXGeneral-Italic-64" d="M 3334 4371 
L 3373 4333 
L 3123 3360 
L 2739 1958 
Q 2323 429 2323 384 
Q 2323 256 2438 256 
Q 2522 256 2614 336 
Q 2707 416 2963 710 
L 3040 646 
Q 2547 -83 2099 -83 
Q 1978 -83 1907 -6 
Q 1837 70 1837 205 
Q 1837 397 1920 774 
Q 1645 307 1379 118 
Q 1114 -70 781 -70 
Q 461 -70 278 125 
Q 96 320 96 678 
Q 96 1440 713 2131 
Q 1331 2822 1965 2822 
Q 2163 2822 2256 2732 
Q 2349 2643 2381 2451 
L 2387 2451 
L 2675 3494 
Q 2765 3808 2765 3949 
Q 2765 4051 2694 4076 
Q 2624 4102 2355 4115 
L 2355 4224 
Q 2848 4269 3334 4371 
z
M 2278 2310 
Q 2278 2477 2185 2576 
Q 2093 2675 1978 2675 
Q 1677 2675 1395 2381 
Q 1075 2042 864 1571 
Q 653 1101 653 704 
Q 653 486 752 361 
Q 851 237 1024 237 
Q 1312 237 1606 550 
Q 1901 864 2089 1350 
Q 2278 1837 2278 2310 
z
" transform="scale(0.015625)"/>
      <path id="STIXGeneral-Italic-72" d="M 1126 1427 
L 1229 1651 
Q 1446 2131 1830 2534 
Q 2106 2822 2336 2822 
Q 2470 2822 2553 2732 
Q 2637 2643 2637 2496 
Q 2637 2349 2557 2249 
Q 2477 2150 2336 2150 
Q 2214 2150 2112 2317 
Q 2061 2406 2010 2406 
Q 1837 2406 1485 1805 
Q 1267 1434 1136 1104 
Q 1005 774 774 0 
L 288 0 
L 806 1869 
Q 909 2246 909 2394 
Q 909 2560 666 2560 
Q 614 2560 467 2541 
L 467 2650 
L 1459 2822 
L 1478 2810 
L 1126 1427 
z
" transform="scale(0.015625)"/>
      <path id="STIXGeneral-Regular-31" d="M 2522 0 
L 755 0 
L 755 96 
Q 1107 115 1235 227 
Q 1363 339 1363 608 
L 1363 3482 
Q 1363 3795 1171 3795 
Q 1082 3795 883 3718 
L 710 3654 
L 710 3744 
L 1856 4326 
L 1914 4307 
L 1914 486 
Q 1914 275 2042 185 
Q 2170 96 2522 96 
L 2522 0 
z
" transform="scale(0.015625)"/>
      <path id="STIXGeneral-Regular-2b" d="M 4070 1408 
L 2400 1408 
L 2400 -262 
L 1978 -262 
L 1978 1408 
L 307 1408 
L 307 1830 
L 1978 1830 
L 1978 3501 
L 2400 3501 
L 2400 1830 
L 4070 1830 
L 4070 1408 
z
" transform="scale(0.015625)"/>
      <path id="STIXGeneral-Regular-32" d="M 3034 877 
L 2688 0 
L 186 0 
L 186 77 
L 1325 1286 
Q 1773 1754 1965 2144 
Q 2157 2534 2157 2950 
Q 2157 3379 1920 3616 
Q 1683 3853 1267 3853 
Q 922 3853 720 3673 
Q 518 3494 326 3021 
L 192 3053 
Q 301 3648 630 3987 
Q 960 4326 1523 4326 
Q 2054 4326 2380 4006 
Q 2707 3686 2707 3200 
Q 2707 2477 1888 1613 
L 832 486 
L 2330 486 
Q 2541 486 2665 569 
Q 2790 653 2944 915 
L 3034 877 
z
" transform="scale(0.015625)"/>
     </defs>
     <use xlink:href="#LXGWWenKai-Regular-5916" transform="translate(0 0.59375)"/>
     <use xlink:href="#LXGWWenKai-Regular-79bb" transform="translate(99.999985 0.59375)"/>
     <use xlink:href="#LXGWWenKai-Regular-3a" transform="translate(199.999969 0.59375)"/>
     <use xlink:href="#LXGWWenKai-Regular-20" transform="translate(234.999954 0.59375)"/>
     <use xlink:href="#STIXGeneral-Italic-64" transform="translate(269.999939 0.59375)"/>
     <use xlink:href="#STIXGeneral-Regular-3e" transform="translate(334.43992 0.59375)"/>
     <use xlink:href="#STIXGeneral-Italic-72" transform="translate(417.379901 0.59375)"/>
     <use xlink:href="#STIXGeneral-Regular-31" transform="translate(456.279895 -12.634375) scale(0.7)"/>
     <use xlink:href="#STIXGeneral-Regular-2b" transform="translate(510.129256 0.59375)"/>
     <use xlink:href="#STIXGeneral-Italic-72" transform="translate(593.069237 0.59375)"/>
     <use xlink:href="#STIXGeneral-Regular-32" transform="translate(631.969231 -12.634375) scale(0.7)"/>
    </g>
   </g>
   <g id="text_8">
    <!-- 外切: $d = r_1 + r_2$ -->
    <g style="fill: #111111" transform="translate(479.04 247.1616) scale(0.16 -0.16)">
     <use xlink:href="#LXGWWenKai-Regular-5916" transform="translate(0 0.40625)"/>
     <use xlink:href="#LXGWWenKai-Regular-5207" transform="translate(99.999985 0.40625)"/>
     <use xlink:href="#LXGWWenKai-Regular-3a" transform="translate(199.999969 0.40625)"/>
     <use xlink:href="#LXGWWenKai-Regular-20" transform="translate(234.999954 0.40625)"/>
     <use xlink:href="#STIXGeneral-Italic-64" transform="translate(269.999939 0.40625)"/>
     <use xlink:href="#STIXGeneral-Regular-3d" transform="translate(334.43992 0.40625)"/>
     <use xlink:href="#STIXGeneral-Italic-72" transform="translate(417.379901 0.40625)"/>
     <use xlink:href="#STIXGeneral-Regular-31" transform="translate(456.279895 -12.821875) scale(0.7)"/>
     <use xlink:href="#STIXGeneral-Regular-2b" transform="translate(510.129256 0.40625)"/>
     <use xlink:href="#STIXGeneral-Italic-72" transform="translate(593.069237 0.40625)"/>
     <use xlink:href="#STIXGeneral-Regular-32" transform="translate(631.969231 -12.821875) scale(0.7)"/>
    </g>
   </g>
   <g id="text_9">
    <!-- 相交: $|r_1 - r_2| &lt; d &lt; r_1 + r_2$ -->
    <g style="fill: #d6604d" transform="translate(447.76 290.7072) scale(0.16 -0.16)">
     <defs>
      <path id="STIXGeneral-Regular-7c" d="M 851 -90 
L 429 -90 
L 429 4326 
L 851 4326 
L 851 -90 
z
" transform="scale(0.015625)"/>
      <path id="STIXGeneral-Regular-2212" d="M 3974 1408 
L 410 1408 
L 410 1830 
L 3974 1830 
L 3974 1408 
z
" transform="scale(0.015625)"/>
     </defs>
     <use xlink:href="#LXGWWenKai-Regular-76f8" transform="translate(0 0.90625)"/>
     <use xlink:href="#LXGWWenKai-Regular-4ea4" transform="translate(99.999985 0.90625)"/>
     <use xlink:href="#LXGWWenKai-Regular-3a" transform="translate(199.999969 0.90625)"/>
     <use xlink:href="#LXGWWenKai-Regular-20" transform="translate(234.999954 0.90625)"/>
     <use xlink:href="#STIXGeneral-Regular-7c" transform="translate(269.999939 0.90625)"/>
     <use xlink:href="#STIXGeneral-Italic-72" transform="translate(289.999924 0.90625)"/>
     <use xlink:href="#STIXGeneral-Regular-31" transform="translate(328.899918 -12.321875) scale(0.7)"/>
     <use xlink:href="#STIXGeneral-Regular-2212" transform="translate(382.749278 0.90625)"/>
     <use xlink:href="#STIXGeneral-Italic-72" transform="translate(465.689259 0.90625)"/>
     <use xlink:href="#STIXGeneral-Regular-32" transform="translate(504.589253 -12.321875) scale(0.7)"/>
     <use xlink:href="#STIXGeneral-Regular-7c" transform="translate(543.998618 0.90625)"/>
     <use xlink:href="#STIXGeneral-Regular-3c" transform="translate(578.438599 0.90625)"/>
     <use xlink:href="#STIXGeneral-Italic-64" transform="translate(661.37858 0.90625)"/>
     <use xlink:href="#STIXGeneral-Regular-3c" transform="translate(725.818561 0.90625)"/>
     <use xlink:href="#STIXGeneral-Italic-72" transform="translate(808.758542 0.90625)"/>
     <use xlink:href="#STIXGeneral-Regular-31" transform="translate(847.658536 -12.321875) scale(0.7)"/>
     <use xlink:href="#STIXGeneral-Regular-2b" transform="translate(901.507896 0.90625)"/>
     <use xlink:href="#STIXGeneral-Italic-72" transform="translate(984.447878 0.90625)"/>
     <use xlink:href="#STIXGeneral-Regular-32" transform="translate(1023.347871 -12.321875) scale(0.7)"/>
    </g>
   </g>
   <g id="text_10">
    <!-- 内切: $d = |r_1 - r_2|$ -->
    <g style="fill: #111111" transform="translate(475.84 334.2528) scale(0.16 -0.16)">
     <defs>
      <path id="LXGWWenKai-Regular-5185" d="M 5434 -32 
L 5453 -262 
Q 5453 -474 5280 -544 
Q 5216 -570 5158 -570 
Q 5101 -570 4835 -458 
Q 4570 -346 4134 -54 
Q 3699 237 3699 378 
Q 3699 422 3776 422 
Q 3853 422 4038 333 
Q 4499 96 5024 -45 
L 5056 3616 
L 3341 3526 
Q 3302 3270 3226 2976 
Q 4038 2259 4794 1363 
Q 4870 1280 4870 1222 
Q 4870 1165 4793 1062 
Q 4717 960 4643 960 
Q 4570 960 4541 982 
Q 4512 1005 4486 1030 
Q 3866 1862 3110 2592 
Q 2829 1798 2227 1242 
Q 1984 1018 1801 909 
Q 1619 800 1564 800 
Q 1510 800 1510 854 
Q 1510 909 1613 1011 
Q 2534 1901 2771 2790 
Q 2874 3181 2918 3507 
L 1370 3424 
L 1357 -403 
Q 1357 -595 1235 -595 
Q 1222 -595 1139 -563 
Q 890 -474 890 -301 
Q 890 -250 915 -131 
Q 941 -13 941 173 
L 960 3405 
Q 960 3597 909 3728 
Q 858 3859 858 3907 
Q 858 3955 931 3955 
Q 1005 3955 1389 3782 
L 2957 3866 
Q 2989 4154 3002 4646 
L 3002 4691 
Q 3002 4909 2963 5011 
Q 2925 5114 2925 5146 
Q 2925 5178 2982 5178 
Q 3040 5178 3177 5136 
Q 3315 5094 3376 5056 
Q 3437 5018 3437 4909 
Q 3424 4211 3386 3891 
L 5146 3987 
L 5222 3987 
Q 5331 3987 5420 3913 
Q 5510 3840 5510 3757 
L 5472 3629 
L 5434 -32 
z
" transform="scale(0.015625)"/>
     </defs>
     <use xlink:href="#LXGWWenKai-Regular-5185" transform="translate(0 0.09375)"/>
     <use xlink:href="#LXGWWenKai-Regular-5207" transform="translate(99.999985 0.09375)"/>
     <use xlink:href="#LXGWWenKai-Regular-3a" transform="translate(199.999969 0.09375)"/>
     <use xlink:href="#LXGWWenKai-Regular-20" transform="translate(234.999954 0.09375)"/>
     <use xlink:href="#STIXGeneral-Italic-64" transform="translate(269.999939 0.09375)"/>
     <use xlink:href="#STIXGeneral-Regular-3d" transform="translate(334.43992 0.09375)"/>
     <use xlink:href="#STIXGeneral-Regular-7c" transform="translate(417.379901 0.09375)"/>
     <use xlink:href="#STIXGeneral-Italic-72" transform="translate(437.379886 0.09375)"/>
     <use xlink:href="#STIXGeneral-Regular-31" transform="translate(476.27988 -13.134375) scale(0.7)"/>
     <use xlink:href="#STIXGeneral-Regular-2212" transform="translate(530.12924 0.09375)"/>
     <use xlink:href="#STIXGeneral-Italic-72" transform="translate(613.069221 0.09375)"/>
     <use xlink:href="#STIXGeneral-Regular-32" transform="translate(651.969215 -13.134375) scale(0.7)"/>
     <use xlink:href="#STIXGeneral-Regular-7c" transform="translate(691.37858 0.09375)"/>
    </g>
   </g>
   <g id="text_11">
    <!-- 内含: $d &lt; |r_1 - r_2|$ -->
    <g style="fill: #111111" transform="translate(475.84 377.7984) scale(0.16 -0.16)">
     <defs>
      <path id="LXGWWenKai-Regular-542b" d="M 2662 3296 
Q 2592 3322 2563 3357 
Q 2534 3392 2572 3507 
Q 2611 3622 2656 3648 
Q 2701 3674 2758 3661 
L 2797 3661 
Q 3366 3546 3866 3328 
Q 4006 3277 3968 3155 
Q 3891 2886 3770 2906 
Q 3738 2912 3510 3024 
Q 3283 3136 2662 3296 
z
M 4461 1011 
L 2061 909 
L 2138 -26 
L 4314 58 
L 4461 1011 
z
M 4710 64 
Q 4858 -115 4858 -192 
Q 4858 -269 4800 -281 
Q 4742 -294 4659 -301 
L 2163 -384 
L 2176 -538 
L 2176 -557 
Q 2176 -691 2067 -691 
Q 1958 -691 1852 -617 
Q 1747 -544 1747 -422 
L 1747 -397 
Q 1760 -282 1760 -211 
L 1760 -102 
Q 1760 -64 1754 -26 
L 1664 896 
Q 1651 1088 1549 1293 
Q 1536 1318 1536 1338 
Q 1536 1382 1622 1382 
Q 1709 1382 2061 1248 
L 4550 1363 
L 4627 1363 
Q 4755 1363 4841 1289 
Q 4928 1216 4928 1158 
Q 4928 1101 4909 1072 
Q 4890 1043 4883 1018 
L 4710 64 
z
M 2054 2285 
L 1914 2278 
Q 1792 2278 1754 2317 
Q 1626 2445 1597 2534 
Q 1568 2624 1568 2637 
Q 1568 2675 1597 2675 
Q 1626 2675 1680 2659 
Q 1734 2643 1850 2643 
L 1920 2643 
L 4416 2765 
L 4493 2765 
Q 4640 2765 4707 2678 
Q 4774 2592 4774 2534 
Q 4774 2477 4736 2441 
Q 4698 2406 4678 2387 
Q 4058 1798 3514 1536 
Q 3315 1440 3254 1440 
Q 3194 1440 3117 1533 
Q 3040 1626 3040 1677 
Q 3040 1728 3162 1786 
Q 3750 2061 4192 2406 
L 2054 2285 
z
M 3098 5254 
Q 3238 5254 3369 5139 
Q 3501 5024 3501 4979 
Q 3501 4934 3354 4723 
Q 4019 4083 4700 3587 
Q 5382 3091 6182 2720 
Q 6285 2675 6285 2627 
Q 6285 2579 6221 2509 
Q 6074 2342 5958 2342 
Q 5920 2342 5673 2476 
Q 5427 2611 5030 2880 
Q 4058 3533 3142 4429 
Q 2733 3891 2201 3411 
Q 1670 2931 1030 2540 
Q 390 2150 237 2150 
Q 179 2150 179 2189 
Q 179 2266 358 2381 
Q 2086 3520 2950 4909 
Q 3027 5018 3027 5165 
Q 3040 5254 3098 5254 
z
" transform="scale(0.015625)"/>
     </defs>
     <use xlink:href="#LXGWWenKai-Regular-5185" transform="translate(0 0.90625)"/>
     <use xlink:href="#LXGWWenKai-Regular-542b" transform="translate(99.999985 0.90625)"/>
     <use xlink:href="#LXGWWenKai-Regular-3a" transform="translate(199.999969 0.90625)"/>
     <use xlink:href="#LXGWWenKai-Regular-20" transform="translate(234.999954 0.90625)"/>
     <use xlink:href="#STIXGeneral-Italic-64" transform="translate(269.999939 0.90625)"/>
     <use xlink:href="#STIXGeneral-Regular-3c" transform="translate(334.43992 0.90625)"/>
     <use xlink:href="#STIXGeneral-Regular-7c" transform="translate(417.379901 0.90625)"/>
     <use xlink:href="#STIXGeneral-Italic-72" transform="translate(437.379886 0.90625)"/>
     <use xlink:href="#STIXGeneral-Regular-31" transform="translate(476.27988 -12.321875) scale(0.7)"/>
     <use xlink:href="#STIXGeneral-Regular-2212" transform="translate(530.12924 0.90625)"/>
     <use xlink:href="#STIXGeneral-Italic-72" transform="translate(613.069221 0.90625)"/>
     <use xlink:href="#STIXGeneral-Regular-32" transform="translate(651.969215 -12.321875) scale(0.7)"/>
     <use xlink:href="#STIXGeneral-Regular-7c" transform="translate(691.37858 0.90625)"/>
    </g>
   </g>
  </g>
 </g>
 <defs>
  <clipPath id="p4e81770e2f">
   <rect x="14.4" y="10.08" width="691.2" height="483.84"/>
  </clipPath>
 </defs>
</svg>
