<?xml version="1.0" encoding="utf-8" standalone="no"?>
<!DOCTYPE svg PUBLIC "-//W3C//DTD SVG 1.1//EN"
  "http://www.w3.org/Graphics/SVG/1.1/DTD/svg11.dtd">
<svg xmlns:xlink="http://www.w3.org/1999/xlink" width="720pt" height="540pt" viewBox="0 0 720 540" xmlns="http://www.w3.org/2000/svg" version="1.1">
 <metadata>
  <rdf:RDF xmlns:dc="http://purl.org/dc/elements/1.1/" xmlns:cc="http://creativecommons.org/ns#" xmlns:rdf="http://www.w3.org/1999/02/22-rdf-syntax-ns#">
   <cc:Work>
    <dc:type rdf:resource="http://purl.org/dc/dcmitype/StillImage"/>
    <dc:date>2026-02-12T10:51:14.602622</dc:date>
    <dc:format>image/svg+xml</dc:format>
    <dc:creator>
     <cc:Agent>
      <dc:title>Matplotlib v3.10.8, https://matplotlib.org/</dc:title>
     </cc:Agent>
    </dc:creator>
   </cc:Work>
  </rdf:RDF>
 </metadata>
 <defs>
  <style type="text/css">*{stroke-linejoin: round; stroke-linecap: butt}</style>
 </defs>
 <g id="figure_1">
  <g id="patch_1">
   <path d="M 0 540 
L 720 540 
L 720 0 
L 0 0 
z
" style="fill: #fefdf5"/>
  </g>
  <g id="axes_1">
   <g id="patch_2">
    <path d="M 360 432 
C 398.189246 432 434.819501 426.310219 461.823376 416.183766 
C 488.827252 406.057313 504 392.320967 504 378 
C 504 363.679033 488.827252 349.942687 461.823376 339.816234 
C 434.819501 329.689781 398.189246 324 360 324 
C 321.810754 324 285.180499 329.689781 258.176624 339.816234 
C 231.172748 349.942687 216 363.679033 216 378 
C 216 392.320967 231.172748 406.057313 258.176624 416.183766 
C 285.180499 426.310219 321.810754 432 360 432 
L 360 432 
z
" clip-path="url(#pb852c06d79)" style="fill: none; opacity: 0.6; stroke: #636363; stroke-linejoin: miter"/>
   </g>
   <g id="text_1">
    <!-- 第一章 -->
    <g style="fill: #111111" transform="translate(330 135) scale(0.2 -0.2)">
     <defs>
      <path id="LXGWWenKai-Regular-7b2c" d="M 3904 5069 
L 3910 5146 
Q 3923 5248 3984 5248 
Q 4045 5248 4131 5190 
Q 4218 5133 4288 5062 
Q 4358 4992 4358 4947 
Q 4358 4902 4333 4870 
L 4147 4576 
L 5325 4666 
Q 5485 4685 5542 4704 
Q 5600 4723 5629 4723 
Q 5658 4723 5728 4685 
Q 5920 4570 5920 4454 
Q 5920 4384 5786 4371 
L 4550 4288 
Q 5114 3923 5114 3821 
Q 5114 3776 5046 3683 
Q 4979 3590 4918 3590 
Q 4858 3590 4755 3692 
Q 4653 3795 4397 3987 
Q 4301 4058 4301 4118 
Q 4301 4179 4397 4275 
L 3904 4243 
Q 3590 3866 3258 3616 
Q 3110 3507 3056 3507 
Q 3002 3507 3002 3546 
Q 3002 3603 3162 3779 
Q 3322 3955 3494 4218 
Q 3840 4730 3904 5069 
z
M 1773 5152 
Q 1850 5152 2000 5037 
Q 2150 4922 2150 4858 
Q 2150 4794 1907 4474 
L 2867 4538 
Q 2989 4550 3069 4576 
Q 3149 4602 3197 4602 
Q 3245 4602 3315 4550 
Q 3386 4499 3434 4435 
Q 3482 4371 3482 4339 
Q 3482 4262 3341 4250 
L 2259 4179 
Q 2342 4128 2585 3945 
Q 2829 3763 2829 3693 
Q 2829 3680 2797 3622 
Q 2714 3469 2618 3469 
Q 2579 3469 2428 3613 
Q 2278 3757 2048 3930 
Q 1978 3981 1978 4032 
Q 1978 4083 2061 4166 
L 1651 4141 
Q 1184 3558 736 3258 
Q 563 3142 515 3142 
Q 467 3142 467 3174 
Q 467 3219 557 3328 
Q 1178 3987 1651 4787 
Q 1709 4890 1709 5011 
L 1709 5062 
Q 1709 5152 1773 5152 
z
M 5280 1824 
L 5370 1830 
Q 5440 1830 5529 1763 
Q 5619 1696 5619 1632 
Q 5619 1568 5593 1542 
Q 5568 1517 5562 1485 
Q 5523 1165 5427 761 
Q 5331 358 5305 243 
Q 5280 128 5190 22 
Q 5101 -83 5021 -83 
Q 4941 -83 4720 13 
Q 4499 109 4102 358 
Q 3706 608 3706 717 
Q 3706 749 3766 749 
Q 3827 749 4166 611 
Q 4506 474 4870 384 
L 4890 384 
Q 4922 384 4928 416 
Q 5114 1037 5178 1485 
L 3398 1382 
L 3392 -525 
Q 3392 -666 3277 -666 
Q 3142 -666 3052 -586 
Q 2963 -506 2963 -454 
L 2963 -384 
Q 2963 -365 2979 -310 
Q 2995 -256 2995 -64 
L 2995 38 
L 3008 1133 
Q 2246 371 1363 -64 
Q 998 -243 755 -323 
Q 512 -403 448 -403 
Q 384 -403 384 -378 
Q 384 -314 595 -198 
Q 1843 474 2694 1344 
L 1638 1280 
Q 1555 1274 1507 1258 
Q 1459 1242 1408 1242 
Q 1357 1242 1277 1296 
Q 1197 1350 1197 1414 
Q 1197 1478 1216 1523 
L 1440 2182 
Q 1472 2266 1472 2368 
L 1453 2573 
L 1453 2611 
Q 1453 2682 1504 2682 
Q 1581 2682 1837 2515 
L 3021 2579 
L 3027 3098 
L 1830 3021 
Q 1792 3014 1754 3014 
L 1690 3014 
Q 1542 3014 1465 3091 
Q 1389 3168 1366 3248 
Q 1344 3328 1344 3350 
Q 1344 3373 1376 3373 
L 1645 3347 
L 1715 3347 
L 4794 3539 
L 4851 3539 
Q 5037 3539 5088 3462 
Q 5139 3386 5139 3354 
Q 5139 3322 5107 3283 
Q 5075 3245 5062 3206 
L 4928 2656 
Q 5082 2483 5082 2428 
Q 5082 2374 5027 2368 
Q 4973 2362 4896 2355 
L 3405 2272 
L 3405 1722 
L 5280 1824 
z
M 4672 3206 
L 3411 3123 
L 3405 2598 
L 4557 2662 
L 4672 3206 
z
M 3014 2246 
L 1805 2176 
L 1632 1619 
L 3008 1696 
L 3014 2246 
z
" transform="scale(0.015625)"/>
      <path id="LXGWWenKai-Regular-4e00" d="M 704 2451 
L 5357 2688 
Q 5510 2701 5574 2726 
Q 5638 2752 5676 2752 
Q 5715 2752 5804 2697 
Q 5894 2643 5968 2563 
Q 6042 2483 6042 2419 
Q 6042 2317 5894 2304 
L 947 2048 
Q 896 2042 851 2042 
L 774 2042 
Q 646 2042 582 2086 
Q 474 2176 426 2304 
Q 378 2432 378 2464 
Q 378 2496 400 2496 
Q 422 2496 499 2473 
Q 576 2451 704 2451 
z
" transform="scale(0.015625)"/>
      <path id="LXGWWenKai-Regular-7ae0" d="M 5331 3674 
Q 5344 3674 5600 3725 
Q 5702 3725 5808 3619 
Q 5914 3514 5914 3469 
Q 5914 3392 5779 3379 
L 979 3123 
L 819 3117 
Q 614 3117 525 3315 
Q 486 3411 486 3440 
Q 486 3469 525 3469 
Q 653 3443 800 3443 
L 851 3443 
L 2445 3526 
Q 2259 3782 2169 3875 
Q 2080 3968 2057 3993 
Q 2035 4019 2035 4057 
Q 2035 4096 2125 4160 
L 1587 4128 
L 1478 4128 
Q 1338 4128 1299 4160 
Q 1146 4314 1146 4422 
Q 1146 4454 1184 4454 
Q 1338 4429 1395 4429 
L 2976 4518 
L 2963 4915 
Q 2957 5069 2918 5117 
Q 2880 5165 2880 5206 
Q 2880 5248 2934 5248 
Q 2989 5248 3034 5235 
L 3149 5216 
Q 3283 5190 3324 5148 
Q 3366 5107 3366 5037 
L 3354 4538 
L 4634 4614 
Q 4774 4634 4822 4650 
Q 4870 4666 4902 4666 
Q 4934 4666 5011 4634 
Q 5216 4538 5216 4422 
Q 5216 4339 5075 4333 
L 4006 4269 
Q 4237 4154 4237 4048 
Q 4237 3942 3859 3603 
L 5331 3674 
z
M 2336 4173 
Q 2515 4032 2643 3888 
Q 2771 3744 2771 3686 
Q 2771 3629 2656 3539 
L 3462 3578 
Q 3821 4013 3821 4218 
Q 3821 4250 3827 4256 
L 2336 4173 
z
M 2925 -422 
Q 2957 -198 2957 -58 
L 2963 493 
L 941 410 
L 710 403 
Q 627 403 524 444 
Q 422 486 352 704 
Q 346 717 346 752 
Q 346 787 384 787 
Q 397 787 480 761 
Q 563 736 710 736 
L 774 736 
L 2963 826 
L 2970 1235 
L 2144 1190 
L 2144 1146 
Q 2144 1024 2042 1024 
Q 1958 1024 1833 1085 
Q 1709 1146 1709 1248 
L 1709 1267 
Q 1722 1370 1722 1450 
Q 1722 1530 1709 1619 
L 1632 2496 
Q 1619 2669 1571 2765 
Q 1523 2861 1523 2880 
Q 1523 2925 1609 2925 
Q 1696 2925 2022 2822 
L 4493 2963 
L 4531 2963 
Q 4653 2963 4745 2896 
Q 4838 2829 4838 2765 
Q 4838 2701 4819 2665 
Q 4800 2630 4794 2605 
L 4634 1613 
Q 4800 1453 4800 1382 
Q 4800 1312 4627 1299 
L 3373 1248 
L 3373 845 
L 5421 915 
Q 5626 928 5690 950 
Q 5754 973 5779 973 
Q 5805 973 5875 928 
Q 6080 806 6080 698 
Q 6080 614 5939 602 
L 3373 512 
L 3379 -544 
Q 3379 -659 3277 -659 
Q 3149 -659 2995 -557 
Q 2925 -506 2925 -422 
z
M 4384 2643 
L 2022 2522 
L 2054 2176 
L 4346 2291 
L 4384 2643 
z
M 4307 1990 
L 2080 1875 
L 2112 1504 
L 4262 1600 
L 4307 1990 
z
" transform="scale(0.015625)"/>
     </defs>
     <use xlink:href="#LXGWWenKai-Regular-7b2c"/>
     <use xlink:href="#LXGWWenKai-Regular-4e00" transform="translate(99.999985 0)"/>
     <use xlink:href="#LXGWWenKai-Regular-7ae0" transform="translate(199.999969 0)"/>
    </g>
   </g>
   <g id="text_2">
    <!-- 探秘圆锥曲线的由来 -->
    <g style="fill: #111111" transform="translate(234 189) scale(0.28 -0.28)">
     <defs>
      <path id="LXGWWenKai-Regular-63a2" d="M 5008 3635 
Q 5235 3392 5376 3206 
Q 5517 3021 5517 2953 
Q 5517 2886 5414 2800 
Q 5312 2714 5248 2714 
Q 5184 2714 5107 2829 
Q 4762 3366 4269 3891 
Q 4205 3955 4205 4012 
Q 4205 4070 4278 4134 
Q 4352 4198 4400 4198 
Q 4448 4198 4614 4038 
Q 4781 3878 5008 3635 
z
M 4352 1939 
Q 5178 1005 6234 435 
Q 6330 390 6330 339 
Q 6330 326 6285 256 
Q 6157 58 6035 58 
Q 6010 58 5840 166 
Q 5670 275 5402 486 
Q 4787 966 4192 1670 
L 4198 -448 
Q 4198 -621 4077 -621 
Q 4013 -621 3904 -563 
Q 3795 -506 3795 -403 
Q 3795 -384 3795 -365 
Q 3795 -346 3811 -262 
Q 3827 -179 3827 224 
L 3834 1613 
Q 3206 582 2182 45 
Q 2099 -6 2038 -6 
Q 1978 -6 1978 32 
Q 1978 96 2112 205 
Q 3040 941 3648 1907 
L 2938 1869 
Q 2810 1856 2717 1856 
Q 2624 1856 2550 1936 
Q 2477 2016 2445 2105 
Q 2413 2195 2413 2224 
Q 2413 2253 2445 2253 
Q 2477 2253 2541 2230 
Q 2605 2208 2726 2208 
L 2803 2208 
L 3834 2259 
L 3834 2707 
Q 3834 2925 3786 2995 
Q 3738 3066 3738 3101 
Q 3738 3136 3798 3136 
Q 3859 3136 3949 3123 
Q 4192 3078 4192 2931 
L 4192 2278 
L 5120 2330 
Q 5286 2342 5356 2368 
Q 5427 2394 5459 2394 
Q 5491 2394 5568 2349 
Q 5766 2227 5766 2124 
Q 5766 2022 5670 2010 
L 4352 1939 
z
M 3411 4032 
L 3398 4147 
Q 3398 4224 3456 4224 
Q 3514 4224 3603 4182 
Q 3693 4141 3766 4077 
Q 3840 4013 3840 3961 
Q 3840 3910 3814 3866 
Q 3552 3341 3098 2918 
Q 2918 2752 2784 2669 
Q 2650 2586 2611 2586 
Q 2573 2586 2573 2630 
Q 2573 2675 2713 2835 
Q 2854 2995 3021 3245 
Q 3411 3814 3411 4032 
z
M 3008 4294 
Q 2835 3661 2771 3587 
Q 2707 3514 2675 3514 
Q 2643 3514 2579 3533 
Q 2400 3597 2400 3712 
Q 2400 3750 2525 4016 
Q 2650 4282 2790 4915 
Q 2822 5056 2906 5056 
Q 3008 5056 3078 5014 
Q 3149 4973 3149 4918 
Q 3149 4864 3142 4845 
L 3104 4666 
L 5600 4838 
Q 5619 4845 5708 4845 
Q 5798 4845 5868 4745 
Q 5939 4646 5939 4595 
Q 5939 4544 5904 4512 
Q 5869 4480 5849 4454 
Q 5830 4429 5741 4301 
Q 5312 3686 5139 3686 
Q 5088 3686 5088 3750 
Q 5088 3814 5155 3926 
Q 5222 4038 5414 4461 
L 3008 4294 
z
M 346 3565 
Q 474 3539 538 3539 
L 646 3539 
Q 685 3539 730 3546 
L 1344 3590 
L 1350 4621 
Q 1350 4819 1248 4973 
Q 1229 5005 1229 5024 
Q 1229 5069 1302 5069 
Q 1376 5069 1517 5017 
Q 1658 4966 1699 4915 
Q 1741 4864 1741 4794 
L 1734 3616 
L 1856 3622 
Q 1984 3635 2048 3667 
Q 2112 3699 2153 3699 
Q 2195 3699 2278 3648 
Q 2477 3507 2477 3411 
Q 2477 3334 2330 3315 
L 1734 3270 
L 1728 2221 
Q 1882 2310 1994 2374 
Q 2106 2438 2214 2505 
Q 2323 2573 2377 2573 
Q 2432 2573 2432 2528 
Q 2432 2419 1728 1894 
L 1715 109 
L 1722 -115 
Q 1722 -320 1603 -409 
Q 1485 -499 1398 -499 
Q 1312 -499 1165 -393 
Q 1018 -288 864 -137 
Q 710 13 608 157 
Q 506 301 506 352 
Q 506 403 538 403 
Q 582 403 777 272 
Q 973 141 1325 -6 
L 1331 1626 
Q 691 1210 570 1210 
Q 512 1210 422 1264 
Q 333 1318 265 1388 
Q 198 1459 198 1504 
Q 198 1549 262 1558 
Q 326 1568 454 1606 
Q 582 1645 1338 2016 
L 1344 3245 
L 864 3206 
Q 736 3194 637 3194 
Q 538 3194 499 3232 
Q 371 3354 320 3501 
Q 314 3514 314 3539 
Q 314 3565 346 3565 
z
" transform="scale(0.015625)"/>
      <path id="LXGWWenKai-Regular-79d8" d="M 314 3194 
Q 467 3168 576 3168 
L 646 3168 
L 1459 3219 
L 1466 4077 
Q 1101 3955 835 3894 
Q 570 3834 502 3834 
Q 435 3834 435 3885 
Q 435 3949 589 4006 
Q 1293 4275 2016 4742 
Q 2125 4806 2166 4896 
Q 2208 4986 2256 4986 
Q 2304 4986 2381 4902 
Q 2458 4819 2512 4723 
Q 2566 4627 2566 4582 
Q 2566 4538 2515 4518 
Q 2182 4352 1805 4198 
L 1805 3245 
L 2253 3270 
Q 2419 3290 2473 3309 
Q 2528 3328 2576 3328 
Q 2624 3328 2701 3283 
Q 2880 3174 2880 3072 
Q 2880 3002 2758 2989 
L 1805 2918 
L 1805 2528 
Q 1901 2624 1971 2624 
Q 2042 2624 2323 2291 
Q 2605 1958 2605 1856 
Q 2605 1811 2531 1728 
Q 2458 1645 2381 1645 
Q 2304 1645 2234 1773 
Q 2029 2144 1805 2368 
L 1811 -435 
Q 1811 -589 1702 -589 
Q 1645 -589 1568 -550 
Q 1402 -474 1402 -346 
Q 1402 -307 1421 -204 
Q 1440 -102 1440 128 
L 1440 307 
L 1453 1946 
Q 1453 2106 1472 2317 
L 1472 2394 
Q 1325 1869 704 1024 
Q 352 557 243 557 
Q 198 557 198 614 
Q 198 672 384 947 
Q 838 1619 1357 2893 
L 800 2848 
Q 685 2835 585 2835 
Q 486 2835 409 2902 
Q 333 2970 301 3050 
Q 269 3130 269 3162 
Q 269 3194 314 3194 
z
M 3674 1082 
Q 3456 1677 3424 2842 
L 3424 2899 
Q 3424 2970 3453 2995 
Q 3482 3021 3597 3027 
L 3629 3027 
Q 3731 3027 3753 2988 
Q 3776 2950 3789 2701 
Q 3814 1958 3936 1459 
Q 4442 2240 4723 3482 
Q 4877 4128 4877 4291 
Q 4877 4454 4854 4521 
Q 4832 4589 4832 4621 
Q 4832 4653 4889 4653 
Q 4947 4653 5072 4611 
Q 5197 4570 5261 4522 
Q 5325 4474 5325 4432 
Q 5325 4390 5286 4173 
Q 5184 3520 4899 2640 
Q 4614 1760 4077 1056 
Q 4314 582 4826 410 
Q 5146 301 5440 301 
Q 5478 301 5478 320 
L 5478 333 
L 5280 1126 
Q 5261 1216 5261 1302 
Q 5261 1389 5312 1389 
Q 5382 1389 5481 1177 
Q 5581 966 5667 771 
Q 5754 576 5856 413 
Q 5958 250 5958 150 
Q 5958 51 5846 -25 
Q 5734 -102 5459 -102 
Q 5184 -102 4870 -13 
Q 4160 198 3827 755 
Q 3264 147 2662 -141 
Q 2419 -250 2345 -250 
Q 2272 -250 2272 -218 
Q 2272 -166 2438 -51 
Q 3194 454 3674 1082 
z
M 4429 3529 
Q 4429 3437 4333 3350 
Q 4237 3264 4179 3264 
Q 4122 3264 3981 3418 
Q 3693 3750 3302 4064 
Q 3226 4134 3226 4176 
Q 3226 4218 3290 4291 
Q 3354 4365 3411 4365 
Q 3469 4365 3661 4246 
Q 3853 4128 4109 3891 
Q 4429 3622 4429 3529 
z
M 6067 1523 
Q 6003 1491 5978 1491 
Q 5926 1491 5805 1690 
Q 5568 2080 5139 2522 
Q 5056 2605 5056 2656 
Q 5056 2707 5139 2790 
Q 5203 2842 5261 2842 
Q 5357 2842 5795 2358 
Q 6234 1875 6234 1750 
Q 6234 1626 6067 1523 
z
M 2931 1037 
Q 2893 928 2816 928 
Q 2765 928 2675 966 
Q 2566 1005 2566 1094 
Q 2566 1139 2630 1306 
Q 2803 1741 2893 2336 
Q 2906 2413 2928 2448 
Q 2950 2483 3059 2483 
Q 3232 2483 3232 2349 
Q 3232 2157 3123 1721 
Q 3014 1286 2931 1037 
z
" transform="scale(0.015625)"/>
      <path id="LXGWWenKai-Regular-5706" d="M 5562 173 
Q 5766 -51 5766 -121 
Q 5766 -192 5702 -201 
Q 5638 -211 5549 -218 
L 1248 -314 
L 1248 -518 
Q 1248 -685 1139 -685 
Q 998 -685 899 -585 
Q 800 -486 800 -390 
L 800 -358 
Q 800 -333 822 -243 
Q 845 -154 845 102 
L 838 4358 
Q 838 4557 730 4774 
Q 717 4800 717 4819 
Q 717 4864 800 4864 
Q 883 4864 1248 4736 
L 5229 4973 
L 5286 4973 
Q 5517 4973 5581 4819 
Q 5606 4762 5606 4742 
L 5581 4608 
L 5562 173 
z
M 5165 4602 
L 1235 4384 
L 1248 45 
L 5152 154 
L 5165 4602 
z
M 4474 192 
Q 4429 192 4301 282 
Q 3981 518 3373 781 
Q 3290 826 3290 883 
Q 3290 941 3347 1017 
Q 3405 1094 3462 1094 
Q 3520 1094 4000 860 
Q 4480 627 4560 579 
Q 4640 531 4640 473 
Q 4640 416 4595 304 
Q 4550 192 4474 192 
z
M 2048 1434 
L 1958 2432 
Q 1946 2643 1904 2736 
Q 1862 2829 1862 2857 
Q 1862 2886 1936 2886 
Q 2010 2886 2336 2790 
L 4109 2886 
L 4128 2886 
Q 4230 2886 4323 2809 
Q 4416 2733 4416 2691 
Q 4416 2650 4403 2624 
Q 4390 2598 4384 2573 
L 4301 1472 
L 4294 1178 
L 4288 1114 
Q 4275 1018 4192 1030 
Q 4090 1030 3987 1110 
Q 3885 1190 3923 1308 
Q 3962 1427 4019 2592 
L 2304 2502 
L 2381 1421 
L 2400 1126 
L 2400 1062 
Q 2400 966 2297 966 
Q 2195 966 2108 1024 
Q 2022 1082 2022 1165 
L 2048 1434 
z
M 2189 3232 
L 2195 3315 
Q 2195 3373 2182 3450 
L 2138 3904 
Q 2125 4045 2070 4137 
Q 2016 4230 2016 4262 
Q 2016 4294 2077 4294 
Q 2138 4294 2445 4173 
L 3930 4269 
L 3974 4269 
Q 4077 4269 4141 4211 
Q 4205 4154 4205 4112 
Q 4205 4070 4195 4041 
Q 4186 4013 4179 3987 
L 4070 3462 
Q 4218 3309 4218 3267 
Q 4218 3226 4173 3222 
Q 4128 3219 4064 3213 
L 2560 3136 
L 2560 3110 
Q 2560 3021 2451 3021 
Q 2342 3021 2265 3065 
Q 2189 3110 2189 3194 
L 2189 3232 
z
M 3795 3974 
L 2483 3891 
L 2528 3411 
L 3725 3482 
L 3795 3974 
z
M 3059 2010 
Q 3059 2131 3027 2182 
Q 2995 2234 2995 2259 
Q 2995 2330 3116 2330 
Q 3238 2330 3328 2278 
Q 3418 2227 3418 2131 
Q 3398 1549 3273 1248 
Q 3149 947 2985 777 
Q 2822 608 2633 489 
Q 2445 371 2272 300 
Q 2099 230 1894 182 
Q 1690 134 1664 134 
Q 1568 134 1568 217 
Q 1568 301 1677 352 
Q 2707 691 2938 1318 
Q 3046 1606 3052 1718 
Q 3059 1830 3059 1914 
L 3059 2010 
z
" transform="scale(0.015625)"/>
      <path id="LXGWWenKai-Regular-9525" d="M 314 2842 
Q 288 2842 288 2902 
Q 288 2963 512 3280 
Q 736 3597 992 4163 
Q 1248 4730 1248 5024 
Q 1248 5101 1296 5101 
Q 1344 5101 1427 5062 
Q 1664 4941 1664 4794 
Q 1664 4762 1549 4522 
Q 1434 4282 1382 4192 
L 1933 4237 
Q 2029 4243 2173 4291 
Q 2317 4339 2397 4339 
Q 2477 4339 2579 4233 
Q 2682 4128 2682 4041 
Q 2682 3955 2605 3942 
L 1171 3846 
Q 1075 3680 883 3437 
Q 659 3123 508 2982 
Q 358 2842 314 2842 
z
M 2522 710 
Q 2176 358 1814 67 
Q 1453 -224 1369 -224 
Q 1286 -224 1187 -89 
Q 1088 45 1088 96 
Q 1088 122 1142 134 
Q 1197 147 1338 218 
L 1350 1670 
L 896 1645 
Q 794 1632 714 1632 
Q 634 1632 589 1658 
Q 378 1811 378 1952 
Q 378 2003 416 2003 
L 659 1978 
L 1350 2016 
L 1363 2835 
L 1114 2822 
Q 954 2822 928 2842 
Q 723 2989 723 3155 
Q 723 3187 768 3187 
Q 787 3187 841 3174 
Q 896 3162 1114 3162 
Q 2067 3213 2160 3251 
Q 2253 3290 2288 3290 
Q 2323 3290 2400 3226 
Q 2586 3098 2586 3002 
Q 2586 2925 2438 2912 
L 1734 2861 
L 1728 2035 
Q 2144 2054 2221 2086 
Q 2298 2118 2320 2118 
Q 2342 2118 2419 2067 
Q 2630 1946 2630 1830 
Q 2630 1760 2490 1747 
L 1722 1696 
L 1715 422 
Q 2067 621 2313 797 
Q 2560 973 2605 973 
Q 2650 973 2650 902 
Q 2650 832 2522 710 
z
M 3616 5011 
L 3597 5114 
Q 3597 5184 3661 5184 
Q 3738 5184 3878 5120 
Q 4096 5024 4096 4922 
Q 4096 4890 4090 4870 
Q 3846 4269 3488 3674 
L 4301 3718 
Q 4698 4403 4698 4678 
L 4698 4710 
Q 4698 4730 4691 4755 
L 4691 4781 
Q 4691 4851 4736 4851 
Q 4870 4851 5062 4672 
Q 5139 4614 5139 4569 
Q 5139 4525 4937 4189 
Q 4736 3853 4653 3744 
L 5184 3776 
Q 5350 3789 5411 3811 
Q 5472 3834 5504 3834 
Q 5536 3834 5613 3789 
Q 5824 3661 5824 3565 
Q 5824 3488 5658 3475 
L 4659 3418 
L 4653 2650 
L 4992 2669 
Q 5107 2682 5180 2707 
Q 5254 2733 5292 2733 
Q 5331 2733 5411 2685 
Q 5491 2637 5552 2569 
Q 5613 2502 5613 2444 
Q 5613 2387 5453 2374 
L 4653 2330 
L 4646 1606 
L 4966 1619 
Q 5152 1632 5200 1651 
Q 5248 1670 5309 1670 
Q 5370 1670 5453 1616 
Q 5536 1562 5593 1494 
Q 5651 1427 5651 1389 
Q 5651 1325 5491 1312 
L 4640 1274 
L 4634 403 
L 5485 429 
Q 5645 435 5731 467 
Q 5818 499 5872 499 
Q 5926 499 6012 444 
Q 6099 390 6156 320 
Q 6214 250 6214 192 
Q 6214 134 6042 115 
L 3418 19 
L 3418 -493 
Q 3418 -640 3328 -640 
Q 3264 -640 3161 -595 
Q 3059 -550 3017 -508 
Q 2976 -467 2976 -412 
Q 2976 -358 3001 -236 
Q 3027 -115 3027 128 
L 3046 3053 
Q 2490 2362 2368 2362 
Q 2342 2362 2342 2413 
Q 2342 2464 2406 2573 
Q 3123 3622 3475 4486 
Q 3616 4851 3616 4922 
L 3616 5011 
z
M 4294 3392 
L 3398 3334 
L 3405 2586 
L 4282 2630 
L 4294 3392 
z
M 4282 2310 
L 3405 2266 
L 3411 1542 
L 4262 1581 
L 4282 2310 
z
M 4262 1254 
L 3411 1222 
L 3411 365 
L 4250 390 
L 4262 1254 
z
" transform="scale(0.015625)"/>
      <path id="LXGWWenKai-Regular-66f2" d="M 5350 397 
Q 5549 173 5549 102 
Q 5549 32 5485 22 
Q 5421 13 5331 6 
L 1427 -96 
L 1440 -307 
L 1440 -326 
Q 1440 -474 1325 -474 
Q 1197 -474 1101 -387 
Q 1005 -301 1005 -186 
Q 1005 -166 1005 -147 
Q 1005 -128 1011 -109 
Q 1030 64 1030 237 
L 1030 314 
L 915 2925 
Q 896 3162 841 3267 
Q 787 3373 787 3408 
Q 787 3443 864 3443 
Q 941 3443 1293 3309 
L 2285 3360 
L 2259 4448 
Q 2259 4582 2182 4675 
Q 2106 4768 2106 4806 
Q 2106 4845 2195 4845 
Q 2285 4845 2432 4800 
Q 2579 4755 2614 4713 
Q 2650 4672 2650 4589 
L 2675 3386 
L 3680 3437 
L 3706 4589 
Q 3706 4749 3603 4877 
Q 3565 4928 3565 4957 
Q 3565 4986 3657 4986 
Q 3750 4986 3891 4934 
Q 4032 4883 4067 4838 
Q 4102 4794 4102 4710 
L 4064 3456 
L 5242 3520 
L 5306 3520 
Q 5408 3520 5504 3440 
Q 5600 3360 5600 3296 
Q 5600 3232 5584 3206 
Q 5568 3181 5562 3149 
L 5350 397 
z
M 5165 3136 
L 4058 3085 
L 4026 1984 
L 5088 2035 
L 5165 3136 
z
M 3667 3066 
L 2682 3014 
L 2701 1926 
L 3648 1965 
L 3667 3066 
z
M 2291 2995 
L 1293 2950 
L 1344 1862 
L 2317 1907 
L 2291 2995 
z
M 5062 1670 
L 4019 1626 
L 3981 352 
L 4966 384 
L 5062 1670 
z
M 3635 1613 
L 2707 1574 
L 2726 314 
L 3610 339 
L 3635 1613 
z
M 2330 1555 
L 1357 1517 
L 1414 269 
L 2355 301 
L 2330 1555 
z
" transform="scale(0.015625)"/>
      <path id="LXGWWenKai-Regular-7ebf" d="M 1837 1888 
Q 2112 1933 2281 1961 
Q 2451 1990 2544 1984 
Q 2637 1978 2630 1926 
Q 2624 1837 2243 1680 
Q 1862 1523 1430 1414 
Q 998 1306 928 1312 
Q 858 1318 813 1357 
Q 691 1504 659 1609 
Q 627 1715 627 1728 
Q 634 1786 698 1779 
L 794 1773 
Q 922 1760 1043 1766 
Q 1299 2144 1517 2515 
L 1574 2605 
Q 1088 2944 608 3149 
Q 499 3200 486 3251 
Q 474 3302 518 3401 
Q 563 3501 624 3513 
Q 685 3526 806 3482 
Q 832 3469 851 3462 
Q 1395 4250 1510 4544 
Q 1626 4838 1626 4979 
L 1626 5043 
Q 1626 5114 1677 5114 
Q 1709 5114 1798 5062 
Q 2042 4915 2042 4781 
Q 2003 4621 1792 4250 
Q 1600 3904 1171 3290 
L 1325 3206 
Q 1600 3053 1779 2931 
Q 2202 3648 2246 3834 
Q 2259 3891 2265 3987 
Q 2272 4083 2307 4083 
Q 2342 4083 2426 4032 
Q 2662 3891 2669 3750 
Q 2669 3706 2650 3661 
Q 2093 2688 1504 1830 
Q 1664 1862 1837 1888 
z
M 1549 627 
Q 2099 845 2419 989 
Q 2739 1133 2796 1139 
Q 2854 1146 2861 1126 
Q 2874 986 1926 442 
Q 979 -102 813 -115 
Q 768 -122 681 -45 
Q 595 32 534 128 
Q 474 224 467 275 
Q 467 301 531 307 
L 595 314 
Q 698 320 883 378 
L 1549 627 
z
M 5274 4154 
Q 5171 4019 4992 4192 
Q 4640 4550 4461 4688 
Q 4282 4826 4291 4890 
Q 4301 4954 4355 5014 
Q 4410 5075 4451 5062 
Q 4493 5050 4595 4979 
Q 5370 4467 5350 4282 
Q 5338 4237 5274 4154 
z
M 3987 3226 
Q 4122 2598 4141 2483 
L 5254 2682 
Q 5357 2701 5424 2736 
Q 5491 2771 5523 2774 
Q 5555 2778 5632 2733 
Q 5837 2598 5850 2490 
Q 5862 2419 5702 2387 
L 4237 2125 
L 4294 1920 
Q 4307 1888 4320 1856 
Q 4333 1824 4384 1667 
Q 4435 1510 4582 1222 
Q 5101 1638 5165 1724 
Q 5229 1811 5241 1891 
Q 5254 1971 5289 1971 
Q 5325 1971 5395 1914 
Q 5587 1741 5587 1600 
Q 5587 1542 5530 1485 
Q 5139 1146 4768 896 
Q 5165 269 5683 -70 
Q 5702 -77 5718 -86 
Q 5734 -96 5747 -96 
Q 5843 -96 6048 896 
Q 6106 1171 6173 1171 
Q 6240 1171 6240 922 
L 6240 870 
Q 6234 390 6144 -218 
Q 6118 -397 6048 -473 
Q 5978 -550 5805 -550 
Q 5632 -550 5389 -390 
Q 4896 -70 4435 685 
Q 3571 186 2534 -90 
Q 2342 -141 2281 -141 
Q 2221 -141 2221 -96 
Q 2221 -26 2387 38 
Q 3603 563 4256 998 
Q 4205 1107 4150 1222 
Q 4096 1338 3910 1850 
L 3859 2054 
L 3187 1939 
L 3091 1926 
Q 2989 1914 2893 1965 
Q 2797 2016 2701 2202 
Q 2669 2278 2726 2285 
Q 2752 2291 2829 2281 
Q 2906 2272 3085 2291 
L 3757 2406 
Q 3718 2573 3686 2739 
L 3610 3149 
L 3277 3085 
L 3181 3072 
Q 3014 3046 2950 3136 
Q 2906 3181 2848 3267 
Q 2790 3354 2790 3386 
Q 2778 3437 2854 3430 
Q 2963 3418 3078 3437 
L 3162 3443 
L 3552 3520 
L 3501 3878 
Q 3450 4218 3418 4538 
Q 3386 4858 3357 4928 
Q 3328 4998 3277 5056 
Q 3226 5114 3226 5146 
Q 3226 5197 3293 5197 
Q 3360 5197 3469 5190 
Q 3763 5165 3776 4979 
Q 3808 4493 3878 3936 
L 3923 3610 
L 3923 3590 
L 4774 3750 
Q 4832 3763 4921 3798 
Q 5011 3834 5052 3840 
Q 5094 3846 5177 3808 
Q 5261 3770 5325 3712 
Q 5510 3526 5210 3469 
L 3987 3226 
z
" transform="scale(0.015625)"/>
      <path id="LXGWWenKai-Regular-7684" d="M 3846 4890 
L 3834 4992 
Q 3834 5069 3898 5069 
Q 3917 5069 4019 5024 
Q 4307 4896 4307 4762 
Q 4307 4589 3898 3738 
L 5504 3834 
L 5530 3834 
Q 5613 3834 5696 3773 
Q 5779 3712 5779 3616 
L 5760 3469 
Q 5709 1747 5530 301 
Q 5427 -544 5082 -544 
Q 4934 -544 4841 -483 
Q 4749 -422 4605 -313 
Q 4461 -205 4301 -70 
Q 4141 64 4025 179 
Q 3910 294 3910 345 
Q 3910 397 3984 397 
Q 4058 397 4282 262 
Q 4506 128 4947 -45 
L 4960 -45 
Q 4998 -45 5018 6 
Q 5299 1107 5338 3469 
L 3731 3366 
Q 3450 2880 3232 2595 
Q 3014 2310 2944 2310 
Q 2912 2310 2912 2371 
Q 2912 2432 3104 2787 
Q 3296 3142 3571 3875 
Q 3846 4608 3846 4845 
L 3846 4890 
z
M 1715 4749 
Q 1715 4768 1702 4845 
Q 1702 4922 1779 4922 
Q 1920 4922 2035 4832 
Q 2150 4742 2150 4665 
Q 2150 4589 1920 4160 
Q 1715 3802 1581 3603 
L 2483 3654 
L 2560 3654 
Q 2746 3654 2803 3507 
Q 2822 3462 2822 3456 
L 2790 3328 
L 2688 480 
Q 2842 282 2842 214 
Q 2842 147 2790 134 
Q 2739 122 2656 115 
L 1229 64 
L 1235 -147 
L 1235 -166 
Q 1235 -307 1126 -307 
Q 979 -307 892 -233 
Q 806 -160 806 -77 
L 851 243 
L 794 3232 
Q 794 3418 717 3539 
Q 672 3629 672 3664 
Q 672 3699 768 3699 
Q 864 3699 1165 3584 
L 1222 3584 
Q 1715 4512 1715 4749 
z
M 2400 3302 
L 1171 3238 
L 1190 2061 
L 2368 2118 
L 2400 3302 
z
M 4755 1446 
Q 4755 1318 4589 1229 
Q 4525 1190 4483 1190 
Q 4442 1190 4358 1299 
Q 4160 1619 3913 1913 
Q 3667 2208 3564 2307 
Q 3462 2406 3462 2464 
Q 3462 2522 3532 2589 
Q 3603 2656 3657 2656 
Q 3712 2656 3869 2505 
Q 4026 2355 4390 1939 
Q 4755 1523 4755 1446 
z
M 2355 1773 
L 1197 1722 
L 1222 422 
L 2317 461 
L 2355 1773 
z
" transform="scale(0.015625)"/>
      <path id="LXGWWenKai-Regular-7531" d="M 922 3450 
Q 922 3501 1011 3501 
Q 1101 3501 1459 3373 
L 2950 3450 
L 2950 4730 
Q 2950 4870 2876 4960 
Q 2803 5050 2803 5088 
Q 2803 5146 2883 5146 
Q 2963 5146 3136 5101 
Q 3309 5056 3341 5005 
Q 3373 4954 3373 4877 
L 3366 3475 
L 5043 3565 
L 5101 3565 
Q 5267 3565 5369 3478 
Q 5472 3392 5472 3331 
Q 5472 3270 5453 3235 
Q 5434 3200 5427 3162 
L 5158 371 
Q 5338 173 5338 112 
Q 5338 51 5280 35 
Q 5222 19 5126 13 
L 1670 -77 
L 1683 -262 
L 1683 -294 
Q 1683 -435 1574 -435 
Q 1453 -435 1341 -348 
Q 1229 -262 1229 -192 
L 1235 -109 
Q 1242 -64 1242 -19 
L 1242 160 
Q 1242 205 1235 250 
L 1043 2976 
Q 1024 3181 973 3299 
Q 922 3418 922 3450 
z
M 4954 3187 
L 3366 3104 
L 3360 1990 
L 4877 2061 
L 4954 3187 
z
M 2950 3085 
L 1459 3008 
L 1536 1901 
L 2950 1971 
L 2950 3085 
z
M 4851 1702 
L 3354 1632 
L 3347 339 
L 4762 378 
L 4851 1702 
z
M 2950 1613 
L 1562 1542 
L 1645 301 
L 2950 333 
L 2950 1613 
z
" transform="scale(0.015625)"/>
      <path id="LXGWWenKai-Regular-6765" d="M 986 4243 
Q 1178 4211 1229 4211 
L 2938 4320 
L 2938 4902 
Q 2938 5050 2893 5133 
Q 2848 5216 2848 5248 
Q 2848 5299 2906 5299 
Q 3040 5299 3142 5248 
Q 3264 5203 3302 5164 
Q 3341 5126 3341 5050 
L 3334 4346 
L 4710 4429 
Q 4902 4448 4950 4464 
Q 4998 4480 5046 4480 
Q 5094 4480 5171 4432 
Q 5248 4384 5309 4317 
Q 5370 4250 5370 4198 
Q 5370 4122 5216 4109 
L 3334 3994 
L 3328 2406 
L 5152 2496 
Q 5344 2515 5392 2531 
Q 5440 2547 5481 2547 
Q 5523 2547 5606 2496 
Q 5811 2374 5811 2259 
Q 5811 2182 5658 2170 
L 3443 2061 
Q 4211 1267 5069 742 
Q 5536 454 6099 173 
Q 6202 128 6202 77 
Q 6202 26 6077 -76 
Q 5952 -179 5901 -179 
Q 5850 -179 5533 -16 
Q 5216 147 4621 589 
Q 3866 1126 3322 1709 
L 3309 -538 
Q 3309 -698 3200 -698 
Q 3117 -698 2995 -627 
Q 2874 -557 2874 -435 
Q 2912 -166 2912 0 
L 2918 1651 
Q 2125 640 1190 102 
Q 819 -115 576 -208 
Q 333 -301 275 -301 
Q 218 -301 218 -262 
Q 218 -186 410 -70 
Q 1005 288 1613 813 
Q 2221 1338 2739 2022 
L 1152 1946 
L 960 1939 
Q 838 1939 813 1971 
Q 646 2163 646 2291 
Q 646 2317 678 2317 
Q 870 2285 922 2285 
L 2925 2387 
L 2931 3968 
L 1459 3878 
Q 1408 3872 1350 3872 
L 1242 3872 
Q 1146 3872 1062 3962 
Q 947 4102 947 4218 
Q 947 4243 986 4243 
z
M 4650 3920 
Q 4730 3859 4794 3772 
Q 4858 3686 4858 3619 
Q 4858 3552 4749 3430 
Q 4531 3168 4121 2845 
Q 3712 2522 3571 2522 
Q 3526 2522 3526 2566 
Q 3526 2611 3622 2707 
Q 4358 3469 4448 3891 
Q 4467 3981 4531 3981 
Q 4570 3981 4650 3920 
z
M 2301 3180 
Q 2426 3046 2509 2937 
Q 2592 2829 2592 2787 
Q 2592 2746 2509 2653 
Q 2426 2560 2362 2560 
Q 2298 2560 2227 2650 
Q 1882 3091 1504 3418 
Q 1446 3475 1446 3536 
Q 1446 3597 1526 3664 
Q 1606 3731 1648 3731 
Q 1690 3731 1798 3648 
Q 1907 3565 2041 3440 
Q 2176 3315 2301 3180 
z
" transform="scale(0.015625)"/>
     </defs>
     <use xlink:href="#LXGWWenKai-Regular-63a2"/>
     <use xlink:href="#LXGWWenKai-Regular-79d8" transform="translate(99.999985 0)"/>
     <use xlink:href="#LXGWWenKai-Regular-5706" transform="translate(199.999969 0)"/>
     <use xlink:href="#LXGWWenKai-Regular-9525" transform="translate(299.999954 0)"/>
     <use xlink:href="#LXGWWenKai-Regular-66f2" transform="translate(399.999939 0)"/>
     <use xlink:href="#LXGWWenKai-Regular-7ebf" transform="translate(499.999924 0)"/>
     <use xlink:href="#LXGWWenKai-Regular-7684" transform="translate(599.999908 0)"/>
     <use xlink:href="#LXGWWenKai-Regular-7531" transform="translate(699.999893 0)"/>
     <use xlink:href="#LXGWWenKai-Regular-6765" transform="translate(799.999878 0)"/>
    </g>
   </g>
   <g id="text_3">
    <!-- ─── 椭圆及其标准方程 ─── -->
    <g style="fill: #636363" transform="translate(227.7 259.2) scale(0.18 -0.18)">
     <defs>
      <path id="LXGWWenKai-Regular-2500" d="M 0 2304 
L 0 2560 
L 6400 2560 
L 6400 2304 
L 0 2304 
z
" transform="scale(0.015625)"/>
      <path id="LXGWWenKai-Regular-20" transform="scale(0.015625)"/>
      <path id="LXGWWenKai-Regular-692d" d="M 2912 2189 
Q 3002 2112 3094 2054 
Q 3187 1997 3216 1997 
Q 3245 1997 3245 2074 
L 3245 2189 
Q 3245 2330 3177 2586 
Q 3110 2842 2854 3136 
Q 2784 3213 2784 3309 
Q 2784 3405 2864 3552 
Q 2944 3699 3187 4326 
L 2701 4294 
L 2714 -346 
Q 2714 -486 2624 -486 
Q 2496 -486 2409 -400 
Q 2323 -314 2323 -253 
Q 2323 -192 2345 -35 
Q 2368 122 2368 403 
L 2362 3968 
Q 2362 4275 2323 4457 
Q 2285 4640 2285 4681 
Q 2285 4723 2349 4723 
Q 2413 4723 2733 4595 
L 3379 4653 
Q 3437 4653 3533 4601 
Q 3629 4550 3629 4483 
Q 3629 4416 3424 3965 
Q 3219 3514 3174 3430 
Q 3130 3347 3130 3305 
Q 3130 3264 3162 3219 
Q 3450 2899 3584 2336 
Q 3910 2944 4154 3642 
L 3968 3622 
L 3885 3622 
Q 3693 3622 3632 3689 
Q 3571 3757 3539 3846 
Q 3507 3936 3507 3962 
Q 3507 3974 3545 3974 
Q 3584 3974 3657 3948 
Q 3731 3923 3859 3923 
L 3904 3923 
L 4256 3962 
Q 4442 4621 4442 4793 
Q 4442 4966 4422 5027 
Q 4403 5088 4403 5117 
Q 4403 5146 4441 5146 
Q 4480 5146 4582 5107 
Q 4858 5011 4858 4870 
Q 4858 4813 4778 4515 
Q 4698 4218 4621 3994 
L 5459 4070 
Q 5626 4090 5667 4106 
Q 5709 4122 5766 4122 
Q 5824 4122 5939 4029 
Q 6054 3936 6054 3853 
Q 6054 3795 5914 3782 
L 4499 3674 
Q 4384 3360 4218 3046 
Q 4320 3034 4429 2995 
L 5318 3059 
L 5382 3059 
Q 5530 3059 5581 2979 
Q 5632 2899 5632 2848 
L 5613 2739 
L 5626 -6 
L 5638 -262 
Q 5638 -493 5478 -563 
Q 5421 -589 5366 -589 
Q 5312 -589 5181 -493 
Q 5050 -397 4925 -269 
Q 4800 -141 4717 -22 
Q 4634 96 4634 134 
Q 4634 154 4688 154 
Q 4742 154 4896 61 
Q 5050 -32 5280 -141 
L 5280 934 
L 4390 883 
L 4371 -384 
Q 4371 -506 4275 -506 
Q 4205 -506 4102 -442 
Q 4000 -378 4000 -320 
Q 4000 -262 4019 -163 
Q 4038 -64 4038 128 
L 4077 2611 
Q 4077 2656 4077 2701 
Q 4077 2746 4070 2778 
Q 3744 2221 3603 2125 
Q 3603 2112 3603 2099 
Q 3603 1882 3513 1722 
Q 3424 1562 3322 1562 
Q 3162 1562 2947 1850 
Q 2733 2138 2733 2202 
Q 2733 2266 2771 2266 
Q 2822 2266 2912 2189 
z
M 1229 2112 
L 1242 2554 
L 1248 2656 
Q 1069 1837 614 1088 
Q 346 621 250 621 
Q 218 621 218 675 
Q 218 730 256 826 
Q 666 1696 1126 3226 
L 800 3200 
Q 685 3187 640 3187 
Q 410 3187 307 3462 
Q 301 3475 301 3510 
Q 301 3546 336 3546 
Q 371 3546 425 3533 
Q 480 3520 595 3520 
L 672 3520 
L 1235 3565 
L 1248 4704 
Q 1248 4858 1178 4960 
Q 1158 4998 1158 5018 
Q 1158 5069 1260 5069 
Q 1363 5069 1523 4979 
Q 1606 4934 1606 4838 
L 1587 3597 
L 1734 3610 
Q 1875 3629 1923 3645 
Q 1971 3661 2048 3661 
Q 2125 3661 2224 3565 
Q 2323 3469 2323 3418 
Q 2323 3334 2176 3315 
L 1587 3264 
L 1581 2867 
Q 1651 2918 1702 2918 
Q 1798 2918 2028 2524 
Q 2259 2131 2259 2060 
Q 2259 1990 2169 1942 
Q 2080 1894 2025 1894 
Q 1971 1894 1904 2022 
Q 1837 2150 1750 2326 
Q 1664 2502 1574 2630 
L 1536 -480 
Q 1536 -614 1440 -614 
Q 1382 -614 1306 -576 
Q 1158 -506 1158 -365 
Q 1158 -326 1180 -236 
Q 1203 -147 1203 32 
L 1203 166 
Q 1229 730 1229 2112 
z
M 5280 1850 
L 4403 1798 
L 4397 1165 
L 5280 1210 
L 5280 1850 
z
M 5280 2752 
L 4416 2694 
L 4410 2086 
L 5280 2138 
L 5280 2752 
z
" transform="scale(0.015625)"/>
      <path id="LXGWWenKai-Regular-53ca" d="M 1382 4506 
L 1594 4512 
L 4211 4685 
L 4243 4685 
Q 4371 4685 4470 4614 
Q 4570 4544 4570 4483 
Q 4570 4422 4534 4374 
Q 4499 4326 4467 4262 
L 3930 3110 
L 4890 3187 
Q 4915 3194 4941 3194 
L 4979 3194 
Q 5178 3194 5261 3034 
Q 5286 2976 5286 2941 
Q 5286 2906 5248 2861 
Q 5210 2816 5146 2672 
Q 5082 2528 4902 2227 
Q 4486 1536 3987 1043 
Q 4902 320 5978 -115 
Q 6093 -160 6093 -205 
Q 6093 -224 6042 -294 
Q 5901 -499 5782 -499 
Q 5664 -499 5190 -230 
Q 4243 307 3686 787 
Q 2854 90 2003 -256 
Q 1389 -506 1178 -506 
Q 1114 -506 1114 -461 
Q 1114 -397 1280 -320 
Q 2074 51 2541 377 
Q 3008 704 3392 1043 
Q 2720 1677 2227 2406 
Q 2182 2291 2147 2185 
Q 2112 2080 1984 1808 
Q 1856 1536 1590 1171 
Q 1325 806 1065 540 
Q 806 275 617 131 
Q 429 -13 384 -13 
Q 339 -13 339 32 
Q 339 77 461 224 
Q 1286 1190 1692 2076 
Q 2099 2963 2298 4205 
L 1632 4160 
Q 1574 4154 1523 4147 
Q 1472 4141 1389 4141 
Q 1306 4141 1178 4265 
Q 1050 4390 1050 4499 
Q 1050 4525 1088 4525 
L 1114 4525 
Q 1261 4506 1382 4506 
z
M 3955 2758 
Q 3891 2752 3830 2729 
Q 3770 2707 3677 2707 
Q 3584 2707 3520 2806 
Q 3456 2906 3456 2947 
Q 3456 2989 3482 3046 
L 4038 4320 
L 2739 4230 
Q 2605 3450 2400 2835 
Q 3034 1869 3674 1293 
Q 4102 1722 4467 2330 
Q 4634 2598 4736 2822 
L 3955 2758 
z
" transform="scale(0.015625)"/>
      <path id="LXGWWenKai-Regular-5176" d="M 915 4083 
Q 1107 4051 1184 4051 
L 1971 4102 
L 1958 4723 
Q 1958 4902 1882 4998 
Q 1856 5037 1856 5050 
Q 1856 5094 1936 5094 
Q 2016 5094 2150 5056 
Q 2285 5018 2329 4973 
Q 2374 4928 2374 4826 
L 2387 4128 
L 3962 4205 
L 3974 4858 
Q 3974 5050 3904 5139 
Q 3878 5178 3878 5190 
Q 3878 5229 3961 5229 
Q 4045 5229 4182 5190 
Q 4320 5152 4361 5104 
Q 4403 5056 4403 4966 
L 4403 4941 
L 4384 4230 
L 4698 4256 
Q 4909 4269 4982 4291 
Q 5056 4314 5123 4314 
Q 5190 4314 5270 4259 
Q 5350 4205 5398 4141 
Q 5446 4077 5446 4038 
Q 5446 3949 5331 3936 
L 4378 3872 
L 4320 1434 
L 5338 1478 
Q 5523 1491 5609 1516 
Q 5696 1542 5744 1542 
Q 5792 1542 5875 1491 
Q 5958 1440 6019 1369 
Q 6080 1299 6080 1242 
Q 6080 1146 5978 1133 
L 928 934 
L 704 928 
Q 608 928 505 973 
Q 403 1018 320 1254 
Q 307 1293 307 1315 
Q 307 1338 342 1338 
Q 378 1338 458 1318 
Q 538 1299 685 1299 
L 755 1299 
L 2035 1350 
L 1984 3744 
L 1491 3712 
Q 1363 3699 1235 3699 
Q 1107 3699 1046 3750 
Q 986 3802 928 3894 
Q 870 3987 870 4035 
Q 870 4083 915 4083 
z
M 3955 3853 
L 2394 3770 
L 2400 3213 
L 3949 3296 
L 3955 3853 
z
M 3942 2950 
L 2406 2874 
L 2419 2317 
L 3936 2381 
L 3942 2950 
z
M 3930 2042 
L 2426 1971 
L 2438 1370 
L 3917 1421 
L 3930 2042 
z
M 1795 192 
Q 1990 371 2128 540 
Q 2266 710 2288 809 
Q 2310 909 2349 909 
Q 2458 909 2637 653 
Q 2707 563 2707 531 
Q 2707 499 2688 480 
Q 2285 70 1907 -173 
Q 1530 -416 1277 -521 
Q 1024 -627 963 -627 
Q 902 -627 902 -566 
Q 902 -506 1043 -406 
Q 1184 -307 1392 -147 
Q 1600 13 1795 192 
z
M 5357 -275 
Q 5357 -352 5270 -448 
Q 5184 -544 5113 -544 
Q 5043 -544 4973 -474 
Q 4269 166 3712 512 
Q 3648 557 3648 595 
Q 3648 634 3674 691 
Q 3744 851 3856 851 
Q 3968 851 4464 492 
Q 4960 134 5274 -134 
Q 5357 -198 5357 -275 
z
" transform="scale(0.015625)"/>
      <path id="LXGWWenKai-Regular-6807" d="M 3226 1997 
Q 3219 2112 3276 2125 
Q 3334 2138 3424 2086 
Q 3661 1965 3674 1805 
Q 3674 1766 3654 1728 
Q 3334 1107 3040 739 
Q 2746 371 2544 201 
Q 2342 32 2291 19 
Q 2240 6 2240 64 
Q 2240 134 2342 282 
Q 2643 704 2934 1184 
Q 3226 1664 3226 1958 
L 3226 1997 
z
M 5779 250 
Q 5709 269 5664 384 
Q 5293 1107 4762 1856 
Q 4672 1965 4864 2112 
Q 4915 2150 4992 2121 
Q 5069 2093 5433 1545 
Q 5798 998 6010 634 
Q 6125 422 5952 288 
Q 5862 218 5779 250 
z
M 1792 -454 
Q 1792 -608 1670 -608 
Q 1664 -608 1587 -589 
Q 1376 -518 1376 -352 
Q 1376 -320 1405 -205 
Q 1434 -90 1434 115 
L 1440 294 
Q 1440 474 1443 755 
Q 1446 1037 1449 1341 
Q 1453 1645 1462 1910 
Q 1472 2176 1472 2310 
L 1478 2400 
Q 1293 1754 691 998 
Q 378 602 282 602 
Q 243 602 243 669 
Q 243 736 314 832 
Q 915 1683 1376 3040 
L 902 3002 
Q 800 2989 717 2989 
Q 634 2989 582 3021 
Q 454 3130 397 3277 
Q 390 3290 390 3315 
Q 390 3360 442 3360 
L 474 3360 
Q 589 3341 691 3341 
L 768 3341 
L 1472 3392 
L 1485 4678 
Q 1485 4794 1430 4877 
Q 1376 4960 1376 4992 
Q 1376 5043 1449 5043 
Q 1523 5043 1657 4995 
Q 1792 4947 1824 4905 
Q 1856 4864 1856 4794 
L 1837 3424 
L 2106 3443 
Q 2266 3462 2307 3478 
Q 2349 3494 2390 3494 
Q 2432 3494 2560 3404 
Q 2688 3315 2688 3232 
Q 2688 3149 2554 3136 
L 1837 3078 
L 1830 2522 
Q 1882 2566 1936 2566 
Q 1990 2566 2112 2445 
Q 2406 2144 2586 1862 
Q 2637 1805 2637 1734 
Q 2637 1664 2534 1606 
Q 2432 1549 2374 1549 
Q 2317 1549 2246 1658 
Q 2042 2010 1824 2253 
L 1792 -454 
z
M 4486 -109 
L 4493 -301 
Q 4493 -403 4425 -508 
Q 4358 -614 4252 -614 
Q 4147 -614 4035 -550 
Q 3923 -486 3792 -396 
Q 3661 -307 3545 -204 
Q 3430 -102 3353 -19 
Q 3277 64 3277 102 
Q 3277 141 3353 141 
Q 3430 141 3651 35 
Q 3872 -70 4090 -134 
L 4077 1830 
L 4070 2176 
L 4070 2509 
L 2931 2458 
L 2829 2458 
Q 2624 2458 2573 2509 
Q 2419 2662 2419 2768 
Q 2419 2874 2477 2874 
Q 2509 2874 2522 2861 
Q 2682 2829 2778 2829 
L 2822 2829 
L 5440 2944 
Q 5498 2950 5562 2953 
Q 5626 2957 5677 2973 
Q 5728 2989 5808 2989 
Q 5888 2989 6003 2886 
Q 6118 2784 6118 2701 
Q 6118 2598 5946 2586 
L 4467 2522 
L 4467 1850 
L 4486 -109 
z
M 3059 4333 
L 3238 4314 
Q 3315 4301 3373 4301 
L 3411 4301 
L 4858 4384 
Q 5030 4403 5078 4416 
Q 5126 4429 5161 4429 
Q 5197 4429 5274 4390 
Q 5478 4282 5478 4154 
Q 5478 4058 5331 4045 
L 3526 3949 
L 3341 3942 
Q 3258 3942 3174 3980 
Q 3091 4019 3008 4224 
Q 3002 4250 3002 4275 
Q 3002 4333 3059 4333 
z
" transform="scale(0.015625)"/>
      <path id="LXGWWenKai-Regular-51c6" d="M 4928 4621 
Q 4928 4454 4454 3757 
L 5248 3802 
Q 5382 3808 5459 3837 
Q 5536 3866 5568 3866 
Q 5600 3866 5683 3814 
Q 5888 3680 5888 3571 
Q 5888 3507 5741 3488 
L 4454 3424 
L 4448 2682 
L 5037 2714 
Q 5210 2726 5267 2745 
Q 5325 2765 5363 2765 
Q 5402 2765 5478 2710 
Q 5555 2656 5612 2585 
Q 5670 2515 5670 2470 
Q 5670 2406 5530 2394 
L 4448 2342 
L 4442 1638 
L 5069 1670 
Q 5126 1677 5190 1683 
Q 5254 1690 5308 1709 
Q 5363 1728 5392 1728 
Q 5421 1728 5498 1677 
Q 5709 1536 5709 1427 
Q 5709 1357 5568 1344 
L 4442 1293 
L 4435 397 
L 5555 435 
Q 5702 448 5779 470 
Q 5856 493 5881 493 
Q 5907 493 5990 442 
Q 6208 301 6208 186 
Q 6208 115 6061 96 
L 2976 -13 
L 2976 -467 
Q 2976 -640 2854 -640 
L 2765 -614 
Q 2682 -595 2598 -531 
Q 2515 -467 2515 -380 
Q 2515 -294 2540 -160 
Q 2566 -26 2566 128 
L 2605 3168 
Q 2298 2829 2048 2614 
Q 1798 2400 1737 2400 
Q 1677 2400 1677 2448 
Q 1677 2496 1754 2592 
Q 2323 3277 2637 3782 
Q 3194 4685 3194 4922 
L 3194 4966 
Q 3194 4992 3187 5018 
L 3187 5037 
Q 3187 5101 3289 5101 
Q 3392 5101 3542 5001 
Q 3693 4902 3693 4858 
Q 3693 4749 3440 4339 
Q 3187 3930 3002 3674 
L 4102 3738 
Q 4346 4211 4403 4454 
Q 4461 4698 4461 4710 
L 4442 4813 
Q 4442 4864 4515 4864 
Q 4589 4864 4685 4826 
Q 4928 4742 4928 4621 
z
M 1798 3206 
Q 1702 3117 1638 3117 
Q 1574 3117 1468 3257 
Q 1363 3398 1145 3628 
Q 928 3859 736 4013 
Q 659 4083 659 4134 
Q 659 4186 739 4272 
Q 819 4358 870 4358 
Q 1018 4358 1587 3776 
Q 1894 3456 1894 3376 
Q 1894 3296 1798 3206 
z
M 4064 3398 
L 2976 3341 
L 2976 2611 
L 4058 2662 
L 4064 3398 
z
M 749 301 
Q 538 346 397 512 
Q 358 563 358 595 
Q 358 627 480 668 
Q 602 710 1024 1152 
Q 1446 1594 1920 2176 
Q 2061 2342 2121 2342 
Q 2182 2342 2182 2278 
Q 2182 2138 1750 1485 
Q 1318 832 883 365 
Q 819 301 749 301 
z
M 4051 2323 
L 2976 2266 
L 2976 1568 
L 4045 1619 
L 4051 2323 
z
M 4045 1274 
L 2976 1222 
L 2976 346 
L 4032 384 
L 4045 1274 
z
" transform="scale(0.015625)"/>
      <path id="LXGWWenKai-Regular-65b9" d="M 506 3648 
Q 666 3616 838 3616 
L 922 3616 
L 2970 3738 
L 2963 4621 
Q 2963 4768 2912 4841 
Q 2861 4915 2861 4947 
Q 2861 4998 2928 4998 
Q 2995 4998 3098 4986 
Q 3386 4947 3386 4838 
L 3379 3763 
L 5299 3878 
Q 5517 3898 5581 3917 
Q 5645 3936 5683 3936 
Q 5722 3936 5811 3891 
Q 6054 3757 6054 3635 
Q 6054 3552 5933 3539 
L 3142 3379 
Q 3085 3040 2944 2547 
L 4525 2637 
L 4570 2637 
Q 4710 2637 4812 2566 
Q 4915 2496 4915 2422 
Q 4915 2349 4892 2301 
Q 4870 2253 4864 2221 
Q 4723 800 4365 -154 
Q 4301 -314 4169 -435 
Q 4038 -557 3939 -557 
Q 3840 -557 3587 -432 
Q 3334 -307 2921 16 
Q 2509 339 2509 442 
Q 2509 474 2573 474 
Q 2637 474 2985 301 
Q 3334 128 3808 -19 
Q 3821 -26 3853 -26 
Q 3885 -26 3891 0 
Q 4134 512 4246 1101 
Q 4358 1690 4410 2253 
L 2816 2170 
Q 2464 1178 1779 448 
Q 1235 -134 742 -384 
Q 550 -480 483 -480 
Q 416 -480 416 -435 
Q 416 -365 538 -282 
Q 1139 160 1683 880 
Q 2227 1600 2458 2394 
Q 2592 2867 2675 3354 
L 1069 3258 
Q 954 3245 851 3245 
Q 749 3245 649 3293 
Q 550 3341 461 3565 
Q 454 3578 454 3603 
Q 454 3648 506 3648 
z
" transform="scale(0.015625)"/>
      <path id="LXGWWenKai-Regular-7a0b" d="M 1466 4064 
Q 723 3834 579 3834 
Q 435 3834 435 3885 
Q 435 3949 633 4022 
Q 832 4096 1261 4297 
Q 1690 4499 2054 4742 
Q 2163 4806 2204 4896 
Q 2246 4986 2294 4986 
Q 2342 4986 2416 4906 
Q 2490 4826 2544 4730 
Q 2598 4634 2598 4605 
Q 2598 4576 2586 4557 
Q 2534 4467 1811 4186 
L 1811 3251 
L 2202 3277 
Q 2368 3296 2422 3315 
Q 2477 3334 2525 3334 
Q 2573 3334 2701 3244 
Q 2829 3155 2829 3075 
Q 2829 2995 2707 2982 
L 1811 2912 
L 1811 2509 
Q 1862 2560 1907 2560 
Q 1997 2560 2330 2227 
Q 2688 1888 2688 1795 
Q 2688 1702 2601 1635 
Q 2515 1568 2464 1568 
Q 2413 1568 2336 1664 
Q 2118 1978 1811 2266 
L 1818 -435 
Q 1818 -589 1702 -589 
Q 1645 -589 1568 -550 
Q 1402 -474 1402 -346 
Q 1402 -307 1421 -204 
Q 1440 -102 1440 128 
L 1440 294 
L 1453 1837 
Q 1453 1971 1472 2163 
L 1472 2234 
Q 1389 1914 1040 1402 
Q 691 890 496 701 
Q 301 512 250 512 
Q 211 512 211 563 
Q 211 614 275 717 
Q 947 1715 1389 2880 
L 838 2835 
Q 710 2822 649 2822 
Q 589 2822 493 2860 
Q 397 2899 314 3110 
Q 307 3130 307 3155 
Q 301 3194 346 3194 
L 614 3168 
L 685 3168 
L 1459 3226 
L 1466 4064 
z
M 3539 2880 
Q 3539 2746 3386 2746 
Q 3309 2746 3213 2803 
Q 3117 2861 3117 2957 
L 3117 2989 
Q 3130 3130 3130 3200 
L 3130 3315 
Q 3130 3354 3123 3379 
L 3034 4256 
Q 3027 4384 2966 4528 
Q 2906 4672 2906 4704 
Q 2906 4736 2979 4736 
Q 3053 4736 3398 4608 
L 5133 4710 
L 5184 4710 
Q 5293 4710 5385 4627 
Q 5478 4544 5478 4493 
Q 5478 4442 5462 4413 
Q 5446 4384 5440 4352 
L 5312 3398 
Q 5472 3213 5472 3142 
Q 5472 3072 5411 3062 
Q 5350 3053 5267 3046 
L 3533 2950 
L 3539 2893 
L 3539 2880 
z
M 5024 4358 
L 3411 4269 
L 3501 3309 
L 4928 3379 
L 5024 4358 
z
M 5581 141 
L 5888 186 
Q 5939 186 6022 134 
Q 6234 6 6234 -115 
Q 6234 -205 6067 -218 
L 2784 -307 
L 2688 -307 
Q 2547 -307 2454 -259 
Q 2362 -211 2304 45 
L 2304 77 
Q 2304 115 2333 115 
Q 2362 115 2435 92 
Q 2509 70 2688 70 
L 4032 102 
L 4038 986 
L 3443 960 
L 3309 954 
Q 3066 954 2982 1165 
Q 2944 1248 2944 1293 
Q 2944 1338 2976 1338 
Q 3008 1338 3072 1322 
Q 3136 1306 3264 1306 
L 3334 1306 
L 4045 1338 
L 4051 2048 
L 3232 2003 
L 3098 1997 
Q 2931 1997 2867 2074 
Q 2733 2234 2733 2355 
Q 2733 2387 2765 2387 
Q 2797 2387 2861 2371 
Q 2925 2355 3053 2355 
L 3123 2355 
L 5126 2458 
Q 5299 2477 5353 2493 
Q 5408 2509 5446 2509 
Q 5485 2509 5568 2458 
Q 5779 2323 5779 2208 
Q 5779 2138 5613 2125 
L 4448 2067 
L 4442 1350 
L 4986 1376 
Q 5158 1395 5212 1411 
Q 5267 1427 5302 1427 
Q 5338 1427 5414 1376 
Q 5632 1242 5632 1139 
Q 5632 1062 5472 1050 
L 4435 1005 
L 4429 115 
L 5581 141 
z
" transform="scale(0.015625)"/>
     </defs>
     <use xlink:href="#LXGWWenKai-Regular-2500"/>
     <use xlink:href="#LXGWWenKai-Regular-2500" transform="translate(99.999985 0)"/>
     <use xlink:href="#LXGWWenKai-Regular-2500" transform="translate(199.999969 0)"/>
     <use xlink:href="#LXGWWenKai-Regular-20" transform="translate(299.999954 0)"/>
     <use xlink:href="#LXGWWenKai-Regular-692d" transform="translate(334.999939 0)"/>
     <use xlink:href="#LXGWWenKai-Regular-5706" transform="translate(434.999924 0)"/>
     <use xlink:href="#LXGWWenKai-Regular-53ca" transform="translate(534.999908 0)"/>
     <use xlink:href="#LXGWWenKai-Regular-5176" transform="translate(634.999893 0)"/>
     <use xlink:href="#LXGWWenKai-Regular-6807" transform="translate(734.999878 0)"/>
     <use xlink:href="#LXGWWenKai-Regular-51c6" transform="translate(834.999863 0)"/>
     <use xlink:href="#LXGWWenKai-Regular-65b9" transform="translate(934.999847 0)"/>
     <use xlink:href="#LXGWWenKai-Regular-7a0b" transform="translate(1034.999832 0)"/>
     <use xlink:href="#LXGWWenKai-Regular-20" transform="translate(1134.999817 0)"/>
     <use xlink:href="#LXGWWenKai-Regular-2500" transform="translate(1169.999802 0)"/>
     <use xlink:href="#LXGWWenKai-Regular-2500" transform="translate(1269.999786 0)"/>
     <use xlink:href="#LXGWWenKai-Regular-2500" transform="translate(1369.999771 0)"/>
    </g>
   </g>
  </g>
 </g>
 <defs>
  <clipPath id="pb852c06d79">
   <rect x="0" y="0" width="720" height="540"/>
  </clipPath>
 </defs>
</svg>
