<?xml version="1.0" encoding="utf-8" standalone="no"?>
<!DOCTYPE svg PUBLIC "-//W3C//DTD SVG 1.1//EN"
  "http://www.w3.org/Graphics/SVG/1.1/DTD/svg11.dtd">
<svg xmlns:xlink="http://www.w3.org/1999/xlink" width="1022.4pt" height="302.4pt" viewBox="0 0 1022.4 302.4" xmlns="http://www.w3.org/2000/svg" version="1.1">
 <metadata>
  <rdf:RDF xmlns:dc="http://purl.org/dc/elements/1.1/" xmlns:cc="http://creativecommons.org/ns#" xmlns:rdf="http://www.w3.org/1999/02/22-rdf-syntax-ns#">
   <cc:Work>
    <dc:type rdf:resource="http://purl.org/dc/dcmitype/StillImage"/>
    <dc:date>2026-02-14T07:27:56.155559</dc:date>
    <dc:format>image/svg+xml</dc:format>
    <dc:creator>
     <cc:Agent>
      <dc:title>Matplotlib v3.10.8, https://matplotlib.org/</dc:title>
     </cc:Agent>
    </dc:creator>
   </cc:Work>
  </rdf:RDF>
 </metadata>
 <defs>
  <style type="text/css">*{stroke-linejoin: round; stroke-linecap: butt}</style>
 </defs>
 <g id="figure_1">
  <g id="patch_1">
   <path d="M 0 302.4 
L 1022.4 302.4 
L 1022.4 0 
L 0 0 
z
" style="fill: #fefdf5"/>
  </g>
  <g id="axes_1">
   <g id="patch_2">
    <path d="M 290.000391 151.2 
Q 295.19969 151.2 299.057348 151.2 
" clip-path="url(#pf1bb9ad604)" style="fill: none; stroke: #5d4e37; stroke-width: 1.2; stroke-linecap: round"/>
    <path d="M 291.057348 147.2 
L 299.057348 151.2 
L 291.057348 155.2 
z
" clip-path="url(#pf1bb9ad604)" style="fill: #5d4e37; stroke: #5d4e37; stroke-width: 1.2; stroke-linecap: round"/>
   </g>
   <g id="patch_3">
    <path d="M 506.000391 151.2 
Q 511.19969 151.2 515.057348 151.2 
" clip-path="url(#pf1bb9ad604)" style="fill: none; stroke: #5d4e37; stroke-width: 1.2; stroke-linecap: round"/>
    <path d="M 507.057348 147.2 
L 515.057348 151.2 
L 507.057348 155.2 
z
" clip-path="url(#pf1bb9ad604)" style="fill: #5d4e37; stroke: #5d4e37; stroke-width: 1.2; stroke-linecap: round"/>
   </g>
   <g id="patch_4">
    <path d="M 722.000391 151.2 
Q 727.19969 151.2 731.057348 151.2 
" clip-path="url(#pf1bb9ad604)" style="fill: none; stroke: #5d4e37; stroke-width: 1.2; stroke-linecap: round"/>
    <path d="M 723.057348 147.2 
L 731.057348 151.2 
L 723.057348 155.2 
z
" clip-path="url(#pf1bb9ad604)" style="fill: #5d4e37; stroke: #5d4e37; stroke-width: 1.2; stroke-linecap: round"/>
   </g>
   <g id="patch_5">
    <path d="M 97.2 198 
L 277.2 198 
Q 288 198 288 187.2 
L 288 115.2 
Q 288 104.4 277.2 104.4 
L 97.2 104.4 
Q 86.4 104.4 86.4 115.2 
L 86.4 187.2 
Q 86.4 198 97.2 198 
z
" clip-path="url(#pf1bb9ad604)" style="fill: #fcecea; stroke: #e8837c; stroke-width: 2.2; stroke-linejoin: miter"/>
   </g>
   <g id="patch_6">
    <path d="M 313.2 198 
L 493.2 198 
Q 504 198 504 187.2 
L 504 115.2 
Q 504 104.4 493.2 104.4 
L 313.2 104.4 
Q 302.4 104.4 302.4 115.2 
L 302.4 187.2 
Q 302.4 198 313.2 198 
L 313.2 198 
z
" clip-path="url(#pf1bb9ad604)" style="fill: none; stroke: #5d4e37; stroke-linejoin: miter"/>
   </g>
   <g id="patch_7">
    <path d="M 529.2 198 
L 709.2 198 
Q 720 198 720 187.2 
L 720 115.2 
Q 720 104.4 709.2 104.4 
L 529.2 104.4 
Q 518.4 104.4 518.4 115.2 
L 518.4 187.2 
Q 518.4 198 529.2 198 
L 529.2 198 
z
" clip-path="url(#pf1bb9ad604)" style="fill: none; stroke: #5d4e37; stroke-linejoin: miter"/>
   </g>
   <g id="patch_8">
    <path d="M 745.2 198 
L 925.2 198 
Q 936 198 936 187.2 
L 936 115.2 
Q 936 104.4 925.2 104.4 
L 745.2 104.4 
Q 734.4 104.4 734.4 115.2 
L 734.4 187.2 
Q 734.4 198 745.2 198 
L 745.2 198 
z
" clip-path="url(#pf1bb9ad604)" style="fill: none; stroke: #5d4e37; stroke-linejoin: miter"/>
   </g>
   <g id="text_1">
    <!-- ① 建立坐标系 -->
    <g style="fill: #e8837c" transform="translate(139.575 155.8125) scale(0.15 -0.15)">
     <defs>
      <path id="LXGWWenKai-Regular-2460" d="M 3104 602 
L 3117 1056 
L 3117 3654 
Q 2861 3514 2547 3430 
L 2515 3430 
Q 2438 3430 2358 3472 
Q 2278 3514 2278 3552 
Q 2278 3590 2336 3616 
Q 2874 3821 3142 4115 
Q 3213 4192 3273 4192 
Q 3334 4192 3430 4131 
Q 3526 4070 3526 3994 
L 3494 3622 
L 3494 1088 
Q 3494 717 3507 512 
Q 3507 454 3408 454 
Q 3309 454 3206 496 
Q 3104 538 3104 602 
z
M 5744 1280 
Q 5958 1779 5958 2348 
Q 5958 2918 5744 3417 
Q 5530 3917 5149 4297 
Q 4768 4678 4269 4892 
Q 3770 5107 3200 5107 
Q 2630 5107 2131 4892 
Q 1632 4678 1251 4297 
Q 870 3917 656 3417 
Q 442 2918 442 2348 
Q 442 1779 656 1280 
Q 870 781 1251 403 
Q 1632 26 2131 -188 
Q 2630 -403 3200 -403 
Q 3770 -403 4269 -188 
Q 4768 26 5149 403 
Q 5530 781 5744 1280 
z
M 6032 3539 
Q 6272 2982 6272 2348 
Q 6272 1715 6032 1158 
Q 5792 602 5369 179 
Q 4947 -243 4390 -480 
Q 3834 -717 3200 -717 
Q 2566 -717 2009 -480 
Q 1453 -243 1030 179 
Q 608 602 368 1158 
Q 128 1715 128 2348 
Q 128 2982 368 3539 
Q 608 4096 1030 4518 
Q 1453 4941 2009 5181 
Q 2566 5421 3200 5421 
Q 3834 5421 4390 5181 
Q 4947 4941 5369 4518 
Q 5792 4096 6032 3539 
z
" transform="scale(0.015625)"/>
      <path id="LXGWWenKai-Regular-20" transform="scale(0.015625)"/>
      <path id="LXGWWenKai-Regular-5efa" d="M 2266 3590 
Q 2394 3565 2560 3565 
L 2656 3565 
L 3795 3629 
L 3795 4038 
L 3155 4000 
L 3008 3994 
Q 2829 3994 2675 4250 
Q 2643 4307 2643 4332 
Q 2643 4358 2682 4358 
L 2982 4333 
L 3046 4333 
L 3802 4378 
L 3802 4659 
Q 3802 4915 3718 5024 
Q 3693 5062 3693 5088 
Q 3693 5114 3747 5114 
Q 3802 5114 3898 5094 
Q 4160 5043 4160 4890 
L 4160 4397 
L 5011 4448 
Q 5037 4454 5113 4454 
Q 5190 4454 5280 4377 
Q 5370 4301 5370 4233 
Q 5370 4166 5344 4121 
Q 5318 4077 5312 4026 
L 5274 3718 
L 5421 3725 
Q 5587 3744 5644 3766 
Q 5702 3789 5753 3789 
Q 5805 3789 5872 3731 
Q 5939 3674 5980 3610 
Q 6022 3546 6022 3520 
Q 6022 3443 5882 3430 
L 5235 3392 
L 5184 2970 
Q 5350 2790 5350 2732 
Q 5350 2675 5299 2662 
Q 5248 2650 5158 2643 
L 4160 2586 
L 4160 2182 
L 4832 2221 
Q 4883 2227 4947 2233 
Q 5011 2240 5075 2262 
Q 5139 2285 5184 2285 
Q 5229 2285 5299 2240 
Q 5485 2131 5485 2010 
Q 5485 1926 5350 1914 
L 4160 1843 
L 4160 1408 
L 5267 1453 
Q 5523 1478 5587 1504 
Q 5651 1530 5702 1530 
Q 5754 1530 5837 1478 
Q 6035 1350 6035 1251 
Q 6035 1152 5926 1139 
L 4160 1069 
L 4160 429 
Q 4160 288 4058 288 
Q 4051 288 3971 307 
Q 3891 326 3817 384 
Q 3744 442 3744 563 
L 3744 595 
Q 3744 614 3763 704 
Q 3782 794 3782 1037 
L 3782 1056 
L 2669 1011 
L 2586 1011 
L 2419 1018 
Q 2355 1030 2317 1043 
Q 2208 1107 2150 1229 
Q 2138 1261 2122 1286 
Q 2106 1312 2106 1338 
Q 2106 1382 2163 1382 
Q 2176 1382 2230 1363 
Q 2285 1344 2483 1344 
L 2566 1344 
L 3782 1395 
L 3789 1824 
L 2976 1779 
Q 2694 1779 2586 1965 
Q 2534 2054 2534 2092 
Q 2534 2131 2563 2131 
Q 2592 2131 2643 2118 
Q 2694 2106 2803 2106 
L 3002 2112 
L 3789 2157 
L 3789 2566 
L 3142 2528 
L 2982 2522 
Q 2797 2522 2688 2746 
Q 2656 2822 2656 2829 
Q 2656 2861 2694 2861 
Q 2790 2842 2886 2842 
L 3795 2886 
L 3795 3309 
L 2739 3251 
L 2579 3245 
Q 2451 3245 2396 3293 
Q 2342 3341 2288 3437 
Q 2234 3533 2234 3561 
Q 2234 3590 2266 3590 
z
M 512 730 
Q 371 730 371 966 
Q 371 1062 470 1104 
Q 570 1146 874 1146 
Q 1178 1146 1376 1101 
Q 1587 1568 1734 2176 
L 1203 2131 
Q 1126 2125 1075 2105 
Q 1024 2086 957 2086 
Q 890 2086 810 2163 
Q 730 2240 730 2297 
Q 730 2355 787 2445 
Q 1229 3046 1600 3757 
L 1056 3686 
Q 992 3680 941 3673 
Q 890 3667 803 3667 
Q 717 3667 637 3737 
Q 557 3808 512 3897 
Q 467 3987 467 4016 
Q 467 4045 506 4045 
L 749 4019 
L 819 4019 
Q 858 4019 896 4026 
L 1786 4128 
Q 1805 4134 1824 4134 
Q 1843 4134 1862 4134 
Q 2010 4134 2083 4041 
Q 2157 3949 2157 3901 
Q 2157 3853 2109 3805 
Q 2061 3757 2035 3718 
Q 1581 2899 1254 2477 
L 1869 2541 
L 1920 2547 
Q 2125 2547 2214 2381 
Q 2240 2323 2240 2288 
Q 2240 2253 2057 1744 
Q 1875 1235 1747 979 
Q 1818 954 1888 922 
Q 1958 890 2029 858 
Q 3571 128 6106 -128 
Q 6214 -141 6214 -198 
Q 6214 -224 6157 -307 
Q 6010 -550 5875 -550 
Q 5856 -550 5837 -550 
Q 5818 -550 5798 -544 
Q 4678 -371 3724 -134 
Q 2771 102 1939 518 
Q 1754 614 1581 678 
Q 1318 250 1040 -32 
Q 762 -314 557 -454 
Q 352 -595 304 -595 
Q 256 -595 256 -540 
Q 256 -486 448 -282 
Q 915 230 1210 774 
Q 1107 794 953 794 
Q 800 794 665 762 
Q 531 730 512 730 
z
M 4928 4109 
L 4160 4064 
L 4160 3654 
L 4890 3693 
L 4928 4109 
z
M 4864 3373 
L 4160 3334 
L 4160 2906 
L 4826 2944 
L 4864 3373 
z
" transform="scale(0.015625)"/>
      <path id="LXGWWenKai-Regular-7acb" d="M 1357 3232 
Q 1306 3226 1261 3226 
L 1114 3226 
Q 966 3245 892 3331 
Q 819 3418 800 3504 
Q 781 3590 781 3597 
Q 781 3642 813 3642 
Q 845 3642 912 3622 
Q 979 3603 1146 3603 
L 1229 3603 
L 2944 3693 
L 2931 4691 
Q 2931 4832 2816 5005 
Q 2797 5037 2797 5056 
Q 2797 5107 2883 5107 
Q 2970 5107 3174 5049 
Q 3379 4992 3379 4864 
L 3373 3718 
L 4915 3802 
Q 5075 3814 5145 3840 
Q 5216 3866 5261 3866 
Q 5306 3866 5392 3802 
Q 5478 3738 5542 3661 
Q 5606 3584 5606 3546 
Q 5606 3469 5446 3456 
L 1357 3232 
z
M 4666 2752 
Q 4570 2355 4266 1603 
Q 3962 851 3642 301 
L 5267 365 
Q 5446 378 5539 403 
Q 5632 429 5673 429 
Q 5715 429 5808 371 
Q 5901 314 5977 230 
Q 6054 147 6054 90 
Q 6054 -6 5894 -19 
L 986 -198 
L 774 -205 
Q 486 -205 384 58 
Q 346 166 346 198 
Q 346 230 378 230 
Q 410 230 490 211 
Q 570 192 710 192 
L 3264 288 
Q 3834 1453 4064 2445 
Q 4115 2669 4115 2745 
Q 4115 2822 4086 2899 
Q 4058 2976 4058 3008 
Q 4058 3066 4125 3066 
Q 4192 3066 4320 3027 
Q 4666 2925 4666 2752 
z
M 2803 1050 
Q 2874 851 2874 787 
Q 2874 723 2810 666 
Q 2675 557 2585 557 
Q 2496 557 2467 598 
Q 2438 640 2342 934 
Q 2125 1632 1638 2560 
Q 1594 2650 1594 2710 
Q 1594 2771 1696 2825 
Q 1798 2880 1859 2880 
Q 1920 2880 1990 2765 
Q 2496 1901 2803 1050 
z
" transform="scale(0.015625)"/>
      <path id="LXGWWenKai-Regular-5750" d="M 1363 1587 
Q 1491 1562 1632 1562 
L 1715 1562 
L 2925 1619 
L 2931 4646 
Q 2931 4832 2835 4973 
Q 2803 5024 2803 5056 
Q 2803 5088 2860 5088 
Q 2918 5088 3034 5056 
Q 3360 4979 3360 4832 
L 3341 1638 
L 4326 1683 
Q 4467 1690 4540 1718 
Q 4614 1747 4659 1747 
Q 4704 1747 4787 1696 
Q 4870 1645 4934 1571 
Q 4998 1498 4998 1446 
Q 4998 1350 4851 1338 
L 3341 1267 
L 3334 205 
L 5331 262 
Q 5510 275 5603 300 
Q 5696 326 5744 326 
Q 5792 326 5885 259 
Q 5978 192 6048 112 
Q 6118 32 6118 -13 
Q 6118 -77 5958 -96 
L 736 -250 
Q 557 -250 464 -157 
Q 371 -64 339 26 
L 307 122 
Q 307 160 339 160 
Q 371 160 451 141 
Q 531 122 672 122 
L 2918 192 
L 2925 1254 
L 1837 1203 
L 1690 1197 
Q 1555 1197 1494 1251 
Q 1434 1306 1379 1402 
Q 1325 1498 1325 1542 
Q 1325 1587 1363 1587 
z
M 3686 2010 
Q 3597 1939 3549 1939 
Q 3501 1939 3501 1971 
Q 3501 2016 3664 2227 
Q 3827 2438 3993 2761 
Q 4160 3085 4297 3488 
Q 4435 3891 4435 4048 
Q 4435 4205 4409 4265 
Q 4384 4326 4384 4361 
Q 4384 4397 4429 4397 
Q 4474 4397 4582 4365 
Q 4902 4256 4902 4122 
Q 4902 4064 4812 3776 
Q 4723 3488 4653 3309 
Q 5216 2893 5574 2515 
Q 5651 2438 5651 2368 
Q 5651 2298 5555 2208 
Q 5459 2118 5408 2118 
Q 5357 2118 5174 2355 
Q 4992 2592 4512 2995 
Q 4192 2381 3686 2010 
z
M 1702 2906 
Q 1523 2586 1299 2333 
Q 1075 2080 883 1936 
Q 691 1792 633 1792 
Q 576 1792 576 1824 
Q 576 1869 659 1971 
Q 1338 2784 1562 3571 
Q 1651 3866 1651 3965 
Q 1651 4064 1625 4125 
Q 1600 4186 1600 4221 
Q 1600 4256 1645 4256 
Q 1690 4256 1798 4224 
Q 2118 4115 2118 3981 
Q 2118 3910 2025 3641 
Q 1933 3373 1856 3206 
Q 2374 2810 2669 2483 
Q 2746 2406 2746 2336 
Q 2746 2266 2650 2176 
Q 2554 2086 2502 2086 
Q 2451 2086 2368 2189 
Q 2080 2566 1702 2906 
z
" transform="scale(0.015625)"/>
      <path id="LXGWWenKai-Regular-6807" d="M 3226 1997 
Q 3219 2112 3276 2125 
Q 3334 2138 3424 2086 
Q 3661 1965 3674 1805 
Q 3674 1766 3654 1728 
Q 3334 1107 3040 739 
Q 2746 371 2544 201 
Q 2342 32 2291 19 
Q 2240 6 2240 64 
Q 2240 134 2342 282 
Q 2643 704 2934 1184 
Q 3226 1664 3226 1958 
L 3226 1997 
z
M 5779 250 
Q 5709 269 5664 384 
Q 5293 1107 4762 1856 
Q 4672 1965 4864 2112 
Q 4915 2150 4992 2121 
Q 5069 2093 5433 1545 
Q 5798 998 6010 634 
Q 6125 422 5952 288 
Q 5862 218 5779 250 
z
M 1792 -454 
Q 1792 -608 1670 -608 
Q 1664 -608 1587 -589 
Q 1376 -518 1376 -352 
Q 1376 -320 1405 -205 
Q 1434 -90 1434 115 
L 1440 294 
Q 1440 474 1443 755 
Q 1446 1037 1449 1341 
Q 1453 1645 1462 1910 
Q 1472 2176 1472 2310 
L 1478 2400 
Q 1293 1754 691 998 
Q 378 602 282 602 
Q 243 602 243 669 
Q 243 736 314 832 
Q 915 1683 1376 3040 
L 902 3002 
Q 800 2989 717 2989 
Q 634 2989 582 3021 
Q 454 3130 397 3277 
Q 390 3290 390 3315 
Q 390 3360 442 3360 
L 474 3360 
Q 589 3341 691 3341 
L 768 3341 
L 1472 3392 
L 1485 4678 
Q 1485 4794 1430 4877 
Q 1376 4960 1376 4992 
Q 1376 5043 1449 5043 
Q 1523 5043 1657 4995 
Q 1792 4947 1824 4905 
Q 1856 4864 1856 4794 
L 1837 3424 
L 2106 3443 
Q 2266 3462 2307 3478 
Q 2349 3494 2390 3494 
Q 2432 3494 2560 3404 
Q 2688 3315 2688 3232 
Q 2688 3149 2554 3136 
L 1837 3078 
L 1830 2522 
Q 1882 2566 1936 2566 
Q 1990 2566 2112 2445 
Q 2406 2144 2586 1862 
Q 2637 1805 2637 1734 
Q 2637 1664 2534 1606 
Q 2432 1549 2374 1549 
Q 2317 1549 2246 1658 
Q 2042 2010 1824 2253 
L 1792 -454 
z
M 4486 -109 
L 4493 -301 
Q 4493 -403 4425 -508 
Q 4358 -614 4252 -614 
Q 4147 -614 4035 -550 
Q 3923 -486 3792 -396 
Q 3661 -307 3545 -204 
Q 3430 -102 3353 -19 
Q 3277 64 3277 102 
Q 3277 141 3353 141 
Q 3430 141 3651 35 
Q 3872 -70 4090 -134 
L 4077 1830 
L 4070 2176 
L 4070 2509 
L 2931 2458 
L 2829 2458 
Q 2624 2458 2573 2509 
Q 2419 2662 2419 2768 
Q 2419 2874 2477 2874 
Q 2509 2874 2522 2861 
Q 2682 2829 2778 2829 
L 2822 2829 
L 5440 2944 
Q 5498 2950 5562 2953 
Q 5626 2957 5677 2973 
Q 5728 2989 5808 2989 
Q 5888 2989 6003 2886 
Q 6118 2784 6118 2701 
Q 6118 2598 5946 2586 
L 4467 2522 
L 4467 1850 
L 4486 -109 
z
M 3059 4333 
L 3238 4314 
Q 3315 4301 3373 4301 
L 3411 4301 
L 4858 4384 
Q 5030 4403 5078 4416 
Q 5126 4429 5161 4429 
Q 5197 4429 5274 4390 
Q 5478 4282 5478 4154 
Q 5478 4058 5331 4045 
L 3526 3949 
L 3341 3942 
Q 3258 3942 3174 3980 
Q 3091 4019 3008 4224 
Q 3002 4250 3002 4275 
Q 3002 4333 3059 4333 
z
" transform="scale(0.015625)"/>
      <path id="LXGWWenKai-Regular-7cfb" d="M 3034 1504 
Q 1408 1357 1254 1357 
Q 1101 1357 1001 1421 
Q 902 1485 819 1741 
Q 813 1754 813 1786 
Q 813 1818 858 1818 
Q 870 1818 883 1818 
Q 896 1818 1017 1789 
Q 1139 1760 1299 1760 
L 1344 1760 
L 1734 1779 
Q 2490 2330 2758 2547 
Q 2419 2739 2144 2915 
Q 1869 3091 1626 3174 
Q 1459 3238 1459 3334 
Q 1459 3405 1532 3494 
Q 1606 3584 1660 3584 
Q 1715 3584 1785 3552 
Q 1856 3520 1920 3485 
Q 1984 3450 2042 3424 
Q 2573 3834 2867 4243 
Q 2899 4288 2918 4346 
Q 2342 4275 1331 4192 
L 1293 4192 
Q 1120 4192 1120 4278 
Q 1120 4365 1306 4397 
Q 3994 4800 4410 5062 
Q 4480 5107 4512 5145 
Q 4544 5184 4585 5184 
Q 4627 5184 4752 5046 
Q 4877 4909 4877 4800 
Q 4877 4691 4800 4672 
Q 3974 4486 3181 4378 
Q 3334 4262 3334 4198 
Q 3334 4134 3251 4032 
Q 3149 3923 2758 3584 
Q 2547 3411 2336 3251 
Q 2490 3162 3053 2797 
Q 3962 3584 4096 3821 
Q 4128 3885 4147 3936 
Q 4166 3987 4195 3987 
Q 4224 3987 4314 3930 
Q 4557 3750 4557 3642 
Q 4557 3597 4506 3558 
Q 3366 2528 2304 1811 
Q 3398 1875 4595 2003 
Q 4416 2182 4281 2291 
Q 4147 2400 4147 2454 
Q 4147 2509 4220 2595 
Q 4294 2682 4345 2682 
Q 4397 2682 4544 2573 
Q 4883 2304 5270 1907 
Q 5658 1510 5658 1430 
Q 5658 1350 5571 1257 
Q 5485 1165 5427 1165 
Q 5370 1165 5200 1373 
Q 5030 1581 4915 1702 
Q 4307 1626 3424 1542 
L 3430 -58 
L 3437 -269 
Q 3437 -371 3347 -480 
Q 3258 -589 3155 -589 
Q 3053 -589 2845 -496 
Q 2637 -403 2320 -169 
Q 2003 64 2003 134 
Q 2003 179 2064 179 
Q 2125 179 2329 96 
Q 2534 13 3040 -115 
L 3034 1504 
z
M 2285 838 
Q 1888 371 1347 16 
Q 806 -339 723 -345 
Q 640 -352 640 -320 
Q 634 -250 730 -173 
Q 1082 122 1344 403 
Q 1811 896 1843 1152 
Q 1856 1248 1917 1251 
Q 1978 1254 2074 1190 
Q 2170 1126 2250 1046 
Q 2330 966 2333 931 
Q 2336 896 2285 838 
z
M 5632 6 
Q 5619 -115 5516 -217 
Q 5414 -320 5356 -313 
Q 5299 -307 5229 -218 
Q 4806 339 4147 954 
Q 4064 1030 4070 1065 
Q 4077 1101 4109 1155 
Q 4141 1210 4195 1254 
Q 4250 1299 4307 1292 
Q 4365 1286 4707 985 
Q 5050 685 5568 115 
Q 5638 45 5632 6 
z
" transform="scale(0.015625)"/>
     </defs>
     <use xlink:href="#LXGWWenKai-Regular-2460"/>
     <use xlink:href="#LXGWWenKai-Regular-20" transform="translate(99.999985 0)"/>
     <use xlink:href="#LXGWWenKai-Regular-5efa" transform="translate(134.999969 0)"/>
     <use xlink:href="#LXGWWenKai-Regular-7acb" transform="translate(234.999954 0)"/>
     <use xlink:href="#LXGWWenKai-Regular-5750" transform="translate(334.999939 0)"/>
     <use xlink:href="#LXGWWenKai-Regular-6807" transform="translate(434.999924 0)"/>
     <use xlink:href="#LXGWWenKai-Regular-7cfb" transform="translate(534.999908 0)"/>
    </g>
   </g>
   <g id="text_2">
    <!-- ② 设点坐标 $P(x, y)$ -->
    <g style="fill: #5d4e37" transform="translate(341.25 156) scale(0.15 -0.15)">
     <defs>
      <path id="LXGWWenKai-Regular-2461" d="M 2822 557 
Q 2483 557 2042 499 
L 2016 499 
Q 1926 499 1862 579 
Q 1798 659 1798 726 
Q 1798 794 1824 832 
Q 1850 870 1878 902 
Q 1907 934 1971 1040 
Q 2035 1146 2368 1504 
Q 2701 1862 3190 2240 
Q 3680 2618 3885 2858 
Q 4090 3098 4090 3344 
Q 4090 3590 3898 3737 
Q 3706 3885 3357 3885 
Q 3008 3885 2755 3744 
Q 2502 3603 2413 3379 
Q 2355 3245 2243 3245 
Q 2131 3245 2080 3341 
Q 2029 3437 2029 3469 
Q 2029 3501 2093 3616 
Q 2157 3731 2304 3872 
Q 2675 4218 3392 4218 
Q 3930 4218 4202 3978 
Q 4474 3738 4474 3379 
Q 4474 3021 4221 2707 
Q 3968 2394 3539 2074 
Q 3110 1754 2777 1453 
Q 2445 1152 2259 851 
Q 2464 877 3206 877 
L 4045 870 
L 4384 877 
Q 4448 877 4502 784 
Q 4557 691 4557 601 
Q 4557 512 4480 512 
Q 4429 512 4217 534 
Q 4006 557 3584 557 
L 2822 557 
z
M 5744 1280 
Q 5958 1779 5958 2348 
Q 5958 2918 5744 3417 
Q 5530 3917 5149 4297 
Q 4768 4678 4269 4892 
Q 3770 5107 3200 5107 
Q 2630 5107 2131 4892 
Q 1632 4678 1251 4297 
Q 870 3917 656 3417 
Q 442 2918 442 2348 
Q 442 1779 656 1280 
Q 870 781 1251 403 
Q 1632 26 2131 -188 
Q 2630 -403 3200 -403 
Q 3770 -403 4269 -188 
Q 4768 26 5149 403 
Q 5530 781 5744 1280 
z
M 6032 3539 
Q 6272 2982 6272 2348 
Q 6272 1715 6032 1158 
Q 5792 602 5369 179 
Q 4947 -243 4390 -480 
Q 3834 -717 3200 -717 
Q 2566 -717 2009 -480 
Q 1453 -243 1030 179 
Q 608 602 368 1158 
Q 128 1715 128 2348 
Q 128 2982 368 3539 
Q 608 4096 1030 4518 
Q 1453 4941 2009 5181 
Q 2566 5421 3200 5421 
Q 3834 5421 4390 5181 
Q 4947 4941 5369 4518 
Q 5792 4096 6032 3539 
z
" transform="scale(0.015625)"/>
      <path id="LXGWWenKai-Regular-8bbe" d="M 1472 2586 
L 806 2515 
Q 768 2509 742 2509 
L 678 2509 
Q 518 2509 416 2630 
Q 314 2752 314 2816 
Q 314 2880 352 2880 
Q 506 2854 563 2854 
L 640 2854 
Q 666 2854 691 2861 
L 1677 2976 
Q 1728 2976 1824 2909 
Q 1920 2842 1920 2774 
Q 1920 2707 1875 2669 
L 1837 2630 
L 1760 550 
Q 1869 627 2192 883 
Q 2515 1139 2585 1142 
Q 2656 1146 2659 1107 
Q 2662 1069 2556 947 
Q 2451 826 2124 445 
Q 1798 64 1651 -29 
Q 1504 -122 1437 -131 
Q 1370 -141 1267 -70 
Q 1165 0 1085 86 
Q 1005 173 998 211 
Q 998 243 1113 265 
Q 1229 288 1395 358 
L 1472 2586 
z
M 5133 2765 
L 4954 2765 
L 4954 2771 
Q 4845 2771 4762 2784 
Q 4416 2829 4416 3194 
L 4416 3206 
L 4435 4397 
L 3354 4333 
Q 3354 3520 3101 3104 
Q 2848 2688 2490 2451 
Q 2349 2355 2294 2355 
Q 2240 2355 2240 2400 
Q 2240 2445 2323 2541 
Q 2842 3149 2912 3776 
Q 2944 4026 2944 4205 
L 2938 4333 
Q 2925 4589 2902 4640 
Q 2880 4691 2867 4716 
Q 2854 4742 2854 4762 
Q 2854 4806 2931 4806 
Q 3008 4806 3322 4685 
L 4512 4774 
Q 4544 4781 4570 4781 
L 4608 4781 
Q 4698 4781 4784 4717 
Q 4870 4653 4858 4576 
Q 4870 4576 4851 4474 
L 4806 3270 
Q 4806 3181 4854 3161 
Q 4902 3142 5120 3142 
L 5357 3142 
Q 5549 3155 5625 3184 
Q 5702 3213 5744 3213 
Q 5786 3213 5875 3155 
Q 6099 3002 6099 2893 
Q 6099 2816 5946 2803 
L 5133 2765 
z
M 2918 2381 
L 4749 2477 
L 4813 2477 
Q 4915 2477 5001 2416 
Q 5088 2355 5088 2294 
Q 5088 2234 4979 2016 
Q 4678 1376 4134 794 
Q 4832 211 5978 -173 
Q 6086 -211 6086 -249 
Q 6086 -288 6042 -352 
Q 5907 -544 5805 -544 
Q 5779 -544 5609 -489 
Q 5440 -435 5165 -307 
Q 4499 -6 3853 531 
Q 3334 64 2736 -230 
Q 2138 -525 1946 -525 
Q 1856 -525 1856 -480 
Q 1856 -410 2029 -314 
Q 2918 160 3584 787 
Q 3392 986 3129 1309 
Q 2867 1632 2867 1705 
Q 2867 1779 2950 1840 
Q 3034 1901 3088 1901 
Q 3142 1901 3200 1811 
Q 3533 1338 3846 1050 
Q 4307 1542 4544 2106 
L 3142 2016 
L 2995 2010 
Q 2765 2010 2675 2259 
Q 2643 2362 2643 2387 
Q 2643 2413 2678 2413 
Q 2714 2413 2765 2397 
Q 2816 2381 2918 2381 
z
M 2156 3888 
Q 2246 3776 2246 3718 
Q 2246 3661 2156 3577 
Q 2067 3494 1996 3494 
Q 1926 3494 1811 3654 
Q 1485 4102 1126 4448 
Q 1056 4518 1056 4560 
Q 1056 4602 1107 4678 
Q 1158 4755 1219 4755 
Q 1280 4755 1392 4662 
Q 1504 4570 1651 4432 
Q 1798 4294 1932 4147 
Q 2067 4000 2156 3888 
z
" transform="scale(0.015625)"/>
      <path id="LXGWWenKai-Regular-70b9" d="M 1632 1197 
Q 1658 1376 1658 1449 
Q 1658 1523 1645 1613 
L 1523 2560 
Q 1510 2746 1456 2854 
Q 1402 2963 1402 3001 
Q 1402 3040 1494 3040 
Q 1587 3040 1926 2912 
L 2880 2963 
L 2886 4717 
Q 2886 4845 2838 4931 
Q 2790 5018 2790 5053 
Q 2790 5088 2860 5088 
Q 2931 5088 3034 5069 
Q 3309 5018 3309 4864 
L 3290 4077 
L 4538 4147 
Q 4659 4154 4729 4186 
Q 4800 4218 4854 4218 
Q 4909 4218 4979 4166 
Q 5158 4045 5158 3917 
Q 5158 3827 4992 3814 
L 3283 3725 
L 3270 2989 
L 4499 3053 
L 4576 3053 
Q 4704 3053 4790 2979 
Q 4877 2906 4877 2848 
Q 4877 2790 4857 2761 
Q 4838 2733 4832 2707 
L 4659 1683 
Q 4800 1485 4800 1414 
Q 4800 1344 4745 1337 
Q 4691 1331 4608 1325 
L 2061 1235 
L 2074 1101 
L 2074 1069 
Q 2074 941 1952 941 
Q 1818 941 1725 1024 
Q 1632 1107 1632 1197 
z
M 4416 2701 
L 1926 2573 
L 2022 1587 
L 4269 1677 
L 4416 2701 
z
M 5686 153 
Q 5856 -26 5968 -163 
Q 6080 -301 6080 -349 
Q 6080 -397 6029 -461 
Q 5805 -704 5677 -506 
Q 5235 96 4723 570 
Q 4646 646 4646 691 
Q 4646 736 4716 819 
Q 4787 902 4835 902 
Q 4883 902 5020 790 
Q 5158 678 5337 505 
Q 5517 333 5686 153 
z
M 4157 195 
Q 4288 32 4374 -89 
Q 4461 -211 4461 -246 
Q 4461 -282 4361 -374 
Q 4262 -467 4188 -467 
Q 4115 -467 4045 -352 
Q 3725 173 3347 576 
Q 3277 659 3277 698 
Q 3277 762 3357 826 
Q 3437 890 3481 890 
Q 3526 890 3638 784 
Q 3750 678 3888 518 
Q 4026 358 4157 195 
z
M 838 -499 
Q 736 -614 685 -614 
Q 634 -614 528 -531 
Q 422 -448 422 -371 
Q 422 -294 486 -230 
Q 973 256 1210 755 
Q 1254 858 1331 858 
Q 1408 858 1491 810 
Q 1574 762 1574 698 
Q 1574 634 1497 486 
Q 1421 339 1305 153 
Q 1190 -32 1065 -208 
Q 941 -384 838 -499 
z
M 2813 182 
Q 2912 26 2973 -92 
Q 3034 -211 3034 -249 
Q 3034 -288 2938 -368 
Q 2842 -448 2755 -448 
Q 2669 -448 2611 -326 
Q 2381 205 2131 538 
Q 2067 621 2067 665 
Q 2067 710 2144 771 
Q 2221 832 2272 832 
Q 2323 832 2412 733 
Q 2502 634 2608 486 
Q 2714 339 2813 182 
z
" transform="scale(0.015625)"/>
      <path id="STIXGeneral-Italic-50" d="M 934 4179 
L 2477 4179 
Q 3872 4179 3872 3232 
Q 3872 2976 3753 2729 
Q 3635 2483 3437 2317 
Q 2995 1952 2125 1952 
Q 1773 1952 1549 2003 
L 1210 768 
Q 1120 422 1120 365 
Q 1120 250 1216 189 
Q 1312 128 1562 102 
L 1562 0 
L 0 0 
L 0 102 
Q 275 141 361 227 
Q 448 314 538 627 
L 1280 3277 
Q 1389 3667 1389 3808 
Q 1389 3936 1299 3990 
Q 1210 4045 934 4077 
L 934 4179 
z
M 2048 3789 
L 1606 2221 
Q 1792 2189 1939 2189 
Q 2496 2189 2758 2342 
Q 3213 2598 3213 3200 
Q 3213 3987 2381 3987 
Q 2099 3987 2048 3789 
z
" transform="scale(0.015625)"/>
      <path id="STIXGeneral-Regular-28" d="M 1946 -1030 
L 1869 -1133 
Q 1126 -710 716 32 
Q 307 774 307 1613 
Q 307 3386 1888 4326 
L 1946 4224 
Q 1293 3667 1075 3126 
Q 858 2586 858 1632 
Q 858 685 1082 96 
Q 1306 -493 1946 -1030 
z
" transform="scale(0.015625)"/>
      <path id="STIXGeneral-Italic-78" d="M 1555 2272 
L 1632 1907 
Q 1971 2426 2179 2624 
Q 2387 2822 2598 2822 
Q 2714 2822 2787 2755 
Q 2861 2688 2861 2585 
Q 2861 2483 2800 2419 
Q 2739 2355 2643 2355 
Q 2586 2355 2490 2409 
Q 2394 2464 2310 2464 
Q 2125 2464 1683 1690 
Q 1683 1606 1734 1402 
L 1939 544 
Q 2003 282 2131 282 
Q 2234 282 2432 538 
Q 2451 563 2476 598 
Q 2502 634 2521 662 
Q 2541 691 2566 717 
L 2662 659 
Q 2387 230 2227 80 
Q 2067 -70 1882 -70 
Q 1728 -70 1645 26 
Q 1562 122 1504 365 
L 1318 1126 
L 755 365 
Q 557 96 432 13 
Q 307 -70 147 -70 
Q 0 -70 -86 0 
Q -173 70 -173 198 
Q -173 294 -112 361 
Q -51 429 45 429 
Q 122 429 250 358 
Q 346 301 416 301 
Q 525 301 742 614 
L 1267 1357 
L 1088 2150 
Q 1024 2432 969 2509 
Q 915 2586 794 2586 
Q 717 2586 544 2541 
L 429 2509 
L 410 2611 
L 480 2637 
Q 992 2822 1229 2822 
Q 1350 2822 1420 2707 
Q 1491 2592 1555 2272 
z
" transform="scale(0.015625)"/>
      <path id="STIXGeneral-Regular-2c" d="M 531 -902 
L 467 -781 
Q 998 -422 998 -96 
Q 998 -13 909 -13 
Q 883 -13 822 -25 
Q 762 -38 723 -38 
Q 352 -38 352 288 
Q 352 454 457 553 
Q 563 653 736 653 
Q 954 653 1101 496 
Q 1248 339 1248 96 
Q 1248 -198 1053 -473 
Q 858 -749 531 -902 
z
" transform="scale(0.015625)"/>
      <path id="STIXGeneral-Italic-79" d="M 1555 1190 
L 1690 486 
Q 2118 1190 2294 1558 
Q 2470 1926 2470 2131 
Q 2470 2234 2304 2336 
Q 2138 2445 2138 2586 
Q 2138 2688 2211 2755 
Q 2285 2822 2394 2822 
Q 2534 2822 2630 2720 
Q 2726 2618 2726 2470 
Q 2726 1914 1888 518 
Q 1389 -307 918 -812 
Q 448 -1318 173 -1318 
Q 26 -1318 -64 -1241 
Q -154 -1165 -154 -1043 
Q -154 -934 -80 -860 
Q -6 -787 96 -787 
Q 218 -787 314 -876 
Q 410 -966 486 -966 
Q 602 -966 794 -755 
Q 877 -672 1040 -457 
Q 1203 -243 1248 -173 
Q 1312 -45 1312 51 
Q 1312 243 1113 1046 
Q 915 1850 787 2176 
Q 698 2413 592 2499 
Q 486 2586 294 2586 
Q 192 2586 96 2560 
L 96 2669 
Q 237 2694 301 2707 
Q 563 2758 986 2822 
L 1011 2822 
Q 1082 2822 1277 2227 
Q 1472 1632 1555 1190 
z
" transform="scale(0.015625)"/>
      <path id="STIXGeneral-Regular-29" d="M 186 4224 
L 262 4326 
Q 992 3891 1408 3148 
Q 1824 2406 1824 1581 
Q 1824 -166 243 -1133 
L 186 -1030 
Q 845 -486 1059 54 
Q 1274 595 1274 1562 
Q 1274 2534 1059 3120 
Q 845 3706 186 4224 
z
" transform="scale(0.015625)"/>
     </defs>
     <use xlink:href="#LXGWWenKai-Regular-2461" transform="translate(0 0.296875)"/>
     <use xlink:href="#LXGWWenKai-Regular-20" transform="translate(99.999985 0.296875)"/>
     <use xlink:href="#LXGWWenKai-Regular-8bbe" transform="translate(134.999969 0.296875)"/>
     <use xlink:href="#LXGWWenKai-Regular-70b9" transform="translate(234.999954 0.296875)"/>
     <use xlink:href="#LXGWWenKai-Regular-5750" transform="translate(334.999939 0.296875)"/>
     <use xlink:href="#LXGWWenKai-Regular-6807" transform="translate(434.999924 0.296875)"/>
     <use xlink:href="#LXGWWenKai-Regular-20" transform="translate(534.999908 0.296875)"/>
     <use xlink:href="#STIXGeneral-Italic-50" transform="translate(569.999893 0.296875)"/>
     <use xlink:href="#STIXGeneral-Regular-28" transform="translate(631.099884 0.296875)"/>
     <use xlink:href="#STIXGeneral-Italic-78" transform="translate(664.399872 0.296875)"/>
     <use xlink:href="#STIXGeneral-Regular-2c" transform="translate(708.799866 0.296875)"/>
     <use xlink:href="#STIXGeneral-Italic-79" transform="translate(748.239847 0.296875)"/>
     <use xlink:href="#STIXGeneral-Regular-29" transform="translate(792.639841 0.296875)"/>
    </g>
   </g>
   <g id="text_3">
    <!-- ③ 列方程并化简 -->
    <g style="fill: #5d4e37" transform="translate(564.075 155.8125) scale(0.15 -0.15)">
     <defs>
      <path id="LXGWWenKai-Regular-2462" d="M 4048 2032 
Q 3923 2189 3724 2275 
Q 3526 2362 3235 2362 
Q 2944 2362 2784 2317 
L 2758 2317 
Q 2682 2317 2630 2397 
Q 2579 2477 2579 2553 
Q 2579 2630 2643 2637 
Q 3034 2662 3344 2774 
Q 3654 2886 3833 3052 
Q 4013 3219 4013 3392 
Q 4013 3923 3200 3923 
Q 2669 3923 2266 3494 
Q 2195 3424 2147 3424 
Q 2099 3424 2038 3504 
Q 1978 3584 1978 3651 
Q 1978 3718 2035 3763 
Q 2477 4230 3155 4230 
Q 3834 4230 4102 4003 
Q 4371 3776 4371 3456 
Q 4371 2784 3584 2566 
Q 3827 2566 4044 2454 
Q 4262 2342 4400 2140 
Q 4538 1939 4538 1664 
Q 4538 1043 4118 742 
Q 3699 442 3008 442 
Q 2317 442 1830 902 
Q 1792 941 1792 1021 
Q 1792 1101 1846 1193 
Q 1901 1286 1949 1286 
Q 1997 1286 2022 1254 
Q 2419 768 2969 768 
Q 3520 768 3846 1001 
Q 4173 1235 4173 1664 
Q 4173 1875 4048 2032 
z
M 5744 1280 
Q 5958 1779 5958 2348 
Q 5958 2918 5744 3417 
Q 5530 3917 5149 4297 
Q 4768 4678 4269 4892 
Q 3770 5107 3200 5107 
Q 2630 5107 2131 4892 
Q 1632 4678 1251 4297 
Q 870 3917 656 3417 
Q 442 2918 442 2348 
Q 442 1779 656 1280 
Q 870 781 1251 403 
Q 1632 26 2131 -188 
Q 2630 -403 3200 -403 
Q 3770 -403 4269 -188 
Q 4768 26 5149 403 
Q 5530 781 5744 1280 
z
M 6032 3539 
Q 6272 2982 6272 2348 
Q 6272 1715 6032 1158 
Q 5792 602 5369 179 
Q 4947 -243 4390 -480 
Q 3834 -717 3200 -717 
Q 2566 -717 2009 -480 
Q 1453 -243 1030 179 
Q 608 602 368 1158 
Q 128 1715 128 2348 
Q 128 2982 368 3539 
Q 608 4096 1030 4518 
Q 1453 4941 2009 5181 
Q 2566 5421 3200 5421 
Q 3834 5421 4390 5181 
Q 4947 4941 5369 4518 
Q 5792 4096 6032 3539 
z
" transform="scale(0.015625)"/>
      <path id="LXGWWenKai-Regular-5217" d="M 5632 -166 
L 5638 -339 
Q 5638 -538 5536 -624 
Q 5434 -710 5357 -710 
Q 5280 -710 5139 -633 
Q 4998 -557 4832 -435 
Q 4666 -314 4509 -186 
Q 4352 -58 4249 48 
Q 4147 154 4147 198 
Q 4147 243 4208 243 
Q 4269 243 4569 89 
Q 4870 -64 5216 -179 
L 5229 4730 
Q 5229 4883 5133 5018 
Q 5107 5062 5107 5088 
Q 5107 5146 5190 5146 
Q 5274 5146 5427 5091 
Q 5581 5037 5613 4995 
Q 5645 4954 5645 4883 
L 5632 -166 
z
M 3827 4448 
Q 3827 4378 3718 4365 
L 3706 4365 
L 2266 4275 
Q 2086 3750 1805 3232 
L 2976 3315 
L 3014 3315 
Q 3123 3315 3232 3251 
Q 3334 3174 3334 3113 
Q 3334 3053 3308 3014 
Q 3283 2976 3270 2950 
Q 2854 1709 2172 889 
Q 1491 70 499 -422 
Q 416 -467 352 -467 
Q 288 -467 288 -419 
Q 288 -371 397 -288 
Q 941 102 1344 499 
Q 1747 896 2061 1382 
Q 1734 1773 1363 2099 
Q 1318 2144 1318 2189 
Q 1318 2234 1382 2320 
Q 1446 2406 1510 2406 
Q 1574 2406 1606 2374 
Q 1946 2093 2266 1715 
Q 2579 2272 2822 2970 
L 1613 2886 
Q 1165 2131 704 1728 
Q 531 1568 483 1568 
Q 435 1568 435 1619 
Q 435 1670 598 1894 
Q 762 2118 992 2522 
Q 1466 3360 1792 4243 
L 1088 4192 
Q 1037 4186 992 4186 
L 909 4186 
Q 832 4186 733 4227 
Q 634 4269 570 4499 
Q 563 4512 563 4541 
Q 563 4570 592 4570 
Q 621 4570 701 4554 
Q 781 4538 915 4538 
L 998 4538 
L 3123 4685 
Q 3354 4698 3408 4720 
Q 3462 4742 3516 4742 
Q 3571 4742 3648 4681 
Q 3725 4621 3776 4550 
Q 3827 4480 3827 4448 
z
M 4269 954 
Q 4269 800 4141 800 
Q 4038 800 3932 877 
Q 3827 954 3827 1075 
Q 3827 1094 3827 1113 
Q 3827 1133 3843 1200 
Q 3859 1267 3859 1491 
L 3853 3635 
Q 3853 3782 3801 3865 
Q 3750 3949 3750 3981 
Q 3750 4032 3824 4032 
Q 3898 4032 4042 3981 
Q 4186 3930 4218 3891 
Q 4250 3853 4250 3770 
L 4269 954 
z
" transform="scale(0.015625)"/>
      <path id="LXGWWenKai-Regular-65b9" d="M 506 3648 
Q 666 3616 838 3616 
L 922 3616 
L 2970 3738 
L 2963 4621 
Q 2963 4768 2912 4841 
Q 2861 4915 2861 4947 
Q 2861 4998 2928 4998 
Q 2995 4998 3098 4986 
Q 3386 4947 3386 4838 
L 3379 3763 
L 5299 3878 
Q 5517 3898 5581 3917 
Q 5645 3936 5683 3936 
Q 5722 3936 5811 3891 
Q 6054 3757 6054 3635 
Q 6054 3552 5933 3539 
L 3142 3379 
Q 3085 3040 2944 2547 
L 4525 2637 
L 4570 2637 
Q 4710 2637 4812 2566 
Q 4915 2496 4915 2422 
Q 4915 2349 4892 2301 
Q 4870 2253 4864 2221 
Q 4723 800 4365 -154 
Q 4301 -314 4169 -435 
Q 4038 -557 3939 -557 
Q 3840 -557 3587 -432 
Q 3334 -307 2921 16 
Q 2509 339 2509 442 
Q 2509 474 2573 474 
Q 2637 474 2985 301 
Q 3334 128 3808 -19 
Q 3821 -26 3853 -26 
Q 3885 -26 3891 0 
Q 4134 512 4246 1101 
Q 4358 1690 4410 2253 
L 2816 2170 
Q 2464 1178 1779 448 
Q 1235 -134 742 -384 
Q 550 -480 483 -480 
Q 416 -480 416 -435 
Q 416 -365 538 -282 
Q 1139 160 1683 880 
Q 2227 1600 2458 2394 
Q 2592 2867 2675 3354 
L 1069 3258 
Q 954 3245 851 3245 
Q 749 3245 649 3293 
Q 550 3341 461 3565 
Q 454 3578 454 3603 
Q 454 3648 506 3648 
z
" transform="scale(0.015625)"/>
      <path id="LXGWWenKai-Regular-7a0b" d="M 1466 4064 
Q 723 3834 579 3834 
Q 435 3834 435 3885 
Q 435 3949 633 4022 
Q 832 4096 1261 4297 
Q 1690 4499 2054 4742 
Q 2163 4806 2204 4896 
Q 2246 4986 2294 4986 
Q 2342 4986 2416 4906 
Q 2490 4826 2544 4730 
Q 2598 4634 2598 4605 
Q 2598 4576 2586 4557 
Q 2534 4467 1811 4186 
L 1811 3251 
L 2202 3277 
Q 2368 3296 2422 3315 
Q 2477 3334 2525 3334 
Q 2573 3334 2701 3244 
Q 2829 3155 2829 3075 
Q 2829 2995 2707 2982 
L 1811 2912 
L 1811 2509 
Q 1862 2560 1907 2560 
Q 1997 2560 2330 2227 
Q 2688 1888 2688 1795 
Q 2688 1702 2601 1635 
Q 2515 1568 2464 1568 
Q 2413 1568 2336 1664 
Q 2118 1978 1811 2266 
L 1818 -435 
Q 1818 -589 1702 -589 
Q 1645 -589 1568 -550 
Q 1402 -474 1402 -346 
Q 1402 -307 1421 -204 
Q 1440 -102 1440 128 
L 1440 294 
L 1453 1837 
Q 1453 1971 1472 2163 
L 1472 2234 
Q 1389 1914 1040 1402 
Q 691 890 496 701 
Q 301 512 250 512 
Q 211 512 211 563 
Q 211 614 275 717 
Q 947 1715 1389 2880 
L 838 2835 
Q 710 2822 649 2822 
Q 589 2822 493 2860 
Q 397 2899 314 3110 
Q 307 3130 307 3155 
Q 301 3194 346 3194 
L 614 3168 
L 685 3168 
L 1459 3226 
L 1466 4064 
z
M 3539 2880 
Q 3539 2746 3386 2746 
Q 3309 2746 3213 2803 
Q 3117 2861 3117 2957 
L 3117 2989 
Q 3130 3130 3130 3200 
L 3130 3315 
Q 3130 3354 3123 3379 
L 3034 4256 
Q 3027 4384 2966 4528 
Q 2906 4672 2906 4704 
Q 2906 4736 2979 4736 
Q 3053 4736 3398 4608 
L 5133 4710 
L 5184 4710 
Q 5293 4710 5385 4627 
Q 5478 4544 5478 4493 
Q 5478 4442 5462 4413 
Q 5446 4384 5440 4352 
L 5312 3398 
Q 5472 3213 5472 3142 
Q 5472 3072 5411 3062 
Q 5350 3053 5267 3046 
L 3533 2950 
L 3539 2893 
L 3539 2880 
z
M 5024 4358 
L 3411 4269 
L 3501 3309 
L 4928 3379 
L 5024 4358 
z
M 5581 141 
L 5888 186 
Q 5939 186 6022 134 
Q 6234 6 6234 -115 
Q 6234 -205 6067 -218 
L 2784 -307 
L 2688 -307 
Q 2547 -307 2454 -259 
Q 2362 -211 2304 45 
L 2304 77 
Q 2304 115 2333 115 
Q 2362 115 2435 92 
Q 2509 70 2688 70 
L 4032 102 
L 4038 986 
L 3443 960 
L 3309 954 
Q 3066 954 2982 1165 
Q 2944 1248 2944 1293 
Q 2944 1338 2976 1338 
Q 3008 1338 3072 1322 
Q 3136 1306 3264 1306 
L 3334 1306 
L 4045 1338 
L 4051 2048 
L 3232 2003 
L 3098 1997 
Q 2931 1997 2867 2074 
Q 2733 2234 2733 2355 
Q 2733 2387 2765 2387 
Q 2797 2387 2861 2371 
Q 2925 2355 3053 2355 
L 3123 2355 
L 5126 2458 
Q 5299 2477 5353 2493 
Q 5408 2509 5446 2509 
Q 5485 2509 5568 2458 
Q 5779 2323 5779 2208 
Q 5779 2138 5613 2125 
L 4448 2067 
L 4442 1350 
L 4986 1376 
Q 5158 1395 5212 1411 
Q 5267 1427 5302 1427 
Q 5338 1427 5414 1376 
Q 5632 1242 5632 1139 
Q 5632 1062 5472 1050 
L 4435 1005 
L 4429 115 
L 5581 141 
z
" transform="scale(0.015625)"/>
      <path id="LXGWWenKai-Regular-5e76" d="M 3750 -339 
Q 3802 70 3802 256 
L 3802 1786 
L 2541 1734 
L 2522 1600 
Q 2394 838 1882 269 
Q 1478 -179 1037 -390 
Q 858 -474 794 -474 
Q 730 -474 730 -435 
Q 730 -378 864 -269 
Q 1946 544 2125 1722 
L 870 1670 
L 666 1664 
Q 486 1664 422 1741 
Q 269 1946 269 2016 
Q 269 2086 304 2086 
Q 339 2086 403 2064 
Q 467 2042 672 2042 
L 736 2042 
L 2163 2106 
Q 2214 2605 2214 3187 
L 2214 3334 
L 1536 3302 
Q 1363 3283 1260 3283 
Q 1158 3283 1101 3341 
Q 934 3514 934 3635 
Q 934 3674 969 3674 
Q 1005 3674 1069 3658 
Q 1133 3642 1267 3642 
L 3264 3738 
Q 4006 4717 4006 5120 
Q 4006 5197 4070 5197 
Q 4102 5197 4204 5136 
Q 4307 5075 4400 4985 
Q 4493 4896 4493 4841 
Q 4493 4787 4474 4755 
Q 4102 4237 3661 3757 
L 4762 3808 
Q 4877 3821 5001 3853 
Q 5126 3885 5164 3885 
Q 5203 3885 5286 3834 
Q 5517 3699 5517 3596 
Q 5517 3494 5402 3482 
L 4218 3424 
L 4218 2195 
L 5382 2246 
Q 5600 2266 5664 2282 
Q 5728 2298 5782 2298 
Q 5837 2298 5923 2234 
Q 6010 2170 6074 2090 
Q 6138 2010 6138 1965 
Q 6138 1888 6003 1875 
L 4218 1805 
L 4224 -435 
Q 4224 -614 4102 -614 
Q 4090 -614 4000 -589 
Q 3750 -506 3750 -339 
z
M 2646 4429 
Q 2758 4282 2832 4170 
Q 2906 4058 2906 4010 
Q 2906 3962 2813 3875 
Q 2720 3789 2649 3789 
Q 2579 3789 2509 3885 
Q 2189 4397 1907 4717 
Q 1837 4800 1837 4845 
Q 1837 4890 1881 4931 
Q 1926 4973 1980 5001 
Q 2035 5030 2064 5030 
Q 2093 5030 2192 4940 
Q 2291 4851 2412 4713 
Q 2534 4576 2646 4429 
z
M 2637 3354 
Q 2637 2669 2579 2125 
L 3795 2176 
L 3795 3405 
L 2637 3354 
z
" transform="scale(0.015625)"/>
      <path id="LXGWWenKai-Regular-5316" d="M 1466 2912 
Q 1146 2496 870 2240 
Q 378 1773 262 1773 
Q 224 1773 224 1817 
Q 224 1862 377 2044 
Q 531 2227 886 2707 
Q 1242 3187 1670 3907 
Q 2099 4627 2099 4851 
L 2099 4902 
Q 2099 4922 2093 4947 
L 2093 4966 
Q 2093 5030 2160 5030 
Q 2227 5030 2330 4979 
Q 2579 4838 2579 4736 
Q 2579 4659 2323 4198 
Q 2067 3738 1882 3450 
L 1875 -390 
Q 1875 -525 1747 -525 
Q 1734 -525 1644 -502 
Q 1555 -480 1472 -416 
Q 1389 -352 1389 -278 
Q 1389 -205 1411 -112 
Q 1434 -19 1434 211 
L 1466 2912 
z
M 3309 1811 
Q 2470 1344 2272 1344 
Q 2208 1344 2208 1382 
Q 2208 1446 2419 1574 
Q 2963 1901 3315 2163 
L 3328 4595 
Q 3328 4749 3277 4832 
Q 3226 4915 3226 4944 
Q 3226 4973 3302 4973 
Q 3379 4973 3533 4928 
Q 3763 4877 3763 4742 
L 3750 2496 
Q 4410 3040 4915 3648 
Q 4992 3725 5011 3865 
Q 5030 4006 5068 4006 
Q 5107 4006 5184 3936 
Q 5414 3738 5414 3578 
Q 5414 3533 5389 3507 
Q 4640 2650 3744 2080 
L 3738 544 
Q 3738 326 3795 256 
Q 3853 186 4019 154 
Q 4346 102 4624 102 
Q 4902 102 5350 166 
Q 5466 186 5542 282 
Q 5683 461 5805 1306 
Q 5824 1453 5862 1523 
Q 5901 1594 5933 1594 
Q 6054 1594 6054 960 
Q 6054 634 6029 371 
Q 5971 -179 5491 -230 
Q 4998 -288 4537 -288 
Q 4077 -288 3789 -221 
Q 3501 -154 3401 6 
Q 3302 166 3302 454 
L 3309 1811 
z
" transform="scale(0.015625)"/>
      <path id="LXGWWenKai-Regular-7b80" d="M 960 2451 
Q 960 2618 838 2739 
Q 813 2778 813 2790 
Q 813 2803 899 2803 
Q 986 2803 1126 2755 
Q 1267 2707 1299 2675 
Q 1331 2643 1331 2579 
L 1338 -358 
Q 1338 -493 1248 -493 
Q 1210 -493 1123 -448 
Q 1037 -403 973 -339 
Q 909 -275 909 -227 
Q 909 -179 934 -57 
Q 960 64 960 211 
L 960 2451 
z
M 5395 -102 
L 5402 -256 
Q 5402 -416 5299 -496 
Q 5197 -576 5145 -576 
Q 5094 -576 5024 -550 
L 4941 -512 
Q 4493 -243 4230 19 
Q 4154 96 4154 118 
Q 4154 141 4182 141 
Q 4211 141 4301 102 
Q 4621 -64 5024 -192 
L 5024 -122 
L 5075 2995 
L 3181 2893 
Q 3136 2886 3091 2886 
L 3021 2886 
Q 2906 2886 2848 2938 
Q 2835 2957 2758 3069 
Q 2682 3181 2682 3219 
Q 2682 3258 2694 3258 
Q 2854 3213 3021 3213 
L 3059 3213 
L 5171 3315 
L 5235 3315 
Q 5357 3315 5417 3248 
Q 5478 3181 5478 3136 
L 5446 2989 
L 5395 -102 
z
M 4118 5209 
Q 4211 5165 4291 5101 
Q 4371 5037 4371 4963 
Q 4371 4890 4102 4486 
L 5331 4576 
Q 5478 4589 5536 4608 
Q 5594 4627 5629 4627 
Q 5664 4627 5734 4588 
Q 5805 4550 5865 4489 
Q 5926 4429 5926 4378 
Q 5926 4288 5798 4275 
L 4602 4198 
Q 5114 3776 5114 3657 
Q 5114 3539 4960 3456 
Q 4909 3424 4873 3424 
Q 4838 3424 4700 3606 
Q 4563 3789 4346 3974 
Q 4301 4019 4301 4060 
Q 4301 4102 4371 4186 
L 3859 4154 
Q 3558 3757 3226 3488 
Q 3091 3379 3040 3379 
Q 2989 3379 2989 3418 
Q 2989 3475 3066 3571 
Q 3590 4205 3814 4762 
Q 3917 5011 3917 5139 
L 3917 5158 
Q 3917 5254 3987 5254 
Q 4026 5254 4118 5209 
z
M 1997 4992 
Q 2067 4934 2067 4870 
Q 2067 4806 1862 4467 
L 2867 4531 
Q 2995 4544 3078 4569 
Q 3162 4595 3210 4595 
Q 3258 4595 3328 4537 
Q 3398 4480 3443 4413 
Q 3488 4346 3488 4320 
Q 3488 4250 3347 4237 
L 2221 4166 
Q 2253 4147 2509 3920 
Q 2765 3693 2765 3590 
Q 2765 3546 2694 3475 
Q 2586 3386 2538 3386 
Q 2490 3386 2406 3488 
Q 2214 3731 2010 3923 
Q 1946 3987 1946 4038 
Q 1946 4090 2035 4160 
L 1645 4134 
Q 1350 3731 960 3369 
Q 570 3008 461 3008 
Q 416 3008 416 3059 
Q 416 3110 538 3251 
Q 845 3584 1225 4169 
Q 1606 4755 1606 4966 
Q 1606 5018 1600 5037 
L 1600 5069 
Q 1600 5146 1702 5146 
Q 1805 5146 1997 4992 
z
M 3782 1286 
L 2605 1222 
L 2643 685 
L 3731 736 
L 3782 1286 
z
M 3853 2112 
L 2554 2042 
L 2586 1517 
L 3808 1574 
L 3853 2112 
z
M 4077 774 
Q 4262 621 4262 550 
Q 4262 454 4115 435 
L 2662 371 
L 2682 109 
L 2682 77 
Q 2682 -6 2602 -6 
Q 2522 -6 2397 54 
Q 2272 115 2272 218 
L 2272 250 
Q 2291 403 2291 544 
L 2195 1997 
Q 2176 2202 2134 2294 
Q 2093 2387 2093 2419 
Q 2093 2470 2179 2470 
Q 2266 2470 2586 2342 
L 3878 2419 
L 3923 2419 
Q 4026 2419 4144 2358 
Q 4262 2298 4262 2189 
Q 4262 2144 4243 2105 
Q 4224 2067 4218 2029 
L 4077 774 
z
M 2141 3209 
Q 2266 3117 2349 3040 
Q 2432 2963 2432 2915 
Q 2432 2867 2352 2787 
Q 2272 2707 2217 2707 
Q 2163 2707 2035 2835 
Q 1907 2963 1466 3283 
Q 1382 3347 1382 3395 
Q 1382 3443 1436 3510 
Q 1491 3578 1536 3578 
Q 1581 3578 1673 3523 
Q 1766 3469 1891 3385 
Q 2016 3302 2141 3209 
z
" transform="scale(0.015625)"/>
     </defs>
     <use xlink:href="#LXGWWenKai-Regular-2462"/>
     <use xlink:href="#LXGWWenKai-Regular-20" transform="translate(99.999985 0)"/>
     <use xlink:href="#LXGWWenKai-Regular-5217" transform="translate(134.999969 0)"/>
     <use xlink:href="#LXGWWenKai-Regular-65b9" transform="translate(234.999954 0)"/>
     <use xlink:href="#LXGWWenKai-Regular-7a0b" transform="translate(334.999939 0)"/>
     <use xlink:href="#LXGWWenKai-Regular-5e76" transform="translate(434.999924 0)"/>
     <use xlink:href="#LXGWWenKai-Regular-5316" transform="translate(534.999908 0)"/>
     <use xlink:href="#LXGWWenKai-Regular-7b80" transform="translate(634.999893 0)"/>
    </g>
   </g>
   <g id="text_4">
    <!-- ④ 检验等价性 -->
    <g style="fill: #5d4e37" transform="translate(787.575 155.8125) scale(0.15 -0.15)">
     <defs>
      <path id="LXGWWenKai-Regular-2463" d="M 2067 1299 
L 1837 1261 
Q 1754 1261 1677 1334 
Q 1600 1408 1600 1481 
Q 1600 1555 1638 1613 
L 1818 1856 
Q 2701 3040 2973 3494 
Q 3245 3949 3334 4198 
Q 3354 4237 3405 4237 
Q 3456 4237 3552 4141 
Q 3648 4045 3648 3981 
Q 3648 3917 3635 3904 
Q 3437 3610 3101 3110 
Q 2765 2611 2035 1613 
L 3494 1670 
L 3494 2714 
L 3475 3270 
Q 3475 3322 3571 3322 
Q 3667 3322 3763 3283 
Q 3859 3245 3859 3174 
L 3853 2714 
L 3853 1690 
L 4019 1696 
L 4403 1722 
Q 4474 1722 4522 1626 
Q 4570 1530 4570 1450 
Q 4570 1370 4512 1370 
L 4026 1382 
L 3853 1376 
L 3853 1082 
L 3872 544 
Q 3872 486 3776 486 
Q 3680 486 3581 528 
Q 3482 570 3482 634 
L 3494 1094 
L 3494 1357 
L 2067 1299 
z
M 5744 1280 
Q 5958 1779 5958 2348 
Q 5958 2918 5744 3417 
Q 5530 3917 5149 4297 
Q 4768 4678 4269 4892 
Q 3770 5107 3200 5107 
Q 2630 5107 2131 4892 
Q 1632 4678 1251 4297 
Q 870 3917 656 3417 
Q 442 2918 442 2348 
Q 442 1779 656 1280 
Q 870 781 1251 403 
Q 1632 26 2131 -188 
Q 2630 -403 3200 -403 
Q 3770 -403 4269 -188 
Q 4768 26 5149 403 
Q 5530 781 5744 1280 
z
M 6032 3539 
Q 6272 2982 6272 2348 
Q 6272 1715 6032 1158 
Q 5792 602 5369 179 
Q 4947 -243 4390 -480 
Q 3834 -717 3200 -717 
Q 2566 -717 2009 -480 
Q 1453 -243 1030 179 
Q 608 602 368 1158 
Q 128 1715 128 2348 
Q 128 2982 368 3539 
Q 608 4096 1030 4518 
Q 1453 4941 2009 5181 
Q 2566 5421 3200 5421 
Q 3834 5421 4390 5181 
Q 4947 4941 5369 4518 
Q 5792 4096 6032 3539 
z
" transform="scale(0.015625)"/>
      <path id="LXGWWenKai-Regular-68c0" d="M 4112 5094 
Q 4218 5043 4310 4969 
Q 4403 4896 4403 4841 
Q 4403 4787 4288 4576 
Q 4864 3898 5453 3411 
Q 5766 3155 6131 2893 
Q 6202 2835 6202 2803 
Q 6202 2771 6099 2646 
Q 5997 2522 5910 2522 
Q 5824 2522 5283 3021 
Q 4742 3520 4102 4262 
Q 3782 3757 3366 3270 
L 3296 3194 
Q 2861 2771 2451 2483 
Q 2330 2406 2275 2406 
Q 2221 2406 2221 2460 
Q 2221 2515 2323 2618 
Q 3008 3277 3462 4019 
Q 3917 4762 3917 4986 
L 3917 5024 
L 3910 5069 
Q 3910 5146 3968 5146 
Q 4006 5146 4112 5094 
z
M 3616 2586 
L 3482 2579 
Q 3398 2579 3321 2624 
Q 3245 2669 3181 2886 
Q 3181 2957 3277 2944 
L 3488 2918 
L 3539 2918 
L 4525 2982 
Q 4653 3002 4681 3018 
Q 4710 3034 4768 3034 
Q 4826 3034 4902 2982 
Q 5075 2874 5075 2758 
Q 5075 2675 4896 2662 
L 3616 2586 
z
M 4429 1069 
Q 4410 1018 4301 966 
Q 4077 864 4038 1050 
Q 3878 1690 3680 2067 
Q 3642 2131 3654 2160 
Q 3667 2189 3750 2246 
Q 3834 2304 3910 2278 
Q 4019 2240 4314 1536 
Q 4461 1171 4429 1069 
z
M 3542 870 
Q 3597 736 3590 688 
Q 3584 640 3485 573 
Q 3386 506 3341 506 
L 3283 506 
Q 3213 525 3174 634 
Q 3014 1120 2726 1632 
Q 2701 1683 2707 1715 
Q 2714 1766 2816 1824 
Q 2918 1882 2966 1872 
Q 3014 1862 3094 1744 
Q 3174 1626 3270 1453 
Q 3366 1280 3427 1142 
Q 3488 1005 3542 870 
z
M 384 3424 
Q 512 3398 602 3398 
L 1338 3450 
L 1350 4685 
Q 1350 4813 1302 4889 
Q 1254 4966 1254 4992 
Q 1254 5043 1328 5043 
Q 1402 5043 1533 4992 
Q 1664 4941 1696 4905 
Q 1728 4870 1728 4800 
L 1715 3475 
L 2010 3494 
Q 2131 3507 2188 3529 
Q 2246 3552 2288 3552 
Q 2330 3552 2458 3462 
Q 2586 3373 2586 3289 
Q 2586 3206 2451 3194 
L 1709 3136 
L 1702 2637 
Q 1754 2682 1805 2682 
Q 1914 2682 2192 2310 
Q 2470 1939 2470 1875 
Q 2470 1811 2384 1734 
Q 2298 1658 2243 1658 
Q 2189 1658 2163 1690 
Q 2138 1722 2106 1773 
Q 1914 2125 1696 2394 
L 1664 -461 
Q 1664 -608 1555 -608 
Q 1434 -608 1341 -505 
Q 1248 -403 1248 -358 
Q 1248 -314 1277 -202 
Q 1306 -90 1306 83 
L 1312 256 
L 1312 685 
L 1318 1754 
Q 1318 1920 1338 2189 
L 1344 2278 
Q 1165 1664 742 1088 
Q 570 851 435 710 
Q 301 570 259 570 
Q 218 570 218 621 
Q 218 672 384 973 
Q 973 2010 1306 3110 
L 838 3072 
Q 736 3059 633 3059 
Q 531 3059 464 3139 
Q 397 3219 368 3299 
Q 339 3379 339 3386 
Q 339 3424 384 3424 
z
M 4691 192 
L 5440 218 
Q 5562 218 5642 243 
Q 5722 269 5763 269 
Q 5805 269 5885 208 
Q 5965 147 6025 70 
Q 6086 -6 6086 -51 
Q 6086 -128 5939 -141 
L 2726 -243 
Q 2605 -256 2525 -256 
Q 2445 -256 2371 -179 
Q 2298 -102 2253 -12 
Q 2208 77 2208 118 
Q 2208 160 2243 160 
Q 2278 160 2352 141 
Q 2426 122 2554 122 
L 2605 122 
L 4019 166 
L 4307 179 
L 4390 179 
Q 4858 960 5062 1722 
Q 5101 1862 5056 2003 
Q 5037 2061 5094 2086 
Q 5242 2131 5446 1984 
Q 5549 1894 5539 1859 
Q 5530 1824 5523 1786 
Q 5261 883 4691 192 
z
" transform="scale(0.015625)"/>
      <path id="LXGWWenKai-Regular-9a8c" d="M 5549 1760 
Q 5222 851 4576 179 
L 5536 218 
Q 5626 218 5696 243 
Q 5766 269 5817 269 
Q 5869 269 5997 150 
Q 6125 32 6125 -48 
Q 6125 -128 5971 -141 
L 3194 -243 
Q 3085 -256 3005 -256 
Q 2925 -256 2854 -173 
Q 2784 -90 2749 -3 
Q 2714 83 2714 121 
Q 2714 160 2765 160 
Q 2816 160 2880 141 
Q 2944 122 3040 122 
L 3085 122 
L 4282 166 
Q 4832 941 5107 1734 
Q 5146 1824 5146 1894 
Q 5146 1965 5136 2025 
Q 5126 2086 5190 2106 
Q 5338 2138 5504 1952 
Q 5581 1862 5568 1827 
Q 5555 1792 5549 1760 
z
M 3827 838 
Q 3872 704 3869 662 
Q 3866 621 3770 550 
Q 3674 480 3629 480 
L 3578 480 
Q 3501 499 3462 608 
Q 3328 1094 3078 1606 
Q 3066 1658 3066 1696 
Q 3066 1734 3162 1798 
Q 3258 1862 3309 1846 
Q 3360 1830 3433 1712 
Q 3507 1594 3587 1421 
Q 3667 1248 3724 1110 
Q 3782 973 3827 838 
z
M 4582 1082 
Q 4563 1037 4454 979 
Q 4250 870 4192 1062 
Q 4058 1709 3885 2086 
Q 3866 2144 3872 2169 
Q 3878 2195 3955 2259 
Q 4032 2323 4115 2291 
Q 4230 2246 4416 1715 
Q 4602 1184 4582 1082 
z
M 3776 2630 
L 3642 2624 
Q 3558 2624 3488 2669 
Q 3418 2714 3354 2931 
Q 3354 3002 3443 2989 
L 3648 2963 
L 3699 2963 
L 4653 3027 
Q 4768 3046 4797 3062 
Q 4826 3078 4880 3078 
Q 4934 3078 5011 3027 
Q 5178 2918 5178 2803 
Q 5178 2720 5005 2707 
L 3776 2630 
z
M 934 4320 
Q 685 4320 602 4646 
L 602 4678 
Q 602 4717 650 4717 
Q 698 4717 762 4701 
Q 826 4685 954 4685 
L 998 4685 
L 2336 4794 
Q 2432 4794 2521 4726 
Q 2611 4659 2608 4614 
Q 2605 4570 2592 4538 
Q 2579 4506 2573 4474 
L 2208 2214 
L 2490 2227 
L 2541 2227 
Q 2650 2227 2730 2156 
Q 2810 2086 2810 2028 
Q 2810 1971 2797 1932 
Q 2784 1894 2778 1862 
Q 2682 435 2483 -224 
Q 2445 -346 2342 -419 
Q 2240 -493 2163 -493 
Q 2010 -493 1670 -166 
Q 1318 147 1318 237 
Q 1318 282 1388 282 
Q 1459 282 1664 163 
Q 1869 45 1993 3 
Q 2118 -38 2124 -38 
Q 2131 -38 2131 0 
Q 2323 685 2387 1907 
L 1082 1805 
Q 1024 1805 985 1785 
Q 947 1766 880 1772 
Q 813 1779 723 1856 
Q 634 1933 646 2016 
Q 646 2029 652 2048 
Q 659 2067 691 2172 
Q 723 2278 771 2585 
Q 819 2893 864 3165 
Q 909 3437 928 3578 
L 934 3642 
Q 947 3725 947 3802 
L 915 4000 
Q 922 4051 998 4045 
L 1005 4045 
L 1005 4038 
L 1024 4038 
Q 1370 3878 1357 3706 
L 1357 3674 
Q 1299 3392 1228 2941 
Q 1158 2490 1088 2163 
L 1101 2157 
L 1786 2189 
L 2144 4416 
L 1050 4326 
Q 1018 4320 986 4320 
L 934 4320 
z
M 4249 5094 
Q 4352 5043 4441 4969 
Q 4531 4896 4531 4845 
Q 4531 4794 4422 4576 
Q 4979 3898 5549 3411 
Q 5850 3155 6195 2893 
Q 6266 2835 6266 2803 
Q 6266 2771 6163 2646 
Q 6061 2522 5977 2522 
Q 5894 2522 5366 3030 
Q 4838 3539 4237 4262 
Q 3949 3770 3533 3270 
L 3462 3194 
Q 3027 2752 2650 2483 
Q 2534 2406 2480 2406 
Q 2426 2406 2426 2460 
Q 2426 2515 2528 2618 
Q 3181 3277 3622 4019 
Q 4064 4762 4064 4986 
L 4064 5024 
L 4058 5069 
Q 4058 5146 4115 5146 
Q 4147 5146 4249 5094 
z
M 403 960 
Q 730 960 1978 1568 
Q 2054 1613 2108 1613 
Q 2163 1613 2163 1562 
Q 2163 1478 1820 1216 
Q 1478 954 1072 720 
Q 666 486 589 486 
Q 512 486 461 525 
Q 294 685 243 877 
Q 237 890 237 928 
Q 237 966 269 966 
L 275 966 
Q 307 960 339 960 
L 403 960 
z
" transform="scale(0.015625)"/>
      <path id="LXGWWenKai-Regular-7b49" d="M 4365 4032 
Q 4250 4147 4250 4185 
Q 4250 4224 4294 4282 
L 3789 4243 
Q 3590 4026 3408 3875 
Q 3226 3725 3162 3725 
Q 3098 3725 3098 3763 
Q 3098 3814 3174 3910 
Q 3539 4339 3699 4668 
Q 3859 4998 3859 5114 
L 3859 5139 
Q 3859 5222 3910 5222 
Q 3962 5222 4045 5178 
Q 4275 5062 4275 4947 
Q 4275 4909 4250 4870 
L 4045 4563 
L 5216 4653 
Q 5350 4666 5417 4688 
Q 5485 4710 5523 4710 
Q 5562 4710 5632 4662 
Q 5702 4614 5750 4553 
Q 5798 4493 5798 4454 
Q 5798 4384 5664 4371 
L 4525 4294 
L 4640 4211 
Q 5107 3859 5107 3750 
Q 5107 3718 5040 3622 
Q 4973 3526 4918 3526 
Q 4864 3526 4787 3610 
Q 4493 3930 4365 4032 
z
M 2096 4954 
Q 2163 4890 2163 4845 
Q 2163 4800 1914 4474 
L 2778 4538 
Q 2918 4550 2995 4576 
Q 3072 4602 3110 4602 
Q 3149 4602 3267 4515 
Q 3386 4429 3386 4339 
Q 3386 4269 3245 4256 
L 2163 4186 
Q 2387 4038 2528 3904 
Q 2669 3770 2669 3734 
Q 2669 3699 2608 3606 
Q 2547 3514 2480 3514 
Q 2413 3514 2355 3584 
Q 2170 3795 2022 3910 
Q 1875 4026 1875 4067 
Q 1875 4109 1914 4166 
L 1664 4147 
Q 1216 3642 698 3283 
Q 608 3213 557 3213 
Q 506 3213 506 3251 
Q 506 3309 602 3405 
Q 1242 4058 1670 4787 
Q 1741 4896 1741 5024 
L 1741 5050 
Q 1741 5126 1798 5126 
Q 1856 5126 1942 5072 
Q 2029 5018 2096 4954 
z
M 2944 3661 
Q 3392 3661 3392 3437 
L 3392 3238 
L 4192 3283 
Q 4397 3296 4457 3315 
Q 4518 3334 4547 3334 
Q 4576 3334 4646 3290 
Q 4832 3174 4832 3059 
Q 4832 2995 4717 2982 
L 3392 2925 
L 3386 2426 
L 5395 2522 
Q 5600 2534 5661 2553 
Q 5722 2573 5750 2573 
Q 5779 2573 5850 2528 
Q 6035 2413 6035 2298 
Q 6035 2227 5920 2214 
L 934 1978 
L 858 1978 
Q 762 1978 650 2016 
Q 538 2054 480 2278 
Q 474 2291 474 2313 
Q 474 2336 512 2336 
L 531 2336 
Q 640 2304 787 2304 
L 883 2304 
L 2995 2406 
L 2989 2899 
L 2054 2854 
L 1978 2854 
Q 1856 2854 1750 2908 
Q 1645 2963 1600 3142 
Q 1594 3155 1594 3177 
Q 1594 3200 1632 3200 
L 1651 3200 
Q 1760 3168 1907 3168 
L 2003 3168 
L 2989 3219 
L 2989 3283 
Q 2989 3437 2934 3513 
Q 2880 3590 2880 3625 
Q 2880 3661 2944 3661 
z
M 4166 -96 
L 4186 -346 
Q 4186 -512 4080 -582 
Q 3974 -653 3907 -653 
Q 3840 -653 3603 -563 
Q 3366 -474 3033 -282 
Q 2701 -90 2701 0 
Q 2701 38 2761 38 
Q 2822 38 3094 -38 
Q 3366 -115 3757 -173 
L 3750 1133 
L 1414 1030 
Q 1370 1024 1338 1024 
L 1229 1024 
Q 1146 1024 1091 1072 
Q 1037 1120 1024 1126 
Q 934 1190 890 1318 
Q 883 1331 883 1360 
Q 883 1389 908 1389 
Q 934 1389 998 1369 
Q 1062 1350 1216 1350 
L 1286 1350 
L 3750 1472 
L 3750 1549 
Q 3750 1728 3686 1827 
Q 3622 1926 3622 1952 
Q 3622 1997 3699 1997 
Q 3776 1997 3926 1961 
Q 4077 1926 4118 1878 
Q 4160 1830 4160 1760 
L 4160 1491 
L 4755 1523 
Q 4915 1536 5014 1568 
Q 5114 1600 5165 1600 
Q 5216 1600 5296 1539 
Q 5376 1478 5440 1404 
Q 5504 1331 5504 1286 
Q 5504 1242 5449 1229 
Q 5395 1216 5325 1210 
L 4160 1152 
L 4166 -96 
z
M 2918 435 
Q 2918 390 2851 291 
Q 2784 192 2726 192 
Q 2669 192 2598 243 
Q 2278 480 1926 678 
Q 1862 710 1862 768 
Q 1862 826 1913 896 
Q 1965 966 2035 966 
Q 2106 966 2512 748 
Q 2918 531 2918 435 
z
" transform="scale(0.015625)"/>
      <path id="LXGWWenKai-Regular-4ef7" d="M 3795 5139 
Q 3795 5242 3866 5242 
Q 3910 5242 4006 5190 
Q 4262 5050 4262 4902 
Q 4262 4890 4230 4816 
Q 4198 4742 4163 4659 
Q 4128 4576 4102 4538 
Q 4557 4000 5104 3536 
Q 5651 3072 6214 2656 
Q 6298 2592 6298 2553 
Q 6298 2515 6230 2457 
Q 6163 2400 6083 2352 
Q 6003 2304 5971 2304 
Q 5939 2304 5747 2441 
Q 5555 2579 5261 2835 
Q 4538 3462 3910 4218 
Q 3149 3098 2496 2528 
Q 2246 2310 2105 2233 
Q 1965 2157 1936 2157 
Q 1907 2157 1907 2208 
Q 1907 2259 2016 2387 
Q 3104 3610 3590 4550 
Q 3795 4947 3795 5094 
L 3795 5139 
z
M 1453 3821 
Q 1670 4230 1792 4524 
Q 1914 4819 1914 4899 
Q 1914 4979 1901 5030 
L 1901 5056 
Q 1901 5120 1974 5120 
Q 2048 5120 2150 5075 
Q 2400 4960 2400 4848 
Q 2400 4736 2118 4201 
Q 1837 3667 1696 3443 
L 1696 -352 
Q 1696 -499 1562 -499 
Q 1453 -499 1341 -400 
Q 1229 -301 1229 -237 
Q 1229 -173 1251 -64 
Q 1274 45 1274 224 
L 1299 2899 
Q 870 2317 604 2077 
Q 339 1837 278 1837 
Q 218 1837 218 1875 
Q 218 1939 301 2048 
Q 954 2886 1453 3821 
z
M 4499 2586 
Q 4499 2733 4390 2867 
Q 4358 2912 4358 2931 
Q 4358 2982 4460 2982 
Q 4563 2982 4700 2931 
Q 4838 2880 4876 2838 
Q 4915 2797 4915 2714 
L 4922 -474 
Q 4922 -640 4800 -640 
Q 4749 -640 4662 -595 
Q 4576 -550 4512 -476 
Q 4448 -403 4448 -358 
L 4448 -294 
Q 4448 -275 4473 -160 
Q 4499 -45 4499 122 
L 4499 2586 
z
M 3507 2298 
Q 3507 1472 3388 1017 
Q 3270 563 3059 278 
Q 2848 -6 2617 -182 
Q 2387 -358 2214 -441 
Q 2042 -525 2006 -525 
Q 1971 -525 1971 -483 
Q 1971 -442 2093 -320 
Q 2739 282 2931 922 
Q 3085 1427 3085 2246 
L 3085 2451 
Q 3085 2605 3030 2688 
Q 2976 2771 2976 2816 
Q 2976 2861 3059 2861 
L 3123 2848 
Q 3507 2778 3507 2624 
L 3507 2298 
z
" transform="scale(0.015625)"/>
      <path id="LXGWWenKai-Regular-6027" d="M 1274 4742 
Q 1274 4902 1219 4972 
Q 1165 5043 1165 5075 
Q 1165 5126 1248 5126 
Q 1267 5126 1370 5107 
Q 1677 5037 1677 4909 
L 1658 -512 
Q 1658 -640 1568 -640 
L 1472 -614 
Q 1184 -538 1184 -365 
Q 1184 -320 1213 -185 
Q 1242 -51 1242 128 
L 1274 4742 
z
M 6240 0 
Q 6240 -83 6086 -83 
L 2630 -154 
L 2522 -154 
Q 2323 -154 2246 -61 
Q 2170 32 2141 131 
Q 2112 230 2112 252 
Q 2112 275 2134 275 
Q 2157 275 2253 243 
Q 2349 211 2502 211 
L 3962 243 
L 3981 1562 
L 3258 1530 
Q 3149 1530 3056 1581 
Q 2963 1632 2893 1850 
Q 2880 1869 2880 1894 
Q 2880 1920 2902 1920 
Q 2925 1920 2973 1901 
Q 3021 1882 3181 1882 
L 3264 1882 
L 3981 1920 
L 3994 3027 
L 3098 2976 
Q 2848 2458 2534 2086 
Q 2400 1926 2352 1926 
Q 2304 1926 2304 1980 
Q 2304 2035 2355 2138 
Q 2714 2810 2880 3482 
Q 2957 3763 2957 3904 
L 2931 4102 
Q 2931 4160 2988 4160 
Q 3046 4160 3155 4109 
Q 3450 3955 3450 3834 
Q 3450 3814 3443 3802 
L 3264 3347 
L 4000 3386 
L 4013 4608 
Q 4013 4781 3968 4864 
Q 3923 4947 3923 4969 
Q 3923 4992 3993 4992 
Q 4064 4992 4205 4941 
Q 4346 4890 4381 4848 
Q 4416 4806 4416 4717 
L 4397 3411 
L 5126 3450 
Q 5261 3456 5318 3481 
Q 5376 3507 5421 3507 
Q 5466 3507 5549 3452 
Q 5632 3398 5696 3324 
Q 5760 3251 5760 3200 
Q 5760 3130 5619 3110 
L 4397 3046 
L 4384 1939 
L 4890 1965 
Q 5107 1978 5158 2000 
Q 5210 2022 5254 2022 
Q 5299 2022 5376 1971 
Q 5581 1830 5581 1709 
Q 5581 1632 5427 1619 
L 4378 1574 
L 4358 256 
L 5542 282 
Q 5722 282 5795 304 
Q 5869 326 5904 326 
Q 5939 326 6022 272 
Q 6106 218 6173 141 
Q 6240 64 6240 0 
z
M 1811 3789 
Q 1811 3878 2029 3930 
Q 2112 3930 2237 3632 
Q 2362 3334 2438 3088 
Q 2515 2842 2515 2806 
Q 2515 2771 2435 2720 
Q 2355 2669 2256 2669 
Q 2157 2669 2125 2784 
Q 2029 3238 1837 3693 
Q 1830 3725 1820 3747 
Q 1811 3770 1811 3789 
z
M 730 3789 
L 794 3782 
Q 896 3770 928 3734 
Q 960 3699 960 3629 
L 960 3603 
Q 922 2867 730 2067 
Q 698 1952 595 1952 
Q 493 1952 406 2006 
Q 320 2061 320 2105 
Q 320 2150 384 2349 
Q 538 2854 595 3642 
Q 602 3789 730 3789 
z
" transform="scale(0.015625)"/>
     </defs>
     <use xlink:href="#LXGWWenKai-Regular-2463"/>
     <use xlink:href="#LXGWWenKai-Regular-20" transform="translate(99.999985 0)"/>
     <use xlink:href="#LXGWWenKai-Regular-68c0" transform="translate(134.999969 0)"/>
     <use xlink:href="#LXGWWenKai-Regular-9a8c" transform="translate(234.999954 0)"/>
     <use xlink:href="#LXGWWenKai-Regular-7b49" transform="translate(334.999939 0)"/>
     <use xlink:href="#LXGWWenKai-Regular-4ef7" transform="translate(434.999924 0)"/>
     <use xlink:href="#LXGWWenKai-Regular-6027" transform="translate(534.999908 0)"/>
    </g>
   </g>
   <g id="text_5">
    <!-- ★ 攻略第一步：关键环节 -->
    <g style="fill: #e8837c" transform="translate(124.775 223.2) scale(0.11 -0.11)">
     <defs>
      <path id="LXGWWenKai-Regular-2605" d="M 3200 800 
L 1331 -595 
L 2010 1690 
L 77 3072 
L 2464 3072 
L 3200 5338 
L 3936 3072 
L 6323 3072 
L 4390 1690 
L 5075 -595 
L 3200 800 
z
" transform="scale(0.015625)"/>
      <path id="LXGWWenKai-Regular-653b" d="M 5222 3341 
Q 4941 2362 4397 1472 
Q 5094 582 6202 -166 
Q 6266 -211 6266 -249 
Q 6266 -288 6195 -352 
Q 6022 -518 5910 -518 
Q 5798 -518 5382 -141 
Q 4621 563 4173 1139 
Q 4134 1094 4096 1040 
Q 4058 986 4019 941 
Q 3437 269 2797 -121 
Q 2157 -512 2010 -512 
Q 1958 -512 1958 -461 
Q 1958 -410 2106 -307 
Q 2746 147 3162 579 
Q 3578 1011 3917 1491 
Q 3469 2138 3174 2822 
Q 2880 2355 2627 2124 
Q 2374 1894 2332 1894 
Q 2291 1894 2291 1942 
Q 2291 1990 2381 2131 
Q 2938 2963 3306 3878 
Q 3674 4794 3674 5018 
L 3674 5069 
Q 3674 5101 3667 5126 
L 3667 5139 
Q 3667 5190 3724 5190 
Q 3782 5190 3878 5133 
Q 4147 4966 4147 4838 
Q 4147 4781 3958 4336 
Q 3770 3891 3629 3610 
L 5325 3712 
Q 5434 3718 5533 3756 
Q 5632 3795 5673 3795 
Q 5715 3795 5804 3731 
Q 5894 3667 5964 3590 
Q 6035 3514 6035 3469 
Q 6035 3392 5869 3379 
L 5222 3341 
z
M 416 3680 
Q 608 3642 685 3642 
L 755 3642 
L 2221 3763 
Q 2362 3776 2419 3795 
Q 2477 3814 2515 3814 
Q 2554 3814 2624 3763 
Q 2816 3622 2816 3520 
Q 2816 3456 2675 3437 
L 1766 3366 
L 1773 1363 
Q 1990 1453 2384 1638 
Q 2778 1824 2842 1824 
Q 2906 1824 2906 1779 
Q 2906 1715 2758 1616 
Q 2611 1517 2220 1270 
Q 1830 1024 1260 723 
Q 691 422 563 422 
Q 435 422 307 585 
Q 179 749 179 794 
Q 179 826 224 826 
Q 589 858 1376 1190 
L 1370 3334 
L 922 3302 
Q 819 3290 742 3290 
Q 666 3290 566 3334 
Q 467 3379 390 3610 
Q 384 3622 384 3642 
Q 384 3680 416 3680 
z
M 3430 3238 
L 3411 3206 
Q 3731 2432 4134 1837 
Q 4518 2483 4755 3315 
L 3430 3238 
z
" transform="scale(0.015625)"/>
      <path id="LXGWWenKai-Regular-7565" d="M 5216 1530 
L 5280 1536 
Q 5376 1536 5472 1449 
Q 5568 1363 5568 1312 
Q 5568 1261 5545 1229 
Q 5523 1197 5517 1171 
L 5382 70 
Q 5549 -154 5549 -205 
Q 5549 -256 5494 -262 
Q 5440 -269 5350 -275 
L 3757 -333 
L 3763 -448 
L 3763 -474 
Q 3763 -602 3661 -602 
Q 3597 -602 3481 -547 
Q 3366 -493 3366 -371 
L 3366 -314 
L 3373 -160 
Q 3373 -64 3360 64 
L 3264 1120 
Q 3258 1248 3187 1389 
Q 3091 1318 2742 1107 
Q 2394 896 2307 896 
Q 2221 896 2221 928 
Q 2221 986 2387 1114 
Q 3469 1882 4128 2688 
Q 3981 2867 3811 3056 
Q 3642 3245 3501 3443 
Q 3104 2899 2790 2707 
Q 2682 2637 2662 2637 
Q 2643 2637 2643 2681 
Q 2643 2726 2825 2963 
Q 3008 3200 3331 3769 
Q 3654 4339 3872 4960 
Q 3898 5024 3898 5145 
Q 3898 5267 3962 5267 
Q 4026 5267 4179 5171 
Q 4346 5088 4346 4992 
Q 4346 4947 4198 4652 
Q 4051 4358 4045 4352 
L 5210 4448 
Q 5242 4454 5261 4454 
L 5325 4454 
Q 5370 4454 5472 4377 
Q 5574 4301 5574 4227 
Q 5574 4154 5532 4115 
Q 5491 4077 5478 4051 
Q 5152 3360 4627 2694 
Q 5414 1952 6214 1600 
Q 6330 1555 6330 1504 
Q 6330 1472 6253 1395 
Q 6048 1229 5984 1229 
Q 5978 1229 5754 1357 
Q 5120 1709 4390 2426 
Q 4166 2170 3894 1942 
Q 3622 1715 3360 1510 
L 3635 1427 
L 5216 1530 
z
M 2502 1645 
Q 2669 1453 2669 1401 
Q 2669 1350 2627 1340 
Q 2586 1331 2515 1325 
L 1018 1248 
L 1030 973 
L 1030 941 
Q 1030 806 953 806 
Q 877 806 765 889 
Q 653 973 653 1062 
Q 653 1082 653 1101 
L 678 1395 
L 678 1491 
L 614 3699 
Q 608 3917 569 4013 
Q 531 4109 531 4150 
Q 531 4192 595 4192 
Q 659 4192 947 4096 
L 2387 4198 
L 2451 4205 
Q 2528 4205 2617 4137 
Q 2707 4070 2707 4019 
Q 2707 3968 2691 3939 
Q 2675 3910 2669 3872 
L 2502 1645 
z
M 3859 3994 
L 3699 3731 
Q 3878 3475 4352 2970 
Q 4717 3443 5011 4083 
L 3859 3994 
z
M 2291 3866 
L 1786 3834 
L 1779 2918 
L 2234 2950 
L 2291 3866 
z
M 1453 3808 
L 947 3776 
L 986 2874 
L 1446 2899 
L 1453 3808 
z
M 2214 2637 
L 1773 2611 
L 1766 1613 
L 2170 1638 
L 2214 2637 
z
M 1446 2598 
L 998 2579 
L 1005 1568 
L 1440 1594 
L 1446 2598 
z
M 5107 1184 
L 3648 1094 
L 3731 19 
L 5018 77 
L 5107 1184 
z
" transform="scale(0.015625)"/>
      <path id="LXGWWenKai-Regular-7b2c" d="M 3904 5069 
L 3910 5146 
Q 3923 5248 3984 5248 
Q 4045 5248 4131 5190 
Q 4218 5133 4288 5062 
Q 4358 4992 4358 4947 
Q 4358 4902 4333 4870 
L 4147 4576 
L 5325 4666 
Q 5485 4685 5542 4704 
Q 5600 4723 5629 4723 
Q 5658 4723 5728 4685 
Q 5920 4570 5920 4454 
Q 5920 4384 5786 4371 
L 4550 4288 
Q 5114 3923 5114 3821 
Q 5114 3776 5046 3683 
Q 4979 3590 4918 3590 
Q 4858 3590 4755 3692 
Q 4653 3795 4397 3987 
Q 4301 4058 4301 4118 
Q 4301 4179 4397 4275 
L 3904 4243 
Q 3590 3866 3258 3616 
Q 3110 3507 3056 3507 
Q 3002 3507 3002 3546 
Q 3002 3603 3162 3779 
Q 3322 3955 3494 4218 
Q 3840 4730 3904 5069 
z
M 1773 5152 
Q 1850 5152 2000 5037 
Q 2150 4922 2150 4858 
Q 2150 4794 1907 4474 
L 2867 4538 
Q 2989 4550 3069 4576 
Q 3149 4602 3197 4602 
Q 3245 4602 3315 4550 
Q 3386 4499 3434 4435 
Q 3482 4371 3482 4339 
Q 3482 4262 3341 4250 
L 2259 4179 
Q 2342 4128 2585 3945 
Q 2829 3763 2829 3693 
Q 2829 3680 2797 3622 
Q 2714 3469 2618 3469 
Q 2579 3469 2428 3613 
Q 2278 3757 2048 3930 
Q 1978 3981 1978 4032 
Q 1978 4083 2061 4166 
L 1651 4141 
Q 1184 3558 736 3258 
Q 563 3142 515 3142 
Q 467 3142 467 3174 
Q 467 3219 557 3328 
Q 1178 3987 1651 4787 
Q 1709 4890 1709 5011 
L 1709 5062 
Q 1709 5152 1773 5152 
z
M 5280 1824 
L 5370 1830 
Q 5440 1830 5529 1763 
Q 5619 1696 5619 1632 
Q 5619 1568 5593 1542 
Q 5568 1517 5562 1485 
Q 5523 1165 5427 761 
Q 5331 358 5305 243 
Q 5280 128 5190 22 
Q 5101 -83 5021 -83 
Q 4941 -83 4720 13 
Q 4499 109 4102 358 
Q 3706 608 3706 717 
Q 3706 749 3766 749 
Q 3827 749 4166 611 
Q 4506 474 4870 384 
L 4890 384 
Q 4922 384 4928 416 
Q 5114 1037 5178 1485 
L 3398 1382 
L 3392 -525 
Q 3392 -666 3277 -666 
Q 3142 -666 3052 -586 
Q 2963 -506 2963 -454 
L 2963 -384 
Q 2963 -365 2979 -310 
Q 2995 -256 2995 -64 
L 2995 38 
L 3008 1133 
Q 2246 371 1363 -64 
Q 998 -243 755 -323 
Q 512 -403 448 -403 
Q 384 -403 384 -378 
Q 384 -314 595 -198 
Q 1843 474 2694 1344 
L 1638 1280 
Q 1555 1274 1507 1258 
Q 1459 1242 1408 1242 
Q 1357 1242 1277 1296 
Q 1197 1350 1197 1414 
Q 1197 1478 1216 1523 
L 1440 2182 
Q 1472 2266 1472 2368 
L 1453 2573 
L 1453 2611 
Q 1453 2682 1504 2682 
Q 1581 2682 1837 2515 
L 3021 2579 
L 3027 3098 
L 1830 3021 
Q 1792 3014 1754 3014 
L 1690 3014 
Q 1542 3014 1465 3091 
Q 1389 3168 1366 3248 
Q 1344 3328 1344 3350 
Q 1344 3373 1376 3373 
L 1645 3347 
L 1715 3347 
L 4794 3539 
L 4851 3539 
Q 5037 3539 5088 3462 
Q 5139 3386 5139 3354 
Q 5139 3322 5107 3283 
Q 5075 3245 5062 3206 
L 4928 2656 
Q 5082 2483 5082 2428 
Q 5082 2374 5027 2368 
Q 4973 2362 4896 2355 
L 3405 2272 
L 3405 1722 
L 5280 1824 
z
M 4672 3206 
L 3411 3123 
L 3405 2598 
L 4557 2662 
L 4672 3206 
z
M 3014 2246 
L 1805 2176 
L 1632 1619 
L 3008 1696 
L 3014 2246 
z
" transform="scale(0.015625)"/>
      <path id="LXGWWenKai-Regular-4e00" d="M 704 2451 
L 5357 2688 
Q 5510 2701 5574 2726 
Q 5638 2752 5676 2752 
Q 5715 2752 5804 2697 
Q 5894 2643 5968 2563 
Q 6042 2483 6042 2419 
Q 6042 2317 5894 2304 
L 947 2048 
Q 896 2042 851 2042 
L 774 2042 
Q 646 2042 582 2086 
Q 474 2176 426 2304 
Q 378 2432 378 2464 
Q 378 2496 400 2496 
Q 422 2496 499 2473 
Q 576 2451 704 2451 
z
" transform="scale(0.015625)"/>
      <path id="LXGWWenKai-Regular-6b65" d="M 845 986 
Q 1267 1434 1529 1824 
Q 1792 2214 1818 2406 
Q 1830 2496 1888 2496 
Q 1926 2496 2016 2435 
Q 2106 2374 2179 2297 
Q 2253 2221 2253 2163 
Q 2253 2138 2227 2099 
Q 1997 1760 1693 1465 
Q 1389 1171 1133 985 
Q 877 800 813 800 
Q 768 800 768 845 
Q 768 909 845 986 
z
M 390 -531 
Q 390 -506 438 -470 
Q 486 -435 582 -416 
Q 1882 -102 2787 422 
Q 3693 947 4160 1481 
Q 4627 2016 4685 2368 
Q 4704 2470 4762 2470 
Q 4845 2470 4998 2326 
Q 5152 2182 5152 2093 
Q 5152 2067 5133 2035 
Q 4486 986 3376 336 
Q 2266 -314 627 -589 
Q 589 -595 531 -595 
Q 390 -595 390 -531 
z
M 3456 2086 
L 3450 1222 
Q 3450 1171 3418 1136 
Q 3386 1101 3328 1101 
Q 3232 1101 3113 1187 
Q 2995 1274 2995 1357 
L 3002 1414 
Q 3034 1722 3040 1939 
L 3040 2176 
L 3046 2682 
Q 3046 2707 3020 2755 
Q 2995 2803 2995 2829 
L 966 2714 
Q 890 2707 774 2707 
Q 653 2707 550 2758 
Q 448 2810 378 3002 
L 365 3053 
Q 365 3098 416 3098 
Q 442 3098 454 3091 
Q 557 3066 717 3066 
L 813 3066 
L 1798 3123 
L 1766 3974 
Q 1760 4083 1734 4160 
Q 1709 4237 1651 4314 
Q 1626 4346 1626 4365 
Q 1626 4397 1690 4397 
Q 1818 4397 1987 4345 
Q 2157 4294 2157 4160 
L 2170 3142 
L 3027 3187 
L 3021 4774 
Q 3021 4954 2944 5069 
Q 2912 5120 2912 5152 
Q 2912 5197 2982 5197 
Q 3034 5197 3200 5146 
Q 3347 5101 3388 5059 
Q 3430 5018 3430 4941 
L 3424 4282 
L 4256 4326 
Q 4397 4339 4512 4390 
Q 4538 4403 4563 4403 
Q 4634 4403 4778 4284 
Q 4922 4166 4922 4096 
Q 4922 4013 4768 4000 
L 3418 3917 
L 3411 3206 
L 5325 3315 
Q 5491 3328 5606 3366 
Q 5645 3379 5664 3379 
Q 5754 3379 5898 3254 
Q 6042 3130 6042 3066 
Q 6042 2995 5882 2982 
L 3213 2842 
Q 3309 2816 3382 2726 
Q 3456 2637 3456 2560 
L 3456 2086 
z
" transform="scale(0.015625)"/>
      <path id="LXGWWenKai-Regular-ff1a" d="M 1574 646 
Q 1709 646 1814 515 
Q 1920 384 1920 253 
Q 1920 122 1840 38 
Q 1760 -45 1606 -45 
Q 1453 -45 1350 86 
Q 1248 218 1248 355 
Q 1248 493 1344 569 
Q 1440 646 1574 646 
z
M 1574 3021 
Q 1709 3021 1814 2889 
Q 1920 2758 1920 2627 
Q 1920 2496 1840 2413 
Q 1760 2330 1606 2330 
Q 1453 2330 1350 2461 
Q 1248 2592 1248 2729 
Q 1248 2867 1344 2944 
Q 1440 3021 1574 3021 
z
" transform="scale(0.015625)"/>
      <path id="LXGWWenKai-Regular-5173" d="M 2854 3865 
Q 2829 3782 2720 3731 
Q 2611 3680 2556 3696 
Q 2502 3712 2374 3981 
Q 2246 4250 1862 4723 
Q 1760 4826 1926 4947 
Q 2029 5018 2083 5002 
Q 2138 4986 2301 4800 
Q 2464 4614 2672 4281 
Q 2880 3949 2854 3865 
z
M 1120 1818 
Q 1005 1818 902 1850 
Q 762 1933 685 2125 
Q 672 2163 672 2176 
Q 672 2234 736 2234 
Q 762 2234 838 2214 
Q 915 2195 1069 2195 
L 1133 2195 
L 2829 2278 
Q 2918 2662 2938 3258 
L 1587 3181 
L 1459 3174 
Q 1286 3174 1229 3232 
Q 1056 3398 1056 3565 
Q 1056 3610 1088 3610 
Q 1126 3610 1206 3584 
Q 1286 3558 1414 3558 
L 1446 3558 
L 3309 3667 
Q 3322 3699 3392 3782 
Q 4045 4730 4026 5030 
Q 4013 5267 4275 5120 
Q 4378 5056 4458 4982 
Q 4538 4909 4544 4864 
Q 4550 4819 4493 4717 
Q 4096 4070 3686 3757 
Q 3565 3686 3546 3680 
L 4634 3744 
Q 4794 3757 4845 3776 
Q 4896 3795 4925 3795 
Q 4954 3795 5024 3731 
Q 5235 3578 5235 3469 
Q 5235 3386 5075 3366 
L 3386 3277 
Q 3360 2701 3270 2298 
L 4954 2374 
Q 5146 2394 5210 2416 
Q 5274 2438 5315 2438 
Q 5357 2438 5446 2381 
Q 5670 2234 5670 2112 
Q 5670 2029 5504 2010 
L 3398 1914 
Q 4122 864 5005 339 
Q 5478 58 6067 -134 
Q 6202 -173 6202 -221 
Q 6202 -269 6138 -346 
Q 5965 -544 5837 -544 
L 5651 -474 
Q 5158 -282 4662 73 
Q 4166 429 3792 809 
Q 3418 1190 3110 1677 
Q 3008 1408 2957 1299 
Q 2528 429 1734 -51 
Q 1139 -416 614 -525 
Q 422 -563 364 -563 
Q 307 -563 307 -506 
Q 307 -435 538 -326 
Q 2330 480 2726 1882 
L 1120 1818 
z
" transform="scale(0.015625)"/>
      <path id="LXGWWenKai-Regular-952e" d="M 1267 5018 
Q 1466 4890 1466 4781 
Q 1466 4672 1280 4275 
L 1542 4288 
Q 1619 4294 1734 4336 
Q 1850 4378 1894 4378 
Q 2010 4378 2099 4259 
Q 2189 4141 2189 4064 
Q 2189 3987 2106 3974 
L 1114 3923 
L 1056 3795 
Q 1018 3738 963 3645 
Q 909 3552 864 3482 
L 787 3360 
Q 442 2810 326 2822 
Q 275 2822 275 2880 
Q 275 2938 384 3130 
Q 653 3584 857 4137 
Q 1062 4691 1062 4928 
L 1062 4998 
Q 1062 5075 1139 5075 
Q 1190 5075 1267 5018 
z
M 3450 3674 
Q 3578 3648 3667 3648 
L 4403 3693 
L 4403 4109 
L 4141 4083 
Q 4115 4077 4096 4077 
L 4045 4077 
Q 3738 4077 3642 4365 
Q 3642 4384 3674 4384 
L 3706 4384 
Q 3859 4365 3930 4365 
L 3962 4365 
L 4410 4403 
L 4410 4749 
Q 4410 4966 4326 5069 
Q 4301 5107 4301 5126 
Q 4301 5171 4400 5171 
Q 4499 5171 4617 5104 
Q 4736 5037 4736 4941 
L 4736 4422 
L 5254 4461 
L 5312 4467 
Q 5414 4467 5484 4380 
Q 5555 4294 5555 4252 
Q 5555 4211 5536 4176 
Q 5517 4141 5510 4096 
L 5478 3770 
L 5696 3827 
Q 5798 3827 5897 3734 
Q 5997 3642 5997 3581 
Q 5997 3520 5875 3507 
L 5453 3482 
L 5414 3034 
Q 5555 2867 5555 2816 
Q 5555 2765 5507 2752 
Q 5459 2739 5389 2733 
L 4730 2688 
L 4730 2285 
L 5050 2304 
Q 5171 2317 5254 2349 
Q 5338 2381 5389 2381 
Q 5440 2381 5513 2329 
Q 5587 2278 5635 2214 
Q 5683 2150 5683 2112 
Q 5683 2042 5555 2029 
L 4730 1984 
L 4730 1581 
L 5318 1606 
Q 5389 1613 5462 1638 
Q 5536 1664 5593 1683 
Q 5651 1702 5686 1702 
Q 5722 1702 5798 1651 
Q 6010 1523 6010 1421 
Q 6010 1350 5888 1338 
L 4730 1280 
L 4730 531 
Q 4730 384 4646 384 
Q 4538 384 4442 451 
Q 4346 518 4346 588 
Q 4346 659 4368 758 
Q 4390 858 4390 1101 
L 4390 1267 
L 3878 1242 
L 3763 1235 
Q 3667 1235 3622 1267 
Q 3475 1350 3430 1472 
Q 3418 1510 3418 1517 
Q 3418 1555 3453 1555 
Q 3488 1555 3536 1542 
Q 3584 1530 3718 1530 
L 4390 1562 
L 4397 1965 
L 4147 1946 
Q 4102 1939 4064 1939 
L 3994 1939 
Q 3840 1939 3795 1978 
Q 3642 2112 3642 2227 
Q 3642 2272 3667 2272 
Q 3693 2272 3741 2256 
Q 3789 2240 3904 2240 
L 4064 2246 
L 4397 2266 
L 4397 2669 
L 4230 2656 
Q 4141 2643 4061 2643 
Q 3981 2643 3881 2697 
Q 3782 2752 3738 2886 
Q 3731 2899 3731 2918 
Q 3731 2957 3770 2957 
Q 3846 2938 3962 2938 
L 4109 2944 
L 4403 2963 
L 4403 3424 
L 3872 3392 
L 3725 3386 
Q 3546 3386 3450 3578 
L 3418 3642 
Q 3418 3674 3450 3674 
z
M 5197 4166 
L 4736 4128 
L 4736 3718 
L 5165 3744 
L 5197 4166 
z
M 2182 877 
L 2176 922 
Q 2176 1011 2259 1040 
Q 2342 1069 2524 1069 
Q 2707 1069 2829 1050 
Q 3008 1562 3085 2214 
L 2758 2170 
Q 2694 2163 2656 2144 
Q 2618 2125 2586 2125 
Q 2554 2125 2467 2195 
Q 2381 2266 2381 2330 
Q 2381 2394 2534 2669 
Q 2688 2944 2989 3757 
L 2662 3706 
Q 2573 3693 2499 3693 
Q 2426 3693 2355 3753 
Q 2285 3814 2246 3894 
Q 2208 3974 2208 4012 
Q 2208 4051 2246 4051 
Q 2259 4051 2272 4051 
L 2483 4026 
L 2547 4026 
Q 2573 4026 2611 4032 
L 3142 4102 
Q 3162 4109 3181 4109 
L 3213 4109 
Q 3270 4109 3360 4051 
Q 3450 3994 3450 3930 
Q 3450 3866 3411 3821 
Q 3373 3776 3213 3373 
Q 3053 2970 2816 2496 
L 3213 2554 
Q 3232 2560 3270 2560 
Q 3418 2560 3466 2473 
Q 3514 2387 3514 2358 
Q 3514 2330 3491 2294 
Q 3469 2259 3430 2048 
Q 3341 1498 3142 954 
Q 3277 909 3673 685 
Q 4070 461 4691 237 
Q 5312 13 6093 -38 
Q 6208 -45 6208 -102 
Q 6208 -211 6067 -378 
Q 6003 -448 5933 -448 
L 5734 -416 
Q 4634 -237 3334 486 
Q 3149 602 3021 659 
Q 2726 38 2406 -333 
Q 2272 -486 2208 -486 
Q 2170 -486 2170 -428 
Q 2170 -371 2246 -237 
Q 2528 224 2720 749 
L 2618 755 
L 2355 730 
L 2317 730 
Q 2221 730 2195 819 
Q 2182 845 2182 877 
z
M 5139 3462 
L 4736 3443 
L 4736 2982 
L 5101 3008 
L 5139 3462 
z
M 608 1818 
L 691 1824 
L 1152 1843 
L 1158 2701 
L 1088 2694 
Q 1043 2688 1011 2691 
Q 979 2694 905 2694 
Q 832 2694 765 2758 
Q 698 2822 666 2908 
Q 634 2995 634 3030 
Q 634 3066 678 3066 
Q 723 3066 771 3050 
Q 819 3034 915 3034 
L 979 3034 
L 1248 3040 
L 1581 3066 
L 1677 3066 
Q 1766 3072 1869 3123 
Q 1907 3130 1952 3130 
Q 1997 3130 2112 3024 
Q 2227 2918 2227 2861 
Q 2227 2752 2080 2752 
L 1530 2714 
L 1523 1856 
L 1843 1875 
Q 1939 1875 2006 1904 
Q 2074 1933 2102 1929 
Q 2131 1926 2202 1875 
Q 2381 1747 2381 1638 
Q 2381 1568 2246 1555 
L 1517 1510 
L 1510 262 
L 1734 378 
Q 1837 442 1942 506 
Q 2048 570 2131 624 
Q 2214 678 2272 672 
Q 2330 666 2333 608 
Q 2336 550 2214 435 
Q 1882 122 1558 -124 
Q 1235 -371 1126 -358 
Q 1050 -333 979 -185 
Q 909 -38 909 0 
Q 909 38 966 41 
Q 1024 45 1139 90 
L 1152 1498 
L 813 1478 
L 659 1472 
Q 570 1472 486 1549 
Q 403 1626 377 1709 
Q 352 1792 352 1805 
Q 352 1850 410 1850 
L 608 1818 
z
" transform="scale(0.015625)"/>
      <path id="LXGWWenKai-Regular-73af" d="M 1132 723 
Q 614 467 499 467 
Q 384 467 211 678 
Q 147 755 147 813 
Q 147 864 205 870 
Q 397 870 646 954 
Q 858 1018 1197 1146 
L 1203 2547 
L 800 2528 
Q 717 2528 624 2566 
Q 531 2605 461 2797 
Q 435 2835 435 2867 
Q 435 2899 474 2899 
Q 506 2899 554 2883 
Q 602 2867 723 2867 
L 1203 2893 
L 1216 4051 
L 723 4019 
Q 550 4019 483 4067 
Q 416 4115 358 4214 
Q 301 4314 301 4358 
Q 301 4397 352 4397 
Q 378 4397 442 4381 
Q 506 4365 640 4365 
Q 710 4365 1843 4442 
Q 2010 4461 2070 4486 
Q 2131 4512 2170 4512 
Q 2202 4512 2278 4454 
Q 2483 4333 2483 4224 
Q 2483 4141 2330 4128 
L 1600 4077 
L 1600 2918 
Q 1978 2950 2038 2972 
Q 2099 2995 2150 2995 
Q 2202 2995 2330 2892 
Q 2458 2790 2458 2726 
Q 2458 2669 2410 2649 
Q 2362 2630 1600 2573 
L 1594 1299 
Q 2035 1491 2265 1600 
Q 2496 1709 2566 1709 
Q 2637 1709 2637 1658 
Q 2637 1574 2144 1276 
Q 1651 979 1132 723 
z
M 6076 1091 
Q 5990 979 5920 979 
Q 5850 979 5786 1056 
Q 5338 1626 4659 2240 
Q 4595 2298 4595 2330 
Q 4595 2362 4621 2419 
Q 4691 2586 4794 2586 
Q 4851 2586 5075 2394 
Q 6163 1434 6163 1261 
Q 6163 1203 6076 1091 
z
M 4294 -621 
Q 4250 -621 4166 -585 
Q 4083 -550 4012 -473 
Q 3942 -397 3942 -326 
Q 3942 -256 3968 -137 
Q 3994 -19 4000 2400 
Q 3616 1862 3097 1382 
Q 2579 902 2426 902 
Q 2362 902 2362 966 
Q 2362 1024 2458 1120 
Q 3462 2086 4000 3162 
Q 4000 3341 3929 3427 
Q 3859 3514 3859 3558 
Q 3859 3597 3962 3597 
Q 4058 3597 4173 3552 
Q 4307 3834 4390 4102 
L 3130 4026 
Q 3008 4013 2931 4013 
Q 2848 4013 2816 4045 
Q 2675 4224 2624 4384 
Q 2624 4422 2662 4422 
Q 2790 4390 2931 4390 
Q 3008 4390 5344 4544 
Q 5510 4557 5603 4589 
Q 5696 4621 5741 4621 
Q 5786 4621 5862 4557 
Q 6067 4397 6067 4294 
Q 6067 4224 5920 4205 
L 4890 4134 
Q 4646 3514 4410 3072 
L 4410 -448 
Q 4410 -621 4294 -621 
z
" transform="scale(0.015625)"/>
      <path id="LXGWWenKai-Regular-8282" d="M 3680 3270 
L 3789 3878 
L 2579 3808 
L 2637 3309 
L 2637 3270 
Q 2637 3155 2505 3155 
Q 2374 3155 2291 3225 
Q 2208 3296 2208 3386 
L 2208 3405 
Q 2214 3450 2214 3482 
L 2214 3610 
Q 2214 3642 2208 3674 
L 2195 3789 
L 1114 3725 
Q 1069 3718 1030 3718 
L 966 3718 
Q 806 3718 755 3770 
Q 589 3936 589 4045 
Q 589 4083 640 4083 
Q 666 4083 726 4067 
Q 787 4051 896 4051 
L 2150 4122 
L 2086 4640 
Q 2080 4736 1987 4838 
Q 1894 4941 1894 4966 
Q 1894 5024 2092 5024 
Q 2291 5024 2368 4966 
Q 2445 4909 2451 4838 
L 2534 4141 
L 3853 4218 
Q 3891 4410 3936 4800 
L 3936 4845 
Q 3936 4947 3897 5027 
Q 3859 5107 3859 5136 
Q 3859 5165 3916 5165 
Q 3974 5165 4090 5126 
Q 4397 5011 4397 4864 
Q 4365 4659 4237 4237 
L 5171 4288 
Q 5363 4294 5452 4326 
Q 5542 4358 5600 4358 
Q 5658 4358 5776 4265 
Q 5894 4173 5894 4070 
Q 5894 4000 5754 3987 
L 4128 3898 
Q 4026 3584 3933 3360 
Q 3840 3136 3750 3136 
Q 3680 3136 3680 3270 
z
M 4736 2630 
L 3162 2547 
L 3136 -442 
Q 3136 -589 3021 -589 
Q 2957 -589 2874 -550 
Q 2714 -480 2714 -346 
Q 2714 -307 2733 -198 
Q 2752 -90 2752 90 
L 2765 2528 
L 1645 2464 
Q 1600 2458 1568 2458 
L 1434 2458 
Q 1338 2458 1286 2509 
Q 1120 2669 1120 2784 
Q 1120 2822 1171 2822 
Q 1197 2822 1257 2806 
Q 1318 2790 1427 2790 
L 4781 2982 
Q 4813 2989 4845 2989 
L 4896 2989 
Q 4998 2989 5075 2931 
Q 5152 2874 5152 2778 
L 5126 2630 
Q 5094 1894 4986 1101 
Q 4960 896 4941 793 
Q 4922 691 4864 634 
Q 4774 557 4723 521 
Q 4672 486 4621 486 
Q 4531 486 4284 668 
Q 4038 851 3820 1059 
Q 3603 1267 3603 1331 
Q 3603 1376 3661 1376 
Q 3731 1376 3827 1318 
Q 4160 1114 4499 979 
Q 4512 973 4538 973 
Q 4602 973 4666 1562 
Q 4723 2131 4736 2630 
z
" transform="scale(0.015625)"/>
     </defs>
     <use xlink:href="#LXGWWenKai-Regular-2605"/>
     <use xlink:href="#LXGWWenKai-Regular-20" transform="translate(99.999985 0)"/>
     <use xlink:href="#LXGWWenKai-Regular-653b" transform="translate(134.999969 0)"/>
     <use xlink:href="#LXGWWenKai-Regular-7565" transform="translate(234.999954 0)"/>
     <use xlink:href="#LXGWWenKai-Regular-7b2c" transform="translate(334.999939 0)"/>
     <use xlink:href="#LXGWWenKai-Regular-4e00" transform="translate(434.999924 0)"/>
     <use xlink:href="#LXGWWenKai-Regular-6b65" transform="translate(534.999908 0)"/>
     <use xlink:href="#LXGWWenKai-Regular-ff1a" transform="translate(634.999893 0)"/>
     <use xlink:href="#LXGWWenKai-Regular-5173" transform="translate(734.999878 0)"/>
     <use xlink:href="#LXGWWenKai-Regular-952e" transform="translate(834.999863 0)"/>
     <use xlink:href="#LXGWWenKai-Regular-73af" transform="translate(934.999847 0)"/>
     <use xlink:href="#LXGWWenKai-Regular-8282" transform="translate(1034.999832 0)"/>
    </g>
   </g>
  </g>
 </g>
 <defs>
  <clipPath id="pf1bb9ad604">
   <rect x="7.2" y="7.2" width="1008" height="288"/>
  </clipPath>
 </defs>
</svg>
