<?xml version="1.0" encoding="utf-8" standalone="no"?>
<!DOCTYPE svg PUBLIC "-//W3C//DTD SVG 1.1//EN"
  "http://www.w3.org/Graphics/SVG/1.1/DTD/svg11.dtd">
<svg xmlns:xlink="http://www.w3.org/1999/xlink" width="475.2pt" height="417.6pt" viewBox="0 0 475.2 417.6" xmlns="http://www.w3.org/2000/svg" version="1.1">
 <metadata>
  <rdf:RDF xmlns:dc="http://purl.org/dc/elements/1.1/" xmlns:cc="http://creativecommons.org/ns#" xmlns:rdf="http://www.w3.org/1999/02/22-rdf-syntax-ns#">
   <cc:Work>
    <dc:type rdf:resource="http://purl.org/dc/dcmitype/StillImage"/>
    <dc:date>2026-02-14T08:53:47.158163</dc:date>
    <dc:format>image/svg+xml</dc:format>
    <dc:creator>
     <cc:Agent>
      <dc:title>Matplotlib v3.10.8, https://matplotlib.org/</dc:title>
     </cc:Agent>
    </dc:creator>
   </cc:Work>
  </rdf:RDF>
 </metadata>
 <defs>
  <style type="text/css">*{stroke-linejoin: round; stroke-linecap: butt}</style>
 </defs>
 <g id="figure_1">
  <g id="patch_1">
   <path d="M 0 417.6 
L 475.2 417.6 
L 475.2 0 
L 0 0 
z
" style="fill: #fefdf5"/>
  </g>
  <g id="axes_1">
   <g id="patch_2">
    <path d="M 447.84 208.8 
L 439.2 212.16 
L 439.2 208.8336 
L 36 208.8336 
L 36 208.7664 
L 439.2 208.7664 
L 439.2 205.44 
z
" clip-path="url(#pd8ec2bc6df)" style="fill: #5d4e37; stroke: #5d4e37; stroke-linejoin: miter"/>
   </g>
   <g id="patch_3">
    <path d="M 237.6 17.28 
L 240.48 27.36 
L 237.6288 27.36 
L 237.6288 376.8 
L 237.5712 376.8 
L 237.5712 27.36 
L 234.72 27.36 
z
" clip-path="url(#pd8ec2bc6df)" style="fill: #5d4e37; stroke: #5d4e37; stroke-linejoin: miter"/>
   </g>
   <g id="patch_4">
    <path d="M 237.6 309.6 
C 275.789246 309.6 312.419501 298.979076 339.423376 280.076364 
C 366.427252 261.173651 381.6 235.532472 381.6 208.8 
C 381.6 182.067528 366.427252 156.426349 339.423376 137.523636 
C 312.419501 118.620924 275.789246 108 237.6 108 
C 199.410754 108 162.780499 118.620924 135.776624 137.523636 
C 108.772748 156.426349 93.6 182.067528 93.6 208.8 
C 93.6 235.532472 108.772748 261.173651 135.776624 280.076364 
C 162.780499 298.979076 199.410754 309.6 237.6 309.6 
L 237.6 309.6 
z
" clip-path="url(#pd8ec2bc6df)" style="fill: none; opacity: 0.8; stroke: #5d4e37; stroke-width: 1.5; stroke-linejoin: miter"/>
   </g>
   <g id="line2d_1">
    <path d="M 122.4 249.12 
L 352.8 249.12 
" clip-path="url(#pd8ec2bc6df)" style="fill: none; stroke-dasharray: 3.7,1.6; stroke-dashoffset: 0; stroke: #5d4e37; stroke-opacity: 0.6"/>
   </g>
   <g id="line2d_2">
    <path d="M 122.4 255.84 
L 122.4 242.4 
" clip-path="url(#pd8ec2bc6df)" style="fill: none; stroke: #5d4e37; stroke-linecap: square"/>
   </g>
   <g id="line2d_3">
    <path d="M 352.8 255.84 
L 352.8 242.4 
" clip-path="url(#pd8ec2bc6df)" style="fill: none; stroke: #5d4e37; stroke-linecap: square"/>
   </g>
   <g id="line2d_4">
    <path d="M 122.4 208.8 
L 309.6 121.504639 
" clip-path="url(#pd8ec2bc6df)" style="fill: none; stroke-dasharray: 1,1.65; stroke-dashoffset: 0; stroke: #5d4e37; stroke-opacity: 0.5"/>
   </g>
   <g id="line2d_5">
    <path d="M 352.8 208.8 
L 309.6 121.504639 
" clip-path="url(#pd8ec2bc6df)" style="fill: none; stroke-dasharray: 1,1.65; stroke-dashoffset: 0; stroke: #5d4e37; stroke-opacity: 0.5"/>
   </g>
   <g id="text_1">
    <!-- $x$ -->
    <g transform="translate(433.44 228.96) scale(0.16 -0.16)">
     <defs>
      <path id="STIXGeneral-Italic-78" d="M 1555 2272 
L 1632 1907 
Q 1971 2426 2179 2624 
Q 2387 2822 2598 2822 
Q 2714 2822 2787 2755 
Q 2861 2688 2861 2585 
Q 2861 2483 2800 2419 
Q 2739 2355 2643 2355 
Q 2586 2355 2490 2409 
Q 2394 2464 2310 2464 
Q 2125 2464 1683 1690 
Q 1683 1606 1734 1402 
L 1939 544 
Q 2003 282 2131 282 
Q 2234 282 2432 538 
Q 2451 563 2476 598 
Q 2502 634 2521 662 
Q 2541 691 2566 717 
L 2662 659 
Q 2387 230 2227 80 
Q 2067 -70 1882 -70 
Q 1728 -70 1645 26 
Q 1562 122 1504 365 
L 1318 1126 
L 755 365 
Q 557 96 432 13 
Q 307 -70 147 -70 
Q 0 -70 -86 0 
Q -173 70 -173 198 
Q -173 294 -112 361 
Q -51 429 45 429 
Q 122 429 250 358 
Q 346 301 416 301 
Q 525 301 742 614 
L 1267 1357 
L 1088 2150 
Q 1024 2432 969 2509 
Q 915 2586 794 2586 
Q 717 2586 544 2541 
L 429 2509 
L 410 2611 
L 480 2637 
Q 992 2822 1229 2822 
Q 1350 2822 1420 2707 
Q 1491 2592 1555 2272 
z
" transform="scale(0.015625)"/>
     </defs>
     <use xlink:href="#STIXGeneral-Italic-78" transform="translate(0 0.90625)"/>
    </g>
   </g>
   <g id="text_2">
    <!-- $y$ -->
    <g transform="translate(249.12 40.8) scale(0.16 -0.16)">
     <defs>
      <path id="STIXGeneral-Italic-79" d="M 1555 1190 
L 1690 486 
Q 2118 1190 2294 1558 
Q 2470 1926 2470 2131 
Q 2470 2234 2304 2336 
Q 2138 2445 2138 2586 
Q 2138 2688 2211 2755 
Q 2285 2822 2394 2822 
Q 2534 2822 2630 2720 
Q 2726 2618 2726 2470 
Q 2726 1914 1888 518 
Q 1389 -307 918 -812 
Q 448 -1318 173 -1318 
Q 26 -1318 -64 -1241 
Q -154 -1165 -154 -1043 
Q -154 -934 -80 -860 
Q -6 -787 96 -787 
Q 218 -787 314 -876 
Q 410 -966 486 -966 
Q 602 -966 794 -755 
Q 877 -672 1040 -457 
Q 1203 -243 1248 -173 
Q 1312 -45 1312 51 
Q 1312 243 1113 1046 
Q 915 1850 787 2176 
Q 698 2413 592 2499 
Q 486 2586 294 2586 
Q 192 2586 96 2560 
L 96 2669 
Q 237 2694 301 2707 
Q 563 2758 986 2822 
L 1011 2822 
Q 1082 2822 1277 2227 
Q 1472 1632 1555 1190 
z
" transform="scale(0.015625)"/>
     </defs>
     <use xlink:href="#STIXGeneral-Italic-79" transform="translate(0 0.90625)"/>
    </g>
   </g>
   <g id="text_3">
    <!-- $O$ -->
    <g transform="translate(220.32 228.96) scale(0.16 -0.16)">
     <defs>
      <path id="STIXGeneral-Italic-4f" d="M 4474 2675 
Q 4474 1990 4106 1363 
Q 3738 736 3149 339 
Q 2477 -115 1779 -115 
Q 1146 -115 765 281 
Q 384 678 384 1382 
Q 384 1965 697 2582 
Q 1011 3200 1517 3642 
Q 2234 4262 3034 4262 
Q 3718 4269 4096 3840 
Q 4474 3411 4474 2675 
z
M 3802 3078 
Q 3802 3533 3581 3792 
Q 3360 4051 2976 4051 
Q 2342 4051 1786 3302 
Q 1446 2842 1251 2259 
Q 1056 1677 1056 1178 
Q 1056 653 1270 374 
Q 1485 96 1888 96 
Q 2477 96 2976 704 
Q 3354 1178 3578 1862 
Q 3802 2547 3802 3078 
z
" transform="scale(0.015625)"/>
     </defs>
     <use xlink:href="#STIXGeneral-Italic-4f" transform="translate(0 0.296875)"/>
    </g>
   </g>
   <g id="text_4">
    <!-- $F_1$ -->
    <g style="fill: #5d4e37" transform="translate(114.32 188.64) scale(0.16 -0.16)">
     <defs>
      <path id="STIXGeneral-Italic-46" d="M 4128 4179 
L 3923 3194 
L 3789 3206 
Q 3808 3347 3808 3418 
Q 3808 3667 3718 3772 
Q 3629 3878 3373 3923 
Q 3117 3968 2534 3968 
Q 2310 3968 2220 3926 
Q 2131 3885 2099 3763 
L 1690 2310 
Q 2003 2317 2147 2317 
Q 2291 2317 2457 2345 
Q 2624 2374 2678 2396 
Q 2733 2419 2822 2505 
Q 2912 2592 2950 2665 
Q 2989 2739 3072 2912 
L 3187 2880 
L 2701 1376 
L 2592 1408 
Q 2643 1670 2643 1798 
Q 2643 1978 2531 2029 
Q 2419 2080 2163 2080 
Q 1984 2080 1632 2099 
L 1254 736 
Q 1165 416 1165 352 
Q 1165 237 1273 179 
Q 1382 122 1658 102 
L 1658 0 
L 51 0 
L 51 102 
Q 314 122 410 224 
Q 506 326 582 602 
L 1370 3430 
Q 1434 3661 1434 3821 
Q 1434 3955 1347 4003 
Q 1261 4051 947 4077 
L 947 4179 
L 4128 4179 
z
" transform="scale(0.015625)"/>
      <path id="STIXGeneral-Regular-31" d="M 2522 0 
L 755 0 
L 755 96 
Q 1107 115 1235 227 
Q 1363 339 1363 608 
L 1363 3482 
Q 1363 3795 1171 3795 
Q 1082 3795 883 3718 
L 710 3654 
L 710 3744 
L 1856 4326 
L 1914 4307 
L 1914 486 
Q 1914 275 2042 185 
Q 2170 96 2522 96 
L 2522 0 
z
" transform="scale(0.015625)"/>
     </defs>
     <use xlink:href="#STIXGeneral-Italic-46" transform="translate(0 0.703125)"/>
     <use xlink:href="#STIXGeneral-Regular-31" transform="translate(61.099991 -12.525) scale(0.7)"/>
    </g>
   </g>
   <g id="text_5">
    <!-- $F_2$ -->
    <g style="fill: #5d4e37" transform="translate(344.72 188.64) scale(0.16 -0.16)">
     <defs>
      <path id="STIXGeneral-Regular-32" d="M 3034 877 
L 2688 0 
L 186 0 
L 186 77 
L 1325 1286 
Q 1773 1754 1965 2144 
Q 2157 2534 2157 2950 
Q 2157 3379 1920 3616 
Q 1683 3853 1267 3853 
Q 922 3853 720 3673 
Q 518 3494 326 3021 
L 192 3053 
Q 301 3648 630 3987 
Q 960 4326 1523 4326 
Q 2054 4326 2380 4006 
Q 2707 3686 2707 3200 
Q 2707 2477 1888 1613 
L 832 486 
L 2330 486 
Q 2541 486 2665 569 
Q 2790 653 2944 915 
L 3034 877 
z
" transform="scale(0.015625)"/>
     </defs>
     <use xlink:href="#STIXGeneral-Italic-46" transform="translate(0 0.703125)"/>
     <use xlink:href="#STIXGeneral-Regular-32" transform="translate(61.099991 -12.525) scale(0.7)"/>
    </g>
   </g>
   <g id="text_6">
    <!-- 焦距 $2c$ -->
    <g style="fill: #5d4e37" transform="translate(214.5 266.031562) scale(0.14 -0.14)">
     <defs>
      <path id="LXGWWenKai-Regular-7126" d="M 3610 4954 
L 3597 5030 
L 3597 5056 
Q 3597 5133 3661 5133 
Q 3725 5133 3821 5082 
Q 4070 4947 4070 4845 
Q 4070 4768 3907 4509 
Q 3744 4250 3635 4115 
L 4768 4192 
Q 4915 4205 4969 4224 
Q 5024 4243 5059 4243 
Q 5094 4243 5171 4198 
Q 5363 4070 5363 3949 
Q 5363 3885 5222 3872 
L 3654 3776 
L 3648 3238 
L 4435 3277 
Q 4582 3290 4630 3312 
Q 4678 3334 4713 3334 
Q 4749 3334 4826 3290 
Q 5024 3155 5024 3053 
Q 5024 2982 4877 2970 
L 3648 2912 
L 3648 2349 
L 4461 2387 
Q 4614 2406 4656 2425 
Q 4698 2445 4739 2445 
Q 4781 2445 4851 2390 
Q 4922 2336 4973 2265 
Q 5024 2195 5024 2157 
Q 5024 2099 4890 2080 
L 3648 2022 
L 3642 1427 
L 5120 1485 
Q 5242 1491 5296 1513 
Q 5350 1536 5404 1536 
Q 5459 1536 5529 1472 
Q 5600 1408 5645 1334 
Q 5690 1261 5690 1229 
Q 5690 1178 5555 1158 
L 1978 1030 
L 1978 832 
Q 1978 723 1882 723 
Q 1766 723 1644 812 
Q 1523 902 1523 953 
Q 1523 1005 1552 1113 
Q 1581 1222 1581 1459 
L 1600 3219 
Q 1184 2720 800 2394 
Q 627 2246 569 2246 
Q 512 2246 512 2307 
Q 512 2368 608 2483 
Q 1645 3731 2150 4813 
Q 2208 4941 2208 5062 
Q 2208 5184 2278 5184 
Q 2317 5184 2419 5133 
Q 2522 5082 2611 5005 
Q 2701 4928 2701 4883 
Q 2701 4838 2547 4579 
Q 2394 4320 2182 4026 
L 3264 4096 
Q 3482 4448 3546 4659 
Q 3610 4870 3610 4902 
L 3610 4954 
z
M 3270 3757 
L 1990 3680 
L 1984 3149 
L 3264 3213 
L 3270 3757 
z
M 3264 2893 
L 1984 2829 
L 1984 2266 
L 3258 2330 
L 3264 2893 
z
M 3258 2003 
L 1984 1946 
L 1978 1363 
L 3251 1414 
L 3258 2003 
z
M 5725 166 
Q 5888 0 5990 -125 
Q 6093 -250 6093 -304 
Q 6093 -358 6006 -460 
Q 5920 -563 5849 -563 
Q 5779 -563 5702 -467 
Q 5261 115 4736 582 
Q 4666 653 4666 710 
Q 4666 768 4742 832 
Q 4819 896 4873 896 
Q 4928 896 5053 790 
Q 5178 685 5370 509 
Q 5562 333 5725 166 
z
M 1018 -173 
Q 890 -346 787 -458 
Q 685 -570 643 -570 
Q 602 -570 496 -477 
Q 390 -384 390 -323 
Q 390 -262 448 -205 
Q 960 307 1158 736 
Q 1229 845 1257 845 
Q 1286 845 1350 826 
Q 1536 768 1536 678 
Q 1536 589 1341 294 
Q 1146 0 1018 -173 
z
M 4182 208 
Q 4326 58 4422 -57 
Q 4518 -173 4518 -205 
Q 4518 -237 4480 -294 
Q 4288 -550 4115 -339 
Q 3693 186 3315 506 
Q 3238 576 3238 627 
Q 3238 678 3312 752 
Q 3386 826 3440 826 
Q 3494 826 3616 733 
Q 3738 640 3888 499 
Q 4038 358 4182 208 
z
M 2774 173 
Q 2880 32 2947 -77 
Q 3014 -186 3014 -230 
Q 3014 -275 2918 -355 
Q 2822 -435 2755 -435 
Q 2688 -435 2618 -320 
Q 2323 173 2054 454 
Q 1990 518 1990 572 
Q 1990 627 2080 698 
Q 2144 762 2195 762 
Q 2246 762 2342 672 
Q 2438 582 2553 448 
Q 2669 314 2774 173 
z
" transform="scale(0.015625)"/>
      <path id="LXGWWenKai-Regular-8ddd" d="M 5331 1882 
Q 5568 1658 5568 1600 
Q 5568 1542 5517 1532 
Q 5466 1523 5395 1517 
L 3507 1434 
L 3507 262 
L 5485 314 
Q 5645 314 5744 346 
Q 5843 378 5888 378 
Q 5933 378 6016 314 
Q 6214 154 6214 45 
Q 6214 -32 6067 -45 
L 3507 -122 
L 3507 -352 
Q 3507 -506 3398 -506 
Q 3347 -506 3264 -474 
Q 3059 -384 3059 -243 
Q 3059 -224 3059 -205 
Q 3059 -186 3078 -109 
Q 3098 -32 3098 205 
L 3130 4154 
Q 3130 4442 3053 4582 
Q 3040 4602 3040 4614 
Q 3040 4653 3123 4653 
Q 3206 4653 3533 4525 
L 5229 4627 
Q 5408 4640 5497 4672 
Q 5587 4704 5638 4704 
Q 5690 4704 5773 4640 
Q 5856 4576 5913 4502 
Q 5971 4429 5971 4390 
Q 5971 4314 5818 4301 
L 3514 4160 
L 3514 3181 
L 5197 3270 
L 5254 3270 
Q 5402 3270 5475 3171 
Q 5549 3072 5549 3030 
Q 5549 2989 5533 2953 
Q 5517 2918 5510 2886 
L 5331 1882 
z
M 870 2707 
Q 774 2784 780 2877 
Q 787 2970 787 2989 
L 787 3110 
Q 787 3149 781 3194 
L 698 4115 
Q 685 4307 621 4409 
Q 557 4512 557 4566 
Q 557 4621 672 4621 
Q 787 4621 1075 4499 
L 2406 4608 
L 2458 4608 
Q 2598 4608 2675 4534 
Q 2752 4461 2752 4413 
Q 2752 4365 2733 4339 
Q 2714 4314 2707 4282 
L 2573 3309 
Q 2726 3136 2726 3081 
Q 2726 3027 2672 3017 
Q 2618 3008 2541 3002 
L 1946 2963 
L 1939 2182 
L 2170 2195 
Q 2298 2208 2362 2230 
Q 2426 2253 2464 2253 
Q 2502 2253 2573 2208 
Q 2765 2093 2765 1984 
Q 2765 1901 2624 1888 
L 1933 1856 
L 1920 570 
Q 2157 640 2371 694 
Q 2586 749 2736 797 
Q 2886 845 2950 845 
Q 3014 845 3014 790 
Q 3014 736 2880 666 
Q 1690 77 851 -128 
Q 570 -192 563 -192 
Q 397 -192 256 32 
Q 186 147 186 173 
Q 186 218 272 218 
Q 358 218 457 234 
Q 557 250 640 262 
L 787 288 
L 736 2054 
Q 723 2195 675 2275 
Q 627 2355 627 2387 
Q 627 2438 697 2438 
Q 768 2438 864 2419 
Q 1120 2355 1120 2234 
L 1146 371 
Q 1325 410 1536 467 
L 1555 2931 
L 1178 2906 
L 1190 2778 
L 1190 2752 
Q 1190 2630 1094 2630 
Q 966 2630 870 2707 
z
M 2291 4262 
L 1075 4166 
L 1152 3232 
L 2202 3309 
L 2291 4262 
z
M 5088 2906 
L 3514 2835 
L 3514 1798 
L 4960 1862 
L 5088 2906 
z
" transform="scale(0.015625)"/>
      <path id="LXGWWenKai-Regular-20" transform="scale(0.015625)"/>
      <path id="STIXGeneral-Italic-63" d="M 2240 685 
L 2342 621 
Q 2048 250 1769 90 
Q 1491 -70 1133 -70 
Q 678 -70 435 179 
Q 192 429 192 915 
Q 192 1344 409 1744 
Q 627 2144 979 2432 
Q 1472 2822 2048 2822 
Q 2342 2822 2531 2675 
Q 2720 2528 2720 2304 
Q 2720 2176 2630 2086 
Q 2541 1997 2413 1997 
Q 2285 1997 2224 2070 
Q 2163 2144 2163 2253 
Q 2163 2310 2211 2403 
Q 2259 2496 2259 2560 
Q 2259 2688 2022 2688 
Q 1619 2688 1325 2381 
Q 742 1766 742 890 
Q 742 544 889 352 
Q 1037 160 1312 160 
Q 1562 160 1766 281 
Q 1971 403 2240 685 
z
" transform="scale(0.015625)"/>
     </defs>
     <use xlink:href="#LXGWWenKai-Regular-7126"/>
     <use xlink:href="#LXGWWenKai-Regular-8ddd" transform="translate(99.999985 0)"/>
     <use xlink:href="#LXGWWenKai-Regular-20" transform="translate(199.999969 0)"/>
     <use xlink:href="#STIXGeneral-Regular-32" transform="translate(234.999954 0)"/>
     <use xlink:href="#STIXGeneral-Italic-63" transform="translate(284.999939 0)"/>
    </g>
   </g>
   <g id="text_7">
    <!-- $P(x, y)$ -->
    <g style="fill: #e8837c" transform="translate(315.36 108.064639) scale(0.16 -0.16)">
     <defs>
      <path id="STIXGeneral-Italic-50" d="M 934 4179 
L 2477 4179 
Q 3872 4179 3872 3232 
Q 3872 2976 3753 2729 
Q 3635 2483 3437 2317 
Q 2995 1952 2125 1952 
Q 1773 1952 1549 2003 
L 1210 768 
Q 1120 422 1120 365 
Q 1120 250 1216 189 
Q 1312 128 1562 102 
L 1562 0 
L 0 0 
L 0 102 
Q 275 141 361 227 
Q 448 314 538 627 
L 1280 3277 
Q 1389 3667 1389 3808 
Q 1389 3936 1299 3990 
Q 1210 4045 934 4077 
L 934 4179 
z
M 2048 3789 
L 1606 2221 
Q 1792 2189 1939 2189 
Q 2496 2189 2758 2342 
Q 3213 2598 3213 3200 
Q 3213 3987 2381 3987 
Q 2099 3987 2048 3789 
z
" transform="scale(0.015625)"/>
      <path id="STIXGeneral-Regular-28" d="M 1946 -1030 
L 1869 -1133 
Q 1126 -710 716 32 
Q 307 774 307 1613 
Q 307 3386 1888 4326 
L 1946 4224 
Q 1293 3667 1075 3126 
Q 858 2586 858 1632 
Q 858 685 1082 96 
Q 1306 -493 1946 -1030 
z
" transform="scale(0.015625)"/>
      <path id="STIXGeneral-Regular-2c" d="M 531 -902 
L 467 -781 
Q 998 -422 998 -96 
Q 998 -13 909 -13 
Q 883 -13 822 -25 
Q 762 -38 723 -38 
Q 352 -38 352 288 
Q 352 454 457 553 
Q 563 653 736 653 
Q 954 653 1101 496 
Q 1248 339 1248 96 
Q 1248 -198 1053 -473 
Q 858 -749 531 -902 
z
" transform="scale(0.015625)"/>
      <path id="STIXGeneral-Regular-29" d="M 186 4224 
L 262 4326 
Q 992 3891 1408 3148 
Q 1824 2406 1824 1581 
Q 1824 -166 243 -1133 
L 186 -1030 
Q 845 -486 1059 54 
Q 1274 595 1274 1562 
Q 1274 2534 1059 3120 
Q 845 3706 186 4224 
z
" transform="scale(0.015625)"/>
     </defs>
     <use xlink:href="#STIXGeneral-Italic-50" transform="translate(0 0.40625)"/>
     <use xlink:href="#STIXGeneral-Regular-28" transform="translate(61.099991 0.40625)"/>
     <use xlink:href="#STIXGeneral-Italic-78" transform="translate(94.399979 0.40625)"/>
     <use xlink:href="#STIXGeneral-Regular-2c" transform="translate(138.799973 0.40625)"/>
     <use xlink:href="#STIXGeneral-Italic-79" transform="translate(178.239954 0.40625)"/>
     <use xlink:href="#STIXGeneral-Regular-29" transform="translate(222.639948 0.40625)"/>
    </g>
   </g>
   <g id="text_8">
    <!-- $|PF_1|$ -->
    <g style="fill: #5d4e37" transform="translate(176.2 165.15232) scale(0.14 -0.14)">
     <defs>
      <path id="STIXGeneral-Regular-7c" d="M 851 -90 
L 429 -90 
L 429 4326 
L 851 4326 
L 851 -90 
z
" transform="scale(0.015625)"/>
     </defs>
     <use xlink:href="#STIXGeneral-Regular-7c" transform="translate(0 0.40625)"/>
     <use xlink:href="#STIXGeneral-Italic-50" transform="translate(19.999985 0.40625)"/>
     <use xlink:href="#STIXGeneral-Italic-46" transform="translate(81.099976 0.40625)"/>
     <use xlink:href="#STIXGeneral-Regular-31" transform="translate(142.199966 -12.821875) scale(0.7)"/>
     <use xlink:href="#STIXGeneral-Regular-7c" transform="translate(181.609331 0.40625)"/>
    </g>
   </g>
   <g id="text_9">
    <!-- $|PF_2|$ -->
    <g style="fill: #5d4e37" transform="translate(342.72 165.15232) scale(0.14 -0.14)">
     <use xlink:href="#STIXGeneral-Regular-7c" transform="translate(0 0.40625)"/>
     <use xlink:href="#STIXGeneral-Italic-50" transform="translate(19.999985 0.40625)"/>
     <use xlink:href="#STIXGeneral-Italic-46" transform="translate(81.099976 0.40625)"/>
     <use xlink:href="#STIXGeneral-Regular-32" transform="translate(142.199966 -12.821875) scale(0.7)"/>
     <use xlink:href="#STIXGeneral-Regular-7c" transform="translate(181.609331 0.40625)"/>
    </g>
   </g>
   <g id="line2d_6">
    <defs>
     <path id="mb2460a6b76" d="M 0 4 
C 1.060812 4 2.078319 3.578535 2.828427 2.828427 
C 3.578535 2.078319 4 1.060812 4 0 
C 4 -1.060812 3.578535 -2.078319 2.828427 -2.828427 
C 2.078319 -3.578535 1.060812 -4 0 -4 
C -1.060812 -4 -2.078319 -3.578535 -2.828427 -2.828427 
C -3.578535 -2.078319 -4 -1.060812 -4 0 
C -4 1.060812 -3.578535 2.078319 -2.828427 2.828427 
C -2.078319 3.578535 -1.060812 4 0 4 
z
" style="stroke: #e8837c"/>
    </defs>
    <g clip-path="url(#pd8ec2bc6df)">
     <use xlink:href="#mb2460a6b76" x="122.4" y="208.8" style="fill: #e8837c; stroke: #e8837c"/>
     <use xlink:href="#mb2460a6b76" x="352.8" y="208.8" style="fill: #e8837c; stroke: #e8837c"/>
    </g>
   </g>
   <g id="line2d_7">
    <g clip-path="url(#pd8ec2bc6df)">
     <use xlink:href="#mb2460a6b76" x="309.6" y="121.504639" style="fill: #e8837c; stroke: #e8837c"/>
    </g>
   </g>
  </g>
 </g>
 <defs>
  <clipPath id="pd8ec2bc6df">
   <rect x="7.2" y="7.2" width="460.8" height="403.2"/>
  </clipPath>
 </defs>
</svg>
