<?xml version="1.0" encoding="utf-8" standalone="no"?>
<!DOCTYPE svg PUBLIC "-//W3C//DTD SVG 1.1//EN"
  "http://www.w3.org/Graphics/SVG/1.1/DTD/svg11.dtd">
<svg xmlns:xlink="http://www.w3.org/1999/xlink" width="1022.4pt" height="734.4pt" viewBox="0 0 1022.4 734.4" xmlns="http://www.w3.org/2000/svg" version="1.1">
 <metadata>
  <rdf:RDF xmlns:dc="http://purl.org/dc/elements/1.1/" xmlns:cc="http://creativecommons.org/ns#" xmlns:rdf="http://www.w3.org/1999/02/22-rdf-syntax-ns#">
   <cc:Work>
    <dc:type rdf:resource="http://purl.org/dc/dcmitype/StillImage"/>
    <dc:date>2026-02-14T08:49:41.678535</dc:date>
    <dc:format>image/svg+xml</dc:format>
    <dc:creator>
     <cc:Agent>
      <dc:title>Matplotlib v3.10.8, https://matplotlib.org/</dc:title>
     </cc:Agent>
    </dc:creator>
   </cc:Work>
  </rdf:RDF>
 </metadata>
 <defs>
  <style type="text/css">*{stroke-linejoin: round; stroke-linecap: butt}</style>
 </defs>
 <g id="figure_1">
  <g id="patch_1">
   <path d="M 0 734.4 
L 1022.4 734.4 
L 1022.4 0 
L 0 0 
z
" style="fill: #fefdf5"/>
  </g>
  <g id="axes_1">
   <g id="patch_2">
    <path d="M 511.2 167.600391 
Q 511.2 180.000771 511.2 190.724101 
" clip-path="url(#p19d5fb75b3)" style="fill: none; stroke: #e8837c; stroke-width: 1.5; stroke-linecap: round"/>
    <path d="M 515.2 182.724101 
L 511.2 190.724101 
L 507.2 182.724101 
z
" clip-path="url(#p19d5fb75b3)" style="fill: #e8837c; stroke: #e8837c; stroke-width: 1.5; stroke-linecap: round"/>
   </g>
   <g id="patch_3">
    <path d="M 511.2 383.600391 
Q 511.2 396.000771 511.2 406.724101 
" clip-path="url(#p19d5fb75b3)" style="fill: none; stroke: #e8837c; stroke-width: 1.5; stroke-linecap: round"/>
    <path d="M 515.2 398.724101 
L 511.2 406.724101 
L 507.2 398.724101 
z
" clip-path="url(#p19d5fb75b3)" style="fill: #e8837c; stroke: #e8837c; stroke-width: 1.5; stroke-linecap: round"/>
   </g>
   <g id="patch_4">
    <path d="M 259.2 648 
L 763.2 648 
Q 770.4 648 770.4 640.8 
L 770.4 511.2 
Q 770.4 504 763.2 504 
L 259.2 504 
Q 252 504 252 511.2 
L 252 640.8 
Q 252 648 259.2 648 
L 259.2 648 
z
" clip-path="url(#p19d5fb75b3)" style="fill: none; stroke-dasharray: 7.4,3.2; stroke-dashoffset: 0; stroke: #e8837c; stroke-width: 2; stroke-linejoin: miter"/>
   </g>
   <g id="text_1">
    <!-- 起始方程： -->
    <g style="fill: #5d4e37" transform="translate(466.2 57.6) scale(0.18 -0.18)">
     <defs>
      <path id="LXGWWenKai-Regular-8d77" d="M 1402 1965 
Q 1331 1619 1190 1210 
Q 1459 1005 1779 838 
L 1811 2637 
L 941 2586 
Q 813 2573 752 2573 
Q 691 2573 627 2586 
Q 461 2618 378 2867 
Q 371 2880 371 2915 
Q 371 2950 410 2950 
Q 422 2950 496 2924 
Q 570 2899 710 2899 
L 768 2899 
L 1773 2957 
L 1773 3629 
L 1318 3597 
Q 1203 3584 1097 3584 
Q 992 3584 915 3654 
Q 838 3725 803 3805 
Q 768 3885 768 3904 
Q 768 3949 813 3949 
Q 832 3949 905 3926 
Q 979 3904 1114 3904 
L 1158 3904 
L 1779 3949 
L 1779 4736 
Q 1779 4870 1731 4947 
Q 1683 5024 1683 5056 
Q 1683 5107 1760 5107 
Q 1837 5107 1961 5068 
Q 2086 5030 2128 4992 
Q 2170 4954 2170 4896 
L 2163 3981 
L 2490 4006 
Q 2611 4013 2684 4041 
Q 2758 4070 2793 4070 
Q 2829 4070 2906 4019 
Q 3098 3898 3098 3795 
Q 3098 3738 2963 3718 
L 2163 3661 
L 2157 2982 
L 2784 3021 
Q 2906 3034 2973 3059 
Q 3040 3085 3062 3085 
Q 3085 3085 3162 3046 
Q 3366 2925 3366 2810 
Q 3366 2739 3232 2720 
L 2195 2656 
L 2182 1971 
L 2496 1984 
Q 2675 2003 2729 2022 
Q 2784 2042 2797 2042 
Q 2810 2042 2880 2003 
Q 3091 1894 3091 1760 
Q 3091 1690 2957 1670 
L 2182 1632 
L 2163 653 
Q 3718 6 6093 -32 
Q 6240 -32 6240 -90 
L 6208 -179 
Q 6093 -442 5933 -442 
L 5888 -442 
Q 3936 -320 2816 26 
Q 1798 326 1056 870 
Q 768 205 397 -243 
Q 250 -410 205 -410 
Q 173 -410 173 -355 
Q 173 -301 282 -83 
Q 550 435 742 1078 
Q 934 1722 934 1939 
L 896 2150 
Q 896 2208 960 2208 
Q 1107 2208 1306 2086 
Q 1402 2035 1402 1965 
z
M 3341 4301 
Q 3533 4269 3661 4269 
L 4992 4365 
L 5062 4371 
Q 5075 4371 5146 4352 
Q 5363 4282 5363 4134 
Q 5363 4090 5344 4051 
Q 5325 4013 5318 3974 
L 5203 3014 
Q 5395 2829 5395 2752 
Q 5395 2675 5216 2662 
L 3981 2598 
L 3962 1434 
L 3962 1402 
Q 3962 1286 4006 1216 
Q 4102 1082 4665 1082 
Q 5229 1082 5366 1194 
Q 5504 1306 5606 1971 
Q 5645 2202 5715 2202 
Q 5818 2202 5818 1619 
L 5811 1357 
Q 5805 1062 5670 915 
Q 5536 768 5264 723 
Q 4992 678 4665 678 
Q 4339 678 4105 710 
Q 3872 742 3715 870 
Q 3558 998 3558 1280 
L 3558 1312 
L 3597 2624 
L 3597 2669 
Q 3597 2874 3542 2960 
Q 3488 3046 3488 3081 
Q 3488 3117 3581 3117 
Q 3674 3117 4006 2950 
L 4826 2995 
L 4896 4000 
L 3866 3930 
L 3693 3923 
Q 3418 3923 3315 4211 
Q 3302 4250 3302 4262 
Q 3302 4301 3341 4301 
z
" transform="scale(0.015625)"/>
      <path id="LXGWWenKai-Regular-59cb" d="M 2746 2707 
Q 2842 2688 2966 2688 
Q 3091 2688 3181 2701 
Q 4128 4480 4128 4813 
L 4102 4979 
Q 4102 5024 4153 5024 
Q 4205 5024 4314 4986 
Q 4602 4883 4602 4749 
Q 4602 4685 4314 4057 
Q 4026 3430 3616 2746 
Q 4307 2816 5203 2957 
Q 4979 3302 4848 3468 
Q 4717 3635 4717 3683 
Q 4717 3731 4800 3792 
Q 4883 3853 4944 3853 
Q 5005 3853 5229 3581 
Q 5453 3309 5757 2851 
Q 6061 2394 6061 2310 
Q 6061 2285 6016 2227 
Q 5894 2061 5801 2061 
Q 5709 2061 5638 2189 
L 5389 2650 
Q 3373 2304 3034 2304 
Q 2925 2304 2845 2384 
Q 2765 2464 2726 2550 
Q 2688 2637 2688 2656 
Q 2688 2707 2746 2707 
z
M 262 3008 
Q 358 2989 441 2989 
Q 525 2989 569 2992 
Q 614 2995 739 3008 
Q 864 3021 1139 3046 
Q 1389 4192 1389 4627 
Q 1389 4755 1363 4822 
Q 1338 4890 1338 4896 
Q 1338 4941 1408 4941 
Q 1478 4941 1587 4909 
Q 1850 4826 1850 4691 
L 1850 4659 
Q 1754 3949 1555 3091 
Q 1722 3110 1872 3132 
Q 2022 3155 2182 3174 
Q 2195 3264 2195 3334 
L 2195 3386 
Q 2195 3488 2172 3555 
Q 2150 3622 2150 3654 
Q 2150 3686 2198 3686 
Q 2246 3686 2355 3654 
Q 2650 3565 2650 3450 
Q 2650 3392 2640 3318 
Q 2630 3245 2630 3238 
L 2982 3296 
L 3027 3296 
Q 3149 3296 3149 3241 
Q 3149 3187 3037 3145 
Q 2925 3104 2605 3014 
Q 2470 1894 2016 1139 
Q 2726 442 2803 307 
Q 2822 269 2822 246 
Q 2822 224 2784 157 
Q 2746 90 2691 32 
Q 2637 -26 2585 -26 
Q 2534 -26 2483 38 
Q 2086 531 1818 819 
Q 1434 275 944 -57 
Q 454 -390 333 -390 
Q 288 -390 288 -336 
Q 288 -282 416 -186 
Q 1037 288 1530 1082 
Q 1126 1510 960 1600 
Q 838 1670 838 1824 
Q 838 1869 854 1910 
Q 870 1952 899 2054 
Q 928 2157 969 2329 
Q 1011 2502 1056 2682 
Q 621 2598 570 2598 
Q 429 2598 326 2752 
Q 224 2906 224 2957 
Q 224 3008 262 3008 
z
M 1478 2758 
Q 1363 2285 1235 1843 
Q 1459 1664 1715 1395 
Q 2029 1990 2157 2918 
L 1478 2758 
z
M 5472 198 
Q 5638 -13 5638 -70 
Q 5638 -128 5587 -137 
Q 5536 -147 5453 -154 
L 3680 -192 
L 3699 -442 
L 3699 -474 
Q 3699 -608 3597 -608 
Q 3475 -608 3356 -521 
Q 3238 -435 3238 -358 
L 3264 -90 
L 3264 -19 
Q 3264 19 3258 64 
L 3174 1344 
Q 3162 1542 3120 1632 
Q 3078 1722 3065 1747 
Q 3053 1773 3053 1792 
Q 3053 1837 3149 1837 
Q 3245 1837 3565 1722 
L 5318 1818 
L 5389 1818 
Q 5510 1818 5603 1741 
Q 5696 1664 5696 1600 
Q 5696 1536 5670 1504 
Q 5645 1472 5638 1427 
L 5472 198 
z
M 5203 1446 
L 3571 1370 
L 3654 166 
L 5075 205 
L 5203 1446 
z
" transform="scale(0.015625)"/>
      <path id="LXGWWenKai-Regular-65b9" d="M 506 3648 
Q 666 3616 838 3616 
L 922 3616 
L 2970 3738 
L 2963 4621 
Q 2963 4768 2912 4841 
Q 2861 4915 2861 4947 
Q 2861 4998 2928 4998 
Q 2995 4998 3098 4986 
Q 3386 4947 3386 4838 
L 3379 3763 
L 5299 3878 
Q 5517 3898 5581 3917 
Q 5645 3936 5683 3936 
Q 5722 3936 5811 3891 
Q 6054 3757 6054 3635 
Q 6054 3552 5933 3539 
L 3142 3379 
Q 3085 3040 2944 2547 
L 4525 2637 
L 4570 2637 
Q 4710 2637 4812 2566 
Q 4915 2496 4915 2422 
Q 4915 2349 4892 2301 
Q 4870 2253 4864 2221 
Q 4723 800 4365 -154 
Q 4301 -314 4169 -435 
Q 4038 -557 3939 -557 
Q 3840 -557 3587 -432 
Q 3334 -307 2921 16 
Q 2509 339 2509 442 
Q 2509 474 2573 474 
Q 2637 474 2985 301 
Q 3334 128 3808 -19 
Q 3821 -26 3853 -26 
Q 3885 -26 3891 0 
Q 4134 512 4246 1101 
Q 4358 1690 4410 2253 
L 2816 2170 
Q 2464 1178 1779 448 
Q 1235 -134 742 -384 
Q 550 -480 483 -480 
Q 416 -480 416 -435 
Q 416 -365 538 -282 
Q 1139 160 1683 880 
Q 2227 1600 2458 2394 
Q 2592 2867 2675 3354 
L 1069 3258 
Q 954 3245 851 3245 
Q 749 3245 649 3293 
Q 550 3341 461 3565 
Q 454 3578 454 3603 
Q 454 3648 506 3648 
z
" transform="scale(0.015625)"/>
      <path id="LXGWWenKai-Regular-7a0b" d="M 1466 4064 
Q 723 3834 579 3834 
Q 435 3834 435 3885 
Q 435 3949 633 4022 
Q 832 4096 1261 4297 
Q 1690 4499 2054 4742 
Q 2163 4806 2204 4896 
Q 2246 4986 2294 4986 
Q 2342 4986 2416 4906 
Q 2490 4826 2544 4730 
Q 2598 4634 2598 4605 
Q 2598 4576 2586 4557 
Q 2534 4467 1811 4186 
L 1811 3251 
L 2202 3277 
Q 2368 3296 2422 3315 
Q 2477 3334 2525 3334 
Q 2573 3334 2701 3244 
Q 2829 3155 2829 3075 
Q 2829 2995 2707 2982 
L 1811 2912 
L 1811 2509 
Q 1862 2560 1907 2560 
Q 1997 2560 2330 2227 
Q 2688 1888 2688 1795 
Q 2688 1702 2601 1635 
Q 2515 1568 2464 1568 
Q 2413 1568 2336 1664 
Q 2118 1978 1811 2266 
L 1818 -435 
Q 1818 -589 1702 -589 
Q 1645 -589 1568 -550 
Q 1402 -474 1402 -346 
Q 1402 -307 1421 -204 
Q 1440 -102 1440 128 
L 1440 294 
L 1453 1837 
Q 1453 1971 1472 2163 
L 1472 2234 
Q 1389 1914 1040 1402 
Q 691 890 496 701 
Q 301 512 250 512 
Q 211 512 211 563 
Q 211 614 275 717 
Q 947 1715 1389 2880 
L 838 2835 
Q 710 2822 649 2822 
Q 589 2822 493 2860 
Q 397 2899 314 3110 
Q 307 3130 307 3155 
Q 301 3194 346 3194 
L 614 3168 
L 685 3168 
L 1459 3226 
L 1466 4064 
z
M 3539 2880 
Q 3539 2746 3386 2746 
Q 3309 2746 3213 2803 
Q 3117 2861 3117 2957 
L 3117 2989 
Q 3130 3130 3130 3200 
L 3130 3315 
Q 3130 3354 3123 3379 
L 3034 4256 
Q 3027 4384 2966 4528 
Q 2906 4672 2906 4704 
Q 2906 4736 2979 4736 
Q 3053 4736 3398 4608 
L 5133 4710 
L 5184 4710 
Q 5293 4710 5385 4627 
Q 5478 4544 5478 4493 
Q 5478 4442 5462 4413 
Q 5446 4384 5440 4352 
L 5312 3398 
Q 5472 3213 5472 3142 
Q 5472 3072 5411 3062 
Q 5350 3053 5267 3046 
L 3533 2950 
L 3539 2893 
L 3539 2880 
z
M 5024 4358 
L 3411 4269 
L 3501 3309 
L 4928 3379 
L 5024 4358 
z
M 5581 141 
L 5888 186 
Q 5939 186 6022 134 
Q 6234 6 6234 -115 
Q 6234 -205 6067 -218 
L 2784 -307 
L 2688 -307 
Q 2547 -307 2454 -259 
Q 2362 -211 2304 45 
L 2304 77 
Q 2304 115 2333 115 
Q 2362 115 2435 92 
Q 2509 70 2688 70 
L 4032 102 
L 4038 986 
L 3443 960 
L 3309 954 
Q 3066 954 2982 1165 
Q 2944 1248 2944 1293 
Q 2944 1338 2976 1338 
Q 3008 1338 3072 1322 
Q 3136 1306 3264 1306 
L 3334 1306 
L 4045 1338 
L 4051 2048 
L 3232 2003 
L 3098 1997 
Q 2931 1997 2867 2074 
Q 2733 2234 2733 2355 
Q 2733 2387 2765 2387 
Q 2797 2387 2861 2371 
Q 2925 2355 3053 2355 
L 3123 2355 
L 5126 2458 
Q 5299 2477 5353 2493 
Q 5408 2509 5446 2509 
Q 5485 2509 5568 2458 
Q 5779 2323 5779 2208 
Q 5779 2138 5613 2125 
L 4448 2067 
L 4442 1350 
L 4986 1376 
Q 5158 1395 5212 1411 
Q 5267 1427 5302 1427 
Q 5338 1427 5414 1376 
Q 5632 1242 5632 1139 
Q 5632 1062 5472 1050 
L 4435 1005 
L 4429 115 
L 5581 141 
z
" transform="scale(0.015625)"/>
      <path id="LXGWWenKai-Regular-ff1a" d="M 1574 646 
Q 1709 646 1814 515 
Q 1920 384 1920 253 
Q 1920 122 1840 38 
Q 1760 -45 1606 -45 
Q 1453 -45 1350 86 
Q 1248 218 1248 355 
Q 1248 493 1344 569 
Q 1440 646 1574 646 
z
M 1574 3021 
Q 1709 3021 1814 2889 
Q 1920 2758 1920 2627 
Q 1920 2496 1840 2413 
Q 1760 2330 1606 2330 
Q 1453 2330 1350 2461 
Q 1248 2592 1248 2729 
Q 1248 2867 1344 2944 
Q 1440 3021 1574 3021 
z
" transform="scale(0.015625)"/>
     </defs>
     <use xlink:href="#LXGWWenKai-Regular-8d77"/>
     <use xlink:href="#LXGWWenKai-Regular-59cb" transform="translate(99.999985 0)"/>
     <use xlink:href="#LXGWWenKai-Regular-65b9" transform="translate(199.999969 0)"/>
     <use xlink:href="#LXGWWenKai-Regular-7a0b" transform="translate(299.999954 0)"/>
     <use xlink:href="#LXGWWenKai-Regular-ff1a" transform="translate(399.999939 0)"/>
    </g>
   </g>
   <g id="text_2">
    <!-- $(a^2 - c^2)$ -->
    <g style="fill: #e8837c" transform="translate(333.548848 124.3) scale(0.28 -0.28)">
     <defs>
      <path id="STIXGeneral-Regular-28" d="M 1946 -1030 
L 1869 -1133 
Q 1126 -710 716 32 
Q 307 774 307 1613 
Q 307 3386 1888 4326 
L 1946 4224 
Q 1293 3667 1075 3126 
Q 858 2586 858 1632 
Q 858 685 1082 96 
Q 1306 -493 1946 -1030 
z
" transform="scale(0.015625)"/>
      <path id="STIXGeneral-Italic-61" d="M 2963 710 
L 3046 640 
Q 2688 205 2518 70 
Q 2349 -64 2157 -64 
Q 1901 -64 1901 198 
Q 1901 358 2048 934 
Q 1690 397 1389 163 
Q 1088 -70 749 -70 
Q 467 -70 288 125 
Q 109 320 109 672 
Q 109 1158 387 1664 
Q 666 2170 1094 2496 
Q 1523 2822 1939 2822 
Q 2368 2822 2451 2451 
L 2522 2758 
L 2541 2778 
L 2931 2822 
L 2976 2803 
Q 2970 2778 2938 2669 
Q 2368 595 2368 346 
Q 2368 262 2458 262 
Q 2554 262 2790 525 
L 2963 710 
z
M 2336 2310 
Q 2336 2477 2240 2579 
Q 2144 2682 1978 2682 
Q 1542 2682 1139 2093 
Q 928 1779 787 1395 
Q 646 1011 646 717 
Q 646 243 1030 243 
Q 1408 243 1843 870 
Q 2336 1581 2336 2310 
z
" transform="scale(0.015625)"/>
      <path id="STIXGeneral-Regular-32" d="M 3034 877 
L 2688 0 
L 186 0 
L 186 77 
L 1325 1286 
Q 1773 1754 1965 2144 
Q 2157 2534 2157 2950 
Q 2157 3379 1920 3616 
Q 1683 3853 1267 3853 
Q 922 3853 720 3673 
Q 518 3494 326 3021 
L 192 3053 
Q 301 3648 630 3987 
Q 960 4326 1523 4326 
Q 2054 4326 2380 4006 
Q 2707 3686 2707 3200 
Q 2707 2477 1888 1613 
L 832 486 
L 2330 486 
Q 2541 486 2665 569 
Q 2790 653 2944 915 
L 3034 877 
z
" transform="scale(0.015625)"/>
      <path id="STIXGeneral-Regular-2212" d="M 3974 1408 
L 410 1408 
L 410 1830 
L 3974 1830 
L 3974 1408 
z
" transform="scale(0.015625)"/>
      <path id="STIXGeneral-Italic-63" d="M 2240 685 
L 2342 621 
Q 2048 250 1769 90 
Q 1491 -70 1133 -70 
Q 678 -70 435 179 
Q 192 429 192 915 
Q 192 1344 409 1744 
Q 627 2144 979 2432 
Q 1472 2822 2048 2822 
Q 2342 2822 2531 2675 
Q 2720 2528 2720 2304 
Q 2720 2176 2630 2086 
Q 2541 1997 2413 1997 
Q 2285 1997 2224 2070 
Q 2163 2144 2163 2253 
Q 2163 2310 2211 2403 
Q 2259 2496 2259 2560 
Q 2259 2688 2022 2688 
Q 1619 2688 1325 2381 
Q 742 1766 742 890 
Q 742 544 889 352 
Q 1037 160 1312 160 
Q 1562 160 1766 281 
Q 1971 403 2240 685 
z
" transform="scale(0.015625)"/>
      <path id="STIXGeneral-Regular-29" d="M 186 4224 
L 262 4326 
Q 992 3891 1408 3148 
Q 1824 2406 1824 1581 
Q 1824 -166 243 -1133 
L 186 -1030 
Q 845 -486 1059 54 
Q 1274 595 1274 1562 
Q 1274 2534 1059 3120 
Q 845 3706 186 4224 
z
" transform="scale(0.015625)"/>
     </defs>
     <use xlink:href="#STIXGeneral-Regular-28" transform="translate(0 0.409375)"/>
     <use xlink:href="#STIXGeneral-Italic-61" transform="translate(33.299988 0.409375)"/>
     <use xlink:href="#STIXGeneral-Regular-32" transform="translate(89.573104 35.684375) scale(0.7)"/>
     <use xlink:href="#STIXGeneral-Regular-2212" transform="translate(143.422464 0.409375)"/>
     <use xlink:href="#STIXGeneral-Italic-63" transform="translate(226.362445 0.409375)"/>
     <use xlink:href="#STIXGeneral-Regular-32" transform="translate(276.935564 35.684375) scale(0.7)"/>
     <use xlink:href="#STIXGeneral-Regular-29" transform="translate(316.344929 0.409375)"/>
    </g>
   </g>
   <g id="text_3">
    <!-- $x^2 + a^2 y^2 = a^2$ -->
    <g style="fill: #5d4e37" transform="translate(431.646133 123.88) scale(0.28 -0.28)">
     <defs>
      <path id="STIXGeneral-Italic-78" d="M 1555 2272 
L 1632 1907 
Q 1971 2426 2179 2624 
Q 2387 2822 2598 2822 
Q 2714 2822 2787 2755 
Q 2861 2688 2861 2585 
Q 2861 2483 2800 2419 
Q 2739 2355 2643 2355 
Q 2586 2355 2490 2409 
Q 2394 2464 2310 2464 
Q 2125 2464 1683 1690 
Q 1683 1606 1734 1402 
L 1939 544 
Q 2003 282 2131 282 
Q 2234 282 2432 538 
Q 2451 563 2476 598 
Q 2502 634 2521 662 
Q 2541 691 2566 717 
L 2662 659 
Q 2387 230 2227 80 
Q 2067 -70 1882 -70 
Q 1728 -70 1645 26 
Q 1562 122 1504 365 
L 1318 1126 
L 755 365 
Q 557 96 432 13 
Q 307 -70 147 -70 
Q 0 -70 -86 0 
Q -173 70 -173 198 
Q -173 294 -112 361 
Q -51 429 45 429 
Q 122 429 250 358 
Q 346 301 416 301 
Q 525 301 742 614 
L 1267 1357 
L 1088 2150 
Q 1024 2432 969 2509 
Q 915 2586 794 2586 
Q 717 2586 544 2541 
L 429 2509 
L 410 2611 
L 480 2637 
Q 992 2822 1229 2822 
Q 1350 2822 1420 2707 
Q 1491 2592 1555 2272 
z
" transform="scale(0.015625)"/>
      <path id="STIXGeneral-Regular-2b" d="M 4070 1408 
L 2400 1408 
L 2400 -262 
L 1978 -262 
L 1978 1408 
L 307 1408 
L 307 1830 
L 1978 1830 
L 1978 3501 
L 2400 3501 
L 2400 1830 
L 4070 1830 
L 4070 1408 
z
" transform="scale(0.015625)"/>
      <path id="STIXGeneral-Italic-79" d="M 1555 1190 
L 1690 486 
Q 2118 1190 2294 1558 
Q 2470 1926 2470 2131 
Q 2470 2234 2304 2336 
Q 2138 2445 2138 2586 
Q 2138 2688 2211 2755 
Q 2285 2822 2394 2822 
Q 2534 2822 2630 2720 
Q 2726 2618 2726 2470 
Q 2726 1914 1888 518 
Q 1389 -307 918 -812 
Q 448 -1318 173 -1318 
Q 26 -1318 -64 -1241 
Q -154 -1165 -154 -1043 
Q -154 -934 -80 -860 
Q -6 -787 96 -787 
Q 218 -787 314 -876 
Q 410 -966 486 -966 
Q 602 -966 794 -755 
Q 877 -672 1040 -457 
Q 1203 -243 1248 -173 
Q 1312 -45 1312 51 
Q 1312 243 1113 1046 
Q 915 1850 787 2176 
Q 698 2413 592 2499 
Q 486 2586 294 2586 
Q 192 2586 96 2560 
L 96 2669 
Q 237 2694 301 2707 
Q 563 2758 986 2822 
L 1011 2822 
Q 1082 2822 1277 2227 
Q 1472 1632 1555 1190 
z
" transform="scale(0.015625)"/>
      <path id="STIXGeneral-Regular-3d" d="M 4077 2048 
L 307 2048 
L 307 2470 
L 4077 2470 
L 4077 2048 
z
M 4077 768 
L 307 768 
L 307 1190 
L 4077 1190 
L 4077 768 
z
" transform="scale(0.015625)"/>
     </defs>
     <use xlink:href="#STIXGeneral-Italic-78" transform="translate(0 0.409375)"/>
     <use xlink:href="#STIXGeneral-Regular-32" transform="translate(50.573119 35.684375) scale(0.7)"/>
     <use xlink:href="#STIXGeneral-Regular-2b" transform="translate(104.42248 0.409375)"/>
     <use xlink:href="#STIXGeneral-Italic-61" transform="translate(187.362461 0.409375)"/>
     <use xlink:href="#STIXGeneral-Regular-32" transform="translate(243.635576 35.684375) scale(0.7)"/>
     <use xlink:href="#STIXGeneral-Italic-79" transform="translate(283.044941 0.409375)"/>
     <use xlink:href="#STIXGeneral-Regular-32" transform="translate(333.61806 35.684375) scale(0.7)"/>
     <use xlink:href="#STIXGeneral-Regular-3d" transform="translate(387.46742 0.409375)"/>
     <use xlink:href="#STIXGeneral-Italic-61" transform="translate(470.407401 0.409375)"/>
     <use xlink:href="#STIXGeneral-Regular-32" transform="translate(526.680517 35.684375) scale(0.7)"/>
    </g>
   </g>
   <g id="text_4">
    <!-- $(a^2 - c^2)$ -->
    <g style="fill: #e8837c" transform="translate(590.753867 124.3) scale(0.28 -0.28)">
     <use xlink:href="#STIXGeneral-Regular-28" transform="translate(0 0.409375)"/>
     <use xlink:href="#STIXGeneral-Italic-61" transform="translate(33.299988 0.409375)"/>
     <use xlink:href="#STIXGeneral-Regular-32" transform="translate(89.573104 35.684375) scale(0.7)"/>
     <use xlink:href="#STIXGeneral-Regular-2212" transform="translate(143.422464 0.409375)"/>
     <use xlink:href="#STIXGeneral-Italic-63" transform="translate(226.362445 0.409375)"/>
     <use xlink:href="#STIXGeneral-Regular-32" transform="translate(276.935564 35.684375) scale(0.7)"/>
     <use xlink:href="#STIXGeneral-Regular-29" transform="translate(316.344929 0.409375)"/>
    </g>
   </g>
   <g id="text_5">
    <!-- 令  -->
    <g style="fill: #5d4e37" transform="translate(444.734986 229.700312) scale(0.22 -0.22)">
     <defs>
      <path id="LXGWWenKai-Regular-4ee4" d="M 3072 5318 
Q 3206 5318 3430 5120 
Q 3514 5043 3514 4982 
Q 3514 4922 3366 4685 
Q 4544 3226 6259 2304 
Q 6355 2259 6355 2208 
Q 6355 2182 6298 2112 
Q 6125 1914 5997 1914 
Q 5965 1914 5779 2022 
Q 5312 2298 4569 2915 
Q 3827 3533 3155 4346 
Q 2259 3046 998 2144 
Q 698 1926 493 1817 
Q 288 1709 233 1709 
Q 179 1709 179 1773 
Q 179 1837 320 1952 
Q 1427 2829 2253 3872 
Q 2669 4403 2957 4954 
Q 3014 5069 3014 5203 
L 3014 5235 
Q 3014 5318 3072 5318 
z
M 2330 2957 
Q 2330 3181 2486 3181 
Q 2643 3181 3219 2973 
Q 3795 2765 3948 2701 
Q 4102 2637 4102 2541 
Q 4102 2445 4038 2352 
Q 3974 2259 3920 2259 
Q 3866 2259 3686 2342 
Q 3258 2554 2451 2816 
Q 2330 2854 2330 2957 
z
M 2413 845 
Q 2579 845 3200 378 
Q 3757 870 4371 1613 
L 1914 1498 
L 1715 1491 
Q 1555 1491 1510 1581 
Q 1370 1792 1370 1846 
Q 1370 1901 1402 1901 
Q 1434 1901 1517 1881 
Q 1600 1862 1734 1862 
L 1792 1862 
L 4678 2010 
L 4762 2010 
Q 4909 2010 4976 1923 
Q 5043 1837 5043 1779 
Q 5043 1722 5004 1680 
Q 4966 1638 4787 1421 
Q 4384 934 3533 141 
Q 4038 -211 4083 -265 
Q 4128 -320 4128 -361 
Q 4128 -403 4083 -474 
Q 3968 -666 3866 -666 
Q 3821 -666 3738 -595 
Q 3098 -19 2310 493 
Q 2208 557 2208 614 
Q 2208 672 2259 758 
Q 2310 845 2413 845 
z
" transform="scale(0.015625)"/>
      <path id="LXGWWenKai-Regular-20" transform="scale(0.015625)"/>
     </defs>
     <use xlink:href="#LXGWWenKai-Regular-4ee4"/>
     <use xlink:href="#LXGWWenKai-Regular-20" transform="translate(99.999985 0)"/>
    </g>
   </g>
   <g id="text_6">
    <!-- $a^2 - c^2$ -->
    <g style="fill: #e8837c" transform="translate(474.344986 229.085) scale(0.22 -0.22)">
     <use xlink:href="#STIXGeneral-Italic-61" transform="translate(0 0.409375)"/>
     <use xlink:href="#STIXGeneral-Regular-32" transform="translate(56.273116 35.684375) scale(0.7)"/>
     <use xlink:href="#STIXGeneral-Regular-2212" transform="translate(110.122477 0.409375)"/>
     <use xlink:href="#STIXGeneral-Italic-63" transform="translate(193.062458 0.409375)"/>
     <use xlink:href="#STIXGeneral-Regular-32" transform="translate(243.635576 35.684375) scale(0.7)"/>
    </g>
   </g>
   <g id="text_7">
    <!-- $ = $ -->
    <g style="fill: #5d4e37" transform="translate(536.705701 229.085) scale(0.22 -0.22)">
     <use xlink:href="#STIXGeneral-Regular-3d" transform="translate(14.439996 0.40625)"/>
    </g>
   </g>
   <g id="text_8">
    <!-- $b^2$ -->
    <g style="fill: #4a90d9" transform="translate(555.356724 229.085) scale(0.22 -0.22)">
     <defs>
      <path id="STIXGeneral-Italic-62" d="M 1043 1856 
L 1050 1856 
Q 1370 2387 1654 2604 
Q 1939 2822 2285 2822 
Q 2618 2822 2822 2617 
Q 3027 2413 3027 2054 
Q 3027 1562 2726 1062 
Q 2426 563 1942 246 
Q 1459 -70 979 -70 
Q 685 -70 416 32 
Q 147 134 147 269 
L 147 307 
L 1056 3654 
Q 1114 3885 1114 3955 
Q 1114 4058 1053 4080 
Q 992 4102 704 4115 
L 704 4224 
Q 1184 4282 1683 4371 
L 1715 4339 
L 1581 3814 
L 1043 1856 
z
M 2483 1958 
Q 2483 2509 2035 2509 
Q 1594 2509 1158 1773 
Q 954 1427 826 1008 
Q 698 589 698 294 
Q 698 77 992 77 
Q 1414 77 1779 454 
Q 2074 762 2278 1187 
Q 2483 1613 2483 1958 
z
" transform="scale(0.015625)"/>
     </defs>
     <use xlink:href="#STIXGeneral-Italic-62" transform="translate(0 0.409375)"/>
     <use xlink:href="#STIXGeneral-Regular-32" transform="translate(61.255766 35.684375) scale(0.7)"/>
    </g>
   </g>
   <g id="text_9">
    <!-- 代入后： -->
    <g style="fill: #5d4e37" transform="translate(475.2 273.6) scale(0.18 -0.18)">
     <defs>
      <path id="LXGWWenKai-Regular-4ee3" d="M 6157 998 
Q 6131 582 6048 137 
Q 5965 -307 5885 -416 
Q 5805 -525 5680 -525 
Q 5555 -525 5308 -381 
Q 5062 -237 4890 -64 
Q 4032 781 3693 2138 
Q 3610 2477 3558 2733 
L 2630 2586 
Q 2566 2573 2496 2573 
Q 2355 2573 2195 2848 
L 2182 2886 
Q 2182 2931 2240 2931 
L 2253 2931 
Q 2285 2925 2310 2925 
L 2394 2925 
Q 2458 2925 2573 2944 
L 3494 3085 
Q 3341 4019 3322 4640 
Q 3309 4826 3235 4934 
Q 3162 5043 3162 5075 
Q 3162 5133 3242 5133 
Q 3322 5133 3430 5114 
Q 3725 5062 3725 4864 
Q 3744 4115 3904 3149 
L 5325 3366 
Q 5440 3386 5488 3411 
Q 5536 3437 5577 3437 
Q 5619 3437 5696 3392 
Q 5888 3270 5888 3177 
Q 5888 3085 5722 3066 
L 3974 2797 
Q 4038 2515 4115 2176 
Q 4192 1837 4390 1402 
Q 4832 454 5517 26 
Q 5549 6 5574 6 
Q 5632 6 5763 416 
Q 5894 826 5955 1078 
Q 6016 1331 6086 1331 
Q 6157 1331 6157 1088 
L 6157 998 
z
M 1523 2970 
Q 979 2298 461 1920 
Q 269 1773 224 1773 
Q 179 1773 179 1824 
Q 179 1875 262 1965 
Q 864 2605 1296 3238 
Q 1728 3872 2061 4666 
Q 2099 4755 2099 4819 
L 2099 4902 
Q 2099 4922 2093 4947 
L 2093 4973 
Q 2093 5043 2153 5043 
Q 2214 5043 2317 4986 
Q 2579 4832 2579 4736 
Q 2579 4640 2342 4214 
Q 2106 3789 1901 3488 
L 1907 -358 
Q 1907 -493 1798 -493 
Q 1651 -493 1552 -393 
Q 1453 -294 1453 -233 
Q 1453 -173 1475 -80 
Q 1498 13 1498 243 
L 1523 2970 
z
M 5216 3833 
Q 5216 3744 5133 3670 
Q 5050 3597 4995 3597 
Q 4941 3597 4890 3661 
Q 4474 4154 4122 4461 
Q 4064 4512 4064 4560 
Q 4064 4608 4131 4685 
Q 4198 4762 4268 4762 
Q 4339 4762 4777 4342 
Q 5216 3923 5216 3833 
z
" transform="scale(0.015625)"/>
      <path id="LXGWWenKai-Regular-5165" d="M 3251 2829 
Q 2515 1382 1600 486 
Q 1126 32 557 -358 
Q 416 -448 358 -448 
Q 301 -448 301 -377 
Q 301 -307 467 -154 
Q 1594 896 2291 2010 
Q 2688 2643 2989 3424 
Q 2797 3949 2723 4182 
Q 2650 4416 2595 4547 
Q 2541 4678 2483 4736 
Q 2426 4794 2336 4845 
Q 2272 4870 2272 4915 
Q 2272 5011 2502 5011 
Q 2733 5011 2832 4966 
Q 2931 4922 2972 4803 
Q 3014 4685 3059 4525 
Q 3379 3469 3811 2685 
Q 4243 1901 4851 1222 
Q 5459 544 6310 -102 
Q 6355 -134 6355 -182 
Q 6355 -230 6272 -288 
Q 6067 -422 5971 -422 
Q 5875 -422 5843 -390 
Q 4922 390 4298 1174 
Q 3674 1958 3251 2829 
z
" transform="scale(0.015625)"/>
      <path id="LXGWWenKai-Regular-540e" d="M 1389 3770 
Q 1389 4013 1353 4118 
Q 1318 4224 1318 4285 
Q 1318 4346 1420 4346 
Q 1523 4346 1843 4186 
Q 2656 4346 3258 4550 
Q 4314 4915 4525 5126 
Q 4550 5152 4588 5152 
Q 4627 5152 4704 5094 
Q 4909 4941 4909 4800 
Q 4909 4730 4813 4685 
Q 3283 4064 1830 3872 
Q 1824 3680 1821 3481 
Q 1818 3283 1805 3078 
L 5222 3270 
Q 5421 3290 5475 3312 
Q 5530 3334 5562 3334 
Q 5594 3334 5683 3277 
Q 5914 3110 5914 3002 
Q 5914 2925 5747 2912 
L 1786 2701 
Q 1760 2304 1686 1865 
Q 1613 1427 1411 1001 
Q 1210 576 976 265 
Q 742 -45 547 -217 
Q 352 -390 294 -390 
Q 237 -390 237 -332 
Q 237 -275 403 -70 
Q 570 134 768 486 
Q 1184 1254 1286 1958 
Q 1389 2573 1389 3770 
z
M 2208 -339 
Q 2227 -205 2227 -166 
L 2227 13 
Q 2227 51 2221 96 
L 2125 1357 
Q 2112 1581 2057 1680 
Q 2003 1779 2003 1824 
Q 2003 1869 2096 1869 
Q 2189 1869 2528 1734 
L 4794 1862 
L 4870 1862 
Q 5037 1862 5117 1772 
Q 5197 1683 5197 1632 
Q 5197 1581 5174 1545 
Q 5152 1510 5146 1478 
L 4960 205 
Q 5126 0 5126 -64 
Q 5126 -128 5068 -137 
Q 5011 -147 4922 -154 
L 2650 -218 
L 2669 -448 
L 2669 -467 
Q 2669 -621 2544 -621 
Q 2419 -621 2313 -537 
Q 2208 -454 2208 -339 
z
M 4704 1491 
L 2534 1382 
L 2624 134 
L 4557 205 
L 4704 1491 
z
" transform="scale(0.015625)"/>
     </defs>
     <use xlink:href="#LXGWWenKai-Regular-4ee3"/>
     <use xlink:href="#LXGWWenKai-Regular-5165" transform="translate(99.999985 0)"/>
     <use xlink:href="#LXGWWenKai-Regular-540e" transform="translate(199.999969 0)"/>
     <use xlink:href="#LXGWWenKai-Regular-ff1a" transform="translate(299.999954 0)"/>
    </g>
   </g>
   <g id="text_10">
    <!-- $b^2$ -->
    <g style="fill: #4a90d9" transform="translate(395.980444 339.225) scale(0.3 -0.3)">
     <use xlink:href="#STIXGeneral-Italic-62" transform="translate(0 0.409375)"/>
     <use xlink:href="#STIXGeneral-Regular-32" transform="translate(61.255766 35.684375) scale(0.7)"/>
    </g>
   </g>
   <g id="text_11">
    <!-- $x^2 + a^2 y^2 = a^2$ -->
    <g style="fill: #5d4e37" transform="translate(425.962583 340.5) scale(0.3 -0.3)">
     <use xlink:href="#STIXGeneral-Italic-78" transform="translate(0 0.409375)"/>
     <use xlink:href="#STIXGeneral-Regular-32" transform="translate(50.573119 35.684375) scale(0.7)"/>
     <use xlink:href="#STIXGeneral-Regular-2b" transform="translate(104.42248 0.409375)"/>
     <use xlink:href="#STIXGeneral-Italic-61" transform="translate(187.362461 0.409375)"/>
     <use xlink:href="#STIXGeneral-Regular-32" transform="translate(243.635576 35.684375) scale(0.7)"/>
     <use xlink:href="#STIXGeneral-Italic-79" transform="translate(283.044941 0.409375)"/>
     <use xlink:href="#STIXGeneral-Regular-32" transform="translate(333.61806 35.684375) scale(0.7)"/>
     <use xlink:href="#STIXGeneral-Regular-3d" transform="translate(387.46742 0.409375)"/>
     <use xlink:href="#STIXGeneral-Italic-61" transform="translate(470.407401 0.409375)"/>
     <use xlink:href="#STIXGeneral-Regular-32" transform="translate(526.680517 35.684375) scale(0.7)"/>
    </g>
   </g>
   <g id="text_12">
    <!-- $b^2$ -->
    <g style="fill: #4a90d9" transform="translate(596.437417 339.225) scale(0.3 -0.3)">
     <use xlink:href="#STIXGeneral-Italic-62" transform="translate(0 0.409375)"/>
     <use xlink:href="#STIXGeneral-Regular-32" transform="translate(61.255766 35.684375) scale(0.7)"/>
    </g>
   </g>
   <g id="text_13">
    <!-- 两边同除以 $a^2 b^2$ -->
    <g style="fill: #5d4e37" transform="translate(438 424.8) scale(0.2 -0.2)">
     <defs>
      <path id="LXGWWenKai-Regular-4e24" d="M 5555 19 
L 5562 -218 
Q 5562 -410 5446 -499 
Q 5331 -589 5248 -589 
Q 5165 -589 4883 -438 
Q 4602 -288 4413 -128 
Q 4224 32 4147 144 
Q 4070 256 4070 285 
Q 4070 314 4131 314 
Q 4192 314 4346 224 
Q 4698 19 5133 -70 
L 5139 2970 
L 4154 2925 
Q 4122 2598 4077 2406 
Q 4314 2176 4525 1910 
Q 4736 1645 4902 1434 
Q 4947 1370 4947 1318 
Q 4947 1267 4876 1180 
Q 4806 1094 4726 1094 
Q 4646 1094 4582 1197 
Q 4307 1658 3987 2035 
Q 3789 1286 3360 758 
Q 2931 230 2803 230 
Q 2752 230 2752 284 
Q 2752 339 2829 448 
Q 3642 1562 3770 2906 
L 2675 2848 
Q 2650 2630 2618 2490 
Q 2854 2259 2979 2096 
Q 3104 1933 3270 1722 
Q 3315 1658 3315 1606 
Q 3315 1555 3241 1468 
Q 3168 1382 3091 1382 
Q 3014 1382 2921 1529 
Q 2829 1677 2745 1817 
Q 2662 1958 2528 2118 
Q 2330 1370 1901 842 
Q 1472 314 1344 314 
Q 1293 314 1293 368 
Q 1293 422 1370 531 
Q 2131 1562 2298 2829 
L 1222 2778 
L 1242 -454 
Q 1242 -608 1146 -608 
Q 1107 -608 1024 -576 
Q 941 -544 873 -477 
Q 806 -410 806 -352 
L 806 -269 
Q 806 -243 819 -112 
Q 832 19 832 333 
L 832 2515 
Q 832 2970 717 3232 
Q 710 3258 710 3277 
Q 710 3322 784 3322 
Q 858 3322 1254 3142 
L 2336 3200 
Q 2368 3629 2381 4192 
L 1082 4128 
Q 954 4115 890 4115 
Q 826 4115 755 4134 
Q 576 4173 499 4454 
Q 493 4467 493 4489 
Q 493 4512 525 4512 
L 544 4512 
Q 723 4480 819 4480 
L 3789 4640 
Q 3808 4659 3849 4659 
Q 3891 4659 3949 4646 
L 5133 4710 
Q 5312 4723 5395 4745 
Q 5478 4768 5532 4768 
Q 5587 4768 5667 4701 
Q 5747 4634 5798 4560 
Q 5850 4486 5850 4461 
Q 5850 4378 5709 4365 
L 4237 4288 
Q 4218 3821 4186 3302 
L 5235 3360 
L 5293 3360 
Q 5331 3360 5414 3328 
Q 5619 3232 5619 3104 
Q 5619 3059 5593 3017 
Q 5568 2976 5568 2925 
L 5555 19 
z
M 3840 4269 
L 2778 4218 
Q 2752 3674 2714 3219 
L 3802 3283 
Q 3827 3712 3840 4269 
z
" transform="scale(0.015625)"/>
      <path id="LXGWWenKai-Regular-8fb9" d="M 390 3072 
Q 518 3046 589 3046 
L 698 3046 
Q 730 3046 755 3053 
L 1658 3149 
Q 1747 3162 1820 3162 
Q 1894 3162 1974 3088 
Q 2054 3014 2054 2950 
Q 2054 2886 1990 2819 
Q 1926 2752 1830 2630 
Q 1344 2035 1344 1952 
Q 1344 1933 1376 1914 
Q 1651 1754 1907 1523 
Q 2029 1421 2029 1283 
Q 2029 1146 1881 982 
Q 1734 819 1466 582 
Q 1645 563 2445 416 
Q 3245 269 4189 128 
Q 5133 -13 6016 -13 
L 6048 -13 
Q 6189 -13 6189 -77 
Q 6189 -83 6153 -172 
Q 6118 -262 6044 -348 
Q 5971 -435 5856 -435 
L 5824 -435 
Q 5018 -410 4096 -262 
Q 2662 -19 2163 83 
Q 1664 186 1513 208 
Q 1363 230 1120 230 
Q 877 230 665 163 
Q 454 96 432 96 
Q 410 96 365 109 
Q 237 141 237 365 
Q 237 499 493 538 
Q 646 563 947 589 
Q 1594 1178 1594 1274 
Q 1594 1293 1450 1417 
Q 1306 1542 1107 1651 
Q 934 1766 934 1891 
Q 934 2016 1094 2246 
Q 1254 2477 1472 2771 
L 883 2694 
Q 794 2682 701 2682 
Q 608 2682 550 2720 
Q 352 2886 352 3034 
Q 352 3072 390 3072 
z
M 1782 4064 
Q 1869 3974 1917 3926 
Q 1965 3878 1965 3808 
Q 1965 3738 1869 3654 
Q 1773 3571 1709 3571 
Q 1645 3571 1504 3738 
Q 1171 4141 794 4486 
Q 717 4563 717 4611 
Q 717 4659 793 4729 
Q 870 4800 921 4800 
Q 973 4800 1078 4720 
Q 1184 4640 1318 4518 
Q 1453 4397 1574 4275 
Q 1696 4154 1782 4064 
z
M 3853 5050 
Q 3853 5126 3917 5126 
Q 3981 5126 4086 5078 
Q 4192 5030 4278 4953 
Q 4365 4877 4365 4816 
Q 4365 4755 4352 4704 
L 4326 4602 
Q 4243 4186 4134 3795 
L 5171 3878 
Q 5210 3885 5235 3885 
L 5293 3885 
Q 5414 3885 5497 3811 
Q 5581 3738 5581 3677 
Q 5581 3616 5558 3574 
Q 5536 3533 5530 3501 
Q 5408 2694 5344 2214 
Q 5280 1734 5190 1321 
Q 5101 909 4985 729 
Q 4870 550 4707 550 
Q 4544 550 4157 841 
Q 3770 1133 3606 1312 
Q 3443 1491 3443 1539 
Q 3443 1587 3507 1587 
Q 3571 1587 3654 1536 
Q 4109 1254 4576 1069 
Q 4589 1062 4617 1062 
Q 4646 1062 4646 1088 
Q 4742 1318 4816 1686 
Q 4890 2054 4966 2428 
Q 5043 2803 5107 3494 
L 4006 3405 
Q 3840 2906 3622 2451 
Q 3130 1434 2291 781 
Q 2163 678 2102 678 
Q 2042 678 2042 742 
Q 2042 806 2170 947 
Q 2963 1798 3398 2982 
Q 3475 3181 3539 3366 
L 2822 3309 
Q 2694 3296 2595 3296 
Q 2496 3296 2458 3328 
Q 2336 3430 2285 3532 
Q 2234 3635 2234 3670 
Q 2234 3706 2278 3706 
Q 2304 3706 2374 3690 
Q 2445 3674 2566 3674 
L 3654 3757 
Q 3782 4198 3830 4512 
Q 3878 4826 3878 4864 
Q 3878 4902 3853 5050 
z
" transform="scale(0.015625)"/>
      <path id="LXGWWenKai-Regular-540c" d="M 5421 -32 
L 5440 -262 
Q 5440 -390 5350 -483 
Q 5261 -576 5177 -576 
Q 5094 -576 4941 -499 
Q 4627 -358 4230 -73 
Q 3834 211 3834 320 
Q 3834 378 3894 378 
Q 3955 378 4147 294 
Q 4704 32 5030 -45 
L 5005 4378 
L 1427 4192 
L 1414 -403 
Q 1414 -576 1280 -576 
Q 1146 -576 1056 -486 
Q 966 -397 966 -288 
L 966 -243 
Q 966 -224 988 -118 
Q 1011 -13 1011 173 
L 1030 4173 
Q 1030 4435 976 4524 
Q 922 4614 922 4662 
Q 922 4710 1018 4710 
Q 1114 4710 1446 4557 
L 5088 4755 
L 5165 4755 
Q 5267 4755 5350 4681 
Q 5434 4608 5434 4518 
L 5402 4390 
L 5421 -32 
z
M 2432 3187 
L 2240 3181 
Q 2118 3181 2080 3213 
Q 1869 3386 1869 3533 
Q 1869 3571 1901 3571 
Q 1933 3571 2003 3555 
Q 2074 3539 2214 3539 
L 2298 3539 
L 3872 3616 
Q 4019 3629 4105 3657 
Q 4192 3686 4230 3686 
Q 4269 3686 4352 3629 
Q 4557 3482 4557 3386 
Q 4557 3309 4429 3296 
L 2432 3187 
z
M 2189 2170 
Q 2170 2406 2118 2496 
Q 2067 2586 2067 2621 
Q 2067 2656 2160 2656 
Q 2253 2656 2573 2541 
L 3955 2624 
L 4019 2624 
Q 4141 2624 4230 2547 
Q 4320 2470 4320 2412 
Q 4320 2355 4301 2326 
Q 4282 2298 4275 2266 
L 4166 1408 
Q 4339 1210 4339 1146 
Q 4339 1082 4284 1069 
Q 4230 1056 4147 1050 
L 2675 992 
L 2682 909 
L 2682 890 
Q 2682 736 2560 736 
L 2483 755 
Q 2406 768 2329 825 
Q 2253 883 2253 992 
L 2253 1024 
Q 2266 1139 2266 1248 
L 2259 1382 
L 2189 2170 
z
M 3866 2266 
L 2586 2195 
L 2650 1338 
L 3789 1382 
L 3866 2266 
z
" transform="scale(0.015625)"/>
      <path id="LXGWWenKai-Regular-9664" d="M 3021 3008 
Q 3136 2970 3309 2970 
L 3360 2970 
L 4467 3027 
Q 4589 3034 4662 3056 
Q 4736 3078 4790 3078 
Q 4845 3078 4921 3020 
Q 4998 2963 5049 2899 
Q 5101 2835 5101 2803 
Q 5101 2733 4941 2720 
L 4192 2688 
L 4198 2054 
L 5082 2099 
Q 5235 2112 5286 2134 
Q 5338 2157 5392 2157 
Q 5446 2157 5520 2102 
Q 5594 2048 5645 1984 
Q 5696 1920 5696 1888 
Q 5696 1805 5536 1792 
L 4198 1722 
L 4211 -160 
L 4224 -358 
Q 4224 -454 4147 -540 
Q 4070 -627 3974 -627 
Q 3878 -627 3673 -508 
Q 3469 -390 3209 -150 
Q 2950 90 2950 154 
Q 2950 192 3008 192 
Q 3066 192 3302 70 
Q 3539 -51 3821 -141 
L 3808 1702 
L 2835 1651 
L 2682 1645 
L 2650 1645 
Q 2509 1645 2419 1850 
Q 2374 1939 2374 1980 
Q 2374 2022 2400 2022 
Q 2426 2022 2480 2003 
Q 2534 1984 2694 1984 
L 2765 1984 
L 3808 2035 
L 3802 2669 
L 3443 2650 
L 3283 2643 
Q 3181 2643 3149 2675 
L 3110 2714 
L 3046 2803 
Q 2976 2893 2976 2963 
Q 2650 2637 2227 2310 
Q 2234 2278 2234 2240 
L 2234 2176 
Q 2234 1894 2154 1772 
Q 2074 1651 1994 1622 
Q 1914 1594 1907 1594 
Q 1773 1594 1469 1910 
Q 1165 2227 1165 2330 
Q 1165 2368 1213 2368 
Q 1261 2368 1507 2208 
Q 1754 2048 1818 2048 
Q 1856 2048 1856 2243 
Q 1856 2438 1782 2665 
Q 1709 2893 1453 3181 
Q 1376 3264 1376 3363 
Q 1376 3462 1485 3622 
Q 1594 3782 1882 4378 
L 1133 4314 
L 1069 -397 
Q 1069 -570 954 -570 
Q 877 -570 761 -493 
Q 646 -416 646 -320 
L 646 -288 
Q 646 -269 668 -163 
Q 691 -58 691 128 
L 742 4275 
Q 742 4486 700 4595 
Q 659 4704 659 4755 
Q 659 4806 748 4806 
Q 838 4806 1171 4653 
L 2042 4730 
L 2125 4736 
Q 2240 4736 2313 4649 
Q 2387 4563 2387 4524 
Q 2387 4486 2355 4454 
Q 2323 4422 2169 4131 
Q 2016 3840 1741 3424 
Q 1728 3398 1728 3372 
Q 1728 3347 1824 3241 
Q 1920 3136 2032 2941 
Q 2144 2746 2189 2522 
Q 3142 3475 3693 4685 
Q 3763 4838 3763 4976 
Q 3763 5114 3840 5114 
Q 3866 5114 3968 5075 
Q 4250 4966 4250 4832 
Q 4250 4787 4224 4736 
L 4134 4557 
Q 5197 3347 6221 2598 
Q 6291 2554 6291 2515 
Q 6291 2477 6198 2361 
Q 6106 2246 6016 2246 
Q 5926 2246 5555 2592 
Q 4698 3392 3955 4243 
Q 3539 3539 3021 3008 
z
M 2880 1350 
Q 2880 1434 2934 1434 
Q 2989 1434 3085 1382 
Q 3181 1331 3257 1260 
Q 3334 1190 3334 1142 
Q 3334 1094 3302 1043 
Q 3021 614 2742 352 
Q 2464 90 2262 -28 
Q 2061 -147 2009 -147 
Q 1958 -147 1958 -92 
Q 1958 -38 2138 147 
Q 2528 550 2829 1075 
Q 2880 1165 2880 1286 
L 2880 1350 
z
M 5443 832 
Q 5670 589 5811 403 
Q 5952 218 5952 150 
Q 5952 83 5849 -3 
Q 5747 -90 5683 -90 
Q 5619 -90 5542 26 
Q 5197 563 4704 1088 
Q 4640 1152 4640 1209 
Q 4640 1267 4713 1331 
Q 4787 1395 4835 1395 
Q 4883 1395 5049 1235 
Q 5216 1075 5443 832 
z
" transform="scale(0.015625)"/>
      <path id="LXGWWenKai-Regular-4ee5" d="M 4442 1638 
Q 4973 1190 5350 800 
Q 5728 410 5846 262 
Q 5965 115 5965 51 
Q 5965 -13 5907 -80 
Q 5850 -147 5782 -192 
Q 5715 -237 5676 -237 
Q 5638 -237 5568 -147 
Q 4877 768 4237 1325 
Q 3738 621 2982 115 
Q 2682 -83 2470 -185 
Q 2259 -288 2221 -288 
Q 2157 -288 2157 -217 
Q 2157 -147 2310 -38 
Q 3520 819 4067 1785 
Q 4614 2752 4838 4083 
Q 4883 4352 4883 4438 
Q 4883 4525 4860 4592 
Q 4838 4659 4838 4678 
Q 4838 4730 4899 4730 
Q 4960 4730 5075 4698 
Q 5382 4621 5382 4467 
Q 5382 4160 5043 3040 
Q 4787 2227 4454 1658 
L 4442 1638 
z
M 1242 4102 
Q 1242 4275 1181 4355 
Q 1120 4435 1120 4473 
Q 1120 4512 1190 4512 
Q 1261 4512 1370 4480 
Q 1664 4397 1664 4262 
L 1658 1126 
Q 2208 1478 2931 2035 
Q 3034 2118 3094 2118 
Q 3155 2118 3155 2048 
Q 3155 1933 2566 1398 
Q 1978 864 1501 512 
Q 1024 160 922 160 
Q 755 160 582 384 
L 493 493 
Q 480 518 480 525 
Q 480 557 589 576 
Q 870 634 1235 870 
L 1242 4102 
z
M 3408 3328 
Q 3552 3187 3645 3075 
Q 3738 2963 3738 2924 
Q 3738 2886 3693 2822 
Q 3571 2650 3475 2650 
Q 3379 2650 3302 2758 
Q 2880 3315 2419 3725 
Q 2336 3795 2336 3840 
Q 2336 3885 2397 3961 
Q 2458 4038 2541 4038 
Q 2624 4038 2678 3990 
Q 2733 3942 2848 3843 
Q 2963 3744 3113 3606 
Q 3264 3469 3408 3328 
z
" transform="scale(0.015625)"/>
     </defs>
     <use xlink:href="#LXGWWenKai-Regular-4e24" transform="translate(0 0.409375)"/>
     <use xlink:href="#LXGWWenKai-Regular-8fb9" transform="translate(99.999985 0.409375)"/>
     <use xlink:href="#LXGWWenKai-Regular-540c" transform="translate(199.999969 0.409375)"/>
     <use xlink:href="#LXGWWenKai-Regular-9664" transform="translate(299.999954 0.409375)"/>
     <use xlink:href="#LXGWWenKai-Regular-4ee5" transform="translate(399.999939 0.409375)"/>
     <use xlink:href="#LXGWWenKai-Regular-20" transform="translate(499.999924 0.409375)"/>
     <use xlink:href="#STIXGeneral-Italic-61" transform="translate(534.999908 0.409375)"/>
     <use xlink:href="#STIXGeneral-Regular-32" transform="translate(591.273024 35.684375) scale(0.7)"/>
     <use xlink:href="#STIXGeneral-Italic-62" transform="translate(630.682389 0.409375)"/>
     <use xlink:href="#STIXGeneral-Regular-32" transform="translate(691.938155 35.684375) scale(0.7)"/>
    </g>
   </g>
   <g id="text_14">
    <!-- $\frac{x^2}{a^2} + \frac{y^2}{b^2} = 1 \quad (a &gt; b &gt; 0)$ -->
    <g style="fill: #5d4e37" transform="translate(324.09 595.38) scale(0.42 -0.42)">
     <defs>
      <path id="STIXGeneral-Regular-31" d="M 2522 0 
L 755 0 
L 755 96 
Q 1107 115 1235 227 
Q 1363 339 1363 608 
L 1363 3482 
Q 1363 3795 1171 3795 
Q 1082 3795 883 3718 
L 710 3654 
L 710 3744 
L 1856 4326 
L 1914 4307 
L 1914 486 
Q 1914 275 2042 185 
Q 2170 96 2522 96 
L 2522 0 
z
" transform="scale(0.015625)"/>
      <path id="STIXGeneral-Regular-3e" d="M 3974 1594 
L 358 -154 
L 358 250 
L 3123 1626 
L 358 3002 
L 358 3418 
L 3974 1658 
L 3974 1594 
z
" transform="scale(0.015625)"/>
      <path id="STIXGeneral-Regular-30" d="M 3046 2112 
Q 3046 1683 2963 1302 
Q 2880 922 2717 602 
Q 2554 282 2266 96 
Q 1978 -90 1600 -90 
Q 1210 -90 915 108 
Q 621 307 461 640 
Q 301 973 227 1350 
Q 154 1728 154 2150 
Q 154 2746 301 3222 
Q 448 3699 790 4012 
Q 1133 4326 1626 4326 
Q 2253 4326 2649 3712 
Q 3046 3098 3046 2112 
z
M 2432 2080 
Q 2432 3091 2217 3625 
Q 2003 4160 1587 4160 
Q 1190 4160 979 3622 
Q 768 3085 768 2106 
Q 768 1120 979 598 
Q 1190 77 1600 77 
Q 2003 77 2217 598 
Q 2432 1120 2432 2080 
z
" transform="scale(0.015625)"/>
     </defs>
     <use xlink:href="#STIXGeneral-Italic-78" transform="translate(2 39.536563) scale(0.7)"/>
     <use xlink:href="#STIXGeneral-Regular-32" transform="translate(37.401183 64.229063) scale(0.49)"/>
     <use xlink:href="#STIXGeneral-Italic-61" transform="translate(0 -50.2925) scale(0.7)"/>
     <use xlink:href="#STIXGeneral-Regular-32" transform="translate(39.391181 -25.6) scale(0.49)"/>
     <use xlink:href="#STIXGeneral-Regular-2b" transform="translate(93.917732 0.974063)"/>
     <use xlink:href="#STIXGeneral-Italic-79" transform="translate(180.857714 53.186563) scale(0.7)"/>
     <use xlink:href="#STIXGeneral-Regular-32" transform="translate(216.258897 77.879063) scale(0.49)"/>
     <use xlink:href="#STIXGeneral-Italic-62" transform="translate(176.857714 -50.2925) scale(0.7)"/>
     <use xlink:href="#STIXGeneral-Regular-32" transform="translate(219.73675 -25.6) scale(0.49)"/>
     <use xlink:href="#STIXGeneral-Regular-3d" transform="translate(274.263301 0.974063)"/>
     <use xlink:href="#STIXGeneral-Regular-31" transform="translate(357.203282 0.974063)"/>
     <use xlink:href="#STIXGeneral-Regular-28" transform="translate(479.403249 0.974063)"/>
     <use xlink:href="#STIXGeneral-Italic-61" transform="translate(512.703236 0.974063)"/>
     <use xlink:href="#STIXGeneral-Regular-3e" transform="translate(577.243224 0.974063)"/>
     <use xlink:href="#STIXGeneral-Italic-62" transform="translate(660.183205 0.974063)"/>
     <use xlink:href="#STIXGeneral-Regular-3e" transform="translate(724.623186 0.974063)"/>
     <use xlink:href="#STIXGeneral-Regular-30" transform="translate(807.563167 0.974063)"/>
     <use xlink:href="#STIXGeneral-Regular-29" transform="translate(857.563152 0.974063)"/>
     <path d="M 0 13.770938 
L 0 20.020938 
L 66.977736 20.020938 
L 66.977736 13.770938 
L 0 13.770938 
z
"/>
     <path d="M 176.857714 13.770938 
L 176.857714 20.020938 
L 247.323305 20.020938 
L 247.323305 13.770938 
L 176.857714 13.770938 
z
"/>
    </g>
   </g>
   <g id="text_15">
    <!-- —— 椭圆的标准方程 —— -->
    <g style="fill: #5d4e37" transform="translate(394.2 684) scale(0.2 -0.2)">
     <defs>
      <path id="LXGWWenKai-Regular-2014" d="M 160 2234 
Q 90 2234 51 2294 
Q 13 2355 13 2428 
Q 13 2502 51 2563 
Q 90 2624 160 2624 
L 6240 2624 
Q 6310 2624 6348 2563 
Q 6387 2502 6387 2428 
Q 6387 2355 6348 2294 
Q 6310 2234 6240 2234 
L 160 2234 
z
" transform="scale(0.015625)"/>
      <path id="LXGWWenKai-Regular-692d" d="M 2912 2189 
Q 3002 2112 3094 2054 
Q 3187 1997 3216 1997 
Q 3245 1997 3245 2074 
L 3245 2189 
Q 3245 2330 3177 2586 
Q 3110 2842 2854 3136 
Q 2784 3213 2784 3309 
Q 2784 3405 2864 3552 
Q 2944 3699 3187 4326 
L 2701 4294 
L 2714 -346 
Q 2714 -486 2624 -486 
Q 2496 -486 2409 -400 
Q 2323 -314 2323 -253 
Q 2323 -192 2345 -35 
Q 2368 122 2368 403 
L 2362 3968 
Q 2362 4275 2323 4457 
Q 2285 4640 2285 4681 
Q 2285 4723 2349 4723 
Q 2413 4723 2733 4595 
L 3379 4653 
Q 3437 4653 3533 4601 
Q 3629 4550 3629 4483 
Q 3629 4416 3424 3965 
Q 3219 3514 3174 3430 
Q 3130 3347 3130 3305 
Q 3130 3264 3162 3219 
Q 3450 2899 3584 2336 
Q 3910 2944 4154 3642 
L 3968 3622 
L 3885 3622 
Q 3693 3622 3632 3689 
Q 3571 3757 3539 3846 
Q 3507 3936 3507 3962 
Q 3507 3974 3545 3974 
Q 3584 3974 3657 3948 
Q 3731 3923 3859 3923 
L 3904 3923 
L 4256 3962 
Q 4442 4621 4442 4793 
Q 4442 4966 4422 5027 
Q 4403 5088 4403 5117 
Q 4403 5146 4441 5146 
Q 4480 5146 4582 5107 
Q 4858 5011 4858 4870 
Q 4858 4813 4778 4515 
Q 4698 4218 4621 3994 
L 5459 4070 
Q 5626 4090 5667 4106 
Q 5709 4122 5766 4122 
Q 5824 4122 5939 4029 
Q 6054 3936 6054 3853 
Q 6054 3795 5914 3782 
L 4499 3674 
Q 4384 3360 4218 3046 
Q 4320 3034 4429 2995 
L 5318 3059 
L 5382 3059 
Q 5530 3059 5581 2979 
Q 5632 2899 5632 2848 
L 5613 2739 
L 5626 -6 
L 5638 -262 
Q 5638 -493 5478 -563 
Q 5421 -589 5366 -589 
Q 5312 -589 5181 -493 
Q 5050 -397 4925 -269 
Q 4800 -141 4717 -22 
Q 4634 96 4634 134 
Q 4634 154 4688 154 
Q 4742 154 4896 61 
Q 5050 -32 5280 -141 
L 5280 934 
L 4390 883 
L 4371 -384 
Q 4371 -506 4275 -506 
Q 4205 -506 4102 -442 
Q 4000 -378 4000 -320 
Q 4000 -262 4019 -163 
Q 4038 -64 4038 128 
L 4077 2611 
Q 4077 2656 4077 2701 
Q 4077 2746 4070 2778 
Q 3744 2221 3603 2125 
Q 3603 2112 3603 2099 
Q 3603 1882 3513 1722 
Q 3424 1562 3322 1562 
Q 3162 1562 2947 1850 
Q 2733 2138 2733 2202 
Q 2733 2266 2771 2266 
Q 2822 2266 2912 2189 
z
M 1229 2112 
L 1242 2554 
L 1248 2656 
Q 1069 1837 614 1088 
Q 346 621 250 621 
Q 218 621 218 675 
Q 218 730 256 826 
Q 666 1696 1126 3226 
L 800 3200 
Q 685 3187 640 3187 
Q 410 3187 307 3462 
Q 301 3475 301 3510 
Q 301 3546 336 3546 
Q 371 3546 425 3533 
Q 480 3520 595 3520 
L 672 3520 
L 1235 3565 
L 1248 4704 
Q 1248 4858 1178 4960 
Q 1158 4998 1158 5018 
Q 1158 5069 1260 5069 
Q 1363 5069 1523 4979 
Q 1606 4934 1606 4838 
L 1587 3597 
L 1734 3610 
Q 1875 3629 1923 3645 
Q 1971 3661 2048 3661 
Q 2125 3661 2224 3565 
Q 2323 3469 2323 3418 
Q 2323 3334 2176 3315 
L 1587 3264 
L 1581 2867 
Q 1651 2918 1702 2918 
Q 1798 2918 2028 2524 
Q 2259 2131 2259 2060 
Q 2259 1990 2169 1942 
Q 2080 1894 2025 1894 
Q 1971 1894 1904 2022 
Q 1837 2150 1750 2326 
Q 1664 2502 1574 2630 
L 1536 -480 
Q 1536 -614 1440 -614 
Q 1382 -614 1306 -576 
Q 1158 -506 1158 -365 
Q 1158 -326 1180 -236 
Q 1203 -147 1203 32 
L 1203 166 
Q 1229 730 1229 2112 
z
M 5280 1850 
L 4403 1798 
L 4397 1165 
L 5280 1210 
L 5280 1850 
z
M 5280 2752 
L 4416 2694 
L 4410 2086 
L 5280 2138 
L 5280 2752 
z
" transform="scale(0.015625)"/>
      <path id="LXGWWenKai-Regular-5706" d="M 5562 173 
Q 5766 -51 5766 -121 
Q 5766 -192 5702 -201 
Q 5638 -211 5549 -218 
L 1248 -314 
L 1248 -518 
Q 1248 -685 1139 -685 
Q 998 -685 899 -585 
Q 800 -486 800 -390 
L 800 -358 
Q 800 -333 822 -243 
Q 845 -154 845 102 
L 838 4358 
Q 838 4557 730 4774 
Q 717 4800 717 4819 
Q 717 4864 800 4864 
Q 883 4864 1248 4736 
L 5229 4973 
L 5286 4973 
Q 5517 4973 5581 4819 
Q 5606 4762 5606 4742 
L 5581 4608 
L 5562 173 
z
M 5165 4602 
L 1235 4384 
L 1248 45 
L 5152 154 
L 5165 4602 
z
M 4474 192 
Q 4429 192 4301 282 
Q 3981 518 3373 781 
Q 3290 826 3290 883 
Q 3290 941 3347 1017 
Q 3405 1094 3462 1094 
Q 3520 1094 4000 860 
Q 4480 627 4560 579 
Q 4640 531 4640 473 
Q 4640 416 4595 304 
Q 4550 192 4474 192 
z
M 2048 1434 
L 1958 2432 
Q 1946 2643 1904 2736 
Q 1862 2829 1862 2857 
Q 1862 2886 1936 2886 
Q 2010 2886 2336 2790 
L 4109 2886 
L 4128 2886 
Q 4230 2886 4323 2809 
Q 4416 2733 4416 2691 
Q 4416 2650 4403 2624 
Q 4390 2598 4384 2573 
L 4301 1472 
L 4294 1178 
L 4288 1114 
Q 4275 1018 4192 1030 
Q 4090 1030 3987 1110 
Q 3885 1190 3923 1308 
Q 3962 1427 4019 2592 
L 2304 2502 
L 2381 1421 
L 2400 1126 
L 2400 1062 
Q 2400 966 2297 966 
Q 2195 966 2108 1024 
Q 2022 1082 2022 1165 
L 2048 1434 
z
M 2189 3232 
L 2195 3315 
Q 2195 3373 2182 3450 
L 2138 3904 
Q 2125 4045 2070 4137 
Q 2016 4230 2016 4262 
Q 2016 4294 2077 4294 
Q 2138 4294 2445 4173 
L 3930 4269 
L 3974 4269 
Q 4077 4269 4141 4211 
Q 4205 4154 4205 4112 
Q 4205 4070 4195 4041 
Q 4186 4013 4179 3987 
L 4070 3462 
Q 4218 3309 4218 3267 
Q 4218 3226 4173 3222 
Q 4128 3219 4064 3213 
L 2560 3136 
L 2560 3110 
Q 2560 3021 2451 3021 
Q 2342 3021 2265 3065 
Q 2189 3110 2189 3194 
L 2189 3232 
z
M 3795 3974 
L 2483 3891 
L 2528 3411 
L 3725 3482 
L 3795 3974 
z
M 3059 2010 
Q 3059 2131 3027 2182 
Q 2995 2234 2995 2259 
Q 2995 2330 3116 2330 
Q 3238 2330 3328 2278 
Q 3418 2227 3418 2131 
Q 3398 1549 3273 1248 
Q 3149 947 2985 777 
Q 2822 608 2633 489 
Q 2445 371 2272 300 
Q 2099 230 1894 182 
Q 1690 134 1664 134 
Q 1568 134 1568 217 
Q 1568 301 1677 352 
Q 2707 691 2938 1318 
Q 3046 1606 3052 1718 
Q 3059 1830 3059 1914 
L 3059 2010 
z
" transform="scale(0.015625)"/>
      <path id="LXGWWenKai-Regular-7684" d="M 3846 4890 
L 3834 4992 
Q 3834 5069 3898 5069 
Q 3917 5069 4019 5024 
Q 4307 4896 4307 4762 
Q 4307 4589 3898 3738 
L 5504 3834 
L 5530 3834 
Q 5613 3834 5696 3773 
Q 5779 3712 5779 3616 
L 5760 3469 
Q 5709 1747 5530 301 
Q 5427 -544 5082 -544 
Q 4934 -544 4841 -483 
Q 4749 -422 4605 -313 
Q 4461 -205 4301 -70 
Q 4141 64 4025 179 
Q 3910 294 3910 345 
Q 3910 397 3984 397 
Q 4058 397 4282 262 
Q 4506 128 4947 -45 
L 4960 -45 
Q 4998 -45 5018 6 
Q 5299 1107 5338 3469 
L 3731 3366 
Q 3450 2880 3232 2595 
Q 3014 2310 2944 2310 
Q 2912 2310 2912 2371 
Q 2912 2432 3104 2787 
Q 3296 3142 3571 3875 
Q 3846 4608 3846 4845 
L 3846 4890 
z
M 1715 4749 
Q 1715 4768 1702 4845 
Q 1702 4922 1779 4922 
Q 1920 4922 2035 4832 
Q 2150 4742 2150 4665 
Q 2150 4589 1920 4160 
Q 1715 3802 1581 3603 
L 2483 3654 
L 2560 3654 
Q 2746 3654 2803 3507 
Q 2822 3462 2822 3456 
L 2790 3328 
L 2688 480 
Q 2842 282 2842 214 
Q 2842 147 2790 134 
Q 2739 122 2656 115 
L 1229 64 
L 1235 -147 
L 1235 -166 
Q 1235 -307 1126 -307 
Q 979 -307 892 -233 
Q 806 -160 806 -77 
L 851 243 
L 794 3232 
Q 794 3418 717 3539 
Q 672 3629 672 3664 
Q 672 3699 768 3699 
Q 864 3699 1165 3584 
L 1222 3584 
Q 1715 4512 1715 4749 
z
M 2400 3302 
L 1171 3238 
L 1190 2061 
L 2368 2118 
L 2400 3302 
z
M 4755 1446 
Q 4755 1318 4589 1229 
Q 4525 1190 4483 1190 
Q 4442 1190 4358 1299 
Q 4160 1619 3913 1913 
Q 3667 2208 3564 2307 
Q 3462 2406 3462 2464 
Q 3462 2522 3532 2589 
Q 3603 2656 3657 2656 
Q 3712 2656 3869 2505 
Q 4026 2355 4390 1939 
Q 4755 1523 4755 1446 
z
M 2355 1773 
L 1197 1722 
L 1222 422 
L 2317 461 
L 2355 1773 
z
" transform="scale(0.015625)"/>
      <path id="LXGWWenKai-Regular-6807" d="M 3226 1997 
Q 3219 2112 3276 2125 
Q 3334 2138 3424 2086 
Q 3661 1965 3674 1805 
Q 3674 1766 3654 1728 
Q 3334 1107 3040 739 
Q 2746 371 2544 201 
Q 2342 32 2291 19 
Q 2240 6 2240 64 
Q 2240 134 2342 282 
Q 2643 704 2934 1184 
Q 3226 1664 3226 1958 
L 3226 1997 
z
M 5779 250 
Q 5709 269 5664 384 
Q 5293 1107 4762 1856 
Q 4672 1965 4864 2112 
Q 4915 2150 4992 2121 
Q 5069 2093 5433 1545 
Q 5798 998 6010 634 
Q 6125 422 5952 288 
Q 5862 218 5779 250 
z
M 1792 -454 
Q 1792 -608 1670 -608 
Q 1664 -608 1587 -589 
Q 1376 -518 1376 -352 
Q 1376 -320 1405 -205 
Q 1434 -90 1434 115 
L 1440 294 
Q 1440 474 1443 755 
Q 1446 1037 1449 1341 
Q 1453 1645 1462 1910 
Q 1472 2176 1472 2310 
L 1478 2400 
Q 1293 1754 691 998 
Q 378 602 282 602 
Q 243 602 243 669 
Q 243 736 314 832 
Q 915 1683 1376 3040 
L 902 3002 
Q 800 2989 717 2989 
Q 634 2989 582 3021 
Q 454 3130 397 3277 
Q 390 3290 390 3315 
Q 390 3360 442 3360 
L 474 3360 
Q 589 3341 691 3341 
L 768 3341 
L 1472 3392 
L 1485 4678 
Q 1485 4794 1430 4877 
Q 1376 4960 1376 4992 
Q 1376 5043 1449 5043 
Q 1523 5043 1657 4995 
Q 1792 4947 1824 4905 
Q 1856 4864 1856 4794 
L 1837 3424 
L 2106 3443 
Q 2266 3462 2307 3478 
Q 2349 3494 2390 3494 
Q 2432 3494 2560 3404 
Q 2688 3315 2688 3232 
Q 2688 3149 2554 3136 
L 1837 3078 
L 1830 2522 
Q 1882 2566 1936 2566 
Q 1990 2566 2112 2445 
Q 2406 2144 2586 1862 
Q 2637 1805 2637 1734 
Q 2637 1664 2534 1606 
Q 2432 1549 2374 1549 
Q 2317 1549 2246 1658 
Q 2042 2010 1824 2253 
L 1792 -454 
z
M 4486 -109 
L 4493 -301 
Q 4493 -403 4425 -508 
Q 4358 -614 4252 -614 
Q 4147 -614 4035 -550 
Q 3923 -486 3792 -396 
Q 3661 -307 3545 -204 
Q 3430 -102 3353 -19 
Q 3277 64 3277 102 
Q 3277 141 3353 141 
Q 3430 141 3651 35 
Q 3872 -70 4090 -134 
L 4077 1830 
L 4070 2176 
L 4070 2509 
L 2931 2458 
L 2829 2458 
Q 2624 2458 2573 2509 
Q 2419 2662 2419 2768 
Q 2419 2874 2477 2874 
Q 2509 2874 2522 2861 
Q 2682 2829 2778 2829 
L 2822 2829 
L 5440 2944 
Q 5498 2950 5562 2953 
Q 5626 2957 5677 2973 
Q 5728 2989 5808 2989 
Q 5888 2989 6003 2886 
Q 6118 2784 6118 2701 
Q 6118 2598 5946 2586 
L 4467 2522 
L 4467 1850 
L 4486 -109 
z
M 3059 4333 
L 3238 4314 
Q 3315 4301 3373 4301 
L 3411 4301 
L 4858 4384 
Q 5030 4403 5078 4416 
Q 5126 4429 5161 4429 
Q 5197 4429 5274 4390 
Q 5478 4282 5478 4154 
Q 5478 4058 5331 4045 
L 3526 3949 
L 3341 3942 
Q 3258 3942 3174 3980 
Q 3091 4019 3008 4224 
Q 3002 4250 3002 4275 
Q 3002 4333 3059 4333 
z
" transform="scale(0.015625)"/>
      <path id="LXGWWenKai-Regular-51c6" d="M 4928 4621 
Q 4928 4454 4454 3757 
L 5248 3802 
Q 5382 3808 5459 3837 
Q 5536 3866 5568 3866 
Q 5600 3866 5683 3814 
Q 5888 3680 5888 3571 
Q 5888 3507 5741 3488 
L 4454 3424 
L 4448 2682 
L 5037 2714 
Q 5210 2726 5267 2745 
Q 5325 2765 5363 2765 
Q 5402 2765 5478 2710 
Q 5555 2656 5612 2585 
Q 5670 2515 5670 2470 
Q 5670 2406 5530 2394 
L 4448 2342 
L 4442 1638 
L 5069 1670 
Q 5126 1677 5190 1683 
Q 5254 1690 5308 1709 
Q 5363 1728 5392 1728 
Q 5421 1728 5498 1677 
Q 5709 1536 5709 1427 
Q 5709 1357 5568 1344 
L 4442 1293 
L 4435 397 
L 5555 435 
Q 5702 448 5779 470 
Q 5856 493 5881 493 
Q 5907 493 5990 442 
Q 6208 301 6208 186 
Q 6208 115 6061 96 
L 2976 -13 
L 2976 -467 
Q 2976 -640 2854 -640 
L 2765 -614 
Q 2682 -595 2598 -531 
Q 2515 -467 2515 -380 
Q 2515 -294 2540 -160 
Q 2566 -26 2566 128 
L 2605 3168 
Q 2298 2829 2048 2614 
Q 1798 2400 1737 2400 
Q 1677 2400 1677 2448 
Q 1677 2496 1754 2592 
Q 2323 3277 2637 3782 
Q 3194 4685 3194 4922 
L 3194 4966 
Q 3194 4992 3187 5018 
L 3187 5037 
Q 3187 5101 3289 5101 
Q 3392 5101 3542 5001 
Q 3693 4902 3693 4858 
Q 3693 4749 3440 4339 
Q 3187 3930 3002 3674 
L 4102 3738 
Q 4346 4211 4403 4454 
Q 4461 4698 4461 4710 
L 4442 4813 
Q 4442 4864 4515 4864 
Q 4589 4864 4685 4826 
Q 4928 4742 4928 4621 
z
M 1798 3206 
Q 1702 3117 1638 3117 
Q 1574 3117 1468 3257 
Q 1363 3398 1145 3628 
Q 928 3859 736 4013 
Q 659 4083 659 4134 
Q 659 4186 739 4272 
Q 819 4358 870 4358 
Q 1018 4358 1587 3776 
Q 1894 3456 1894 3376 
Q 1894 3296 1798 3206 
z
M 4064 3398 
L 2976 3341 
L 2976 2611 
L 4058 2662 
L 4064 3398 
z
M 749 301 
Q 538 346 397 512 
Q 358 563 358 595 
Q 358 627 480 668 
Q 602 710 1024 1152 
Q 1446 1594 1920 2176 
Q 2061 2342 2121 2342 
Q 2182 2342 2182 2278 
Q 2182 2138 1750 1485 
Q 1318 832 883 365 
Q 819 301 749 301 
z
M 4051 2323 
L 2976 2266 
L 2976 1568 
L 4045 1619 
L 4051 2323 
z
M 4045 1274 
L 2976 1222 
L 2976 346 
L 4032 384 
L 4045 1274 
z
" transform="scale(0.015625)"/>
     </defs>
     <use xlink:href="#LXGWWenKai-Regular-2014"/>
     <use xlink:href="#LXGWWenKai-Regular-2014" transform="translate(99.999985 0)"/>
     <use xlink:href="#LXGWWenKai-Regular-20" transform="translate(199.999969 0)"/>
     <use xlink:href="#LXGWWenKai-Regular-692d" transform="translate(234.999954 0)"/>
     <use xlink:href="#LXGWWenKai-Regular-5706" transform="translate(334.999939 0)"/>
     <use xlink:href="#LXGWWenKai-Regular-7684" transform="translate(434.999924 0)"/>
     <use xlink:href="#LXGWWenKai-Regular-6807" transform="translate(534.999908 0)"/>
     <use xlink:href="#LXGWWenKai-Regular-51c6" transform="translate(634.999893 0)"/>
     <use xlink:href="#LXGWWenKai-Regular-65b9" transform="translate(734.999878 0)"/>
     <use xlink:href="#LXGWWenKai-Regular-7a0b" transform="translate(834.999863 0)"/>
     <use xlink:href="#LXGWWenKai-Regular-20" transform="translate(934.999847 0)"/>
     <use xlink:href="#LXGWWenKai-Regular-2014" transform="translate(969.999832 0)"/>
     <use xlink:href="#LXGWWenKai-Regular-2014" transform="translate(1069.999817 0)"/>
    </g>
   </g>
  </g>
 </g>
 <defs>
  <clipPath id="p19d5fb75b3">
   <rect x="7.2" y="7.2" width="1008" height="720"/>
  </clipPath>
 </defs>
</svg>
