<?xml version="1.0" encoding="utf-8" standalone="no"?>
<!DOCTYPE svg PUBLIC "-//W3C//DTD SVG 1.1//EN"
  "http://www.w3.org/Graphics/SVG/1.1/DTD/svg11.dtd">
<svg xmlns:xlink="http://www.w3.org/1999/xlink" width="864pt" height="432pt" viewBox="0 0 864 432" xmlns="http://www.w3.org/2000/svg" version="1.1">
 <metadata>
  <rdf:RDF xmlns:dc="http://purl.org/dc/elements/1.1/" xmlns:cc="http://creativecommons.org/ns#" xmlns:rdf="http://www.w3.org/1999/02/22-rdf-syntax-ns#">
   <cc:Work>
    <dc:type rdf:resource="http://purl.org/dc/dcmitype/StillImage"/>
    <dc:date>2026-02-13T15:35:44.045481</dc:date>
    <dc:format>image/svg+xml</dc:format>
    <dc:creator>
     <cc:Agent>
      <dc:title>Matplotlib v3.10.8, https://matplotlib.org/</dc:title>
     </cc:Agent>
    </dc:creator>
   </cc:Work>
  </rdf:RDF>
 </metadata>
 <defs>
  <style type="text/css">*{stroke-linejoin: round; stroke-linecap: butt}</style>
 </defs>
 <g id="figure_1">
  <g id="patch_1">
   <path d="M 0 432 
L 864 432 
L 864 0 
L 0 0 
z
" style="fill: #fefdf5"/>
  </g>
  <g id="axes_1">
   <g id="line2d_1">
    <path d="M 55.542857 216 
L 401.142857 216 
" clip-path="url(#pfdd35348ac)" style="fill: none; stroke: #5d4e37; stroke-linecap: square"/>
   </g>
   <g id="line2d_2">
    <path d="M 228.342857 388.8 
L 228.342857 43.2 
" clip-path="url(#pfdd35348ac)" style="fill: none; stroke: #5d4e37; stroke-linecap: square"/>
   </g>
   <g id="patch_2">
    <path d="M 57.544127 216 
Q 228.343409 216 398.024657 216 
" style="fill: none; stroke: #5d4e37; stroke-linecap: round"/>
    <path d="M 394.024657 214 
L 398.024657 216 
L 394.024657 218 
" style="fill: none; stroke: #5d4e37; stroke-linecap: round"/>
   </g>
   <g id="patch_3">
    <path d="M 228.342857 386.79873 
Q 228.342857 215.999449 228.342857 46.318201 
" style="fill: none; stroke: #5d4e37; stroke-linecap: round"/>
    <path d="M 226.342857 50.318201 
L 228.342857 46.318201 
L 230.342857 50.318201 
" style="fill: none; stroke: #5d4e37; stroke-linecap: round"/>
   </g>
   <g id="text_1">
    <!-- $x$ -->
    <g transform="translate(396.205714 230.811429) scale(0.2 -0.2)">
     <defs>
      <path id="STIXGeneral-Italic-78" d="M 1555 2272 
L 1632 1907 
Q 1971 2426 2179 2624 
Q 2387 2822 2598 2822 
Q 2714 2822 2787 2755 
Q 2861 2688 2861 2585 
Q 2861 2483 2800 2419 
Q 2739 2355 2643 2355 
Q 2586 2355 2490 2409 
Q 2394 2464 2310 2464 
Q 2125 2464 1683 1690 
Q 1683 1606 1734 1402 
L 1939 544 
Q 2003 282 2131 282 
Q 2234 282 2432 538 
Q 2451 563 2476 598 
Q 2502 634 2521 662 
Q 2541 691 2566 717 
L 2662 659 
Q 2387 230 2227 80 
Q 2067 -70 1882 -70 
Q 1728 -70 1645 26 
Q 1562 122 1504 365 
L 1318 1126 
L 755 365 
Q 557 96 432 13 
Q 307 -70 147 -70 
Q 0 -70 -86 0 
Q -173 70 -173 198 
Q -173 294 -112 361 
Q -51 429 45 429 
Q 122 429 250 358 
Q 346 301 416 301 
Q 525 301 742 614 
L 1267 1357 
L 1088 2150 
Q 1024 2432 969 2509 
Q 915 2586 794 2586 
Q 717 2586 544 2541 
L 429 2509 
L 410 2611 
L 480 2637 
Q 992 2822 1229 2822 
Q 1350 2822 1420 2707 
Q 1491 2592 1555 2272 
z
" transform="scale(0.015625)"/>
     </defs>
     <use xlink:href="#STIXGeneral-Italic-78" transform="translate(0 0.90625)"/>
    </g>
   </g>
   <g id="text_2">
    <!-- $y$ -->
    <g transform="translate(238.217143 53.074286) scale(0.2 -0.2)">
     <defs>
      <path id="STIXGeneral-Italic-79" d="M 1555 1190 
L 1690 486 
Q 2118 1190 2294 1558 
Q 2470 1926 2470 2131 
Q 2470 2234 2304 2336 
Q 2138 2445 2138 2586 
Q 2138 2688 2211 2755 
Q 2285 2822 2394 2822 
Q 2534 2822 2630 2720 
Q 2726 2618 2726 2470 
Q 2726 1914 1888 518 
Q 1389 -307 918 -812 
Q 448 -1318 173 -1318 
Q 26 -1318 -64 -1241 
Q -154 -1165 -154 -1043 
Q -154 -934 -80 -860 
Q -6 -787 96 -787 
Q 218 -787 314 -876 
Q 410 -966 486 -966 
Q 602 -966 794 -755 
Q 877 -672 1040 -457 
Q 1203 -243 1248 -173 
Q 1312 -45 1312 51 
Q 1312 243 1113 1046 
Q 915 1850 787 2176 
Q 698 2413 592 2499 
Q 486 2586 294 2586 
Q 192 2586 96 2560 
L 96 2669 
Q 237 2694 301 2707 
Q 563 2758 986 2822 
L 1011 2822 
Q 1082 2822 1277 2227 
Q 1472 1632 1555 1190 
z
" transform="scale(0.015625)"/>
     </defs>
     <use xlink:href="#STIXGeneral-Italic-79" transform="translate(0 0.90625)"/>
    </g>
   </g>
   <g id="patch_4">
    <path d="M 228.342857 290.057143 
C 261.076497 290.057143 292.473858 282.254015 315.620037 268.366308 
C 338.766216 254.478601 351.771429 235.640184 351.771429 216 
C 351.771429 196.359816 338.766216 177.521399 315.620037 163.633692 
C 292.473858 149.745985 261.076497 141.942857 228.342857 141.942857 
C 195.609217 141.942857 164.211856 149.745985 141.065677 163.633692 
C 117.919499 177.521399 104.914286 196.359816 104.914286 216 
C 104.914286 235.640184 117.919499 254.478601 141.065677 268.366308 
C 164.211856 282.254015 195.609217 290.057143 228.342857 290.057143 
L 228.342857 290.057143 
z
" clip-path="url(#pfdd35348ac)" style="fill: none; stroke: #e8927c; stroke-width: 3; stroke-linejoin: miter"/>
   </g>
   <g id="text_3">
    <!-- $F_1$ -->
    <g style="fill: #e8927c" transform="translate(118.49 235.748571) scale(0.22 -0.22)">
     <defs>
      <path id="STIXGeneral-Italic-46" d="M 4128 4179 
L 3923 3194 
L 3789 3206 
Q 3808 3347 3808 3418 
Q 3808 3667 3718 3772 
Q 3629 3878 3373 3923 
Q 3117 3968 2534 3968 
Q 2310 3968 2220 3926 
Q 2131 3885 2099 3763 
L 1690 2310 
Q 2003 2317 2147 2317 
Q 2291 2317 2457 2345 
Q 2624 2374 2678 2396 
Q 2733 2419 2822 2505 
Q 2912 2592 2950 2665 
Q 2989 2739 3072 2912 
L 3187 2880 
L 2701 1376 
L 2592 1408 
Q 2643 1670 2643 1798 
Q 2643 1978 2531 2029 
Q 2419 2080 2163 2080 
Q 1984 2080 1632 2099 
L 1254 736 
Q 1165 416 1165 352 
Q 1165 237 1273 179 
Q 1382 122 1658 102 
L 1658 0 
L 51 0 
L 51 102 
Q 314 122 410 224 
Q 506 326 582 602 
L 1370 3430 
Q 1434 3661 1434 3821 
Q 1434 3955 1347 4003 
Q 1261 4051 947 4077 
L 947 4179 
L 4128 4179 
z
" transform="scale(0.015625)"/>
      <path id="STIXGeneral-Regular-31" d="M 2522 0 
L 755 0 
L 755 96 
Q 1107 115 1235 227 
Q 1363 339 1363 608 
L 1363 3482 
Q 1363 3795 1171 3795 
Q 1082 3795 883 3718 
L 710 3654 
L 710 3744 
L 1856 4326 
L 1914 4307 
L 1914 486 
Q 1914 275 2042 185 
Q 2170 96 2522 96 
L 2522 0 
z
" transform="scale(0.015625)"/>
     </defs>
     <use xlink:href="#STIXGeneral-Italic-46" transform="translate(0 0.703125)"/>
     <use xlink:href="#STIXGeneral-Regular-31" transform="translate(61.099991 -12.525) scale(0.7)"/>
    </g>
   </g>
   <g id="text_4">
    <!-- $F_2$ -->
    <g style="fill: #e8927c" transform="translate(315.975714 235.748571) scale(0.22 -0.22)">
     <defs>
      <path id="STIXGeneral-Regular-32" d="M 3034 877 
L 2688 0 
L 186 0 
L 186 77 
L 1325 1286 
Q 1773 1754 1965 2144 
Q 2157 2534 2157 2950 
Q 2157 3379 1920 3616 
Q 1683 3853 1267 3853 
Q 922 3853 720 3673 
Q 518 3494 326 3021 
L 192 3053 
Q 301 3648 630 3987 
Q 960 4326 1523 4326 
Q 2054 4326 2380 4006 
Q 2707 3686 2707 3200 
Q 2707 2477 1888 1613 
L 832 486 
L 2330 486 
Q 2541 486 2665 569 
Q 2790 653 2944 915 
L 3034 877 
z
" transform="scale(0.015625)"/>
     </defs>
     <use xlink:href="#STIXGeneral-Italic-46" transform="translate(0 0.703125)"/>
     <use xlink:href="#STIXGeneral-Regular-32" transform="translate(61.099991 -12.525) scale(0.7)"/>
    </g>
   </g>
   <g id="text_5">
    <!-- 焦点在 $x$ 轴 -->
    <g style="fill: #111111" transform="translate(166.542857 23.2) scale(0.24 -0.24)">
     <defs>
      <path id="LXGWWenKai-Regular-7126" d="M 3610 4954 
L 3597 5030 
L 3597 5056 
Q 3597 5133 3661 5133 
Q 3725 5133 3821 5082 
Q 4070 4947 4070 4845 
Q 4070 4768 3907 4509 
Q 3744 4250 3635 4115 
L 4768 4192 
Q 4915 4205 4969 4224 
Q 5024 4243 5059 4243 
Q 5094 4243 5171 4198 
Q 5363 4070 5363 3949 
Q 5363 3885 5222 3872 
L 3654 3776 
L 3648 3238 
L 4435 3277 
Q 4582 3290 4630 3312 
Q 4678 3334 4713 3334 
Q 4749 3334 4826 3290 
Q 5024 3155 5024 3053 
Q 5024 2982 4877 2970 
L 3648 2912 
L 3648 2349 
L 4461 2387 
Q 4614 2406 4656 2425 
Q 4698 2445 4739 2445 
Q 4781 2445 4851 2390 
Q 4922 2336 4973 2265 
Q 5024 2195 5024 2157 
Q 5024 2099 4890 2080 
L 3648 2022 
L 3642 1427 
L 5120 1485 
Q 5242 1491 5296 1513 
Q 5350 1536 5404 1536 
Q 5459 1536 5529 1472 
Q 5600 1408 5645 1334 
Q 5690 1261 5690 1229 
Q 5690 1178 5555 1158 
L 1978 1030 
L 1978 832 
Q 1978 723 1882 723 
Q 1766 723 1644 812 
Q 1523 902 1523 953 
Q 1523 1005 1552 1113 
Q 1581 1222 1581 1459 
L 1600 3219 
Q 1184 2720 800 2394 
Q 627 2246 569 2246 
Q 512 2246 512 2307 
Q 512 2368 608 2483 
Q 1645 3731 2150 4813 
Q 2208 4941 2208 5062 
Q 2208 5184 2278 5184 
Q 2317 5184 2419 5133 
Q 2522 5082 2611 5005 
Q 2701 4928 2701 4883 
Q 2701 4838 2547 4579 
Q 2394 4320 2182 4026 
L 3264 4096 
Q 3482 4448 3546 4659 
Q 3610 4870 3610 4902 
L 3610 4954 
z
M 3270 3757 
L 1990 3680 
L 1984 3149 
L 3264 3213 
L 3270 3757 
z
M 3264 2893 
L 1984 2829 
L 1984 2266 
L 3258 2330 
L 3264 2893 
z
M 3258 2003 
L 1984 1946 
L 1978 1363 
L 3251 1414 
L 3258 2003 
z
M 5725 166 
Q 5888 0 5990 -125 
Q 6093 -250 6093 -304 
Q 6093 -358 6006 -460 
Q 5920 -563 5849 -563 
Q 5779 -563 5702 -467 
Q 5261 115 4736 582 
Q 4666 653 4666 710 
Q 4666 768 4742 832 
Q 4819 896 4873 896 
Q 4928 896 5053 790 
Q 5178 685 5370 509 
Q 5562 333 5725 166 
z
M 1018 -173 
Q 890 -346 787 -458 
Q 685 -570 643 -570 
Q 602 -570 496 -477 
Q 390 -384 390 -323 
Q 390 -262 448 -205 
Q 960 307 1158 736 
Q 1229 845 1257 845 
Q 1286 845 1350 826 
Q 1536 768 1536 678 
Q 1536 589 1341 294 
Q 1146 0 1018 -173 
z
M 4182 208 
Q 4326 58 4422 -57 
Q 4518 -173 4518 -205 
Q 4518 -237 4480 -294 
Q 4288 -550 4115 -339 
Q 3693 186 3315 506 
Q 3238 576 3238 627 
Q 3238 678 3312 752 
Q 3386 826 3440 826 
Q 3494 826 3616 733 
Q 3738 640 3888 499 
Q 4038 358 4182 208 
z
M 2774 173 
Q 2880 32 2947 -77 
Q 3014 -186 3014 -230 
Q 3014 -275 2918 -355 
Q 2822 -435 2755 -435 
Q 2688 -435 2618 -320 
Q 2323 173 2054 454 
Q 1990 518 1990 572 
Q 1990 627 2080 698 
Q 2144 762 2195 762 
Q 2246 762 2342 672 
Q 2438 582 2553 448 
Q 2669 314 2774 173 
z
" transform="scale(0.015625)"/>
      <path id="LXGWWenKai-Regular-70b9" d="M 1632 1197 
Q 1658 1376 1658 1449 
Q 1658 1523 1645 1613 
L 1523 2560 
Q 1510 2746 1456 2854 
Q 1402 2963 1402 3001 
Q 1402 3040 1494 3040 
Q 1587 3040 1926 2912 
L 2880 2963 
L 2886 4717 
Q 2886 4845 2838 4931 
Q 2790 5018 2790 5053 
Q 2790 5088 2860 5088 
Q 2931 5088 3034 5069 
Q 3309 5018 3309 4864 
L 3290 4077 
L 4538 4147 
Q 4659 4154 4729 4186 
Q 4800 4218 4854 4218 
Q 4909 4218 4979 4166 
Q 5158 4045 5158 3917 
Q 5158 3827 4992 3814 
L 3283 3725 
L 3270 2989 
L 4499 3053 
L 4576 3053 
Q 4704 3053 4790 2979 
Q 4877 2906 4877 2848 
Q 4877 2790 4857 2761 
Q 4838 2733 4832 2707 
L 4659 1683 
Q 4800 1485 4800 1414 
Q 4800 1344 4745 1337 
Q 4691 1331 4608 1325 
L 2061 1235 
L 2074 1101 
L 2074 1069 
Q 2074 941 1952 941 
Q 1818 941 1725 1024 
Q 1632 1107 1632 1197 
z
M 4416 2701 
L 1926 2573 
L 2022 1587 
L 4269 1677 
L 4416 2701 
z
M 5686 153 
Q 5856 -26 5968 -163 
Q 6080 -301 6080 -349 
Q 6080 -397 6029 -461 
Q 5805 -704 5677 -506 
Q 5235 96 4723 570 
Q 4646 646 4646 691 
Q 4646 736 4716 819 
Q 4787 902 4835 902 
Q 4883 902 5020 790 
Q 5158 678 5337 505 
Q 5517 333 5686 153 
z
M 4157 195 
Q 4288 32 4374 -89 
Q 4461 -211 4461 -246 
Q 4461 -282 4361 -374 
Q 4262 -467 4188 -467 
Q 4115 -467 4045 -352 
Q 3725 173 3347 576 
Q 3277 659 3277 698 
Q 3277 762 3357 826 
Q 3437 890 3481 890 
Q 3526 890 3638 784 
Q 3750 678 3888 518 
Q 4026 358 4157 195 
z
M 838 -499 
Q 736 -614 685 -614 
Q 634 -614 528 -531 
Q 422 -448 422 -371 
Q 422 -294 486 -230 
Q 973 256 1210 755 
Q 1254 858 1331 858 
Q 1408 858 1491 810 
Q 1574 762 1574 698 
Q 1574 634 1497 486 
Q 1421 339 1305 153 
Q 1190 -32 1065 -208 
Q 941 -384 838 -499 
z
M 2813 182 
Q 2912 26 2973 -92 
Q 3034 -211 3034 -249 
Q 3034 -288 2938 -368 
Q 2842 -448 2755 -448 
Q 2669 -448 2611 -326 
Q 2381 205 2131 538 
Q 2067 621 2067 665 
Q 2067 710 2144 771 
Q 2221 832 2272 832 
Q 2323 832 2412 733 
Q 2502 634 2608 486 
Q 2714 339 2813 182 
z
" transform="scale(0.015625)"/>
      <path id="LXGWWenKai-Regular-5728" d="M 2874 5030 
Q 2874 5107 2867 5171 
Q 2861 5235 2912 5235 
Q 2938 5235 3040 5197 
Q 3334 5088 3334 4954 
Q 3334 4934 3232 4649 
Q 3130 4365 2944 3987 
L 4979 4115 
Q 5197 4134 5261 4153 
Q 5325 4173 5363 4173 
Q 5402 4173 5491 4122 
Q 5734 3994 5734 3872 
Q 5734 3789 5613 3776 
L 2752 3603 
Q 2394 2925 1914 2298 
L 1894 -416 
Q 1894 -582 1786 -582 
Q 1709 -582 1587 -515 
Q 1466 -448 1466 -333 
Q 1504 -26 1504 218 
L 1523 1837 
Q 1261 1542 947 1286 
Q 378 819 218 819 
Q 179 819 179 864 
Q 179 909 403 1101 
Q 627 1293 937 1635 
Q 1248 1978 1530 2362 
L 1536 2605 
Q 1536 2701 1485 2800 
Q 1434 2899 1434 2937 
Q 1434 2976 1485 2976 
Q 1536 2976 1587 2970 
L 1696 2944 
Q 1830 2931 1888 2874 
Q 2150 3290 2304 3578 
L 1376 3520 
Q 1261 3507 1158 3507 
Q 1056 3507 957 3555 
Q 858 3603 768 3827 
Q 762 3840 762 3866 
Q 762 3910 813 3910 
Q 973 3878 1146 3878 
L 1229 3878 
L 2496 3955 
Q 2874 4806 2874 5030 
z
M 5376 384 
Q 5446 390 5491 393 
Q 5536 397 5722 429 
Q 5830 429 6003 243 
Q 6074 173 6074 122 
Q 6074 32 5920 19 
L 2464 -115 
L 2355 -115 
Q 2157 -115 2099 -38 
Q 1946 141 1946 282 
Q 1946 314 1968 314 
Q 1990 314 2073 282 
Q 2157 250 2304 250 
L 2336 250 
L 3597 307 
L 3610 1728 
L 2835 1683 
L 2714 1677 
Q 2541 1677 2486 1737 
Q 2432 1798 2374 1904 
Q 2317 2010 2317 2054 
Q 2317 2099 2339 2099 
Q 2362 2099 2445 2067 
Q 2528 2035 2675 2035 
L 2707 2035 
L 3610 2099 
L 3616 3104 
Q 3616 3290 3539 3418 
Q 3526 3437 3526 3465 
Q 3526 3494 3596 3494 
Q 3667 3494 3808 3440 
Q 3949 3386 3984 3344 
Q 4019 3302 4019 3213 
L 4013 2131 
L 4730 2182 
Q 4800 2189 4877 2192 
Q 4954 2195 5002 2211 
Q 5050 2227 5088 2227 
Q 5126 2227 5206 2176 
Q 5286 2125 5353 2051 
Q 5421 1978 5421 1926 
Q 5421 1843 5274 1830 
L 4006 1754 
L 3994 320 
L 5376 384 
z
" transform="scale(0.015625)"/>
      <path id="LXGWWenKai-Regular-20" transform="scale(0.015625)"/>
      <path id="LXGWWenKai-Regular-8f74" d="M 5626 294 
Q 5779 102 5779 35 
Q 5779 -32 5731 -41 
Q 5683 -51 5606 -58 
L 3552 -115 
L 3558 -275 
L 3558 -294 
Q 3558 -442 3462 -442 
Q 3341 -442 3251 -355 
Q 3162 -269 3162 -192 
L 3168 -115 
L 3168 237 
L 3053 2765 
Q 3046 2995 2957 3181 
Q 2944 3200 2944 3219 
Q 2944 3264 3017 3264 
Q 3091 3264 3405 3142 
L 4179 3187 
L 4179 4627 
Q 4179 4774 4124 4857 
Q 4070 4941 4070 4973 
Q 4070 5024 4140 5024 
Q 4211 5024 4345 4982 
Q 4480 4941 4521 4889 
Q 4563 4838 4563 4774 
L 4563 3213 
L 5504 3270 
L 5581 3277 
Q 5728 3277 5818 3110 
Q 5850 3059 5850 3027 
Q 5850 2995 5830 2960 
Q 5811 2925 5805 2886 
L 5626 294 
z
M 5402 2912 
L 4563 2867 
L 4550 1805 
L 5350 1843 
L 5402 2912 
z
M 4179 2842 
L 3418 2803 
L 3475 1754 
L 4186 1786 
L 4179 2842 
z
M 5331 1504 
L 4550 1466 
L 4550 256 
L 5274 275 
L 5331 1504 
z
M 4186 1446 
L 3488 1414 
L 3539 230 
L 4186 243 
L 4186 1446 
z
M 2131 -448 
Q 2131 -595 2048 -595 
L 2022 -595 
L 2016 -589 
Q 1734 -531 1734 -326 
L 1734 -262 
Q 1779 -19 1779 160 
L 1779 922 
Q 1395 736 1081 621 
Q 768 506 678 509 
Q 589 512 454 646 
Q 320 781 320 845 
Q 326 896 432 902 
Q 538 909 723 957 
Q 909 1005 1779 1286 
L 1779 2118 
L 1376 2080 
L 1350 2080 
L 1114 2054 
L 928 2022 
Q 864 2022 781 2064 
Q 698 2106 710 2214 
Q 730 2246 730 2266 
Q 1094 3155 1280 3763 
L 992 3744 
L 845 3738 
Q 685 3738 666 3776 
Q 563 3859 528 3952 
Q 493 4045 493 4077 
Q 493 4109 525 4109 
Q 557 4109 614 4093 
Q 672 4077 800 4077 
L 877 4077 
L 1376 4102 
Q 1549 4781 1565 4861 
Q 1581 4941 1555 5018 
Q 1491 5190 1606 5197 
Q 1690 5197 1811 5136 
Q 1933 5075 1974 5027 
Q 2016 4979 1990 4877 
Q 1920 4666 1792 4128 
L 2419 4166 
Q 2541 4179 2614 4211 
Q 2688 4243 2745 4243 
Q 2803 4243 2880 4192 
Q 3072 4058 3072 3962 
Q 3072 3891 2918 3872 
L 1702 3789 
Q 1581 3366 1376 2803 
L 1210 2432 
Q 1248 2419 1318 2426 
L 1779 2464 
L 1779 3040 
Q 1779 3168 1728 3245 
Q 1677 3322 1677 3347 
Q 1677 3392 1741 3392 
Q 1805 3392 1901 3366 
Q 2163 3302 2163 3155 
L 2157 2496 
L 2432 2522 
Q 2522 2541 2573 2554 
Q 2694 2650 2854 2426 
Q 2899 2374 2899 2310 
Q 2912 2234 2765 2214 
L 2157 2157 
L 2150 1414 
Q 2394 1504 2621 1597 
Q 2848 1690 2934 1686 
Q 3021 1683 3021 1645 
Q 3014 1568 2842 1472 
Q 2470 1267 2144 1101 
L 2131 -448 
z
" transform="scale(0.015625)"/>
     </defs>
     <use xlink:href="#LXGWWenKai-Regular-7126" transform="translate(0 0.203125)"/>
     <use xlink:href="#LXGWWenKai-Regular-70b9" transform="translate(99.999985 0.203125)"/>
     <use xlink:href="#LXGWWenKai-Regular-5728" transform="translate(199.999969 0.203125)"/>
     <use xlink:href="#LXGWWenKai-Regular-20" transform="translate(299.999954 0.203125)"/>
     <use xlink:href="#STIXGeneral-Italic-78" transform="translate(334.999939 0.203125)"/>
     <use xlink:href="#LXGWWenKai-Regular-20" transform="translate(379.399933 0.203125)"/>
     <use xlink:href="#LXGWWenKai-Regular-8f74" transform="translate(414.399918 0.203125)"/>
    </g>
   </g>
   <g id="line2d_3">
    <defs>
     <path id="mb809e7cab7" d="M 0 4 
C 1.060812 4 2.078319 3.578535 2.828427 2.828427 
C 3.578535 2.078319 4 1.060812 4 0 
C 4 -1.060812 3.578535 -2.078319 2.828427 -2.828427 
C 2.078319 -3.578535 1.060812 -4 0 -4 
C -1.060812 -4 -2.078319 -3.578535 -2.828427 -2.828427 
C -3.578535 -2.078319 -4 -1.060812 -4 0 
C -4 1.060812 -3.578535 2.078319 -2.828427 2.828427 
C -2.078319 3.578535 -1.060812 4 0 4 
z
" style="stroke: #e8927c"/>
    </defs>
    <g clip-path="url(#pfdd35348ac)">
     <use xlink:href="#mb809e7cab7" x="129.6" y="216" style="fill: #e8927c; stroke: #e8927c"/>
     <use xlink:href="#mb809e7cab7" x="327.085714" y="216" style="fill: #e8927c; stroke: #e8927c"/>
    </g>
   </g>
  </g>
  <g id="axes_2">
   <g id="line2d_4">
    <path d="M 462.857143 216 
L 808.457143 216 
" clip-path="url(#p2860409062)" style="fill: none; stroke: #5d4e37; stroke-linecap: square"/>
   </g>
   <g id="line2d_5">
    <path d="M 635.657143 388.8 
L 635.657143 43.2 
" clip-path="url(#p2860409062)" style="fill: none; stroke: #5d4e37; stroke-linecap: square"/>
   </g>
   <g id="patch_5">
    <path d="M 464.858412 216 
Q 635.657694 216 805.338942 216 
" style="fill: none; stroke: #5d4e37; stroke-linecap: round"/>
    <path d="M 801.338942 214 
L 805.338942 216 
L 801.338942 218 
" style="fill: none; stroke: #5d4e37; stroke-linecap: round"/>
   </g>
   <g id="patch_6">
    <path d="M 635.657143 386.79873 
Q 635.657143 215.999449 635.657143 46.318201 
" style="fill: none; stroke: #5d4e37; stroke-linecap: round"/>
    <path d="M 633.657143 50.318201 
L 635.657143 46.318201 
L 637.657143 50.318201 
" style="fill: none; stroke: #5d4e37; stroke-linecap: round"/>
   </g>
   <g id="text_6">
    <!-- $x$ -->
    <g transform="translate(803.52 230.811429) scale(0.2 -0.2)">
     <use xlink:href="#STIXGeneral-Italic-78" transform="translate(0 0.90625)"/>
    </g>
   </g>
   <g id="text_7">
    <!-- $y$ -->
    <g transform="translate(645.531429 53.074286) scale(0.2 -0.2)">
     <use xlink:href="#STIXGeneral-Italic-79" transform="translate(0 0.90625)"/>
    </g>
   </g>
   <g id="patch_7">
    <path d="M 635.657143 339.428571 
C 655.297327 339.428571 674.135744 326.423359 688.023451 303.27718 
C 701.911158 280.131001 709.714286 248.73364 709.714286 216 
C 709.714286 183.26636 701.911158 151.868999 688.023451 128.72282 
C 674.135744 105.576641 655.297327 92.571429 635.657143 92.571429 
C 616.016959 92.571429 597.178542 105.576641 583.290835 128.72282 
C 569.403128 151.868999 561.6 183.26636 561.6 216 
C 561.6 248.73364 569.403128 280.131001 583.290835 303.27718 
C 597.178542 326.423359 616.016959 339.428571 635.657143 339.428571 
L 635.657143 339.428571 
z
" clip-path="url(#p2860409062)" style="fill: none; stroke: #89cff0; stroke-width: 3; stroke-linejoin: miter"/>
   </g>
   <g id="text_8">
    <!-- $F_1$ -->
    <g style="fill: #89cff0" transform="translate(650.468571 320.627857) scale(0.22 -0.22)">
     <use xlink:href="#STIXGeneral-Italic-46" transform="translate(0 0.703125)"/>
     <use xlink:href="#STIXGeneral-Regular-31" transform="translate(61.099991 -12.525) scale(0.7)"/>
    </g>
   </g>
   <g id="text_9">
    <!-- $F_2$ -->
    <g style="fill: #89cff0" transform="translate(650.468571 123.142143) scale(0.22 -0.22)">
     <use xlink:href="#STIXGeneral-Italic-46" transform="translate(0 0.703125)"/>
     <use xlink:href="#STIXGeneral-Regular-32" transform="translate(61.099991 -12.525) scale(0.7)"/>
    </g>
   </g>
   <g id="text_10">
    <!-- 焦点在 $y$ 轴 -->
    <g style="fill: #111111" transform="translate(573.857143 23.2) scale(0.24 -0.24)">
     <use xlink:href="#LXGWWenKai-Regular-7126" transform="translate(0 0.203125)"/>
     <use xlink:href="#LXGWWenKai-Regular-70b9" transform="translate(99.999985 0.203125)"/>
     <use xlink:href="#LXGWWenKai-Regular-5728" transform="translate(199.999969 0.203125)"/>
     <use xlink:href="#LXGWWenKai-Regular-20" transform="translate(299.999954 0.203125)"/>
     <use xlink:href="#STIXGeneral-Italic-79" transform="translate(334.999939 0.203125)"/>
     <use xlink:href="#LXGWWenKai-Regular-20" transform="translate(379.399933 0.203125)"/>
     <use xlink:href="#LXGWWenKai-Regular-8f74" transform="translate(414.399918 0.203125)"/>
    </g>
   </g>
   <g id="line2d_6">
    <defs>
     <path id="md509e3fb86" d="M 0 4 
C 1.060812 4 2.078319 3.578535 2.828427 2.828427 
C 3.578535 2.078319 4 1.060812 4 0 
C 4 -1.060812 3.578535 -2.078319 2.828427 -2.828427 
C 2.078319 -3.578535 1.060812 -4 0 -4 
C -1.060812 -4 -2.078319 -3.578535 -2.828427 -2.828427 
C -3.578535 -2.078319 -4 -1.060812 -4 0 
C -4 1.060812 -3.578535 2.078319 -2.828427 2.828427 
C -2.078319 3.578535 -1.060812 4 0 4 
z
" style="stroke: #89cff0"/>
    </defs>
    <g clip-path="url(#p2860409062)">
     <use xlink:href="#md509e3fb86" x="635.657143" y="314.742857" style="fill: #89cff0; stroke: #89cff0"/>
     <use xlink:href="#md509e3fb86" x="635.657143" y="117.257143" style="fill: #89cff0; stroke: #89cff0"/>
    </g>
   </g>
  </g>
 </g>
 <defs>
  <clipPath id="pfdd35348ac">
   <rect x="55.542857" y="43.2" width="345.6" height="345.6"/>
  </clipPath>
  <clipPath id="p2860409062">
   <rect x="462.857143" y="43.2" width="345.6" height="345.6"/>
  </clipPath>
 </defs>
</svg>
