<?xml version="1.0" encoding="utf-8" standalone="no"?>
<!DOCTYPE svg PUBLIC "-//W3C//DTD SVG 1.1//EN"
  "http://www.w3.org/Graphics/SVG/1.1/DTD/svg11.dtd">
<svg xmlns:xlink="http://www.w3.org/1999/xlink" width="861.12pt" height="588.664687pt" viewBox="0 0 861.12 588.664687" xmlns="http://www.w3.org/2000/svg" version="1.1">
 <metadata>
  <rdf:RDF xmlns:dc="http://purl.org/dc/elements/1.1/" xmlns:cc="http://creativecommons.org/ns#" xmlns:rdf="http://www.w3.org/1999/02/22-rdf-syntax-ns#">
   <cc:Work>
    <dc:type rdf:resource="http://purl.org/dc/dcmitype/StillImage"/>
    <dc:date>2026-02-14T14:24:45.533349</dc:date>
    <dc:format>image/svg+xml</dc:format>
    <dc:creator>
     <cc:Agent>
      <dc:title>Matplotlib v3.10.8, https://matplotlib.org/</dc:title>
     </cc:Agent>
    </dc:creator>
   </cc:Work>
  </rdf:RDF>
 </metadata>
 <defs>
  <style type="text/css">*{stroke-linejoin: round; stroke-linecap: butt}</style>
 </defs>
 <g id="figure_1">
  <g id="patch_1">
   <path d="M 0 588.664687 
L 861.12 588.664687 
L 861.12 0 
L 0 0 
z
" style="fill: #fefdf5"/>
  </g>
  <g id="axes_1">
   <g id="patch_2">
    <path d="M 199.636364 369.632727 
C 230.257196 369.632727 259.628 362.536019 281.280198 349.90557 
C 302.932396 337.275121 315.098182 320.142152 315.098182 302.28 
C 315.098182 284.417848 302.932396 267.284879 281.280198 254.65443 
C 259.628 242.023981 230.257196 234.927273 199.636364 234.927273 
C 169.015532 234.927273 139.644727 242.023981 117.992529 254.65443 
C 96.340331 267.284879 84.174545 284.417848 84.174545 302.28 
C 84.174545 320.142152 96.340331 337.275121 117.992529 349.90557 
C 139.644727 362.536019 169.015532 369.632727 199.636364 369.632727 
L 199.636364 369.632727 
z
" clip-path="url(#pa6f1c7ec9c)" style="fill: none; stroke: #e8927c; stroke-width: 3; stroke-linejoin: miter"/>
   </g>
   <g id="patch_3">
    <path d="M 180.923332 516.840493 
Q 210.677215 406.946563 130.51936 329.276 
" clip-path="url(#pa6f1c7ec9c)" style="fill: none; stroke-dasharray: 7.4,3.2; stroke-dashoffset: 0; stroke: #e8927c; stroke-width: 2; stroke-linecap: round"/>
    <path d="M 133.481143 337.715659 
L 130.51936 329.276 
L 139.048157 331.970369 
" clip-path="url(#pa6f1c7ec9c)" style="fill: none; stroke-dasharray: 7.4,3.2; stroke-dashoffset: 0; stroke: #e8927c; stroke-width: 2; stroke-linecap: round"/>
   </g>
   <g id="line2d_1">
    <path d="M 7.2 302.28 
L 392.072727 302.28 
" clip-path="url(#pa6f1c7ec9c)" style="fill: none; stroke: #5d4e37; stroke-opacity: 0.3; stroke-width: 0.8; stroke-linecap: square"/>
   </g>
   <g id="line2d_2">
    <path d="M 199.636364 494.716364 
L 199.636364 109.843636 
" clip-path="url(#pa6f1c7ec9c)" style="fill: none; stroke: #5d4e37; stroke-opacity: 0.3; stroke-width: 0.8; stroke-linecap: square"/>
   </g>
   <g id="line2d_3">
    <defs>
     <path id="me290e7f63e" d="M 0 4 
C 1.060812 4 2.078319 3.578535 2.828427 2.828427 
C 3.578535 2.078319 4 1.060812 4 0 
C 4 -1.060812 3.578535 -2.078319 2.828427 -2.828427 
C 2.078319 -3.578535 1.060812 -4 0 -4 
C -1.060812 -4 -2.078319 -3.578535 -2.828427 -2.828427 
C -3.578535 -2.078319 -4 -1.060812 -4 0 
C -4 1.060812 -3.578535 2.078319 -2.828427 2.828427 
C -2.078319 3.578535 -1.060812 4 0 4 
z
" style="stroke: #e8927c"/>
    </defs>
    <g clip-path="url(#pa6f1c7ec9c)">
     <use xlink:href="#me290e7f63e" x="105.854481" y="302.28" style="fill: #e8927c; stroke: #e8927c"/>
     <use xlink:href="#me290e7f63e" x="293.418247" y="302.28" style="fill: #e8927c; stroke: #e8927c"/>
    </g>
   </g>
   <g id="text_1">
    <!-- 焦点在 $x$ 轴 -->
    <g style="fill: #e8927c" transform="translate(148.136364 148.330909) scale(0.2 -0.2)">
     <defs>
      <path id="LXGWWenKai-Regular-7126" d="M 3610 4954 
L 3597 5030 
L 3597 5056 
Q 3597 5133 3661 5133 
Q 3725 5133 3821 5082 
Q 4070 4947 4070 4845 
Q 4070 4768 3907 4509 
Q 3744 4250 3635 4115 
L 4768 4192 
Q 4915 4205 4969 4224 
Q 5024 4243 5059 4243 
Q 5094 4243 5171 4198 
Q 5363 4070 5363 3949 
Q 5363 3885 5222 3872 
L 3654 3776 
L 3648 3238 
L 4435 3277 
Q 4582 3290 4630 3312 
Q 4678 3334 4713 3334 
Q 4749 3334 4826 3290 
Q 5024 3155 5024 3053 
Q 5024 2982 4877 2970 
L 3648 2912 
L 3648 2349 
L 4461 2387 
Q 4614 2406 4656 2425 
Q 4698 2445 4739 2445 
Q 4781 2445 4851 2390 
Q 4922 2336 4973 2265 
Q 5024 2195 5024 2157 
Q 5024 2099 4890 2080 
L 3648 2022 
L 3642 1427 
L 5120 1485 
Q 5242 1491 5296 1513 
Q 5350 1536 5404 1536 
Q 5459 1536 5529 1472 
Q 5600 1408 5645 1334 
Q 5690 1261 5690 1229 
Q 5690 1178 5555 1158 
L 1978 1030 
L 1978 832 
Q 1978 723 1882 723 
Q 1766 723 1644 812 
Q 1523 902 1523 953 
Q 1523 1005 1552 1113 
Q 1581 1222 1581 1459 
L 1600 3219 
Q 1184 2720 800 2394 
Q 627 2246 569 2246 
Q 512 2246 512 2307 
Q 512 2368 608 2483 
Q 1645 3731 2150 4813 
Q 2208 4941 2208 5062 
Q 2208 5184 2278 5184 
Q 2317 5184 2419 5133 
Q 2522 5082 2611 5005 
Q 2701 4928 2701 4883 
Q 2701 4838 2547 4579 
Q 2394 4320 2182 4026 
L 3264 4096 
Q 3482 4448 3546 4659 
Q 3610 4870 3610 4902 
L 3610 4954 
z
M 3270 3757 
L 1990 3680 
L 1984 3149 
L 3264 3213 
L 3270 3757 
z
M 3264 2893 
L 1984 2829 
L 1984 2266 
L 3258 2330 
L 3264 2893 
z
M 3258 2003 
L 1984 1946 
L 1978 1363 
L 3251 1414 
L 3258 2003 
z
M 5725 166 
Q 5888 0 5990 -125 
Q 6093 -250 6093 -304 
Q 6093 -358 6006 -460 
Q 5920 -563 5849 -563 
Q 5779 -563 5702 -467 
Q 5261 115 4736 582 
Q 4666 653 4666 710 
Q 4666 768 4742 832 
Q 4819 896 4873 896 
Q 4928 896 5053 790 
Q 5178 685 5370 509 
Q 5562 333 5725 166 
z
M 1018 -173 
Q 890 -346 787 -458 
Q 685 -570 643 -570 
Q 602 -570 496 -477 
Q 390 -384 390 -323 
Q 390 -262 448 -205 
Q 960 307 1158 736 
Q 1229 845 1257 845 
Q 1286 845 1350 826 
Q 1536 768 1536 678 
Q 1536 589 1341 294 
Q 1146 0 1018 -173 
z
M 4182 208 
Q 4326 58 4422 -57 
Q 4518 -173 4518 -205 
Q 4518 -237 4480 -294 
Q 4288 -550 4115 -339 
Q 3693 186 3315 506 
Q 3238 576 3238 627 
Q 3238 678 3312 752 
Q 3386 826 3440 826 
Q 3494 826 3616 733 
Q 3738 640 3888 499 
Q 4038 358 4182 208 
z
M 2774 173 
Q 2880 32 2947 -77 
Q 3014 -186 3014 -230 
Q 3014 -275 2918 -355 
Q 2822 -435 2755 -435 
Q 2688 -435 2618 -320 
Q 2323 173 2054 454 
Q 1990 518 1990 572 
Q 1990 627 2080 698 
Q 2144 762 2195 762 
Q 2246 762 2342 672 
Q 2438 582 2553 448 
Q 2669 314 2774 173 
z
" transform="scale(0.015625)"/>
      <path id="LXGWWenKai-Regular-70b9" d="M 1632 1197 
Q 1658 1376 1658 1449 
Q 1658 1523 1645 1613 
L 1523 2560 
Q 1510 2746 1456 2854 
Q 1402 2963 1402 3001 
Q 1402 3040 1494 3040 
Q 1587 3040 1926 2912 
L 2880 2963 
L 2886 4717 
Q 2886 4845 2838 4931 
Q 2790 5018 2790 5053 
Q 2790 5088 2860 5088 
Q 2931 5088 3034 5069 
Q 3309 5018 3309 4864 
L 3290 4077 
L 4538 4147 
Q 4659 4154 4729 4186 
Q 4800 4218 4854 4218 
Q 4909 4218 4979 4166 
Q 5158 4045 5158 3917 
Q 5158 3827 4992 3814 
L 3283 3725 
L 3270 2989 
L 4499 3053 
L 4576 3053 
Q 4704 3053 4790 2979 
Q 4877 2906 4877 2848 
Q 4877 2790 4857 2761 
Q 4838 2733 4832 2707 
L 4659 1683 
Q 4800 1485 4800 1414 
Q 4800 1344 4745 1337 
Q 4691 1331 4608 1325 
L 2061 1235 
L 2074 1101 
L 2074 1069 
Q 2074 941 1952 941 
Q 1818 941 1725 1024 
Q 1632 1107 1632 1197 
z
M 4416 2701 
L 1926 2573 
L 2022 1587 
L 4269 1677 
L 4416 2701 
z
M 5686 153 
Q 5856 -26 5968 -163 
Q 6080 -301 6080 -349 
Q 6080 -397 6029 -461 
Q 5805 -704 5677 -506 
Q 5235 96 4723 570 
Q 4646 646 4646 691 
Q 4646 736 4716 819 
Q 4787 902 4835 902 
Q 4883 902 5020 790 
Q 5158 678 5337 505 
Q 5517 333 5686 153 
z
M 4157 195 
Q 4288 32 4374 -89 
Q 4461 -211 4461 -246 
Q 4461 -282 4361 -374 
Q 4262 -467 4188 -467 
Q 4115 -467 4045 -352 
Q 3725 173 3347 576 
Q 3277 659 3277 698 
Q 3277 762 3357 826 
Q 3437 890 3481 890 
Q 3526 890 3638 784 
Q 3750 678 3888 518 
Q 4026 358 4157 195 
z
M 838 -499 
Q 736 -614 685 -614 
Q 634 -614 528 -531 
Q 422 -448 422 -371 
Q 422 -294 486 -230 
Q 973 256 1210 755 
Q 1254 858 1331 858 
Q 1408 858 1491 810 
Q 1574 762 1574 698 
Q 1574 634 1497 486 
Q 1421 339 1305 153 
Q 1190 -32 1065 -208 
Q 941 -384 838 -499 
z
M 2813 182 
Q 2912 26 2973 -92 
Q 3034 -211 3034 -249 
Q 3034 -288 2938 -368 
Q 2842 -448 2755 -448 
Q 2669 -448 2611 -326 
Q 2381 205 2131 538 
Q 2067 621 2067 665 
Q 2067 710 2144 771 
Q 2221 832 2272 832 
Q 2323 832 2412 733 
Q 2502 634 2608 486 
Q 2714 339 2813 182 
z
" transform="scale(0.015625)"/>
      <path id="LXGWWenKai-Regular-5728" d="M 2874 5030 
Q 2874 5107 2867 5171 
Q 2861 5235 2912 5235 
Q 2938 5235 3040 5197 
Q 3334 5088 3334 4954 
Q 3334 4934 3232 4649 
Q 3130 4365 2944 3987 
L 4979 4115 
Q 5197 4134 5261 4153 
Q 5325 4173 5363 4173 
Q 5402 4173 5491 4122 
Q 5734 3994 5734 3872 
Q 5734 3789 5613 3776 
L 2752 3603 
Q 2394 2925 1914 2298 
L 1894 -416 
Q 1894 -582 1786 -582 
Q 1709 -582 1587 -515 
Q 1466 -448 1466 -333 
Q 1504 -26 1504 218 
L 1523 1837 
Q 1261 1542 947 1286 
Q 378 819 218 819 
Q 179 819 179 864 
Q 179 909 403 1101 
Q 627 1293 937 1635 
Q 1248 1978 1530 2362 
L 1536 2605 
Q 1536 2701 1485 2800 
Q 1434 2899 1434 2937 
Q 1434 2976 1485 2976 
Q 1536 2976 1587 2970 
L 1696 2944 
Q 1830 2931 1888 2874 
Q 2150 3290 2304 3578 
L 1376 3520 
Q 1261 3507 1158 3507 
Q 1056 3507 957 3555 
Q 858 3603 768 3827 
Q 762 3840 762 3866 
Q 762 3910 813 3910 
Q 973 3878 1146 3878 
L 1229 3878 
L 2496 3955 
Q 2874 4806 2874 5030 
z
M 5376 384 
Q 5446 390 5491 393 
Q 5536 397 5722 429 
Q 5830 429 6003 243 
Q 6074 173 6074 122 
Q 6074 32 5920 19 
L 2464 -115 
L 2355 -115 
Q 2157 -115 2099 -38 
Q 1946 141 1946 282 
Q 1946 314 1968 314 
Q 1990 314 2073 282 
Q 2157 250 2304 250 
L 2336 250 
L 3597 307 
L 3610 1728 
L 2835 1683 
L 2714 1677 
Q 2541 1677 2486 1737 
Q 2432 1798 2374 1904 
Q 2317 2010 2317 2054 
Q 2317 2099 2339 2099 
Q 2362 2099 2445 2067 
Q 2528 2035 2675 2035 
L 2707 2035 
L 3610 2099 
L 3616 3104 
Q 3616 3290 3539 3418 
Q 3526 3437 3526 3465 
Q 3526 3494 3596 3494 
Q 3667 3494 3808 3440 
Q 3949 3386 3984 3344 
Q 4019 3302 4019 3213 
L 4013 2131 
L 4730 2182 
Q 4800 2189 4877 2192 
Q 4954 2195 5002 2211 
Q 5050 2227 5088 2227 
Q 5126 2227 5206 2176 
Q 5286 2125 5353 2051 
Q 5421 1978 5421 1926 
Q 5421 1843 5274 1830 
L 4006 1754 
L 3994 320 
L 5376 384 
z
" transform="scale(0.015625)"/>
      <path id="LXGWWenKai-Regular-20" transform="scale(0.015625)"/>
      <path id="STIXGeneral-Italic-78" d="M 1555 2272 
L 1632 1907 
Q 1971 2426 2179 2624 
Q 2387 2822 2598 2822 
Q 2714 2822 2787 2755 
Q 2861 2688 2861 2585 
Q 2861 2483 2800 2419 
Q 2739 2355 2643 2355 
Q 2586 2355 2490 2409 
Q 2394 2464 2310 2464 
Q 2125 2464 1683 1690 
Q 1683 1606 1734 1402 
L 1939 544 
Q 2003 282 2131 282 
Q 2234 282 2432 538 
Q 2451 563 2476 598 
Q 2502 634 2521 662 
Q 2541 691 2566 717 
L 2662 659 
Q 2387 230 2227 80 
Q 2067 -70 1882 -70 
Q 1728 -70 1645 26 
Q 1562 122 1504 365 
L 1318 1126 
L 755 365 
Q 557 96 432 13 
Q 307 -70 147 -70 
Q 0 -70 -86 0 
Q -173 70 -173 198 
Q -173 294 -112 361 
Q -51 429 45 429 
Q 122 429 250 358 
Q 346 301 416 301 
Q 525 301 742 614 
L 1267 1357 
L 1088 2150 
Q 1024 2432 969 2509 
Q 915 2586 794 2586 
Q 717 2586 544 2541 
L 429 2509 
L 410 2611 
L 480 2637 
Q 992 2822 1229 2822 
Q 1350 2822 1420 2707 
Q 1491 2592 1555 2272 
z
" transform="scale(0.015625)"/>
      <path id="LXGWWenKai-Regular-8f74" d="M 5626 294 
Q 5779 102 5779 35 
Q 5779 -32 5731 -41 
Q 5683 -51 5606 -58 
L 3552 -115 
L 3558 -275 
L 3558 -294 
Q 3558 -442 3462 -442 
Q 3341 -442 3251 -355 
Q 3162 -269 3162 -192 
L 3168 -115 
L 3168 237 
L 3053 2765 
Q 3046 2995 2957 3181 
Q 2944 3200 2944 3219 
Q 2944 3264 3017 3264 
Q 3091 3264 3405 3142 
L 4179 3187 
L 4179 4627 
Q 4179 4774 4124 4857 
Q 4070 4941 4070 4973 
Q 4070 5024 4140 5024 
Q 4211 5024 4345 4982 
Q 4480 4941 4521 4889 
Q 4563 4838 4563 4774 
L 4563 3213 
L 5504 3270 
L 5581 3277 
Q 5728 3277 5818 3110 
Q 5850 3059 5850 3027 
Q 5850 2995 5830 2960 
Q 5811 2925 5805 2886 
L 5626 294 
z
M 5402 2912 
L 4563 2867 
L 4550 1805 
L 5350 1843 
L 5402 2912 
z
M 4179 2842 
L 3418 2803 
L 3475 1754 
L 4186 1786 
L 4179 2842 
z
M 5331 1504 
L 4550 1466 
L 4550 256 
L 5274 275 
L 5331 1504 
z
M 4186 1446 
L 3488 1414 
L 3539 230 
L 4186 243 
L 4186 1446 
z
M 2131 -448 
Q 2131 -595 2048 -595 
L 2022 -595 
L 2016 -589 
Q 1734 -531 1734 -326 
L 1734 -262 
Q 1779 -19 1779 160 
L 1779 922 
Q 1395 736 1081 621 
Q 768 506 678 509 
Q 589 512 454 646 
Q 320 781 320 845 
Q 326 896 432 902 
Q 538 909 723 957 
Q 909 1005 1779 1286 
L 1779 2118 
L 1376 2080 
L 1350 2080 
L 1114 2054 
L 928 2022 
Q 864 2022 781 2064 
Q 698 2106 710 2214 
Q 730 2246 730 2266 
Q 1094 3155 1280 3763 
L 992 3744 
L 845 3738 
Q 685 3738 666 3776 
Q 563 3859 528 3952 
Q 493 4045 493 4077 
Q 493 4109 525 4109 
Q 557 4109 614 4093 
Q 672 4077 800 4077 
L 877 4077 
L 1376 4102 
Q 1549 4781 1565 4861 
Q 1581 4941 1555 5018 
Q 1491 5190 1606 5197 
Q 1690 5197 1811 5136 
Q 1933 5075 1974 5027 
Q 2016 4979 1990 4877 
Q 1920 4666 1792 4128 
L 2419 4166 
Q 2541 4179 2614 4211 
Q 2688 4243 2745 4243 
Q 2803 4243 2880 4192 
Q 3072 4058 3072 3962 
Q 3072 3891 2918 3872 
L 1702 3789 
Q 1581 3366 1376 2803 
L 1210 2432 
Q 1248 2419 1318 2426 
L 1779 2464 
L 1779 3040 
Q 1779 3168 1728 3245 
Q 1677 3322 1677 3347 
Q 1677 3392 1741 3392 
Q 1805 3392 1901 3366 
Q 2163 3302 2163 3155 
L 2157 2496 
L 2432 2522 
Q 2522 2541 2573 2554 
Q 2694 2650 2854 2426 
Q 2899 2374 2899 2310 
Q 2912 2234 2765 2214 
L 2157 2157 
L 2150 1414 
Q 2394 1504 2621 1597 
Q 2848 1690 2934 1686 
Q 3021 1683 3021 1645 
Q 3014 1568 2842 1472 
Q 2470 1267 2144 1101 
L 2131 -448 
z
" transform="scale(0.015625)"/>
     </defs>
     <use xlink:href="#LXGWWenKai-Regular-7126" transform="translate(0 0.203125)"/>
     <use xlink:href="#LXGWWenKai-Regular-70b9" transform="translate(99.999985 0.203125)"/>
     <use xlink:href="#LXGWWenKai-Regular-5728" transform="translate(199.999969 0.203125)"/>
     <use xlink:href="#LXGWWenKai-Regular-20" transform="translate(299.999954 0.203125)"/>
     <use xlink:href="#STIXGeneral-Italic-78" transform="translate(334.999939 0.203125)"/>
     <use xlink:href="#LXGWWenKai-Regular-20" transform="translate(379.399933 0.203125)"/>
     <use xlink:href="#LXGWWenKai-Regular-8f74" transform="translate(414.399918 0.203125)"/>
    </g>
   </g>
   <g id="text_2">
    <!-- $\frac{x^2}{a^2} + \frac{y^2}{b^2} = 1$ -->
    <g style="fill: #5d4e37" transform="translate(126.196364 542.825455) scale(0.36 -0.36)">
     <defs>
      <path id="STIXGeneral-Regular-32" d="M 3034 877 
L 2688 0 
L 186 0 
L 186 77 
L 1325 1286 
Q 1773 1754 1965 2144 
Q 2157 2534 2157 2950 
Q 2157 3379 1920 3616 
Q 1683 3853 1267 3853 
Q 922 3853 720 3673 
Q 518 3494 326 3021 
L 192 3053 
Q 301 3648 630 3987 
Q 960 4326 1523 4326 
Q 2054 4326 2380 4006 
Q 2707 3686 2707 3200 
Q 2707 2477 1888 1613 
L 832 486 
L 2330 486 
Q 2541 486 2665 569 
Q 2790 653 2944 915 
L 3034 877 
z
" transform="scale(0.015625)"/>
      <path id="STIXGeneral-Italic-61" d="M 2963 710 
L 3046 640 
Q 2688 205 2518 70 
Q 2349 -64 2157 -64 
Q 1901 -64 1901 198 
Q 1901 358 2048 934 
Q 1690 397 1389 163 
Q 1088 -70 749 -70 
Q 467 -70 288 125 
Q 109 320 109 672 
Q 109 1158 387 1664 
Q 666 2170 1094 2496 
Q 1523 2822 1939 2822 
Q 2368 2822 2451 2451 
L 2522 2758 
L 2541 2778 
L 2931 2822 
L 2976 2803 
Q 2970 2778 2938 2669 
Q 2368 595 2368 346 
Q 2368 262 2458 262 
Q 2554 262 2790 525 
L 2963 710 
z
M 2336 2310 
Q 2336 2477 2240 2579 
Q 2144 2682 1978 2682 
Q 1542 2682 1139 2093 
Q 928 1779 787 1395 
Q 646 1011 646 717 
Q 646 243 1030 243 
Q 1408 243 1843 870 
Q 2336 1581 2336 2310 
z
" transform="scale(0.015625)"/>
      <path id="STIXGeneral-Regular-2b" d="M 4070 1408 
L 2400 1408 
L 2400 -262 
L 1978 -262 
L 1978 1408 
L 307 1408 
L 307 1830 
L 1978 1830 
L 1978 3501 
L 2400 3501 
L 2400 1830 
L 4070 1830 
L 4070 1408 
z
" transform="scale(0.015625)"/>
      <path id="STIXGeneral-Italic-79" d="M 1555 1190 
L 1690 486 
Q 2118 1190 2294 1558 
Q 2470 1926 2470 2131 
Q 2470 2234 2304 2336 
Q 2138 2445 2138 2586 
Q 2138 2688 2211 2755 
Q 2285 2822 2394 2822 
Q 2534 2822 2630 2720 
Q 2726 2618 2726 2470 
Q 2726 1914 1888 518 
Q 1389 -307 918 -812 
Q 448 -1318 173 -1318 
Q 26 -1318 -64 -1241 
Q -154 -1165 -154 -1043 
Q -154 -934 -80 -860 
Q -6 -787 96 -787 
Q 218 -787 314 -876 
Q 410 -966 486 -966 
Q 602 -966 794 -755 
Q 877 -672 1040 -457 
Q 1203 -243 1248 -173 
Q 1312 -45 1312 51 
Q 1312 243 1113 1046 
Q 915 1850 787 2176 
Q 698 2413 592 2499 
Q 486 2586 294 2586 
Q 192 2586 96 2560 
L 96 2669 
Q 237 2694 301 2707 
Q 563 2758 986 2822 
L 1011 2822 
Q 1082 2822 1277 2227 
Q 1472 1632 1555 1190 
z
" transform="scale(0.015625)"/>
      <path id="STIXGeneral-Italic-62" d="M 1043 1856 
L 1050 1856 
Q 1370 2387 1654 2604 
Q 1939 2822 2285 2822 
Q 2618 2822 2822 2617 
Q 3027 2413 3027 2054 
Q 3027 1562 2726 1062 
Q 2426 563 1942 246 
Q 1459 -70 979 -70 
Q 685 -70 416 32 
Q 147 134 147 269 
L 147 307 
L 1056 3654 
Q 1114 3885 1114 3955 
Q 1114 4058 1053 4080 
Q 992 4102 704 4115 
L 704 4224 
Q 1184 4282 1683 4371 
L 1715 4339 
L 1581 3814 
L 1043 1856 
z
M 2483 1958 
Q 2483 2509 2035 2509 
Q 1594 2509 1158 1773 
Q 954 1427 826 1008 
Q 698 589 698 294 
Q 698 77 992 77 
Q 1414 77 1779 454 
Q 2074 762 2278 1187 
Q 2483 1613 2483 1958 
z
" transform="scale(0.015625)"/>
      <path id="STIXGeneral-Regular-3d" d="M 4077 2048 
L 307 2048 
L 307 2470 
L 4077 2470 
L 4077 2048 
z
M 4077 768 
L 307 768 
L 307 1190 
L 4077 1190 
L 4077 768 
z
" transform="scale(0.015625)"/>
      <path id="STIXGeneral-Regular-31" d="M 2522 0 
L 755 0 
L 755 96 
Q 1107 115 1235 227 
Q 1363 339 1363 608 
L 1363 3482 
Q 1363 3795 1171 3795 
Q 1082 3795 883 3718 
L 710 3654 
L 710 3744 
L 1856 4326 
L 1914 4307 
L 1914 486 
Q 1914 275 2042 185 
Q 2170 96 2522 96 
L 2522 0 
z
" transform="scale(0.015625)"/>
     </defs>
     <use xlink:href="#STIXGeneral-Italic-78" transform="translate(2 39.536563) scale(0.7)"/>
     <use xlink:href="#STIXGeneral-Regular-32" transform="translate(37.401183 64.229063) scale(0.49)"/>
     <use xlink:href="#STIXGeneral-Italic-61" transform="translate(0 -50.2925) scale(0.7)"/>
     <use xlink:href="#STIXGeneral-Regular-32" transform="translate(39.391181 -25.6) scale(0.49)"/>
     <use xlink:href="#STIXGeneral-Regular-2b" transform="translate(93.917732 0.974063)"/>
     <use xlink:href="#STIXGeneral-Italic-79" transform="translate(180.857714 53.186563) scale(0.7)"/>
     <use xlink:href="#STIXGeneral-Regular-32" transform="translate(216.258897 77.879063) scale(0.49)"/>
     <use xlink:href="#STIXGeneral-Italic-62" transform="translate(176.857714 -50.2925) scale(0.7)"/>
     <use xlink:href="#STIXGeneral-Regular-32" transform="translate(219.73675 -25.6) scale(0.49)"/>
     <use xlink:href="#STIXGeneral-Regular-3d" transform="translate(274.263301 0.974063)"/>
     <use xlink:href="#STIXGeneral-Regular-31" transform="translate(357.203282 0.974063)"/>
     <path d="M 0 13.770938 
L 0 20.020938 
L 66.977736 20.020938 
L 66.977736 13.770938 
L 0 13.770938 
z
"/>
     <path d="M 176.857714 13.770938 
L 176.857714 20.020938 
L 247.323305 20.020938 
L 247.323305 13.770938 
L 176.857714 13.770938 
z
"/>
    </g>
   </g>
   <g id="text_3">
    <!-- 分母更大 -->
    <g style="fill: #e8927c" transform="translate(59.593479 422.697974) rotate(-20) scale(0.14 -0.14)">
     <defs>
      <path id="LXGWWenKai-Regular-5206" d="M 3514 5056 
Q 3674 5050 3728 5018 
Q 3782 4986 3821 4902 
Q 4243 4026 5171 3149 
Q 5632 2707 6163 2355 
Q 6240 2310 6240 2268 
Q 6240 2227 6170 2163 
Q 5978 2010 5904 2010 
Q 5830 2010 5786 2042 
Q 4294 3187 3482 4704 
Q 3424 4813 3331 4864 
Q 3238 4915 3238 4953 
Q 3238 4992 3302 5024 
Q 3366 5056 3475 5056 
L 3514 5056 
z
M 333 1792 
Q 288 1766 237 1766 
Q 186 1766 186 1824 
Q 186 1882 346 2016 
Q 1178 2694 1734 3571 
Q 1971 3949 2092 4237 
Q 2214 4525 2214 4653 
Q 2214 4781 2291 4781 
Q 2368 4781 2537 4665 
Q 2707 4550 2707 4480 
Q 2707 4448 2682 4397 
Q 2227 3392 1555 2726 
Q 883 2061 333 1792 
z
M 1734 2406 
L 4403 2579 
Q 4435 2586 4467 2586 
L 4512 2586 
Q 4627 2586 4707 2518 
Q 4787 2451 4787 2384 
Q 4787 2317 4768 2278 
Q 4749 2240 4742 2208 
Q 4678 1139 4454 218 
Q 4275 -518 3936 -518 
Q 3706 -518 3072 38 
Q 2726 339 2726 435 
Q 2726 486 2803 486 
Q 2880 486 3123 339 
Q 3366 192 3834 19 
Q 3846 13 3865 13 
Q 3885 13 3910 58 
Q 4186 666 4314 2202 
L 3066 2118 
Q 2662 832 1741 128 
Q 1312 -205 832 -429 
Q 736 -474 669 -474 
Q 602 -474 602 -429 
Q 602 -352 749 -262 
Q 1363 134 1862 720 
Q 2362 1306 2618 2086 
L 1990 2042 
Q 1862 2029 1773 2029 
Q 1613 2029 1510 2227 
L 1453 2342 
Q 1440 2381 1440 2409 
Q 1440 2438 1475 2438 
Q 1510 2438 1564 2422 
Q 1619 2406 1734 2406 
z
" transform="scale(0.015625)"/>
      <path id="LXGWWenKai-Regular-6bcd" d="M 5562 3072 
L 5843 3136 
Q 5978 3136 6157 2982 
Q 6234 2912 6234 2854 
Q 6234 2746 6125 2733 
L 4941 2675 
Q 4890 1773 4787 1037 
L 4890 1037 
Q 5178 1050 5248 1078 
Q 5318 1107 5372 1107 
Q 5427 1107 5517 1069 
Q 5741 973 5741 819 
Q 5741 768 5702 733 
Q 5664 698 5613 698 
L 4736 678 
Q 4576 -691 4141 -691 
Q 3891 -691 3238 -256 
Q 2867 -6 2867 96 
Q 2867 141 2940 141 
Q 3014 141 3088 112 
Q 3162 83 3296 38 
Q 3430 -6 3715 -99 
Q 4000 -192 4041 -192 
Q 4083 -192 4109 -154 
Q 4192 -13 4307 672 
L 1709 614 
Q 1613 608 1545 592 
Q 1478 576 1398 576 
Q 1318 576 1241 656 
Q 1165 736 1165 787 
Q 1165 838 1203 947 
Q 1242 1056 1478 2502 
L 806 2470 
Q 762 2464 717 2464 
L 634 2464 
Q 307 2464 205 2778 
Q 198 2790 198 2822 
Q 198 2854 230 2854 
Q 262 2854 336 2835 
Q 410 2816 640 2816 
L 717 2816 
L 1530 2861 
Q 1645 3674 1702 4282 
L 1709 4378 
Q 1709 4550 1677 4656 
Q 1645 4762 1645 4800 
Q 1645 4877 1747 4877 
Q 1850 4877 2163 4691 
L 4710 4870 
L 4742 4870 
Q 4877 4870 4969 4803 
Q 5062 4736 5062 4665 
Q 5062 4595 5036 4544 
Q 5011 4493 5011 4461 
Q 4998 3738 4960 3034 
L 5338 3053 
Q 5446 3059 5562 3072 
z
M 2112 4358 
Q 2061 3731 1939 2880 
L 4550 3014 
Q 4576 3571 4595 4525 
L 2112 4358 
z
M 3558 3270 
Q 3098 3642 2726 3878 
Q 2656 3917 2656 3987 
Q 2656 4058 2733 4128 
Q 2810 4198 2845 4198 
Q 2880 4198 3049 4105 
Q 3219 4013 3577 3760 
Q 3936 3507 3936 3418 
Q 3936 3347 3865 3257 
Q 3795 3168 3737 3168 
Q 3680 3168 3558 3270 
z
M 1888 2522 
Q 1760 1613 1632 960 
L 4371 1024 
Q 4480 1850 4531 2656 
L 1888 2522 
z
M 3750 1520 
Q 3750 1459 3680 1366 
Q 3610 1274 3549 1274 
Q 3488 1274 3424 1325 
Q 2938 1728 2483 2003 
Q 2419 2048 2419 2102 
Q 2419 2157 2483 2246 
Q 2547 2336 2588 2336 
Q 2630 2336 2931 2157 
Q 3232 1978 3654 1658 
Q 3750 1581 3750 1520 
z
" transform="scale(0.015625)"/>
      <path id="LXGWWenKai-Regular-66f4" d="M 1459 4691 
L 4480 4870 
Q 4595 4877 4656 4896 
Q 4717 4915 4777 4915 
Q 4838 4915 4944 4809 
Q 5050 4704 5050 4640 
Q 5050 4576 4902 4563 
L 3366 4467 
L 3366 3885 
L 4685 3949 
Q 4704 3955 4723 3955 
L 4800 3955 
Q 4864 3955 4957 3884 
Q 5050 3814 5050 3756 
Q 5050 3699 5027 3664 
Q 5005 3629 4998 3597 
L 4845 2214 
Q 4992 2029 4992 1974 
Q 4992 1920 4947 1910 
Q 4902 1901 4826 1894 
L 3270 1824 
Q 3168 1267 2944 858 
Q 4275 237 6054 -160 
Q 6157 -179 6157 -230 
Q 6157 -243 6118 -320 
Q 5997 -538 5849 -538 
Q 5702 -538 5075 -346 
Q 3859 32 2746 563 
Q 2342 45 1645 -237 
Q 1146 -435 640 -499 
Q 467 -525 384 -525 
Q 301 -525 301 -474 
Q 301 -397 499 -339 
Q 1062 -166 1558 67 
Q 2054 301 2400 730 
L 2227 819 
Q 1754 1075 1459 1075 
L 1267 1075 
Q 1229 1075 1178 1069 
L 1133 1069 
Q 973 1069 954 1242 
L 954 1286 
Q 954 1376 995 1405 
Q 1037 1434 1206 1434 
Q 1376 1434 1657 1408 
Q 1939 1382 2349 1158 
Q 2413 1126 2473 1094 
Q 2534 1062 2598 1030 
Q 2765 1325 2809 1520 
Q 2854 1715 2874 1805 
L 1875 1760 
L 1882 1696 
L 1882 1670 
Q 1882 1555 1779 1555 
Q 1696 1555 1574 1632 
Q 1453 1709 1453 1786 
L 1472 2067 
L 1472 2131 
L 1357 3456 
Q 1344 3590 1286 3715 
Q 1229 3840 1229 3878 
Q 1229 3917 1315 3917 
Q 1402 3917 1715 3802 
L 2970 3866 
L 2957 4442 
L 1645 4365 
Q 1600 4358 1568 4358 
L 1510 4358 
Q 1357 4358 1273 4489 
Q 1190 4621 1190 4669 
Q 1190 4717 1229 4717 
L 1459 4691 
z
M 4582 3616 
L 3366 3558 
L 3366 3046 
L 4544 3110 
L 4582 3616 
z
M 1741 3482 
L 1779 2963 
L 2970 3027 
Q 2976 3091 2976 3155 
Q 2976 3219 2976 3283 
Q 2976 3347 2976 3411 
Q 2976 3475 2970 3539 
L 1741 3482 
z
M 4518 2790 
L 3360 2726 
Q 3354 2566 3315 2150 
L 4474 2202 
L 4518 2790 
z
M 1805 2650 
L 1850 2080 
L 2918 2131 
Q 2957 2522 2963 2707 
L 1805 2650 
z
" transform="scale(0.015625)"/>
      <path id="LXGWWenKai-Regular-5927" d="M 704 3104 
Q 832 3072 1018 3072 
L 1101 3072 
L 2752 3168 
Q 2861 3808 2861 4614 
Q 2861 4781 2765 4934 
Q 2739 4979 2739 5017 
Q 2739 5056 2819 5056 
Q 2899 5056 3040 5008 
Q 3181 4960 3257 4896 
Q 3334 4832 3334 4730 
L 3334 4710 
Q 3309 3853 3213 3194 
L 5075 3302 
Q 5210 3315 5280 3344 
Q 5350 3373 5392 3373 
Q 5434 3373 5517 3315 
Q 5754 3162 5754 3040 
Q 5754 2931 5581 2918 
L 3392 2797 
Q 4026 1530 4992 691 
Q 5491 262 6067 -19 
Q 6182 -77 6182 -115 
Q 6182 -154 6106 -230 
Q 5907 -429 5798 -429 
Q 5773 -429 5587 -320 
Q 5050 -19 4467 576 
Q 3661 1389 3091 2560 
Q 2835 1504 2138 742 
Q 1594 160 928 -192 
Q 659 -339 486 -403 
Q 314 -467 288 -467 
Q 211 -467 211 -416 
Q 211 -346 352 -262 
Q 1510 429 2093 1357 
Q 2496 1997 2675 2758 
L 1242 2682 
L 1043 2675 
Q 800 2675 698 2944 
Q 659 3040 659 3072 
Q 659 3104 704 3104 
z
" transform="scale(0.015625)"/>
     </defs>
     <use xlink:href="#LXGWWenKai-Regular-5206"/>
     <use xlink:href="#LXGWWenKai-Regular-6bcd" transform="translate(99.999985 0)"/>
     <use xlink:href="#LXGWWenKai-Regular-66f4" transform="translate(199.999969 0)"/>
     <use xlink:href="#LXGWWenKai-Regular-5927" transform="translate(299.999954 0)"/>
    </g>
   </g>
  </g>
  <g id="axes_2">
   <g id="patch_4">
    <path d="M 661.483636 417.741818 
C 679.345788 417.741818 696.478758 405.576033 709.109207 383.923835 
C 721.739655 362.271637 728.836364 332.900832 728.836364 302.28 
C 728.836364 271.659168 721.739655 242.288363 709.109207 220.636165 
C 696.478758 198.983967 679.345788 186.818182 661.483636 186.818182 
C 643.621484 186.818182 626.488515 198.983967 613.858066 220.636165 
C 601.227617 242.288363 594.130909 271.659168 594.130909 302.28 
C 594.130909 332.900832 601.227617 362.271637 613.858066 383.923835 
C 626.488515 405.576033 643.621484 417.741818 661.483636 417.741818 
L 661.483636 417.741818 
z
" clip-path="url(#p3f1a6c3c34)" style="fill: none; stroke: #4a90d9; stroke-width: 3; stroke-linejoin: miter"/>
   </g>
   <g id="patch_5">
    <path d="M 641.626664 516.867476 
Q 594.867347 370.642418 659.666743 233.93902 
" clip-path="url(#p3f1a6c3c34)" style="fill: none; stroke-dasharray: 7.4,3.2; stroke-dashoffset: 0; stroke: #4a90d9; stroke-width: 2; stroke-linecap: round"/>
    <path d="M 652.625613 239.454678 
L 659.666743 233.93902 
L 659.854591 242.881319 
" clip-path="url(#p3f1a6c3c34)" style="fill: none; stroke-dasharray: 7.4,3.2; stroke-dashoffset: 0; stroke: #4a90d9; stroke-width: 2; stroke-linecap: round"/>
   </g>
   <g id="line2d_4">
    <path d="M 469.047273 302.28 
L 853.92 302.28 
" clip-path="url(#p3f1a6c3c34)" style="fill: none; stroke: #5d4e37; stroke-opacity: 0.3; stroke-width: 0.8; stroke-linecap: square"/>
   </g>
   <g id="line2d_5">
    <path d="M 661.483636 494.716364 
L 661.483636 109.843636 
" clip-path="url(#p3f1a6c3c34)" style="fill: none; stroke: #5d4e37; stroke-opacity: 0.3; stroke-width: 0.8; stroke-linecap: square"/>
   </g>
   <g id="line2d_6">
    <defs>
     <path id="m3c4e5ec502" d="M 0 4 
C 1.060812 4 2.078319 3.578535 2.828427 2.828427 
C 3.578535 2.078319 4 1.060812 4 0 
C 4 -1.060812 3.578535 -2.078319 2.828427 -2.828427 
C 2.078319 -3.578535 1.060812 -4 0 -4 
C -1.060812 -4 -2.078319 -3.578535 -2.828427 -2.828427 
C -3.578535 -2.078319 -4 -1.060812 -4 0 
C -4 1.060812 -3.578535 2.078319 -2.828427 2.828427 
C -2.078319 3.578535 -1.060812 4 0 4 
z
" style="stroke: #4a90d9"/>
    </defs>
    <g clip-path="url(#p3f1a6c3c34)">
     <use xlink:href="#m3c4e5ec502" x="661.483636" y="396.061883" style="fill: #4a90d9; stroke: #4a90d9"/>
     <use xlink:href="#m3c4e5ec502" x="661.483636" y="208.498117" style="fill: #4a90d9; stroke: #4a90d9"/>
    </g>
   </g>
   <g id="text_4">
    <!-- 焦点在 $y$ 轴 -->
    <g style="fill: #4a90d9" transform="translate(609.983636 148.330909) scale(0.2 -0.2)">
     <use xlink:href="#LXGWWenKai-Regular-7126" transform="translate(0 0.203125)"/>
     <use xlink:href="#LXGWWenKai-Regular-70b9" transform="translate(99.999985 0.203125)"/>
     <use xlink:href="#LXGWWenKai-Regular-5728" transform="translate(199.999969 0.203125)"/>
     <use xlink:href="#LXGWWenKai-Regular-20" transform="translate(299.999954 0.203125)"/>
     <use xlink:href="#STIXGeneral-Italic-79" transform="translate(334.999939 0.203125)"/>
     <use xlink:href="#LXGWWenKai-Regular-20" transform="translate(379.399933 0.203125)"/>
     <use xlink:href="#LXGWWenKai-Regular-8f74" transform="translate(414.399918 0.203125)"/>
    </g>
   </g>
   <g id="text_5">
    <!-- $\frac{y^2}{a^2} + \frac{x^2}{b^2} = 1$ -->
    <g style="fill: #5d4e37" transform="translate(588.043636 542.825455) scale(0.36 -0.36)">
     <use xlink:href="#STIXGeneral-Italic-79" transform="translate(2 53.186563) scale(0.7)"/>
     <use xlink:href="#STIXGeneral-Regular-32" transform="translate(37.401183 77.879063) scale(0.49)"/>
     <use xlink:href="#STIXGeneral-Italic-61" transform="translate(0 -50.2925) scale(0.7)"/>
     <use xlink:href="#STIXGeneral-Regular-32" transform="translate(39.391181 -25.6) scale(0.49)"/>
     <use xlink:href="#STIXGeneral-Regular-2b" transform="translate(93.917732 0.974063)"/>
     <use xlink:href="#STIXGeneral-Italic-78" transform="translate(180.857714 39.536563) scale(0.7)"/>
     <use xlink:href="#STIXGeneral-Regular-32" transform="translate(216.258897 64.229063) scale(0.49)"/>
     <use xlink:href="#STIXGeneral-Italic-62" transform="translate(176.857714 -50.2925) scale(0.7)"/>
     <use xlink:href="#STIXGeneral-Regular-32" transform="translate(219.73675 -25.6) scale(0.49)"/>
     <use xlink:href="#STIXGeneral-Regular-3d" transform="translate(274.263301 0.974063)"/>
     <use xlink:href="#STIXGeneral-Regular-31" transform="translate(357.203282 0.974063)"/>
     <path d="M 0 13.770938 
L 0 20.020938 
L 66.977736 20.020938 
L 66.977736 13.770938 
L 0 13.770938 
z
"/>
     <path d="M 176.857714 13.770938 
L 176.857714 20.020938 
L 247.323305 20.020938 
L 247.323305 13.770938 
L 176.857714 13.770938 
z
"/>
    </g>
   </g>
   <g id="text_6">
    <!-- 分母更大 -->
    <g style="fill: #4a90d9" transform="translate(675.916364 422.552727) scale(0.14 -0.14)">
     <use xlink:href="#LXGWWenKai-Regular-5206"/>
     <use xlink:href="#LXGWWenKai-Regular-6bcd" transform="translate(99.999985 0)"/>
     <use xlink:href="#LXGWWenKai-Regular-66f4" transform="translate(199.999969 0)"/>
     <use xlink:href="#LXGWWenKai-Regular-5927" transform="translate(299.999954 0)"/>
    </g>
   </g>
  </g>
  <g id="text_7">
   <g id="patch_6">
    <path d="M 313.92 38.4 
C 321.12 45.6 540 45.6 547.2 38.4 
C 554.4 31.2 554.4 7.2 547.2 -0 
C 540 -7.2 321.12 -7.2 313.92 -0 
C 306.72 7.2 306.72 31.2 313.92 38.4 
z
" style="fill: #f7f5ec; stroke: #5d4e37; stroke-linejoin: miter"/>
   </g>
   <!-- 核心判定：$(a &gt; b &gt; 0)$ -->
   <g style="fill: #5d4e37" transform="translate(321.12 26.88) scale(0.24 -0.24)">
    <defs>
     <path id="LXGWWenKai-Regular-6838" d="M 4218 2240 
Q 4800 2944 4800 3232 
Q 4813 3322 4848 3322 
Q 4883 3322 4979 3277 
Q 5254 3149 5254 3008 
Q 5254 2976 5235 2944 
Q 4461 1830 3712 1254 
Q 3296 941 2790 704 
Q 2669 646 2611 646 
Q 2554 646 2554 678 
Q 2554 742 2694 845 
Q 3430 1382 3955 1939 
Q 3494 2317 2931 2630 
Q 2803 2694 2803 2764 
Q 2803 2835 2889 2912 
Q 2976 2989 3043 2989 
Q 3110 2989 3386 2803 
Q 3469 2886 3699 3225 
Q 3930 3565 3942 3725 
L 3110 3674 
Q 3053 3667 3008 3667 
L 2918 3667 
Q 2752 3667 2669 3750 
Q 2586 3834 2560 3917 
L 2541 4000 
Q 2541 4032 2586 4032 
L 2611 4032 
Q 2726 4019 2803 4019 
L 2944 4019 
Q 2995 4019 3059 4026 
L 4051 4083 
L 4026 4762 
Q 4013 4941 3961 5008 
Q 3910 5075 3910 5104 
Q 3910 5133 3955 5133 
Q 4461 5133 4461 4896 
L 4454 4109 
L 5152 4147 
Q 5446 4173 5529 4205 
Q 5613 4237 5670 4237 
Q 5728 4237 5811 4186 
Q 6042 4038 6042 3923 
Q 6042 3853 5862 3834 
L 4160 3738 
Q 4301 3597 4320 3565 
Q 4339 3533 4339 3491 
Q 4339 3450 4083 3123 
Q 3827 2797 3674 2624 
Q 4083 2342 4218 2240 
z
M 685 3360 
L 1504 3418 
L 1517 4653 
Q 1517 4781 1462 4861 
Q 1408 4941 1408 4960 
Q 1408 5011 1501 5011 
Q 1594 5011 1715 4966 
Q 1837 4922 1869 4883 
Q 1901 4845 1901 4768 
L 1882 3443 
L 2240 3475 
Q 2381 3494 2435 3510 
Q 2490 3526 2538 3526 
Q 2586 3526 2656 3475 
Q 2726 3424 2774 3360 
Q 2822 3296 2822 3258 
Q 2822 3174 2688 3162 
L 1882 3091 
L 1875 2528 
Q 1946 2573 1990 2573 
Q 2080 2573 2397 2211 
Q 2714 1850 2714 1763 
Q 2714 1677 2608 1616 
Q 2502 1555 2444 1555 
Q 2387 1555 2323 1658 
Q 2144 1958 1869 2272 
L 1837 -454 
Q 1837 -608 1722 -608 
Q 1702 -608 1625 -582 
Q 1549 -557 1478 -496 
Q 1408 -435 1408 -384 
L 1408 -307 
Q 1408 -288 1437 -169 
Q 1466 -51 1466 134 
L 1472 307 
L 1485 1888 
Q 1485 2022 1504 2310 
L 1510 2406 
Q 1408 1971 1069 1475 
Q 730 979 448 730 
Q 326 621 282 621 
Q 250 621 250 672 
Q 250 723 320 819 
Q 928 1683 1414 3059 
L 922 3021 
Q 819 3008 729 3008 
Q 640 3008 563 3072 
Q 486 3136 448 3216 
Q 410 3296 410 3341 
Q 410 3386 461 3386 
L 685 3360 
z
M 4506 634 
Q 3885 102 3245 -176 
Q 2605 -454 2432 -454 
Q 2387 -454 2387 -409 
Q 2387 -365 2528 -288 
Q 3853 448 4589 1254 
Q 4902 1600 5052 1849 
Q 5203 2099 5216 2198 
Q 5229 2298 5277 2298 
Q 5325 2298 5414 2253 
Q 5658 2118 5658 1997 
Q 5658 1978 5645 1952 
Q 5280 1389 4794 902 
Q 5498 390 5971 -70 
Q 6042 -141 6042 -185 
Q 6042 -230 6003 -294 
Q 5907 -461 5792 -461 
Q 5734 -461 5664 -384 
Q 5318 0 4506 634 
z
" transform="scale(0.015625)"/>
     <path id="LXGWWenKai-Regular-5fc3" d="M 3814 3309 
Q 3814 3213 3728 3129 
Q 3642 3046 3578 3046 
Q 3514 3046 3450 3110 
Q 2893 3680 2285 4166 
Q 2227 4211 2227 4262 
Q 2227 4339 2313 4416 
Q 2400 4493 2461 4493 
Q 2522 4493 2560 4461 
Q 3206 3974 3744 3462 
Q 3814 3405 3814 3309 
z
M 1907 2995 
Q 1907 3104 1948 3149 
Q 1990 3194 2112 3200 
L 2138 3200 
Q 2246 3200 2294 3155 
Q 2342 3110 2349 2982 
Q 2362 2394 2458 1926 
Q 2630 1050 3277 672 
Q 3840 339 4512 339 
Q 4717 339 4717 390 
L 4467 998 
Q 4192 1677 4192 1901 
Q 4192 1997 4243 1997 
Q 4333 1997 4480 1709 
Q 4774 1133 5197 506 
Q 5325 320 5325 182 
Q 5325 45 5101 -54 
Q 4877 -154 4570 -154 
Q 4486 -154 4410 -141 
Q 3187 6 2611 640 
Q 2112 1178 1984 2099 
Q 1920 2515 1907 2963 
L 1907 2995 
z
M 6086 1677 
Q 6144 1600 6144 1533 
Q 6144 1466 6045 1366 
Q 5946 1267 5869 1267 
Q 5792 1267 5722 1363 
Q 5190 2144 4627 2778 
Q 4582 2822 4582 2886 
Q 4582 2950 4672 3027 
Q 4762 3104 4829 3104 
Q 4896 3104 4973 3027 
Q 5549 2406 6086 1677 
z
M 1075 2957 
Q 1344 2957 1344 2790 
Q 1344 2701 1190 2121 
Q 1037 1542 742 909 
Q 685 787 595 787 
L 525 806 
Q 301 864 301 1011 
Q 301 1056 410 1286 
Q 717 1914 922 2822 
Q 947 2957 1075 2957 
z
" transform="scale(0.015625)"/>
     <path id="LXGWWenKai-Regular-5224" d="M 5651 -141 
L 5658 -339 
Q 5658 -474 5555 -576 
Q 5453 -678 5344 -678 
Q 5235 -678 4826 -397 
Q 4218 51 4218 154 
Q 4218 186 4269 186 
Q 4320 186 4489 115 
Q 4659 45 4867 -22 
Q 5075 -90 5235 -147 
L 5248 4787 
Q 5248 4934 5190 5027 
Q 5133 5120 5133 5158 
Q 5133 5197 5213 5197 
Q 5293 5197 5446 5142 
Q 5600 5088 5632 5049 
Q 5664 5011 5664 4941 
L 5651 -141 
z
M 4109 3674 
Q 4109 3808 4054 3904 
Q 4000 4000 4000 4019 
Q 4000 4064 4073 4064 
Q 4147 4064 4288 4016 
Q 4429 3968 4461 3929 
Q 4493 3891 4493 3814 
L 4512 960 
Q 4512 819 4393 819 
Q 4275 819 4176 908 
Q 4077 998 4077 1050 
L 4077 1120 
Q 4077 1139 4096 1222 
Q 4115 1306 4115 1498 
L 4109 3674 
z
M 1299 3200 
Q 1056 3731 710 4237 
Q 659 4307 659 4368 
Q 659 4429 755 4473 
Q 851 4518 899 4518 
Q 947 4518 1011 4435 
Q 1357 3962 1526 3651 
Q 1696 3341 1696 3286 
Q 1696 3232 1593 3161 
Q 1491 3091 1420 3091 
Q 1350 3091 1299 3200 
z
M 2650 3398 
Q 3142 4250 3142 4627 
Q 3142 4730 3213 4730 
Q 3245 4730 3341 4685 
Q 3603 4576 3603 4435 
Q 3603 4384 3578 4352 
Q 3258 3789 3027 3504 
Q 2797 3219 2672 3123 
Q 2547 3027 2518 3027 
Q 2490 3027 2490 3078 
Q 2490 3130 2650 3398 
z
M 2195 1376 
L 2189 1350 
Q 1939 294 1229 -320 
Q 941 -570 736 -682 
Q 531 -794 521 -794 
Q 512 -794 512 -733 
Q 512 -672 659 -531 
Q 1498 262 1754 1274 
L 1773 1357 
L 870 1312 
L 723 1306 
Q 582 1306 515 1373 
Q 448 1440 393 1545 
Q 339 1651 339 1686 
Q 339 1722 384 1722 
Q 410 1722 477 1699 
Q 544 1677 685 1677 
L 736 1677 
L 1843 1722 
Q 1894 2086 1894 2381 
L 1894 2458 
L 1254 2426 
L 1101 2419 
Q 973 2419 905 2480 
Q 838 2541 790 2640 
Q 742 2739 742 2758 
Q 742 2797 787 2797 
L 1050 2771 
L 1133 2771 
L 1894 2816 
L 1907 4723 
Q 1907 4896 1766 5069 
Q 1747 5094 1747 5123 
Q 1747 5152 1830 5152 
Q 1914 5152 2099 5107 
Q 2285 5062 2323 5017 
Q 2362 4973 2362 4896 
L 2317 2842 
L 2906 2874 
Q 3053 2886 3129 2912 
Q 3206 2938 3251 2938 
Q 3296 2938 3379 2886 
Q 3590 2758 3590 2637 
Q 3590 2554 3418 2541 
L 2310 2483 
L 2310 2413 
Q 2291 2003 2259 1741 
L 3270 1786 
Q 3418 1798 3494 1824 
Q 3571 1850 3628 1850 
Q 3686 1850 3769 1786 
Q 3853 1722 3907 1648 
Q 3962 1574 3962 1536 
Q 3962 1466 3782 1453 
L 2195 1376 
z
" transform="scale(0.015625)"/>
     <path id="LXGWWenKai-Regular-5b9a" d="M 1369 4467 
Q 1440 4467 1536 4425 
Q 1632 4384 1632 4329 
Q 1632 4275 1581 4096 
L 2989 4179 
L 2989 4755 
Q 2989 4890 2928 4976 
Q 2867 5062 2867 5094 
Q 2867 5146 2940 5146 
Q 3014 5146 3123 5114 
Q 3418 5024 3418 4915 
L 3411 4205 
L 5395 4326 
L 5453 4326 
Q 5587 4326 5680 4246 
Q 5773 4166 5773 4112 
Q 5773 4058 5728 4013 
Q 5683 3968 5609 3865 
Q 5536 3763 5376 3571 
Q 4998 3098 4864 3098 
Q 4832 3098 4832 3149 
Q 4832 3200 4963 3421 
Q 5094 3642 5203 3949 
L 1472 3738 
Q 1158 2906 1030 2829 
Q 998 2810 960 2810 
Q 922 2810 822 2883 
Q 723 2957 723 3001 
Q 723 3046 803 3184 
Q 883 3322 1024 3674 
Q 1165 4026 1267 4371 
Q 1299 4467 1369 4467 
z
M 1702 1498 
Q 1824 1837 1824 1920 
L 1824 2035 
Q 1824 2061 1811 2125 
Q 1811 2189 1875 2189 
Q 1939 2189 2035 2137 
Q 2131 2086 2204 2012 
Q 2278 1939 2278 1894 
Q 2278 1850 2192 1606 
Q 2106 1363 1920 1024 
Q 2445 730 2982 525 
L 3002 2637 
L 2003 2579 
L 1818 2573 
Q 1709 2573 1677 2605 
Q 1574 2714 1532 2816 
Q 1491 2918 1491 2950 
Q 1491 2982 1536 2982 
Q 1555 2982 1619 2966 
Q 1683 2950 1811 2950 
L 1882 2950 
L 4179 3072 
Q 4358 3091 4409 3104 
Q 4461 3117 4518 3117 
Q 4576 3117 4659 3059 
Q 4851 2918 4851 2816 
Q 4851 2739 4698 2726 
L 3405 2656 
L 3392 1766 
L 4243 1805 
Q 4378 1811 4464 1840 
Q 4550 1869 4585 1869 
Q 4621 1869 4697 1821 
Q 4774 1773 4841 1702 
Q 4909 1632 4909 1581 
Q 4909 1491 4755 1478 
L 3392 1427 
L 3379 390 
Q 4416 64 5888 -26 
Q 6048 -32 6048 -96 
Q 6048 -122 5997 -218 
Q 5856 -467 5728 -467 
Q 4947 -378 4320 -250 
Q 2874 51 1741 730 
Q 1261 26 762 -384 
Q 570 -538 515 -538 
Q 461 -538 461 -483 
Q 461 -429 538 -346 
Q 1402 646 1702 1498 
z
" transform="scale(0.015625)"/>
     <path id="LXGWWenKai-Regular-ff1a" d="M 1574 646 
Q 1709 646 1814 515 
Q 1920 384 1920 253 
Q 1920 122 1840 38 
Q 1760 -45 1606 -45 
Q 1453 -45 1350 86 
Q 1248 218 1248 355 
Q 1248 493 1344 569 
Q 1440 646 1574 646 
z
M 1574 3021 
Q 1709 3021 1814 2889 
Q 1920 2758 1920 2627 
Q 1920 2496 1840 2413 
Q 1760 2330 1606 2330 
Q 1453 2330 1350 2461 
Q 1248 2592 1248 2729 
Q 1248 2867 1344 2944 
Q 1440 3021 1574 3021 
z
" transform="scale(0.015625)"/>
     <path id="STIXGeneral-Regular-28" d="M 1946 -1030 
L 1869 -1133 
Q 1126 -710 716 32 
Q 307 774 307 1613 
Q 307 3386 1888 4326 
L 1946 4224 
Q 1293 3667 1075 3126 
Q 858 2586 858 1632 
Q 858 685 1082 96 
Q 1306 -493 1946 -1030 
z
" transform="scale(0.015625)"/>
     <path id="STIXGeneral-Regular-3e" d="M 3974 1594 
L 358 -154 
L 358 250 
L 3123 1626 
L 358 3002 
L 358 3418 
L 3974 1658 
L 3974 1594 
z
" transform="scale(0.015625)"/>
     <path id="STIXGeneral-Regular-30" d="M 3046 2112 
Q 3046 1683 2963 1302 
Q 2880 922 2717 602 
Q 2554 282 2266 96 
Q 1978 -90 1600 -90 
Q 1210 -90 915 108 
Q 621 307 461 640 
Q 301 973 227 1350 
Q 154 1728 154 2150 
Q 154 2746 301 3222 
Q 448 3699 790 4012 
Q 1133 4326 1626 4326 
Q 2253 4326 2649 3712 
Q 3046 3098 3046 2112 
z
M 2432 2080 
Q 2432 3091 2217 3625 
Q 2003 4160 1587 4160 
Q 1190 4160 979 3622 
Q 768 3085 768 2106 
Q 768 1120 979 598 
Q 1190 77 1600 77 
Q 2003 77 2217 598 
Q 2432 1120 2432 2080 
z
" transform="scale(0.015625)"/>
     <path id="STIXGeneral-Regular-29" d="M 186 4224 
L 262 4326 
Q 992 3891 1408 3148 
Q 1824 2406 1824 1581 
Q 1824 -166 243 -1133 
L 186 -1030 
Q 845 -486 1059 54 
Q 1274 595 1274 1562 
Q 1274 2534 1059 3120 
Q 845 3706 186 4224 
z
" transform="scale(0.015625)"/>
    </defs>
    <use xlink:href="#LXGWWenKai-Regular-6838" transform="translate(0 0.796875)"/>
    <use xlink:href="#LXGWWenKai-Regular-5fc3" transform="translate(99.999985 0.796875)"/>
    <use xlink:href="#LXGWWenKai-Regular-5224" transform="translate(199.999969 0.796875)"/>
    <use xlink:href="#LXGWWenKai-Regular-5b9a" transform="translate(299.999954 0.796875)"/>
    <use xlink:href="#LXGWWenKai-Regular-ff1a" transform="translate(399.999939 0.796875)"/>
    <use xlink:href="#STIXGeneral-Regular-28" transform="translate(499.999924 0.796875)"/>
    <use xlink:href="#STIXGeneral-Italic-61" transform="translate(533.299911 0.796875)"/>
    <use xlink:href="#STIXGeneral-Regular-3e" transform="translate(597.839899 0.796875)"/>
    <use xlink:href="#STIXGeneral-Italic-62" transform="translate(680.77988 0.796875)"/>
    <use xlink:href="#STIXGeneral-Regular-3e" transform="translate(745.219861 0.796875)"/>
    <use xlink:href="#STIXGeneral-Regular-30" transform="translate(828.159842 0.796875)"/>
    <use xlink:href="#STIXGeneral-Regular-29" transform="translate(878.159827 0.796875)"/>
   </g>
  </g>
  <g id="text_8">
   <!-- “ $a^2$ 在谁下面，焦点就在哪个轴上 ” -->
   <g style="fill: #5d4e37" transform="translate(257.75 577.68) scale(0.22 -0.22)">
    <defs>
     <path id="LXGWWenKai-Regular-201c" d="M 1677 4544 
Q 1728 4499 1782 4422 
Q 1837 4346 1837 4243 
Q 1837 4102 1750 4025 
Q 1664 3949 1530 3949 
Q 1402 3949 1312 4064 
Q 1222 4179 1203 4333 
Q 1203 4346 1200 4362 
Q 1197 4378 1197 4390 
Q 1197 4614 1382 4848 
Q 1568 5082 1830 5197 
Q 1843 5203 1856 5206 
Q 1869 5210 1882 5210 
Q 1926 5210 1948 5181 
Q 1971 5152 1971 5120 
Q 1971 5075 1933 5043 
Q 1811 4960 1705 4832 
Q 1600 4704 1568 4589 
Q 1581 4582 1625 4569 
Q 1670 4557 1677 4544 
z
M 845 4544 
Q 896 4499 950 4422 
Q 1005 4346 1005 4243 
Q 1005 4102 918 4025 
Q 832 3949 698 3949 
Q 570 3949 480 4064 
Q 390 4179 371 4333 
Q 371 4346 368 4362 
Q 365 4378 365 4390 
Q 365 4614 550 4848 
Q 736 5082 998 5197 
Q 1011 5203 1024 5206 
Q 1037 5210 1050 5210 
Q 1094 5210 1116 5181 
Q 1139 5152 1139 5120 
Q 1139 5075 1101 5043 
Q 979 4960 873 4832 
Q 768 4704 736 4589 
Q 749 4582 793 4569 
Q 838 4557 845 4544 
z
" transform="scale(0.015625)"/>
     <path id="LXGWWenKai-Regular-8c01" d="M 1472 2714 
L 806 2643 
Q 768 2637 742 2637 
L 678 2637 
Q 518 2637 416 2758 
Q 314 2880 314 2944 
Q 314 3008 352 3008 
Q 506 2982 563 2982 
L 640 2982 
Q 666 2982 691 2989 
L 1677 3104 
Q 1728 3104 1824 3037 
Q 1920 2970 1920 2902 
Q 1920 2835 1875 2797 
L 1837 2758 
L 1760 678 
Q 1869 755 2192 1011 
Q 2515 1267 2585 1270 
Q 2656 1274 2659 1235 
Q 2662 1197 2556 1075 
Q 2451 954 2124 573 
Q 1798 192 1651 99 
Q 1504 6 1437 -3 
Q 1370 -13 1267 57 
Q 1165 128 1085 214 
Q 1005 301 998 339 
Q 998 371 1113 393 
Q 1229 416 1395 486 
L 1472 2714 
z
M 4166 1299 
L 3226 1254 
L 3226 339 
L 4154 378 
L 4166 1299 
z
M 4179 2336 
L 3219 2285 
L 3226 1606 
L 4173 1645 
L 4179 2336 
z
M 4192 3398 
L 3213 3341 
L 3219 2630 
L 4179 2675 
L 4192 3398 
z
M 5600 429 
Q 5651 429 5862 474 
Q 5958 474 6106 288 
Q 6170 218 6170 173 
Q 6170 102 6022 90 
L 3232 -13 
L 3232 -467 
Q 3232 -640 3123 -640 
Q 3110 -640 3027 -614 
Q 2944 -589 2867 -521 
Q 2790 -454 2790 -374 
Q 2790 -294 2819 -150 
Q 2848 -6 2848 122 
L 2867 2893 
Q 2266 2080 2125 2080 
Q 2080 2080 2080 2141 
Q 2080 2202 2144 2291 
Q 3066 3622 3418 4858 
Q 3437 4915 3437 4992 
L 3411 5152 
Q 3411 5203 3468 5203 
Q 3526 5203 3629 5158 
Q 3898 5050 3898 4922 
Q 3898 4838 3706 4396 
Q 3514 3955 3366 3674 
L 4218 3725 
Q 4550 4442 4550 4710 
L 4538 4819 
Q 4538 4877 4602 4877 
Q 4614 4877 4710 4845 
Q 4998 4755 4998 4621 
Q 4998 4435 4550 3744 
L 5254 3789 
Q 5446 3808 5491 3824 
Q 5536 3840 5587 3840 
Q 5638 3840 5712 3782 
Q 5786 3725 5834 3657 
Q 5882 3590 5882 3558 
Q 5882 3501 5747 3482 
L 4557 3418 
L 4550 2694 
L 5043 2720 
Q 5190 2733 5248 2745 
Q 5306 2758 5357 2758 
Q 5408 2758 5478 2701 
Q 5638 2560 5638 2470 
Q 5638 2419 5517 2400 
L 4550 2355 
L 4544 1664 
L 5056 1690 
Q 5197 1690 5338 1734 
L 5370 1741 
Q 5485 1741 5619 1568 
Q 5683 1498 5683 1446 
Q 5683 1376 5542 1363 
L 4538 1318 
L 4531 390 
L 5600 429 
z
M 2156 4016 
Q 2246 3904 2246 3846 
Q 2246 3789 2156 3705 
Q 2067 3622 1996 3622 
Q 1926 3622 1811 3782 
Q 1485 4230 1126 4576 
Q 1056 4646 1056 4688 
Q 1056 4730 1107 4806 
Q 1158 4883 1219 4883 
Q 1280 4883 1392 4790 
Q 1504 4698 1651 4560 
Q 1798 4422 1932 4275 
Q 2067 4128 2156 4016 
z
" transform="scale(0.015625)"/>
     <path id="LXGWWenKai-Regular-4e0b" d="M 2835 4109 
L 1062 4006 
Q 1018 4000 973 4000 
L 896 4000 
Q 755 4000 691 4045 
Q 627 4102 560 4208 
Q 493 4314 493 4378 
Q 493 4442 531 4442 
Q 544 4442 611 4419 
Q 678 4397 845 4397 
L 922 4397 
L 5203 4646 
Q 5350 4653 5414 4678 
Q 5478 4704 5529 4704 
Q 5581 4704 5670 4643 
Q 5760 4582 5827 4505 
Q 5894 4429 5894 4378 
Q 5894 4288 5728 4275 
L 3270 4134 
L 3270 3002 
Q 3322 3098 3408 3098 
Q 3494 3098 4038 2774 
Q 4582 2451 4832 2265 
Q 5082 2080 5114 2041 
Q 5146 2003 5146 1961 
Q 5146 1920 5107 1843 
Q 5018 1658 4915 1658 
Q 4864 1658 4774 1728 
Q 4064 2298 3322 2701 
L 3270 2733 
L 3277 -416 
Q 3277 -589 3162 -589 
Q 3085 -589 2989 -531 
Q 2784 -422 2784 -282 
L 2784 -250 
Q 2784 -230 2809 -102 
Q 2835 26 2835 179 
L 2835 4109 
z
" transform="scale(0.015625)"/>
     <path id="LXGWWenKai-Regular-9762" d="M 582 4410 
L 858 4371 
L 5107 4634 
Q 5261 4646 5325 4672 
Q 5389 4698 5433 4698 
Q 5478 4698 5555 4646 
Q 5754 4512 5754 4403 
Q 5754 4333 5600 4320 
L 3021 4160 
Q 3219 4038 3219 3964 
Q 3219 3891 2982 3616 
Q 2746 3341 2579 3187 
L 5184 3328 
L 5222 3328 
Q 5389 3328 5472 3225 
Q 5555 3123 5555 3081 
Q 5555 3040 5539 3008 
Q 5523 2976 5517 2938 
L 5293 416 
Q 5485 211 5485 144 
Q 5485 77 5427 67 
Q 5370 58 5299 51 
L 1510 -58 
L 1523 -326 
L 1523 -346 
Q 1523 -454 1434 -454 
Q 1421 -454 1337 -428 
Q 1254 -403 1177 -342 
Q 1101 -282 1101 -186 
L 1101 -134 
Q 1114 -70 1114 -13 
L 1114 205 
Q 1114 262 1107 314 
L 960 2694 
Q 947 2938 845 3104 
Q 800 3194 800 3232 
Q 800 3270 896 3270 
Q 992 3270 1357 3117 
L 2138 3162 
Q 2765 3898 2765 4147 
L 1107 4045 
Q 979 4032 896 4032 
Q 717 4032 614 4230 
Q 550 4358 550 4384 
Q 550 4410 582 4410 
z
M 5082 2982 
L 4032 2931 
L 3974 352 
L 4896 378 
L 5082 2982 
z
M 3661 2912 
L 2675 2861 
L 2682 2253 
L 3648 2298 
L 3661 2912 
z
M 2310 2842 
L 1344 2790 
L 1491 275 
L 2368 301 
L 2310 2842 
z
M 3642 1990 
L 2688 1946 
L 2701 1331 
L 3629 1376 
L 3642 1990 
z
M 3622 1082 
L 2707 1043 
L 2720 314 
L 3603 339 
L 3622 1082 
z
" transform="scale(0.015625)"/>
     <path id="LXGWWenKai-Regular-ff0c" d="M 730 -666 
Q 646 -666 646 -576 
Q 646 -512 720 -464 
Q 794 -416 902 -285 
Q 1011 -154 1050 -51 
Q 954 -13 915 6 
Q 749 154 749 317 
Q 749 480 861 566 
Q 973 653 1117 653 
Q 1261 653 1360 531 
Q 1459 410 1478 243 
L 1478 192 
Q 1478 -90 1200 -378 
Q 922 -666 730 -666 
z
" transform="scale(0.015625)"/>
     <path id="LXGWWenKai-Regular-5c31" d="M 326 4064 
L 589 4038 
L 659 4038 
L 1709 4102 
L 1696 4742 
Q 1696 4858 1641 4941 
Q 1587 5024 1587 5046 
Q 1587 5069 1657 5069 
Q 1728 5069 1862 5037 
Q 1997 5005 2048 4969 
Q 2099 4934 2099 4845 
L 2086 4122 
L 2957 4173 
Q 3072 4179 3136 4204 
Q 3200 4230 3248 4230 
Q 3296 4230 3366 4169 
Q 3437 4109 3485 4035 
Q 3533 3962 3533 3923 
Q 3533 3859 3398 3840 
L 749 3686 
L 653 3680 
Q 544 3680 457 3750 
Q 371 3821 326 3904 
Q 282 3987 282 4025 
Q 282 4064 326 4064 
z
M 4608 4646 
Q 4608 4000 4538 3238 
L 5242 3283 
Q 5299 3296 5372 3309 
Q 5446 3322 5500 3341 
Q 5555 3360 5593 3360 
Q 5632 3360 5715 3309 
Q 5933 3174 5933 3066 
Q 5933 2982 5786 2970 
L 4493 2886 
L 4467 2714 
L 4429 2502 
Q 4442 2515 4490 2515 
Q 4538 2515 4685 2460 
Q 4832 2406 4861 2348 
Q 4890 2291 4890 2202 
L 4851 275 
Q 4851 38 5069 6 
Q 5165 -6 5261 -6 
Q 5645 -6 5753 128 
Q 5862 262 5965 1043 
Q 5997 1299 6074 1299 
Q 6112 1299 6150 1152 
Q 6189 1005 6189 627 
Q 6189 -83 5990 -269 
Q 5824 -410 5350 -410 
Q 5088 -410 4912 -394 
Q 4736 -378 4601 -234 
Q 4467 -90 4467 160 
L 4467 173 
L 4512 2029 
L 4512 2080 
Q 4512 2246 4416 2438 
Q 4192 1242 3648 429 
Q 3354 -13 2886 -435 
Q 2778 -538 2720 -538 
Q 2662 -538 2662 -480 
Q 2662 -422 2771 -294 
Q 3661 736 3955 2176 
Q 4032 2554 4083 2861 
L 3667 2835 
Q 3539 2822 3449 2822 
Q 3360 2822 3286 2899 
Q 3213 2976 3174 3059 
Q 3136 3142 3136 3174 
Q 3136 3206 3168 3206 
Q 3200 3206 3257 3190 
Q 3315 3174 3437 3174 
L 4128 3219 
Q 4198 3827 4198 4467 
L 4198 4614 
Q 4198 4768 4134 4870 
Q 4070 4973 4070 5005 
Q 4070 5056 4137 5056 
Q 4205 5056 4314 5030 
Q 4608 4947 4608 4787 
L 4608 4646 
z
M 5360 4131 
Q 5491 3974 5584 3843 
Q 5677 3712 5677 3670 
Q 5677 3629 5593 3542 
Q 5510 3456 5440 3456 
Q 5370 3456 5277 3606 
Q 5184 3757 4819 4192 
Q 4749 4282 4749 4333 
Q 4749 4384 4822 4448 
Q 4896 4512 4944 4512 
Q 4992 4512 5110 4400 
Q 5229 4288 5360 4131 
z
M 2163 -173 
Q 2163 -333 2080 -384 
Q 1933 -474 1872 -474 
Q 1811 -474 1619 -342 
Q 1427 -211 1075 173 
Q 998 269 998 304 
Q 998 339 1043 339 
Q 1088 339 1286 227 
Q 1485 115 1773 26 
L 1766 1830 
L 1306 1805 
L 1312 1754 
L 1312 1728 
Q 1312 1594 1210 1594 
Q 1190 1594 1114 1626 
Q 909 1702 909 1850 
L 909 1894 
Q 915 1933 915 1971 
L 915 2112 
Q 915 2144 909 2189 
L 838 2842 
Q 806 3110 730 3238 
Q 723 3251 723 3264 
Q 723 3309 800 3309 
Q 877 3309 1190 3213 
L 2739 3309 
Q 2758 3315 2778 3315 
L 2810 3315 
Q 2899 3315 2982 3244 
Q 3066 3174 3066 3123 
Q 3066 3072 3053 3043 
Q 3040 3014 3034 2976 
L 2906 2195 
Q 3066 2029 3066 1977 
Q 3066 1926 3014 1913 
Q 2963 1901 2874 1894 
L 2138 1856 
L 2157 13 
Q 2157 -13 2157 -38 
Q 2157 -64 2163 -83 
L 2163 -173 
z
M 2624 2950 
L 1210 2874 
L 1280 2125 
L 2547 2195 
L 2624 2950 
z
M 2973 1196 
Q 3085 1043 3165 908 
Q 3245 774 3245 720 
Q 3245 666 3155 586 
Q 3066 506 2998 506 
Q 2931 506 2880 602 
Q 2720 928 2563 1136 
Q 2406 1344 2406 1408 
Q 2406 1472 2489 1523 
Q 2573 1574 2614 1574 
Q 2656 1574 2758 1462 
Q 2861 1350 2973 1196 
z
M 544 128 
Q 403 26 361 26 
Q 320 26 320 77 
Q 320 128 378 205 
Q 742 659 986 1197 
Q 1030 1286 1030 1446 
Q 1030 1504 1078 1504 
Q 1126 1504 1216 1453 
Q 1453 1318 1453 1197 
Q 1453 1178 1440 1152 
Q 928 397 544 128 
z
" transform="scale(0.015625)"/>
     <path id="LXGWWenKai-Regular-54ea" d="M 813 1203 
Q 742 1203 627 1267 
Q 512 1331 512 1453 
Q 538 1658 538 1760 
L 480 3546 
Q 461 3795 429 3853 
Q 365 3942 365 3981 
Q 365 4013 441 4013 
Q 518 4013 819 3904 
L 1683 3955 
Q 1805 3955 1869 3878 
Q 1933 3802 1933 3757 
Q 1933 3706 1917 3667 
Q 1901 3629 1798 2003 
Q 1952 1830 1952 1760 
Q 1952 1690 1891 1677 
Q 1830 1664 902 1626 
L 915 1331 
Q 915 1203 813 1203 
z
M 890 1971 
L 1440 1997 
L 1517 3603 
L 832 3565 
L 890 1971 
z
M 4678 -653 
Q 4627 -653 4502 -573 
Q 4378 -493 4378 -339 
Q 4416 26 4416 237 
L 4403 3949 
Q 4403 4435 4355 4553 
Q 4307 4672 4307 4717 
Q 4307 4762 4384 4762 
Q 4461 4762 4826 4602 
L 5773 4704 
Q 5830 4704 5932 4637 
Q 6035 4570 6035 4518 
Q 6035 4467 5814 3964 
Q 5594 3462 5382 3142 
Q 5357 3098 5357 3059 
Q 5357 3014 5459 2906 
Q 6118 2227 6118 1453 
Q 6118 1069 5958 845 
Q 5882 742 5786 742 
Q 5606 742 5254 1049 
Q 4902 1357 4902 1466 
Q 4902 1510 4960 1510 
Q 5018 1510 5274 1376 
Q 5632 1190 5677 1190 
Q 5709 1190 5709 1222 
Q 5754 1402 5754 1574 
Q 5754 1933 5466 2355 
Q 5293 2630 5062 2861 
Q 4979 2944 4979 3040 
Q 4979 3130 5043 3238 
Q 5318 3674 5587 4378 
L 4774 4301 
L 4787 -531 
Q 4787 -576 4755 -614 
Q 4723 -653 4678 -653 
z
M 2970 2234 
L 3578 2272 
Q 3622 2739 3622 3213 
L 3085 3168 
Q 3034 2650 2970 2234 
z
M 3104 3488 
L 3629 3520 
Q 3642 4013 3642 4422 
L 3123 4365 
Q 3123 3808 3104 3488 
z
M 1658 -224 
Q 1626 -224 1626 -166 
Q 1626 -109 1821 176 
Q 2016 461 2221 902 
Q 2426 1344 2554 1882 
Q 2483 1869 2445 1869 
Q 2234 1869 2163 1933 
Q 2157 1946 2089 2048 
Q 2022 2150 2022 2189 
Q 2022 2234 2054 2234 
Q 2086 2234 2156 2218 
Q 2227 2202 2394 2202 
L 2611 2208 
Q 2675 2618 2726 3149 
L 2688 3149 
Q 2630 3136 2515 3136 
Q 2291 3136 2189 3373 
L 2150 3456 
Q 2150 3488 2202 3488 
Q 2368 3462 2547 3462 
Q 2650 3462 2746 3469 
Q 2758 3878 2758 4339 
Q 2400 4294 2310 4294 
Q 2214 4294 2134 4364 
Q 2054 4435 2019 4512 
Q 1984 4589 1984 4621 
Q 1984 4653 2010 4653 
Q 2042 4653 2112 4630 
Q 2182 4608 2355 4608 
Q 2445 4608 3088 4678 
Q 3731 4749 3776 4749 
Q 3936 4749 3997 4675 
Q 4058 4602 4058 4538 
Q 4058 4474 4035 4429 
Q 4013 4384 4013 4346 
Q 3994 1043 3770 320 
Q 3629 -147 3354 -147 
Q 3194 -147 2835 179 
Q 2502 499 2502 614 
Q 2502 653 2547 653 
Q 2592 653 2697 585 
Q 2803 518 3017 409 
Q 3232 301 3296 301 
Q 3360 301 3366 358 
Q 3494 864 3558 1952 
L 2906 1901 
Q 2701 1056 2208 365 
Q 2003 83 1849 -70 
Q 1696 -224 1658 -224 
z
" transform="scale(0.015625)"/>
     <path id="LXGWWenKai-Regular-4e2a" d="M 3386 4646 
Q 4160 3622 5120 2970 
Q 5606 2630 6202 2317 
Q 6304 2259 6304 2220 
Q 6304 2182 6166 2057 
Q 6029 1933 5933 1933 
Q 5901 1933 5645 2073 
Q 5389 2214 4986 2502 
Q 3981 3219 3174 4294 
Q 2592 3386 1741 2650 
Q 1069 2061 538 1773 
Q 326 1658 275 1658 
Q 224 1658 224 1696 
Q 224 1754 365 1875 
Q 1542 2867 2246 3757 
Q 2675 4301 2970 4928 
Q 3034 5069 3034 5178 
L 3034 5203 
Q 3034 5280 3101 5280 
Q 3168 5280 3270 5222 
Q 3533 5075 3533 4960 
Q 3533 4922 3501 4858 
L 3386 4646 
z
M 2976 2810 
Q 2976 2944 2861 3091 
Q 2829 3136 2829 3155 
Q 2829 3206 2934 3206 
Q 3040 3206 3187 3155 
Q 3334 3104 3372 3062 
Q 3411 3021 3411 2938 
L 3418 -474 
Q 3418 -646 3296 -646 
Q 3245 -646 3155 -602 
Q 2925 -474 2925 -326 
Q 2925 -288 2950 -160 
Q 2976 -32 2976 122 
L 2976 2810 
z
" transform="scale(0.015625)"/>
     <path id="LXGWWenKai-Regular-4e0a" d="M 666 237 
L 2803 314 
L 2771 4595 
Q 2771 4781 2675 4922 
Q 2650 4966 2650 4992 
Q 2650 5037 2723 5037 
Q 2797 5037 2944 4992 
Q 3226 4896 3226 4781 
L 3232 2918 
L 4390 2982 
Q 4627 3002 4700 3030 
Q 4774 3059 4841 3059 
Q 4909 3059 5001 2992 
Q 5094 2925 5158 2845 
Q 5222 2765 5222 2726 
Q 5222 2650 5062 2630 
L 3232 2522 
L 3245 333 
L 5325 410 
Q 5504 422 5597 448 
Q 5690 474 5731 474 
Q 5773 474 5865 416 
Q 5958 358 6035 275 
Q 6112 192 6112 134 
Q 6112 38 5952 26 
L 941 -154 
L 730 -160 
Q 442 -160 346 102 
Q 301 211 301 243 
Q 301 275 333 275 
Q 365 275 445 256 
Q 525 237 666 237 
z
" transform="scale(0.015625)"/>
     <path id="LXGWWenKai-Regular-201d" d="M 1504 4563 
Q 1491 4570 1449 4582 
Q 1408 4595 1395 4608 
Q 1344 4653 1289 4729 
Q 1235 4806 1235 4909 
Q 1235 5050 1321 5126 
Q 1408 5203 1542 5203 
Q 1670 5203 1760 5088 
Q 1850 4973 1869 4819 
Q 1869 4806 1872 4790 
Q 1875 4774 1875 4762 
Q 1875 4544 1689 4307 
Q 1504 4070 1242 3955 
Q 1229 3949 1216 3945 
Q 1203 3942 1190 3942 
Q 1146 3942 1123 3971 
Q 1101 4000 1101 4032 
Q 1101 4083 1139 4109 
Q 1261 4192 1369 4320 
Q 1478 4448 1504 4563 
z
M 672 4563 
Q 659 4570 617 4582 
Q 576 4595 563 4608 
Q 512 4653 457 4729 
Q 403 4806 403 4909 
Q 403 5050 489 5126 
Q 576 5203 710 5203 
Q 838 5203 928 5088 
Q 1018 4973 1037 4819 
Q 1037 4806 1040 4790 
Q 1043 4774 1043 4762 
Q 1043 4544 857 4307 
Q 672 4070 410 3955 
Q 397 3949 384 3945 
Q 371 3942 358 3942 
Q 314 3942 291 3971 
Q 269 4000 269 4032 
Q 269 4083 307 4109 
Q 429 4192 537 4320 
Q 646 4448 672 4563 
z
" transform="scale(0.015625)"/>
    </defs>
    <use xlink:href="#LXGWWenKai-Regular-201c" transform="translate(0 0.409375)"/>
    <use xlink:href="#LXGWWenKai-Regular-20" transform="translate(34.999985 0.409375)"/>
    <use xlink:href="#STIXGeneral-Italic-61" transform="translate(69.999969 0.409375)"/>
    <use xlink:href="#STIXGeneral-Regular-32" transform="translate(126.273085 35.684375) scale(0.7)"/>
    <use xlink:href="#LXGWWenKai-Regular-20" transform="translate(165.68245 0.409375)"/>
    <use xlink:href="#LXGWWenKai-Regular-5728" transform="translate(200.682434 0.409375)"/>
    <use xlink:href="#LXGWWenKai-Regular-8c01" transform="translate(300.682419 0.409375)"/>
    <use xlink:href="#LXGWWenKai-Regular-4e0b" transform="translate(400.682404 0.409375)"/>
    <use xlink:href="#LXGWWenKai-Regular-9762" transform="translate(500.682389 0.409375)"/>
    <use xlink:href="#LXGWWenKai-Regular-ff0c" transform="translate(600.682373 0.409375)"/>
    <use xlink:href="#LXGWWenKai-Regular-7126" transform="translate(700.682358 0.409375)"/>
    <use xlink:href="#LXGWWenKai-Regular-70b9" transform="translate(800.682343 0.409375)"/>
    <use xlink:href="#LXGWWenKai-Regular-5c31" transform="translate(900.682328 0.409375)"/>
    <use xlink:href="#LXGWWenKai-Regular-5728" transform="translate(1000.682312 0.409375)"/>
    <use xlink:href="#LXGWWenKai-Regular-54ea" transform="translate(1100.682297 0.409375)"/>
    <use xlink:href="#LXGWWenKai-Regular-4e2a" transform="translate(1200.682282 0.409375)"/>
    <use xlink:href="#LXGWWenKai-Regular-8f74" transform="translate(1300.682267 0.409375)"/>
    <use xlink:href="#LXGWWenKai-Regular-4e0a" transform="translate(1400.682251 0.409375)"/>
    <use xlink:href="#LXGWWenKai-Regular-20" transform="translate(1500.682236 0.409375)"/>
    <use xlink:href="#LXGWWenKai-Regular-201d" transform="translate(1535.682221 0.409375)"/>
   </g>
  </g>
 </g>
 <defs>
  <clipPath id="pa6f1c7ec9c">
   <rect x="7.2" y="109.843636" width="384.872727" height="384.872727"/>
  </clipPath>
  <clipPath id="p3f1a6c3c34">
   <rect x="469.047273" y="109.843636" width="384.872727" height="384.872727"/>
  </clipPath>
 </defs>
</svg>
