<?xml version="1.0" encoding="utf-8" standalone="no"?>
<!DOCTYPE svg PUBLIC "-//W3C//DTD SVG 1.1//EN"
  "http://www.w3.org/Graphics/SVG/1.1/DTD/svg11.dtd">
<svg xmlns:xlink="http://www.w3.org/1999/xlink" width="878.4pt" height="320.92875pt" viewBox="0 0 878.4 320.92875" xmlns="http://www.w3.org/2000/svg" version="1.1">
 <metadata>
  <rdf:RDF xmlns:dc="http://purl.org/dc/elements/1.1/" xmlns:cc="http://creativecommons.org/ns#" xmlns:rdf="http://www.w3.org/1999/02/22-rdf-syntax-ns#">
   <cc:Work>
    <dc:type rdf:resource="http://purl.org/dc/dcmitype/StillImage"/>
    <dc:date>2026-02-14T07:34:54.551842</dc:date>
    <dc:format>image/svg+xml</dc:format>
    <dc:creator>
     <cc:Agent>
      <dc:title>Matplotlib v3.10.8, https://matplotlib.org/</dc:title>
     </cc:Agent>
    </dc:creator>
   </cc:Work>
  </rdf:RDF>
 </metadata>
 <defs>
  <style type="text/css">*{stroke-linejoin: round; stroke-linecap: butt}</style>
 </defs>
 <g id="figure_1">
  <g id="patch_1">
   <path d="M 0 320.92875 
L 878.4 320.92875 
L 878.4 0 
L 0 0 
z
" style="fill: #fefdf5"/>
  </g>
  <g id="axes_1">
   <g id="patch_2">
    <path d="M 79.2 216 
L 223.2 216 
Q 230.4 216 230.4 208.8 
L 230.4 79.2 
Q 230.4 72 223.2 72 
L 79.2 72 
Q 72 72 72 79.2 
L 72 208.8 
Q 72 216 79.2 216 
z
" clip-path="url(#p3aa5351e49)" style="fill: #f7f5ec; stroke: #5d4e37; stroke-linejoin: miter"/>
   </g>
   <g id="patch_3">
    <path d="M 122.4 187.2 
L 151.2 108 
L 180 187.2 
L 122.4 187.2 
z
" clip-path="url(#p3aa5351e49)" style="fill: none; stroke: #e8837c; stroke-width: 1.5; stroke-linejoin: miter"/>
   </g>
   <g id="patch_4">
    <path d="M 239.600391 144 
Q 295.200095 144 349.122748 144 
" clip-path="url(#p3aa5351e49)" style="fill: none; stroke: #e8837c; stroke-width: 1.5; stroke-linecap: round"/>
    <path d="M 343.122748 141 
L 349.122748 144 
L 343.122748 147 
z
" clip-path="url(#p3aa5351e49)" style="fill: #e8837c; stroke: #e8837c; stroke-width: 1.5; stroke-linecap: round"/>
   </g>
   <g id="patch_5">
    <path d="M 367.2 216 
L 511.2 216 
Q 518.4 216 518.4 208.8 
L 518.4 79.2 
Q 518.4 72 511.2 72 
L 367.2 72 
Q 360 72 360 79.2 
L 360 208.8 
Q 360 216 367.2 216 
z
" clip-path="url(#p3aa5351e49)" style="fill: #f7f5ec; stroke: #5d4e37; stroke-linejoin: miter"/>
   </g>
   <g id="patch_6">
    <path d="M 439.2 176.4 
C 450.656774 176.4 461.64585 173.744769 469.747013 169.019091 
C 477.848175 164.293413 482.4 157.883118 482.4 151.2 
C 482.4 144.516882 477.848175 138.106587 469.747013 133.380909 
C 461.64585 128.655231 450.656774 126 439.2 126 
C 427.743226 126 416.75415 128.655231 408.652987 133.380909 
C 400.551825 138.106587 396 144.516882 396 151.2 
C 396 157.883118 400.551825 164.293413 408.652987 169.019091 
C 416.75415 173.744769 427.743226 176.4 439.2 176.4 
L 439.2 176.4 
z
" clip-path="url(#p3aa5351e49)" style="fill: none; stroke: #e8837c; stroke-width: 1.5; stroke-linejoin: miter"/>
   </g>
   <g id="patch_7">
    <path d="M 527.600391 144 
Q 583.200095 144 637.122748 144 
" clip-path="url(#p3aa5351e49)" style="fill: none; stroke: #e8837c; stroke-width: 1.5; stroke-linecap: round"/>
    <path d="M 631.122748 141 
L 637.122748 144 
L 631.122748 147 
z
" clip-path="url(#p3aa5351e49)" style="fill: #e8837c; stroke: #e8837c; stroke-width: 1.5; stroke-linecap: round"/>
   </g>
   <g id="patch_8">
    <path d="M 655.2 216 
L 799.2 216 
Q 806.4 216 806.4 208.8 
L 806.4 79.2 
Q 806.4 72 799.2 72 
L 655.2 72 
Q 648 72 648 79.2 
L 648 208.8 
Q 648 216 655.2 216 
z
" clip-path="url(#p3aa5351e49)" style="fill: #f7f5ec; stroke: #5d4e37; stroke-linejoin: miter"/>
   </g>
   <g id="line2d_1">
    <defs>
     <path id="m5a3eb0c966" d="M 0 1.5 
C 0.397805 1.5 0.77937 1.341951 1.06066 1.06066 
C 1.341951 0.77937 1.5 0.397805 1.5 0 
C 1.5 -0.397805 1.341951 -0.77937 1.06066 -1.06066 
C 0.77937 -1.341951 0.397805 -1.5 0 -1.5 
C -0.397805 -1.5 -0.77937 -1.341951 -1.06066 -1.06066 
C -1.341951 -0.77937 -1.5 -0.397805 -1.5 0 
C -1.5 0.397805 -1.341951 0.77937 -1.06066 1.06066 
C -0.77937 1.341951 -0.397805 1.5 0 1.5 
z
" style="stroke: #5d4e37"/>
    </defs>
    <g clip-path="url(#p3aa5351e49)">
     <use xlink:href="#m5a3eb0c966" x="417.6" y="151.2" style="fill: #5d4e37; stroke: #5d4e37"/>
     <use xlink:href="#m5a3eb0c966" x="460.8" y="151.2" style="fill: #5d4e37; stroke: #5d4e37"/>
    </g>
   </g>
   <g id="text_1">
    <!-- 第一章 -->
    <g style="fill: #5d4e37" transform="translate(130.2 237.6) scale(0.14 -0.14)">
     <defs>
      <path id="LXGWWenKai-Regular-7b2c" d="M 3904 5069 
L 3910 5146 
Q 3923 5248 3984 5248 
Q 4045 5248 4131 5190 
Q 4218 5133 4288 5062 
Q 4358 4992 4358 4947 
Q 4358 4902 4333 4870 
L 4147 4576 
L 5325 4666 
Q 5485 4685 5542 4704 
Q 5600 4723 5629 4723 
Q 5658 4723 5728 4685 
Q 5920 4570 5920 4454 
Q 5920 4384 5786 4371 
L 4550 4288 
Q 5114 3923 5114 3821 
Q 5114 3776 5046 3683 
Q 4979 3590 4918 3590 
Q 4858 3590 4755 3692 
Q 4653 3795 4397 3987 
Q 4301 4058 4301 4118 
Q 4301 4179 4397 4275 
L 3904 4243 
Q 3590 3866 3258 3616 
Q 3110 3507 3056 3507 
Q 3002 3507 3002 3546 
Q 3002 3603 3162 3779 
Q 3322 3955 3494 4218 
Q 3840 4730 3904 5069 
z
M 1773 5152 
Q 1850 5152 2000 5037 
Q 2150 4922 2150 4858 
Q 2150 4794 1907 4474 
L 2867 4538 
Q 2989 4550 3069 4576 
Q 3149 4602 3197 4602 
Q 3245 4602 3315 4550 
Q 3386 4499 3434 4435 
Q 3482 4371 3482 4339 
Q 3482 4262 3341 4250 
L 2259 4179 
Q 2342 4128 2585 3945 
Q 2829 3763 2829 3693 
Q 2829 3680 2797 3622 
Q 2714 3469 2618 3469 
Q 2579 3469 2428 3613 
Q 2278 3757 2048 3930 
Q 1978 3981 1978 4032 
Q 1978 4083 2061 4166 
L 1651 4141 
Q 1184 3558 736 3258 
Q 563 3142 515 3142 
Q 467 3142 467 3174 
Q 467 3219 557 3328 
Q 1178 3987 1651 4787 
Q 1709 4890 1709 5011 
L 1709 5062 
Q 1709 5152 1773 5152 
z
M 5280 1824 
L 5370 1830 
Q 5440 1830 5529 1763 
Q 5619 1696 5619 1632 
Q 5619 1568 5593 1542 
Q 5568 1517 5562 1485 
Q 5523 1165 5427 761 
Q 5331 358 5305 243 
Q 5280 128 5190 22 
Q 5101 -83 5021 -83 
Q 4941 -83 4720 13 
Q 4499 109 4102 358 
Q 3706 608 3706 717 
Q 3706 749 3766 749 
Q 3827 749 4166 611 
Q 4506 474 4870 384 
L 4890 384 
Q 4922 384 4928 416 
Q 5114 1037 5178 1485 
L 3398 1382 
L 3392 -525 
Q 3392 -666 3277 -666 
Q 3142 -666 3052 -586 
Q 2963 -506 2963 -454 
L 2963 -384 
Q 2963 -365 2979 -310 
Q 2995 -256 2995 -64 
L 2995 38 
L 3008 1133 
Q 2246 371 1363 -64 
Q 998 -243 755 -323 
Q 512 -403 448 -403 
Q 384 -403 384 -378 
Q 384 -314 595 -198 
Q 1843 474 2694 1344 
L 1638 1280 
Q 1555 1274 1507 1258 
Q 1459 1242 1408 1242 
Q 1357 1242 1277 1296 
Q 1197 1350 1197 1414 
Q 1197 1478 1216 1523 
L 1440 2182 
Q 1472 2266 1472 2368 
L 1453 2573 
L 1453 2611 
Q 1453 2682 1504 2682 
Q 1581 2682 1837 2515 
L 3021 2579 
L 3027 3098 
L 1830 3021 
Q 1792 3014 1754 3014 
L 1690 3014 
Q 1542 3014 1465 3091 
Q 1389 3168 1366 3248 
Q 1344 3328 1344 3350 
Q 1344 3373 1376 3373 
L 1645 3347 
L 1715 3347 
L 4794 3539 
L 4851 3539 
Q 5037 3539 5088 3462 
Q 5139 3386 5139 3354 
Q 5139 3322 5107 3283 
Q 5075 3245 5062 3206 
L 4928 2656 
Q 5082 2483 5082 2428 
Q 5082 2374 5027 2368 
Q 4973 2362 4896 2355 
L 3405 2272 
L 3405 1722 
L 5280 1824 
z
M 4672 3206 
L 3411 3123 
L 3405 2598 
L 4557 2662 
L 4672 3206 
z
M 3014 2246 
L 1805 2176 
L 1632 1619 
L 3008 1696 
L 3014 2246 
z
" transform="scale(0.015625)"/>
      <path id="LXGWWenKai-Regular-4e00" d="M 704 2451 
L 5357 2688 
Q 5510 2701 5574 2726 
Q 5638 2752 5676 2752 
Q 5715 2752 5804 2697 
Q 5894 2643 5968 2563 
Q 6042 2483 6042 2419 
Q 6042 2317 5894 2304 
L 947 2048 
Q 896 2042 851 2042 
L 774 2042 
Q 646 2042 582 2086 
Q 474 2176 426 2304 
Q 378 2432 378 2464 
Q 378 2496 400 2496 
Q 422 2496 499 2473 
Q 576 2451 704 2451 
z
" transform="scale(0.015625)"/>
      <path id="LXGWWenKai-Regular-7ae0" d="M 5331 3674 
Q 5344 3674 5600 3725 
Q 5702 3725 5808 3619 
Q 5914 3514 5914 3469 
Q 5914 3392 5779 3379 
L 979 3123 
L 819 3117 
Q 614 3117 525 3315 
Q 486 3411 486 3440 
Q 486 3469 525 3469 
Q 653 3443 800 3443 
L 851 3443 
L 2445 3526 
Q 2259 3782 2169 3875 
Q 2080 3968 2057 3993 
Q 2035 4019 2035 4057 
Q 2035 4096 2125 4160 
L 1587 4128 
L 1478 4128 
Q 1338 4128 1299 4160 
Q 1146 4314 1146 4422 
Q 1146 4454 1184 4454 
Q 1338 4429 1395 4429 
L 2976 4518 
L 2963 4915 
Q 2957 5069 2918 5117 
Q 2880 5165 2880 5206 
Q 2880 5248 2934 5248 
Q 2989 5248 3034 5235 
L 3149 5216 
Q 3283 5190 3324 5148 
Q 3366 5107 3366 5037 
L 3354 4538 
L 4634 4614 
Q 4774 4634 4822 4650 
Q 4870 4666 4902 4666 
Q 4934 4666 5011 4634 
Q 5216 4538 5216 4422 
Q 5216 4339 5075 4333 
L 4006 4269 
Q 4237 4154 4237 4048 
Q 4237 3942 3859 3603 
L 5331 3674 
z
M 2336 4173 
Q 2515 4032 2643 3888 
Q 2771 3744 2771 3686 
Q 2771 3629 2656 3539 
L 3462 3578 
Q 3821 4013 3821 4218 
Q 3821 4250 3827 4256 
L 2336 4173 
z
M 2925 -422 
Q 2957 -198 2957 -58 
L 2963 493 
L 941 410 
L 710 403 
Q 627 403 524 444 
Q 422 486 352 704 
Q 346 717 346 752 
Q 346 787 384 787 
Q 397 787 480 761 
Q 563 736 710 736 
L 774 736 
L 2963 826 
L 2970 1235 
L 2144 1190 
L 2144 1146 
Q 2144 1024 2042 1024 
Q 1958 1024 1833 1085 
Q 1709 1146 1709 1248 
L 1709 1267 
Q 1722 1370 1722 1450 
Q 1722 1530 1709 1619 
L 1632 2496 
Q 1619 2669 1571 2765 
Q 1523 2861 1523 2880 
Q 1523 2925 1609 2925 
Q 1696 2925 2022 2822 
L 4493 2963 
L 4531 2963 
Q 4653 2963 4745 2896 
Q 4838 2829 4838 2765 
Q 4838 2701 4819 2665 
Q 4800 2630 4794 2605 
L 4634 1613 
Q 4800 1453 4800 1382 
Q 4800 1312 4627 1299 
L 3373 1248 
L 3373 845 
L 5421 915 
Q 5626 928 5690 950 
Q 5754 973 5779 973 
Q 5805 973 5875 928 
Q 6080 806 6080 698 
Q 6080 614 5939 602 
L 3373 512 
L 3379 -544 
Q 3379 -659 3277 -659 
Q 3149 -659 2995 -557 
Q 2925 -506 2925 -422 
z
M 4384 2643 
L 2022 2522 
L 2054 2176 
L 4346 2291 
L 4384 2643 
z
M 4307 1990 
L 2080 1875 
L 2112 1504 
L 4262 1600 
L 4307 1990 
z
" transform="scale(0.015625)"/>
     </defs>
     <use xlink:href="#LXGWWenKai-Regular-7b2c"/>
     <use xlink:href="#LXGWWenKai-Regular-4e00" transform="translate(99.999985 0)"/>
     <use xlink:href="#LXGWWenKai-Regular-7ae0" transform="translate(199.999969 0)"/>
    </g>
   </g>
   <g id="text_2">
    <!-- 圆锥截面 -->
    <g style="fill: #5d4e37" transform="translate(127.2 266.4) scale(0.12 -0.12)">
     <defs>
      <path id="LXGWWenKai-Regular-5706" d="M 5562 173 
Q 5766 -51 5766 -121 
Q 5766 -192 5702 -201 
Q 5638 -211 5549 -218 
L 1248 -314 
L 1248 -518 
Q 1248 -685 1139 -685 
Q 998 -685 899 -585 
Q 800 -486 800 -390 
L 800 -358 
Q 800 -333 822 -243 
Q 845 -154 845 102 
L 838 4358 
Q 838 4557 730 4774 
Q 717 4800 717 4819 
Q 717 4864 800 4864 
Q 883 4864 1248 4736 
L 5229 4973 
L 5286 4973 
Q 5517 4973 5581 4819 
Q 5606 4762 5606 4742 
L 5581 4608 
L 5562 173 
z
M 5165 4602 
L 1235 4384 
L 1248 45 
L 5152 154 
L 5165 4602 
z
M 4474 192 
Q 4429 192 4301 282 
Q 3981 518 3373 781 
Q 3290 826 3290 883 
Q 3290 941 3347 1017 
Q 3405 1094 3462 1094 
Q 3520 1094 4000 860 
Q 4480 627 4560 579 
Q 4640 531 4640 473 
Q 4640 416 4595 304 
Q 4550 192 4474 192 
z
M 2048 1434 
L 1958 2432 
Q 1946 2643 1904 2736 
Q 1862 2829 1862 2857 
Q 1862 2886 1936 2886 
Q 2010 2886 2336 2790 
L 4109 2886 
L 4128 2886 
Q 4230 2886 4323 2809 
Q 4416 2733 4416 2691 
Q 4416 2650 4403 2624 
Q 4390 2598 4384 2573 
L 4301 1472 
L 4294 1178 
L 4288 1114 
Q 4275 1018 4192 1030 
Q 4090 1030 3987 1110 
Q 3885 1190 3923 1308 
Q 3962 1427 4019 2592 
L 2304 2502 
L 2381 1421 
L 2400 1126 
L 2400 1062 
Q 2400 966 2297 966 
Q 2195 966 2108 1024 
Q 2022 1082 2022 1165 
L 2048 1434 
z
M 2189 3232 
L 2195 3315 
Q 2195 3373 2182 3450 
L 2138 3904 
Q 2125 4045 2070 4137 
Q 2016 4230 2016 4262 
Q 2016 4294 2077 4294 
Q 2138 4294 2445 4173 
L 3930 4269 
L 3974 4269 
Q 4077 4269 4141 4211 
Q 4205 4154 4205 4112 
Q 4205 4070 4195 4041 
Q 4186 4013 4179 3987 
L 4070 3462 
Q 4218 3309 4218 3267 
Q 4218 3226 4173 3222 
Q 4128 3219 4064 3213 
L 2560 3136 
L 2560 3110 
Q 2560 3021 2451 3021 
Q 2342 3021 2265 3065 
Q 2189 3110 2189 3194 
L 2189 3232 
z
M 3795 3974 
L 2483 3891 
L 2528 3411 
L 3725 3482 
L 3795 3974 
z
M 3059 2010 
Q 3059 2131 3027 2182 
Q 2995 2234 2995 2259 
Q 2995 2330 3116 2330 
Q 3238 2330 3328 2278 
Q 3418 2227 3418 2131 
Q 3398 1549 3273 1248 
Q 3149 947 2985 777 
Q 2822 608 2633 489 
Q 2445 371 2272 300 
Q 2099 230 1894 182 
Q 1690 134 1664 134 
Q 1568 134 1568 217 
Q 1568 301 1677 352 
Q 2707 691 2938 1318 
Q 3046 1606 3052 1718 
Q 3059 1830 3059 1914 
L 3059 2010 
z
" transform="scale(0.015625)"/>
      <path id="LXGWWenKai-Regular-9525" d="M 314 2842 
Q 288 2842 288 2902 
Q 288 2963 512 3280 
Q 736 3597 992 4163 
Q 1248 4730 1248 5024 
Q 1248 5101 1296 5101 
Q 1344 5101 1427 5062 
Q 1664 4941 1664 4794 
Q 1664 4762 1549 4522 
Q 1434 4282 1382 4192 
L 1933 4237 
Q 2029 4243 2173 4291 
Q 2317 4339 2397 4339 
Q 2477 4339 2579 4233 
Q 2682 4128 2682 4041 
Q 2682 3955 2605 3942 
L 1171 3846 
Q 1075 3680 883 3437 
Q 659 3123 508 2982 
Q 358 2842 314 2842 
z
M 2522 710 
Q 2176 358 1814 67 
Q 1453 -224 1369 -224 
Q 1286 -224 1187 -89 
Q 1088 45 1088 96 
Q 1088 122 1142 134 
Q 1197 147 1338 218 
L 1350 1670 
L 896 1645 
Q 794 1632 714 1632 
Q 634 1632 589 1658 
Q 378 1811 378 1952 
Q 378 2003 416 2003 
L 659 1978 
L 1350 2016 
L 1363 2835 
L 1114 2822 
Q 954 2822 928 2842 
Q 723 2989 723 3155 
Q 723 3187 768 3187 
Q 787 3187 841 3174 
Q 896 3162 1114 3162 
Q 2067 3213 2160 3251 
Q 2253 3290 2288 3290 
Q 2323 3290 2400 3226 
Q 2586 3098 2586 3002 
Q 2586 2925 2438 2912 
L 1734 2861 
L 1728 2035 
Q 2144 2054 2221 2086 
Q 2298 2118 2320 2118 
Q 2342 2118 2419 2067 
Q 2630 1946 2630 1830 
Q 2630 1760 2490 1747 
L 1722 1696 
L 1715 422 
Q 2067 621 2313 797 
Q 2560 973 2605 973 
Q 2650 973 2650 902 
Q 2650 832 2522 710 
z
M 3616 5011 
L 3597 5114 
Q 3597 5184 3661 5184 
Q 3738 5184 3878 5120 
Q 4096 5024 4096 4922 
Q 4096 4890 4090 4870 
Q 3846 4269 3488 3674 
L 4301 3718 
Q 4698 4403 4698 4678 
L 4698 4710 
Q 4698 4730 4691 4755 
L 4691 4781 
Q 4691 4851 4736 4851 
Q 4870 4851 5062 4672 
Q 5139 4614 5139 4569 
Q 5139 4525 4937 4189 
Q 4736 3853 4653 3744 
L 5184 3776 
Q 5350 3789 5411 3811 
Q 5472 3834 5504 3834 
Q 5536 3834 5613 3789 
Q 5824 3661 5824 3565 
Q 5824 3488 5658 3475 
L 4659 3418 
L 4653 2650 
L 4992 2669 
Q 5107 2682 5180 2707 
Q 5254 2733 5292 2733 
Q 5331 2733 5411 2685 
Q 5491 2637 5552 2569 
Q 5613 2502 5613 2444 
Q 5613 2387 5453 2374 
L 4653 2330 
L 4646 1606 
L 4966 1619 
Q 5152 1632 5200 1651 
Q 5248 1670 5309 1670 
Q 5370 1670 5453 1616 
Q 5536 1562 5593 1494 
Q 5651 1427 5651 1389 
Q 5651 1325 5491 1312 
L 4640 1274 
L 4634 403 
L 5485 429 
Q 5645 435 5731 467 
Q 5818 499 5872 499 
Q 5926 499 6012 444 
Q 6099 390 6156 320 
Q 6214 250 6214 192 
Q 6214 134 6042 115 
L 3418 19 
L 3418 -493 
Q 3418 -640 3328 -640 
Q 3264 -640 3161 -595 
Q 3059 -550 3017 -508 
Q 2976 -467 2976 -412 
Q 2976 -358 3001 -236 
Q 3027 -115 3027 128 
L 3046 3053 
Q 2490 2362 2368 2362 
Q 2342 2362 2342 2413 
Q 2342 2464 2406 2573 
Q 3123 3622 3475 4486 
Q 3616 4851 3616 4922 
L 3616 5011 
z
M 4294 3392 
L 3398 3334 
L 3405 2586 
L 4282 2630 
L 4294 3392 
z
M 4282 2310 
L 3405 2266 
L 3411 1542 
L 4262 1581 
L 4282 2310 
z
M 4262 1254 
L 3411 1222 
L 3411 365 
L 4250 390 
L 4262 1254 
z
" transform="scale(0.015625)"/>
      <path id="LXGWWenKai-Regular-622a" d="M 960 4307 
Q 1114 4269 1222 4269 
L 1267 4269 
L 2042 4320 
L 2042 4762 
Q 2042 4877 2000 4960 
Q 1958 5043 1958 5075 
Q 1958 5107 2003 5107 
Q 2048 5107 2144 5075 
Q 2406 4986 2406 4864 
L 2400 4339 
L 2874 4371 
Q 3021 4390 3062 4406 
Q 3104 4422 3142 4422 
Q 3181 4422 3251 4378 
Q 3437 4269 3437 4179 
Q 3437 4102 3290 4090 
L 2400 4032 
L 2394 3546 
L 3667 3616 
Q 3565 4307 3549 4640 
Q 3533 4973 3465 5069 
Q 3398 5165 3398 5190 
Q 3398 5242 3459 5242 
Q 3520 5242 3622 5222 
Q 3904 5158 3917 5011 
Q 3949 4384 4058 3642 
L 5242 3712 
Q 5402 3731 5466 3750 
Q 5530 3770 5571 3770 
Q 5613 3770 5683 3718 
Q 5869 3590 5869 3501 
Q 5869 3424 5715 3411 
L 4115 3315 
Q 4314 2163 4659 1395 
Q 4954 1939 5059 2320 
Q 5165 2701 5165 2746 
L 5165 2816 
Q 5165 2829 5152 2893 
Q 5152 2957 5216 2957 
Q 5242 2957 5338 2918 
Q 5600 2797 5600 2656 
Q 5600 2554 5347 1958 
Q 5094 1363 4851 998 
Q 5158 448 5530 115 
Q 5664 -6 5690 -6 
Q 5734 -6 5811 256 
Q 5888 518 5942 857 
Q 5997 1197 6064 1197 
Q 6131 1197 6150 877 
L 6157 730 
Q 6157 352 6099 29 
Q 6042 -294 5965 -396 
Q 5888 -499 5773 -499 
Q 5523 -499 5241 -224 
Q 4960 51 4602 672 
Q 4115 6 3622 -320 
Q 3424 -454 3363 -454 
Q 3302 -454 3302 -410 
Q 3302 -346 3437 -211 
Q 3994 333 4410 1005 
Q 3974 1862 3718 3296 
L 858 3123 
L 717 3117 
Q 595 3117 550 3162 
Q 435 3264 390 3418 
Q 384 3430 384 3456 
Q 384 3482 409 3482 
Q 435 3482 489 3462 
Q 544 3443 691 3443 
L 742 3443 
L 2035 3520 
L 2035 4013 
L 1389 3968 
L 1235 3962 
Q 1050 3962 973 4173 
Q 934 4269 934 4288 
Q 934 4307 960 4307 
z
M 5210 4237 
Q 5261 4192 5261 4115 
Q 5261 4038 5174 3952 
Q 5088 3866 5043 3866 
Q 4998 3866 4899 3987 
Q 4800 4109 4598 4294 
Q 4397 4480 4291 4563 
Q 4186 4646 4186 4694 
Q 4186 4742 4262 4819 
Q 4339 4896 4378 4896 
Q 4467 4896 4922 4493 
L 5210 4237 
z
M 2208 2502 
Q 2406 2880 2406 2953 
Q 2406 3027 2400 3097 
Q 2394 3168 2451 3168 
Q 2490 3168 2579 3123 
Q 2816 3014 2816 2912 
Q 2816 2880 2729 2739 
Q 2643 2598 2579 2528 
L 3187 2566 
Q 3347 2579 3401 2601 
Q 3456 2624 3485 2624 
Q 3514 2624 3632 2534 
Q 3750 2445 3750 2387 
Q 3750 2330 3715 2314 
Q 3680 2298 3629 2291 
L 2586 2227 
L 2579 1862 
L 2995 1888 
Q 3117 1901 3165 1917 
Q 3213 1933 3248 1933 
Q 3283 1933 3401 1856 
Q 3520 1779 3520 1702 
Q 3520 1626 3424 1606 
L 3411 1606 
L 2573 1562 
L 2566 1158 
L 3008 1178 
Q 3085 1184 3155 1206 
Q 3226 1229 3261 1229 
Q 3296 1229 3414 1152 
Q 3533 1075 3533 998 
Q 3533 922 3437 902 
L 3424 902 
L 2566 864 
L 2560 390 
L 3213 416 
Q 3379 429 3427 448 
Q 3475 467 3510 467 
Q 3546 467 3610 422 
Q 3776 307 3776 211 
Q 3776 141 3654 128 
L 1395 32 
L 1395 -333 
Q 1395 -486 1286 -486 
Q 1152 -486 1069 -419 
Q 986 -352 986 -262 
L 986 -230 
Q 986 -211 1008 -99 
Q 1030 13 1030 250 
L 1056 1754 
Q 781 1440 557 1257 
Q 333 1075 291 1075 
Q 250 1075 250 1123 
Q 250 1171 317 1254 
Q 384 1338 595 1610 
Q 806 1882 1091 2326 
Q 1376 2771 1376 2957 
L 1376 3034 
Q 1376 3123 1440 3123 
Q 1504 3123 1587 3068 
Q 1670 3014 1737 2944 
Q 1805 2874 1805 2816 
Q 1805 2758 1594 2458 
L 2208 2502 
z
M 2227 2208 
L 1408 2157 
L 1408 1786 
L 2221 1837 
L 2227 2208 
z
M 2221 1536 
L 1402 1491 
L 1402 1094 
L 2214 1139 
L 2221 1536 
z
M 2208 851 
L 1402 806 
L 1402 346 
L 2202 378 
L 2208 851 
z
" transform="scale(0.015625)"/>
      <path id="LXGWWenKai-Regular-9762" d="M 582 4410 
L 858 4371 
L 5107 4634 
Q 5261 4646 5325 4672 
Q 5389 4698 5433 4698 
Q 5478 4698 5555 4646 
Q 5754 4512 5754 4403 
Q 5754 4333 5600 4320 
L 3021 4160 
Q 3219 4038 3219 3964 
Q 3219 3891 2982 3616 
Q 2746 3341 2579 3187 
L 5184 3328 
L 5222 3328 
Q 5389 3328 5472 3225 
Q 5555 3123 5555 3081 
Q 5555 3040 5539 3008 
Q 5523 2976 5517 2938 
L 5293 416 
Q 5485 211 5485 144 
Q 5485 77 5427 67 
Q 5370 58 5299 51 
L 1510 -58 
L 1523 -326 
L 1523 -346 
Q 1523 -454 1434 -454 
Q 1421 -454 1337 -428 
Q 1254 -403 1177 -342 
Q 1101 -282 1101 -186 
L 1101 -134 
Q 1114 -70 1114 -13 
L 1114 205 
Q 1114 262 1107 314 
L 960 2694 
Q 947 2938 845 3104 
Q 800 3194 800 3232 
Q 800 3270 896 3270 
Q 992 3270 1357 3117 
L 2138 3162 
Q 2765 3898 2765 4147 
L 1107 4045 
Q 979 4032 896 4032 
Q 717 4032 614 4230 
Q 550 4358 550 4384 
Q 550 4410 582 4410 
z
M 5082 2982 
L 4032 2931 
L 3974 352 
L 4896 378 
L 5082 2982 
z
M 3661 2912 
L 2675 2861 
L 2682 2253 
L 3648 2298 
L 3661 2912 
z
M 2310 2842 
L 1344 2790 
L 1491 275 
L 2368 301 
L 2310 2842 
z
M 3642 1990 
L 2688 1946 
L 2701 1331 
L 3629 1376 
L 3642 1990 
z
M 3622 1082 
L 2707 1043 
L 2720 314 
L 3603 339 
L 3622 1082 
z
" transform="scale(0.015625)"/>
     </defs>
     <use xlink:href="#LXGWWenKai-Regular-5706"/>
     <use xlink:href="#LXGWWenKai-Regular-9525" transform="translate(99.999985 0)"/>
     <use xlink:href="#LXGWWenKai-Regular-622a" transform="translate(199.999969 0)"/>
     <use xlink:href="#LXGWWenKai-Regular-9762" transform="translate(299.999954 0)"/>
    </g>
   </g>
   <g id="text_3">
    <!-- 第二章 -->
    <g style="fill: #5d4e37" transform="translate(418.2 237.6) scale(0.14 -0.14)">
     <defs>
      <path id="LXGWWenKai-Regular-4e8c" d="M 1734 3424 
Q 1683 3418 1638 3418 
L 1536 3418 
Q 1395 3418 1328 3472 
Q 1261 3526 1209 3641 
Q 1158 3757 1158 3805 
Q 1158 3853 1203 3853 
Q 1222 3853 1289 3833 
Q 1357 3814 1523 3814 
L 1606 3814 
L 4301 3974 
Q 4435 3987 4518 4016 
Q 4602 4045 4640 4045 
Q 4678 4045 4768 3987 
Q 4998 3840 4998 3699 
Q 4998 3610 4832 3597 
L 1734 3424 
z
M 691 864 
L 5254 1056 
Q 5427 1069 5520 1097 
Q 5613 1126 5654 1126 
Q 5696 1126 5792 1068 
Q 5888 1011 5965 928 
Q 6042 845 6042 781 
Q 6042 678 5882 666 
L 973 461 
Q 909 454 858 454 
L 768 454 
Q 614 454 569 489 
Q 525 525 429 633 
Q 333 742 333 822 
Q 333 902 368 902 
Q 403 902 473 883 
Q 544 864 691 864 
z
" transform="scale(0.015625)"/>
     </defs>
     <use xlink:href="#LXGWWenKai-Regular-7b2c"/>
     <use xlink:href="#LXGWWenKai-Regular-4e8c" transform="translate(99.999985 0)"/>
     <use xlink:href="#LXGWWenKai-Regular-7ae0" transform="translate(199.999969 0)"/>
    </g>
   </g>
   <g id="text_4">
    <!-- 拉绳定义 -->
    <g style="fill: #5d4e37" transform="translate(415.2 266.4) scale(0.12 -0.12)">
     <defs>
      <path id="LXGWWenKai-Regular-62c9" d="M 1824 128 
L 1837 -134 
Q 1837 -301 1725 -400 
Q 1613 -499 1529 -499 
Q 1446 -499 1276 -387 
Q 1107 -275 838 6 
Q 570 288 570 349 
Q 570 410 621 410 
Q 691 410 896 275 
Q 1101 141 1440 6 
L 1446 1690 
L 1114 1523 
Q 704 1312 621 1312 
Q 538 1312 448 1392 
Q 358 1472 297 1555 
Q 237 1638 237 1651 
Q 237 1690 314 1696 
Q 563 1715 1453 2074 
L 1459 3258 
L 941 3213 
Q 864 3206 800 3200 
Q 736 3194 665 3194 
Q 595 3194 518 3270 
Q 442 3347 410 3433 
Q 378 3520 378 3545 
Q 378 3571 422 3571 
L 442 3571 
Q 538 3552 602 3552 
L 717 3552 
Q 762 3552 813 3558 
L 1459 3603 
L 1466 4672 
Q 1466 4858 1357 5018 
Q 1338 5056 1338 5075 
Q 1338 5114 1395 5114 
Q 1453 5114 1562 5082 
Q 1856 5005 1856 4845 
L 1850 3635 
L 2035 3648 
Q 2125 3654 2214 3692 
Q 2304 3731 2342 3731 
Q 2381 3731 2464 3680 
Q 2682 3546 2682 3430 
Q 2682 3354 2522 3341 
L 1843 3290 
L 1837 2240 
Q 2022 2323 2211 2406 
Q 2400 2490 2586 2586 
Q 2662 2618 2713 2618 
Q 2765 2618 2765 2573 
Q 2765 2528 2681 2454 
Q 2598 2381 1837 1914 
L 1824 128 
z
M 3309 3155 
Q 3258 3149 3213 3149 
L 3123 3149 
Q 2995 3149 2963 3177 
Q 2931 3206 2838 3299 
Q 2746 3392 2746 3469 
Q 2746 3546 2778 3546 
Q 2810 3546 2880 3530 
Q 2950 3514 3091 3514 
L 3174 3514 
L 4019 3558 
L 4000 4595 
Q 4000 4736 3885 4909 
Q 3866 4941 3866 4960 
Q 3866 5011 3968 5011 
Q 4070 5011 4214 4963 
Q 4358 4915 4390 4873 
Q 4422 4832 4422 4768 
L 4416 3584 
L 5222 3629 
Q 5370 3642 5456 3670 
Q 5542 3699 5564 3699 
Q 5587 3699 5677 3648 
Q 5926 3507 5926 3386 
Q 5926 3315 5779 3296 
L 3309 3155 
z
M 5318 2784 
Q 5114 1562 4640 288 
L 5555 320 
Q 5754 339 5805 355 
Q 5856 371 5904 371 
Q 5952 371 6035 310 
Q 6118 250 6185 173 
Q 6253 96 6253 51 
Q 6253 -32 6099 -45 
L 2938 -147 
Q 2810 -160 2730 -160 
Q 2650 -160 2611 -128 
Q 2464 -6 2419 109 
L 2381 224 
Q 2381 262 2419 262 
Q 2458 262 2538 243 
Q 2618 224 2752 224 
L 2803 224 
L 4301 275 
Q 4653 1382 4819 2694 
Q 4819 2816 4784 2905 
Q 4749 2995 4749 3008 
Q 4749 3059 4806 3059 
Q 4864 3059 4986 3034 
Q 5318 2950 5318 2784 
z
M 3910 1315 
Q 4000 819 4000 732 
Q 4000 646 3913 588 
Q 3827 531 3737 531 
Q 3648 531 3619 579 
Q 3590 627 3513 1187 
Q 3437 1747 3213 2592 
Q 3194 2662 3194 2720 
Q 3194 2778 3280 2822 
Q 3366 2867 3430 2867 
Q 3526 2867 3565 2733 
Q 3821 1811 3910 1315 
z
" transform="scale(0.015625)"/>
      <path id="LXGWWenKai-Regular-7ef3" d="M 1741 1766 
Q 2035 1818 2182 1846 
Q 2330 1875 2413 1868 
Q 2496 1862 2490 1811 
Q 2483 1722 2092 1558 
Q 1702 1395 1321 1286 
Q 941 1178 880 1184 
Q 819 1190 781 1229 
Q 672 1376 643 1481 
Q 614 1587 614 1600 
Q 621 1658 678 1651 
L 762 1645 
Q 890 1632 1011 1638 
Q 1222 1997 1414 2342 
L 1510 2515 
Q 1050 2867 595 3085 
Q 499 3136 486 3187 
Q 474 3238 512 3337 
Q 550 3437 608 3449 
Q 666 3462 774 3418 
Q 800 3405 819 3398 
Q 1318 4186 1421 4480 
Q 1530 4774 1530 4915 
L 1530 4979 
Q 1530 5050 1581 5050 
Q 1606 5050 1690 4998 
Q 1914 4851 1914 4717 
Q 1875 4557 1690 4186 
Q 1510 3840 1114 3226 
L 1254 3142 
Q 1523 2976 1702 2848 
Q 2048 3482 2086 3661 
Q 2093 3718 2099 3814 
Q 2106 3910 2138 3910 
Q 2170 3910 2246 3859 
Q 2464 3718 2470 3578 
Q 2470 3533 2451 3488 
Q 1958 2547 1434 1709 
Q 1574 1741 1741 1766 
z
M 1408 563 
Q 1888 781 2169 925 
Q 2451 1069 2502 1075 
Q 2554 1082 2554 1062 
Q 2566 922 1740 378 
Q 915 -166 768 -179 
Q 730 -186 656 -109 
Q 582 -32 528 64 
Q 474 160 467 211 
Q 467 237 525 243 
L 582 250 
Q 666 256 832 314 
L 1408 563 
z
M 3962 1926 
L 3962 2438 
L 3066 2394 
L 3098 1882 
L 3962 1926 
z
M 3955 1069 
L 3962 1638 
L 3117 1606 
L 3155 1030 
L 3955 1069 
z
M 5293 1997 
L 5350 2509 
L 4307 2458 
L 4307 1946 
L 5293 1997 
z
M 5197 1120 
L 5261 1696 
L 4307 1658 
L 4301 1082 
L 5197 1120 
z
M 4838 4461 
L 3341 4358 
L 3443 3571 
L 4710 3648 
L 4838 4461 
z
M 2816 4761 
Q 2816 4800 2909 4800 
Q 3002 4800 3315 4691 
L 4909 4806 
L 4986 4806 
Q 5094 4806 5193 4723 
Q 5293 4640 5293 4579 
Q 5293 4518 5270 4489 
Q 5248 4461 5242 4429 
L 5075 3674 
Q 5261 3469 5261 3421 
Q 5261 3373 5213 3360 
Q 5165 3347 5088 3341 
L 4314 3296 
L 4307 2752 
L 5414 2810 
L 5459 2810 
Q 5568 2810 5664 2742 
Q 5760 2675 5760 2608 
Q 5760 2541 5737 2499 
Q 5715 2458 5709 2426 
L 5530 1139 
Q 5702 986 5702 902 
Q 5702 838 5542 826 
L 4301 774 
L 4301 365 
Q 4301 237 4339 166 
Q 4448 -32 5638 90 
Q 5722 96 5786 147 
Q 5920 269 6022 877 
Q 6080 1190 6166 1190 
Q 6253 1190 6253 816 
Q 6253 442 6217 208 
Q 6182 -26 6067 -122 
Q 5862 -301 4973 -301 
Q 4614 -301 4384 -262 
Q 4154 -224 4051 -93 
Q 3949 38 3949 307 
L 3955 762 
L 3174 730 
L 3187 589 
L 3187 570 
Q 3187 474 3098 474 
Q 3053 474 2960 512 
Q 2867 550 2841 611 
Q 2816 672 2816 819 
Q 2816 966 2797 1178 
L 2733 2266 
Q 2720 2509 2656 2621 
Q 2592 2733 2592 2765 
Q 2592 2797 2681 2797 
Q 2771 2797 3059 2682 
L 3968 2733 
L 3968 3277 
L 3469 3251 
L 3482 3136 
L 3482 3104 
Q 3482 2982 3386 2982 
Q 3347 2982 3267 3014 
Q 3187 3046 3123 3107 
Q 3059 3168 3059 3245 
L 3059 3277 
Q 3072 3341 3072 3427 
Q 3072 3514 3059 3603 
L 2957 4326 
Q 2944 4506 2880 4614 
Q 2816 4723 2816 4761 
z
" transform="scale(0.015625)"/>
      <path id="LXGWWenKai-Regular-5b9a" d="M 1369 4467 
Q 1440 4467 1536 4425 
Q 1632 4384 1632 4329 
Q 1632 4275 1581 4096 
L 2989 4179 
L 2989 4755 
Q 2989 4890 2928 4976 
Q 2867 5062 2867 5094 
Q 2867 5146 2940 5146 
Q 3014 5146 3123 5114 
Q 3418 5024 3418 4915 
L 3411 4205 
L 5395 4326 
L 5453 4326 
Q 5587 4326 5680 4246 
Q 5773 4166 5773 4112 
Q 5773 4058 5728 4013 
Q 5683 3968 5609 3865 
Q 5536 3763 5376 3571 
Q 4998 3098 4864 3098 
Q 4832 3098 4832 3149 
Q 4832 3200 4963 3421 
Q 5094 3642 5203 3949 
L 1472 3738 
Q 1158 2906 1030 2829 
Q 998 2810 960 2810 
Q 922 2810 822 2883 
Q 723 2957 723 3001 
Q 723 3046 803 3184 
Q 883 3322 1024 3674 
Q 1165 4026 1267 4371 
Q 1299 4467 1369 4467 
z
M 1702 1498 
Q 1824 1837 1824 1920 
L 1824 2035 
Q 1824 2061 1811 2125 
Q 1811 2189 1875 2189 
Q 1939 2189 2035 2137 
Q 2131 2086 2204 2012 
Q 2278 1939 2278 1894 
Q 2278 1850 2192 1606 
Q 2106 1363 1920 1024 
Q 2445 730 2982 525 
L 3002 2637 
L 2003 2579 
L 1818 2573 
Q 1709 2573 1677 2605 
Q 1574 2714 1532 2816 
Q 1491 2918 1491 2950 
Q 1491 2982 1536 2982 
Q 1555 2982 1619 2966 
Q 1683 2950 1811 2950 
L 1882 2950 
L 4179 3072 
Q 4358 3091 4409 3104 
Q 4461 3117 4518 3117 
Q 4576 3117 4659 3059 
Q 4851 2918 4851 2816 
Q 4851 2739 4698 2726 
L 3405 2656 
L 3392 1766 
L 4243 1805 
Q 4378 1811 4464 1840 
Q 4550 1869 4585 1869 
Q 4621 1869 4697 1821 
Q 4774 1773 4841 1702 
Q 4909 1632 4909 1581 
Q 4909 1491 4755 1478 
L 3392 1427 
L 3379 390 
Q 4416 64 5888 -26 
Q 6048 -32 6048 -96 
Q 6048 -122 5997 -218 
Q 5856 -467 5728 -467 
Q 4947 -378 4320 -250 
Q 2874 51 1741 730 
Q 1261 26 762 -384 
Q 570 -538 515 -538 
Q 461 -538 461 -483 
Q 461 -429 538 -346 
Q 1402 646 1702 1498 
z
" transform="scale(0.015625)"/>
      <path id="LXGWWenKai-Regular-4e49" d="M 3718 3955 
Q 3718 3878 3625 3798 
Q 3533 3718 3475 3718 
Q 3418 3718 3360 3789 
Q 2918 4320 2522 4659 
Q 2458 4717 2458 4771 
Q 2458 4826 2531 4909 
Q 2605 4992 2681 4992 
Q 2758 4992 3100 4662 
Q 3443 4333 3580 4182 
Q 3718 4032 3718 3955 
z
M 3501 1696 
Q 4211 992 4979 538 
Q 5446 262 6061 13 
Q 6170 -26 6170 -83 
Q 6170 -102 6106 -179 
Q 5926 -390 5779 -390 
Q 5754 -390 5715 -371 
Q 4339 269 3226 1376 
Q 2336 410 1075 -173 
Q 768 -314 579 -381 
Q 390 -448 365 -448 
Q 294 -448 294 -397 
Q 301 -301 454 -224 
Q 1139 134 1805 640 
Q 2432 1114 2944 1683 
Q 2176 2560 1600 3622 
Q 1293 4166 1289 4259 
Q 1286 4352 1388 4393 
Q 1491 4435 1549 4435 
Q 1645 4435 1722 4256 
Q 1875 3917 2310 3206 
Q 2675 2611 3213 2010 
Q 3782 2733 4122 3443 
Q 4518 4275 4525 4614 
L 4531 4672 
Q 4531 4704 4525 4736 
Q 4525 4800 4582 4800 
Q 4621 4800 4730 4742 
Q 5030 4595 5024 4435 
Q 5024 4416 4937 4176 
Q 4851 3936 4672 3552 
Q 4237 2598 3501 1696 
z
" transform="scale(0.015625)"/>
     </defs>
     <use xlink:href="#LXGWWenKai-Regular-62c9"/>
     <use xlink:href="#LXGWWenKai-Regular-7ef3" transform="translate(99.999985 0)"/>
     <use xlink:href="#LXGWWenKai-Regular-5b9a" transform="translate(199.999969 0)"/>
     <use xlink:href="#LXGWWenKai-Regular-4e49" transform="translate(299.999954 0)"/>
    </g>
   </g>
   <g id="text_5">
    <!-- $f(x,y)=0$ -->
    <g style="fill: #e8837c" transform="translate(701.23 151.2) scale(0.14 -0.14)">
     <defs>
      <path id="STIXGeneral-Italic-66" d="M 262 2739 
L 858 2739 
Q 1107 3546 1318 3846 
Q 1664 4339 2163 4339 
Q 2400 4339 2557 4227 
Q 2714 4115 2714 3942 
Q 2714 3834 2634 3750 
Q 2554 3667 2445 3667 
Q 2355 3667 2281 3737 
Q 2208 3808 2208 3917 
Q 2208 3981 2240 4038 
Q 2272 4096 2272 4115 
Q 2272 4198 2131 4198 
Q 1862 4198 1676 3849 
Q 1491 3501 1350 2739 
L 2035 2739 
L 1997 2534 
L 1306 2534 
L 845 486 
Q 435 -1325 -435 -1325 
Q -653 -1325 -797 -1213 
Q -941 -1101 -941 -934 
Q -941 -826 -870 -746 
Q -800 -666 -698 -666 
Q -589 -666 -521 -733 
Q -454 -800 -454 -902 
Q -454 -947 -483 -1001 
Q -512 -1056 -512 -1088 
Q -512 -1190 -384 -1190 
Q 13 -1190 237 -154 
L 800 2534 
L 218 2534 
L 262 2739 
z
" transform="scale(0.015625)"/>
      <path id="STIXGeneral-Regular-28" d="M 1946 -1030 
L 1869 -1133 
Q 1126 -710 716 32 
Q 307 774 307 1613 
Q 307 3386 1888 4326 
L 1946 4224 
Q 1293 3667 1075 3126 
Q 858 2586 858 1632 
Q 858 685 1082 96 
Q 1306 -493 1946 -1030 
z
" transform="scale(0.015625)"/>
      <path id="STIXGeneral-Italic-78" d="M 1555 2272 
L 1632 1907 
Q 1971 2426 2179 2624 
Q 2387 2822 2598 2822 
Q 2714 2822 2787 2755 
Q 2861 2688 2861 2585 
Q 2861 2483 2800 2419 
Q 2739 2355 2643 2355 
Q 2586 2355 2490 2409 
Q 2394 2464 2310 2464 
Q 2125 2464 1683 1690 
Q 1683 1606 1734 1402 
L 1939 544 
Q 2003 282 2131 282 
Q 2234 282 2432 538 
Q 2451 563 2476 598 
Q 2502 634 2521 662 
Q 2541 691 2566 717 
L 2662 659 
Q 2387 230 2227 80 
Q 2067 -70 1882 -70 
Q 1728 -70 1645 26 
Q 1562 122 1504 365 
L 1318 1126 
L 755 365 
Q 557 96 432 13 
Q 307 -70 147 -70 
Q 0 -70 -86 0 
Q -173 70 -173 198 
Q -173 294 -112 361 
Q -51 429 45 429 
Q 122 429 250 358 
Q 346 301 416 301 
Q 525 301 742 614 
L 1267 1357 
L 1088 2150 
Q 1024 2432 969 2509 
Q 915 2586 794 2586 
Q 717 2586 544 2541 
L 429 2509 
L 410 2611 
L 480 2637 
Q 992 2822 1229 2822 
Q 1350 2822 1420 2707 
Q 1491 2592 1555 2272 
z
" transform="scale(0.015625)"/>
      <path id="STIXGeneral-Regular-2c" d="M 531 -902 
L 467 -781 
Q 998 -422 998 -96 
Q 998 -13 909 -13 
Q 883 -13 822 -25 
Q 762 -38 723 -38 
Q 352 -38 352 288 
Q 352 454 457 553 
Q 563 653 736 653 
Q 954 653 1101 496 
Q 1248 339 1248 96 
Q 1248 -198 1053 -473 
Q 858 -749 531 -902 
z
" transform="scale(0.015625)"/>
      <path id="STIXGeneral-Italic-79" d="M 1555 1190 
L 1690 486 
Q 2118 1190 2294 1558 
Q 2470 1926 2470 2131 
Q 2470 2234 2304 2336 
Q 2138 2445 2138 2586 
Q 2138 2688 2211 2755 
Q 2285 2822 2394 2822 
Q 2534 2822 2630 2720 
Q 2726 2618 2726 2470 
Q 2726 1914 1888 518 
Q 1389 -307 918 -812 
Q 448 -1318 173 -1318 
Q 26 -1318 -64 -1241 
Q -154 -1165 -154 -1043 
Q -154 -934 -80 -860 
Q -6 -787 96 -787 
Q 218 -787 314 -876 
Q 410 -966 486 -966 
Q 602 -966 794 -755 
Q 877 -672 1040 -457 
Q 1203 -243 1248 -173 
Q 1312 -45 1312 51 
Q 1312 243 1113 1046 
Q 915 1850 787 2176 
Q 698 2413 592 2499 
Q 486 2586 294 2586 
Q 192 2586 96 2560 
L 96 2669 
Q 237 2694 301 2707 
Q 563 2758 986 2822 
L 1011 2822 
Q 1082 2822 1277 2227 
Q 1472 1632 1555 1190 
z
" transform="scale(0.015625)"/>
      <path id="STIXGeneral-Regular-29" d="M 186 4224 
L 262 4326 
Q 992 3891 1408 3148 
Q 1824 2406 1824 1581 
Q 1824 -166 243 -1133 
L 186 -1030 
Q 845 -486 1059 54 
Q 1274 595 1274 1562 
Q 1274 2534 1059 3120 
Q 845 3706 186 4224 
z
" transform="scale(0.015625)"/>
      <path id="STIXGeneral-Regular-3d" d="M 4077 2048 
L 307 2048 
L 307 2470 
L 4077 2470 
L 4077 2048 
z
M 4077 768 
L 307 768 
L 307 1190 
L 4077 1190 
L 4077 768 
z
" transform="scale(0.015625)"/>
      <path id="STIXGeneral-Regular-30" d="M 3046 2112 
Q 3046 1683 2963 1302 
Q 2880 922 2717 602 
Q 2554 282 2266 96 
Q 1978 -90 1600 -90 
Q 1210 -90 915 108 
Q 621 307 461 640 
Q 301 973 227 1350 
Q 154 1728 154 2150 
Q 154 2746 301 3222 
Q 448 3699 790 4012 
Q 1133 4326 1626 4326 
Q 2253 4326 2649 3712 
Q 3046 3098 3046 2112 
z
M 2432 2080 
Q 2432 3091 2217 3625 
Q 2003 4160 1587 4160 
Q 1190 4160 979 3622 
Q 768 3085 768 2106 
Q 768 1120 979 598 
Q 1190 77 1600 77 
Q 2003 77 2217 598 
Q 2432 1120 2432 2080 
z
" transform="scale(0.015625)"/>
     </defs>
     <use xlink:href="#STIXGeneral-Italic-66" transform="translate(0 0.203125)"/>
     <use xlink:href="#STIXGeneral-Regular-28" transform="translate(27.799988 0.203125)"/>
     <use xlink:href="#STIXGeneral-Italic-78" transform="translate(61.099976 0.203125)"/>
     <use xlink:href="#STIXGeneral-Regular-2c" transform="translate(105.499969 0.203125)"/>
     <use xlink:href="#STIXGeneral-Italic-79" transform="translate(144.939951 0.203125)"/>
     <use xlink:href="#STIXGeneral-Regular-29" transform="translate(189.339944 0.203125)"/>
     <use xlink:href="#STIXGeneral-Regular-3d" transform="translate(237.079929 0.203125)"/>
     <use xlink:href="#STIXGeneral-Regular-30" transform="translate(320.01991 0.203125)"/>
    </g>
   </g>
   <g id="text_6">
    <!-- 第三章 -->
    <g style="fill: #5d4e37" transform="translate(706.2 237.6) scale(0.14 -0.14)">
     <defs>
      <path id="LXGWWenKai-Regular-4e09" d="M 1613 3808 
L 1414 3802 
Q 1267 3802 1200 3862 
Q 1133 3923 1088 4054 
Q 1043 4186 1043 4192 
Q 1043 4237 1088 4237 
Q 1107 4237 1168 4217 
Q 1229 4198 1408 4198 
L 1491 4198 
L 4570 4378 
Q 4704 4390 4787 4419 
Q 4870 4448 4918 4448 
Q 4966 4448 5052 4381 
Q 5139 4314 5203 4234 
Q 5267 4154 5267 4109 
Q 5267 4013 5094 4000 
L 1613 3808 
z
M 2054 2093 
L 1869 2086 
Q 1728 2086 1670 2131 
Q 1626 2176 1555 2288 
Q 1485 2400 1485 2470 
Q 1485 2541 1530 2541 
Q 1549 2541 1625 2518 
Q 1702 2496 1869 2496 
L 1933 2496 
L 4275 2611 
Q 4410 2624 4493 2653 
Q 4576 2682 4617 2682 
Q 4659 2682 4748 2618 
Q 4838 2554 4905 2470 
Q 4973 2387 4973 2330 
Q 4973 2234 4800 2221 
L 2054 2093 
z
M 730 518 
L 5293 672 
Q 5395 678 5523 707 
Q 5651 736 5692 736 
Q 5734 736 5830 678 
Q 5926 621 6003 537 
Q 6080 454 6080 390 
Q 6080 275 5914 262 
L 1005 96 
L 832 90 
Q 653 90 569 157 
Q 486 224 428 339 
Q 371 454 371 505 
Q 371 557 406 557 
Q 442 557 512 537 
Q 582 518 730 518 
z
" transform="scale(0.015625)"/>
     </defs>
     <use xlink:href="#LXGWWenKai-Regular-7b2c"/>
     <use xlink:href="#LXGWWenKai-Regular-4e09" transform="translate(99.999985 0)"/>
     <use xlink:href="#LXGWWenKai-Regular-7ae0" transform="translate(199.999969 0)"/>
    </g>
   </g>
   <g id="text_7">
    <!-- 代数方程 -->
    <g style="fill: #5d4e37" transform="translate(703.2 266.4) scale(0.12 -0.12)">
     <defs>
      <path id="LXGWWenKai-Regular-4ee3" d="M 6157 998 
Q 6131 582 6048 137 
Q 5965 -307 5885 -416 
Q 5805 -525 5680 -525 
Q 5555 -525 5308 -381 
Q 5062 -237 4890 -64 
Q 4032 781 3693 2138 
Q 3610 2477 3558 2733 
L 2630 2586 
Q 2566 2573 2496 2573 
Q 2355 2573 2195 2848 
L 2182 2886 
Q 2182 2931 2240 2931 
L 2253 2931 
Q 2285 2925 2310 2925 
L 2394 2925 
Q 2458 2925 2573 2944 
L 3494 3085 
Q 3341 4019 3322 4640 
Q 3309 4826 3235 4934 
Q 3162 5043 3162 5075 
Q 3162 5133 3242 5133 
Q 3322 5133 3430 5114 
Q 3725 5062 3725 4864 
Q 3744 4115 3904 3149 
L 5325 3366 
Q 5440 3386 5488 3411 
Q 5536 3437 5577 3437 
Q 5619 3437 5696 3392 
Q 5888 3270 5888 3177 
Q 5888 3085 5722 3066 
L 3974 2797 
Q 4038 2515 4115 2176 
Q 4192 1837 4390 1402 
Q 4832 454 5517 26 
Q 5549 6 5574 6 
Q 5632 6 5763 416 
Q 5894 826 5955 1078 
Q 6016 1331 6086 1331 
Q 6157 1331 6157 1088 
L 6157 998 
z
M 1523 2970 
Q 979 2298 461 1920 
Q 269 1773 224 1773 
Q 179 1773 179 1824 
Q 179 1875 262 1965 
Q 864 2605 1296 3238 
Q 1728 3872 2061 4666 
Q 2099 4755 2099 4819 
L 2099 4902 
Q 2099 4922 2093 4947 
L 2093 4973 
Q 2093 5043 2153 5043 
Q 2214 5043 2317 4986 
Q 2579 4832 2579 4736 
Q 2579 4640 2342 4214 
Q 2106 3789 1901 3488 
L 1907 -358 
Q 1907 -493 1798 -493 
Q 1651 -493 1552 -393 
Q 1453 -294 1453 -233 
Q 1453 -173 1475 -80 
Q 1498 13 1498 243 
L 1523 2970 
z
M 5216 3833 
Q 5216 3744 5133 3670 
Q 5050 3597 4995 3597 
Q 4941 3597 4890 3661 
Q 4474 4154 4122 4461 
Q 4064 4512 4064 4560 
Q 4064 4608 4131 4685 
Q 4198 4762 4268 4762 
Q 4339 4762 4777 4342 
Q 5216 3923 5216 3833 
z
" transform="scale(0.015625)"/>
      <path id="LXGWWenKai-Regular-6570" d="M 5510 3302 
Q 5267 2163 4851 1350 
Q 5357 512 6214 -205 
Q 6285 -262 6285 -300 
Q 6285 -339 6160 -425 
Q 6035 -512 5961 -512 
Q 5888 -512 5843 -467 
Q 5139 237 4659 998 
Q 4237 326 3674 -154 
Q 3443 -352 3286 -451 
Q 3130 -550 3085 -550 
Q 3040 -550 3040 -499 
Q 3040 -448 3130 -358 
Q 3552 58 3865 461 
Q 4179 864 4448 1370 
Q 4179 1888 3917 2688 
Q 3718 2304 3552 2089 
Q 3386 1875 3328 1875 
Q 3290 1875 3290 1939 
Q 3290 2003 3334 2099 
Q 3898 3341 4096 4403 
Q 4160 4768 4160 4829 
Q 4160 4890 4141 4973 
L 4141 4986 
Q 4141 5043 4205 5043 
Q 4243 5043 4339 5005 
Q 4621 4883 4621 4742 
Q 4621 4678 4496 4246 
Q 4371 3814 4275 3546 
L 5338 3616 
Q 5472 3629 5571 3661 
Q 5670 3693 5728 3693 
Q 5786 3693 5862 3629 
Q 6048 3482 6048 3398 
Q 6048 3341 5920 3328 
L 5510 3302 
z
M 1798 2432 
Q 1830 2624 1830 2790 
L 1830 2925 
Q 1830 2970 1843 3059 
L 1862 3142 
Q 1811 3053 1754 2976 
Q 1280 2490 762 2214 
Q 557 2106 502 2106 
Q 448 2106 448 2144 
Q 448 2202 550 2278 
Q 1114 2707 1645 3309 
L 992 3264 
L 915 3264 
Q 851 3264 758 3302 
Q 666 3341 614 3539 
Q 608 3552 608 3574 
Q 608 3597 633 3597 
Q 659 3597 713 3581 
Q 768 3565 870 3565 
L 1830 3622 
L 1830 4621 
Q 1830 4781 1795 4851 
Q 1760 4922 1760 4957 
Q 1760 4992 1811 4992 
Q 1862 4992 1952 4973 
Q 2202 4922 2202 4794 
L 2195 3642 
L 2931 3693 
Q 3072 3699 3136 3721 
Q 3200 3744 3257 3744 
Q 3315 3744 3408 3651 
Q 3501 3558 3501 3494 
Q 3501 3430 3366 3418 
L 2189 3341 
L 2189 3162 
Q 2234 3245 2307 3245 
Q 2381 3245 2736 3037 
Q 3091 2829 3187 2758 
Q 3283 2688 3283 2624 
Q 3283 2560 3219 2477 
Q 3155 2394 3113 2394 
Q 3072 2394 3002 2445 
Q 2662 2733 2227 2982 
Q 2221 2989 2211 3001 
Q 2202 3014 2189 3021 
L 2182 2368 
Q 2182 2208 2083 2208 
Q 1984 2208 1891 2281 
Q 1798 2355 1798 2432 
z
M 2822 4666 
Q 2835 4749 2880 4749 
Q 2899 4749 2970 4698 
Q 3187 4563 3187 4473 
Q 3187 4384 2931 4160 
Q 2458 3744 2323 3744 
Q 2291 3744 2291 3782 
Q 2291 3821 2467 4022 
Q 2643 4224 2784 4486 
Q 2822 4538 2822 4666 
z
M 1440 4201 
Q 1530 4109 1594 4029 
Q 1658 3949 1658 3910 
Q 1658 3872 1578 3798 
Q 1498 3725 1446 3725 
Q 1395 3725 1325 3821 
Q 1114 4109 909 4314 
Q 864 4371 864 4406 
Q 864 4442 918 4502 
Q 973 4563 1021 4563 
Q 1069 4563 1117 4518 
Q 1165 4474 1257 4384 
Q 1350 4294 1440 4201 
z
M 4160 3232 
L 4134 3162 
Q 4346 2342 4634 1754 
Q 4915 2432 5062 3283 
L 4160 3232 
z
M 2554 1920 
L 2547 2016 
Q 2547 2080 2604 2080 
Q 2662 2080 2739 2035 
Q 2950 1920 2950 1760 
L 2950 1747 
L 3341 1786 
L 3411 1792 
Q 3558 1792 3558 1728 
Q 3558 1645 3360 1606 
Q 3162 1568 2874 1523 
Q 2669 915 2336 499 
Q 2726 275 2905 156 
Q 3085 38 3085 -32 
Q 3085 -102 3033 -208 
Q 2982 -314 2918 -314 
Q 2854 -314 2640 -134 
Q 2426 45 2080 243 
Q 1466 -326 602 -474 
Q 454 -499 448 -499 
Q 352 -499 352 -454 
Q 352 -378 621 -282 
Q 1280 -45 1786 422 
Q 1382 646 1229 685 
Q 1120 710 1120 858 
Q 1120 902 1331 1280 
L 877 1235 
Q 774 1222 710 1222 
Q 461 1222 358 1581 
L 358 1600 
Q 358 1638 390 1638 
Q 422 1638 499 1619 
Q 576 1600 704 1600 
L 774 1600 
Q 947 1606 1129 1616 
Q 1312 1626 1504 1632 
Q 1670 2003 1670 2131 
L 1670 2195 
Q 1670 2272 1705 2272 
Q 1741 2272 1818 2227 
Q 2042 2093 2042 1978 
Q 2042 1920 1920 1658 
Q 2080 1670 2217 1686 
Q 2355 1702 2522 1715 
L 2541 1792 
Q 2554 1856 2554 1920 
z
M 1517 928 
Q 1683 858 2029 666 
Q 2272 973 2445 1453 
L 1754 1338 
Q 1690 1222 1635 1123 
Q 1581 1024 1517 928 
z
" transform="scale(0.015625)"/>
      <path id="LXGWWenKai-Regular-65b9" d="M 506 3648 
Q 666 3616 838 3616 
L 922 3616 
L 2970 3738 
L 2963 4621 
Q 2963 4768 2912 4841 
Q 2861 4915 2861 4947 
Q 2861 4998 2928 4998 
Q 2995 4998 3098 4986 
Q 3386 4947 3386 4838 
L 3379 3763 
L 5299 3878 
Q 5517 3898 5581 3917 
Q 5645 3936 5683 3936 
Q 5722 3936 5811 3891 
Q 6054 3757 6054 3635 
Q 6054 3552 5933 3539 
L 3142 3379 
Q 3085 3040 2944 2547 
L 4525 2637 
L 4570 2637 
Q 4710 2637 4812 2566 
Q 4915 2496 4915 2422 
Q 4915 2349 4892 2301 
Q 4870 2253 4864 2221 
Q 4723 800 4365 -154 
Q 4301 -314 4169 -435 
Q 4038 -557 3939 -557 
Q 3840 -557 3587 -432 
Q 3334 -307 2921 16 
Q 2509 339 2509 442 
Q 2509 474 2573 474 
Q 2637 474 2985 301 
Q 3334 128 3808 -19 
Q 3821 -26 3853 -26 
Q 3885 -26 3891 0 
Q 4134 512 4246 1101 
Q 4358 1690 4410 2253 
L 2816 2170 
Q 2464 1178 1779 448 
Q 1235 -134 742 -384 
Q 550 -480 483 -480 
Q 416 -480 416 -435 
Q 416 -365 538 -282 
Q 1139 160 1683 880 
Q 2227 1600 2458 2394 
Q 2592 2867 2675 3354 
L 1069 3258 
Q 954 3245 851 3245 
Q 749 3245 649 3293 
Q 550 3341 461 3565 
Q 454 3578 454 3603 
Q 454 3648 506 3648 
z
" transform="scale(0.015625)"/>
      <path id="LXGWWenKai-Regular-7a0b" d="M 1466 4064 
Q 723 3834 579 3834 
Q 435 3834 435 3885 
Q 435 3949 633 4022 
Q 832 4096 1261 4297 
Q 1690 4499 2054 4742 
Q 2163 4806 2204 4896 
Q 2246 4986 2294 4986 
Q 2342 4986 2416 4906 
Q 2490 4826 2544 4730 
Q 2598 4634 2598 4605 
Q 2598 4576 2586 4557 
Q 2534 4467 1811 4186 
L 1811 3251 
L 2202 3277 
Q 2368 3296 2422 3315 
Q 2477 3334 2525 3334 
Q 2573 3334 2701 3244 
Q 2829 3155 2829 3075 
Q 2829 2995 2707 2982 
L 1811 2912 
L 1811 2509 
Q 1862 2560 1907 2560 
Q 1997 2560 2330 2227 
Q 2688 1888 2688 1795 
Q 2688 1702 2601 1635 
Q 2515 1568 2464 1568 
Q 2413 1568 2336 1664 
Q 2118 1978 1811 2266 
L 1818 -435 
Q 1818 -589 1702 -589 
Q 1645 -589 1568 -550 
Q 1402 -474 1402 -346 
Q 1402 -307 1421 -204 
Q 1440 -102 1440 128 
L 1440 294 
L 1453 1837 
Q 1453 1971 1472 2163 
L 1472 2234 
Q 1389 1914 1040 1402 
Q 691 890 496 701 
Q 301 512 250 512 
Q 211 512 211 563 
Q 211 614 275 717 
Q 947 1715 1389 2880 
L 838 2835 
Q 710 2822 649 2822 
Q 589 2822 493 2860 
Q 397 2899 314 3110 
Q 307 3130 307 3155 
Q 301 3194 346 3194 
L 614 3168 
L 685 3168 
L 1459 3226 
L 1466 4064 
z
M 3539 2880 
Q 3539 2746 3386 2746 
Q 3309 2746 3213 2803 
Q 3117 2861 3117 2957 
L 3117 2989 
Q 3130 3130 3130 3200 
L 3130 3315 
Q 3130 3354 3123 3379 
L 3034 4256 
Q 3027 4384 2966 4528 
Q 2906 4672 2906 4704 
Q 2906 4736 2979 4736 
Q 3053 4736 3398 4608 
L 5133 4710 
L 5184 4710 
Q 5293 4710 5385 4627 
Q 5478 4544 5478 4493 
Q 5478 4442 5462 4413 
Q 5446 4384 5440 4352 
L 5312 3398 
Q 5472 3213 5472 3142 
Q 5472 3072 5411 3062 
Q 5350 3053 5267 3046 
L 3533 2950 
L 3539 2893 
L 3539 2880 
z
M 5024 4358 
L 3411 4269 
L 3501 3309 
L 4928 3379 
L 5024 4358 
z
M 5581 141 
L 5888 186 
Q 5939 186 6022 134 
Q 6234 6 6234 -115 
Q 6234 -205 6067 -218 
L 2784 -307 
L 2688 -307 
Q 2547 -307 2454 -259 
Q 2362 -211 2304 45 
L 2304 77 
Q 2304 115 2333 115 
Q 2362 115 2435 92 
Q 2509 70 2688 70 
L 4032 102 
L 4038 986 
L 3443 960 
L 3309 954 
Q 3066 954 2982 1165 
Q 2944 1248 2944 1293 
Q 2944 1338 2976 1338 
Q 3008 1338 3072 1322 
Q 3136 1306 3264 1306 
L 3334 1306 
L 4045 1338 
L 4051 2048 
L 3232 2003 
L 3098 1997 
Q 2931 1997 2867 2074 
Q 2733 2234 2733 2355 
Q 2733 2387 2765 2387 
Q 2797 2387 2861 2371 
Q 2925 2355 3053 2355 
L 3123 2355 
L 5126 2458 
Q 5299 2477 5353 2493 
Q 5408 2509 5446 2509 
Q 5485 2509 5568 2458 
Q 5779 2323 5779 2208 
Q 5779 2138 5613 2125 
L 4448 2067 
L 4442 1350 
L 4986 1376 
Q 5158 1395 5212 1411 
Q 5267 1427 5302 1427 
Q 5338 1427 5414 1376 
Q 5632 1242 5632 1139 
Q 5632 1062 5472 1050 
L 4435 1005 
L 4429 115 
L 5581 141 
z
" transform="scale(0.015625)"/>
     </defs>
     <use xlink:href="#LXGWWenKai-Regular-4ee3"/>
     <use xlink:href="#LXGWWenKai-Regular-6570" transform="translate(99.999985 0)"/>
     <use xlink:href="#LXGWWenKai-Regular-65b9" transform="translate(199.999969 0)"/>
     <use xlink:href="#LXGWWenKai-Regular-7a0b" transform="translate(299.999954 0)"/>
    </g>
   </g>
   <g id="text_8">
    <!-- 恭喜通关！ -->
    <g style="fill: #e8837c" transform="translate(379.2 309.6) scale(0.24 -0.24)">
     <defs>
      <path id="LXGWWenKai-Regular-606d" d="M 1101 4179 
Q 1229 4147 1414 4147 
L 1498 4147 
L 2214 4192 
L 2182 4717 
Q 2163 4928 2112 4989 
Q 2061 5050 2061 5085 
Q 2061 5120 2115 5120 
Q 2170 5120 2278 5107 
Q 2579 5069 2592 4928 
L 2630 4218 
L 3718 4282 
L 3744 4870 
L 3744 4954 
Q 3744 5120 3715 5165 
Q 3686 5210 3686 5222 
Q 3686 5261 3756 5261 
Q 3827 5261 3958 5216 
Q 4090 5171 4128 5132 
Q 4166 5094 4166 5043 
L 4166 5024 
L 4122 4307 
L 4749 4346 
Q 4883 4358 4953 4387 
Q 5024 4416 5053 4416 
Q 5082 4416 5171 4361 
Q 5261 4307 5344 4230 
Q 5427 4154 5427 4106 
Q 5427 4058 5376 4045 
Q 5325 4032 5254 4026 
L 4102 3962 
L 4058 3181 
L 5210 3251 
Q 5344 3264 5414 3293 
Q 5485 3322 5523 3322 
Q 5562 3322 5651 3264 
Q 5741 3206 5814 3129 
Q 5888 3053 5888 3001 
Q 5888 2950 5837 2937 
Q 5786 2925 5715 2918 
L 4192 2829 
Q 4986 1997 6150 1376 
Q 6182 1357 6214 1334 
Q 6246 1312 6246 1273 
Q 6246 1235 6195 1165 
Q 6074 992 5958 992 
Q 5843 992 5094 1542 
Q 4346 2093 3731 2803 
L 2656 2739 
Q 2246 2054 1731 1580 
Q 1216 1107 538 717 
Q 435 659 371 659 
Q 307 659 307 710 
Q 307 781 429 877 
Q 1594 1728 2150 2714 
L 1184 2656 
L 1018 2650 
Q 864 2650 800 2701 
Q 602 2899 602 2995 
Q 602 3034 646 3034 
Q 774 3002 960 3002 
L 1043 3002 
L 2291 3078 
L 2240 3846 
L 1638 3814 
L 1446 3808 
Q 1312 3808 1254 3853 
L 1190 3904 
Q 1056 4038 1056 4141 
Q 1056 4179 1101 4179 
z
M 3699 3936 
L 2650 3872 
L 2688 3104 
L 3661 3162 
L 3699 3936 
z
M 3302 -109 
L 3309 -333 
Q 3309 -544 3136 -614 
Q 3066 -646 3027 -646 
Q 2989 -646 2864 -595 
Q 2739 -544 2582 -461 
Q 2426 -378 2278 -285 
Q 2131 -192 2035 -105 
Q 1939 -19 1939 32 
Q 1939 83 2012 83 
Q 2086 83 2384 -29 
Q 2682 -141 2899 -186 
L 2893 2048 
Q 2893 2202 2832 2272 
Q 2771 2342 2771 2374 
Q 2771 2406 2838 2406 
Q 2906 2406 3101 2348 
Q 3296 2291 3296 2176 
L 3302 -109 
z
M 5334 704 
Q 5536 390 5536 326 
Q 5536 262 5472 205 
Q 5222 -38 5120 154 
Q 4826 742 4339 1395 
Q 4301 1446 4301 1488 
Q 4301 1530 4393 1606 
Q 4486 1683 4540 1683 
Q 4595 1683 4653 1613 
Q 5133 1018 5334 704 
z
M 4368 748 
Q 4467 563 4528 432 
Q 4589 301 4589 253 
Q 4589 205 4493 115 
Q 4397 26 4323 26 
Q 4250 26 4221 58 
Q 4192 90 4173 134 
Q 3949 768 3603 1325 
Q 3571 1389 3571 1430 
Q 3571 1472 3629 1510 
Q 3750 1581 3817 1581 
Q 3885 1581 3961 1459 
Q 4038 1338 4153 1136 
Q 4269 934 4368 748 
z
M 1849 300 
Q 1728 134 1625 32 
Q 1523 -70 1465 -70 
Q 1408 -70 1312 22 
Q 1216 115 1216 169 
Q 1216 224 1254 269 
Q 1728 755 2131 1498 
Q 2150 1549 2201 1549 
Q 2253 1549 2317 1523 
Q 2496 1459 2496 1350 
Q 2496 1267 2233 867 
Q 1971 467 1849 300 
z
" transform="scale(0.015625)"/>
      <path id="LXGWWenKai-Regular-559c" d="M 4326 3936 
Q 4422 3949 4563 3994 
Q 4582 3994 4659 3949 
Q 4870 3821 4870 3712 
Q 4870 3648 4742 3629 
L 2010 3482 
L 1837 3475 
Q 1779 3475 1680 3520 
Q 1581 3565 1517 3808 
Q 1517 3846 1555 3846 
Q 1568 3846 1622 3830 
Q 1677 3814 1818 3814 
L 1894 3814 
L 2976 3872 
L 2976 4218 
L 1440 4122 
L 1267 4115 
Q 1203 4115 1113 4156 
Q 1024 4198 960 4422 
Q 954 4435 954 4448 
Q 954 4486 992 4486 
Q 1005 4486 1059 4470 
Q 1114 4454 1248 4454 
L 1331 4454 
L 2976 4550 
L 2976 4832 
Q 2976 4986 2918 5066 
Q 2861 5146 2861 5190 
Q 2861 5235 2950 5235 
Q 3181 5235 3328 5120 
Q 3398 5069 3398 4986 
L 3392 4576 
L 4851 4659 
Q 4973 4672 5024 4694 
Q 5075 4717 5104 4717 
Q 5133 4717 5203 4672 
Q 5395 4538 5395 4442 
Q 5395 4365 5280 4352 
L 5267 4352 
L 3386 4237 
L 3379 3891 
L 4326 3936 
z
M 1722 2195 
Q 1741 2330 1741 2355 
L 1734 2432 
L 1683 2854 
Q 1664 3027 1603 3123 
Q 1542 3219 1542 3251 
Q 1542 3302 1638 3302 
Q 1734 3302 2022 3187 
L 4595 3309 
L 4634 3309 
Q 4742 3309 4809 3232 
Q 4877 3155 4877 3110 
Q 4877 3066 4861 3034 
Q 4845 3002 4832 2970 
L 4723 2522 
Q 4896 2336 4896 2285 
Q 4896 2234 4851 2230 
Q 4806 2227 4749 2221 
L 4147 2202 
Q 4352 2029 4352 1949 
Q 4352 1869 3757 1485 
L 5459 1549 
Q 5651 1568 5705 1590 
Q 5760 1613 5801 1613 
Q 5843 1613 5914 1562 
Q 6093 1421 6093 1312 
Q 6093 1242 5965 1222 
L 845 1037 
L 704 1030 
L 640 1030 
Q 595 1037 512 1081 
Q 429 1126 365 1338 
Q 358 1350 358 1372 
Q 358 1395 384 1395 
Q 544 1363 602 1363 
L 2650 1440 
Q 2573 1536 2195 1856 
Q 2163 1882 2163 1923 
Q 2163 1965 2230 2041 
Q 2298 2118 2336 2118 
Q 2374 2118 2531 2000 
Q 2688 1882 2819 1770 
Q 2950 1658 2950 1594 
Q 2950 1530 2867 1453 
L 3411 1472 
Q 3910 1901 3981 2195 
L 2138 2125 
L 2138 2106 
Q 2138 1990 2042 1990 
Q 1907 1990 1814 2060 
Q 1722 2131 1722 2195 
z
M 4429 2976 
L 2054 2867 
L 2106 2438 
L 4346 2515 
L 4429 2976 
z
M 4755 -19 
Q 4922 -211 4922 -262 
Q 4922 -314 4874 -323 
Q 4826 -333 4755 -339 
L 2163 -403 
L 2170 -506 
L 2170 -531 
Q 2170 -672 2061 -672 
Q 1933 -672 1833 -605 
Q 1734 -538 1734 -448 
L 1734 -422 
Q 1747 -358 1747 -297 
Q 1747 -237 1734 -147 
L 1677 416 
Q 1664 602 1609 691 
Q 1555 781 1555 829 
Q 1555 877 1660 877 
Q 1766 877 2054 749 
L 4608 858 
L 4691 864 
Q 4806 864 4870 781 
Q 4934 698 4934 662 
Q 4934 627 4915 601 
Q 4896 576 4890 550 
L 4755 -19 
z
M 4474 518 
L 2074 422 
L 2131 -77 
L 4371 -13 
L 4474 518 
z
" transform="scale(0.015625)"/>
      <path id="LXGWWenKai-Regular-901a" d="M 2368 755 
Q 2400 979 2400 1210 
L 2419 3347 
Q 2419 3526 2374 3641 
Q 2330 3757 2330 3792 
Q 2330 3827 2394 3827 
Q 2458 3827 2765 3693 
L 3661 3744 
Q 3514 3866 3168 4090 
Q 3098 4134 3098 4173 
Q 3174 4371 3254 4371 
Q 3334 4371 3789 4013 
Q 4154 4243 4589 4576 
L 2816 4448 
Q 2771 4442 2733 4442 
L 2662 4442 
Q 2554 4442 2464 4515 
Q 2374 4589 2342 4685 
L 2310 4774 
Q 2310 4806 2362 4806 
Q 2374 4806 2387 4806 
L 2605 4781 
L 4845 4922 
L 4909 4922 
Q 5050 4922 5123 4838 
Q 5197 4755 5197 4694 
Q 5197 4634 5149 4598 
Q 5101 4563 4845 4358 
Q 4589 4154 4032 3821 
L 4096 3763 
L 5139 3821 
Q 5165 3827 5219 3827 
Q 5274 3827 5360 3766 
Q 5446 3706 5446 3622 
L 5414 3475 
L 5427 858 
L 5434 672 
Q 5434 550 5344 435 
Q 5254 320 5145 320 
Q 5037 320 4662 624 
Q 4288 928 4288 1018 
Q 4288 1056 4339 1056 
Q 4390 1056 4576 969 
Q 4762 883 5062 794 
L 5056 1754 
L 4045 1709 
L 4045 768 
Q 4045 627 3955 627 
Q 3942 627 3866 653 
Q 3661 736 3661 890 
Q 3693 1114 3693 1370 
L 3693 1690 
L 2758 1645 
L 2758 685 
Q 2758 621 2742 576 
Q 2726 531 2662 531 
L 2586 550 
Q 2368 608 2368 755 
z
M 1580 4202 
Q 1715 4058 1804 3942 
Q 1894 3827 1894 3772 
Q 1894 3718 1801 3632 
Q 1709 3546 1641 3546 
Q 1574 3546 1453 3718 
Q 1203 4070 768 4493 
Q 704 4550 704 4611 
Q 704 4672 787 4736 
Q 870 4800 902 4800 
Q 934 4800 1049 4710 
Q 1165 4621 1305 4483 
Q 1446 4346 1580 4202 
z
M 5050 3494 
L 4045 3437 
L 4045 2906 
L 5050 2957 
L 5050 3494 
z
M 3706 3418 
L 2758 3366 
L 2758 2848 
L 3699 2893 
L 3706 3418 
z
M 390 3072 
Q 544 3046 595 3046 
L 672 3046 
Q 698 3046 723 3053 
L 1677 3149 
L 1754 3155 
Q 1830 3155 1913 3081 
Q 1997 3008 1997 2950 
Q 1997 2893 1958 2854 
L 1882 2778 
Q 1824 2701 1725 2573 
Q 1626 2445 1456 2221 
Q 1286 1997 1286 1965 
Q 1286 1933 1318 1914 
Q 1830 1606 1920 1421 
Q 1965 1344 1965 1280 
Q 1965 1043 1408 582 
Q 1619 570 2147 464 
Q 2675 358 3900 169 
Q 5126 -19 5958 -19 
L 5990 -19 
Q 6131 -19 6131 -70 
Q 6131 -90 6093 -179 
Q 5984 -422 5811 -422 
L 5773 -422 
Q 4973 -397 4070 -250 
Q 2528 13 1990 128 
Q 1453 243 1165 243 
Q 877 243 544 128 
Q 480 109 441 109 
Q 403 109 339 147 
Q 275 186 275 371 
Q 275 474 454 512 
Q 634 550 909 576 
Q 1274 896 1536 1235 
Q 1549 1261 1549 1280 
Q 1549 1331 1318 1485 
Q 1114 1638 1075 1658 
Q 909 1766 909 1884 
Q 909 2003 1053 2217 
Q 1197 2432 1434 2771 
L 838 2694 
Q 749 2682 717 2682 
Q 685 2682 617 2694 
Q 550 2707 473 2771 
Q 397 2835 358 2989 
Q 352 3002 352 3027 
Q 352 3072 390 3072 
z
M 5056 2656 
L 4045 2598 
L 4045 2003 
L 5056 2042 
L 5056 2656 
z
M 3699 2586 
L 2758 2534 
L 2758 1946 
L 3699 1984 
L 3699 2586 
z
" transform="scale(0.015625)"/>
      <path id="LXGWWenKai-Regular-5173" d="M 2854 3865 
Q 2829 3782 2720 3731 
Q 2611 3680 2556 3696 
Q 2502 3712 2374 3981 
Q 2246 4250 1862 4723 
Q 1760 4826 1926 4947 
Q 2029 5018 2083 5002 
Q 2138 4986 2301 4800 
Q 2464 4614 2672 4281 
Q 2880 3949 2854 3865 
z
M 1120 1818 
Q 1005 1818 902 1850 
Q 762 1933 685 2125 
Q 672 2163 672 2176 
Q 672 2234 736 2234 
Q 762 2234 838 2214 
Q 915 2195 1069 2195 
L 1133 2195 
L 2829 2278 
Q 2918 2662 2938 3258 
L 1587 3181 
L 1459 3174 
Q 1286 3174 1229 3232 
Q 1056 3398 1056 3565 
Q 1056 3610 1088 3610 
Q 1126 3610 1206 3584 
Q 1286 3558 1414 3558 
L 1446 3558 
L 3309 3667 
Q 3322 3699 3392 3782 
Q 4045 4730 4026 5030 
Q 4013 5267 4275 5120 
Q 4378 5056 4458 4982 
Q 4538 4909 4544 4864 
Q 4550 4819 4493 4717 
Q 4096 4070 3686 3757 
Q 3565 3686 3546 3680 
L 4634 3744 
Q 4794 3757 4845 3776 
Q 4896 3795 4925 3795 
Q 4954 3795 5024 3731 
Q 5235 3578 5235 3469 
Q 5235 3386 5075 3366 
L 3386 3277 
Q 3360 2701 3270 2298 
L 4954 2374 
Q 5146 2394 5210 2416 
Q 5274 2438 5315 2438 
Q 5357 2438 5446 2381 
Q 5670 2234 5670 2112 
Q 5670 2029 5504 2010 
L 3398 1914 
Q 4122 864 5005 339 
Q 5478 58 6067 -134 
Q 6202 -173 6202 -221 
Q 6202 -269 6138 -346 
Q 5965 -544 5837 -544 
L 5651 -474 
Q 5158 -282 4662 73 
Q 4166 429 3792 809 
Q 3418 1190 3110 1677 
Q 3008 1408 2957 1299 
Q 2528 429 1734 -51 
Q 1139 -416 614 -525 
Q 422 -563 364 -563 
Q 307 -563 307 -506 
Q 307 -435 538 -326 
Q 2330 480 2726 1882 
L 1120 1818 
z
" transform="scale(0.015625)"/>
      <path id="LXGWWenKai-Regular-ff01" d="M 1421 646 
Q 1568 646 1673 515 
Q 1779 384 1779 246 
Q 1779 109 1699 25 
Q 1619 -58 1465 -58 
Q 1312 -58 1209 64 
Q 1107 186 1107 323 
Q 1107 461 1190 553 
Q 1274 646 1421 646 
z
M 1197 4448 
Q 1197 4557 1337 4557 
Q 1478 4557 1609 4499 
Q 1741 4442 1741 4358 
L 1741 4352 
Q 1734 4250 1721 4144 
Q 1709 4038 1702 3898 
L 1626 1427 
L 1626 1107 
Q 1626 1056 1533 1056 
Q 1440 1056 1347 1094 
Q 1254 1133 1254 1197 
L 1254 1203 
Q 1267 1306 1267 1453 
L 1229 3930 
Q 1229 4243 1197 4435 
L 1197 4448 
z
" transform="scale(0.015625)"/>
     </defs>
     <use xlink:href="#LXGWWenKai-Regular-606d"/>
     <use xlink:href="#LXGWWenKai-Regular-559c" transform="translate(99.999985 0)"/>
     <use xlink:href="#LXGWWenKai-Regular-901a" transform="translate(199.999969 0)"/>
     <use xlink:href="#LXGWWenKai-Regular-5173" transform="translate(299.999954 0)"/>
     <use xlink:href="#LXGWWenKai-Regular-ff01" transform="translate(399.999939 0)"/>
    </g>
   </g>
  </g>
 </g>
 <defs>
  <clipPath id="p3aa5351e49">
   <rect x="7.2" y="7.2" width="864" height="288"/>
  </clipPath>
 </defs>
</svg>
