<?xml version="1.0" encoding="utf-8" standalone="no"?>
<!DOCTYPE svg PUBLIC "-//W3C//DTD SVG 1.1//EN"
  "http://www.w3.org/Graphics/SVG/1.1/DTD/svg11.dtd">
<svg xmlns:xlink="http://www.w3.org/1999/xlink" width="792pt" height="504pt" viewBox="0 0 792 504" xmlns="http://www.w3.org/2000/svg" version="1.1">
 <metadata>
  <rdf:RDF xmlns:dc="http://purl.org/dc/elements/1.1/" xmlns:cc="http://creativecommons.org/ns#" xmlns:rdf="http://www.w3.org/1999/02/22-rdf-syntax-ns#">
   <cc:Work>
    <dc:type rdf:resource="http://purl.org/dc/dcmitype/StillImage"/>
    <dc:date>2026-02-14T08:20:09.077528</dc:date>
    <dc:format>image/svg+xml</dc:format>
    <dc:creator>
     <cc:Agent>
      <dc:title>Matplotlib v3.10.8, https://matplotlib.org/</dc:title>
     </cc:Agent>
    </dc:creator>
   </cc:Work>
  </rdf:RDF>
 </metadata>
 <defs>
  <style type="text/css">*{stroke-linejoin: round; stroke-linecap: butt}</style>
 </defs>
 <g id="figure_1">
  <g id="patch_1">
   <path d="M 0 504 
L 792 504 
L 792 0 
L 0 0 
z
" style="fill: #fefdf5"/>
  </g>
  <g id="axes_1">
   <g id="patch_2">
    <path d="M 123.84 407.781818 
C 175.395483 407.781818 224.846327 393.712542 261.301558 368.672585 
C 297.75679 343.632629 318.24 309.666392 318.24 274.254545 
C 318.24 238.842699 297.75679 204.876462 261.301558 179.836505 
C 224.846327 154.796549 175.395483 140.727273 123.84 140.727273 
C 72.284517 140.727273 22.833673 154.796549 -13.621558 179.836505 
C -50.07679 204.876462 -70.56 238.842699 -70.56 274.254545 
C -70.56 309.666392 -50.07679 343.632629 -13.621558 368.672585 
C 22.833673 393.712542 72.284517 407.781818 123.84 407.781818 
L 123.84 407.781818 
z
" clip-path="url(#p4d4b977aca)" style="fill: none; opacity: 0.15; stroke: #5d4e37; stroke-linejoin: miter"/>
   </g>
   <g id="patch_3">
    <path d="M 123.84 274.254545 
L 279.36 274.254545 
L 123.84 140.727273 
L 123.84 274.254545 
z
" clip-path="url(#p4d4b977aca)" style="fill: none; stroke: #5d4e37; stroke-width: 2; stroke-linejoin: miter"/>
   </g>
   <g id="patch_4">
    <path d="M 139.392 274.254545 
L 139.392 256.450909 
L 123.84 256.450909 
L 139.392 274.254545 
z
" clip-path="url(#p4d4b977aca)" style="fill: none; stroke: #5d4e37; stroke-linejoin: miter"/>
   </g>
   <g id="line2d_1">
    <path d="M -1 274.254545 
L 357.12 274.254545 
" clip-path="url(#p4d4b977aca)" style="fill: none; stroke: #5d4e37; stroke-opacity: 0.3; stroke-width: 0.8; stroke-linecap: square"/>
   </g>
   <g id="line2d_2">
    <path d="M 123.84 407.781818 
L 123.84 51.709091 
" clip-path="url(#p4d4b977aca)" style="fill: none; stroke: #5d4e37; stroke-opacity: 0.3; stroke-width: 0.8; stroke-linecap: square"/>
   </g>
   <g id="line2d_3">
    <path d="M 123.84 274.254545 
L 123.84 140.727273 
" clip-path="url(#p4d4b977aca)" style="fill: none; stroke: #e8837c; stroke-width: 4; stroke-linecap: round"/>
   </g>
   <g id="line2d_4">
    <path d="M 123.84 140.727273 
L 279.36 274.254545 
" clip-path="url(#p4d4b977aca)" style="fill: none; stroke: #89cff0; stroke-opacity: 0.8; stroke-width: 3; stroke-linecap: square"/>
   </g>
   <g id="line2d_5">
    <defs>
     <path id="m912ae540ae" d="M 0 5 
C 1.326016 5 2.597899 4.473168 3.535534 3.535534 
C 4.473168 2.597899 5 1.326016 5 0 
C 5 -1.326016 4.473168 -2.597899 3.535534 -3.535534 
C 2.597899 -4.473168 1.326016 -5 0 -5 
C -1.326016 -5 -2.597899 -4.473168 -3.535534 -3.535534 
C -4.473168 -2.597899 -5 -1.326016 -5 0 
C -5 1.326016 -4.473168 2.597899 -3.535534 3.535534 
C -2.597899 4.473168 -1.326016 5 0 5 
z
" style="stroke: #e8837c"/>
    </defs>
    <g clip-path="url(#p4d4b977aca)">
     <use xlink:href="#m912ae540ae" x="123.84" y="140.727273" style="fill: #e8837c; stroke: #e8837c"/>
    </g>
   </g>
   <g id="line2d_6">
    <defs>
     <path id="m73cd7006ce" d="M 0 4 
C 1.060812 4 2.078319 3.578535 2.828427 2.828427 
C 3.578535 2.078319 4 1.060812 4 0 
C 4 -1.060812 3.578535 -2.078319 2.828427 -2.828427 
C 2.078319 -3.578535 1.060812 -4 0 -4 
C -1.060812 -4 -2.078319 -3.578535 -2.828427 -2.828427 
C -3.578535 -2.078319 -4 -1.060812 -4 0 
C -4 1.060812 -3.578535 2.078319 -2.828427 2.828427 
C -2.078319 3.578535 -1.060812 4 0 4 
z
" style="stroke: #5d4e37"/>
    </defs>
    <g clip-path="url(#p4d4b977aca)">
     <use xlink:href="#m73cd7006ce" x="279.36" y="274.254545" style="fill: #5d4e37; stroke: #5d4e37"/>
    </g>
   </g>
   <g id="text_1">
    <!-- $OP = ?$ -->
    <g style="fill: #e8837c" transform="translate(55.344 213.375909) scale(0.22 -0.22)">
     <defs>
      <path id="STIXGeneral-Italic-4f" d="M 4474 2675 
Q 4474 1990 4106 1363 
Q 3738 736 3149 339 
Q 2477 -115 1779 -115 
Q 1146 -115 765 281 
Q 384 678 384 1382 
Q 384 1965 697 2582 
Q 1011 3200 1517 3642 
Q 2234 4262 3034 4262 
Q 3718 4269 4096 3840 
Q 4474 3411 4474 2675 
z
M 3802 3078 
Q 3802 3533 3581 3792 
Q 3360 4051 2976 4051 
Q 2342 4051 1786 3302 
Q 1446 2842 1251 2259 
Q 1056 1677 1056 1178 
Q 1056 653 1270 374 
Q 1485 96 1888 96 
Q 2477 96 2976 704 
Q 3354 1178 3578 1862 
Q 3802 2547 3802 3078 
z
" transform="scale(0.015625)"/>
      <path id="STIXGeneral-Italic-50" d="M 934 4179 
L 2477 4179 
Q 3872 4179 3872 3232 
Q 3872 2976 3753 2729 
Q 3635 2483 3437 2317 
Q 2995 1952 2125 1952 
Q 1773 1952 1549 2003 
L 1210 768 
Q 1120 422 1120 365 
Q 1120 250 1216 189 
Q 1312 128 1562 102 
L 1562 0 
L 0 0 
L 0 102 
Q 275 141 361 227 
Q 448 314 538 627 
L 1280 3277 
Q 1389 3667 1389 3808 
Q 1389 3936 1299 3990 
Q 1210 4045 934 4077 
L 934 4179 
z
M 2048 3789 
L 1606 2221 
Q 1792 2189 1939 2189 
Q 2496 2189 2758 2342 
Q 3213 2598 3213 3200 
Q 3213 3987 2381 3987 
Q 2099 3987 2048 3789 
z
" transform="scale(0.015625)"/>
      <path id="STIXGeneral-Regular-3d" d="M 4077 2048 
L 307 2048 
L 307 2470 
L 4077 2470 
L 4077 2048 
z
M 4077 768 
L 307 768 
L 307 1190 
L 4077 1190 
L 4077 768 
z
" transform="scale(0.015625)"/>
      <path id="STIXGeneral-Regular-3f" d="M 1562 1050 
L 1453 1050 
Q 1466 1510 1734 2182 
Q 2061 2989 2061 3379 
Q 2061 3706 1859 3920 
Q 1658 4134 1363 4134 
Q 1133 4134 947 4012 
Q 762 3891 762 3738 
Q 762 3616 883 3491 
Q 1005 3366 1005 3264 
Q 1005 3142 934 3065 
Q 864 2989 742 2989 
Q 608 2989 521 3104 
Q 435 3219 435 3411 
Q 435 3808 729 4067 
Q 1024 4326 1485 4326 
Q 1965 4326 2307 4048 
Q 2650 3770 2650 3315 
Q 2650 3027 2522 2787 
Q 2394 2547 1978 2054 
Q 1664 1677 1562 1050 
z
M 1856 288 
Q 1856 147 1760 48 
Q 1664 -51 1523 -51 
Q 1363 -51 1270 48 
Q 1178 147 1178 288 
Q 1178 435 1277 531 
Q 1376 627 1523 627 
Q 1658 627 1757 524 
Q 1856 422 1856 288 
z
" transform="scale(0.015625)"/>
     </defs>
     <use xlink:href="#STIXGeneral-Italic-4f" transform="translate(0 0.40625)"/>
     <use xlink:href="#STIXGeneral-Italic-50" transform="translate(72.199982 0.40625)"/>
     <use xlink:href="#STIXGeneral-Regular-3d" transform="translate(147.739969 0.40625)"/>
     <use xlink:href="#STIXGeneral-Regular-3f" transform="translate(230.67995 0.40625)"/>
    </g>
   </g>
   <g id="text_2">
    <!-- $OF_2 = c$ -->
    <g style="fill: #5d4e37" transform="translate(173.25 300.96) scale(0.18 -0.18)">
     <defs>
      <path id="STIXGeneral-Italic-46" d="M 4128 4179 
L 3923 3194 
L 3789 3206 
Q 3808 3347 3808 3418 
Q 3808 3667 3718 3772 
Q 3629 3878 3373 3923 
Q 3117 3968 2534 3968 
Q 2310 3968 2220 3926 
Q 2131 3885 2099 3763 
L 1690 2310 
Q 2003 2317 2147 2317 
Q 2291 2317 2457 2345 
Q 2624 2374 2678 2396 
Q 2733 2419 2822 2505 
Q 2912 2592 2950 2665 
Q 2989 2739 3072 2912 
L 3187 2880 
L 2701 1376 
L 2592 1408 
Q 2643 1670 2643 1798 
Q 2643 1978 2531 2029 
Q 2419 2080 2163 2080 
Q 1984 2080 1632 2099 
L 1254 736 
Q 1165 416 1165 352 
Q 1165 237 1273 179 
Q 1382 122 1658 102 
L 1658 0 
L 51 0 
L 51 102 
Q 314 122 410 224 
Q 506 326 582 602 
L 1370 3430 
Q 1434 3661 1434 3821 
Q 1434 3955 1347 4003 
Q 1261 4051 947 4077 
L 947 4179 
L 4128 4179 
z
" transform="scale(0.015625)"/>
      <path id="STIXGeneral-Regular-32" d="M 3034 877 
L 2688 0 
L 186 0 
L 186 77 
L 1325 1286 
Q 1773 1754 1965 2144 
Q 2157 2534 2157 2950 
Q 2157 3379 1920 3616 
Q 1683 3853 1267 3853 
Q 922 3853 720 3673 
Q 518 3494 326 3021 
L 192 3053 
Q 301 3648 630 3987 
Q 960 4326 1523 4326 
Q 2054 4326 2380 4006 
Q 2707 3686 2707 3200 
Q 2707 2477 1888 1613 
L 832 486 
L 2330 486 
Q 2541 486 2665 569 
Q 2790 653 2944 915 
L 3034 877 
z
" transform="scale(0.015625)"/>
      <path id="STIXGeneral-Italic-63" d="M 2240 685 
L 2342 621 
Q 2048 250 1769 90 
Q 1491 -70 1133 -70 
Q 678 -70 435 179 
Q 192 429 192 915 
Q 192 1344 409 1744 
Q 627 2144 979 2432 
Q 1472 2822 2048 2822 
Q 2342 2822 2531 2675 
Q 2720 2528 2720 2304 
Q 2720 2176 2630 2086 
Q 2541 1997 2413 1997 
Q 2285 1997 2224 2070 
Q 2163 2144 2163 2253 
Q 2163 2310 2211 2403 
Q 2259 2496 2259 2560 
Q 2259 2688 2022 2688 
Q 1619 2688 1325 2381 
Q 742 1766 742 890 
Q 742 544 889 352 
Q 1037 160 1312 160 
Q 1562 160 1766 281 
Q 1971 403 2240 685 
z
" transform="scale(0.015625)"/>
     </defs>
     <use xlink:href="#STIXGeneral-Italic-4f" transform="translate(0 0.296875)"/>
     <use xlink:href="#STIXGeneral-Italic-46" transform="translate(72.199982 0.296875)"/>
     <use xlink:href="#STIXGeneral-Regular-32" transform="translate(133.299973 -12.93125) scale(0.7)"/>
     <use xlink:href="#STIXGeneral-Regular-3d" transform="translate(187.149333 0.296875)"/>
     <use xlink:href="#STIXGeneral-Italic-63" transform="translate(270.089314 0.296875)"/>
    </g>
   </g>
   <g id="text_3">
    <!-- $PF_2 = a$ -->
    <g style="fill: #89cff0" transform="translate(193.928 180.785455) scale(0.2 -0.2)">
     <defs>
      <path id="STIXGeneral-Italic-61" d="M 2963 710 
L 3046 640 
Q 2688 205 2518 70 
Q 2349 -64 2157 -64 
Q 1901 -64 1901 198 
Q 1901 358 2048 934 
Q 1690 397 1389 163 
Q 1088 -70 749 -70 
Q 467 -70 288 125 
Q 109 320 109 672 
Q 109 1158 387 1664 
Q 666 2170 1094 2496 
Q 1523 2822 1939 2822 
Q 2368 2822 2451 2451 
L 2522 2758 
L 2541 2778 
L 2931 2822 
L 2976 2803 
Q 2970 2778 2938 2669 
Q 2368 595 2368 346 
Q 2368 262 2458 262 
Q 2554 262 2790 525 
L 2963 710 
z
M 2336 2310 
Q 2336 2477 2240 2579 
Q 2144 2682 1978 2682 
Q 1542 2682 1139 2093 
Q 928 1779 787 1395 
Q 646 1011 646 717 
Q 646 243 1030 243 
Q 1408 243 1843 870 
Q 2336 1581 2336 2310 
z
" transform="scale(0.015625)"/>
     </defs>
     <use xlink:href="#STIXGeneral-Italic-50" transform="translate(0 0.703125)"/>
     <use xlink:href="#STIXGeneral-Italic-46" transform="translate(61.099991 0.703125)"/>
     <use xlink:href="#STIXGeneral-Regular-32" transform="translate(122.199982 -12.525) scale(0.7)"/>
     <use xlink:href="#STIXGeneral-Regular-3d" transform="translate(176.049342 0.703125)"/>
     <use xlink:href="#STIXGeneral-Italic-61" transform="translate(258.989323 0.703125)"/>
    </g>
   </g>
   <g id="text_4">
    <!-- 待化简的方程： -->
    <g style="fill: #5d4e37" transform="translate(372.672 96.218182) scale(0.16 -0.16)">
     <defs>
      <path id="LXGWWenKai-Regular-5f85" d="M 2586 2675 
L 2464 2669 
Q 2285 2669 2192 2758 
Q 2099 2848 2048 3008 
Q 2042 3021 2042 3046 
Q 2042 3072 2067 3072 
Q 2093 3072 2169 3046 
Q 2246 3021 2406 3021 
L 2464 3021 
L 3878 3098 
L 3878 3834 
L 3155 3789 
Q 3110 3782 3072 3782 
L 2989 3782 
Q 2842 3782 2784 3843 
Q 2726 3904 2678 3997 
Q 2630 4090 2630 4128 
Q 2630 4166 2652 4166 
Q 2675 4166 2748 4140 
Q 2822 4115 2995 4115 
L 3046 4115 
L 3885 4166 
L 3885 4845 
Q 3885 5011 3833 5094 
Q 3782 5178 3782 5219 
Q 3782 5261 3852 5261 
Q 3923 5261 4067 5213 
Q 4211 5165 4252 5136 
Q 4294 5107 4294 5037 
L 4294 4192 
L 4922 4230 
Q 5094 4237 5171 4269 
Q 5248 4301 5286 4301 
Q 5325 4301 5405 4243 
Q 5485 4186 5549 4115 
Q 5613 4045 5613 4006 
Q 5613 3942 5453 3930 
L 4288 3859 
L 4288 3117 
L 5555 3187 
Q 5741 3200 5814 3229 
Q 5888 3258 5929 3258 
Q 5971 3258 6051 3194 
Q 6131 3130 6195 3056 
Q 6259 2982 6259 2950 
Q 6259 2886 6093 2874 
L 2586 2675 
z
M 2144 4717 
Q 2144 4621 1763 4179 
Q 1382 3738 979 3376 
Q 576 3014 410 3014 
Q 365 3014 365 3062 
Q 365 3110 541 3286 
Q 717 3462 931 3721 
Q 1146 3981 1318 4224 
Q 1491 4467 1593 4659 
Q 1696 4851 1696 4947 
Q 1696 5043 1766 5043 
Q 1837 5043 1920 4979 
Q 2144 4813 2144 4717 
z
M 1158 1926 
Q 717 1421 464 1235 
Q 211 1050 153 1050 
Q 96 1050 96 1088 
Q 96 1146 218 1280 
Q 838 2003 1280 2701 
Q 1677 3290 1677 3539 
Q 1677 3635 1741 3635 
Q 1805 3635 1894 3584 
Q 2118 3437 2118 3344 
Q 2118 3251 1884 2902 
Q 1651 2554 1530 2394 
L 1542 -467 
Q 1542 -595 1427 -595 
Q 1293 -595 1197 -508 
Q 1101 -422 1101 -339 
L 1101 -307 
Q 1101 -288 1123 -189 
Q 1146 -90 1146 77 
L 1158 1926 
z
M 4941 -128 
L 4947 -326 
Q 4947 -480 4857 -566 
Q 4768 -653 4685 -653 
Q 4602 -653 4400 -566 
Q 4198 -480 3852 -246 
Q 3507 -13 3507 77 
Q 3507 115 3568 115 
Q 3629 115 3923 3 
Q 4218 -109 4531 -160 
L 4518 1722 
L 2758 1638 
L 2592 1632 
Q 2496 1632 2397 1673 
Q 2298 1715 2227 1952 
Q 2221 1965 2221 1987 
Q 2221 2010 2246 2010 
Q 2272 2010 2345 1990 
Q 2419 1971 2566 1971 
L 2630 1971 
L 4518 2054 
L 4518 2195 
Q 4518 2374 4457 2473 
Q 4397 2573 4397 2605 
Q 4397 2656 4464 2656 
Q 4531 2656 4634 2637 
Q 4922 2573 4922 2400 
L 4922 2074 
L 5446 2099 
Q 5555 2106 5622 2138 
Q 5690 2170 5738 2170 
Q 5786 2170 5875 2112 
Q 5965 2054 6032 1984 
Q 6099 1914 6099 1875 
Q 6099 1798 5946 1786 
L 4928 1734 
L 4941 -128 
z
M 3597 1142 
Q 3738 1005 3840 889 
Q 3942 774 3942 726 
Q 3942 678 3852 588 
Q 3763 499 3705 499 
Q 3648 499 3590 570 
Q 3334 922 3008 1190 
Q 2957 1229 2957 1283 
Q 2957 1338 3024 1405 
Q 3091 1472 3148 1472 
Q 3206 1472 3331 1376 
Q 3456 1280 3597 1142 
z
" transform="scale(0.015625)"/>
      <path id="LXGWWenKai-Regular-5316" d="M 1466 2912 
Q 1146 2496 870 2240 
Q 378 1773 262 1773 
Q 224 1773 224 1817 
Q 224 1862 377 2044 
Q 531 2227 886 2707 
Q 1242 3187 1670 3907 
Q 2099 4627 2099 4851 
L 2099 4902 
Q 2099 4922 2093 4947 
L 2093 4966 
Q 2093 5030 2160 5030 
Q 2227 5030 2330 4979 
Q 2579 4838 2579 4736 
Q 2579 4659 2323 4198 
Q 2067 3738 1882 3450 
L 1875 -390 
Q 1875 -525 1747 -525 
Q 1734 -525 1644 -502 
Q 1555 -480 1472 -416 
Q 1389 -352 1389 -278 
Q 1389 -205 1411 -112 
Q 1434 -19 1434 211 
L 1466 2912 
z
M 3309 1811 
Q 2470 1344 2272 1344 
Q 2208 1344 2208 1382 
Q 2208 1446 2419 1574 
Q 2963 1901 3315 2163 
L 3328 4595 
Q 3328 4749 3277 4832 
Q 3226 4915 3226 4944 
Q 3226 4973 3302 4973 
Q 3379 4973 3533 4928 
Q 3763 4877 3763 4742 
L 3750 2496 
Q 4410 3040 4915 3648 
Q 4992 3725 5011 3865 
Q 5030 4006 5068 4006 
Q 5107 4006 5184 3936 
Q 5414 3738 5414 3578 
Q 5414 3533 5389 3507 
Q 4640 2650 3744 2080 
L 3738 544 
Q 3738 326 3795 256 
Q 3853 186 4019 154 
Q 4346 102 4624 102 
Q 4902 102 5350 166 
Q 5466 186 5542 282 
Q 5683 461 5805 1306 
Q 5824 1453 5862 1523 
Q 5901 1594 5933 1594 
Q 6054 1594 6054 960 
Q 6054 634 6029 371 
Q 5971 -179 5491 -230 
Q 4998 -288 4537 -288 
Q 4077 -288 3789 -221 
Q 3501 -154 3401 6 
Q 3302 166 3302 454 
L 3309 1811 
z
" transform="scale(0.015625)"/>
      <path id="LXGWWenKai-Regular-7b80" d="M 960 2451 
Q 960 2618 838 2739 
Q 813 2778 813 2790 
Q 813 2803 899 2803 
Q 986 2803 1126 2755 
Q 1267 2707 1299 2675 
Q 1331 2643 1331 2579 
L 1338 -358 
Q 1338 -493 1248 -493 
Q 1210 -493 1123 -448 
Q 1037 -403 973 -339 
Q 909 -275 909 -227 
Q 909 -179 934 -57 
Q 960 64 960 211 
L 960 2451 
z
M 5395 -102 
L 5402 -256 
Q 5402 -416 5299 -496 
Q 5197 -576 5145 -576 
Q 5094 -576 5024 -550 
L 4941 -512 
Q 4493 -243 4230 19 
Q 4154 96 4154 118 
Q 4154 141 4182 141 
Q 4211 141 4301 102 
Q 4621 -64 5024 -192 
L 5024 -122 
L 5075 2995 
L 3181 2893 
Q 3136 2886 3091 2886 
L 3021 2886 
Q 2906 2886 2848 2938 
Q 2835 2957 2758 3069 
Q 2682 3181 2682 3219 
Q 2682 3258 2694 3258 
Q 2854 3213 3021 3213 
L 3059 3213 
L 5171 3315 
L 5235 3315 
Q 5357 3315 5417 3248 
Q 5478 3181 5478 3136 
L 5446 2989 
L 5395 -102 
z
M 4118 5209 
Q 4211 5165 4291 5101 
Q 4371 5037 4371 4963 
Q 4371 4890 4102 4486 
L 5331 4576 
Q 5478 4589 5536 4608 
Q 5594 4627 5629 4627 
Q 5664 4627 5734 4588 
Q 5805 4550 5865 4489 
Q 5926 4429 5926 4378 
Q 5926 4288 5798 4275 
L 4602 4198 
Q 5114 3776 5114 3657 
Q 5114 3539 4960 3456 
Q 4909 3424 4873 3424 
Q 4838 3424 4700 3606 
Q 4563 3789 4346 3974 
Q 4301 4019 4301 4060 
Q 4301 4102 4371 4186 
L 3859 4154 
Q 3558 3757 3226 3488 
Q 3091 3379 3040 3379 
Q 2989 3379 2989 3418 
Q 2989 3475 3066 3571 
Q 3590 4205 3814 4762 
Q 3917 5011 3917 5139 
L 3917 5158 
Q 3917 5254 3987 5254 
Q 4026 5254 4118 5209 
z
M 1997 4992 
Q 2067 4934 2067 4870 
Q 2067 4806 1862 4467 
L 2867 4531 
Q 2995 4544 3078 4569 
Q 3162 4595 3210 4595 
Q 3258 4595 3328 4537 
Q 3398 4480 3443 4413 
Q 3488 4346 3488 4320 
Q 3488 4250 3347 4237 
L 2221 4166 
Q 2253 4147 2509 3920 
Q 2765 3693 2765 3590 
Q 2765 3546 2694 3475 
Q 2586 3386 2538 3386 
Q 2490 3386 2406 3488 
Q 2214 3731 2010 3923 
Q 1946 3987 1946 4038 
Q 1946 4090 2035 4160 
L 1645 4134 
Q 1350 3731 960 3369 
Q 570 3008 461 3008 
Q 416 3008 416 3059 
Q 416 3110 538 3251 
Q 845 3584 1225 4169 
Q 1606 4755 1606 4966 
Q 1606 5018 1600 5037 
L 1600 5069 
Q 1600 5146 1702 5146 
Q 1805 5146 1997 4992 
z
M 3782 1286 
L 2605 1222 
L 2643 685 
L 3731 736 
L 3782 1286 
z
M 3853 2112 
L 2554 2042 
L 2586 1517 
L 3808 1574 
L 3853 2112 
z
M 4077 774 
Q 4262 621 4262 550 
Q 4262 454 4115 435 
L 2662 371 
L 2682 109 
L 2682 77 
Q 2682 -6 2602 -6 
Q 2522 -6 2397 54 
Q 2272 115 2272 218 
L 2272 250 
Q 2291 403 2291 544 
L 2195 1997 
Q 2176 2202 2134 2294 
Q 2093 2387 2093 2419 
Q 2093 2470 2179 2470 
Q 2266 2470 2586 2342 
L 3878 2419 
L 3923 2419 
Q 4026 2419 4144 2358 
Q 4262 2298 4262 2189 
Q 4262 2144 4243 2105 
Q 4224 2067 4218 2029 
L 4077 774 
z
M 2141 3209 
Q 2266 3117 2349 3040 
Q 2432 2963 2432 2915 
Q 2432 2867 2352 2787 
Q 2272 2707 2217 2707 
Q 2163 2707 2035 2835 
Q 1907 2963 1466 3283 
Q 1382 3347 1382 3395 
Q 1382 3443 1436 3510 
Q 1491 3578 1536 3578 
Q 1581 3578 1673 3523 
Q 1766 3469 1891 3385 
Q 2016 3302 2141 3209 
z
" transform="scale(0.015625)"/>
      <path id="LXGWWenKai-Regular-7684" d="M 3846 4890 
L 3834 4992 
Q 3834 5069 3898 5069 
Q 3917 5069 4019 5024 
Q 4307 4896 4307 4762 
Q 4307 4589 3898 3738 
L 5504 3834 
L 5530 3834 
Q 5613 3834 5696 3773 
Q 5779 3712 5779 3616 
L 5760 3469 
Q 5709 1747 5530 301 
Q 5427 -544 5082 -544 
Q 4934 -544 4841 -483 
Q 4749 -422 4605 -313 
Q 4461 -205 4301 -70 
Q 4141 64 4025 179 
Q 3910 294 3910 345 
Q 3910 397 3984 397 
Q 4058 397 4282 262 
Q 4506 128 4947 -45 
L 4960 -45 
Q 4998 -45 5018 6 
Q 5299 1107 5338 3469 
L 3731 3366 
Q 3450 2880 3232 2595 
Q 3014 2310 2944 2310 
Q 2912 2310 2912 2371 
Q 2912 2432 3104 2787 
Q 3296 3142 3571 3875 
Q 3846 4608 3846 4845 
L 3846 4890 
z
M 1715 4749 
Q 1715 4768 1702 4845 
Q 1702 4922 1779 4922 
Q 1920 4922 2035 4832 
Q 2150 4742 2150 4665 
Q 2150 4589 1920 4160 
Q 1715 3802 1581 3603 
L 2483 3654 
L 2560 3654 
Q 2746 3654 2803 3507 
Q 2822 3462 2822 3456 
L 2790 3328 
L 2688 480 
Q 2842 282 2842 214 
Q 2842 147 2790 134 
Q 2739 122 2656 115 
L 1229 64 
L 1235 -147 
L 1235 -166 
Q 1235 -307 1126 -307 
Q 979 -307 892 -233 
Q 806 -160 806 -77 
L 851 243 
L 794 3232 
Q 794 3418 717 3539 
Q 672 3629 672 3664 
Q 672 3699 768 3699 
Q 864 3699 1165 3584 
L 1222 3584 
Q 1715 4512 1715 4749 
z
M 2400 3302 
L 1171 3238 
L 1190 2061 
L 2368 2118 
L 2400 3302 
z
M 4755 1446 
Q 4755 1318 4589 1229 
Q 4525 1190 4483 1190 
Q 4442 1190 4358 1299 
Q 4160 1619 3913 1913 
Q 3667 2208 3564 2307 
Q 3462 2406 3462 2464 
Q 3462 2522 3532 2589 
Q 3603 2656 3657 2656 
Q 3712 2656 3869 2505 
Q 4026 2355 4390 1939 
Q 4755 1523 4755 1446 
z
M 2355 1773 
L 1197 1722 
L 1222 422 
L 2317 461 
L 2355 1773 
z
" transform="scale(0.015625)"/>
      <path id="LXGWWenKai-Regular-65b9" d="M 506 3648 
Q 666 3616 838 3616 
L 922 3616 
L 2970 3738 
L 2963 4621 
Q 2963 4768 2912 4841 
Q 2861 4915 2861 4947 
Q 2861 4998 2928 4998 
Q 2995 4998 3098 4986 
Q 3386 4947 3386 4838 
L 3379 3763 
L 5299 3878 
Q 5517 3898 5581 3917 
Q 5645 3936 5683 3936 
Q 5722 3936 5811 3891 
Q 6054 3757 6054 3635 
Q 6054 3552 5933 3539 
L 3142 3379 
Q 3085 3040 2944 2547 
L 4525 2637 
L 4570 2637 
Q 4710 2637 4812 2566 
Q 4915 2496 4915 2422 
Q 4915 2349 4892 2301 
Q 4870 2253 4864 2221 
Q 4723 800 4365 -154 
Q 4301 -314 4169 -435 
Q 4038 -557 3939 -557 
Q 3840 -557 3587 -432 
Q 3334 -307 2921 16 
Q 2509 339 2509 442 
Q 2509 474 2573 474 
Q 2637 474 2985 301 
Q 3334 128 3808 -19 
Q 3821 -26 3853 -26 
Q 3885 -26 3891 0 
Q 4134 512 4246 1101 
Q 4358 1690 4410 2253 
L 2816 2170 
Q 2464 1178 1779 448 
Q 1235 -134 742 -384 
Q 550 -480 483 -480 
Q 416 -480 416 -435 
Q 416 -365 538 -282 
Q 1139 160 1683 880 
Q 2227 1600 2458 2394 
Q 2592 2867 2675 3354 
L 1069 3258 
Q 954 3245 851 3245 
Q 749 3245 649 3293 
Q 550 3341 461 3565 
Q 454 3578 454 3603 
Q 454 3648 506 3648 
z
" transform="scale(0.015625)"/>
      <path id="LXGWWenKai-Regular-7a0b" d="M 1466 4064 
Q 723 3834 579 3834 
Q 435 3834 435 3885 
Q 435 3949 633 4022 
Q 832 4096 1261 4297 
Q 1690 4499 2054 4742 
Q 2163 4806 2204 4896 
Q 2246 4986 2294 4986 
Q 2342 4986 2416 4906 
Q 2490 4826 2544 4730 
Q 2598 4634 2598 4605 
Q 2598 4576 2586 4557 
Q 2534 4467 1811 4186 
L 1811 3251 
L 2202 3277 
Q 2368 3296 2422 3315 
Q 2477 3334 2525 3334 
Q 2573 3334 2701 3244 
Q 2829 3155 2829 3075 
Q 2829 2995 2707 2982 
L 1811 2912 
L 1811 2509 
Q 1862 2560 1907 2560 
Q 1997 2560 2330 2227 
Q 2688 1888 2688 1795 
Q 2688 1702 2601 1635 
Q 2515 1568 2464 1568 
Q 2413 1568 2336 1664 
Q 2118 1978 1811 2266 
L 1818 -435 
Q 1818 -589 1702 -589 
Q 1645 -589 1568 -550 
Q 1402 -474 1402 -346 
Q 1402 -307 1421 -204 
Q 1440 -102 1440 128 
L 1440 294 
L 1453 1837 
Q 1453 1971 1472 2163 
L 1472 2234 
Q 1389 1914 1040 1402 
Q 691 890 496 701 
Q 301 512 250 512 
Q 211 512 211 563 
Q 211 614 275 717 
Q 947 1715 1389 2880 
L 838 2835 
Q 710 2822 649 2822 
Q 589 2822 493 2860 
Q 397 2899 314 3110 
Q 307 3130 307 3155 
Q 301 3194 346 3194 
L 614 3168 
L 685 3168 
L 1459 3226 
L 1466 4064 
z
M 3539 2880 
Q 3539 2746 3386 2746 
Q 3309 2746 3213 2803 
Q 3117 2861 3117 2957 
L 3117 2989 
Q 3130 3130 3130 3200 
L 3130 3315 
Q 3130 3354 3123 3379 
L 3034 4256 
Q 3027 4384 2966 4528 
Q 2906 4672 2906 4704 
Q 2906 4736 2979 4736 
Q 3053 4736 3398 4608 
L 5133 4710 
L 5184 4710 
Q 5293 4710 5385 4627 
Q 5478 4544 5478 4493 
Q 5478 4442 5462 4413 
Q 5446 4384 5440 4352 
L 5312 3398 
Q 5472 3213 5472 3142 
Q 5472 3072 5411 3062 
Q 5350 3053 5267 3046 
L 3533 2950 
L 3539 2893 
L 3539 2880 
z
M 5024 4358 
L 3411 4269 
L 3501 3309 
L 4928 3379 
L 5024 4358 
z
M 5581 141 
L 5888 186 
Q 5939 186 6022 134 
Q 6234 6 6234 -115 
Q 6234 -205 6067 -218 
L 2784 -307 
L 2688 -307 
Q 2547 -307 2454 -259 
Q 2362 -211 2304 45 
L 2304 77 
Q 2304 115 2333 115 
Q 2362 115 2435 92 
Q 2509 70 2688 70 
L 4032 102 
L 4038 986 
L 3443 960 
L 3309 954 
Q 3066 954 2982 1165 
Q 2944 1248 2944 1293 
Q 2944 1338 2976 1338 
Q 3008 1338 3072 1322 
Q 3136 1306 3264 1306 
L 3334 1306 
L 4045 1338 
L 4051 2048 
L 3232 2003 
L 3098 1997 
Q 2931 1997 2867 2074 
Q 2733 2234 2733 2355 
Q 2733 2387 2765 2387 
Q 2797 2387 2861 2371 
Q 2925 2355 3053 2355 
L 3123 2355 
L 5126 2458 
Q 5299 2477 5353 2493 
Q 5408 2509 5446 2509 
Q 5485 2509 5568 2458 
Q 5779 2323 5779 2208 
Q 5779 2138 5613 2125 
L 4448 2067 
L 4442 1350 
L 4986 1376 
Q 5158 1395 5212 1411 
Q 5267 1427 5302 1427 
Q 5338 1427 5414 1376 
Q 5632 1242 5632 1139 
Q 5632 1062 5472 1050 
L 4435 1005 
L 4429 115 
L 5581 141 
z
" transform="scale(0.015625)"/>
      <path id="LXGWWenKai-Regular-ff1a" d="M 1574 646 
Q 1709 646 1814 515 
Q 1920 384 1920 253 
Q 1920 122 1840 38 
Q 1760 -45 1606 -45 
Q 1453 -45 1350 86 
Q 1248 218 1248 355 
Q 1248 493 1344 569 
Q 1440 646 1574 646 
z
M 1574 3021 
Q 1709 3021 1814 2889 
Q 1920 2758 1920 2627 
Q 1920 2496 1840 2413 
Q 1760 2330 1606 2330 
Q 1453 2330 1350 2461 
Q 1248 2592 1248 2729 
Q 1248 2867 1344 2944 
Q 1440 3021 1574 3021 
z
" transform="scale(0.015625)"/>
     </defs>
     <use xlink:href="#LXGWWenKai-Regular-5f85"/>
     <use xlink:href="#LXGWWenKai-Regular-5316" transform="translate(99.999985 0)"/>
     <use xlink:href="#LXGWWenKai-Regular-7b80" transform="translate(199.999969 0)"/>
     <use xlink:href="#LXGWWenKai-Regular-7684" transform="translate(299.999954 0)"/>
     <use xlink:href="#LXGWWenKai-Regular-65b9" transform="translate(399.999939 0)"/>
     <use xlink:href="#LXGWWenKai-Regular-7a0b" transform="translate(499.999924 0)"/>
     <use xlink:href="#LXGWWenKai-Regular-ff1a" transform="translate(599.999908 0)"/>
    </g>
   </g>
   <g id="text_5">
    <g id="patch_5">
     <path d="M 372.672 175.570909 
L 676.512 175.570909 
Q 688.512 175.570909 688.512 163.570909 
L 688.512 138.610909 
Q 688.512 126.610909 676.512 126.610909 
L 372.672 126.610909 
Q 360.672 126.610909 360.672 138.610909 
L 360.672 163.570909 
Q 360.672 175.570909 372.672 175.570909 
z
" style="fill: #f7f5ec; stroke: #e8837c; stroke-width: 1.5; stroke-linejoin: miter"/>
    </g>
    <!-- $(a^2 - c^2)x^2 + a^2 y^2 = a^2(a^2 - c^2)$ -->
    <g style="fill: #5d4e37" transform="translate(372.672 158.530909) scale(0.24 -0.24)">
     <defs>
      <path id="STIXGeneral-Regular-28" d="M 1946 -1030 
L 1869 -1133 
Q 1126 -710 716 32 
Q 307 774 307 1613 
Q 307 3386 1888 4326 
L 1946 4224 
Q 1293 3667 1075 3126 
Q 858 2586 858 1632 
Q 858 685 1082 96 
Q 1306 -493 1946 -1030 
z
" transform="scale(0.015625)"/>
      <path id="STIXGeneral-Regular-2212" d="M 3974 1408 
L 410 1408 
L 410 1830 
L 3974 1830 
L 3974 1408 
z
" transform="scale(0.015625)"/>
      <path id="STIXGeneral-Regular-29" d="M 186 4224 
L 262 4326 
Q 992 3891 1408 3148 
Q 1824 2406 1824 1581 
Q 1824 -166 243 -1133 
L 186 -1030 
Q 845 -486 1059 54 
Q 1274 595 1274 1562 
Q 1274 2534 1059 3120 
Q 845 3706 186 4224 
z
" transform="scale(0.015625)"/>
      <path id="STIXGeneral-Italic-78" d="M 1555 2272 
L 1632 1907 
Q 1971 2426 2179 2624 
Q 2387 2822 2598 2822 
Q 2714 2822 2787 2755 
Q 2861 2688 2861 2585 
Q 2861 2483 2800 2419 
Q 2739 2355 2643 2355 
Q 2586 2355 2490 2409 
Q 2394 2464 2310 2464 
Q 2125 2464 1683 1690 
Q 1683 1606 1734 1402 
L 1939 544 
Q 2003 282 2131 282 
Q 2234 282 2432 538 
Q 2451 563 2476 598 
Q 2502 634 2521 662 
Q 2541 691 2566 717 
L 2662 659 
Q 2387 230 2227 80 
Q 2067 -70 1882 -70 
Q 1728 -70 1645 26 
Q 1562 122 1504 365 
L 1318 1126 
L 755 365 
Q 557 96 432 13 
Q 307 -70 147 -70 
Q 0 -70 -86 0 
Q -173 70 -173 198 
Q -173 294 -112 361 
Q -51 429 45 429 
Q 122 429 250 358 
Q 346 301 416 301 
Q 525 301 742 614 
L 1267 1357 
L 1088 2150 
Q 1024 2432 969 2509 
Q 915 2586 794 2586 
Q 717 2586 544 2541 
L 429 2509 
L 410 2611 
L 480 2637 
Q 992 2822 1229 2822 
Q 1350 2822 1420 2707 
Q 1491 2592 1555 2272 
z
" transform="scale(0.015625)"/>
      <path id="STIXGeneral-Regular-2b" d="M 4070 1408 
L 2400 1408 
L 2400 -262 
L 1978 -262 
L 1978 1408 
L 307 1408 
L 307 1830 
L 1978 1830 
L 1978 3501 
L 2400 3501 
L 2400 1830 
L 4070 1830 
L 4070 1408 
z
" transform="scale(0.015625)"/>
      <path id="STIXGeneral-Italic-79" d="M 1555 1190 
L 1690 486 
Q 2118 1190 2294 1558 
Q 2470 1926 2470 2131 
Q 2470 2234 2304 2336 
Q 2138 2445 2138 2586 
Q 2138 2688 2211 2755 
Q 2285 2822 2394 2822 
Q 2534 2822 2630 2720 
Q 2726 2618 2726 2470 
Q 2726 1914 1888 518 
Q 1389 -307 918 -812 
Q 448 -1318 173 -1318 
Q 26 -1318 -64 -1241 
Q -154 -1165 -154 -1043 
Q -154 -934 -80 -860 
Q -6 -787 96 -787 
Q 218 -787 314 -876 
Q 410 -966 486 -966 
Q 602 -966 794 -755 
Q 877 -672 1040 -457 
Q 1203 -243 1248 -173 
Q 1312 -45 1312 51 
Q 1312 243 1113 1046 
Q 915 1850 787 2176 
Q 698 2413 592 2499 
Q 486 2586 294 2586 
Q 192 2586 96 2560 
L 96 2669 
Q 237 2694 301 2707 
Q 563 2758 986 2822 
L 1011 2822 
Q 1082 2822 1277 2227 
Q 1472 1632 1555 1190 
z
" transform="scale(0.015625)"/>
     </defs>
     <use xlink:href="#STIXGeneral-Regular-28" transform="translate(0 0.409375)"/>
     <use xlink:href="#STIXGeneral-Italic-61" transform="translate(33.299988 0.409375)"/>
     <use xlink:href="#STIXGeneral-Regular-32" transform="translate(89.573104 35.684375) scale(0.7)"/>
     <use xlink:href="#STIXGeneral-Regular-2212" transform="translate(143.422464 0.409375)"/>
     <use xlink:href="#STIXGeneral-Italic-63" transform="translate(226.362445 0.409375)"/>
     <use xlink:href="#STIXGeneral-Regular-32" transform="translate(276.935564 35.684375) scale(0.7)"/>
     <use xlink:href="#STIXGeneral-Regular-29" transform="translate(316.344929 0.409375)"/>
     <use xlink:href="#STIXGeneral-Italic-78" transform="translate(349.644916 0.409375)"/>
     <use xlink:href="#STIXGeneral-Regular-32" transform="translate(400.218035 35.684375) scale(0.7)"/>
     <use xlink:href="#STIXGeneral-Regular-2b" transform="translate(454.067396 0.409375)"/>
     <use xlink:href="#STIXGeneral-Italic-61" transform="translate(537.007377 0.409375)"/>
     <use xlink:href="#STIXGeneral-Regular-32" transform="translate(593.280493 35.684375) scale(0.7)"/>
     <use xlink:href="#STIXGeneral-Italic-79" transform="translate(632.689857 0.409375)"/>
     <use xlink:href="#STIXGeneral-Regular-32" transform="translate(683.262976 35.684375) scale(0.7)"/>
     <use xlink:href="#STIXGeneral-Regular-3d" transform="translate(737.112337 0.409375)"/>
     <use xlink:href="#STIXGeneral-Italic-61" transform="translate(820.052318 0.409375)"/>
     <use xlink:href="#STIXGeneral-Regular-32" transform="translate(876.325434 35.684375) scale(0.7)"/>
     <use xlink:href="#STIXGeneral-Regular-28" transform="translate(915.734798 0.409375)"/>
     <use xlink:href="#STIXGeneral-Italic-61" transform="translate(949.034786 0.409375)"/>
     <use xlink:href="#STIXGeneral-Regular-32" transform="translate(1005.307902 35.684375) scale(0.7)"/>
     <use xlink:href="#STIXGeneral-Regular-2212" transform="translate(1059.157262 0.409375)"/>
     <use xlink:href="#STIXGeneral-Italic-63" transform="translate(1142.097243 0.409375)"/>
     <use xlink:href="#STIXGeneral-Regular-32" transform="translate(1192.670362 35.684375) scale(0.7)"/>
     <use xlink:href="#STIXGeneral-Regular-29" transform="translate(1232.079727 0.409375)"/>
    </g>
   </g>
   <g id="text_6">
    <!-- 发现了吗？ -->
    <g style="fill: #5d4e37" transform="translate(372.672 247.549091) scale(0.16 -0.16)">
     <defs>
      <path id="LXGWWenKai-Regular-53d1" d="M 5888 -486 
Q 5811 -538 5734 -538 
Q 5658 -538 4966 -240 
Q 4275 58 3482 563 
Q 2829 96 2048 -205 
Q 1267 -506 992 -506 
Q 890 -506 890 -448 
Q 890 -365 1178 -262 
Q 1466 -160 1837 13 
Q 2656 390 3174 794 
Q 2720 1190 2170 1843 
Q 1594 941 883 346 
Q 595 109 524 109 
Q 454 109 454 163 
Q 454 218 672 432 
Q 890 646 1184 1024 
Q 1798 1824 2093 2432 
Q 2246 2758 2394 3162 
L 1421 3104 
Q 1350 3098 1305 3072 
Q 1261 3046 1193 3046 
Q 1126 3046 1020 3107 
Q 915 3168 915 3232 
Q 915 3296 928 3347 
Q 1549 4378 1587 4538 
L 1606 4755 
L 1581 4954 
Q 1587 4998 1644 4998 
Q 1702 4998 1878 4896 
Q 2054 4794 2054 4672 
Q 2054 4550 1421 3462 
L 2522 3533 
Q 2816 4570 2816 4758 
Q 2816 4947 2790 5030 
Q 2765 5114 2765 5133 
Q 2765 5197 2841 5197 
Q 2918 5197 3027 5165 
Q 3315 5062 3315 4909 
Q 3181 4218 2963 3558 
L 5050 3686 
Q 5184 3693 5254 3718 
Q 5325 3744 5379 3744 
Q 5434 3744 5520 3680 
Q 5606 3616 5664 3542 
Q 5722 3469 5722 3437 
Q 5715 3366 5562 3354 
L 2842 3194 
Q 2739 2925 2496 2432 
L 4589 2541 
Q 4736 2541 4848 2489 
Q 4960 2438 4960 2355 
L 4960 2298 
Q 4960 2246 4902 2192 
Q 4845 2138 4723 1942 
Q 4602 1747 4333 1420 
Q 4064 1094 3776 819 
Q 4819 160 6010 -141 
Q 6099 -173 6099 -259 
Q 6099 -346 5888 -486 
z
M 4998 4006 
Q 4890 3846 4800 3846 
Q 4710 3846 4634 3949 
Q 4358 4352 3981 4691 
Q 3923 4742 3923 4777 
Q 3923 4813 3923 4848 
Q 3923 4883 4012 4944 
Q 4102 5005 4134 5005 
Q 4166 5005 4275 4928 
Q 4384 4851 4512 4729 
Q 4640 4608 4761 4480 
Q 4883 4352 4963 4246 
Q 5043 4141 5043 4102 
Q 5043 4064 4998 4006 
z
M 3462 1043 
Q 4013 1562 4371 2176 
L 2451 2080 
Q 2925 1466 3462 1043 
z
" transform="scale(0.015625)"/>
      <path id="LXGWWenKai-Regular-73b0" d="M 1990 -506 
Q 1926 -531 1920 -531 
Q 1914 -531 1914 -486 
Q 1914 -378 2029 -314 
Q 3040 211 3456 864 
Q 3680 1229 3782 1712 
Q 3885 2195 3885 3552 
Q 3885 3629 3817 3705 
Q 3750 3782 3750 3836 
Q 3750 3891 3789 3891 
Q 3898 3891 4054 3849 
Q 4211 3808 4259 3776 
Q 4307 3744 4307 3654 
Q 4288 2688 4237 2144 
Q 4429 2093 4480 2041 
Q 4531 1990 4531 1894 
Q 4531 1798 4512 320 
Q 4512 141 4547 61 
Q 4582 -19 4697 -35 
Q 4813 -51 5213 -51 
Q 5613 -51 5728 -22 
Q 5843 6 5894 166 
Q 5990 493 6038 832 
Q 6086 1171 6163 1171 
Q 6195 1171 6233 1036 
Q 6272 902 6272 553 
Q 6272 205 6253 22 
Q 6234 -160 6147 -259 
Q 6061 -358 5865 -396 
Q 5670 -435 5200 -435 
Q 4730 -435 4522 -387 
Q 4314 -339 4218 -198 
Q 4122 -58 4122 218 
L 4122 243 
L 4134 1517 
Q 4038 1139 3866 819 
Q 3386 -13 1990 -506 
z
M 2861 1709 
Q 2886 1843 2886 2022 
L 2886 2125 
L 2822 4403 
Q 2810 4608 2755 4701 
Q 2701 4794 2701 4829 
Q 2701 4864 2800 4864 
Q 2899 4864 3206 4742 
L 5075 4858 
L 5139 4858 
Q 5248 4858 5344 4781 
Q 5440 4704 5440 4656 
Q 5440 4608 5427 4576 
Q 5414 4544 5408 4512 
L 5318 2035 
L 5312 1702 
L 5306 1651 
Q 5299 1510 5190 1517 
Q 5101 1523 4992 1593 
Q 4883 1664 4890 1741 
Q 4934 2042 4934 2054 
L 4941 2157 
L 4998 4506 
L 3206 4403 
L 3270 2029 
L 3283 1696 
L 3283 1645 
Q 3283 1504 3174 1504 
Q 3085 1504 2973 1568 
Q 2861 1632 2861 1709 
z
M 698 4301 
L 2061 4384 
Q 2221 4403 2281 4425 
Q 2342 4448 2368 4448 
Q 2394 4448 2470 4403 
Q 2682 4282 2682 4166 
Q 2682 4096 2534 4077 
L 1734 4019 
L 1728 2874 
L 1914 2886 
Q 2035 2893 2118 2925 
Q 2202 2957 2243 2957 
Q 2285 2957 2362 2906 
Q 2547 2771 2547 2669 
Q 2547 2592 2394 2579 
L 1722 2534 
L 1715 1280 
Q 2131 1466 2371 1584 
Q 2611 1702 2681 1702 
Q 2752 1702 2752 1651 
Q 2752 1555 2307 1273 
Q 1862 992 1318 717 
Q 774 442 672 442 
Q 474 442 294 704 
Q 288 723 278 739 
Q 269 755 269 768 
Q 269 832 352 832 
Q 435 832 611 867 
Q 787 902 1318 1120 
L 1331 2502 
L 1030 2483 
Q 986 2477 941 2477 
L 870 2477 
Q 749 2477 717 2502 
Q 595 2592 556 2681 
Q 518 2771 518 2797 
Q 518 2842 570 2842 
Q 595 2842 649 2829 
Q 704 2816 826 2816 
L 909 2816 
L 1331 2848 
L 1344 3994 
L 941 3968 
Q 838 3955 755 3955 
Q 672 3955 621 3987 
Q 480 4096 448 4182 
Q 416 4269 416 4282 
Q 416 4326 467 4326 
L 698 4301 
z
" transform="scale(0.015625)"/>
      <path id="LXGWWenKai-Regular-4e86" d="M 3603 698 
L 3597 384 
Q 3597 -288 3430 -550 
Q 3354 -666 3238 -666 
Q 2938 -666 2150 -38 
Q 1709 326 1709 448 
Q 1709 486 1766 486 
Q 1824 486 2169 284 
Q 2515 83 3059 -122 
L 3078 -122 
Q 3117 -122 3117 -83 
Q 3187 390 3187 896 
Q 3187 2509 2829 3123 
Q 2771 3219 2771 3273 
Q 2771 3328 2848 3389 
Q 2925 3450 3024 3450 
Q 3123 3450 3206 3283 
Q 3872 3776 4429 4435 
L 1664 4256 
Q 1536 4243 1446 4243 
Q 1357 4243 1293 4301 
Q 1114 4474 1114 4614 
Q 1114 4653 1149 4653 
Q 1184 4653 1241 4637 
Q 1299 4621 1421 4621 
L 4730 4832 
L 4806 4832 
Q 4922 4832 5027 4745 
Q 5133 4659 5133 4588 
Q 5133 4518 5078 4480 
Q 5024 4442 4992 4410 
Q 4160 3526 3354 2938 
Q 3603 2138 3603 698 
z
" transform="scale(0.015625)"/>
      <path id="LXGWWenKai-Regular-5417" d="M 3277 1901 
Q 3187 1894 3136 1868 
Q 3085 1843 3024 1843 
Q 2963 1843 2851 1904 
Q 2739 1965 2745 2032 
Q 2752 2099 2787 2220 
Q 2822 2342 2870 2585 
Q 2918 2829 2966 3040 
Q 3014 3251 3027 3392 
L 3034 3456 
Q 3046 3642 3017 3715 
Q 2989 3789 2989 3808 
Q 2989 3859 3040 3859 
Q 3091 3859 3219 3808 
Q 3347 3757 3417 3702 
Q 3488 3648 3482 3565 
L 3482 3533 
Q 3360 2918 3206 2259 
L 4282 2304 
L 4659 4474 
L 3104 4378 
Q 3066 4371 3034 4371 
L 2970 4371 
Q 2835 4371 2784 4416 
Q 2605 4563 2566 4762 
Q 2566 4806 2595 4806 
Q 2624 4806 2707 4787 
Q 2790 4768 2970 4768 
L 3027 4768 
L 4742 4883 
L 4845 4890 
Q 4934 4890 5036 4822 
Q 5139 4755 5139 4694 
Q 5139 4634 5126 4598 
Q 5114 4563 5101 4525 
L 4710 2323 
L 4781 2330 
L 5510 2355 
L 5562 2355 
Q 5677 2355 5760 2291 
Q 5843 2227 5843 2160 
Q 5843 2093 5827 2054 
Q 5811 2016 5786 1626 
Q 5690 371 5344 -320 
Q 5293 -422 5181 -505 
Q 5069 -589 4995 -589 
Q 4922 -589 4707 -496 
Q 4493 -403 4214 -176 
Q 3936 51 3936 147 
Q 3936 198 3990 198 
Q 4045 198 4224 102 
Q 4403 6 4890 -134 
L 4922 -134 
Q 4986 -134 5005 -83 
Q 5210 358 5296 825 
Q 5382 1293 5427 2016 
L 3277 1901 
z
M 2157 1997 
Q 2330 1824 2330 1757 
Q 2330 1690 2278 1670 
Q 2227 1651 2150 1645 
L 1114 1574 
L 1133 1242 
L 1133 1222 
Q 1133 1094 1030 1094 
Q 896 1094 809 1177 
Q 723 1261 723 1350 
L 749 1632 
L 634 3526 
Q 621 3731 557 3840 
Q 493 3949 493 3987 
Q 493 4026 573 4026 
Q 653 4026 979 3904 
L 1914 3974 
Q 1946 3981 1971 3981 
Q 1997 3981 2022 3981 
Q 2170 3981 2230 3897 
Q 2291 3814 2291 3769 
Q 2291 3725 2278 3689 
Q 2266 3654 2259 3610 
L 2157 1997 
z
M 1869 3610 
L 992 3552 
L 1088 1939 
L 1805 1990 
L 1869 3610 
z
M 2803 806 
Q 2624 806 2496 867 
Q 2368 928 2310 1197 
Q 2310 1235 2316 1235 
Q 2323 1235 2409 1206 
Q 2496 1178 2656 1178 
L 2714 1178 
L 4166 1261 
Q 4403 1280 4470 1302 
Q 4538 1325 4573 1325 
Q 4608 1325 4681 1273 
Q 4755 1222 4822 1142 
Q 4890 1062 4890 1005 
Q 4890 922 4755 909 
L 2906 806 
L 2803 806 
z
" transform="scale(0.015625)"/>
      <path id="LXGWWenKai-Regular-ff1f" d="M 1709 646 
Q 1856 646 1961 515 
Q 2067 384 2067 246 
Q 2067 109 1987 25 
Q 1907 -58 1753 -58 
Q 1600 -58 1497 64 
Q 1395 186 1395 323 
Q 1395 461 1478 553 
Q 1562 646 1709 646 
z
M 1920 1626 
L 1920 1510 
Q 1920 1434 1984 1178 
Q 1984 1075 1776 1075 
Q 1568 1075 1529 1180 
Q 1491 1286 1491 1433 
Q 1491 1581 1523 1795 
Q 1555 2010 1689 2192 
Q 1824 2374 2000 2524 
Q 2176 2675 2349 2829 
Q 2746 3181 2746 3635 
Q 2746 3866 2598 4026 
Q 2451 4186 2131 4186 
Q 1811 4186 1542 4064 
Q 1274 3942 1110 3772 
Q 947 3603 864 3322 
Q 838 3238 745 3238 
Q 653 3238 550 3324 
Q 448 3411 448 3478 
Q 448 3546 461 3565 
Q 762 4096 1174 4329 
Q 1587 4563 2112 4563 
Q 2637 4563 2925 4326 
Q 3213 4090 3213 3715 
Q 3213 3341 3091 3110 
Q 2970 2880 2787 2707 
Q 2605 2534 2416 2387 
Q 2227 2240 2073 2057 
Q 1920 1875 1920 1626 
z
" transform="scale(0.015625)"/>
     </defs>
     <use xlink:href="#LXGWWenKai-Regular-53d1"/>
     <use xlink:href="#LXGWWenKai-Regular-73b0" transform="translate(99.999985 0)"/>
     <use xlink:href="#LXGWWenKai-Regular-4e86" transform="translate(199.999969 0)"/>
     <use xlink:href="#LXGWWenKai-Regular-5417" transform="translate(299.999954 0)"/>
     <use xlink:href="#LXGWWenKai-Regular-ff1f" transform="translate(399.999939 0)"/>
    </g>
   </g>
   <g id="text_7">
    <!-- $OP^2 = a^2 - c^2$ -->
    <g style="fill: #e8837c" transform="translate(372.672 300.96) scale(0.22 -0.22)">
     <use xlink:href="#STIXGeneral-Italic-4f" transform="translate(0 0.409375)"/>
     <use xlink:href="#STIXGeneral-Italic-50" transform="translate(72.199982 0.409375)"/>
     <use xlink:href="#STIXGeneral-Regular-32" transform="translate(143.925754 35.684375) scale(0.7)"/>
     <use xlink:href="#STIXGeneral-Regular-3d" transform="translate(197.775114 0.409375)"/>
     <use xlink:href="#STIXGeneral-Italic-61" transform="translate(280.715096 0.409375)"/>
     <use xlink:href="#STIXGeneral-Regular-32" transform="translate(336.988211 35.684375) scale(0.7)"/>
     <use xlink:href="#STIXGeneral-Regular-2212" transform="translate(390.837572 0.409375)"/>
     <use xlink:href="#STIXGeneral-Italic-63" transform="translate(473.777553 0.409375)"/>
     <use xlink:href="#STIXGeneral-Regular-32" transform="translate(524.350672 35.684375) scale(0.7)"/>
    </g>
   </g>
   <g id="text_8">
    <!-- 令 $OP = b$, 则系数变为 $b^2$ -->
    <g style="fill: #5d4e37" transform="translate(372.672 354.370909) scale(0.18 -0.18)">
     <defs>
      <path id="LXGWWenKai-Regular-4ee4" d="M 3072 5318 
Q 3206 5318 3430 5120 
Q 3514 5043 3514 4982 
Q 3514 4922 3366 4685 
Q 4544 3226 6259 2304 
Q 6355 2259 6355 2208 
Q 6355 2182 6298 2112 
Q 6125 1914 5997 1914 
Q 5965 1914 5779 2022 
Q 5312 2298 4569 2915 
Q 3827 3533 3155 4346 
Q 2259 3046 998 2144 
Q 698 1926 493 1817 
Q 288 1709 233 1709 
Q 179 1709 179 1773 
Q 179 1837 320 1952 
Q 1427 2829 2253 3872 
Q 2669 4403 2957 4954 
Q 3014 5069 3014 5203 
L 3014 5235 
Q 3014 5318 3072 5318 
z
M 2330 2957 
Q 2330 3181 2486 3181 
Q 2643 3181 3219 2973 
Q 3795 2765 3948 2701 
Q 4102 2637 4102 2541 
Q 4102 2445 4038 2352 
Q 3974 2259 3920 2259 
Q 3866 2259 3686 2342 
Q 3258 2554 2451 2816 
Q 2330 2854 2330 2957 
z
M 2413 845 
Q 2579 845 3200 378 
Q 3757 870 4371 1613 
L 1914 1498 
L 1715 1491 
Q 1555 1491 1510 1581 
Q 1370 1792 1370 1846 
Q 1370 1901 1402 1901 
Q 1434 1901 1517 1881 
Q 1600 1862 1734 1862 
L 1792 1862 
L 4678 2010 
L 4762 2010 
Q 4909 2010 4976 1923 
Q 5043 1837 5043 1779 
Q 5043 1722 5004 1680 
Q 4966 1638 4787 1421 
Q 4384 934 3533 141 
Q 4038 -211 4083 -265 
Q 4128 -320 4128 -361 
Q 4128 -403 4083 -474 
Q 3968 -666 3866 -666 
Q 3821 -666 3738 -595 
Q 3098 -19 2310 493 
Q 2208 557 2208 614 
Q 2208 672 2259 758 
Q 2310 845 2413 845 
z
" transform="scale(0.015625)"/>
      <path id="LXGWWenKai-Regular-20" transform="scale(0.015625)"/>
      <path id="STIXGeneral-Italic-62" d="M 1043 1856 
L 1050 1856 
Q 1370 2387 1654 2604 
Q 1939 2822 2285 2822 
Q 2618 2822 2822 2617 
Q 3027 2413 3027 2054 
Q 3027 1562 2726 1062 
Q 2426 563 1942 246 
Q 1459 -70 979 -70 
Q 685 -70 416 32 
Q 147 134 147 269 
L 147 307 
L 1056 3654 
Q 1114 3885 1114 3955 
Q 1114 4058 1053 4080 
Q 992 4102 704 4115 
L 704 4224 
Q 1184 4282 1683 4371 
L 1715 4339 
L 1581 3814 
L 1043 1856 
z
M 2483 1958 
Q 2483 2509 2035 2509 
Q 1594 2509 1158 1773 
Q 954 1427 826 1008 
Q 698 589 698 294 
Q 698 77 992 77 
Q 1414 77 1779 454 
Q 2074 762 2278 1187 
Q 2483 1613 2483 1958 
z
" transform="scale(0.015625)"/>
      <path id="LXGWWenKai-Regular-2c" d="M 730 -666 
Q 646 -666 646 -576 
Q 646 -512 720 -464 
Q 794 -416 902 -285 
Q 1011 -154 1050 -51 
Q 954 -13 915 6 
Q 749 154 749 317 
Q 749 480 861 566 
Q 973 653 1117 653 
Q 1261 653 1360 531 
Q 1459 410 1478 243 
L 1478 192 
Q 1478 -90 1200 -378 
Q 922 -666 730 -666 
z
" transform="scale(0.015625)"/>
      <path id="LXGWWenKai-Regular-5219" d="M 3910 3731 
Q 3910 3878 3856 3964 
Q 3802 4051 3802 4089 
Q 3802 4128 3872 4128 
Q 3942 4128 4080 4077 
Q 4218 4026 4256 3987 
Q 4294 3949 4294 3866 
L 4314 973 
Q 4314 838 4205 838 
L 4192 838 
Q 4186 838 4173 844 
Q 4160 851 4102 864 
Q 3872 915 3872 1082 
Q 3872 1120 3894 1232 
Q 3917 1344 3917 1510 
L 3910 3731 
z
M 3286 323 
Q 3437 160 3539 35 
Q 3642 -90 3642 -128 
Q 3642 -166 3603 -224 
Q 3494 -384 3411 -384 
Q 3328 -384 3251 -294 
Q 2854 179 2381 646 
Q 2298 723 2298 787 
Q 2298 851 2384 918 
Q 2470 986 2515 986 
Q 2560 986 2685 886 
Q 2810 787 2973 636 
Q 3136 486 3286 323 
z
M 3277 4435 
L 3245 4288 
L 3155 1178 
L 3149 1069 
Q 3149 960 3040 963 
Q 2931 966 2841 1056 
Q 2752 1146 2752 1190 
Q 2752 1235 2765 1283 
Q 2778 1331 2810 2259 
L 2822 2598 
L 2854 4262 
L 1331 4147 
L 1350 3507 
L 1357 3162 
L 1376 2509 
L 1382 2163 
L 1395 1792 
L 1402 1440 
L 1414 1088 
L 1414 979 
Q 1414 870 1318 870 
Q 1203 870 1107 956 
Q 1011 1043 1011 1088 
Q 1011 1133 1027 1213 
Q 1043 1293 1043 1440 
L 1043 1510 
L 966 4122 
Q 954 4365 902 4470 
Q 851 4576 851 4617 
Q 851 4659 921 4659 
Q 992 4659 1325 4512 
L 2944 4634 
L 3021 4634 
Q 3142 4634 3209 4570 
Q 3277 4506 3277 4435 
z
M 5619 -141 
L 5626 -314 
Q 5626 -512 5523 -598 
Q 5421 -685 5350 -685 
Q 5280 -685 5072 -569 
Q 4864 -454 4489 -156 
Q 4115 141 4115 256 
Q 4115 301 4179 301 
Q 4243 301 4470 169 
Q 4698 38 5203 -154 
L 5216 4659 
Q 5216 4819 5120 4947 
Q 5094 4992 5094 5018 
Q 5094 5075 5177 5075 
Q 5261 5075 5414 5020 
Q 5568 4966 5600 4924 
Q 5632 4883 5632 4813 
L 5619 -141 
z
M 1946 3270 
Q 1946 3475 1910 3552 
Q 1875 3629 1875 3648 
Q 1875 3718 1968 3718 
Q 2061 3718 2138 3699 
Q 2355 3642 2355 3469 
Q 2355 2381 2323 1997 
Q 2291 1613 2188 1241 
Q 2086 870 1907 595 
Q 1728 320 1520 128 
Q 1312 -64 1117 -179 
Q 922 -294 784 -348 
Q 646 -403 614 -403 
Q 499 -403 499 -339 
Q 499 -275 602 -211 
Q 1030 45 1363 451 
Q 1696 858 1821 1347 
Q 1946 1837 1946 2394 
L 1946 3270 
z
" transform="scale(0.015625)"/>
      <path id="LXGWWenKai-Regular-7cfb" d="M 3034 1504 
Q 1408 1357 1254 1357 
Q 1101 1357 1001 1421 
Q 902 1485 819 1741 
Q 813 1754 813 1786 
Q 813 1818 858 1818 
Q 870 1818 883 1818 
Q 896 1818 1017 1789 
Q 1139 1760 1299 1760 
L 1344 1760 
L 1734 1779 
Q 2490 2330 2758 2547 
Q 2419 2739 2144 2915 
Q 1869 3091 1626 3174 
Q 1459 3238 1459 3334 
Q 1459 3405 1532 3494 
Q 1606 3584 1660 3584 
Q 1715 3584 1785 3552 
Q 1856 3520 1920 3485 
Q 1984 3450 2042 3424 
Q 2573 3834 2867 4243 
Q 2899 4288 2918 4346 
Q 2342 4275 1331 4192 
L 1293 4192 
Q 1120 4192 1120 4278 
Q 1120 4365 1306 4397 
Q 3994 4800 4410 5062 
Q 4480 5107 4512 5145 
Q 4544 5184 4585 5184 
Q 4627 5184 4752 5046 
Q 4877 4909 4877 4800 
Q 4877 4691 4800 4672 
Q 3974 4486 3181 4378 
Q 3334 4262 3334 4198 
Q 3334 4134 3251 4032 
Q 3149 3923 2758 3584 
Q 2547 3411 2336 3251 
Q 2490 3162 3053 2797 
Q 3962 3584 4096 3821 
Q 4128 3885 4147 3936 
Q 4166 3987 4195 3987 
Q 4224 3987 4314 3930 
Q 4557 3750 4557 3642 
Q 4557 3597 4506 3558 
Q 3366 2528 2304 1811 
Q 3398 1875 4595 2003 
Q 4416 2182 4281 2291 
Q 4147 2400 4147 2454 
Q 4147 2509 4220 2595 
Q 4294 2682 4345 2682 
Q 4397 2682 4544 2573 
Q 4883 2304 5270 1907 
Q 5658 1510 5658 1430 
Q 5658 1350 5571 1257 
Q 5485 1165 5427 1165 
Q 5370 1165 5200 1373 
Q 5030 1581 4915 1702 
Q 4307 1626 3424 1542 
L 3430 -58 
L 3437 -269 
Q 3437 -371 3347 -480 
Q 3258 -589 3155 -589 
Q 3053 -589 2845 -496 
Q 2637 -403 2320 -169 
Q 2003 64 2003 134 
Q 2003 179 2064 179 
Q 2125 179 2329 96 
Q 2534 13 3040 -115 
L 3034 1504 
z
M 2285 838 
Q 1888 371 1347 16 
Q 806 -339 723 -345 
Q 640 -352 640 -320 
Q 634 -250 730 -173 
Q 1082 122 1344 403 
Q 1811 896 1843 1152 
Q 1856 1248 1917 1251 
Q 1978 1254 2074 1190 
Q 2170 1126 2250 1046 
Q 2330 966 2333 931 
Q 2336 896 2285 838 
z
M 5632 6 
Q 5619 -115 5516 -217 
Q 5414 -320 5356 -313 
Q 5299 -307 5229 -218 
Q 4806 339 4147 954 
Q 4064 1030 4070 1065 
Q 4077 1101 4109 1155 
Q 4141 1210 4195 1254 
Q 4250 1299 4307 1292 
Q 4365 1286 4707 985 
Q 5050 685 5568 115 
Q 5638 45 5632 6 
z
" transform="scale(0.015625)"/>
      <path id="LXGWWenKai-Regular-6570" d="M 5510 3302 
Q 5267 2163 4851 1350 
Q 5357 512 6214 -205 
Q 6285 -262 6285 -300 
Q 6285 -339 6160 -425 
Q 6035 -512 5961 -512 
Q 5888 -512 5843 -467 
Q 5139 237 4659 998 
Q 4237 326 3674 -154 
Q 3443 -352 3286 -451 
Q 3130 -550 3085 -550 
Q 3040 -550 3040 -499 
Q 3040 -448 3130 -358 
Q 3552 58 3865 461 
Q 4179 864 4448 1370 
Q 4179 1888 3917 2688 
Q 3718 2304 3552 2089 
Q 3386 1875 3328 1875 
Q 3290 1875 3290 1939 
Q 3290 2003 3334 2099 
Q 3898 3341 4096 4403 
Q 4160 4768 4160 4829 
Q 4160 4890 4141 4973 
L 4141 4986 
Q 4141 5043 4205 5043 
Q 4243 5043 4339 5005 
Q 4621 4883 4621 4742 
Q 4621 4678 4496 4246 
Q 4371 3814 4275 3546 
L 5338 3616 
Q 5472 3629 5571 3661 
Q 5670 3693 5728 3693 
Q 5786 3693 5862 3629 
Q 6048 3482 6048 3398 
Q 6048 3341 5920 3328 
L 5510 3302 
z
M 1798 2432 
Q 1830 2624 1830 2790 
L 1830 2925 
Q 1830 2970 1843 3059 
L 1862 3142 
Q 1811 3053 1754 2976 
Q 1280 2490 762 2214 
Q 557 2106 502 2106 
Q 448 2106 448 2144 
Q 448 2202 550 2278 
Q 1114 2707 1645 3309 
L 992 3264 
L 915 3264 
Q 851 3264 758 3302 
Q 666 3341 614 3539 
Q 608 3552 608 3574 
Q 608 3597 633 3597 
Q 659 3597 713 3581 
Q 768 3565 870 3565 
L 1830 3622 
L 1830 4621 
Q 1830 4781 1795 4851 
Q 1760 4922 1760 4957 
Q 1760 4992 1811 4992 
Q 1862 4992 1952 4973 
Q 2202 4922 2202 4794 
L 2195 3642 
L 2931 3693 
Q 3072 3699 3136 3721 
Q 3200 3744 3257 3744 
Q 3315 3744 3408 3651 
Q 3501 3558 3501 3494 
Q 3501 3430 3366 3418 
L 2189 3341 
L 2189 3162 
Q 2234 3245 2307 3245 
Q 2381 3245 2736 3037 
Q 3091 2829 3187 2758 
Q 3283 2688 3283 2624 
Q 3283 2560 3219 2477 
Q 3155 2394 3113 2394 
Q 3072 2394 3002 2445 
Q 2662 2733 2227 2982 
Q 2221 2989 2211 3001 
Q 2202 3014 2189 3021 
L 2182 2368 
Q 2182 2208 2083 2208 
Q 1984 2208 1891 2281 
Q 1798 2355 1798 2432 
z
M 2822 4666 
Q 2835 4749 2880 4749 
Q 2899 4749 2970 4698 
Q 3187 4563 3187 4473 
Q 3187 4384 2931 4160 
Q 2458 3744 2323 3744 
Q 2291 3744 2291 3782 
Q 2291 3821 2467 4022 
Q 2643 4224 2784 4486 
Q 2822 4538 2822 4666 
z
M 1440 4201 
Q 1530 4109 1594 4029 
Q 1658 3949 1658 3910 
Q 1658 3872 1578 3798 
Q 1498 3725 1446 3725 
Q 1395 3725 1325 3821 
Q 1114 4109 909 4314 
Q 864 4371 864 4406 
Q 864 4442 918 4502 
Q 973 4563 1021 4563 
Q 1069 4563 1117 4518 
Q 1165 4474 1257 4384 
Q 1350 4294 1440 4201 
z
M 4160 3232 
L 4134 3162 
Q 4346 2342 4634 1754 
Q 4915 2432 5062 3283 
L 4160 3232 
z
M 2554 1920 
L 2547 2016 
Q 2547 2080 2604 2080 
Q 2662 2080 2739 2035 
Q 2950 1920 2950 1760 
L 2950 1747 
L 3341 1786 
L 3411 1792 
Q 3558 1792 3558 1728 
Q 3558 1645 3360 1606 
Q 3162 1568 2874 1523 
Q 2669 915 2336 499 
Q 2726 275 2905 156 
Q 3085 38 3085 -32 
Q 3085 -102 3033 -208 
Q 2982 -314 2918 -314 
Q 2854 -314 2640 -134 
Q 2426 45 2080 243 
Q 1466 -326 602 -474 
Q 454 -499 448 -499 
Q 352 -499 352 -454 
Q 352 -378 621 -282 
Q 1280 -45 1786 422 
Q 1382 646 1229 685 
Q 1120 710 1120 858 
Q 1120 902 1331 1280 
L 877 1235 
Q 774 1222 710 1222 
Q 461 1222 358 1581 
L 358 1600 
Q 358 1638 390 1638 
Q 422 1638 499 1619 
Q 576 1600 704 1600 
L 774 1600 
Q 947 1606 1129 1616 
Q 1312 1626 1504 1632 
Q 1670 2003 1670 2131 
L 1670 2195 
Q 1670 2272 1705 2272 
Q 1741 2272 1818 2227 
Q 2042 2093 2042 1978 
Q 2042 1920 1920 1658 
Q 2080 1670 2217 1686 
Q 2355 1702 2522 1715 
L 2541 1792 
Q 2554 1856 2554 1920 
z
M 1517 928 
Q 1683 858 2029 666 
Q 2272 973 2445 1453 
L 1754 1338 
Q 1690 1222 1635 1123 
Q 1581 1024 1517 928 
z
" transform="scale(0.015625)"/>
      <path id="LXGWWenKai-Regular-53d8" d="M 2842 710 
Q 1952 1357 1952 1504 
Q 1952 1568 2035 1635 
Q 2118 1702 2172 1702 
Q 2227 1702 2304 1626 
Q 2714 1254 3174 947 
Q 3706 1382 4077 1869 
L 2010 1754 
Q 1965 1747 1926 1747 
L 1850 1747 
Q 1696 1747 1629 1824 
Q 1562 1901 1523 1993 
Q 1485 2086 1485 2115 
Q 1485 2144 1510 2144 
Q 1536 2144 1609 2128 
Q 1683 2112 1843 2112 
L 1939 2112 
L 4275 2234 
L 4371 2240 
Q 4461 2240 4573 2157 
Q 4685 2074 4685 2000 
Q 4685 1926 4627 1888 
Q 4570 1850 4544 1818 
Q 4070 1190 3507 736 
Q 4576 115 5830 -128 
Q 5965 -154 5965 -198 
L 5914 -282 
Q 5747 -531 5600 -531 
L 5382 -467 
Q 4762 -301 4173 -38 
Q 3584 224 3168 486 
Q 2368 -64 1402 -346 
Q 1024 -454 800 -492 
Q 576 -531 570 -531 
Q 454 -531 454 -486 
Q 454 -416 678 -333 
Q 1280 -109 1821 134 
Q 2362 378 2842 710 
z
M 5811 2688 
Q 5811 2630 5731 2534 
Q 5651 2438 5590 2438 
Q 5530 2438 5376 2586 
Q 4941 3002 4371 3392 
Q 4288 3450 4288 3491 
Q 4288 3533 4349 3625 
Q 4410 3718 4464 3718 
Q 4518 3718 4768 3564 
Q 5018 3411 5414 3094 
Q 5811 2778 5811 2688 
z
M 2003 3552 
Q 2074 3469 2074 3424 
Q 2074 3322 1626 2922 
Q 1178 2522 794 2330 
Q 678 2272 627 2272 
Q 576 2272 576 2304 
Q 576 2355 698 2458 
Q 1587 3245 1638 3648 
Q 1645 3750 1709 3750 
Q 1811 3750 2003 3552 
z
M 2931 5171 
Q 3398 5171 3398 5018 
L 3398 4390 
L 5094 4493 
Q 5306 4512 5370 4531 
Q 5434 4550 5485 4550 
Q 5536 4550 5626 4499 
Q 5837 4371 5837 4268 
Q 5837 4166 5728 4154 
L 4000 4058 
L 3930 4051 
L 3930 2573 
Q 3930 2381 3808 2381 
Q 3750 2381 3651 2441 
Q 3552 2502 3504 2550 
Q 3456 2598 3456 2669 
Q 3507 3021 3507 3238 
L 3507 4026 
L 2938 3994 
L 2803 3987 
L 2803 2547 
Q 2803 2355 2682 2355 
Q 2624 2355 2525 2416 
Q 2426 2477 2378 2525 
Q 2330 2573 2330 2643 
Q 2381 2893 2381 3213 
L 2381 3968 
L 1216 3898 
Q 1088 3885 960 3885 
Q 832 3885 761 3955 
Q 691 4026 646 4118 
Q 602 4211 602 4246 
Q 602 4282 646 4282 
Q 832 4250 986 4250 
L 1069 4250 
L 2976 4365 
L 2970 4800 
Q 2970 4960 2918 5027 
Q 2867 5094 2867 5132 
Q 2867 5171 2931 5171 
z
" transform="scale(0.015625)"/>
      <path id="LXGWWenKai-Regular-4e3a" d="M 2579 3856 
Q 2490 3763 2445 3763 
Q 2400 3763 2278 3878 
Q 2099 4064 1478 4474 
Q 1376 4538 1376 4598 
Q 1376 4659 1440 4739 
Q 1504 4819 1555 4819 
Q 1606 4819 1670 4781 
Q 2669 4186 2669 4032 
Q 2669 3949 2579 3856 
z
M 4102 1987 
Q 4211 1894 4332 1750 
Q 4454 1606 4454 1536 
Q 4454 1466 4348 1363 
Q 4243 1261 4172 1261 
Q 4102 1261 4038 1344 
Q 3706 1798 3341 2125 
Q 3206 2246 3206 2310 
Q 3206 2374 3283 2451 
Q 3360 2528 3427 2528 
Q 3494 2528 3574 2457 
Q 3654 2387 3824 2233 
Q 3994 2080 4102 1987 
z
M 5171 3635 
L 5267 3642 
Q 5376 3642 5475 3562 
Q 5574 3482 5574 3414 
Q 5574 3347 5555 3305 
Q 5536 3264 5530 3232 
Q 5478 2125 5347 1318 
Q 5216 512 5155 262 
Q 5094 13 5059 -153 
Q 5024 -320 4909 -429 
Q 4794 -538 4662 -538 
Q 4531 -538 4396 -454 
Q 4262 -371 3990 -182 
Q 3718 6 3404 281 
Q 3091 557 3091 637 
Q 3091 717 3161 717 
Q 3232 717 3427 601 
Q 3622 486 4060 265 
Q 4499 45 4560 45 
Q 4621 45 4627 96 
Q 5018 1466 5082 3245 
L 3309 3155 
Q 3046 1920 2342 992 
Q 1792 269 1133 -166 
Q 858 -352 672 -435 
Q 486 -518 428 -518 
Q 371 -518 371 -457 
Q 371 -397 480 -320 
Q 1658 493 2259 1626 
Q 2630 2342 2822 3130 
L 1517 3059 
L 1318 3053 
L 1261 3053 
Q 1146 3078 1053 3232 
Q 960 3386 960 3437 
Q 960 3488 1011 3488 
Q 1043 3488 1120 3469 
Q 1197 3450 1325 3450 
L 1382 3450 
L 2912 3514 
Q 3021 4128 3021 4768 
Q 3021 4947 2995 5008 
Q 2970 5069 2970 5107 
Q 2970 5171 3043 5171 
Q 3117 5171 3226 5139 
Q 3507 5043 3507 4941 
Q 3488 4173 3379 3539 
L 5171 3635 
z
" transform="scale(0.015625)"/>
     </defs>
     <use xlink:href="#LXGWWenKai-Regular-4ee4" transform="translate(0 0.90625)"/>
     <use xlink:href="#LXGWWenKai-Regular-20" transform="translate(99.999985 0.90625)"/>
     <use xlink:href="#STIXGeneral-Italic-4f" transform="translate(134.999969 0.90625)"/>
     <use xlink:href="#STIXGeneral-Italic-50" transform="translate(207.199951 0.90625)"/>
     <use xlink:href="#STIXGeneral-Regular-3d" transform="translate(282.739938 0.90625)"/>
     <use xlink:href="#STIXGeneral-Italic-62" transform="translate(365.679919 0.90625)"/>
     <use xlink:href="#LXGWWenKai-Regular-2c" transform="translate(415.679904 0.90625)"/>
     <use xlink:href="#LXGWWenKai-Regular-20" transform="translate(450.679889 0.90625)"/>
     <use xlink:href="#LXGWWenKai-Regular-5219" transform="translate(485.679874 0.90625)"/>
     <use xlink:href="#LXGWWenKai-Regular-7cfb" transform="translate(585.679858 0.90625)"/>
     <use xlink:href="#LXGWWenKai-Regular-6570" transform="translate(685.679843 0.90625)"/>
     <use xlink:href="#LXGWWenKai-Regular-53d8" transform="translate(785.679828 0.90625)"/>
     <use xlink:href="#LXGWWenKai-Regular-4e3a" transform="translate(885.679813 0.90625)"/>
     <use xlink:href="#LXGWWenKai-Regular-20" transform="translate(985.679797 0.90625)"/>
     <use xlink:href="#STIXGeneral-Italic-62" transform="translate(1020.679782 0.90625)"/>
     <use xlink:href="#STIXGeneral-Regular-32" transform="translate(1081.935548 36.18125) scale(0.7)"/>
    </g>
   </g>
   <g id="text_9">
    <!-- 由定义知：$|PF_1| + |PF_2| = 2a$ -->
    <g style="fill: #5d4e37" transform="translate(66.8 434.487273) scale(0.16 -0.16)">
     <defs>
      <path id="LXGWWenKai-Regular-7531" d="M 922 3450 
Q 922 3501 1011 3501 
Q 1101 3501 1459 3373 
L 2950 3450 
L 2950 4730 
Q 2950 4870 2876 4960 
Q 2803 5050 2803 5088 
Q 2803 5146 2883 5146 
Q 2963 5146 3136 5101 
Q 3309 5056 3341 5005 
Q 3373 4954 3373 4877 
L 3366 3475 
L 5043 3565 
L 5101 3565 
Q 5267 3565 5369 3478 
Q 5472 3392 5472 3331 
Q 5472 3270 5453 3235 
Q 5434 3200 5427 3162 
L 5158 371 
Q 5338 173 5338 112 
Q 5338 51 5280 35 
Q 5222 19 5126 13 
L 1670 -77 
L 1683 -262 
L 1683 -294 
Q 1683 -435 1574 -435 
Q 1453 -435 1341 -348 
Q 1229 -262 1229 -192 
L 1235 -109 
Q 1242 -64 1242 -19 
L 1242 160 
Q 1242 205 1235 250 
L 1043 2976 
Q 1024 3181 973 3299 
Q 922 3418 922 3450 
z
M 4954 3187 
L 3366 3104 
L 3360 1990 
L 4877 2061 
L 4954 3187 
z
M 2950 3085 
L 1459 3008 
L 1536 1901 
L 2950 1971 
L 2950 3085 
z
M 4851 1702 
L 3354 1632 
L 3347 339 
L 4762 378 
L 4851 1702 
z
M 2950 1613 
L 1562 1542 
L 1645 301 
L 2950 333 
L 2950 1613 
z
" transform="scale(0.015625)"/>
      <path id="LXGWWenKai-Regular-5b9a" d="M 1369 4467 
Q 1440 4467 1536 4425 
Q 1632 4384 1632 4329 
Q 1632 4275 1581 4096 
L 2989 4179 
L 2989 4755 
Q 2989 4890 2928 4976 
Q 2867 5062 2867 5094 
Q 2867 5146 2940 5146 
Q 3014 5146 3123 5114 
Q 3418 5024 3418 4915 
L 3411 4205 
L 5395 4326 
L 5453 4326 
Q 5587 4326 5680 4246 
Q 5773 4166 5773 4112 
Q 5773 4058 5728 4013 
Q 5683 3968 5609 3865 
Q 5536 3763 5376 3571 
Q 4998 3098 4864 3098 
Q 4832 3098 4832 3149 
Q 4832 3200 4963 3421 
Q 5094 3642 5203 3949 
L 1472 3738 
Q 1158 2906 1030 2829 
Q 998 2810 960 2810 
Q 922 2810 822 2883 
Q 723 2957 723 3001 
Q 723 3046 803 3184 
Q 883 3322 1024 3674 
Q 1165 4026 1267 4371 
Q 1299 4467 1369 4467 
z
M 1702 1498 
Q 1824 1837 1824 1920 
L 1824 2035 
Q 1824 2061 1811 2125 
Q 1811 2189 1875 2189 
Q 1939 2189 2035 2137 
Q 2131 2086 2204 2012 
Q 2278 1939 2278 1894 
Q 2278 1850 2192 1606 
Q 2106 1363 1920 1024 
Q 2445 730 2982 525 
L 3002 2637 
L 2003 2579 
L 1818 2573 
Q 1709 2573 1677 2605 
Q 1574 2714 1532 2816 
Q 1491 2918 1491 2950 
Q 1491 2982 1536 2982 
Q 1555 2982 1619 2966 
Q 1683 2950 1811 2950 
L 1882 2950 
L 4179 3072 
Q 4358 3091 4409 3104 
Q 4461 3117 4518 3117 
Q 4576 3117 4659 3059 
Q 4851 2918 4851 2816 
Q 4851 2739 4698 2726 
L 3405 2656 
L 3392 1766 
L 4243 1805 
Q 4378 1811 4464 1840 
Q 4550 1869 4585 1869 
Q 4621 1869 4697 1821 
Q 4774 1773 4841 1702 
Q 4909 1632 4909 1581 
Q 4909 1491 4755 1478 
L 3392 1427 
L 3379 390 
Q 4416 64 5888 -26 
Q 6048 -32 6048 -96 
Q 6048 -122 5997 -218 
Q 5856 -467 5728 -467 
Q 4947 -378 4320 -250 
Q 2874 51 1741 730 
Q 1261 26 762 -384 
Q 570 -538 515 -538 
Q 461 -538 461 -483 
Q 461 -429 538 -346 
Q 1402 646 1702 1498 
z
" transform="scale(0.015625)"/>
      <path id="LXGWWenKai-Regular-4e49" d="M 3718 3955 
Q 3718 3878 3625 3798 
Q 3533 3718 3475 3718 
Q 3418 3718 3360 3789 
Q 2918 4320 2522 4659 
Q 2458 4717 2458 4771 
Q 2458 4826 2531 4909 
Q 2605 4992 2681 4992 
Q 2758 4992 3100 4662 
Q 3443 4333 3580 4182 
Q 3718 4032 3718 3955 
z
M 3501 1696 
Q 4211 992 4979 538 
Q 5446 262 6061 13 
Q 6170 -26 6170 -83 
Q 6170 -102 6106 -179 
Q 5926 -390 5779 -390 
Q 5754 -390 5715 -371 
Q 4339 269 3226 1376 
Q 2336 410 1075 -173 
Q 768 -314 579 -381 
Q 390 -448 365 -448 
Q 294 -448 294 -397 
Q 301 -301 454 -224 
Q 1139 134 1805 640 
Q 2432 1114 2944 1683 
Q 2176 2560 1600 3622 
Q 1293 4166 1289 4259 
Q 1286 4352 1388 4393 
Q 1491 4435 1549 4435 
Q 1645 4435 1722 4256 
Q 1875 3917 2310 3206 
Q 2675 2611 3213 2010 
Q 3782 2733 4122 3443 
Q 4518 4275 4525 4614 
L 4531 4672 
Q 4531 4704 4525 4736 
Q 4525 4800 4582 4800 
Q 4621 4800 4730 4742 
Q 5030 4595 5024 4435 
Q 5024 4416 4937 4176 
Q 4851 3936 4672 3552 
Q 4237 2598 3501 1696 
z
" transform="scale(0.015625)"/>
      <path id="LXGWWenKai-Regular-77e5" d="M 634 1958 
Q 550 1958 508 1968 
Q 467 1978 403 2058 
Q 339 2138 288 2291 
Q 288 2342 339 2342 
Q 358 2342 422 2320 
Q 486 2298 634 2298 
L 704 2298 
L 1837 2355 
Q 1907 2880 1907 3546 
L 1389 3514 
Q 1363 3462 1254 3241 
Q 1146 3021 934 2701 
Q 710 2336 595 2336 
Q 544 2336 544 2403 
Q 544 2470 666 2701 
Q 928 3200 1145 3952 
Q 1363 4704 1363 4800 
L 1363 4941 
Q 1363 4979 1350 5018 
L 1350 5056 
Q 1350 5094 1401 5094 
Q 1453 5094 1574 5030 
Q 1830 4909 1830 4800 
Q 1830 4730 1715 4365 
Q 1600 4000 1536 3866 
L 2682 3942 
Q 2822 3955 2860 3968 
Q 2899 3981 2960 3981 
Q 3021 3981 3088 3923 
Q 3155 3866 3200 3798 
Q 3245 3731 3245 3699 
Q 3245 3629 3091 3616 
L 2336 3571 
Q 2323 2893 2253 2374 
L 2867 2406 
Q 2995 2419 3081 2444 
Q 3168 2470 3222 2470 
Q 3277 2470 3347 2413 
Q 3507 2285 3507 2182 
Q 3507 2099 3341 2086 
L 2202 2029 
Q 2182 1946 2166 1859 
Q 2150 1773 2125 1690 
Q 2906 966 3411 269 
Q 3450 224 3450 157 
Q 3450 90 3389 29 
Q 3328 -32 3264 -64 
Q 3200 -96 3187 -96 
Q 3123 -96 3066 -6 
Q 2592 704 2003 1306 
Q 1683 486 1075 -58 
Q 819 -282 624 -390 
Q 429 -499 358 -499 
Q 288 -499 288 -448 
Q 288 -371 435 -256 
Q 806 32 1178 538 
Q 1658 1210 1786 2010 
L 749 1958 
L 634 1958 
z
M 5562 813 
Q 5722 627 5722 563 
Q 5722 499 5677 486 
Q 5632 474 5562 467 
L 4186 422 
L 4192 218 
L 4192 192 
Q 4192 51 4096 51 
Q 3974 51 3872 147 
Q 3770 243 3770 320 
L 3770 352 
Q 3789 486 3789 614 
L 3789 698 
L 3642 3501 
Q 3629 3699 3577 3811 
Q 3526 3923 3526 3968 
Q 3526 4013 3616 4013 
Q 3706 4013 3994 3898 
L 5472 3981 
L 5536 3987 
Q 5638 3987 5731 3904 
Q 5824 3821 5824 3766 
Q 5824 3712 5808 3683 
Q 5792 3654 5786 3622 
L 5562 813 
z
M 5363 3610 
L 4038 3533 
L 4166 781 
L 5178 819 
L 5363 3610 
z
" transform="scale(0.015625)"/>
      <path id="STIXGeneral-Regular-7c" d="M 851 -90 
L 429 -90 
L 429 4326 
L 851 4326 
L 851 -90 
z
" transform="scale(0.015625)"/>
      <path id="STIXGeneral-Regular-31" d="M 2522 0 
L 755 0 
L 755 96 
Q 1107 115 1235 227 
Q 1363 339 1363 608 
L 1363 3482 
Q 1363 3795 1171 3795 
Q 1082 3795 883 3718 
L 710 3654 
L 710 3744 
L 1856 4326 
L 1914 4307 
L 1914 486 
Q 1914 275 2042 185 
Q 2170 96 2522 96 
L 2522 0 
z
" transform="scale(0.015625)"/>
     </defs>
     <use xlink:href="#LXGWWenKai-Regular-7531" transform="translate(0 0.59375)"/>
     <use xlink:href="#LXGWWenKai-Regular-5b9a" transform="translate(99.999985 0.59375)"/>
     <use xlink:href="#LXGWWenKai-Regular-4e49" transform="translate(199.999969 0.59375)"/>
     <use xlink:href="#LXGWWenKai-Regular-77e5" transform="translate(299.999954 0.59375)"/>
     <use xlink:href="#LXGWWenKai-Regular-ff1a" transform="translate(399.999939 0.59375)"/>
     <use xlink:href="#STIXGeneral-Regular-7c" transform="translate(499.999924 0.59375)"/>
     <use xlink:href="#STIXGeneral-Italic-50" transform="translate(519.999908 0.59375)"/>
     <use xlink:href="#STIXGeneral-Italic-46" transform="translate(581.099899 0.59375)"/>
     <use xlink:href="#STIXGeneral-Regular-31" transform="translate(642.19989 -12.634375) scale(0.7)"/>
     <use xlink:href="#STIXGeneral-Regular-7c" transform="translate(681.609254 0.59375)"/>
     <use xlink:href="#STIXGeneral-Regular-2b" transform="translate(716.049236 0.59375)"/>
     <use xlink:href="#STIXGeneral-Regular-7c" transform="translate(798.989217 0.59375)"/>
     <use xlink:href="#STIXGeneral-Italic-50" transform="translate(818.989201 0.59375)"/>
     <use xlink:href="#STIXGeneral-Italic-46" transform="translate(880.089192 0.59375)"/>
     <use xlink:href="#STIXGeneral-Regular-32" transform="translate(941.189183 -12.634375) scale(0.7)"/>
     <use xlink:href="#STIXGeneral-Regular-7c" transform="translate(980.598547 0.59375)"/>
     <use xlink:href="#STIXGeneral-Regular-3d" transform="translate(1015.038528 0.59375)"/>
     <use xlink:href="#STIXGeneral-Regular-32" transform="translate(1097.97851 0.59375)"/>
     <use xlink:href="#STIXGeneral-Italic-61" transform="translate(1147.978494 0.59375)"/>
    </g>
   </g>
   <g id="text_10">
    <!-- $P$ -->
    <g transform="translate(100.512 131.825455) scale(0.18 -0.18)">
     <use xlink:href="#STIXGeneral-Italic-50" transform="translate(0 0.703125)"/>
    </g>
   </g>
   <g id="text_11">
    <!-- $F_2$ -->
    <g transform="translate(287.136 300.96) scale(0.18 -0.18)">
     <use xlink:href="#STIXGeneral-Italic-46" transform="translate(0 0.703125)"/>
     <use xlink:href="#STIXGeneral-Regular-32" transform="translate(61.099991 -12.525) scale(0.7)"/>
    </g>
   </g>
   <g id="text_12">
    <!-- $O$ -->
    <g transform="translate(100.512 300.96) scale(0.18 -0.18)">
     <use xlink:href="#STIXGeneral-Italic-4f" transform="translate(0 0.296875)"/>
    </g>
   </g>
  </g>
 </g>
 <defs>
  <clipPath id="p4d4b977aca">
   <rect x="7.2" y="7.2" width="777.6" height="489.6"/>
  </clipPath>
 </defs>
</svg>
